<?xml version="1.0" standalone="no"?>
<!DOCTYPE svg PUBLIC "-//W3C//DTD SVG 1.1//EN" "http://www.w3.org/Graphics/SVG/1.1/DTD/svg11.dtd" >
<svg xmlns="http://www.w3.org/2000/svg" xmlns:xlink="http://www.w3.org/1999/xlink" version="1.1">
<metadata></metadata>
<defs>
<font id="typewriterregular" horiz-adv-x="1112" >
<font-face units-per-em="2048" ascent="1638" descent="-410" />
<missing-glyph horiz-adv-x="500" />
<glyph horiz-adv-x="0" />
<glyph horiz-adv-x="682" />
<glyph unicode=" " />
<glyph unicode="!" d="M444.5 60.5q-2.5 7.5 4.5 13.5q-1 14 2 26.5t12.5 27.5t14.5 21t20 23q12 -1 31.5 3t34.5 3.5t28 -10.5q4 -6 10.5 -11t16 -10t14.5 -8q1 -11 5 -20.5t11 -21t10 -19.5q-22 -11 -22 -25q2 -14 -7.5 -29t-8.5 -26q-41 -35 -86 -18q-6 4 -24 10t-28 14t-12 25q-2 3 -9 9 t-11 10.5t-6.5 12zM487 965q-4 113 11 198q8 39 26 47q40 9 54.5 6.5t48.5 -22.5q9 -27 4.5 -111.5t3.5 -111.5q0 -97 -12.5 -280t-14.5 -275q-2 -14 -0.5 -26.5t-2 -22.5t-15.5 -13q-12 -2 -23 -9t-15.5 -10t-12 2.5t-19.5 24.5q-14 20 -13.5 79t-2.5 85q10 73 -9.5 211.5 t-7.5 227.5z" />
<glyph unicode="&#x22;" d="M253 1086.5q-4 19.5 11 37.5q2 4 3.5 15t5 18.5t12.5 11.5q51 -13 65 15q13 3 43 -3t39 3q3 -3 9 -13t12 -16t14 -8l2 2q5 -12 -5.5 -27t-6.5 -26q4 -10 -2 -30.5t-2 -33.5q-4 -1 -12 0.5t-15 0t-12 -8.5q2 -13 0.5 -23t2 -20t13.5 -18q-11 0 -20 -9q-3 -12 14 -29t8 -32 q-11 -3 -14 -16t4 -23q8 -5 10 -14t-2 -17q-1 -3 -8 -6t-4 -10q9 -10 12 -24t3.5 -31t2.5 -25q9 -38 -24 -68q-13 -5 -30 -24t-22 -23q-7 11 -23 20t-22 15q-10 15 -9 45t-9 43q9 19 11 45.5t0.5 41t-5.5 46.5q1 6 4.5 20.5t4.5 22.5t-2.5 19.5t-12.5 19.5q10 7 7.5 10.5 t-8 11t-3.5 13.5q5 17 -4 35.5t-20.5 32.5t-15.5 33.5zM658 1094.5q-4 27.5 1 45.5t29 27q10 0 28.5 11.5t33.5 9.5q8 14 24 6.5t23 1.5q18 3 18 -14q7 -5 25 -11t28.5 -14t12.5 -24q-3 -14 -3 -20t3 -20t4 -20q-33 -15 -47 -43q8 -14 -10 -26.5t-5 -28.5q9 -38 13 -61 t2.5 -55t-13.5 -58q-7 -17 5 -47t6 -47q-7 -48 -39 -70q-7 -1 -20.5 -8t-22.5 -6t-17 14q-46 25 -39 84q4 2 9 18q-4 1 -7.5 4.5t-6.5 10t-5 8.5q11 18 9.5 51.5t0.5 52.5q7 7 0.5 23t1.5 26q23 23 11 68q-14 8 -22 36.5t-30 33.5q3 14 -1 41.5z" />
<glyph unicode="$" d="M105 282.5q-3 12.5 6 18.5q-1 12 1 22.5t4.5 18t9.5 17t10.5 14t14.5 15.5l15 15q15 -1 39.5 3t44 3t35.5 -14q4 -8 11.5 -13.5t18 -11.5t15.5 -10q1 -19 18 -67q-16 -10 -16 -37q2 -10 -1 -18t-9.5 -18t-8.5 -15q11 -11 25 -6q8 -16 33 -35t32 -33q10 -14 25 -14 q9 6 21.5 7t22.5 -1t24 -5.5t22 -4.5q-1 7 -2 23t-2 24q0 45 8 92q-1 5 -1.5 13t-1.5 30.5t1 32.5q1 9 5.5 16t4.5 14q0 4 -6 16t-6 17q0 21 5 49.5t4.5 53t-11.5 55.5q-2 69 -4 69q-4 0 -19 0.5t-26.5 3t-22.5 7.5q-15 22 -61 30.5t-59 16.5q-59 21 -107 63q-2 18 -18.5 37 t-29 38t-9.5 40q-22 24 -2.5 72.5t6.5 72.5q5 19 27 55t26 60q8 6 41.5 27t46.5 39q11 1 28.5 10.5t28 12t31.5 -6.5q10 26 30.5 25.5t39 -10.5t37.5 3q9 3 18 9q-3 21 -12 45l12 32l-14 27l6 29q13 -4 20.5 9t14.5 13q18 2 34 -9t15 -26q-10 -12 -0.5 -14t10.5 -10 q2 -26 -2 -51v-43h19q14 -17 30 -17q15 -14 51 -19t50 -22q10 5 27 4.5t26 -6.5q-4 -28 12 -28q3 -8 41 -31q14 -2 37 -19q18 -29 39 -47q2 -29 18 -65q-10 -6 -10 -53q1 -10 -5 -14.5t-14 -5t-14.5 -5t-5.5 -14.5q-26 -20 -42.5 -24.5t-47.5 3.5q-8 6 -29 14t-32.5 18.5 t-12.5 29.5q-3 4 -11.5 12t-13 13t-7 14t7.5 16q-5 45 37 94q-10 11 -23 8q-15 -7 -28 0t-19.5 17t-16.5 13.5t-20 -9.5q-4 0 -20 -1t-25 -1q0 -13 2 -19q0 -9 2 -33.5t2 -37.5q0 -14 -5.5 -28.5t-6.5 -18.5q-1 -6 3.5 -24t4.5 -28q0 -4 -2.5 -23t-1.5 -34q1 -18 1 -47 t1 -47q0 -22 8 -68q14 -10 24 -15t26.5 -5t33.5 8q18 9 45 -16t47 -15q8 -4 22.5 -13t26 -14t23.5 -6q15 2 33.5 -12.5t25.5 -15.5q1 -9 7 -17.5t9.5 -11t14.5 -10.5q8 4 16.5 -5t8.5 -18q8 -12 35 -57q1 -7 3.5 -26.5t3.5 -30t0 -26t-5 -28.5q13 -91 -27 -190 q-14 -8 -22.5 -28t-19.5 -37t-32 -21q-65 -25 -106 -55q-19 -6 -39.5 -3t-42.5 -2.5t-31 -23.5q-8 -13 -30.5 -9.5t-30.5 -11.5q-6 0 -15 3v-66q14 -15 11.5 -37.5t-19.5 -34.5q-2 -2 -9 -10q-19 -22 -20 -8q-1 4 0 10q-22 -3 -38 6q-5 4 -5 23.5t-18 30.5q2 46 4 77 q4 26 8 39q-18 6 -34 6q-14 12 -42 7.5t-47 1.5q-46 3 -65 43q-9 11 -38 12.5t-38 15.5q-2 3 -8 13.5t-8.5 13t-8 7.5t-12 5.5t-16.5 -0.5q-6 2 -12.5 10t-15 21t-11.5 18q-35 14 -35 47q-2 3 -11 14.5t-12.5 18t-6.5 19zM262 965q6 -17 4 -54t13 -53q0 -2 -0.5 -7.5 t-0.5 -8.5t1.5 -7t5.5 -6q7 -3 36.5 -19.5t47.5 -21.5q1 -6 5.5 -11t8 -7t13 -5.5t10.5 -4.5q13 6 27.5 -4.5t23 -18t22.5 5.5q8 -2 13.5 -6t12 -12.5t9.5 -11.5v67l4 54q4 61 2 86h-2q-3 48 -10 88v1v1v2v1v2v1v2v1v2v2v2v1v2v2v2v2v3v2v2v3v2v3v3v2v4v3v10q0 25 4 57 q-14 3 -29 -12q-62 4 -75 4q-10 -5 -21.5 -16t-21.5 -17t-23 -4q-73 -57 -80 -118zM595.5 357.5q1.5 -14.5 6 -42.5t4.5 -45q0 -12 2.5 -35.5t0.5 -38t-11 -30.5l8 -72q9 3 12 6q11 10 31 5.5t33 0.5q3 0 14.5 -1t17.5 -0.5t14.5 4.5t12.5 12q-4 6 0 15t6 12t10 10.5 t11 11.5q55 0 84 27q14 18 25 57.5t18 52.5q-11 10 -9.5 16t6.5 16t3 17h2q13 64 -25 115q-22 1 -43 26t-38 29q-22 -10 -59.5 15t-59.5 12q-22 19 -31 37q-18 -6 -37 -6q-4 -20 -2 -31q0 -16 -2 -49.5t-2 -54.5q13 -32 2 -54q-6 -23 -4.5 -37.5z" />
<glyph unicode="%" d="M31.5 705.5q3.5 24.5 8.5 37.5t14.5 35.5t13.5 36.5q-10 15 -6 34.5t11.5 32t17.5 31t13 33.5q16 37 69.5 90t62.5 64q16 3 36 14t33.5 19.5t35 13t40.5 -5.5q21 4 42 -2t28 -23q19 6 38 -11t37 -13q20 -12 15.5 -40.5t11.5 -43.5q-3 -10 3.5 -20.5t13.5 -17t6.5 -15 t-13.5 -17.5q0 -3 -3 -10t-3 -12t6 -9q6 1 9 -0.5t2 -5t-2.5 -7t-3.5 -7.5t-1 -6q-9 -8 -10 -19.5t2 -20t-1.5 -17t-20.5 -13.5q-6 -10 -8.5 -19.5t-3 -24t-1.5 -22.5q-4 -24 -30 -58t-29 -40q-1 -12 -9 -19.5t-17.5 -10t-18.5 -10.5t-10 -21q-9 -1 -21 -16t-24 -13 q-12 -25 -36 -33.5t-51 -14t-42 -20.5q-5 2 -24.5 14t-33 15.5t-31.5 -0.5q-43 14 -74.5 54.5t-35.5 89.5q-9 19 -5.5 43.5zM56.5 -193.5q-3.5 13.5 19.5 31.5q8 24 34.5 61t34.5 56q-6 20 5.5 34t29.5 28t23 26q1 12 14.5 41t7.5 45l26 26t34 37t20 33q2 13 16.5 38.5 t14.5 43.5q2 15 24 32t21 34q23 9 45.5 44.5t30.5 43.5q-10 6 -1.5 21.5t7.5 21.5q22 49 94 121q-10 16 -7.5 23.5t10.5 22t9 23.5q6 8 24 25t25.5 32.5t2.5 34.5q4 11 28.5 50t24.5 65q2 10 11.5 16.5t19 9.5t15.5 11.5t3 22.5q30 35 20 61q16 10 27.5 23t24 32.5 t20.5 28.5q-1 1 -1 6.5t-3 9.5q-4 4 0.5 8t12.5 8.5t10 8.5q5 13 20 29.5t22.5 32.5t2.5 38q2 6 5 22.5t5.5 25t10.5 19t20 15.5q2 3 8 19t12.5 24.5t17.5 13.5q18 8 35.5 -9t30.5 -19q9 -7 4 -34t-4 -34h2q-3 -17 -23 -44.5t-22 -45.5q-7 -3 -11.5 -13.5t-11.5 -10.5 q-3 9 6 13.5t9 10.5q-10 5 -24 2t-17 -14q5 -13 -1.5 -23.5t-15.5 -16t-13 -16t5 -24.5q2 -5 -9 -13.5t-13 -13.5q-1 -8 -9.5 -26t-7.5 -31h-7.5h-7.5h-7t-7.5 -0.5t-7 -1t-7 -1.5t-6.5 -2.5t-6.5 -3t-5.5 -4t-5 -5.5q-1 -9 1 -28.5t-0.5 -32.5t-15.5 -19q3 -14 -15 -36 t-9 -42q-2 -2 -9.5 -6t-12 -7t-8.5 -8.5t-5 -11.5q6 -8 -6 -27.5t-12 -29.5q-17 -13 -39 -48t-35 -48q2 -6 -5.5 -20t3.5 -17q2 -10 -13 -16.5t-12 -18.5q-14 -7 -26 -36t-29 -36q1 -19 -23.5 -50.5t-13.5 -53.5q4 -14 -14.5 -26t-16.5 -26q-4 -4 -15 -10.5t-18 -14.5 t-8 -18q7 -8 -1.5 -19t-8.5 -17h-9t-9.5 0.5t-8 -2.5t-4.5 -9q6 -16 -4.5 -38t-7.5 -35q-23 -15 -32.5 -42.5l-19 -55t-32.5 -42.5q-2 -10 -21.5 -32.5t-13.5 -40.5q-6 -5 -9 -17t-9 -16q-4 -25 -16 -33q-14 -1 -17 -10t0 -19t0 -18q-2 -1 -6 -5t-5.5 -5t-6.5 -2.5t-8 0.5 q-7 10 -25 10q-13 -9 -16.5 -23.5t-0.5 -38.5t3 -28q-18 0 -37 -33q-2 12 -18 22.5t-28.5 16.5t-16 19.5zM120 793q2 -5 3 -7t5 -6t5 -6q2 -7 -1 -18.5t-1 -18.5q-10 -10 -10.5 -25t3.5 -34.5t3 -30.5q15 -5 25.5 -16t22.5 -31l15 -25q9 5 59.5 12t65.5 36q6 3 4 10t5 10 q7 -12 16.5 -14t25 3t19.5 5q14 12 20.5 42t18.5 42q23 -2 30 11.5t10 33t15 27.5q-13 12 -9.5 21t14.5 14t16 15.5t-4 26.5h2q-16 8 -20 15t2 11.5t13 9.5t12.5 9t0 10t-24.5 13q12 35 -26 94q-16 0 -41 17.5t-39 17.5q-7 -5 -46 -18t-50 -41q-9 -21 -52.5 -47.5 t-52.5 -53.5q-11 -16 4 -22q-8 -18 -29.5 -46t-27.5 -38q-3 -3 -1 -8zM439.5 791.5q-0.5 2.5 2.5 5.5q3 1 3.5 -1t0 -5t0.5 -5v2q-2 -1 -4 0t-2.5 3.5zM461 401q25 0 31 13h-3q-2 4 -6.5 5.5t-11 1.5t-8.5 1q-7 -10 -2 -21zM526 268q-2 15 12.5 32.5t22.5 27.5t-8 34 q-4 7 5 16t1 13q15 2 21.5 24.5t13.5 28.5q4 14 18 21.5t25 9t16.5 10.5t-6.5 27q8 17 44.5 39.5t39.5 46.5q8 13 35 26t35 33q17 -10 39.5 -11t49.5 2.5t40 2.5q23 -16 72 -42t73 -42q4 -11 4.5 -40t10.5 -42l6 -1q5 0 6 -5v2q-13 -13 -8 -24q0 -3 2.5 -12.5t3.5 -16.5 q0 -14 -7.5 -34t-9.5 -27q-2 -12 -2.5 -31t-1 -31t-2.5 -14q-10 -22 -49 -74.5t-43 -79.5q-6 -3 -14 -11t-15.5 -11.5t-17.5 -1.5q-16 -4 -26.5 -19.5t-15 -30t-18.5 -23t-38 -1.5q-44 -31 -70 -29q-56 -22 -98 4q-3 -1 -11.5 -3t-12 -2t-13.5 1q-8 6 -21 23t-25 24.5 t-28 3.5q-1 9 -18 99q-15 2 -16 3.5t10 12.5q4 1 5.5 4t1 6.5t-0.5 7.5v7q-6 10 -8 33.5t-9 33.5zM616 193q-6 -10 7 -29q14 -5 35.5 -22.5t33.5 -22.5q43 -13 86.5 3t73.5 48q5 21 45 52t39 61q26 28 33 70.5t1.5 80t0.5 80.5q-14 5 -26 22.5t-24.5 27.5t-33.5 5 q-12 -8 -58.5 -19.5t-64.5 -37.5q-14 -2 -21.5 -11t-14.5 -24t-13 -22q-2 -2 -8 -4t-9.5 -5.5t-1.5 -9.5q-9 -16 -23 -26t-28 -4q-2 -6 1 -9t9 0q16 -19 -2 -45t-14 -43q-15 -4 -17.5 -11.5t3 -15.5t7.5 -17t-3 -15q7 -14 0 -30.5t-13 -26.5z" />
<glyph unicode="&#x26;" d="M47 274q2 16 2 41t2 43q5 78 10 78q8 9 24 46.5t38 47.5q3 5 13.5 16.5t15.5 21t4 20.5q6 7 32 17.5t31 29.5q20 -3 35 12q0 13 -18 18t-23 11q-13 12 -15 50t-24 48q-8 14 -8 55q-4 7 -19 2q9 4 9.5 11.5t-1.5 17t-1 14.5q-23 23 -9 54q5 4 -1 11t-5 11q-1 19 3 40 t9 34.5t15 37.5t14 34q12 30 40.5 58.5t58.5 29.5q7 5 32 11.5t33 23.5q27 8 74.5 -0.5t68.5 -4.5q15 -19 43 -38q7 -2 2 -8.5t-4 -8.5q7 -13 22.5 -16.5t28 -2t21.5 -6t8 -28.5q75 -63 62 -168q2 -18 -11.5 -50t-13.5 -50q0 -8 -5 -12t-11 -4.5t-11 -4.5t-4 -12 q-46 -20 -67 -41q-5 -2 -11 2t-9.5 5t-8.5 -7q33 -28 8 -41t-55 -35q-14 2 -38.5 -12t-39.5 -8q-16 -4 -24 -15.5t-14 -30t-9 -24.5q18 -1 32 -20.5t25 -22.5q2 -8 16 -33t11 -43q3 -5 20.5 -11.5t12.5 -21.5q10 4 18.5 -1t16 -14.5t12.5 -12.5q-5 -14 1.5 -21.5t20 -13.5 t17.5 -12q10 -6 15.5 -22.5t7 -29t9.5 -20t23 5.5q32 -12 47 14q-7 11 3 20t10 11q-3 27 14 99q4 6 13 22.5t15 25.5t15.5 21t20.5 19.5t24 11.5q1 1 10 10.5t11.5 11.5t11.5 9t14.5 9t14 4t16.5 1q10 16 23.5 16.5t30.5 -5.5t28 -3q3 -17 16 -29.5t25.5 -19.5t20.5 -21 t5 -34q-7 -7 -14 -37.5t-27 -36.5q-10 1 -26.5 -6.5t-29 -7.5t-22.5 16q-34 32 -100 6q-5 -32 -32.5 -95.5t-30.5 -100.5q-1 -5 -13 -13t-6 -18q5 -8 20.5 -10t18.5 -19q18 -3 28 -16.5t13 -27.5t13.5 -24.5t29.5 -9.5q7 -17 27 -14q7 6 7 1.5t4.5 -14.5t14.5 -12 q15 -4 27.5 2t26.5 17.5t22 15.5q-4 24 27 61t20 66q5 2 14 9t15.5 11.5t17.5 6.5t21 -6q22 -15 26 -37t-2.5 -54.5t-5.5 -46.5q-1 -29 -33 -62.5t-36 -57.5q-19 0 -48.5 -14.5t-46.5 -14.5q0 9 -18 22q-8 2 -19.5 -6t-18 -11t-17.5 9q-11 0 -22 3t-17.5 6t-16 13t-12.5 13 t-14 18t-13 17q-14 -4 -22 2.5t-10.5 16.5t-10.5 18t-22 6q-2 2 -5 8t-7.5 10t-10.5 4q-14 3 -23 -6.5t-17.5 -24.5t-14.5 -20q-10 -31 -24 -37q-16 -1 -29.5 -7.5t-31.5 -20.5t-23 -17q-6 -3 -12 -5.5t-10.5 -4.5t-12 -3t-10.5 -1.5t-12.5 -1t-12 -0.5h-14h-13.5 q-4 7 -41 2.5t-41 -4.5q-5 7 -23 10.5t-24 9.5q-11 6 -40.5 20t-46 23.5t-34 28.5t-22.5 43q-19 12 -32 35.5t-19 44.5t-14 55.5t-13 50.5zM123 285q1 -4 11.5 -27t6.5 -37q17 -13 17.5 -43t7.5 -41q9 -3 19.5 2.5t15.5 5.5q6 -24 23.5 -39.5t35 -21t45.5 -10.5q7 -1 17 -7 t17 -10.5t16.5 -3.5t17.5 10q21 -2 54 5t44 8q4 14 19 18.5t28 -2.5q1 2 7 5t8 5.5t-1 10.5q2 4 5.5 6t9.5 4.5t8 3.5q21 41 43 51l2 2q-3 5 -7.5 21t-12 22.5t-25.5 1.5q-11 4 -12.5 12t2.5 20t4 15q-5 12 -16 8.5t-19 2.5q-1 3 -7.5 10t-9 11t0.5 13q0 2 -1.5 3.5t-3 2 t-3.5 0.5t-4.5 -1t-4.5 -1.5l-4 -1t-4 -0.5q-7 11 -25.5 34t-28.5 42t-13 41q-8 1 -12.5 9t-2.5 16q-63 36 -67 82q-25 35 -39 42q-14 6 -29 1q-1 -2 -3.5 -8t-3.5 -8t-3.5 -8t-4 -8t-4.5 -7t-5 -8l-5 -7.5t-6 -7.5t-6.5 -7t-7.5 -7q-16 -2 -23 -26.5t-20 -30.5 q9 -11 3.5 -25.5t-17.5 -21.5q-7 -23 -15.5 -66.5t-11.5 -54.5zM217.5 946q-1.5 -33 4.5 -59.5t-1 -63.5q6 10 19 -8q-3 -14 10.5 -32.5t11.5 -30.5q6 -5 13 -20t15.5 -22.5t24.5 -2.5q30 25 105 61q16 -8 36 11t29 20q4 -4 4 -8q6 -2 13 8q-1 11 6 17t16 5.5t17 -0.5 q31 27 28 70q17 10 17 26t-5.5 30t7.5 30l2 2q-6 13 -2 25t1 23t-20 15q4 9 0 15.5t-12.5 13.5t-11.5 12q1 18 -19 20.5t-24 8.5q-21 18 -67 22.5t-58 8.5q-7 -4 -45 -21.5t-56 -31.5q-4 -15 -20.5 -40.5t-17.5 -43.5q-19 -27 -20.5 -60z" />
<glyph unicode="'" d="M401 1083q13 6 12.5 14t-6 14.5t0.5 16.5q5 6 16.5 29.5t25 34t35.5 6.5q6 9 18.5 16t18.5 13q8 -13 21.5 -15t25.5 2t22 -0.5t13 -23.5q9 -6 21 -20.5t23.5 -21.5t27.5 -3q12 -7 10 -29.5t14 -30.5q0 -1 -1.5 -11.5t-1.5 -14.5v-12.5t2.5 -14t7.5 -10.5q-10 -20 4 -61 v-3q1 -27 -5 -56.5t-12 -47t-19.5 -51t-17.5 -45.5q-13 -10 -23 -29.5t-20.5 -35t-29.5 -19.5q-8 -6 -13.5 -27.5t-21.5 -25.5q-7 0 -26.5 -4t-31 -1t-16.5 17q-1 3 -5 13t-5 14t-2 11.5t0.5 13t5.5 11.5q9 10 25.5 29.5t26 31t24 30.5t22.5 33t16.5 33.5t12 37t3.5 38.5 t-5 42q-16 10 -46 -4.5t-48 -1.5q-4 2 -26 14t-36 16q-3 9 -21 39.5t-16 48.5z" />
<glyph unicode="(" d="M266 584q5 31 12.5 87t15.5 101t19 86q7 28 31 78.5t31 77.5q7 18 31.5 48.5t31.5 47.5q14 5 22 16t15.5 33.5t9.5 26.5q26 23 71 75t65 72q35 15 84 64q30 9 47 0q10 -3 23 -16.5t20 -18.5q-5 -39 -28 -69.5t-58 -39.5q-8 -18 -24 -31.5t-31 -21t-28 -21.5t-16 -34 q-23 -10 -38 -31.5t-21 -42.5t-21 -43t-38 -33q-16 -77 -52 -104q-18 -15 -20 -44t-5.5 -56.5t-25.5 -42.5q-7 -18 -6.5 -52.5t-5.5 -54.5q12 -22 10 -36.5t-6.5 -41.5t-1.5 -45q-4 -12 5 -36t5 -36q-6 -10 -2 -21t10.5 -17t8 -13.5t-10.5 -11.5q3 -64 41 -117 q5 -16 14.5 -59.5t22 -72.5t35.5 -50q3 -17 31.5 -38t31.5 -38q18 -26 74 -86q14 -21 33.5 -37t49.5 -34.5t42 -26.5q20 -39 43 -39q44 -33 41 -78h-2q-37 -56 -94 -37q-20 -1 -37.5 17t-28.5 22q-9 14 -45.5 35.5t-44.5 46.5q-11 11 -31 29.5t-30.5 29t-24 28t-22.5 36.5 q-52 44 -82 129q-70 77 -76 164q-19 32 -32 66t-20 79.5t-9.5 70.5t-5 84.5t-3.5 76.5z" />
<glyph unicode=")" d="M299 -256q-1 24 12 44t31 31.5t40 27t32 28.5q89 50 135 137q32 18 55 70.5t35 67.5q50 67 53 167q19 19 22.5 62t14.5 61q-6 27 3 67t14 65.5t-13 66.5q-8 24 -13.5 80t-14.5 82q-16 25 -33 87.5t-39 90.5q-8 21 -36.5 50t-35.5 40q-7 26 -38.5 68t-39.5 59 q-18 21 -61 46.5t-62 45.5q-7 14 0 30q3 6 7 3q10 0 23 12t20 13q60 -3 104 -66q166 -143 266 -391q6 -9 15.5 -40t19.5 -44q3 -11 6 -23t5 -21.5t4 -23.5t3 -21.5t2 -23.5t1.5 -22t1.5 -24t1 -22t0.5 -25t0.5 -24q1 -15 -2 -40.5t-3 -46.5t7 -39q-4 -49 -25 -68 q6 -12 5 -18.5t-5.5 -19.5t-5.5 -19q-30 -223 -154 -367q-5 -18 -28 -46.5t-27 -35.5q-22 -14 -55.5 -54.5t-59.5 -53.5q0 -3 -6.5 -9t-7.5 -8q-16 -2 -37.5 -29t-40.5 -28q-7 1 -20 -2.5t-23.5 -3.5t-17.5 8q-29 29 -35 49z" />
<glyph unicode="*" horiz-adv-x="555" d="M78 1116q4 21 20 35q23 -10 33 -14q2 0 17 2.5t18 -0.5q8 -3 18.5 -6t16.5 -4.5t14.5 -6t17.5 -10.5q2 3 4 8t5.5 16t1.5 17q0 5 -5.5 17t-5.5 18q-2 29 7 72q12 17 36 20q25 0 39 -20q-3 -27 0 -58q1 -14 -3 -44t1 -42q31 25 70 41q37 17 72 21q21 -3 28 -27 q8 -16 2 -35v-2q-31 0 -43 -8q-5 -3 -13 -17t-13 -16q-7 -5 -21 -3t-18 1t-13.5 -6t-16.5 -9l-7 -5q32 -24 59 -60q25 -42 29 -53q3 -20 -12 -35q-15 -17 -39 -14q-19 29 -31 37q-2 1 -13 2.5t-14 7.5q-5 7 -4.5 17.5t-1.5 15.5q-3 4 -12.5 17t-16 22.5t-5.5 9.5 q-9 -7 -17 -14.5t-18 -17t-17 -15.5q-10 -10 -23.5 -31t-19.5 -27q-3 -12 -15 -19t-24 -5q-24 3 -28 35q4 28 10 34q5 6 19 15.5t20 19.5q28 36 45 51q-12 4 -33 13.5t-37 13.5q-42 13 -55 16q-8 13 -8 29z" />
<glyph unicode="+" d="M186 502q-2 17 6 30.5t15.5 19t28 16t24.5 12.5q40 -18 59 -13.5t53 13.5t62 4q32 -16 68 -13q3 24 14 37q-1 10 -6.5 25t-9.5 26.5t-3.5 26t9.5 25.5q-6 14 -9 21.5t-4.5 15.5t-1.5 12t0.5 16.5t0.5 22.5q4 7 14 28t20.5 32t28.5 15q7 -7 26.5 -8.5t26.5 -7.5 q15 -24 17 -46t-3.5 -38t-6.5 -39t8 -49q-8 -49 2 -113q8 2 15.5 4t17 2.5t15 0.5t17 -0.5t15.5 -1t18 -2t16 -1.5q6 9 15 10t21 -1.5t18 -1.5q15 2 26.5 2t17.5 -1t20.5 -4.5t23.5 -5.5q39 -10 41 -28q4 1 7.5 -1t4.5 -4.5l3 -7.5t3 -6l2 2q6 -41 -29 -59 q-32 -5 -56.5 -5.5t-60.5 0.5t-55 1q-8 -6 -13 -4.5t-14.5 5.5t-15.5 3q-18 -6 -69 2v-20q-6 -8 -6 -18t2.5 -22t1.5 -18q8 -39 6 -64t-7 -70.5t-3 -76.5q-8 -29 -23 -37q-5 -1 -17.5 -4t-19 -3.5t-16 1.5t-17.5 8q-20 19 -25 44.5t-0.5 48.5t5 50.5t-9.5 51.5 q7 22 6.5 60.5t1.5 60.5q-106 0 -127 -2q-50 9 -143 2q-4 8 -27 15.5t-25 23.5z" />
<glyph unicode="," d="M403 180q12 30 41 66q11 3 32 11.5t35 13t32.5 3.5t34.5 -12q14 -1 23 -8.5t19 -22.5t15 -20q24 -20 38.5 -51t18 -50t8.5 -65q1 -9 2 -14q2 -15 -7 -38t-9 -34q-13 -23 -21.5 -66.5t-17.5 -62.5q-5 -20 -18 -39t-33 -41t-27 -31q-4 -3 -7.5 -5.5t-7 -4t-5.5 -2.5t-5.5 0 t-5 1t-5.5 2t-5.5 2.5t-6.5 4t-7 4.5q-3 3 -5.5 6.5t-4 8l-2.5 7.5t-1 9v8.5t1 9t1 8.5t1.5 9t1.5 8q7 15 24 34.5t23 35.5q2 4 11.5 21t13 23.5t9 21.5t6.5 24.5t0 23t-7 25.5q-20 20 -68.5 22.5t-66.5 20.5q-63 40 -48 133z" />
<glyph unicode="-" d="M135 540.5q-3 8.5 2.5 20t24.5 23.5q20 14 62.5 14t68.5 4q72 -9 219 2t233 -2q131 5 168 0q32 -6 50 -39h-2q3 -11 5 -18.5t2 -15.5t0.5 -10.5t-3 -10.5t-4.5 -10t-7.5 -13t-9.5 -16q-26 -9 -95 -5t-95 -5q-406 0 -539 4q-5 1 -19 2t-20 2.5t-13 6.5t-9 15q-2 11 -9 27 t-10 24.5z" />
<glyph unicode="." d="M381 172q8 35 35 63.5t61 34.5q6 2 18 4.5t21 6t16 8.5q53 9 78 0q39 -20 65.5 -57t26.5 -78h3q0 -36 -16.5 -69t-47.5 -46q-46 -31 -106 -29t-103 31q-51 39 -51 131z" />
<glyph unicode="/" d="M55 -217q-1 25 8 50t19.5 40.5t32.5 42.5t30 39q2 3 10 31t23 37q26 36 67.5 110t59.5 103q30 15 40 42.5t18.5 58.5t31.5 48q7 12 48 73t55 97q44 37 69 113q21 10 36.5 43t29.5 43q0 25 27.5 51.5t33.5 42.5q1 14 11 27.5t20.5 22.5t16.5 24t1 32q25 26 54.5 81.5 t40.5 70.5q12 6 18.5 23t14.5 30.5t26 14.5q4 18 14 36.5t26 42t21 31.5q1 20 17 38.5t33 27.5q7 1 11.5 -2t6.5 -7t3.5 -11t2.5 -9v-2q9 -26 -11.5 -59.5t-21.5 -49.5q-16 -8 -25 -24t-11 -30t-11.5 -28t-27.5 -20q-11 -15 -27 -64t-39 -67q-4 -20 -15 -40t-29.5 -45.5 t-25.5 -37.5q7 -13 -3 -21.5t-11 -13.5q-6 -16 -34.5 -54t-28.5 -63q-15 -6 -23.5 -20t-11.5 -27.5t-11.5 -27.5t-23.5 -19q-2 -12 -16.5 -37.5t-14.5 -42.5q-7 -13 -51 -76t-53 -102q-12 -10 -21.5 -36.5t-23.5 -34.5q-1 -17 -24 -40.5t-21 -45.5q-5 -9 -29.5 -31 t-24.5 -45q-17 -13 -22.5 -42t-26.5 -42q-27 -80 -75 -107q-6 -11 -9.5 -36t-9.5 -35q8 -6 5.5 -9t-9 -9t-6.5 -11q-6 -9 -15.5 -30t-17 -34.5t-23 -23t-36.5 -6.5q-56 22 -62 51z" />
<glyph unicode="0" d="M80 641q1 6 6.5 77.5t26.5 100.5q-2 7 4.5 21.5t7.5 19.5q4 13 9.5 40.5t13 48t22.5 36.5q1 11 24 33.5t13 44.5q1 10 11 17.5t20 9.5q15 12 40.5 41t49.5 46t53 19q36 4 103 23.5t77 21.5q13 -16 32.5 -16.5t35 3.5t35.5 -9q54 -6 72 -20q10 -7 16 -19q60 -4 73 -39 q-3 -15 6 -26t23.5 -21.5t19.5 -20.5q1 -1 3.5 -18t17.5 -13q8 0 19 -10.5t12 -19.5q1 -19 22.5 -50.5t18.5 -56.5q6 -5 5.5 -20.5t4.5 -22.5q47 -71 55.5 -170t-14.5 -182q-21 -7 -23.5 -22t3.5 -35.5t3 -30.5q7 -11 5 -25.5t-6.5 -24t-11.5 -23.5t-9 -23 q-21 -19 -40.5 -68t-41.5 -68q8 -5 8 -16q-17 -1 -32 -13t-21 -28q9 -9 6 -20t-8 -16.5t-13.5 -14t-11.5 -12.5q-16 4 -29.5 -4.5t-21.5 -20t-22 -18.5t-31 0q-5 -6 -16 -9t-18.5 -7.5t-6.5 -16.5q-11 -7 -16.5 -7t-17 7t-15.5 8q-6 -1 -19.5 0.5t-23 -0.5t-13.5 -12 q-9 0 -27.5 -1t-29 -0.5t-25 2.5t-26 8t-21.5 17q-8 1 -26.5 -3.5t-31 -1.5t-17.5 20q-10 -2 -18 2t-16.5 12t-12.5 10q-2 2 -12 19t-19 22q-11 -3 -17 -4.5t-14 4t-11.5 9.5l-10.5 12t-11 12q-3 16 -25 38t-18 44q-4 8 -17 36.5t-18.5 40.5t-15 34.5t-15 42t-9.5 38.5 q0 1 -23 95q11 30 -0.5 76.5t-7.5 66.5zM195 608l8 -8q-1 -24 8 -119q15 -6 19.5 -34.5t23.5 -32.5q1 -9 -1.5 -20t-2 -18.5t9.5 -13.5q-5 -23 1.5 -39t28.5 -37.5t29 -29.5q3 -34 48.5 -79.5t52.5 -57.5q4 1 23.5 1t27.5 3q5 -1 17 -2t17.5 -2t14.5 -3.5t15.5 -7.5 t11.5 -12q35 -16 76 4q10 10 40 20t42 27q23 -7 53.5 13.5t34.5 21.5q7 8 8 24.5t4 20.5q20 -3 26.5 5t3.5 20.5t1.5 24t19.5 12.5q21 4 27 18.5t3.5 39.5t-1.5 32q1 4 21.5 33.5t13.5 52.5q21 66 8 135q-5 7 0 29t-10 28q-11 22 6 39q-19 13 -6.5 42.5t0.5 45.5 q-23 10 -18 27.5t2 39.5t-30 30q5 23 -23 48.5t-22 49.5q-4 10 -18.5 21.5t-25 19t-16.5 20.5t7 27q-9 12 -53 12q-7 0 -16.5 10t-16.5 9q-12 23 -53.5 29.5t-50.5 11.5q-28 -10 -52.5 -7t-52.5 -2t-45 -26q-5 -1 -15 -1t-16 -1t-8 -4q0 -19 -20 -39q-7 -6 -21 -1.5 t-16 -4.5q7 -23 -22 -46t-23 -44q-18 -14 -24 -51.5t-21 -51.5q-15 -11 -16.5 -47.5t-20.5 -46.5q1 -2 7.5 -13.5t4.5 -19.5q-18 -8 -24 -23.5t-2.5 -32t4 -35.5t-5.5 -34z" />
<glyph unicode="1" d="M197 778q9 29 32.5 50t56.5 40t48 33q61 55 182.5 150t177.5 145q131 39 166 -16q-1 -44 -3 -127.5t-3 -149.5t0 -121q-12 -20 -12.5 -46.5t3.5 -43.5t15.5 -50.5t13.5 -41.5q-1 -11 -3.5 -48t-2.5 -60q-3 -42 2.5 -105.5t5 -118t-15.5 -102.5q-4 -22 7 -63.5t9 -72 t-34 -48.5q-38 -8 -54 4q-13 12 -20 30t-8.5 32t-3 37.5t-2.5 35.5q10 30 -2 45q-3 39 1.5 112.5t0.5 116.5q5 39 5.5 83.5t-1 98t-0.5 85.5q27 55 -4 94q-3 4 -3 21t3 28q0 6 -3 35.5t-2.5 37.5t3.5 35q6 11 6 16t-3.5 18t-4.5 18q0 7 4.5 28.5t3 38.5t-14.5 29 q-22 9 -41.5 -0.5t-32 -26t-31 -35t-36.5 -24.5q-26 -20 -143 -122.5t-185 -139.5q-37 -13 -57 -6q-29 14 -20 71z" />
<glyph unicode="2" d="M145 16q-10 246 168 385q88 71 127 92q49 27 97 31q22 7 64.5 16.5t76 19.5t61.5 24q107 31 183 161q-10 35 -6 63.5t0.5 62.5t-23.5 57q0 41 -14 55q-15 16 -57.5 44.5t-61.5 53.5q-11 2 -63.5 18.5t-84.5 16.5q-103 -1 -190 -56t-135 -147q-2 -2 -20 -21.5t-31 -25 t-31 -0.5q-5 2 -9.5 5.5t-7.5 8.5t-5 8t-4.5 10t-3.5 9.5t-3 10.5t-2 10q12 78 83 151t155 115q71 27 149 31.5t154 -19.5q4 -1 16 -0.5t16 -1.5q38 -22 60 -35t54 -35t56 -46t41 -50q10 -3 15 -11t6.5 -18.5t3.5 -13.5q17 -25 23 -56t8 -73t6 -65q-7 -17 -13 -55 t-16.5 -67.5t-34.5 -47.5q-1 -25 -18.5 -42.5t-43 -34.5t-36.5 -32q-37 -21 -84 -39.5t-81 -28.5t-92 -26.5t-85 -24.5q-12 -6 -44 -19.5t-48.5 -22.5t-36 -29t-27.5 -45q-17 -11 -31 -26t-24.5 -36.5t-16.5 -35.5t-15.5 -42.5l-12.5 -37.5q1 -3 2.5 -10t2.5 -11t3 -9.5 t6 -9.5t9 -6q75 -3 144 -3.5t164.5 0.5t141.5 1q32 4 46.5 4t48.5 -3.5t48 -4.5q22 -3 40 0t37 -0.5t32 -19.5q1 -4 3 -13.5t3 -17t0 -14.5q-4 -11 -12.5 -16t-21 -8t-17.5 -5q-54 -7 -162 -4.5t-158 -5.5q-63 3 -189.5 4t-195.5 4q-66 11 -86 55z" />
<glyph unicode="3" d="M160 -217q1 41 28 54.5t71 16.5t63 13q82 35 190 78q36 28 75.5 60t86.5 70.5t76 61.5q5 6 18.5 20.5t20.5 23.5t14.5 22t6.5 25.5t-9 25.5q7 8 34 23.5t33 33.5q-1 20 3 70.5t-0.5 85t-22.5 65.5q1 19 -22.5 31.5t-28.5 20.5q-57 57 -90 73q-13 -1 -50 -2t-56 -2.5 t-48.5 -5t-52.5 -12t-43 -21.5q-21 -9 -46 -32.5t-42 -40.5t-45.5 -29t-57.5 2q-23 28 -12 45q6 7 21.5 28.5t23.5 32t23 29t26.5 29.5t27 24.5t30.5 22.5q4 22 21.5 37.5t36 31t25.5 35.5q4 5 34.5 33t39.5 49q38 31 60.5 51.5t52 52.5t49.5 64q3 10 -4.5 19.5t-18.5 11.5 q-247 0 -378 -14h-21h-24t-21.5 1t-23.5 3t-19.5 5.5t-20.5 9t-16 13.5q-10 22 17 62q22 16 49.5 16.5t62 -6.5t53.5 -6q16 -3 56.5 5t62.5 5q128 -24 246 -2q19 -5 44 -4.5t47.5 3.5t42 -6.5t26.5 -35.5q3 -5 3.5 -11.5t-0.5 -15.5t-1 -12q-9 -11 -85.5 -90t-107.5 -131 q-32 -22 -74 -76t-57 -69q-6 -12 17 -23q56 -1 91 -4t81 -12.5t81.5 -32t61.5 -57.5q117 -166 57 -289q-7 -11 -8 -33.5t-8 -32.5q-13 -133 -172 -250q-24 -36 -60.5 -61.5t-82 -50t-72.5 -47.5q-169 -137 -348 -115q-16 2 -41 37z" />
<glyph unicode="4" d="M41 371q0 10 1.5 20t5.5 20t7 17t10.5 18t10.5 15.5t12.5 17t11.5 15.5q17 30 21 43q8 19 20 52t23 59.5t24 49.5q-3 18 3.5 32t19.5 30t18 26q7 17 4 37q16 21 25.5 51t12 47.5t5 62t3.5 52.5q4 16 8 60v67q7 72 63 84q25 10 43 -22q5 -10 8 -13q-1 -18 3 -51t4 -39 q3 -49 -21 -80q-3 -18 -8 -73t-12 -86q-4 -13 -29 -58q-19 -38 -12 -71q9 -3 2 -17q-16 -6 -24.5 -22t-9.5 -28t-1 -34q-66 -107 -98 -196q20 -29 47 -21q6 1 22 4.5t25 3.5q55 10 117 -10q43 12 106 8q64 0 102 7q18 5 27 26q5 26 8 31q5 32 -9 91.5t-11 88.5q11 16 1 81.5 t-9 84.5q15 29 -1 87.5t-4 86.5q5 6 10 18t7 15q6 16 22 18q19 9 50 -6q44 -47 40 -129q-6 -7 -9 -15t-3.5 -17.5t-0.5 -16.5t1.5 -19.5t1.5 -17.5q4 -16 4 -25q-3 -5 -4.5 -10t-2.5 -10.5t-2 -10t-0.5 -11t0.5 -9.5t1.5 -10.5t1.5 -10t2 -10.5t2 -10q15 -57 -2 -90 q6 -27 6 -51q2 -16 2 -45q0 -51 15 -102q212 4 286 0q5 -2 9.5 -5t8.5 -8.5t6 -8.5t6.5 -10.5t4.5 -8.5v-31q-4 -15 -12 -23q-26 -28 -92 -24q-79 10 -105 0q-79 15 -104 -10q-31 -35 -2 -115q-3 -8 -5 -16t-2.5 -17t-1 -15t0 -17t1 -15t2 -17t1.5 -16q11 -67 -8 -106 q-27 -22 -76 -11q-3 5 -14.5 20.5t-17.5 24.5t-10.5 23.5t-2.5 26.5q19 28 18.5 59t-16.5 59q-6 12 -2 27q1 2 6 15.5t6 19.5q20 45 -25 61q-26 24 -65.5 27.5t-71.5 -2.5h-49q-49 -8 -143 -4q-99 4 -150 -2q-11 5 -33 8.5t-24 3.5q-29 7 -41 27z" />
<glyph unicode="5" d="M143 -246q-6 44 23 70q27 8 74.5 27t68.5 26q103 33 217 115q30 16 84.5 61.5t85.5 61.5q17 29 54 69t64 76t34 74q47 60 49 112q-7 16 -15.5 46.5t-15 52t-24.5 41.5t-47 26q-74 19 -115 39q-50 3 -136 -4t-112 -8q-22 -4 -75 -36.5t-91 -27.5q-14 -1 -28 8t-21 17.5 t-18 24.5q-13 38 -0.5 114.5t-5.5 112.5q-4 16 4 54.5t-2 56.5q3 22 -4.5 64.5t-2.5 68.5q-4 11 -4 22.5t2.5 19.5t10 18t12.5 15.5t15 16t14 14.5q21 14 65 14t68 3q38 -21 62 -16.5t63 13.5t65 3q42 5 138 3.5t135 6.5q4 -1 15 -2.5t18.5 -4.5t11.5 -10q8 -75 -31 -96 q-43 -8 -112.5 0.5t-115 13t-110.5 -17.5q-29 15 -94.5 7t-93.5 11q-19 6 -39 -24q-16 -25 5 -71t-5 -68q-2 -34 10.5 -126t-2.5 -124q1 -9 13 -11.5t18 1.5q13 3 38.5 10t39.5 9.5t39.5 4.5t37.5 -6q33 21 77.5 26.5t77.5 1.5t86 -13t77 -11q26 -5 53.5 -21.5t40 -27.5 t43.5 -43.5t35 -36.5q17 -17 20.5 -47t-0.5 -56t2 -55q-6 -8 -6 -19t3 -24t3 -18h2q-10 -51 -36 -98t-73 -111t-63 -88q-115 -104 -178 -156q-30 -18 -97.5 -62t-119 -73t-102.5 -47q-11 -1 -43 -6.5t-51 -7.5t-44 3t-41 19z" />
<glyph unicode="6" d="M98 618q-4 25 2.5 71.5t5.5 62.5q-4 37 10.5 73.5t34.5 75t25 68.5q38 57 81 97t112 91q23 18 78.5 30.5t78.5 29.5q37 14 114.5 18t109.5 12q14 -2 43.5 -2.5t51 -4t38.5 -13.5q0 -2 5 -20t5.5 -24.5t-3 -19t-13.5 -20.5q-21 -13 -45 -13.5t-60 8t-47 9.5q-3 0 -26 -2 t-28.5 -2.5t-26 -2.5t-28.5 -3.5t-24.5 -4t-27 -5.5t-23.5 -6.5t-25 -8.5q-23 -1 -44.5 -9t-42.5 -25t-35 -30.5t-36.5 -37.5t-31.5 -33q-5 -12 -30.5 -22.5t-29.5 -28.5q-2 -24 -26 -68t-23 -72q-23 -18 -28 -47t-0.5 -74t4.5 -59q6 -5 6 -12.5t-3.5 -14.5t-1 -11.5 t14.5 -4.5q7 24 41 34.5t43 27.5q49 12 67 37q25 8 68.5 29.5t81.5 32.5t78 5q43 17 132 -13q3 -2 10 -4l9 -3q82 -30 123 -35q7 -21 42 -39t42 -41q70 -51 86 -197v-2q-6 -21 1 -75.5t-11 -75.5q-11 -19 -28.5 -59.5t-36 -71t-44.5 -54.5q-28 -9 -65.5 -34.5t-72 -42 t-70.5 -13.5q-15 4 -34.5 0t-34 -9t-31.5 -3t-30 16q-34 -14 -85 4.5t-84 8.5q-8 9 -16.5 16.5t-21.5 14.5t-20 10.5t-25 11.5t-22 10q-6 6 -28.5 29t-31.5 33t-23.5 28.5t-24.5 34.5q-7 24 -37.5 81.5t-36.5 92.5q0 19 -11.5 65.5t-7.5 73.5q-5 20 -1.5 64t-0.5 67z M213 426q-8 -25 4 -41q24 -94 51 -135q6 -21 21.5 -41t29.5 -31.5t39 -30t35 -26.5q21 -22 48.5 -34.5t64.5 -16t60 -3.5t68.5 3t57.5 4q15 5 59.5 29t73.5 26q15 9 30.5 37t31.5 35q20 20 18 32q21 11 29 33.5t5.5 47t-3 51.5t3.5 47l-2 -2q-28 36 -14 65q-2 7 -8.5 12 t-16.5 9t-14 6q-26 64 -107 82q-1 12 -16 19t-17 9q-31 -8 -92 6.5t-92 -0.5q-38 5 -99.5 -19t-94.5 -24q-13 -12 -66.5 -68.5t-87.5 -80.5z" />
<glyph unicode="7" d="M121.5 782.5q-0.5 21.5 3 47.5t0.5 42q6 14 9.5 29t5 36.5t2 31t0 38.5t-0.5 33q3 17 12 77t17 91q28 22 67.5 24t86 -3.5t71.5 -1.5q5 5 25 0q38 -9 60 -8t61 5.5t65 2.5q31 -5 67 -5.5t85.5 1.5t75.5 2q21 -2 70 3t67 -1q16 -4 23.5 -14t12 -28.5t7.5 -25.5h2 q1 -7 -7.5 -26t1.5 -27q-16 -38 -16.5 -113.5t-6.5 -103.5q-4 -11 -22.5 -63.5t-27 -72t-26 -58.5t-37 -67.5t-43.5 -54.5q-12 -17 -31 -51t-38 -60t-43 -44q-20 -15 -44.5 -58t-47.5 -59q-11 -14 -34.5 -58.5t-45.5 -62.5q-20 -100 -51 -176q-11 -42 -7.5 -131.5 t-9.5 -124.5q-10 -20 -39 -23t-51 3q-30 25 -40.5 62.5t-6.5 67t13.5 77t11.5 69.5q12 21 25 89t44 95q6 32 24.5 62.5t51 69.5t43.5 55q5 7 14.5 24t16 27t17 21t22.5 16q4 5 20.5 25.5t23.5 30t17 27t16 32.5q6 6 31.5 27t36 38.5t6.5 40.5q44 32 67.5 83.5t42 112 t42.5 95.5q-7 15 -9 41.5t-4 34.5q6 26 -2 55q-24 27 -59.5 29.5t-79 -4t-67.5 -1.5q-14 0 -61 3t-77 0t-57 -15q-3 2 -11 8t-12.5 8.5t-11.5 5.5t-14 2.5t-14 -3.5q-28 -6 -52 -3.5t-53 -0.5t-49 -17q-3 -1 -12.5 -2.5t-14.5 -2.5t-11 -6t-9 -13q-3 -23 0 -44.5t1.5 -48 t-11.5 -43.5q18 -39 -2 -90q-3 -13 -2.5 -50.5t-10 -58t-41.5 -24.5q-16 -3 -47 10q-13 16 -13.5 37.5z" />
<glyph unicode="8" d="M88 438q10 18 22.5 55t22.5 54q11 9 39 36.5t49.5 40t48.5 11.5q6 6 21.5 14t24.5 17t8 24q-14 6 -38.5 31.5t-47.5 28.5q-2 14 -24.5 35.5t-18.5 43.5q-19 13 -30 31t-14.5 41.5t-3.5 41.5t1.5 47t1.5 42q6 12 19.5 31.5t22 36.5t11.5 33q37 5 61 55q13 3 47.5 24 t59.5 19q17 15 57 12t57 12q23 -5 83 -2t77 -10q32 -5 52.5 -9.5t50.5 -13.5t49.5 -20.5t38.5 -30.5t30 -43q45 -22 54 -71q16 -9 11.5 -35t8.5 -35q5 -13 7 -26.5t-1.5 -30.5t-5.5 -23.5t-9.5 -28.5t-8.5 -24q-13 -8 -18 -34t-21 -34q-1 -2 -2.5 -6.5l-2.5 -7.5t-4 -5.5 t-8 -2.5q-18 -1 -34 -24t-33 -25q-1 -4 -9 -15t-8 -20q10 -11 38.5 -19t37.5 -20q9 -2 26 -13t29 -12q12 -10 32 -45t42 -43q1 -21 18 -56t19 -56q5 -9 7 -18t2 -21v-18.5t-2 -22.5t-3 -21v2q-1 -4 -7 -36t-8.5 -43t-9.5 -33t-16 -39q-17 -15 -44.5 -51t-53.5 -58t-60 -28 q-7 -1 -42 -17.5t-58 -9.5q-7 -6 -30.5 -13t-32.5 -18q-33 6 -115 1.5t-119 4.5q-16 8 -68 21t-75 33q-57 20 -84 75q-4 2 -10 2t-13.5 -1t-11.5 -1q-61 119 -76 172q-25 87 -6 162zM201 268q10 -17 35 -30q-3 -23 9 -37.5t36 -28.5t34 -25q20 -3 31 -20q19 4 46 -10.5 t44 -10.5q24 -8 53.5 -11t50.5 -2.5t57 3t52 2.5q56 27 96 17q10 18 42 29t40 26q21 11 44 42.5t40 43.5q-3 33 9 57q8 14 5 31.5t-14 28.5q16 52 -18 86q-5 12 -17.5 31t-15.5 24q-9 15 -35.5 31.5t-36.5 27.5q-16 0 -29.5 13.5t-28 23t-34.5 2.5q-12 -14 -18.5 -10 t-18.5 12.5t-22 6.5q-3 1 -8 4t-8 4q-19 -1 -71 4t-88 -1.5t-63 -33.5q-4 -1 -13.5 -2.5t-14.5 -2.5t-12 -5t-11 -10q-29 -10 -53 -33.5t-36 -43.5t-30.5 -57t-27.5 -51q4 -40 0 -125zM246 938q15 -11 9 -40t11 -42q2 -17 14 -28t26 -16t28.5 -14.5t19.5 -23.5q22 2 67 -19 t77 -10q14 -15 45.5 -12t48.5 -6q27 -7 53 16q13 -8 27.5 -3t22 11t20.5 17t22 16q1 1 16.5 5t20.5 12q4 14 22.5 25t31 22t6.5 29q-12 23 3.5 59.5t4.5 58.5q-33 43 -39 52q-5 35 -31.5 53t-67.5 31.5t-59 25.5q-10 1 -43 -8q-2 -7 -16 -2t-19 4q-19 -11 -47 -4t-46 12 t-44 -16q-136 -28 -164 -113q7 -20 -6 -50.5t-14 -41.5z" />
<glyph unicode="9" d="M88 909q15 16 25 56t22 55q-1 19 17.5 46t17.5 44q17 10 34 31t33.5 36t38.5 17q64 62 156 74q12 -1 31 4.5t31.5 7.5t33.5 -8q73 5 93 -25q35 7 69 -8q36 -36 74 -39q14 -14 38 -40.5t45 -47.5t42 -37q-5 -26 10.5 -55t29 -58t5.5 -57q26 -18 31.5 -62t13.5 -57 q-17 -52 10 -77q0 -6 3 -19.5t2.5 -24.5t-7.5 -20v2q6 -51 4 -110.5t-24 -102.5q10 -29 -8.5 -66t-18.5 -53q-17 -24 -29.5 -77t-21.5 -72q-12 -15 -34 -52.5t-44 -62.5t-53 -37q-12 -10 -21.5 -30.5t-21 -37.5t-31.5 -22q-24 -38 -92 -69.5t-88 -49.5q-10 -3 -31.5 -10 t-36.5 -11t-30 -5q-39 -21 -62 -12q-9 4 -12.5 12t-4.5 20t-3 17q5 22 23.5 34t44.5 21t38 20q2 1 25.5 10.5t28.5 12t24.5 11t27.5 14.5t22.5 15.5t24.5 19.5t19 22q25 3 45.5 19.5t32.5 36.5t30.5 41t39.5 30q1 2 14.5 24t16.5 27t13.5 23.5t14.5 28t10 24.5t10 29 q18 9 21 40t18 41q13 10 -3 26.5t3 23.5q16 -4 29 4.5t18 21.5q6 18 -8 42.5t-10 39.5q-5 8 9 21t14 20q3 7 7.5 38.5t16.5 43.5q2 6 -4 12t-8 8.5t8 8.5q-13 22 -29 22q-11 -11 -22 -39.5t-25 -40.5q-4 -14 -32.5 -42t-36.5 -48q-13 -12 -50.5 -27.5t-52.5 -37.5 q-27 9 -71.5 -15t-73.5 -12q-7 0 -23 -3t-27 -1.5t-20 10.5q-131 -3 -252 115q-1 16 -11.5 27t-22.5 16t-22.5 16t-12.5 27q-7 23 -31.5 81t-34 102t-2.5 89zM184 809q5 -7 11.5 -41.5t29.5 -42.5q-7 -18 -0.5 -34.5t17 -25.5t23 -23t16.5 -28q30 -32 101.5 -54.5 t90.5 -33.5q27 13 80 9t84 0q7 11 29.5 26t29.5 27q18 0 43 21t39 24q14 32 10 45q3 10 17.5 11t19.5 7q19 74 66 101q-2 6 -5.5 19.5t-8 22.5t-13.5 15q4 22 -14 55.5t-12 53.5q-17 12 -30.5 49.5t-37.5 50.5q-6 9 -28 23t-27 26q-19 2 -46.5 21.5t-37.5 23.5q-6 1 -17 3 t-20.5 3t-18.5 0q-91 37 -239 -28q-11 -15 -56 -50.5t-53 -68.5q-3 -4 -6 -26.5t-20 -22.5q-5 -26 -8.5 -79t-8.5 -79z" />
<glyph unicode=":" d="M418 150q7 21 3 41t0 40.5t25 28.5q58 41 164 41q3 2 6.5 -3t8 -12.5t8.5 -9.5q70 -53 72 -108v-47q-12 -6 -17.5 -21.5t-12 -27t-24.5 -11.5q-9 -20 -43 -27t-43 -14q-35 0 -35 3q-27 35 -63 26q-2 4 -15 22.5t-17.5 26.5t-10 23t-6.5 29zM425 714q-3 10 7 19 q-3 26 8.5 52.5t24 42.5t35.5 40q16 -1 43.5 5t48.5 4.5t39 -17.5q4 -8 12.5 -13.5t20.5 -11.5t18 -10q2 -15 8 -28t16 -28.5t15 -25.5l-2 -2q-1 -1 -8.5 -4.5t-11 -6t-7 -8t-2.5 -11.5q3 -18 -10.5 -40t-11.5 -38q-26 -21 -56 -28.5t-61 3.5q-10 6 -33.5 13.5t-38 18.5 t-18.5 32q-3 4 -12 12.5t-15 14t-9 15.5z" />
<glyph unicode=";" d="M420 158q13 6 12 14t-6.5 14.5t0.5 16.5q5 6 16.5 29.5t25 33.5t34.5 6q6 9 19.5 16.5t19.5 12.5q8 -13 21.5 -15t25 2t21.5 -0.5t12 -23.5q8 -5 17 -15t15 -17.5t17 -11.5t24 -1q12 -7 10 -29t13 -30q0 -2 -1.5 -11.5t-1.5 -14.5v-13t3 -14t8 -11q-10 -20 4 -61l-2 -2 q1 -27 -5 -57t-11.5 -46.5t-19.5 -52.5t-17 -45q-13 -10 -31 -44t-41 -40q-8 -6 -13.5 -27.5t-21.5 -25.5q-6 0 -29.5 -4t-37.5 -1t-19 17q-1 3 -5 13t-5 14t-2 12t0.5 13.5t5.5 11.5q10 12 26 30t27 30.5t26.5 30.5t24 32t19.5 34t13.5 36t5 39t-4.5 42q-16 10 -46.5 -4.5 t-49.5 -1.5q-6 3 -27 15.5t-32 15.5q-3 9 -21 39.5t-16 48.5zM426 698q7 24 2.5 45t-0.5 45t25 39q3 25 34 37q12 1 46.5 9.5t57.5 7.5t40 -17q4 2 10 -0.5t10 -1.5q4 -9 12 -21t14 -21.5t11 -20.5t4 -22.5t-8 -22.5q-6 -12 -5.5 -31t7.5 -31q-2 -5 -12.5 -13t-17.5 -14 t-10 -15t9 -17q3 -10 -14 -21q-13 8 -32.5 -2t-30.5 -4q-6 -4 -13.5 -5.5t-13.5 -0.5t-14 0q-6 4 -14 16t-16.5 16.5t-21.5 0.5q-12 -12 -26 6q-1 11 -6 20.5t-14.5 22t-12.5 16.5z" />
<glyph unicode="&#x3c;" d="M131 522q2 11 7 31t7 27q25 3 36.5 11.5t16 19.5t11.5 14q10 5 50 18.5t60 30.5q33 0 41 6q4 3 11 13t14 12q8 5 23.5 15t22 13t19.5 6.5t29 3.5l2 2q22 6 63.5 32.5t55.5 33.5q10 5 29.5 6.5t27.5 5.5q6 2 14 12t15 13q4 1 18 0.5t19 1.5q4 2 7.5 10t6.5 10q4 2 38 18 t57.5 26.5t51 21t38.5 10.5q32 0 28 -45q6 -9 6 -20q0 -20 -43 -52q-20 5 -26 5q-15 0 -47 -27l-60 -23l-8 -18q-17 2 -48.5 -11t-78 -37.5t-47.5 -25.5q-13 3 -35 -3.5t-35 -14.5l-22 -27q-28 -8 -72 -33t-61 -32q-5 -2 -16.5 -5.5t-16.5 -5.5q-7 -4 -27 -19t-37 -20 q11 -11 15.5 -12.5t23.5 -3.5q10 0 20.5 -9.5t20 -20t29 -18.5t45.5 -5q8 -5 45 -28t65 -37t48 -17q43 -54 57 -57q3 0 9.5 4t9.5 4h2q7 -2 33.5 -10t39.5 -13q18 -9 57.5 -36.5t73 -43t60.5 -10.5q15 -24 12 -37q0 -12 -10 -22q8 -12 8 -21q0 -24 -41 -24q-6 0 -25 9.5 t-22 14.5h-18q-10 0 -42 22.5t-81.5 48t-100.5 30.5q-9 14 -14 14q-6 3 -19.5 7t-19.5 7q-18 9 -49 28.5t-45 27.5q-8 3 -21.5 15t-15.5 13q-3 1 -9.5 -0.5t-8.5 -1.5h-7q-10 31 -28 31q-7 0 -19 -4q-32 13 -86 43q-1 0 -10.5 6t-17.5 10.5t-9 3.5q-3 0 -10.5 -2.5 t-13.5 -1.5q-2 0 -6 4q0 3 4 8t4 7q0 8 -43 22q-2 15 -4.5 21.5t-4.5 8.5t-10.5 6t-15.5 9z" />
<glyph unicode="=" d="M150 653q-2 16 5.5 29.5t15.5 19.5t27 16t23 13q41 -18 66 -13.5t64.5 12t68.5 1.5q54 -21 112 2q24 4 56 -16q29 15 68 15t71 -5q6 9 14.5 10t21 -2.5t17.5 -3.5q38 6 113 -6q39 -10 41 -31q5 1 8.5 -1t6.5 -9l3 -6v2q6 -40 -26 -59q-31 -4 -67 -5.5t-65 -1t-67 -0.5 q-8 -6 -13 -4.5t-14 7t-14 6.5q-21 -8 -69.5 2.5t-65.5 -7.5q-29 -3 -90.5 -3t-91.5 -3q-57 10 -170 2q-4 8 -26 15.5t-23 23.5zM160.5 380.5q-0.5 6.5 1.5 16t8 17.5q24 25 64 27t73.5 -5.5t71.5 8.5q22 -6 75.5 -5.5t75.5 -10.5q27 8 40 11t37 2t40 -13q10 1 25 6.5 t26.5 9.5t26 3.5t25.5 -9.5q13 6 26 9.5t29 4.5t25.5 1.5t28.5 0t26 -0.5q7 -5 28 -14.5t33.5 -20t16.5 -27.5l-2 -2q-7 -7 -9 -26.5t-8 -26.5q-30 -19 -71.5 -17.5t-74 8.5t-75.5 -8q-29 8 -115 1t-121 -5q-8 6 -18 6t-21.5 -2.5t-17.5 -1.5q-40 -8 -68 -6t-77.5 7.5 t-79.5 3.5q-29 8 -37 22q-1 5 -4 17.5t-3.5 19z" />
<glyph unicode="&#x3e;" d="M168 176q0 22 43 49q16 -4 27 -4q18 0 45 27l59 20l12 19q30 -2 170 75h27l43 19l22 27q28 9 75 33.5t59 29.5q3 1 34 12q9 5 28 19t34 20q-12 12 -17 13.5t-24 1.5q-11 0 -24 15.5t-34.5 30t-52.5 11.5q-11 6 -46.5 28t-63.5 35.5t-49 16.5q-11 13 -31.5 34t-26.5 21 q-3 0 -9 -3t-9 -3h-2q-41 10 -74 27q-17 8 -70 42.5t-84 41.5q-10 4 -32 4q-17 28 -17 34q0 13 13 23q-9 13 -9 20q0 25 39 25q6 0 25 -10t24 -15q3 -1 6 -1t6.5 0.5t4.5 0.5q13 0 45 -22.5t81 -47.5t101 -28q6 -16 10 -18q7 -3 21 -6.5l18 -4.5q15 -7 47 -27t50 -28 q6 -3 19 -15t17 -13t10 0.5t7 1.5q4 0 6 -2q10 -31 27 -31q12 0 24 6q33 -16 82 -45q2 -1 11.5 -6.5t17.5 -10.5t8 -4q4 0 11 3.5t11 3.5q1 0 4 -2.5t3 -4.5q0 -3 -3.5 -8t-3.5 -8q0 -5 45 -20q1 -12 2 -17.5t4 -10t5 -5t10 -4t14 -6.5q-2 -10 -7 -30t-7 -30q-27 -4 -38 -13 t-15 -19.5t-11 -14.5q-10 -5 -50.5 -17.5t-59.5 -29.5q-29 0 -41 -4q-5 -3 -11.5 -13.5t-11.5 -13.5q-8 -4 -24 -13t-24.5 -13.5t-22 -8.5t-27.5 -4q-3 0 -18 -8t-32.5 -18t-19.5 -11q-43 -27 -51 -30q-10 -6 -30 -7.5t-27 -3.5q-5 -3 -13 -12.5t-16 -11.5q-3 -1 -16 -1.5 t-19 -2.5q-4 -2 -8.5 -10.5t-9.5 -10.5t-27.5 -12.5t-43 -20t-44 -20t-41.5 -16.5t-26 -6q-17 0 -23.5 13.5t-3.5 29.5q-6 9 -6 24z" />
<glyph unicode="?" d="M221 1014q29 16 44 64.5t36 64.5q21 8 49 21.5t50 25t49.5 23t52.5 17.5t55 6t59 -9q12 -5 66.5 -23t81.5 -35q6 -5 22 -19.5t24 -23t20 -21.5t18.5 -26t9.5 -26q2 -2 33 -52l2 -2q1 -9 4 -35t3.5 -37t0 -31t-6 -35t-15.5 -30q-3 -7 -19.5 -32.5t-19.5 -42.5 q-20 -24 -55 -45t-64.5 -33.5t-59 -38.5t-43.5 -61q-1 -28 -5 -57.5t-10 -64.5t-9 -53q-20 -22 -57 -22q-22 12 -28 34t-5 51.5t-6 45.5q13 19 23 60.5t14 50.5q80 106 141 125q17 17 56.5 45.5t64.5 55.5t34 62q3 10 -7.5 33.5t1.5 32.5q-1 7 3 20t3.5 24t-10.5 19 q-16 23 -61 45t-58 43q-24 16 -53.5 24t-57.5 8t-59 -1q-12 -3 -34 -6.5t-37 -7t-32.5 -10t-31 -19t-22.5 -31.5q-1 -17 8 -40t17.5 -39.5t7 -38t-20.5 -39.5q-40 -37 -104 -27q-46 14 -56 51q3 12 -4 32t-2 30zM438 102q-4 77 49 121q79 26 134 17q11 -4 22 -12t16.5 -13 t18.5 -18.5t16 -16.5h2q16 -32 13.5 -73.5t-27.5 -69.5q-8 -5 -27 -12t-31.5 -15t-17.5 -22q-36 -5 -74 9.5t-57 43.5q-3 4 -37 61z" />
<glyph unicode="A" d="M44.5 60.5q3.5 6.5 5.5 8t9.5 5.5t10.5 6q12 8 16 12q13 2 37 6q79 4 94 58q11 16 19 56t10 46q3 14 12 29q-1 4 -1 9q0 21 15 54q14 34 14 58q0 6 -1 10q3 8 8.5 29.5t11 36t12.5 26.5q9 41 37 149.5t39 169.5q3 14 35 119q27 75 29 123q10 15 14 45q2 8 5 26.5t5 26.5 q11 54 64 54h4q36 -3 65 -45q5 -9 15 -48q4 -34 10 -49q-8 -18 -4 -44t10.5 -42.5t16.5 -41.5t14 -42q11 -10 17 -24t7.5 -23t2.5 -27.5t2 -25.5q4 -25 10 -37q2 -12 7 -39t8 -43t8.5 -38t11.5 -40q9 -18 17.5 -40.5t13 -39t11.5 -44t11 -41.5q5 -6 9 -12.5t6.5 -11.5t4 -13 t2.5 -12t1.5 -13.5t0.5 -12v-13.5v-13q0 -70 43 -102q-4 -18 -10 -62q0 -42 25 -59q15 -10 34.5 -14.5t47.5 -6.5t37 -4q39 -6 48 -17q11 -14 5 -48q-8 -18 -33 -29q-7 -2 -22.5 -5t-22.5 -5q-26 4 -78 4q-35 0 -82 -2q-19 -1 -37 -1q-71 0 -116 13q-4 -2 -11 2l-2 4 q-8 4 -12 4q-5 2 -8 7t-5 12.5t-3 9.5q-1 10 2.5 16.5t6.5 9t14 7.5t14 6q3 2 10 6t10 6q12 0 18 -2h25q27 0 37 25q2 10 2 23q0 53 -33 151q-23 47 -86 47h-10q-14 0 -53.5 -4t-59.5 -2q-14 -2 -45 2q-2 0 -22 4t-25 4.5t-21 1t-23.5 -3t-17 -11.5t-16.5 -20 q-6 -29 -24 -55q8 -15 4 -37q-1 -6 -7.5 -25.5t-8.5 -30.5t-3 -27.5t6.5 -28t22.5 -19.5q21 3 39 3q41 0 63 -17q12 -20 7 -43q-39 -41 -128 -41h-16q-15 1 -43 4t-43 4q-18 1 -34 1q-27 0 -48 -3q-73 9 -94 47q-4 7 -0.5 13.5zM389 457q14 -7 28.5 -9.5t39 -3t30.5 -0.5 q23 0 35 -2q22 2 26 2.5t27 -2t27 -2.5q6 0 11 -1q41 0 61 28q14 23 14 46q0 22 -12 44l-2 -2v5q0 28 -19 87q-17 48 -17 77q0 6 1 11q-10 17 -15 34.5t-7.5 40.5t-4.5 34q-3 21 -12 35q10 14 -8 41q-6 13 -4 24q-12 7 -8 19q5 24 4 28q-8 14 -19.5 23t-27 11t-29.5 -13 q-1 -4 -5.5 -20.5l-6 -22t-5 -20.5t-5 -23t-4 -21.5t-3.5 -23t-2 -21.5t-1 -22.5t1 -20.5q-24 -26 -33 -62.5t-12.5 -83.5t-9.5 -71q-2 -19 -21 -68q-13 -37 -13 -63q0 -6 1 -12z" />
<glyph unicode="B" d="M78 70q-5 18 3.5 34t27.5 17q25 7 57 6.5t60 -3.5t57 3.5t47 26.5q2 12 2 25q0 27 -8 59q6 25 6 47q0 33 -13 57q9 39 12.5 118t12.5 118q-5 16 -2 32.5t0.5 34t-16.5 25.5q3 15 3 39q-1 22 -3 53q-2 23 -1 42q0 34 5 54q-4 8 -2.5 34t-8.5 34q-3 12 9.5 26.5t1.5 30.5 q-2 7 -5.5 23t-5.5 26.5t-4 24t-1.5 26t3.5 23.5q-22 15 -71 15.5t-58 2.5q-2 1 -11.5 3t-13.5 3t-11.5 4t-12 6t-10 8t-8.5 11q0 31 12 35q11 0 34.5 2.5t37.5 3t33 -2t34 -9.5q23 -5 54 -5q37 -1 85 7q76 12 111 12h10q42 -13 78 -12q26 0 49 6q14 -2 42.5 -2.5t50.5 -4 t41 -13.5q13 -1 26.5 -7t22.5 -12.5t23 -18t20 -16.5q6 -7 16.5 -20t16.5 -19.5t15.5 -20t13.5 -21t11.5 -21.5t7.5 -23t3 -24.5t-2 -26.5q2 -21 2 -40q0 -128 -86 -199q-2 -13 -13 -17.5t-22.5 -3.5t-21 -5t-9.5 -22q16 -14 56 -30.5t57 -34.5q21 -11 53 -51q23 -14 35 -39 t20.5 -58.5t18.5 -50.5q-3 -21 1 -59q2 -18 1 -33q0 -17 -2 -33q-4 -28 -25 -49q-1 -24 -11 -46.5t-22 -38t-35 -34.5t-37 -28t-42 -26t-37 -23q-24 -16 -75 -16q-1 1 -3 1h-9q-48 0 -77 -6q-45 8 -95 8q-35 0 -73 -4q-59 14 -179 14q-12 0 -24.5 -0.5t-24.5 -0.5 q-119 0 -171 14q-10 1 -21.5 16.5t-15.5 18.5zM399 922q12 -27 12 -60q1 -35 -5 -65q-2 -9 -2 -19q0 -21 6 -47q14 -31 39 -37q5 2 11 0t10 -2t7 6q10 -2 16 -1t12.5 0t10.5 -5q14 4 39 5q21 0 49 -4q20 -2 38 -2q33 0 50 9q22 26 79.5 37t78.5 33q2 9 26 63q22 50 21 83v6 v-2q-14 6 -20.5 18.5t-7 22.5t0 29t0.5 28q-6 6 -19 17.5t-22 21t-16 20.5q-16 6 -56.5 12.5t-60.5 16.5q-14 -5 -29 -3t-30.5 0.5t-20.5 -11.5q-2 -1 -6 -4.5t-6 -4t-6 3.5q-5 1 -13 9.5t-12 9.5q-11 -10 -33.5 -3t-33.5 1q-7 2 -16.5 -1.5t-17.5 -7.5t-15 -7t-12 0.5 t-7 15.5q-11 0 -17 -14t-13 -17q-6 -26 -0.5 -48.5t5.5 -52.5t-14 -50zM409 561.5q-2 -24.5 3 -46.5t0 -48q6 -18 2 -52.5t2 -49.5q6 -22 6 -59q0 -28 -3 -62q-3 -29 -3 -51q0 -43 10 -68q10 -9 41 -9q10 0 23 1q34 3 52 3q9 0 13 -1q31 3 108.5 3t118.5 5q53 6 100 53 t60 99q5 1 8.5 3t7 6t5.5 7t5 8.5t5 7.5h-2q-10 20 -15 78t-22 82q-5 6 -15.5 15t-18 17.5t-11.5 18.5q-43 46 -70 57t-55 3q-23 -3 -52 15.5t-50 16.5q-5 -8 -14.5 -10t-24 0t-17.5 2q-14 7 -37 7q-23 -1 -53 -7q-42 -8 -68 -8q-13 0 -22 2q-15 -14 -17 -38.5z" />
<glyph unicode="C" d="M110 648q2 37 19 61q4 119 51 184q-4 31 12 60.5t37.5 59t26.5 54.5q26 12 48.5 50t45.5 50q87 55 194 55q19 0 39 -2q131 -12 218 -96q12 -12 33 -8q12 11 25.5 48.5t37.5 45.5q15 6 31.5 1t27.5 -19q15 -17 13.5 -39t-10 -38t-17.5 -39t-8 -40q4 -27 7 -119.5 t22 -146.5q1 -8 0.5 -11t-4.5 -10.5t-5 -9.5q-24 -13 -48 -13q-14 0 -29 5q-32 19 -39 51q-6 28 -6 63v10v6q0 37 -11 61q-7 81 -143 168q-46 30 -106 34q-8 1 -15 0q-52 0 -96 -26q-10 -8 -40 -23.5t-46.5 -33t-16.5 -44.5q-27 -14 -45 -37.5t-36.5 -64.5t-26.5 -55 q-1 -6 -16.5 -59.5t-20.5 -82.5q0 -16 -3 -48t-3 -58.5t6 -48.5q-4 -18 -3.5 -38t3.5 -42q22 -24 35.5 -65.5t29.5 -81t46 -62.5q16 -42 56 -79t85 -60q49 -2 95 -3h6q44 0 88 14q48 14 75 46q11 29 68 109.5t63 136.5q-1 9 1.5 18t5 15t10.5 14.5t11.5 12.5t13.5 13t13 11 q20 6 46.5 2.5t37.5 -23.5l-2 2q-2 -9 -1.5 -34.5t-2.5 -28.5q-8 -12 -14.5 -37.5t-11.5 -36.5q-29 -123 -111 -205q-14 -39 -70.5 -75t-70.5 -52q-65 -22 -133 -26q-13 -1 -26 -1q-54 1 -109 15q-68 18 -117 61q-10 12 -47 54t-57 71.5t-31 63.5q-28 31 -39 73t-18 92 t-19 81q-3 2 -2.5 10t-3.5 10q5 33 0 63q-3 20 -3 43q-1 12 0 24z" />
<glyph unicode="D" d="M78 72q16 34 46 46q23 9 47 10q7 0 15 -1q29 -4 62 -4q4 1 8 1q38 0 68 11q7 16 3 30t-2.5 29.5t15.5 24.5q-5 22 -5 74q1 13 1 27v15q0 61 -12 83q1 2 5 7.5t3 8.5l-8 8v9q0 37 7 123q4 51 4 91q0 34 -3 58q6 35 6 92q0 29 -2 63q-2 37 -1 67q0 54 5 89q-18 12 -13 28.5 t3.5 32.5t-23.5 19q-15 -15 -45 0q-18 14 -31 6q-9 0 -30 -4t-37.5 -3.5t-28.5 9.5q-23 18 -23 40q0 8 3 16q7 17 22.5 19t37 -2.5t32.5 -2.5q20 3 90 3q13 -1 25 -1h6q86 0 106 14q29 -7 74 -7q23 0 49 2q24 1 44 1q49 0 79 -8q63 -1 124.5 -37t106.5 -92 q32 -39 49.5 -84.5t33.5 -119t22 -95.5v-9q0 -33 12 -103q7 -44 7 -79q0 -28 -5 -49q-1 -27 -6.5 -57.5t-11 -51.5t-15.5 -56.5t-14 -51.5q-15 -25 -39.5 -84t-53 -99.5t-75.5 -66.5q-61 -33 -131 -43q-45 -6 -106 -7q-35 1 -75 3q-93 5 -131 4h-12q-29 3 -85.5 3t-101 4.5 t-81.5 19.5q-12 16 -14 27zM401 254q7 -19 14 -56.5t11 -52.5q4 -14 22.5 -19t28.5 1q11 9 36 9q16 0 37 -4q41 -6 63 -6q7 0 12 1q13 5 59 7.5t66 19.5q11 15 39 42t48 52.5t25 52.5q16 16 22 39.5t7.5 57.5t3.5 46q7 44 7 76q0 27 -5 45q6 16 8.5 55.5t7.5 55.5 q-12 20 -6 38t4 36.5t-22 27.5q6 29 0.5 61.5t-18 69.5t-15.5 58q-9 10 -30 33.5t-31.5 35t-30.5 29t-35.5 26t-37 16t-44.5 7.5q-14 5 -34 5q-17 1 -37 -3q-19 -3 -35 -4q-20 0 -33 6q-9 -4 -28 1t-33.5 3.5t-20.5 -18.5q-17 -23 -17 -41q0 -14 11 -25q3 -50 3 -166 q-1 -19 -1 -40v-17q0 -134 8 -192q-6 -14 -6 -36q0 -19 4 -44q4 -18 4 -32q0 -28 -14 -42q6 -13 0.5 -45.5t5.5 -44.5q8 -11 5.5 -32t-6 -32t-11.5 -31t-11 -30z" />
<glyph unicode="E" d="M25 57q1 25 21 44.5t46 27.5q13 0 85 -4q29 -2 48 -2q30 0 39 4q41 26 41 84v8q-8 14 -8 43q1 16 3 36q1 13 1 23q0 38 -18 50q-2 7 -2 16q0 21 10 52q9 29 9 50q0 12 -3 23q1 45 1 136t1 136q11 15 2 56q-6 10 -6 23t2.5 28t1.5 24q-4 12 -4 31q1 20 5 50q4 24 3 43 q0 25 -6 40q-19 23 -52.5 28.5t-63 1t-60.5 1.5q-6 -5 -12 -7t-13.5 0.5t-12 4.5t-13.5 7.5t-11 6.5q-22 30 -18 49q23 30 63 34q14 1 27 1q25 0 49 -4q13 -3 26 -3q24 0 50 9h12q30 0 68 -8q47 -4 130 -4q48 0 109 2q89 2 153 1q55 0 91 -1q22 -4 56.5 1t57 7.5t58.5 -10.5 q7 -8 20.5 -24.5t20.5 -24.5q-2 -9 -2 -20q0 -28 11 -70q11 -45 11 -73q0 -9 -1 -17q24 -38 25 -72q0 -24 -13 -45q-21 -16 -44 -16q-14 0 -28 6q-23 15 -25.5 60t-15.5 58q-4 19 1 52t-1 54.5t-35 35.5q-8 -2 -14.5 0.5t-13 7.5t-10.5 6q-8 0 -112 3.5t-159 8.5 q-29 -13 -59.5 -12t-54.5 8.5t-51 1.5t-48 -34q-4 -18 4 -57.5t0 -57.5q-5 -38 -7 -76q-1 -23 0 -54v-45q1 -62 1 -75q10 -16 27 -21.5t33 -3.5t34 0q10 -1 35.5 -4.5t38.5 -4.5t33 0t35.5 7.5t29.5 18.5q4 16 -3 55t5 53q25 50 50 56q30 0 41 -25q14 -40 14 -115 q0 -17 -1 -37q-1 -22 -1 -42q0 -74 12 -117q-4 -16 -4 -46t-6 -49t-29 -32h-6q-26 0 -57 31q-14 15 -14.5 37t5.5 39.5t0.5 35t-28.5 27.5q-22 5 -43 8t-49 3h-39.5t-50 -2.5t-43.5 -2.5q-23 -9 -13 -55q13 -14 0.5 -39.5t5.5 -36.5q15 -11 13 -40t12 -40q-20 -27 -24 -69 q-2 -22 -3 -43q0 -18 2 -34q2 -14 2 -29q0 -22 -4 -46q1 -1 3 -12.5t6.5 -17.5t13.5 -5q21 -5 52 -4q37 0 87 6q11 -6 32 -6q17 0 40 4q143 -4 221 -4q52 0 74 2q13 6 13.5 17t-3 23.5t-0.5 18.5q4 25 6.5 94.5t16.5 108.5q12 39 65 47q44 -7 57 -39q5 -12 5 -29 q0 -20 -8 -47q-12 -38 -12 -60q0 -6 1 -11q-8 -19 -11.5 -28.5t-9 -28.5t-7.5 -32t-1.5 -30.5t5.5 -32.5q-5 -47 -54 -92q-8 -1 -22 -1q-27 0 -77 3q-29 2 -50 2q-32 0 -45 -4q-18 10 -41.5 10t-50.5 -3t-43 -1q-12 4 -33 4q-23 0 -57 -4q-20 -3 -36 -3q-36 0 -53 13 q-6 1 -13 1q-29 1 -87 -9q-31 -5 -53 -5q-31 0 -47 9h-15q-28 0 -88 2q-24 1 -42 1q-44 0 -60 -5q-47 8 -55 43z" />
<glyph unicode="F" d="M82 57q-5 21 22 43q12 10 40.5 9t37.5 10q17 2 47 -1t56 -2.5t47 11.5q10 38 10 83q0 28 -4 60q4 93 4 398q9 10 9 43q0 11 -1 23q-3 35 -3 53q0 9 1 14q6 7 6.5 15t-2.5 14.5t-7 15t-5 14.5q6 16 3.5 29t0 27.5t16.5 23.5q-2 11 -12.5 31t-12.5 31t7 34q18 26 6 45 q-16 24 -53 31q-12 -11 -56.5 -3.5t-60.5 5.5q-9 10 -37 10.5t-42 8t-1 36.5q13 20 35.5 19.5t40.5 -6.5t39 10q22 5 56.5 0t56 -7.5t51.5 11.5q7 2 18 2q23 0 61 -8q22 -5 38 -5q25 0 36 11q19 -3 36 -3q37 0 67 13q13 -2 57 -10q41 -8 68 -8h4q28 0 53 14q16 3 38.5 4 t38.5 0.5t41.5 -2.5t35.5 -2q20 -12 26 -22q14 -20 14 -76l-1 -7q0 -56 18 -73q5 -15 0 -53t8 -47q2 -12 6.5 -34t6.5 -35t4 -31.5t1.5 -35t-3.5 -32.5q-2 -22 -33 -35q-10 1 -13.5 -0.5t-12 2t-12 4t-11.5 5.5t-11 7t-11 7.5t-11 7.5q1 5 7 16t6.5 16t-3.5 17 q-4 8 -14.5 23t-14.5 26q17 14 16 34t-8 35.5t1 36.5q-1 3 -8 12.5t-7 16.5q13 4 14.5 12.5t-1.5 20.5t-2 18q-1 3 -3.5 11t-4 11t-4 10t-5 10.5t-6 9t-7 9t-9 7t-11.5 6.5q-14 2 -39.5 -1t-47.5 -1.5t-38 14.5q-7 -1 -28 -5t-30 -5.5t-28 -3.5t-30.5 -1t-27 4t-28.5 9 q-14 5 -28.5 1.5t-22.5 -13.5q-25 9 -46 9q-15 0 -27 -5q-15 -20 -16 -47.5t2.5 -49.5t-3.5 -50q6 -36 6 -64q0 -43 -14 -69q13 -22 13 -72q0 -23 -3 -53q3 -21 27 -33h5q24 0 98 -8q37 -4 63 -3q29 0 41 5q23 16 26 44t-3 53t3 54q-8 8 -3 38t3 42q25 20 46 20q11 0 22 -6 q34 -8 43 -38q-13 -21 -13 -53q0 -6 1 -13q22 -22 10 -39q-9 -5 -7 -42t1 -44q-13 -32 -13 -65t6 -73q5 -34 5 -58v-7q3 -14 3 -49.5t7 -54.5q-5 -7 -15 -35.5t-28 -36.5q-9 3 -26 3t-27.5 4t-14.5 20q6 15 -1.5 36t-11 33.5t12.5 32.5q-8 21 -7 46.5t5.5 48.5t-10 34.5 t-53.5 3.5q-10 8 -27 8q-14 0 -36 -6q-25 -7 -44 -7q-15 0 -26 5q-4 8 -19 4t-22 0q-17 -12 -19.5 -29.5t2 -42t2.5 -38.5q-1 -14 -1 -34q0 -41 5 -111q3 -41 3 -72q0 -47 -7 -72q-2 -18 6 -32.5t23 -18.5q21 0 83 3q23 1 44 1q34 0 58 -3q40 -5 75 -24q15 -12 29 -37 q-22 -27 -52.5 -42t-68.5 -19q-33 -3 -62 -3q-3 1 -7 1q-32 0 -77.5 3t-70.5 3q-6 1 -24 6.5t-29.5 5t-20.5 -9.5q-25 2 -54 2h-15q-38 0 -72 -3h-10l-58 10q-34 12 -55 40z" />
<glyph unicode="G" d="M90 564q1 56 21 93q0 11 -2.5 33.5t-3.5 36t2 31t12 30.5q41 221 157 345q65 57 146 77q36 10 74 10q46 0 94 -14q30 -1 79.5 -26.5t71.5 -30.5q5 4 25.5 28t38.5 29q14 2 25 -5t25.5 -24.5t16.5 -19.5q1 -5 1 -11q0 -28 -15 -80q-10 -33 -10 -60q0 -23 8 -41 q-5 -17 -0.5 -40t12 -43t4 -40.5t-23.5 -32.5q-8 -17 -36 -17q-11 0 -26 3q-25 23 -37.5 54t-5.5 58q-14 18 -14 64q-10 5 -31.5 27t-38.5 28q-7 26 -23.5 47.5t-39.5 28.5q-19 -7 -42.5 -4.5t-43.5 9t-42.5 3t-39.5 -22.5q-47 -8 -96 -53q3 -9 0 -13t-10.5 -6.5t-10.5 -4.5 q-17 -16 -27.5 -59t-29.5 -60q0 -15 -14.5 -34.5t-21.5 -32.5t5 -40q-18 -15 -16 -50t-12 -52q-2 -34 -2 -59q0 -20 1 -35q3 -31 12.5 -95.5t12.5 -93.5q0 -7 9 -15.5t10 -10.5q-12 -20 7 -45.5t15 -40.5q9 -12 18.5 -51t32.5 -52q4 -12 33 -37q21 -1 51 -28t54 -25 q26 1 55.5 1.5t55 1t52 9.5t45.5 27q56 56 56 108v5q5 3 8 15t12 11q4 -6 17 -10q4 7 6.5 31.5t11.5 34.5q-7 16 -4.5 34t8.5 33t3.5 31t-19.5 27q-12 -3 -26 -3q-30 0 -64 15q-21 2 -40.5 0.5t-41 3.5t-35.5 20q1 9 -4 28.5t-1 32t25 17.5q13 4 50.5 2.5t48.5 8.5 q99 -8 221 -21q10 10 21.5 15.5t28 6t24.5 0.5t30.5 -4t26.5 -4q9 -6 15 -14t12 -21.5t8 -17.5q0 -6 -2 -11.5t-4 -9t-7.5 -9l-7.5 -7.5t-8.5 -7.5t-7.5 -6.5q-27 -17 -51 -11t-52.5 6t-44.5 -20q-1 -14 -4.5 -59.5t-3 -61t5.5 -51.5q-16 -14 -7 -35.5t-1 -35.5 q-1 -4 -1 -10q0 -26 16 -82q9 -33 9 -57q0 -26 -10 -42t-30.5 -19t-34.5 7q-11 7 -18 26t-15.5 30t-27.5 5q-9 -6 -29 -16t-34 -20t-23 -25q-10 -2 -37 -9t-37.5 -9t-32 -5t-40 -2t-40.5 4q-67 10 -115 29q-14 14 -59 55.5t-65.5 62.5t-47 59.5t-38.5 76.5 q-24 39 -34.5 112.5t-17.5 96.5q-8 40 -8 91v6z" />
<glyph unicode="H" d="M42.5 77q-0.5 3 1 8t2.5 7.5l3 7.5t3 7t3.5 7.5t3.5 6.5q13 9 37 9q17 0 39 -5q23 -5 39 -5q23 0 37 9q15 9 14 23.5t-6.5 27t4.5 25.5q2 22 3 58q0 37 -3 85q-2 30 -2 55q0 55 8 84q-12 60 -12 110q0 41 8 75q3 14 3 32t-4 42q-6 46 -5 61q3 30 3 42.5t-3 41.5t-4 43 q6 12 6 31q-1 17 -5 41q-4 20 -4 36q0 23 9 39q-2 27 -23.5 32t-46.5 0t-47 7q-44 8 -57 33q0 29 23 64q49 11 113 11q51 0 112 -7q3 1 18 4.5t22 4.5t19 1.5t21 -2.5t16 -10q13 3 30 3q30 0 73 -10q9 -2 15.5 -8.5t12.5 -16t10 -13.5q-14 -24 -41.5 -32.5t-62.5 -12 t-53 -13.5q-9 -2 -22.5 6t-22.5 6q-16 -8 -16 -34q0 -11 3 -25q12 -29 10 -48.5t-7 -50t-3 -48.5q15 -9 7.5 -33t11.5 -31q2 -14 -4.5 -29t-9 -21.5t7.5 -23.5q12 -15 12 -36q-17 -9 -8 -35q14 -16 54.5 -7.5t55.5 3.5q13 -1 42.5 3t56.5 4t47 -9q19 6 58 6q21 0 48 -2 q17 -1 32 -1q50 0 73 13q9 19 4.5 53.5t3.5 50.5q3 8 3 20q0 19 -10 49q-8 23 -8 40q0 18 9 31q2 9 -12 26q1 11 7 29.5t10.5 31.5t3 29.5t-12.5 30.5q-7 -2 -13 -0.5t-14.5 6.5t-11.5 6q-68 0 -103 2q-3 6 -8 8t-12 2t-10 1q-4 3 -14.5 6t-17 7.5t-5.5 14.5q9 6 15.5 26 t19.5 26q19 -2 50 5.5t49 10t50 -9.5q16 -6 63 -6h25q34 1 56 1t32 -1q17 11 39 11q26 0 60 -16q14 -8 14 -38q-10 -25 -34 -32.5t-47.5 -3.5t-47.5 -1.5t-35 -28.5q4 -18 -3 -60.5t5 -58.5q-1 -4 -4.5 -16t-5.5 -19.5t0.5 -16t11.5 -13.5q0 -15 -6 -63q-4 -34 -4 -60 q1 -11 1 -21q2 -33 17 -63q-1 -1 -2.5 -2t-2.5 -2t-1 -2q1 -22 1 -49q0 -40 -2 -88q-4 -80 -4 -127v-5q0 -46 9 -127q-11 -15 -9.5 -23t7.5 -23.5t4 -26.5q1 -8 2.5 -37t7 -46.5t19.5 -31.5q24 -5 47.5 0t46.5 -3.5t31 -35.5q0 -6 3 -17.5t3 -17.5l-2 2q-16 -24 -49.5 -31 t-62.5 -3.5t-56 -2.5q-44 10 -87.5 10t-86.5 -10q-11 2 -41.5 2t-50 6t-27.5 25q-9 39 8 58q13 17 46.5 12t44.5 12q13 4 33 -0.5t34.5 -10.5t26 0.5t12.5 29.5q-6 3 -6 7.5t3 10t3 8.5q-4 12 -7 26t-4.5 24.5t-1 26.5t0.5 24t2 27t2.5 25t3.5 28t4 26q-4 43 -20 51h-10 q1 0 5 1q13 3 15 5q3 35 3 69q0 44 -5 87q-15 8 -30.5 10t-41 0t-33.5 -2q-20 -16 -57.5 -4t-60.5 -2q-15 2 -41 -0.5t-46 0t-38 16.5q-15 0 -38.5 -5t-37.5 -7t-37 4q-11 -5 -10 -14.5t6.5 -19t-2.5 -21.5q4 -13 4 -32q0 -24 -6 -58q-5 -26 -5 -46q0 -29 9 -48 q4 -23 -3 -62.5t-9.5 -63.5t14.5 -59q-1 -5 -5 -16.5t-6 -19t1 -16.5t12 -15q12 -4 26.5 0.5t24.5 11t21 4t20 -19.5q7 0 22 2.5t25 2.5t20 -4.5t13 -17.5q21 -24 10 -51q-17 -18 -64 -18.5t-61 -14.5q-14 -2 -40 -2q-27 0 -65 2q-17 1 -31 1q-50 0 -68 -11q-15 10 -40 11 t-44.5 -1.5t-37.5 6t-24 33.5q-2 4 -3 8t-1 8.5t-0.5 7.5z" />
<glyph unicode="I" d="M141 60q-1 9 0 20.5t0 17.5q8 3 30.5 23t37.5 20q18 -1 45.5 -7t47.5 -10t44 -4t43 9q14 2 33.5 -5t30.5 -10t28 7q2 2 7 5.5t8 6t6.5 6.5t5 7t1.5 7t-3.5 7t-9.5 6q0 3 8 10t10 12q-13 6 -16 22t2 28q8 9 7 13.5t-6.5 14t-6.5 15.5q0 13 -2 32.5t-1.5 33.5t5.5 30 q9 24 9 67q0 14 -1 30q-1 22 -1 41q0 36 5 58q-6 16 -6 45q0 22 4 52q4 35 4 58t-4 36q-2 1 -2.5 6t-1.5 6q5 -1 7 4.5t5 7.5q0 15 -2.5 47.5t-3 50.5t3 45t12.5 50q-12 25 -7 49.5t3.5 54t-20.5 45.5q-38 -3 -70 -3q-52 0 -86 8q-20 -10 -42.5 -10.5t-49.5 2.5t-45 1 q-3 -2 -6 -3t-6 -0.5t-5 0.5t-5.5 1t-5 2t-5 3t-5 3t-5 3.5t-4.5 3.5q-21 18 -21 40q0 9 4 19q5 6 15.5 13t13.5 12q30 1 87 1q100 0 282 -2q69 -1 126 -1q180 0 246 8q9 1 17 -2t15.5 -10t11 -11t11.5 -14.5t9 -11.5h2q1 -5 1 -11q0 -25 -32 -41h-260q-7 -4 -27 -5 t-30.5 -8t-7.5 -27q-17 -10 -8.5 -35t1.5 -35q-13 -18 -13 -48q0 -22 7 -52q-4 -17 -4 -24.5t3.5 -24.5t4.5 -25q-1 -16 -4 -52t-4.5 -57t0.5 -50.5t8 -53.5q-6 -25 -7 -58t2.5 -59.5t8.5 -64t7 -58.5q-7 -22 -7 -58q0 -24 3 -54q-2 -5 -10.5 -10t-6.5 -13q8 -3 11.5 -17.5 t7.5 -19.5q4 -10 -5.5 -18t-5.5 -17q56 -44 123 -47q16 3 56 -2.5t53 0.5q22 -6 43 -1.5t45 1t37 -21.5q10 -19 6.5 -38t-14.5 -34t-28.5 -20t-31 -3.5t-37.5 7t-33 6.5q-39 -17 -97 -19q-19 -1 -37 -1q-36 0 -66 3q-23 12 -65 12h-24l-28 -2q-40 0 -65 11q-22 0 -29 -12 q-24 13 -37.5 11t-37.5 -8.5t-40 -4.5q-15 -1 -28 -1q-88 0 -130 23q-5 6 -6 15z" />
<glyph unicode="J" d="M100 359.5q4 18.5 12.5 49.5t6.5 54q35 20 35 45q-2 9 23 19q2 1 3 1q18 7 25 9.5t23 6.5t29 3.5t26 -4.5q23 -1 35 -16.5t21.5 -39.5t18.5 -34q1 -18 -15.5 -49.5t-18.5 -38.5q-36 -33 -91 -43q-11 -13 -9.5 -21t8 -23t4.5 -24q3 -4 19.5 -18t16.5 -29q73 -90 143 -90h7 q2 4 5 5t5.5 -0.5t6 -3.5t5.5 -3h11q40 0 69 20v7t4 8q-1 -6 6.5 -7.5t8.5 -3.5q11 7 33.5 32.5t35.5 33.5q5 20 32 46t32 46q1 15 0.5 39.5t0.5 43t5 36.5q-8 12 -23 57q22 26 9 59q-2 3 -2 7t1 9.5t1 8.5q10 8 14 23q-15 4 -14.5 23.5t-10.5 25.5q-4 11 -4 26q0 21 9 50 q8 32 8 54q0 12 -2 21q-4 14 2.5 33.5t6 34t-19.5 26.5q-11 28 5 39q-3 25 -3 49t3 48q-4 2 -6 5.5t-2 10t-1 8.5q8 14 7 39t2 37q-3 3 -9 6h-10q-23 0 -77 3q-21 1 -37 1q-36 0 -48 -6q-15 1 -41 -1.5t-46.5 -0.5t-39.5 14q-7 4 -11 10t-7 14.5t-6 12.5q1 3 4 13t6.5 16.5 t9.5 13.5q29 20 67 28q34 7 60 7h7q28 -1 76 -5.5t71 -4.5q14 2 39 -8q13 5 52 5q16 0 38 -1q52 -2 78 -2h14q13 -3 33 -3t47.5 3t48.5 3t35 -3q5 -5 17.5 -9.5t19.5 -10.5t6 -19h-2l-5.5 -11l-6 -12t-6.5 -10t-9 -8q-57 -12 -92 -12q-16 0 -27 2q-25 -7 -47.5 -3 t-48.5 -1.5t-41 -26.5q6 -48 6 -143.5t6 -143.5q-13 -10 -13 -41q0 -9 1 -20q16 -36 18 -76q1 -13 1 -26q0 -30 -3 -64q-4 -41 -4 -66v-10q1 -29 0 -55.5t1 -60t8 -58.5q-3 -15 0 -27.5t2.5 -26t-9.5 -22.5q-3 -7 -8 -29.5t-13.5 -37.5t-25.5 -21q-16 -14 -29 -54.5 t-40 -55.5q-41 -14 -60 -41q-17 -4 -53 -14.5t-59.5 -15.5t-55 -8t-58.5 6t-50 30q-8 6 -19.5 3.5t-21 0t-8.5 16.5h-4q-23 0 -51 29q-31 33 -44 37q-10 5 -13 21.5t-13 21.5q-26 58 -49 110q-7 3 -7.5 19.5t3.5 25.5q-13 34 -9 52.5z" />
<glyph unicode="K" d="M39 61q4 44 27 50l15 -3t18.5 -3.5t17.5 -0.5q3 2 10.5 9t11.5 9.5t13 5.5t14 -3q3 -3 7 -4t10.5 0.5t9.5 1.5q13 5 16 15.5t0 20.5t0 21q-5 17 2.5 48t-0.5 53q5 20 3 37.5t0 38t13 32.5q-13 25 -13 57q0 15 3 31q7 35 7 63q0 31 -9 52q-2 14 -2 30q1 24 5 52q5 27 4 48 q0 18 -3 34q-3 11 2.5 46t-6.5 42q-2 12 -2 29q1 27 5 63q4 34 4 58q0 19 -3 32q7 6 6 9t-4.5 11t-1.5 13q-15 3 -16.5 16.5t3.5 26t-0.5 20t-27.5 2.5q-8 9 -18.5 9.5t-24 -3.5t-18.5 -4q-6 -9 -14 -8.5t-14 5.5t-14.5 11.5t-13.5 8.5q-9 6 -11.5 16t3.5 19q1 5 4.5 12.5 t3.5 11.5q31 8 56.5 3.5t56.5 -3t51 16.5q17 3 49.5 -7.5t51.5 -5.5q3 -3 7.5 -4t7.5 -1.5t9 1l8 2t9 3.5t8 3q15 -5 34.5 -4.5t36.5 3t29.5 -7t13.5 -34.5q-2 -3 -8 -17t-13 -20t-19 -6q-11 0 -35.5 -3t-45 -3t-36.5 6q-11 -3 -18 -21t-11 -22q-1 -5 -4.5 -15.5t-4 -15.5 t2.5 -16q6 -10 10 -22t7.5 -30.5t4.5 -23.5q-9 -15 -9 -39q0 -11 2 -23q6 -40 -11 -58q12 -19 13 -41t-3.5 -49t-3.5 -41t1.5 -56t2.5 -67q3 -6 21 -6q21 14 43.5 57t50.5 57q1 6 3 11t5.5 9.5t6 7.5t8.5 6.5t8 4.5t9 5l7 3q8 -3 11 1.5t3 11.5v8q19 44 52.5 86t70.5 61 q4 9 11.5 33.5t15.5 41t20 30.5q35 14 62.5 42.5t36.5 63.5q-17 -2 -53 17t-58 2q-16 -4 -16.5 3.5t4 19t-7.5 18.5q10 20 30 20q3 -9 7 -10t7.5 2.5t8 7.5t6.5 4q16 4 46 4q20 0 47 -2q44 -3 70 -3q13 0 21 1q11 10 33.5 6.5t36.5 1.5q11 -1 42 2.5t49.5 -2.5t29.5 -30 q13 -19 0 -39q-23 -25 -54 -27h-12q-27 0 -57 6q-38 6 -62 0q-3 -3 -15.5 -11.5t-18.5 -16.5t-9 -19q-7 -12 -24 -30.5t-27.5 -35.5t-9.5 -36q-5 -15 -20.5 -27t-30 -18t-26 -19.5t-11.5 -32.5q-5 -12 -32.5 -29t-26.5 -40q-4 -12 -17 -28.5t-21.5 -27.5t-11 -29t14.5 -32 q-2 -16 16 -42t19 -42q17 -22 46 -68.5t44 -66.5q-5 -5 -1.5 -10.5t6 -8t9.5 -7.5t10 -7q39 -65 60 -123q11 -5 16 -14t5.5 -15t0.5 -20l7 -7l7.5 -7.5l7.5 -7.5t7 -8t6.5 -9t6 -9.5t4.5 -9.5t3.5 -10t2 -10.5t-0.5 -11.5q-4 -20 11 -39q8 -6 22.5 -7t20.5 -11q19 -6 51 5 t47 -1q33 0 51 -33h-2q0 -2 -0.5 -11.5t-1 -12.5t-2.5 -11t-4.5 -11.5t-7 -8t-11.5 -6.5q-18 -1 -78 -7q-46 -5 -79 -5h-19q-38 2 -77 16q-32 -14 -76 -14t-70 30q-7 28 1 50.5t36 23.5q8 6 52 1t54 -5q6 5 5.5 11t-3.5 10t-8.5 10.5t-7.5 9.5q-11 13 -26 45.5t-29 44.5 q-2 17 -23 40.5t-18 47.5q-4 5 -13 9.5t-13.5 10t-2.5 15.5q-2 22 -13.5 45.5t-29.5 34.5q13 25 1 33t-29 22.5t-13 32.5q-9 9 -16.5 36t-16.5 37q-1 1 -6.5 -1t-5.5 3q7 7 5.5 8t-5.5 -1.5t-8.5 -1t-3.5 9.5q-21 -3 -43 -31.5t-33 -34.5q-2 -7 -19 -23t-14 -30 q-3 -4 -12 -16.5t-12.5 -18t-9 -16t-8 -20t-3.5 -19.5q-24 -9 -45 -33q-1 -14 4.5 -36t5.5 -39.5t-12 -32.5q10 -21 3.5 -61t0.5 -60q-13 -23 4 -36.5t41 -2.5q1 10 14 9t19 3q10 -19 40 -10t42 2q5 -4 24.5 -14.5t27 -22t1.5 -29.5q-28 -43 -102 -43q-41 0 -96 13 q-9 2 -20 2q-30 0 -77 -14q-39 -12 -69 -12q-19 0 -33 5q-9 6 -32 10t-38.5 12.5t-17.5 30.5zM486 642q-1 -4 3 -7q3 -2 9 4q3 6 -2 7q-7 1 -10 -4z" />
<glyph unicode="L" d="M23 74q13 36 45 48q25 10 52 11q6 0 13 -1q23 -2 49 -2h28q42 2 69 17q3 1 12 -5t15.5 -8t15.5 7q0 9 -9.5 20t-13 15.5t7.5 11.5q1 -1 5.5 -7.5t7 -6.5h12.5q10 5 12 11.5t-1.5 12.5t-7.5 14.5t-3 14.5q-20 16 -8 48t-5 49q7 14 -0.5 43.5t9.5 40.5q4 53 6 116 q1 38 0 71v41v53.5v60.5q8 6 1.5 27t-5.5 32q-17 24 -13.5 39.5t10.5 41t1 42.5q9 16 4.5 53t-0.5 53q7 22 4 43t-21 35q-6 -3 -9 0.5t-5 10t-6 8.5q-9 -2 -15.5 0t-13.5 0.5t-12 -9.5h-6q-22 0 -58 -6q-38 -7 -69 -7q-2 1 -4 1q-32 0 -60 16q-17 0 -32 23q-7 20 6 53 q9 13 39.5 16.5t40.5 8.5h9q32 -1 104 -11q38 -6 65 -5q32 0 49 8q39 -14 64 -14h6q26 2 71 7q24 3 44 3q16 0 28 -2q13 -4 32 -4q23 -1 54 5q37 7 62 7q14 0 24 -2q3 -1 11 -3t12 -4t9.5 -4.5t9 -6.5t5.5 -9q-3 -9 2 -29t-2 -26q-13 -1 -32.5 -8.5t-34 -13.5t-33.5 -6 t-35 11q-8 1 -24 -4t-25.5 -6t-22.5 10q-7 -3 -14.5 -5t-13 -2.5t-15 1t-13.5 2t-15 3.5t-13 3q-5 3 -10.5 14t-13.5 11q-29 -38 -29 -85q0 -27 10 -58q-4 -10 -4 -26q0 -18 6 -44q5 -22 4 -40q0 -20 -6 -32q5 -13 2.5 -42.5t5.5 -39.5q-7 -16 -9 -30.5t-1 -35t0 -30.5 q13 -7 13.5 -19t-3.5 -27.5t-2 -23.5q-13 -7 -8.5 -26.5t-3.5 -28.5q-3 -8 5 -15.5t7 -12.5q4 -11 4 -30t-4 -43q-3 -23 -2 -40q0 -22 4 -35q-20 -20 -12 -55q17 -10 15.5 -32t1.5 -38q-19 -16 -19 -41q4 -8 17.5 -12.5t18 -7.5t-2.5 -21q8 -26 53 -35q6 2 10 -4l4 -6 q18 -7 44 -7q20 0 45 4t44 4q25 0 42 -7q30 5 52 5q11 0 19 -1h6q22 -1 67 5q32 4 55 5q14 0 26 -2q17 29 17 84q0 22 -3 47q11 11 13 23t-1.5 22.5t-7 26t-0.5 29.5q19 19 20 59v12q0 33 -4 62q-6 34 12 60.5t68 27.5q15 -7 21 -10.5t15 -12.5t12 -20h-2q-21 -140 -27 -281 q-1 -16 -11 -76q-8 -50 -8 -82v-12q-9 -6 -12.5 -18.5t-4.5 -23.5t-8.5 -19.5t-23.5 -7.5q-13 -2 -38.5 -3.5t-46.5 -5t-40 -10.5q-24 10 -68.5 10.5t-62.5 4.5q-11 -2 -26 -2q-25 0 -61 6t-61 6q-16 0 -28 -2q-16 -6 -50 -1.5t-50 -4.5q-12 -1 -26 -1q-21 0 -47 2 q-43 3 -80 3t-70 -10q-27 10 -57 10t-66 -3t-62 -1q-13 1 -17 9.5t-6.5 19.5t-8.5 16z" />
<glyph unicode="M" d="M47 86q3 13 10.5 22t23 14.5t23 7l27.5 5.5q1 7 14.5 29.5t8.5 38.5q-1 14 3 49t1 55q1 20 1 50q0 45 -2 110.5t-2 112.5q0 31 1 53q1 6 -4.5 17t-5 18t13.5 10q0 17 -3 50.5t-2.5 61t7.5 52.5q4 14 4 47q0 21 -2 53q-3 52 -3 82q0 15 1 25q-4 8 0.5 23t4 27t-14.5 17 q-12 -2 -24 -2q-29 0 -54 14q-2 7 -10 19t-10 18t3 21q21 27 41 27q9 0 17 -5q12 -8 19.5 -6t19.5 7.5t20 4.5q25 -9 46 -9q10 0 20 2q24 5 51 5h13q36 -2 58 -22q44 -39 44 -108v-9q21 -13 27 -39t9.5 -55t18.5 -45q-10 -21 4.5 -51t11.5 -47q-1 -8 -1 -16q0 -30 14 -62 q18 -40 37 -78q14 -30 14 -59q0 -10 -2 -19q5 -13 25 -15.5t24 -6.5q14 15 9 46.5t15 43.5q-3 12 12.5 22.5t10.5 22.5q-9 6 -5 29.5t1 33.5q6 11 20.5 25t24 23.5t16.5 26.5t-2 34q3 2 3.5 4.5t-0.5 6t-1 5.5q-2 1 -8 4.5t-8.5 5t-4 6.5t4.5 9q12 5 17 16.5t6 23t8.5 23.5 t21.5 17q3 8 4 15.5t-1 15.5l-3 12t-5 13t-5 11q4 7 11.5 5t15 0t6.5 14q-16 19 4.5 51t21.5 41q16 25 46 25q11 0 24 -3q6 -1 20 -15.5t31 -8.5q8 8 12 14q13 0 43 2t47.5 1.5t39 -10.5t34.5 -32q-5 -19 -27.5 -30.5t-42.5 -16.5t-32.5 -22t2.5 -48q6 -15 -7.5 -37.5 t-9.5 -37.5q-6 -4 -6 -8.5t3 -11.5t3 -11q17 -9 7 -29q-14 -14 -6 -36.5t16 -39t-14 -38.5q2 -5 -3 -31q-5 0 -7 -6t3 -11q9 -6 14.5 -15t7 -15t3 -20t2.5 -17q-20 -11 -20 -28t6.5 -38.5t1.5 -33.5q12 -7 2 -33q-7 -7 -6.5 -21.5t-3.5 -21.5q2 -7 6 -16t6.5 -14t1.5 -12.5 t-8 -15.5q0 -4 2.5 -14.5t2 -18.5t-6.5 -14q16 -20 4.5 -57t7.5 -53q2 -14 -1 -35t-3.5 -33t8.5 -33q5 -10 -0.5 -25.5t-5.5 -26.5t16 -17h7q52 0 85 -41v-2q3 -16 -7 -32t-25 -22q-15 4 -36 4q-31 0 -76 -9q-49 -10 -82 -10q-17 0 -30 3q-14 -7 -41 8q-23 9 -36 27 q-2 7 1.5 24.5t2.5 24.5q13 21 36.5 25.5t44.5 1t44 8.5q4 13 -1 39t3 37q-7 5 -9 12t0 18.5t2 14.5q4 20 1 37t-1.5 39t13.5 38q-9 11 -9 33q0 13 3 31q9 46 -13 57q6 4 11 10.5t9.5 15.5l6.5 13q-14 14 -14 34q0 13 6 28q-6 10 -1 60.5t5 57.5q-1 1 -8 6t-6 11 q10 5 10.5 15t-2 22.5t-0.5 19.5q-3 20 -3 36q0 32 11 46q-8 19 0.5 46t12.5 44t-19 43q4 22 4 44q0 39 -12 77q-25 8 -35 0q-21 -16 -36 -57.5t-26 -55.5q-8 -27 13 -45q-12 5 -26.5 -3t-23.5 -21q7 -31 7 -56q0 -32 -11 -53q1 -7 0.5 -12t-5 -10t-6.5 -7t-9.5 -7.5 t-9.5 -6.5q-2 -9 1 -22.5t3.5 -20t-6.5 -16.5q-6 -34 -23.5 -95.5t-21.5 -76.5q4 -8 2.5 -11.5t-7 -9t-6.5 -8.5q-12 -14 -22.5 -49.5t-26.5 -48.5q-18 -4 -33 -4q-27 0 -41 14q-12 1 -20.5 7.5t-11.5 11t-8.5 19.5t-6.5 17q-8 10 -11.5 35t-12.5 33q-16 15 -19 55t-10 54 q1 5 1 10q0 24 -11 56q-13 40 -14 56q-17 6 -16.5 20t6 26t-8.5 24q-17 12 -17 44t-18 44q10 18 -13 44.5t-11 47.5q-4 7 -11 30.5t-17.5 35t-31.5 8.5q-2 -8 -15.5 -15.5t-12.5 -19.5q18 -13 20 -36.5t-2.5 -44t4.5 -42.5q-7 -5 -9 -14t-0.5 -16t5 -19t4.5 -16 q-1 -7 -7.5 -24t-6.5 -24.5t6 -23.5q16 -12 8 -40t0 -40q1 -8 1 -20q0 -31 -4 -91q-2 -28 -2 -49q0 -44 7 -63q-26 -31 -6 -51q5 -1 7.5 -3.5t2.5 -6.5t-1 -7.5t-3 -8t-2 -5.5q-8 -7 0.5 -28.5t-10.5 -28.5q-1 -13 7.5 -49.5t-1.5 -49.5q9 -51 9 -90q0 -22 -3 -41 q13 -18 40 -19.5t53.5 -4.5t37.5 -25q3 -6 3 -14.5t-1.5 -19.5t-1.5 -17q-20 -28 -47 -31q-4 3 -9.5 3.5t-14 -0.5t-11.5 -1q-20 -13 -43.5 -13.5t-43 6.5t-45 8t-48.5 -9q-5 0 -22 0.5t-24 1.5t-18.5 6.5t-19.5 16.5q-9 30 -2 57zM551 524l3 -3t4 -3t5 0q1 1 6 3.5t5 4.5 t-1 9q-6 5 -13 0.5t-9 -11.5zM574 558q2 -6 10 -9q9 -3 16 4l2 2q3 8 -5.5 12.5t-8.5 7.5q-9 -1 -12.5 -6t-1.5 -11zM899 1163q10 -4 12 -14t-0.5 -17.5t2 -12t19.5 2.5q-1 3 -2.5 9t-4 11t-7.5 9q-3 0 -5 1.5t-4.5 6.5t-2.5 6q-3 11 -7 -2z" />
<glyph unicode="N" d="M25 102q31 47 77 50q30 -8 52 -8q29 0 43 14q6 13 4 38.5t4 34.5q11 50 11 99.5t-11 97.5q1 13 4 42.5t4.5 47t-0.5 41.5t-8 43q7 19 5.5 58.5t6.5 58.5q0 6 -2 19.5t-2.5 20.5t1 17.5t5.5 18.5q1 14 -5.5 36.5t-8 35t9.5 32.5q-8 12 -11 29.5t-2.5 30.5t3 36t2.5 33 q8 36 8 86q-2 3 -8.5 7t-9.5 7q-2 -1 -6 -6.5t-6.5 -7t-6.5 5.5q-15 -3 -48.5 8t-49.5 5q-3 5 -10 14.5t-10.5 15.5t-6 16.5t3.5 18.5q12 16 31 23.5t32 8t41 -1t38 -1.5q14 2 35 -3t32.5 -6.5t32.5 7.5h16q59 0 86 -27q-4 -8 6 -17.5t16 -14.5t-7 -15q1 -12 9 -36.5 t9.5 -36.5t-6.5 -36q7 -10 25.5 -17t25.5 -17q19 -14 22.5 -40.5t9 -48t30.5 -30.5q-1 1 -6 -4q1 -8 9 -21t9.5 -20t-10.5 -23q4 -6 17.5 -9.5t18 -6.5t-0.5 -19q-5 -10 5.5 -25.5t8.5 -23.5q5 -8 25 -32t26 -42t0 -40q6 -6 13 -31.5t22 -32.5q6 -9 13 -40t18 -42 q27 -10 35 -51.5t22 -52.5q3 -13 3 -34t3 -34q3 -3 3 -14t3.5 -18t16.5 -5q-4 9 1.5 24.5t7.5 26t-13 25.5q-3 22 16 25q6 17 6 46q0 13 -1 27.5t-1 27.5q0 29 6 48q-12 5 -13 14.5t2.5 21t2.5 17.5q-1 5 0.5 20t0 27t-8.5 19q0 21 11 77q7 36 7 61q0 14 -2 24q11 8 2 29.5 t6 31.5q0 20 -6.5 51.5t-8.5 48t7 44.5q-6 21 -3 39t0 39.5t-17 35.5q-3 5 -7 8t-10 3h-10t-11 -1.5t-9 -1.5q-3 -8 -11.5 -11t-15 -2.5t-18.5 3t-15 2.5q-16 12 -53.5 8t-50.5 17q-6 10 4.5 16t11.5 10q0 3 -0.5 12.5t-0.5 14.5t2 11.5t7 9.5t13 2q19 -2 51 2t57.5 2 t46.5 -17q16 9 54 5.5t51 13.5q44 -4 83 -4q28 0 52 2q26 -3 41.5 -20t9.5 -44l-2 2q3 -23 -25 -41q-15 -9 -37.5 -8.5t-44.5 5.5t-37.5 -4t-15.5 -38q0 -17 -0.5 -54t-0.5 -55t3 -46t9 -52q0 -11 -8.5 -39t-3.5 -45q7 -14 6 -72q0 -20 -1 -44q-2 -73 -2 -104v-17 q-3 -11 -3 -42t-3 -44q3 -36 3 -66q0 -45 -7 -76q-3 -16 7 -58.5t-3 -59.5q3 -15 3 -59v-15q0 -3 -1 -5q0 -51 10 -65q0 -24 -8 -30q-40 -31 -88 -31q-17 6 -26 21t-15 37.5t-12 33.5q-8 4 -14 10.5t-12.5 18t-8.5 14.5q9 18 -1.5 47.5t-6.5 44.5q-17 56 -43 72 q-7 12 -19 47.5t-26 52.5q-4 50 -25 66q-13 9 -19 40t-30 40q9 10 1.5 31.5t2.5 33.5q1 11 -8 19t-19.5 12.5t-16.5 15t1 25.5q-1 5 -6.5 15.5t-6.5 15.5t7 14q-4 29 -24 29q-11 4 -15.5 24.5t-17.5 24.5q-1 3 -12 47.5t-29 62.5q3 10 -3.5 19t-14 14t-9 14t11.5 19 q8 3 7.5 12t-9.5 10q-6 2 -15.5 3t-13.5 1.5t-7.5 6.5t2.5 18q-15 9 -18 32.5t-9.5 40.5t-30.5 17q-16 -12 -18 -27t4 -28.5t8.5 -29.5t-4.5 -29q4 -22 4 -40q0 -27 -9 -42q-6 -14 4.5 -41.5t2.5 -42.5q10 -4 11 -11.5t-1.5 -17t-1.5 -14.5q7 -21 2 -39t-4 -38.5t15 -33.5 q-3 -15 -16 -45t-12 -49q27 -19 28 -39q-12 -9 -11 -23.5t6 -27t-4 -25.5q3 -9 5 -18t2 -20.5v-17.5t-2 -19.5t-2.5 -17t-3.5 -20.5t-3 -18q-3 -16 -3 -38q0 -26 4 -58q4 -35 3 -59q0 -19 -2 -31q3 -20 19 -25.5t40.5 -5.5t35.5 -6q3 -3 6.5 -3.5t10 0.5t9.5 1q17 13 40 13 q11 0 24 -3q3 -4 19.5 -11.5t16.5 -21.5q0 -20 -25 -41t-30 -32q-12 -9 -30 -9.5t-41.5 3t-32.5 3.5q-11 -4 -28 -4t-39 4q-30 5 -48 4q-10 0 -16 -1q-23 -13 -53.5 -13t-55.5 13q-7 2 -27.5 -6t-31.5 -1q-25 12 -38 35.5t-11 50.5z" />
<glyph unicode="O" d="M84 641q2 9 6.5 79t24.5 99q-2 5 0.5 12t7.5 15.5t6 13.5q5 14 10 41t12 47.5t21 36.5q1 11 24 33.5t13 44.5q1 10 11.5 17.5t21.5 9.5q15 12 40.5 41t49 46t51.5 19q36 4 102 23t80 22q17 -20 50 -15.5t51 -6.5q54 -6 72 -20q10 -7 16 -19q60 -4 75 -39q-3 -15 6.5 -26 t24 -21.5t19.5 -20.5q3 -2 3 -11.5t3 -16t14 -3.5q8 0 19 -10.5t12 -19.5q1 -19 22.5 -50.5t18.5 -56.5q6 -5 5.5 -20.5t2.5 -22.5q59 -89 59 -214q0 -64 -16 -138h-2q-21 -7 -23 -22t4 -35.5t3 -30.5q7 -22 4 -33.5t-13 -31.5t-12 -31q-21 -19 -40.5 -68t-41.5 -68 q8 -5 8 -16q-17 -1 -32 -13t-21 -28q9 -9 5.5 -20t-8 -16.5t-14 -14t-12.5 -12.5q-16 4 -29.5 -4.5t-21.5 -20t-21.5 -18.5t-29.5 0q-5 -6 -16 -9t-18.5 -7.5t-6.5 -16.5q-11 -7 -16.5 -7t-17 7t-15.5 8q-6 -1 -19.5 0.5t-22.5 -0.5t-13 -12q-9 0 -27.5 -1t-29 -0.5t-25 2.5 t-26 8t-21.5 17q-8 1 -26.5 -3.5t-31.5 -1.5t-18 20q-10 -2 -18 2t-16.5 12t-12.5 10q-3 4 -8.5 13.5t-11 16.5t-13.5 11q-7 -4 -14 -4.5t-12 1.5t-10.5 7t-9 9t-8.5 10.5t-8 9.5q-3 16 -25 38t-18 44q-4 8 -17 36.5t-18.5 40.5t-15 34.5t-15 42t-9.5 38.5q-7 35 -25 95 q6 15 6 34t-6 42q-8 32 -8 51q0 9 2 16zM195 608q6 -6 11 -8q-1 -16 0 -36t2.5 -44.5t2.5 -38.5q15 -6 19.5 -34.5t23.5 -32.5q1 -8 -1.5 -19.5t-1.5 -19t11 -13.5q-5 -23 2 -39t29 -37t29 -30q3 -26 21 -49t43 -47t36 -41q4 1 23 1t26 3q5 -1 17 -2t18 -2t15 -3.5 t15.5 -7.5t12.5 -12q16 -7 32 -7q21 0 44 11q10 10 39.5 20t40.5 27q23 -7 53.5 13t36.5 22q7 8 8 24.5t4 20.5q20 -3 26 5t3.5 20.5t1 24t18.5 12.5q21 4 27.5 20.5t3 35t0.5 34.5q1 3 21 33t12 53q14 41 14 87q0 24 -4 48q-5 7 0 29t-10 28q-11 22 6 39q-12 10 -12.5 21.5 t5.5 21t7 22t-8 23.5q-23 10 -18 27.5t2 39.5t-30 30q5 23 -22.5 48.5t-20.5 49.5q-4 10 -18.5 21.5t-25 19t-16.5 20.5t7 27q-9 12 -53 12q-7 0 -17 10t-18 9q-12 23 -52.5 29.5t-49.5 11.5q-28 -10 -52.5 -7t-52.5 -2t-45 -26q-5 -1 -15 -1t-16 -1t-8 -4q0 -19 -20 -39 q-7 -6 -21 -1.5t-18 -4.5q6 -19 -8 -32.5t-27.5 -26.5t-7.5 -31q-18 -14 -24.5 -51.5t-22.5 -51.5q-15 -11 -16 -47.5t-19 -46.5q1 -4 5.5 -11t5.5 -10t-1 -12q-18 -8 -24 -23.5t-2.5 -32t4 -35.5t-5.5 -34z" />
<glyph unicode="P" d="M39 84q33 42 115 61q22 -6 47.5 -6t56.5 3t47 3q10 6 6 17q-8 10 -6.5 31t-1.5 26q8 17 -4 29q-7 -3 -7 6q-1 8 3 12q13 14 16.5 30t0.5 43t-3 34q6 33 2 58t-2 55t17 51q-18 32 -18 74q0 30 9 65v15q0 46 -9 133q-7 66 -7 111q0 24 2 42q-8 6 -7.5 20t-2.5 23 q9 5 12.5 14t3.5 26v19q-6 5 -9 21t-13 20q-20 10 -58.5 5.5t-56.5 4.5q-20 -6 -57.5 4.5t-59.5 2.5q5 14 -9 24.5t-3 26.5q10 15 24 21.5t37.5 9t30.5 4.5q14 -7 37 -7q18 0 40.5 4t41.5 4q24 0 39 -7q25 -10 29 -13q11 1 42.5 9.5t52.5 7.5t36 -19q53 14 99 14 q39 0 73 -10q4 1 15.5 5t17 6t15.5 3.5t16.5 0.5t15 -4.5t14.5 -10.5q13 2 33 17q26 -2 53.5 -8.5t61.5 -17.5t51 -15q5 -19 12 -19q22 6 33 -20q-1 -8 9 -15t11 -8q34 -53 57 -69q17 -29 27 -86t16 -74q0 -21 -4.5 -57t-3.5 -58q-4 -14 -31 -46.5t-24 -57.5q1 1 -1 1 q-9 0 -20 -7q-41 -63 -98 -74q-11 -24 -32.5 -29t-47.5 -6.5t-41 -15.5q-9 1 -31 -0.5t-39 1t-28 13.5q-8 2 -18.5 -4.5t-14.5 -7.5q-24 -7 -56.5 1t-52 13t-51.5 -14q-10 5 -22 5q-22 0 -49 -16q-13 -18 -2 -56t6 -54q11 -21 8 -43q-11 -6 -16 -15t2 -22q4 -4 8.5 -17 t9.5 -18q-16 -10 -20 -35l8.5 -8.5t8.5 -9.5t5 -10.5t-2 -12.5q-12 -14 -4 -39.5t-4 -39.5q10 -13 28 -16.5t31 1.5q55 6 121 6q15 -11 58.5 -8t52.5 -18q3 -5 4.5 -10.5t2.5 -9.5t0 -11.5t-1 -9.5t-2 -12t-2 -11q-2 -2 -4.5 -6.5t-4.5 -8t-6 -7t-8 -4.5q-18 2 -55.5 -9 t-58.5 -6q-73 19 -122 19q-32 0 -54 -8q-11 4 -29 4q-17 1 -40 -3q-22 -3 -38 -3q-20 0 -31 4h-6q-21 1 -63 -5q-31 -4 -57 -5q-14 -1 -26 1q-35 4 -63 25q-6 7 -9 23t-5 20zM392.5 1009q2.5 -6 13.5 -8q-1 -12 2.5 -34.5t1.5 -36.5q12 -10 7 -33.5t5 -30.5 q-5 -14 -8.5 -61.5t-14.5 -67.5q1 -5 2 -17.5t1.5 -19t3 -17t5.5 -17t9 -13.5t14 -12q9 -3 13.5 -2t13.5 4t14 4q15 12 44.5 1.5t41.5 4.5q77 0 94 2q5 -1 16.5 -8t20.5 -4q22 17 73.5 21t65.5 8q7 15 34 24t34 19q27 8 41 30.5t23.5 55t19.5 47.5q5 10 1 14t-10.5 3 t-10.5 2t0 12q12 27 4 51q3 4 18 12h-2q3 20 -6.5 35t-23 23t-27.5 21t-17 28q2 16 -19.5 28.5t-23.5 26.5q-4 -2 -7 -3t-6.5 0t-5.5 2t-4.5 3.5l-4 4t-4 5t-3.5 4.5q-14 5 -19 4t-16.5 -7t-19.5 -7q-10 6 -21 8.5t-18 2.5t-20 -0.5t-19 -0.5l-8 8q-19 3 -54 3 q-6 0 -12.5 -0.5t-12.5 -0.5q-35 0 -52 3q-21 10 -60.5 3t-62.5 3q-2 -1 -9 -3t-10 -3t-7.5 -4.5t-6.5 -8.5q-7 -33 9 -35q5 -25 -15 -36q3 -5 1.5 -12.5t-5 -14.5t-1 -13z" />
<glyph unicode="Q" d="M49 604q0 14 16 33.5t13 36.5q-26 19 -17 49q7 3 11 18t10 19q0 3 -0.5 14.5t-0.5 18.5t2.5 16.5t8.5 15.5q-14 19 5.5 44t0.5 44q36 36 52 62q7 9 12 53q6 13 33 29t32 35q9 25 30 39t56 25.5t47 17.5q21 40 55 40h5q4 -14 33 -14q4 3 10.5 23t23.5 20q18 -14 53.5 -8.5 t55.5 -5.5q14 2 27 2q44 0 69 -27q10 -3 29 -5.5t34 -7.5t25 -17q3 -3 7.5 -11.5t7.5 -11.5q18 2 31 -16.5t20 -22.5q-3 -13 14 -17.5t12 -19.5q8 -7 21 -32t27 -31q20 -21 35.5 -68.5t29.5 -66.5q3 -44 27 -84q-4 -13 -4 -25q0 -25 16 -45q1 -14 1 -34q0 -60 -7 -175 q0 -5 -6.5 -15t-5.5 -18q8 -3 8.5 -8t-3.5 -9.5t-9.5 -10t-6.5 -9.5q-1 -11 -2 -36.5t-2.5 -40t-11 -33.5t-27.5 -33q-3 -35 -38 -87.5t-42 -72.5q-6 -16 -33 -27.5t-30 -29.5q-3 -2 -13 -9t-15.5 -11t-11.5 -12t-7 -17q2 -4 9 -14t8 -14t-3 -15q10 -18 11 -55t6 -52 q13 -11 25 -39.5t27 -42.5t44 -4q13 -13 51 -4q7 6 17.5 17t18 18.5t18.5 15.5t21 11.5t23 3t27 -7.5q23 -28 23 -61q0 -30 -19 -64h-2q-16 -20 -52.5 -38.5t-47.5 -27.5q-7 1 -24 4.5t-27.5 5.5t-24.5 -0.5t-23 -11.5q-12 -7 -20 5.5t-19 10.5q-18 13 -79 54 q-14 -4 -18 3.5t-2.5 18t-2.5 17.5q-20 29 -36.5 85t-22.5 70q0 8 -0.5 20t-1 23t-5.5 21t-14 14q-13 -7 -22 8q-2 4 -3 17t-8 18q-10 0 -24 -18q-3 -10 -11.5 -14t-22 -4t-17.5 -1q-15 -11 -39 -8.5t-41.5 8.5t-43 14.5t-42.5 10.5q-4 19 -19 23.5t-30.5 1.5t-27.5 5.5 t-11 34.5q-51 13 -62 31q2 22 -10 37t-27.5 22.5t-26.5 22.5t-7 37q-16 14 -29 69q16 8 13 14t-13 8t-18.5 10t-4.5 20q-1 4 -21 34.5t-13 51.5q-2 4 3.5 11t12 13t10 12t-2 9.5t-23.5 3.5q-1 4 -7 22t-4.5 29t13.5 20q-6 2 -9.5 6.5t-5.5 12t-4 10.5zM171.5 798.5 q-4.5 -15.5 8.5 -32.5q16 -10 17.5 -24.5t-5.5 -28.5t-10.5 -31.5t2.5 -34.5q19 -10 5 -34.5t-5 -37.5q17 -8 13.5 -18.5t-12.5 -18.5t3 -22q-15 -12 -2 -28.5t7 -28.5q14 -10 13.5 -38t16.5 -38q15 -11 15 -42t8 -42q1 -21 13.5 -42t24 -32t36 -31t30.5 -26q10 4 16.5 4 t15.5 -6.5t14 -12t12.5 -14t11.5 -12.5q13 -15 47 -15h14q7 1 13 1q35 0 47 -17q17 0 69 -18q16 22 11.5 34t-14.5 32t-7 34q9 4 13 13t-3 20q-16 16 -26 16q-32 28 -64 31q-1 0 -6.5 5t-6.5 6t-7.5 6t-8 4.5t-8.5 3t-9.5 1.5t-10.5 -1q-12 11 -50 20.5t-53 28.5 q-2 9 0.5 17t7.5 18l7 14q30 35 51 29q73 -29 109 -31q9 -18 43.5 -23.5t44.5 -27.5q-3 -13 14 -26t18 -23q18 -4 27.5 -16t17 -34t11.5 -30q5 -1 15.5 -6.5t15.5 -6.5t14 7q-5 11 0 15t12.5 4t13 2t2.5 9q-7 -3 -13.5 1t-4.5 9q5 9 15.5 13.5t25 8t20.5 5.5q28 36 28 91 q0 18 -3 38q7 8 19.5 -2.5t19.5 -5.5q4 16 5.5 46.5t4.5 45.5q13 7 16 33t7 33h2q-1 12 3 32t2.5 34t-13.5 26q5 15 -5.5 36t-3.5 31q5 22 -16 37q-6 2 -1 15.5t5 15.5q-1 8 0 21.5t1.5 22.5t-5 18t-19.5 12q9 19 -6.5 41.5t-13.5 38.5q-17 7 -29 20t-29 40.5t-20 31.5 q-26 8 -43 41q-8 26 -28 36.5t-47.5 15.5t-41.5 15q-16 -5 -31.5 12t-29.5 13q-6 -9 -28.5 -12t-30.5 -13q-12 -5 -28 -0.5t-22 17.5q-19 1 -34 -10.5t-23.5 -26.5t-23.5 -29t-33 -16q-5 -13 -18.5 -33t-18.5 -31q-17 -1 -29.5 -25.5t-21.5 -29.5q-1 -4 -4 -14.5t-2.5 -14 t4.5 -12.5q-3 -7 -15.5 -6t-15.5 -6q5 -17 -3.5 -33.5t-20 -26t-16 -25z" />
<glyph unicode="R" d="M46 70.5q-2 19.5 2 32t20 20.5q13 -2 31 4t27 7t28 -11q7 2 24 4.5t28.5 7t16.5 15.5q18 -4 29 10q-1 3 -2.5 10t-2 10t-1 9t1 9.5t4 8t6.5 8.5q-10 15 -6 56t0 55q1 28 4 79.5t4 81.5q-9 2 -10 6t2.5 8t6.5 9.5t1 9.5q-4 15 -1.5 54t-6.5 53q3 -3 8 1t6 3q-1 7 -5 20 t-4.5 19.5t3.5 21.5q3 23 -10 49q2 0 7.5 -2t9.5 -1.5t7 5.5q-1 6 1.5 10.5t5.5 4.5q2 9 -9 23.5t-8 27.5q9 14 -6.5 25t0.5 24q10 15 12 32t-0.5 41.5t-1.5 37.5q-1 2 -4 4t-5 3t-3.5 2.5t0.5 3.5t8 5q-2 14 1 36t1.5 40.5t-14.5 34.5q14 10 -2 32q-12 3 -39 -8t-45 -2 q-11 -2 -22 -2q-48 0 -85 33q-6 29 11 53q9 10 22 14.5t22.5 4t25.5 -2t24 -1.5q7 -4 15 -6t13.5 -2t16.5 0.5t18 0.5q29 -25 42 -19q4 2 7 5q11 6 25 8.5t23.5 2t27 -2.5t25.5 -2l1 7q1 -1 3 -5q7 0 20 -2.5t23.5 -2.5t19.5 5q21 -9 53 5t48 8q13 1 25 1q48 0 65 -20 q13 10 46.5 9.5t49.5 11.5q16 -5 55.5 -25.5t61.5 -21.5q4 -13 13.5 -22.5t28.5 -20t23 -13.5q-2 -10 4 -17t17 -13t14 -9q-1 -4 -1 -8q0 -21 17 -53q17 -34 17 -57v-7q1 -16 7.5 -47t7.5 -46t-9 -44q2 -14 -9.5 -41t-6.5 -45q-9 -16 -29 -30t-33.5 -28t-13.5 -34 q-78 -45 -133 -64q-10 -8 -7 -16.5t10 -13.5t16 -13.5t12 -15.5q34 -28 49 -71t23.5 -97t19.5 -80q-1 -2 -2.5 -11t-2.5 -13.5t-4 -10.5t-8 -9.5t-12 -4.5q20 -25 20 -48q0 -10 -4 -19q20 -14 64 -14h24q12 1 22 1q46 0 65 -16q9 3 14 -1.5t9 -12.5t7 -11q1 -6 3 -17t3 -20 t0 -18q-19 -19 -33 -30t-35.5 -18t-43.5 -1q-4 1 -51.5 3.5t-65.5 18.5q-17 -4 -30 3.5t-24.5 21.5t-19.5 18q-17 23 -25.5 81t-9.5 63q-6 10 6.5 28.5t-3.5 26.5q-6 10 -0.5 30.5t-8.5 26.5q13 40 9 62q-7 8 -18.5 35.5t-27.5 36.5q-12 12 -30.5 44t-32.5 46 q-20 9 -68 14.5t-69 17.5q-8 -5 -18 -3.5t-18 5t-15.5 0.5t-10.5 -16q-17 -6 -24.5 -8t-21.5 -1.5t-25 7.5q-17 6 -29 -10q1 -7 12.5 -26.5t9.5 -29.5q1 -4 -3 -11.5t-3.5 -12.5t11.5 -8q2 -10 -7 -22t-13.5 -19t9.5 -21q-3 -11 -3 -37t-3 -39q1 -4 4 -6.5t6 -3t8 -1.5t7 -1 q-1 -2 -8.5 -10.5t-11 -16t0.5 -14.5q23 -16 2 -37q10 -15 -0.5 -49.5t11.5 -43.5q11 -4 24 0t22 11t18.5 4t15.5 -20q8 1 30.5 4.5t33 3t34.5 -2.5q40 -29 40 -72q0 -6 -1 -11q0 -17 -8 -24t-25 -9.5t-25 -7.5q-32 6 -55.5 1.5t-52.5 -4t-51 13.5q-25 -8 -61 -10 q-21 -1 -39 -1q-14 0 -27.5 0.5t-27.5 0.5q-19 0 -40 -1q-10 2 -27 3t-31 4t-26 10q-11 -4 -23 5.5t-20 8.5q1 8 -1 27.5zM335.5 1004q0.5 -18 0.5 -23q6 -14 6 -30.5t-3 -38t-3 -33.5q20 -10 20 -25.5t-10 -34t-10 -26.5q18 -6 22.5 -17t-0.5 -22.5t-7.5 -25t1.5 -26.5 q-10 -28 5.5 -34.5t38 -0.5t34.5 -3q21 6 54 6q14 0 31 -2q18 -1 34 -1q32 0 53 5q16 7 47.5 -1t40.5 -7q14 1 35.5 12t32.5 14q10 16 37 23t36 18q42 60 64 182v-2q-2 31 -25 78q-1 6 -2.5 10t-5.5 8t-6.5 6t-9.5 6.5t-10 6.5q1 2 -4 7.5t-1 8.5q9 10 2.5 19t-18.5 4 q-6 10 -22 19.5t-21 15.5q-17 11 -41 16t-41.5 5.5t-46.5 0.5h-41q-1 0 -12 -2t-15 -2t-10 4t-8 13q-8 5 -39 0q-13 -10 -31 -11t-33.5 2.5t-35.5 -0.5q-10 -6 -33.5 -6.5t-32.5 -5.5q-1 -2 -3 -9.5t-2.5 -11t-2 -10t-1.5 -10t1 -9t3 -9.5t5 -8q-10 -6 -13.5 -15.5t-3 -27.5 z" />
<glyph unicode="S" d="M102 53q13 9 9 28.5t0 31.5q1 15 22 55q14 26 14 47q0 11 -4 21q21 -4 21 10q3 10 3 23q0 23 -9 55q-8 29 -8 51q0 15 4 26v115q11 15 30 15q15 0 35 -9q33 -31 33 -108q12 -13 12 -28t-7 -28.5t-2 -25.5t28 -17q-1 -24 22.5 -50.5t26.5 -37.5q13 -1 31 -21t32 -18 q9 -14 35.5 -31t34.5 -32q11 -14 24 -12q9 6 21.5 7t22.5 -1t24.5 -5.5t22.5 -3.5q11 -10 28 -13.5t31 3.5q11 10 31.5 7t31.5 3h15t18 0.5t15 4t12 10.5q-2 6 -2 11t1 8.5t4.5 8.5t6 7t7.5 7l7 7q55 4 82 31q13 19 22 58.5t17 55.5q-11 9 -9.5 15t6.5 17t3 18q2 14 2 28 q0 50 -30 82q-22 1 -43.5 26.5t-38.5 29.5q-19 -10 -42 1.5t-38.5 22t-40.5 -1.5q-24 17 -33 35q-24 -8 -46 -8q-16 0 -30 4q-14 21 -38 26t-46 1.5t-47 7.5q-16 22 -64 29.5t-63 15.5q-57 18 -106 57q-3 20 -34.5 53.5t-29.5 61.5q-11 13 -11 33q0 17 8 39q10 27 9 46 q0 15 -6 25q4 18 21.5 58.5t19.5 64.5q12 10 48.5 27.5t50.5 37.5q10 1 38 16t48 5q7 21 20.5 25t27.5 -2.5t29.5 -8t26.5 7.5q31 8 61 -4q3 1 10 6t13.5 8t13.5 1q14 -18 31 -13q15 -14 54 -22t55 -25q34 15 45 6q-2 -12 1.5 -19.5t14.5 -6.5q3 -7 16 -12.5t17 -12.5 q18 -10 45 8q0 1 4.5 10.5t7 14t9.5 10.5t16 8q7 17 24.5 26t36.5 7q4 -2 4 -8v-8q-14 -16 -14 -64q1 -4 8.5 -8t5.5 -12q-10 -12 -10 -35q0 -15 4 -33q2 -12 2 -21q0 -30 -22 -40q16 -16 16 -39q0 -12 -4 -25q-3 -2 -3.5 -4.5t0.5 -5.5t1 -4q11 -9 13.5 -23.5t0 -27.5 t0.5 -29q-6 -8 -15.5 -9t-24.5 3t-17 4q-2 8 -12 16.5t-17.5 13.5t-10 15.5t8.5 22.5q15 11 8 24q-3 2 -14.5 6t-16 9.5t-4.5 15.5q-1 15 -11.5 40.5t-12.5 39.5q-1 7 -6 8.5t-10 0.5t-9.5 1t-3.5 10q-10 13 -22 13q-5 3 -12.5 9.5t-13 10.5t-12.5 8.5t-13 6.5t-12.5 2 t-12.5 -3q-14 -7 -27 0t-20 17t-17.5 13.5t-19.5 -9.5q-6 -1 -14 -3t-13 -3t-11 0.5t-11 7.5q-12 -1 -25 4.5t-21.5 11t-20.5 4t-23 -13.5h-76q-9 -5 -20.5 -16t-22 -18t-25.5 -7q-68 -56 -73 -117q6 -17 6 -54.5t16 -53.5v-5t-0.5 -5.5t0 -5.5t1 -5t2.5 -4.5t5 -3.5 q9 -3 37.5 -18.5t46.5 -18.5q1 -5 3 -9t7.5 -7t8.5 -4.5t10.5 -4t9.5 -3.5q12 6 27 -4.5t24 -17.5t23 7q6 -1 13 -4.5t11 -6.5t11 -10t10 -9q26 13 50 7t39.5 -20t39.5 -20t49 8q18 10 45.5 -14.5t46.5 -12.5q6 -3 22.5 -12.5t28.5 -14t25 -5.5q15 3 34 -11.5t26 -15.5 q1 -9 6.5 -16.5t9.5 -10t14 -8.5q8 4 16.5 -4.5t8.5 -17.5q27 -41 39 -56q1 -7 5.5 -37t3.5 -36.5t-3 -36.5h-2q5 -28 5 -58q0 -65 -24 -135q-15 -10 -29 -46t-40 -44q-69 -26 -107 -59q-19 -6 -39.5 -3.5t-42 -3t-30.5 -22.5q-7 -14 -29.5 -12t-30.5 -12q-17 -2 -44 17 t-48 15q-11 13 -43 7t-47 -1q-47 0 -64 41q-10 11 -39.5 12t-39.5 15q-12 19 -18 27.5t-20.5 18.5t-29.5 9q-10 2 -9 15t2 17.5t-16 -5.5q1 -13 -16 -30.5t-12 -35.5q-16 -12 -9 -37.5t-3 -41.5q-11 1 -28.5 -7t-29.5 -6q-3 3 -12 10.5t-14.5 15t-6.5 17.5z" />
<glyph unicode="T" d="M94 721q11 48 18.5 141.5t12.5 128.5q2 12 2 28q0 21 -3 49q-2 23 -2 43q0 24 3 45q6 38 35 65q11 5 34 5q14 0 33 -2q27 -3 46 -3q15 0 26 2q23 -1 61 -2q44 1 110 3q45 1 80 1q60 0 91 -4q12 -11 40 -11q16 0 38 4q40 18 88 21q16 -8 41 -4t40 6.5t36 -16.5 q2 -1 22.5 -5t28.5 -12q9 -13 6 -31t-0.5 -32t18.5 -11q-2 -12 1 -30t2.5 -34t-10.5 -30q2 -8 -3.5 -25.5t0.5 -25.5q33 -38 33 -87q0 -12 -2 -24q10 -6 10 -18t-3 -27t-1 -22v-2q-6 -21 -0.5 -46t15.5 -46t4.5 -43.5t-33.5 -38.5q-9 -2 -23.5 -17.5t-23.5 -11.5 q-4 12 -17 28t-22.5 26.5t-14.5 28t7 32.5q3 18 1 32t0.5 29.5t12.5 26.5q0 34 -21 47q-13 -3 -22 10q3 4 13 9.5t15 13t1 18.5q-15 9 -13.5 34t-9.5 38q-5 10 0 21t13.5 20.5t6 16.5t-23.5 9q-1 13 -0.5 27t1 25.5t-5.5 22.5t-20 18q-8 -4 -16 -6.5t-18.5 -3.5t-15 -1h-18 h-16.5q-7 0 -28 6t-34.5 3t-19.5 -21q-9 -2 -12 1.5t-1.5 9t-0.5 11.5t-10 7q-6 -4 -20 -9t-23 -11.5t-12 -18.5q-2 -11 -11 -26l-15 -25t-7.5 -25.5t10.5 -26.5q-5 -9 -2 -21.5t12 -19.5q3 1 3.5 -1t0 -4.5t0.5 -4.5q-7 -16 -7 -47.5t-1 -38.5q17 -19 5.5 -59.5t8.5 -59.5 q2 -6 -6 -18v-35v-32v-22q0 -22 -1 -46q-2 -38 -7 -66q13 -25 13 -69q-1 -25 -5 -57q-4 -28 -3 -51q0 -48 16 -73q-9 -4 -9.5 -11.5t3.5 -19t4 -16.5q-3 -5 -3.5 -11.5t0.5 -16t1 -13.5q14 -16 46.5 -25.5t43.5 -17.5q17 1 28 0t24 0.5t25 6.5h21q82 0 117 -29q6 2 10 -4 l4 -6q-12 -40 -12 -82q-6 -9 -31 -11t-33 -18q-16 18 -39.5 15.5t-41 -9.5t-38.5 10q-13 10 -45.5 5.5t-40.5 7.5q-15 3 -33 -6t-29 -13.5t-32 8.5q-26 -4 -73 -4h-30q-14 0 -27 1q-50 0 -75 -5q-19 3 -53 3t-61.5 4t-50.5 16q-12 9 -5.5 43t3.5 45q9 16 28.5 20t37.5 1 t36 1h10q32 0 86 -5q63 -6 88 -7q25 9 31.5 26.5t-0.5 36t-9 39.5t7 37q1 16 1 39q0 57 -4 155q-2 53 -2 93q0 65 5 98q-10 24 -2 37q3 3 2 4.5t-5 5t-5 5.5q-6 17 0.5 39t10 35t-10.5 34q-1 8 6 20.5t13.5 21.5t6 20t-13.5 20q12 27 12 46q0 14 -6 24q-1 13 3.5 33t6 32 t-5.5 35q-3 30 -28 59q-4 -1 -24 -3.5t-27 -3t-24 -2t-27.5 -1t-24 2.5t-25.5 5q-11 -14 -35 -2.5t-35 6.5q-11 6 -24 -0.5t-19 -21.5q4 -14 -3.5 -35.5t-10 -33t13.5 -31.5q-26 -111 -26 -160q11 -8 16 -22.5t0 -30.5l-5 -5t-5 -4.5t-4 -4.5t-2.5 -5t-0.5 -5.5t3 -6.5 q12 -6 14 -26t12 -27q-2 -13 -23.5 -6.5t-27.5 -10.5q25 -35 10 -55q-10 -2 -26 -13t-23 -14q-31 13 -39 27q-5 13 2 43t-8 41z" />
<glyph unicode="U" d="M60 1180.5q-2 6.5 1 9.5q23 19 54 24t58 0t59 -6t57 6q16 10 39 10q13 0 28 -3q17 -3 32 -3q22 0 38 7q20 -5 34 -19.5t17 -36.5q-1 -3 -2.5 -13t-3 -14.5t-5 -11t-9.5 -10.5q-9 0 -30.5 0.5t-34.5 -0.5t-30.5 -4.5t-30 -13t-20.5 -25.5v-21q0 -51 3 -132q4 -99 5 -115 q-10 -18 -4.5 -54t-1.5 -57q8 -17 2.5 -43t-8.5 -41t17 -36q-1 -13 -8 -39t-8 -38.5t9 -37.5v-6q0 -25 -7 -62q-8 -41 -10 -65v-7q0 -23 11 -61q5 -8 10.5 -24.5t12.5 -27t22 -13.5q9 -21 28 -37.5t46.5 -33.5t40.5 -28h13q21 0 65 -2q13 -1 25 0q45 0 76 8q39 10 67 41 q63 50 90 117q-7 13 -7 33q0 17 5 39t5 39q0 21 -7 35q2 12 -1 28.5t-3 30.5t10 27q-1 9 -1 21q0 31 4 86q2 26 2 45q0 40 -7 56q1 5 6 14t8 15.5t2 14.5t-10 14q-3 33 -3 74q0 85 13 202q-20 20 -12 39q3 5 9 15.5t9 15.5q-15 7 -45 7t-45 7q-19 -6 -38 -6q-30 0 -64 14 q-9 36 -6 48q6 7 19 19t16 15q35 -4 155 -4q6 -9 15.5 -12t16 -2t21 6.5t15.5 5.5q9 -3 20 -3q23 1 53 11q20 7 35 6q20 0 31 -12q4 -4 16.5 -9t14.5 -13l-2 -2q0 -13 0.5 -25.5t-6.5 -23t-21 -13.5q-94 0 -125 -45q0 -8 1.5 -52t2 -62.5t-0.5 -51t-5 -57.5q7 -17 7 -47.5 t3 -44.5q-7 -49 -7 -152t-1 -125q0 -10 4 -32t3.5 -39t-9.5 -31q11 -46 11 -85q0 -62 -27 -106q-4 -36 -27 -66t-64 -64.5t-57 -51.5q-25 -2 -89 -15t-103 -13q-16 -6 -42 4.5t-40 5.5q-48 26 -107 39q-13 20 -49 48q-36 29 -58 57q-19 24 -19 54q0 5 1 11 q-16 12 -14.5 38.5t-7.5 43.5q-7 67 -7 107v5q0 41 4 111q3 55 3 91v19q0 16 -0.5 38t0.5 52v45q-1 32 -1 59q-2 45 -7 87q0 10 3 28t3 32.5t-6 27.5q-1 13 7 40t5 46.5t-27 30.5q-4 2 -12.5 9t-16.5 11.5t-16 3.5q-11 7 -29.5 7.5t-27.5 3.5q-2 2 -6.5 8t-6.5 9l-6 9 t-4.5 9.5t-2.5 10z" />
<glyph unicode="V" d="M49 1159q9 38 27 43q19 -4 46 -4q34 0 80.5 6t80.5 6q28 0 47 -4q11 1 37.5 7t45 5t33.5 -14q5 -2 20 -1.5t17 -6.5q-4 -44 -24 -61q-51 -18 -90 -18q-25 0 -45 7q-3 0 -6 -1t-4.5 -2.5t-3.5 -5t-3 -5t-2.5 -5.5t-1.5 -5q1 -10 0 -17.5t2 -15.5t12 -14q20 -6 20.5 -36 t16.5 -40q1 -4 -0.5 -15t0 -19.5t8.5 -12.5q7 -21 9.5 -60.5t11 -71.5t31.5 -53q2 -11 -2 -29t-1.5 -31t19.5 -23q5 -16 6.5 -58.5t12.5 -60.5q3 -9 6 -48t20 -51q2 -20 24 -66q17 -35 17 -61q0 -9 -2 -16q21 -57 21 -82q10 -15 20.5 -10t17.5 20q11 22 20.5 81.5t27.5 86.5 q3 19 15 84.5t17 100.5q12 12 17 29t6.5 40.5t3.5 30.5q20 17 20 54v6q0 5 -1 9q0 35 10 56q4 115 47 160q-6 20 0 43.5t16.5 43.5t6.5 39.5t-29 30.5q-13 4 -43 5.5t-50.5 8.5t-33.5 27q-3 12 2.5 20t17 15.5t14.5 11.5q40 10 86.5 10t100.5 -10q18 0 46.5 4.5t51 7t46 1 t41.5 -14t28 -36.5v2q-2 -26 -15.5 -37.5t-33 -11.5t-39.5 1.5t-38.5 -4.5t-27.5 -24q-18 -21 -29 -52t-13.5 -49t-6.5 -61q-12 -19 -17.5 -62t-15.5 -61q2 -9 2 -20q1 -29 -17 -65q-19 -38 -19 -62q0 -7 1 -13q-19 -17 -19.5 -59t-18.5 -59q12 -16 7 -31t-17.5 -24.5 t-17.5 -23t7 -26.5q-9 -33 -33 -194q-1 -5 -5.5 -10.5t-12 -12t-10.5 -10.5q-8 -27 -8 -50q0 -11 2 -21q3 -17 2 -35q0 -16 -2 -34q-5 -37 -33 -61q-34 -30 -69 -30q-18 0 -36 8q-14 2 -25 21t-24 24q-3 27 -15.5 74t-15.5 67q-11 26 -21.5 84.5t-23.5 85.5q-7 44 -24.5 126 t-24.5 126q-10 17 -16 38.5t-10 49.5t-7 41q-1 3 -9 24t-10 27.5t-7 22.5t-6.5 29t-1.5 26q-12 27 -25 93t-31 97q-12 62 -32 82q-18 5 -50.5 6.5t-56 8t-39.5 24.5z" />
<glyph unicode="W" d="M41 1159q0 4 0.5 13.5t1 14.5t4 12t10.5 11q26 7 49.5 2.5t51.5 -3t45 17.5q13 -6 36.5 -6.5t40 0.5t28.5 -11t11 -39q3 -10 -2.5 -16.5t-16 -12t-13.5 -9.5q-43 0 -62 -13q-1 -11 -7.5 -25t-11.5 -23.5t-6 -24.5t9 -27q3 -5 14.5 -25t15.5 -29.5t9.5 -26.5t4.5 -31 t-9 -29q-5 -10 -5 -23q1 -24 15 -58q12 -30 12 -54q0 -19 -8 -35q12 -20 14 -75t23 -77q2 -16 -4 -43t-7 -42t13 -40q4 -9 7.5 -42t17.5 -46q-5 -21 5 -58t7 -59q13 -19 43 2q22 42 22 62q0 13 -4 24q0 1 -5 10t-3 15q17 13 14 31q1 5 11 15t12 17q7 6 4.5 15.5t-4.5 14 t-9 12.5t-9 12q-1 6 -1 13q-1 28 19 68q22 43 22 70v6q-9 33 -9 59q0 34 16 56q15 13 22.5 32.5t1.5 37.5q-1 1 -4.5 6t-4.5 8l-2.5 7.5t0 8.5t5.5 7q12 4 14 12.5t-1.5 20t-2.5 16.5q30 30 59 30l21 -4q28 -11 41 -56.5t29 -57.5q16 -82 16 -158q13 -13 13 -39 q0 -12 -2 -24q-2 -11 -3 -20q0 -28 17 -40q-4 -38 18 -51q6 3 6 -10q0 -7 -12 -21t-6 -28q11 -10 27.5 -38t29.5 -40q13 2 22 11t18.5 26.5t12.5 21.5q7 31 7 57q-1 6 -1 14q-1 16 -1 34q-1 18 1 38q2 40 17 66q7 21 3 41t0 39.5t24 28.5q-6 10 -9.5 33.5t-5.5 29.5 q4 7 14 22t15.5 28t3.5 28q-24 24 -12 47q13 21 13 66v7v5q0 46 15 67q0 28 11 74q-4 17 -28 27t-44.5 14t-30 20.5t14.5 45.5q10 7 15 7t19 -4t19 -5q9 0 29 -0.5t31.5 0t26 7.5t23.5 21q70 -20 99 -45q11 -27 2.5 -38t-21.5 -10.5t-31 -3.5t-26 -18q-17 -23 -17 -68 q0 -12 2 -26q1 -11 0 -20q0 -48 -22 -72q5 -23 4.5 -49.5t-12.5 -48.5q1 -8 5.5 -29t6 -33.5t-4 -28.5t-19.5 -26q-1 -8 -2.5 -29t-3 -34t-5 -30.5t-8.5 -29.5q5 -4 3 -6l-7.5 -7.5t-5.5 -10.5q-15 -23 -10 -57.5t12.5 -59.5t-8.5 -57q-1 -22 -12.5 -69.5t-10.5 -72.5 q23 -15 23 -49q-20 -27 -21.5 -87t-13.5 -85q-59 -43 -103 -43q-14 0 -26 4q-11 4 -20.5 12.5t-21.5 24t-15 18.5q3 10 3 21q1 22 -9 48q-14 40 -13 60q-9 13 -9 40q0 10 1 22q5 44 -10 59q-6 -1 -7 0l5 8q1 26 -13 76q-11 41 -11 66q0 6 1 10q-13 15 -13.5 35t4 35.5 t-4.5 36.5q-10 9 -12.5 33t-10 37.5t-32.5 4.5q-26 -29 -31 -53q11 -8 -1.5 -30.5t-2.5 -37.5q-2 -7 -7 -18.5t-8 -20.5t-6 -19.5t-2 -20.5t4 -19q0 -3 0.5 -16t0.5 -20t-2.5 -17t-8.5 -16q2 -19 -24 -62q8 -19 -0.5 -53.5t0.5 -52.5q-8 -17 -5 -60.5t-14 -54.5 q2 -24 -11 -47.5t-36 -36.5q-19 -8 -27 -6.5t-25.5 10t-27.5 10.5q-22 15 -32.5 38t-0.5 48q-13 14 -5.5 43.5t-12.5 38.5q1 8 1 16q0 39 -20 93q7 21 7 41q0 36 -23 67q7 29 7 52q0 31 -13 51q0 52 -27 94q1 13 5.5 34t7.5 35.5t1.5 33t-10.5 34.5q-1 29 -13.5 78.5 t-14.5 69.5q-23 20 -26 71t-7 64q-5 15 -5.5 36t1 40.5t-10.5 31t-40 8.5q-1 1 -15 11t-16 18zM547 696l2 -2h10v2q-3 5 -12 3q-4 0 0 -3zM709 270q1 -1 3.5 -9.5t10.5 -6.5q18 14 22 45h3q-1 7 -9 9t-14 -1q-3 -1 -5.5 -2.5t-4.5 -3t-3 -4.5l-1.5 -4.5t-1 -5.5t-0.5 -5.5 v-6v-5.5z" />
<glyph unicode="X" d="M43 92q9 20 28.5 28.5t53 11.5t43.5 5q29 0 54 15.5t34 42.5q1 21 25 58.5t26 41.5q7 30 32 63t48.5 66.5t28.5 64.5q14 18 39.5 69t48.5 73q-1 28 -15 54.5t-35.5 57.5t-31.5 52q-7 19 -45 80.5t-43 103.5q-24 17 -40 59.5t-44 57.5q-8 28 -32.5 38t-51.5 7.5t-56 2.5 t-42 23q-7 14 2 27t24 16q40 10 108.5 10t104.5 1q9 -2 24 -2q19 0 47 3q16 2 30 2q30 0 52 -8q32 -10 48 -49q-23 -26 -61 -30q-13 -1 -25 -1q-24 0 -47 5q-18 -6 -35 -23q2 -7 7.5 -27.5t9.5 -31t11 -26t17.5 -25t24.5 -15.5q1 -3 4.5 -13t5 -13t5 -12.5t5.5 -13.5l6 -12 t7 -12.5t7.5 -11t9 -11.5t10 -10t11.5 -10q2 -21 18.5 -49t20.5 -41q14 -25 49 -12q19 10 27.5 43.5t28.5 42.5q3 23 39 72t36 82q19 15 37.5 52t32.5 52q-2 8 -8.5 14.5t-13.5 6.5q-23 9 -50.5 3t-50.5 3t-22 43q0 7 -0.5 10.5t4.5 8t7 6t8 4.5t7 4q29 3 55 3q16 0 30 -1 q23 -2 49 -2q18 0 37 1q48 2 85 15q83 -6 114 -20q17 -8 30 -19q2 -7 2 -14q0 -22 -23 -45q-111 -11 -174 -33q-16 -18 -34.5 -63t-39.5 -64q-15 -23 -40 -80.5t-46 -83.5q-1 -22 -15.5 -47.5t-31 -46t-29 -42.5t-9.5 -46.5t28 -48.5q4 -16 26 -47t23 -52q17 -15 34 -61.5 t44 -61.5q4 -16 29 -57t24 -70q15 -11 32.5 -42t37.5 -41q92 -9 123 -9q51 -23 51 -75h2q-5 -14 -14.5 -22t-31.5 -16.5t-24 -9.5q-11 1 -20.5 0t-19.5 2t-15 11q-8 -1 -19.5 0t-19.5 0.5t-16 -4.5q-26 7 -55 7q-10 0 -20 -1q-40 -3 -73 -11q-21 -5 -43 -6q-13 0 -27 2 q-37 5 -65 31q-5 7 -4 18.5t3 17.5t6.5 16.5t6.5 15.5q13 16 40.5 17t51 -4t36.5 6t3 46q-15 17 -27 37t-26 47.5t-22 40.5q-5 37 -40.5 98t-41.5 95q-13 19 -41 12q-35 -25 -64 -89.5t-43 -82.5q-14 -31 -46 -96.5t-48 -100.5l8 -8q16 0 37 -0.5t40.5 -1.5t38 -10t30.5 -25 q-3 -46 -16 -58q-8 -7 -21 -9q-12 -1 -40 -4t-45 -4.5t-40 0.5t-41 8h-13q-24 -1 -60 -3q-40 -3 -73 -3q-5 1 -9 1q-38 0 -68 11q-31 28 -31 55z" />
<glyph unicode="Y" d="M23 1171q36 48 122 48q17 0 45 -7t42 -8t42 10q19 -1 59 1q20 1 38 1t34 -1q32 -2 56 -13q9 -9 6 -20q-1 -2 -4.5 -14.5t-8.5 -19t-14 -9.5q-12 -3 -38.5 -3.5t-44 -6.5t-25.5 -23q-1 -18 12.5 -47.5t13.5 -48.5q25 -6 31 -22.5t1 -33t2 -30.5t32 -15q6 3 6.5 0t-1.5 -7 t1 -5q4 -18 32.5 -50t26.5 -59q11 -8 19 -27t17.5 -32.5t27.5 -13.5q19 10 19.5 25t-6 28.5t2.5 30.5q11 13 37.5 64.5t57.5 68.5q17 3 20.5 25t11.5 28q3 9 -1.5 23.5t-5 25t12.5 13.5q45 4 62 32q4 22 -8.5 31t-32.5 13.5t-27 11.5q-12 3 -23.5 0.5t-25 -0.5t-20.5 12 q-3 1 -11 2t-13 3.5t-7 8.5q-3 8 0 16t12 9q16 -6 33 5.5t29.5 20t38.5 -3.5h58t57 8t57 9q11 -6 27 -6q20 0 48 9q22 6 39 6q21 0 35 -11q7 -3 15 -8.5t19 -14.5t15 -12q7 -10 -8 -35q-28 -14 -97.5 -19.5t-99.5 -23.5q-22 -26 -20 -45q-31 -20 -48.5 -75.5t-45.5 -74.5 q-8 -12 -5.5 -30t-4.5 -31q-5 -12 -23 -27.5t-20 -31.5q1 -29 -16.5 -59.5t-39 -53t-35.5 -53.5t-6 -62q8 -44 8 -81q0 -57 -18 -97q-2 -11 -2 -20q0 -33 18 -58q-6 -10 -6 -37q0 -15 2 -36q4 -48 4 -69v-7q28 -13 72 -14q13 -1 26 -1q29 0 54 3h18q27 0 54 -7 q38 -10 61 -37q1 -6 5.5 -19t5 -19t-6.5 -17q-56 -32 -123 -36q-20 -1 -42 -1q-52 0 -112 6q-66 8 -109 8q-14 0 -25 -1q-9 -1 -20.5 0t-26.5 -1t-23 -8q-35 -1 -97.5 -4t-97.5 -4q-3 1 -36 23q1 4 2.5 17t4.5 21.5t9 14.5q34 34 130.5 42.5t123.5 23.5q13 16 15 35t-3 34.5 t-5 35.5t9 38q-8 38 -7.5 57t5.5 58t6 55q-13 19 -9 45t8.5 42t-19.5 40q-9 17 4.5 36.5t11.5 30.5q-24 3 -30 18t-8.5 33.5t-16.5 24.5q-13 6 -27.5 4t-27 3t-13.5 22q-8 15 -3.5 31.5t15 28.5t10 27.5t-19.5 29.5q-12 5 -23.5 20t-24 25.5t-31.5 7.5q-3 11 -1.5 26 t5.5 28.5t-3 25t-28 14.5q-8 -3 -18.5 1t-16.5 13q-4 38 -29 58q-17 7 -65.5 16.5t-61.5 13.5t-20 19.5t-18 21.5z" />
<glyph unicode="Z" d="M135 96q4 14 24.5 37t26.5 37q57 110 133 195q24 69 76 127q8 30 52.5 82t50.5 88q9 17 45.5 60t42.5 73q12 15 31.5 48t35.5 50q28 22 58 82.5t57 83.5q0 5 5.5 17.5t4.5 22t-14 13.5q-29 7 -89 7t-91 7q-29 -10 -95 -10q-26 0 -57 2q-19 1 -36 0q-83 0 -113 -22 q0 -1 -4 -13t2 -14q4 -7 6.5 -14t3 -16t0 -15t-2.5 -17.5t-3 -15.5t-4.5 -17.5t-4.5 -15.5q-4 -32 0 -62t-3 -61.5t-29 -48.5q-6 -1 -11.5 -1t-9 0.5t-9 3t-8 4t-8.5 5.5t-8 5q-20 24 -20 61q0 32 6 66q6 38 4 57q14 26 14.5 59t-6.5 61.5t2 57.5t41 47q28 8 76 8 q28 0 62 -2q49 -4 85 -4q34 0 56 3q12 -7 35 -7q15 0 37 4q39 6 59 6q7 0 12 -1q39 2 65 2h16q28 -1 80.5 -4.5t76.5 -4.5q1 0 14.5 -4.5t20 -9.5t10.5 -14q3 -12 3 -25q1 -23 -9 -43q-14 -32 -36.5 -53t-45.5 -51t-29 -58q-20 -27 -39.5 -58t-45 -75.5t-36.5 -62.5 q-29 -32 -68.5 -100t-60.5 -95q-17 -17 -29 -37.5t-24.5 -48t-19.5 -39.5q-20 -10 -35 -29t-23 -37.5t-22.5 -38.5t-34.5 -30q-8 -8 -13.5 -28t-7.5 -25q-11 -15 -28.5 -52t-32.5 -53q0 -18 12 -20q84 -11 145 -11h23q67 2 175 8q60 3 107 2q38 0 68 -1q13 6 21.5 16 t11.5 27.5t4 27t0.5 33.5t-0.5 27q0 56 15 78q-1 17 -1 34q0 78 19 154q15 20 51 27q5 -2 20.5 -3.5t25.5 -6t14 -15.5l2 2v-7q0 -23 -12 -65q-9 -34 -9 -58q0 -11 2 -19q-2 -22 -8 -76.5t-7 -70.5q0 -16 -2 -70q-1 -16 -1 -28q0 -32 4 -48q-6 -36 -39 -59q-50 -17 -110 -17 q-5 0 -10 -1q-54 -1 -98 5q-16 2 -35 2q-35 0 -79 -6q-3 2 -10.5 4t-11.5 4q-24 2 -55 2q-38 0 -85 -3q-61 -4 -115 -4q-22 0 -42 1q-72 2 -135 23q-21 15 -21 44q0 9 2 19z" />
<glyph unicode="`" d="M352.5 1355.5q-3.5 14.5 3.5 22.5q7 4 16 13.5t17 15t19 4.5q16 -2 131 -8q43 -54 53 -86q22 -20 59.5 -68t59.5 -67q3 -11 29 -40.5t18 -54.5h-2q-2 -5 0.5 -11t6 -11.5t5.5 -10t-1.5 -8t-14.5 -4.5q-10 -1 -28 -8.5t-27.5 -9t-30.5 5.5q-11 13 -35 29.5t-41.5 33.5 t-22.5 40q-10 14 -24 27.5t-24.5 22.5t-28.5 22.5t-25 19.5l-7 -6q0 1 1 3q3 12 -2 15q-40 50 -74 57q-3 6 -12 20t-12 20.5t-6.5 21z" />
<glyph unicode="a" d="M96 294.5q-2 18.5 8 41.5t35 37q0 25 15.5 40.5t49 30.5t40.5 19q71 19 209 31.5t188 21.5q10 11 48.5 27t47.5 43q-3 13 -6 38.5t-5.5 41t-14 33.5t-31.5 28q-35 19 -74.5 28.5t-104.5 16.5t-81 10q-24 0 -47 -9.5t-33 -27.5q0 -14 7 -48t3 -56.5t-24 -40.5 q-35 -32 -75 -32q-13 0 -26 3q-5 4 -21 15t-23 17.5t-16.5 17.5t-13 23.5t-1.5 27.5q10 25 10 67q7 8 18.5 27t22.5 30.5t28 16.5q-1 10 10 10t13 4q25 15 92 24t94 36q32 10 53 10q5 0 10 -1q23 -4 63 -12q36 -8 61 -7h6q63 -20 90 -37q50 -11 85 -54t46 -96 q4 -18 -2.5 -49.5t-1.5 -48.5q0 -22 -10 -91q-7 -52 -8 -88q0 -11 1 -20q6 -24 3.5 -50t-8 -47.5t0 -46.5t25.5 -46q6 -6 23 -25t27 -28.5t27.5 -19t35.5 -9.5q5 -1 19 -3t21 -3.5t17.5 -6t17 -12t9.5 -18.5q3 -9 3 -18q0 -20 -16 -42q-22 -17 -54.5 -19.5t-62 5.5t-57.5 23 q-9 12 -33.5 25.5t-33.5 27.5q-10 -2 -28 9t-32 3q-21 -15 -65.5 -38.5t-65.5 -39.5q-45 -14 -94 -16q-10 0 -22 -1q-41 1 -90 5q-53 5 -87 4h-12q-75 23 -130 72.5t-58 118.5q-1 15 -7 47t-8 50.5zM211 217q8 -26 23.5 -45.5t40.5 -32.5t43 -19.5t51.5 -16t46.5 -13.5 q30 -9 56 -0.5t64.5 36.5t47.5 34q8 3 22.5 6.5t25 7.5t17.5 8q9 14 29.5 36t32.5 41.5t12 43.5h2q9 15 -1.5 44t-0.5 44q-20 25 -74 29q-34 -19 -81 -24q-28 -3 -54 -3q-18 -1 -36 1q-44 4 -88 4q-1 0 -3 1q-43 -1 -84 -15q-42 -14 -72 -48q-24 -34 -24 -80q0 -18 4 -39z " />
<glyph unicode="b" d="M80 1174q14 28 24 32q15 10 35.5 10t44 -3t37.5 -1q80 0 123 -14q5 -3 9.5 -7.5t7.5 -8.5t5.5 -10.5t4 -10t3.5 -12t2 -10.5t1.5 -12t1.5 -11q-6 -11 -6 -31q-1 -16 3 -38q4 -26 5 -45q0 -18 -4 -29q3 -21 3.5 -64t2.5 -61q15 -25 27 -31q10 -4 19 0.5t18.5 14.5t13.5 12 q16 13 33.5 21.5t43 13.5t37.5 7t46.5 4t40.5 3q121 -20 196 -82q5 -5 26.5 -27.5t30.5 -33.5t23.5 -31t21 -39t7.5 -39q10 -16 18 -34t16 -42t13 -37q-2 -28 -2 -54q0 -20 2 -40q1 -9 0 -19q0 -33 -7 -71q-9 -48 -34 -84q-1 -30 -38 -68t-42 -63q-4 -3 -19.5 -17t-21 -18.5 t-20 -17t-23 -18t-22.5 -15t-25 -14t-24.5 -9.5t-26.5 -8q-20 2 -63 3t-68.5 3t-58 14t-54.5 34q-3 1 -27 12.5t-41 3.5q-10 -6 -20 -30t-29 -25q-11 -7 -22.5 -5t-18.5 9q-11 11 -11.5 33.5t-4.5 31.5q1 23 1 59q0 63 -4 167q-3 76 -3 131q0 63 4 98q-1 23 1 75q1 32 1 57 v32q-1 37 -6 73q-7 24 -7 61q0 35 6 81q5 37 5 68q0 47 -12 75q-15 27 -41 35q-25 8 -64 9q-2 -1 -4 -1q-42 0 -55 2q-13 10 -18.5 15t-11.5 16.5t-5 24.5zM393 393q-10 -17 -10 -40q0 -27 14 -64q22 -25 57.5 -75t53.5 -71q13 -31 38 -39q13 -4 30 -3q16 0 35 3q40 7 51 7 q15 2 29 6.5t29 12.5t25 14t26 19t23 19t25 22.5t23 20.5q0 18 13 45t15 41q40 40 40 123q0 22 -3 47v2q-10 17 -11 53t-13 54q-28 73 -91 128t-137 70q-15 3 -30 3q-36 0 -74 -17q-53 -24 -94 -69q-2 -26 -30.5 -56.5t-33.5 -38.5q-6 -37 -6 -91t6 -126z" />
<glyph unicode="c" d="M153 431q-1 9 -1 18q0 24 8 45q2 11 3 34t3 35q3 40 29 55q5 12 11 35.5t7 28.5q11 36 37 49q39 61 49 72q31 39 72 39q51 48 129 61q38 6 74 7q38 0 73 -8q70 -14 135 -42q80 -60 105 -115q1 -6 6 -23.5t6 -27.5q7 -32 -12 -51q-12 -72 -56 -88q-8 -2 -15.5 -3t-16 -0.5 t-14 1t-15 2.5t-13.5 3t-15.5 4.5t-14.5 4.5q-34 12 -27 47q1 7 3.5 22.5t3 22.5t-1.5 23q2 4 18 20q12 16 10 33q-8 13 -22 22t-20 11t-30.5 7t-25.5 5q-9 2 -33 11q-13 3 -28 3q-35 0 -76 -16q-12 -5 -43.5 -21.5t-48.5 -23.5q-58 -33 -89 -90q-15 -8 -23 -17.5t-10 -22 t-1.5 -21.5t3 -26t3.5 -24q0 -28 -8 -40q3 -32 1 -60.5t3.5 -61t23.5 -55.5q13 -26 25 -53q13 -26 22.5 -41.5t26 -34t38 -26t48.5 -4.5q48 -36 140 -36q17 0 36 1q63 9 111.5 52t101.5 114q0 24 35 37q12 8 16 14q19 2 41 -16q29 -25 23 -50q-12 -21 -21 -45v2 q-2 -4 -6.5 -18.5t-7 -20t-7 -17t-9 -17.5t-11 -14.5t-14.5 -15t-18 -11.5q-72 -82 -199 -109q-49 -10 -96 -10q-66 0 -129 20q-15 7 -58 42t-73 38q-22 14 -37 31.5t-32.5 48t-23.5 39.5q-15 27 -32 41q-3 26 -14 60t-19.5 57t-12.5 58z" />
<glyph unicode="d" d="M76 453v21q0 132 47 194q-2 15 0.5 27.5t11 25.5t13.5 19t20 21t18 19q15 15 25 35q17 17 54.5 39.5t43.5 26.5q20 10 35 22q44 16 96 16q76 0 172 -34q25 -29 39 -39q30 -19 54 -8q12 37 12 86v84q-4 10 -5 21t0 29.5t1 22.5q0 46 -39 60q-19 -3 -58 -3h-46q-12 0 -23 1 q-57 0 -80 -11q-17 3 -26.5 12.5t-13 20t-5.5 27.5q-5 20 -8 26q19 37 78 37q17 0 53 -4q16 -2 47 -2h15q24 0 61.5 2t61.5 2h15q55 -20 70 -49q7 -25 7 -50q0 -2 1 -5q-1 -23 -5 -61q-4 -42 -5 -52q-3 -31 2 -55q-2 -12 -2 -30q1 -37 9 -100q5 -37 4 -65q0 -42 -11 -63 q6 -41 6 -127q-1 -21 -4 -64t-4 -65q-2 -12 -2 -26q0 -20 4 -44q1 -8 3.5 -29t2.5 -30q-13 -20 -13 -44q0 -12 3 -26q3 -19 0.5 -39t4.5 -40t26 -27q15 -3 33 -2.5t29 0.5t34 2.5t31 3.5h13q63 0 95 -37q2 -8 2 -17q0 -26 -18 -59h2q-29 -21 -67 -23h-10q-33 0 -62 9 q-39 8 -54 10.5t-45 2t-53 -8.5q-15 3 -31 16q-5 4 -15.5 14t-16.5 15q-16 12 -30 12q-20 0 -38 -24q-27 -25 -60 -37.5t-79 -12.5t-67.5 2t-74.5 9q-38 10 -70.5 29.5t-65.5 57.5t-45.5 54.5t-47.5 68.5q-8 11 -12 17q-5 17 -14 47.5t-14.5 49t-10 45t-4.5 51.5zM196 543 q-4 -26 -4 -50q0 -55 21 -100q0 -92 113 -194q92 -59 165 -59q50 0 91 28q13 14 43 44.5t51 54t37 48.5q2 28 2 70q-1 9 -1 21v36q0 34 1 60q-7 16 0.5 44.5t1.5 43.5q-3 11 -17 33q-6 9 -21 26.5t-24.5 32t-13.5 31.5q-73 94 -215 94q-8 -4 -30.5 -14t-33 -15.5 t-29.5 -16.5t-29.5 -20.5t-22 -24.5t-17.5 -32q-55 -55 -68 -141z" />
<glyph unicode="e" d="M158 436q-6 44 -6 83q0 104 41 177q25 20 43 62q3 3 40 51q36 41 71.5 63t88.5 35q24 7 127 31q2 0 5 1q42 1 110 -33q72 -34 88 -40q9 -15 22.5 -28.5t32 -29t27.5 -24.5q16 -13 24 -26q21 -21 38.5 -76.5t35.5 -75.5q17 -46 17 -83q0 -32 -13 -56q-36 -16 -90 -16 q-17 0 -50 1t-48 1q-21 4 -29.5 3t-28.5 -6t-30 -6q-16 -1 -37 -1q-58 0 -160 6q-24 1 -47 1q-86 0 -149 -12q-6 -8 -7.5 -17.5t-0.5 -15t3 -18t3 -16.5q3 -12 0 -27q15 -8 12 -25v-12q-4 -31 24 -33q19 -15 43 -51q29 -37 52 -49q48 -36 116 -46q31 -5 59 -4q34 0 64 7 q7 3 19 9.5t22 10.5t19 5q17 12 41 47q19 30 41 39q13 8 30 37q13 20 29 28q9 -3 22 0h25q29 0 37 -20q7 -18 7 -37q0 -47 -42 -96q-11 -13 -24.5 -26t-32.5 -30t-27 -24q-13 -13 -22 -25q-8 -4 -25 -7.5t-20 -4.5q-31 -9 -43 -19q-23 -3 -39 -14q-24 -8 -39 -8 q-75 -6 -82 -6q-48 4 -70 26q-16 0 -33 4t-29 8t-30 13.5t-25.5 14t-29 17.5t-27.5 17q-71 87 -109 169q-34 74 -34 159v18zM283 567q22 -8 49.5 -11.5t45.5 -2.5t53 2.5t48 1.5q46 0 64 -2q7 -1 19 -1q28 0 78 6q27 3 48 2q33 0 49 -7q6 0 25 -2.5t29.5 -3t25.5 3t25 12.5 q-3 18 -13 39q-8 19 -10 31q-2 3 -26 33q-19 24 -21 30q-4 11 -8.5 20.5t-12 17t-12.5 13t-15.5 10.5t-15 8t-18 7t-17.5 5t-19.5 4.5t-18.5 4.5q-33 7 -51 15q-25 4 -48 4q-86 0 -137 -51q-4 -6 -10 -12.5t-10 -10t-13.5 -10t-11.5 -8.5q-33 -25 -35 -53q2 -15 -23.5 -43 t-12.5 -52z" />
<glyph unicode="f" d="M125 111q15 27 51 32q14 2 28 2q19 0 36 -4q40 -11 77 -11q53 0 101 22q12 15 14.5 36t-2 39.5t-7 39.5t0.5 36v332q4 13 0.5 49.5t5.5 46.5q-4 31 -24 41q-10 11 -33 11q-14 0 -33 -4q-29 -6 -48 -6q-13 0 -22 3q-17 -20 -45 -10q-47 37 -45 72v6q1 7 1.5 8t1.5 6.5 t2 7.5t3 5.5t4.5 5.5t6 3.5t8.5 2.5q19 -5 48.5 1t55 6.5t45.5 -16.5q9 -2 18 -2q33 0 50 25q0 11 -3 38.5t-2.5 49t7.5 37.5q2 5 0.5 10t-0.5 10t6 7q-1 9 -1 17q0 85 65 120q17 9 51 35q21 6 160 32q9 1 18 1q41 0 98 -24q70 -30 90 -34q96 -76 96 -156q0 -15 -3 -30 q2 -6 2 -12q0 -36 -52 -83q-6 -1 -32.5 -4t-40.5 -4q-8 7 -30 20t-33 26.5t-13 33.5q-8 16 -5.5 32.5t10 29.5t5.5 28t-20 27q-2 0 -24.5 4.5t-28.5 5t-25 3t-28.5 1t-24 -3t-25.5 -7t-20 -13.5q-75 -4 -91 -56q-15 -36 -15 -71q0 -37 17 -74q27 -18 39 -10q2 3 7 5.5t6 4.5 q6 -1 15 -1q18 0 49 3q14 1 26 1q30 0 50 -7q27 -10 42 -45v-7q0 -44 -35 -63q-35 -12 -55.5 -10t-59 10t-59.5 8q-5 -2 -25 -22q-1 -25 -1 -55q0 -86 9 -219q11 -178 11 -246q15 -17 -0.5 -45.5t2.5 -42.5q18 -2 38 -2q17 0 36 2q40 3 73 8q21 4 45 4q13 0 27 -1 q40 -3 74 -20q15 -15 19.5 -38.5t-1.5 -41.5q-12 -35 -48 -45q-23 -7 -47 -7q-12 0 -25 1q-18 3 -35 3q-19 0 -37 -3q-10 -2 -25 -2q-34 0 -92 8q-36 5 -61 5q-34 0 -48 -9q-49 11 -98 11l-98 -11q-22 -2 -40 -2q-48 0 -71 17q-21 31 -21 55q0 15 7 27z" />
<glyph unicode="g" d="M115 -115q-7 44 -7 83q0 62 19 108q4 9 16 22.5t21.5 23t14.5 24t-5 26.5q-42 42 -55 100q-5 23 -5 45q0 36 13 72q6 12 26 28t30 31.5t1 36.5q-18 31 -27.5 98.5t-13.5 82.5q-2 1 1 3.5t7 6t3 6.5q5 13 14.5 47.5t17.5 52.5q3 3 22.5 7.5t22.5 17.5q2 16 26 32.5 t30 30.5q8 14 35 14.5t36 12.5q11 3 28 -0.5t30.5 -3.5t23.5 12q7 0 42 1.5t56 -3t37 -18.5q9 -2 51 -23q33 -15 56 -15q6 0 12 1q11 13 28 23.5t26.5 14.5t33.5 13q40 4 57 2.5t53 -9t56 -9.5q7 -5 28.5 -19t32 -22t24.5 -21.5t20.5 -29.5t7.5 -35v-56v2q-44 -52 -94 -52 q-16 0 -33 5q-4 0 -8 0.5t-8 3.5t-7 5t-7 7t-5.5 7t-5.5 7.5t-4 6.5q-9 12 -11.5 53t-25.5 54q-17 3 -32 3q-56 0 -77 -38q-5 -21 10.5 -49.5t25 -47.5t-6.5 -51q2 -10 2 -22q0 -25 -10 -60q-15 -51 -16 -67q-11 -4 -25.5 -26t-32.5 -21q-9 -4 -12 -12t-3.5 -19t-2.5 -16 q-18 7 -33 -0.5t-24 -19t-23.5 -19t-32.5 -0.5q-20 3 -60.5 -8t-62.5 -7q-113 22 -176 64q-12 3 -20 -3.5t-16 -18t-13 -15.5q-7 -24 2 -48.5t20.5 -39.5t34.5 -39q27 -8 50 -8q29 0 49 14q21 -4 38 -4q33 0 54 15q11 -3 26 -3q20 0 48 5q49 8 57 8q37 -6 43 -4 q17 2 40.5 -5t37.5 -10.5t39 6.5q16 -7 45 -13.5t36 -8.5q11 -7 35.5 -19.5t37.5 -20t29.5 -23.5t27.5 -35q27 -10 37.5 -31t13.5 -54t8 -46q0 -18 -0.5 -41.5t-1.5 -45.5t-10.5 -44t-26.5 -37q-2 -3 -14.5 -24t-16.5 -27t-16.5 -22.5t-21.5 -23t-22.5 -14.5t-27.5 -10 q-23 -4 -70 -14t-84 -15q-31 -4 -61 -4h-12q-44 -3 -64.5 -3t-71.5 3t-67 4q-19 17 -65 17h-5h-5q-47 0 -64 20q-59 14 -107.5 67.5t-70.5 116.5zM224 -6q-1 -11 -1 -23q0 -29 8 -59q11 -44 43 -72q21 -18 72 -29.5t70 -31.5q11 1 24 1q23 0 52 -2q47 -4 74 -5h5q26 0 68 10 q4 0 29 0.5t32 1t30 1.5t32.5 3.5t29 6.5t30 10.5t24.5 14.5t24.5 20t18.5 26q2 12 10 39t12 44t1.5 40t-15.5 41v-2q-18 6 -37.5 32.5t-25.5 32.5q-14 3 -46 11t-50.5 12t-46 7.5t-52.5 2.5q-13 14 -35 15.5t-41.5 -3.5t-40.5 0q-8 2 -19 0t-17 -3t-15 7q-19 -2 -34.5 -0.5 t-33 -2.5t-30.5 -17q-8 2 -15.5 2.5t-14.5 -2t-12.5 -4.5t-12.5 -7.5t-11 -8.5t-12.5 -10.5t-11.5 -10.5q-5 -4 -22 -2.5t-19 -5.5q-13 -41 -18 -80zM251.5 618.5q-1.5 -20.5 0.5 -34.5t12 -23q-1 -24 11.5 -47t24.5 -36t36 -34q17 -1 72 -18q37 -11 65 -11q15 0 27 3 q17 -3 50 20q21 15 41 15q10 0 19 -4q7 8 14.5 24t16.5 26t25 13q9 27 -7 55q18 15 19.5 34.5t-7.5 35.5t-17 37.5t-5 38.5q-11 4 -22 17.5t-18 25t-20.5 18.5t-29.5 -2q-11 9 -23.5 15.5t-29 10.5t-27 6t-31 5t-28.5 4q-13 -10 -65 -34t-70 -52q-1 -13 -6 -25.5t-14 -28 t-13 -24.5q1 -10 -0.5 -30.5z" />
<glyph unicode="h" d="M26 1169.5q0 4.5 0.5 11.5t2.5 13t6 12q17 23 42.5 30t50 2.5t53.5 -4.5t52 7q3 -1 16.5 -3t18.5 -3t15.5 -4.5t16.5 -7t13 -9.5t11 -14q8 -20 10 -46.5t1.5 -48t0.5 -46.5q-1 -7 -3.5 -28t-3.5 -31t0.5 -26t6.5 -30q-8 -20 -8 -39.5t8 -38.5q-4 -25 -4 -67v-54 q11 -6 14 -4q11 13 34 33t36 35q18 -1 32.5 10.5t23 25.5t24 23t36.5 4q20 28 54 32q12 1 26 1q24 0 51 -4q43 -7 62 -4q13 -17 52 -27t44 -32q19 -7 39.5 -38.5t32.5 -41.5q11 -20 9 -56.5t3 -58.5q3 -33 3.5 -108.5t4.5 -114.5q-7 -13 -7 -38q0 -20 4 -46q7 -38 7 -64 q0 -14 -2 -24q6 -9 6.5 -13.5t-3.5 -16t-5 -15.5q-13 -16 0 -43q34 -19 70 -19q16 0 33 4q8 2 15 2q30 0 48 -28q12 -24 12 -42q0 -13 -6 -24h-2q-14 -17 -37.5 -20t-45.5 0.5t-48 -4.5q-14 -5 -40 -1t-40 -1q-4 4 -8 6q-13 -1 -40 -6.5t-40.5 -6.5t-38.5 7q-34 -7 -61 -7 q-69 0 -100 46q-2 -1 -4.5 2t-4.5 2q-24 -29 -61 -42q-36 -13 -71 -13l-3 1h-79t-76 -2h-211q-2 2 -11.5 9.5t-13 11t-7.5 10.5t-5 14q3 7 5.5 24t8 29t19.5 17q12 -3 26.5 1t25.5 9t23.5 3t22.5 -15q17 -8 35 -2.5t22 20.5q7 13 0 23.5t-11.5 14t11.5 14.5q-2 8 -2 19 q1 22 9 58q5 21 4 38q0 24 -11 36q-3 16 -3 40q0 18 2 42q2 25 2 44q0 22 -3 36q0 15 3 63t2.5 63t-3.5 66q-3 18 -3 57q0 27 2 64q2 57 2 91q0 19 -1 30q-2 12 -8.5 29t-12 30t-5 30t9.5 32q4 14 -2 21.5t-21 12.5t-18 7q-25 -1 -49.5 -2t-49.5 8.5t-40 30.5q0 4 -1.5 13 t-1.5 13.5zM340 381q9 -18 10 -44t-2 -47t0 -46q1 -12 -2 -33.5t-2.5 -39t10.5 -28.5q3 -1 24 -11t32 -5q18 -4 39 2.5t33 9t38 -11.5q11 -3 18 -10t13 -20.5t8 -16.5q12 -6 16.5 0t7.5 18t9 15q5 9 22 10t21 4q20 18 52.5 19.5t60 -4t59.5 2.5h2q12 24 -16 52 q-1 6 1.5 12.5t2.5 9.5q-3 15 -2.5 47.5t-3.5 46.5q2 58 10 154q3 17 -4 44t-6 44q-7 26 -3 45.5t3.5 43t-13.5 40.5q-12 9 -19.5 35t-15.5 33q-10 16 -26.5 23.5t-40.5 12t-33 7.5q-11 1 -21 1q-91 0 -135 -79q-31 -10 -65 -57.5t-45 -57.5q-27 -24 -33 -64q-3 -21 -3 -41 q1 -17 3 -35q2 -14 2 -29q0 -25 -6 -52z" />
<glyph unicode="i" d="M141 115q16 8 61 7.5t58 12.5q3 1 10.5 0t12.5 0.5t8 7.5q2 6 9.5 0t12.5 -4q21 -3 75 -3h18q8 0 15 1q57 0 81 -4q8 2 7.5 8t-5.5 11q5 10 6 20t0.5 14.5t-4 18t-4.5 16.5q2 13 1.5 43t4 50.5t18.5 35.5q-1 9 -8 19.5t-6 21.5q-3 11 -3 29q1 25 7 61q5 27 4 48 q0 27 -8 44q6 23 6 66v20q0 9 -1 18q0 45 7 68q-20 35 -49 35q-10 0 -22 -4q-4 -5 -34 -5q-13 0 -30 1q-44 2 -61 2h-9q-28 10 -52.5 2.5t-53.5 -6t-47 24.5q-8 30 -8 53q0 11 2 20q15 23 38.5 28.5t45.5 -0.5t49 -5.5t45 14.5q15 -13 52 -13q16 0 36 2q34 4 58 5 q22 0 34 -4q15 -7 47.5 1t44.5 -7q31 -48 31 -91q0 -12 -2 -24q-16 -13 -18 -29t4.5 -30t11 -32t0.5 -32q2 -11 2 -26q1 -25 -5 -61q-6 -38 -6 -64q0 -13 1 -23q8 -14 10 -29t-2.5 -33t-8.5 -28.5t-12 -30.5q17 -28 17 -53q0 -12 -4 -24q-4 -11 -5.5 -24.5t-1.5 -21t1.5 -27 t1.5 -24.5q7 -4 11 -18t11 -19q14 -7 39 -7q18 0 42 4q19 3 34 3q30 0 45 -12q31 -5 46 -3t45.5 10t45.5 10q1 0 25.5 -12.5t31.5 -24.5h-2q10 -19 7 -42.5t-17 -41.5q-19 -10 -52 -10q-9 0 -21 1q-24 2 -43 2t-31 -2q-7 0 -25.5 -0.5t-27 -0.5t-21.5 3.5t-23 10.5 q-21 2 -47.5 -5t-46 -14.5t-43.5 -6t-45 17.5q-28 -4 -80 -4q-30 -1 -69 1q-57 2 -96 2q-34 0 -54 -1q-14 17 -51.5 11.5t-50.5 14.5q-8 -3 -9.5 0.5t-1.5 11t-4 9.5q-13 30 -6 45zM438 1122q-4 4 0 21q9 2 5 21t-3 24q-1 7 0 13.5t5 14t6.5 12t10 12.5t10 11t11.5 12l11 11 q10 6 24.5 8.5t25 2t29.5 -2.5t25 -2q68 -56 68 -129h-2q3 -16 -15 -31.5t-18 -29.5q-1 -1 -22.5 -7.5t-26.5 -21.5q-14 -6 -28.5 -6t-25 3t-24.5 11.5t-22 15t-22.5 19.5t-21.5 18z" />
<glyph unicode="j" d="M201 -10q5 18 5 42t-2.5 45.5t8 39.5t36.5 24q-19 19 -12 35q2 12 10 19t22 13t19 9q8 0 33.5 3t41 -2t25.5 -23q19 -5 28 -20.5t14 -39.5t9 -33q7 -11 4 -21t-7.5 -15t-13.5 -12.5t-13 -14.5q-8 -7 -36 -23t-38 -32t-2 -43q3 -6 13.5 -25.5t16 -28t16.5 -21t23 -20.5 q50 -42 119 -48h22q56 0 101 24q11 11 32.5 34t38.5 39t36 31q3 14 0 26t0.5 24t19.5 16q-4 30 -3.5 45t3 43t2.5 45q-13 8 -11.5 17.5t9.5 17.5q6 16 -5.5 56.5t5.5 57.5q-8 17 -7.5 42t9.5 40q-5 16 -7 58.5t-13 64.5q13 16 13 42q0 20 -7 44v12q0 24 3 61q4 46 5 74v7 q0 26 -6 69q-17 13 -48 13q-10 0 -22 -1q-20 -3 -36 -3q-21 0 -36 4q-13 -17 -41 -9t-40 1q-45 -4 -100 -4q-37 0 -79 2q-39 31 -39 75q15 34 37 37q14 -7 36 -7q18 0 42 5q31 7 53 7q13 0 23 -3q28 -9 54 -9q29 0 54 11q17 -4 58 -5t63 -11q20 4 41 4q12 0 24 -1 q35 -4 56 -26q11 -22 10.5 -58.5t1.5 -61.5q3 -111 5.5 -305t3.5 -267q5 -17 1 -50.5t1 -53.5q4 -3 4 -19h2q-12 -16 -12 -49q0 -12 1 -27q2 -13 2 -24q0 -35 -16 -53q-4 -16 -18.5 -45.5t-18.5 -44.5q-20 -31 -46 -54.5t-64 -41.5t-61.5 -26.5t-71.5 -23.5q-21 -7 -56 6 q-19 3 -37 0.5t-37 0.5t-30 16q-27 2 -70 32.5t-55 36.5q-51 42 -57 99q-17 22 -26 71t-15 64zM653 1186q15 33 44 56q26 20 55 20h8q12 4 23 4q44 0 85 -52q26 -44 26 -76q0 -11 -3 -20l2 2q-10 -31 -37.5 -54.5t-58.5 -29.5h-4q-43 0 -115 39q-32 43 -32 79q0 17 7 32z " />
<glyph unicode="k" d="M31.5 65q0.5 6 1.5 17q7 30 31.5 38t51 3t52.5 6q11 2 28.5 -0.5t29.5 -0.5t20 15q-7 48 -7 97q0 62 11 127q-4 23 -4 80.5t-6 84.5v8q0 22 -4 60q-4 32 -4 60q0 11 1 21q2 36 19 64q-11 102 -11 179q0 53 5 94l-6 14q-7 15 -7.5 19t-2.5 15.5t0.5 19t9.5 14.5 q-18 13 -30.5 11t-32.5 -6.5t-32 -0.5q-11 -1 -22 -1q-63 0 -90 42q-10 21 2.5 41.5t34.5 32.5q21 6 63 6q9 -1 19 -1h17q44 0 67 7q7 -1 29.5 -4.5t33.5 -6.5t25 -12.5t20 -25.5q2 -8 2 -21q0 -19 -4 -47q-4 -22 -4 -38q0 -17 4 -25q-1 -9 -1 -50q1 -19 1 -47v-10 q0 -75 -8 -84q-2 -9 -2 -22q0 -27 8 -69q5 -25 5 -44q0 -30 -11 -47q1 -12 1 -30q1 -22 -1 -50q-2 -25 -2 -44q0 -22 2 -38q-6 -44 22 -53q24 -3 43.5 13t37.5 39t30 30q0 13 9.5 24.5t21.5 14.5q19 19 68.5 54.5t68.5 61.5q9 14 30.5 18.5t37.5 12t18 29.5q-9 14 -36 9.5 t-36 12.5q-6 0 -36 -4t-48.5 1.5t-25.5 27.5q-8 13 -7 19.5t8.5 19.5t8.5 20q26 16 59.5 17t62 -6.5t63 -10t61.5 5.5q16 9 58.5 -0.5t55.5 11.5q29 -9 54.5 -6t55 0t46.5 -23q1 -4 3.5 -13t3 -14t-0.5 -14q5 -10 1 -19t-17.5 -20t-16.5 -14q-17 -7 -38 -7t-33.5 2.5 t-40.5 11t-33 9.5q-24 -11 -51 -11q-6 0 -13 1q-48 -33 -53 -74q-10 1 -15.5 -11t-15.5 -11q-5 -6 -16.5 -19.5t-19 -21.5t-19.5 -16.5t-24 -12.5q-19 -52 -60 -55q-9 -5 -9.5 -13t5 -20.5t6.5 -15.5q40 -27 86 -101t72 -100q5 -17 23.5 -45t23.5 -41q9 -6 19 -30.5 t20 -33.5q14 10 31.5 -6t31.5 -6q10 3 26 3q20 0 48 -4q36 -5 58 -6q8 0 14 1q27 -15 27 -49q0 -11 -3 -25q-15 -23 -41.5 -29t-61 -6t-52.5 -6q-10 -1 -23 -1q-30 -1 -77 3q-56 4 -82 4h-11q-6 1 -37 -0.5t-49 5.5t-28 28q5 10 0.5 21t-2 21t17.5 13q8 13 25.5 17t34 2.5 t32.5 1.5q10 15 2 25q-1 2 -5 6t-5 6t-3 7t1 9q-43 43 -106 136t-95 130q-23 7 -33 -16q-2 -5 7 -18q-15 4 -29 -7t-22.5 -25t-24 -21.5t-33.5 3.5q-11 -1 -13 -6.5t1 -11t1 -11.5t-12 -9q-7 -28 -30 -37q7 -13 7 -33q1 -18 -5 -44q-4 -19 -5 -33q0 -25 13 -36q4 -3 11 -10 t13.5 -12t12.5 -8q18 -6 41 5t36.5 17t37.5 -12q5 -3 25.5 -12t27.5 -19.5t2 -28.5q1 -8 -1.5 -13.5t-9 -10.5t-10 -7t-14.5 -6.5t-14 -5.5h-21q-50 0 -123 -4q-90 -4 -142 -6h-20q-48 0 -120 6q-4 4 -13 12t-13 12t-10.5 12.5t-6 14.5z" />
<glyph unicode="l" d="M115 82q-3 10 0 19t9.5 18t8.5 14q41 6 89.5 8.5t79.5 2.5t91.5 -0.5t85.5 -0.5q7 21 7 47q0 10 -1 21q0 39 9 57q0 22 -3 62t-4 49q-1 16 -1 30q0 39 6 70q3 41 4 50t-3.5 48.5t-5.5 49.5q-3 24 0 51q0 6 -2 28.5t0 37.5t9 26q1 8 1 20q0 28 -8 74q-6 29 -6 52 q0 19 4 34q11 19 7 56q-4 33 6 49q7 17 -9 41l-6 12q-16 14 -44 14q-10 0 -22 -2q-13 -2 -23 -2q-26 0 -38 12q-21 8 -47 -10q-22 -11 -37 2h-20h-22.5t-20 1t-22 4t-17.5 7.5t-19 11.5t-14 17q-5 5 -5.5 12.5t2.5 21t3 15.5q5 3 14.5 10t17.5 11.5t15 7.5q28 14 54 -4 q17 0 53.5 2t58 2.5t52 -1t55.5 -7.5q11 2 37 -2q20 0 30 10q2 -1 12 -4t13 -4t12 -4.5t12.5 -5.5t11 -6t11 -8t8 -9t7.5 -11t5 -13q-2 -9 9 -25q7 -13 -4 -21q-7 -104 -7 -192q0 -112 11 -199q-10 -79 -15 -94q-4 -29 -4 -38.5t7 -37.5t8 -37q4 -24 2 -36 q13 -18 14.5 -37.5t-3.5 -34t-12 -35t-8 -35.5q-3 -26 11 -55q3 -14 -7 -59q-6 -22 -6 -40t6 -34q7 -16 20.5 -22.5t33.5 1.5q4 4 10 5t9 0.5t11 -2t9 -1.5q12 -4 16 -4q39 -2 203 -2q1 0 14 -2t19 -4q18 -7 20 -22q15 -15 8 -39q-2 -6 -7.5 -20t-6.5 -21q-29 -20 -83 -20 q-9 0 -20 1q-83 0 -114 -10q-38 17 -87 17q-10 0 -20 -1l-33 -3t-41 -3t-36 0q-29 11 -59 11q-27 0 -54 -9q-39 7 -131.5 8t-136.5 9q-3 3 -12.5 10.5t-14.5 12t-11 12t-9 14.5z" />
<glyph unicode="m" d="M15 812.5q-2 6.5 5 12.5q3 10 9 18.5t11 13.5t15.5 14t14.5 12q8 0 23 1.5t23.5 2t19.5 -4t18 -14.5q21 1 52 -5.5t53.5 -11.5t48.5 0.5t44 27.5q13 11 27.5 16t32.5 4t30 -2.5t34.5 -6.5l31.5 -7q2 -16 24.5 -21t26.5 -8q10 -5 26 -29t36 -22q17 6 41 34t45 31 q13 4 30 12t26.5 12.5t27.5 7.5t34 -5q8 3 21 -10q7 -3 37.5 -11t45.5 -20t17 -35q20 -10 29 -41t18 -41q3 -10 3 -26q0 -18 -4 -43t-4 -44q0 -16 3 -28q-13 -33 -13 -75v-15q3 -52 10 -89q3 -14 2 -29q0 -27 -7 -60q7 -21 7 -58v-27q-1 -23 -2 -42q0 -26 3 -43 q10 -26 55 -32t56 -30q1 -6 0.5 -21.5t1.5 -19.5q-19 -32 -64 -45q-16 1 -48 -0.5t-56.5 0t-46.5 8.5q-15 -14 -56.5 -8t-56.5 2q-9 22 -26 27q-18 -2 -53.5 -14.5t-55.5 -14.5q-7 -1 -18 -1q-24 -1 -64 3q-28 2 -48 3q-22 0 -34 -3q-10 1 -38.5 8.5t-45.5 8.5 q-5 -9 -15 -11.5t-23.5 -3t-20.5 -2.5q-20 -3 -45 -3q-39 0 -92 7q-16 2 -46.5 -2t-56 -3t-43.5 16q-7 12 -7 45q0 13 1 30q13 24 49 31q9 2 19 1t18.5 -3t14.5 2.5t6 18.5q-2 2 -9 4t-8 8q3 2 8.5 -0.5t8.5 0.5q-1 14 -1 31q-1 21 1 45q3 40 4 75v9q0 40 -13 73q7 17 7 45 q0 20 -4 42q-2 19 -2 35q0 32 10 50q-1 13 -4.5 33.5t-6.5 35.5t-1.5 34t10.5 35q5 11 0.5 18t-16 13.5t-15.5 11.5q-4 1 -15 3l-16.5 3t-15 4t-15 6t-11.5 8.5t-9 11.5q-2 4 -8.5 9t-10 8t-5.5 9.5zM259 598.5q1 -11.5 7.5 -34.5t7.5 -34q-10 -34 -10 -67q0 -14 2 -29 q0 -8 2.5 -24t2.5 -28t-5 -20q11 -20 11 -74q1 -17 -1 -37q-3 -50 -3 -79q0 -19 1 -29q1 -1 3.5 -4t3.5 -4q9 -1 30.5 -7t30.5 -6t33 5q8 -7 16.5 -20.5t11.5 -16.5q13 -4 18.5 8.5t12.5 14.5q4 1 11 6.5t14 8t16 -0.5q20 -4 27.5 4.5t6.5 21.5t1 28.5t12 21.5 q6 19 -11.5 47t-8.5 47q11 13 11 39q1 16 -3 36q-6 33 -7 54q0 14 3 23t3 31q1 16 -1 38q-3 32 -3 53q0 13 1 21q6 7 1.5 22.5t4.5 22.5q14 15 10 20.5t-13 16t-7 20.5q7 6 10.5 4t11.5 -7.5t13 -6.5q14 17 8 35h2q-4 9 -19 12t-20 12q-3 14 -17.5 23.5t-27.5 7.5 q-18 13 -27 11t-25.5 -10t-27.5 -7q-8 -22 -39.5 -40.5t-37.5 -25.5q3 -22 -6.5 -41.5t-31.5 -29.5q-10 -21 -9 -32.5zM623 471q-8 -45 8 -61q3 -25 3 -44q0 -34 -9 -53v-7q0 -25 6 -76q5 -41 5 -69q0 -12 -1 -22q14 -12 53 -20.5t55 -28.5q30 24 31 25q10 13 28 14.5t33 -3 t26 2.5t11 31q17 12 18.5 24t-9.5 32.5t-13 25.5q18 9 13 26t2 27h-2q-16 31 -16 64q0 14 3 28q-6 18 -6 44q0 23 4 52q4 25 4 45q0 29 -8 45q1 10 8 28t9 28t-5 28q10 18 6 29.5t-10.5 30.5t-3.5 33q-8 4 -22 13t-26 14.5t-25 6.5q-18 4 -31.5 -5.5t-21 -22.5t-22 -23.5 t-32.5 -7.5q-24 -33 -12 -51q-7 -12 -25 -12q-13 -15 -17 -37.5t-4 -51t-3 -41.5q6 -16 -2 -61z" />
<glyph unicode="n" d="M33.5 91q-1.5 4 2 13t5 11.5t6.5 10.5t6 11q60 20 122 20q15 0 30 -1q16 6 6.5 30t-0.5 33q1 27 5 66.5t6.5 66.5t1.5 62t-7 65q-1 8 -1 20q0 21 4 52t4 51q0 11 -1 19q13 38 13 79q0 30 -7 62q-11 15 -43 29q-33 -8 -59 -8q-55 0 -80 36q-4 6 -5.5 14t-1 13t2.5 14.5 t2 13.5q13 16 31 19q24 -4 47 -4q15 0 31 2q28 4 63 4q11 -1 21 -1q46 -2 77 -17q21 -27 21 -70q0 -32 -12 -74q12 -17 24 -8q11 6 12.5 18.5t5.5 22.5t21 12q5 14 17 23t24 12.5t22 13t11 25.5q9 4 55 21.5t70 31.5q14 1 28 1q61 0 127 -11q19 -12 56 -23q7 -7 42.5 -38 t49.5 -54t14 -55q17 -18 17 -58v-15q0 -36 6 -58q-11 -76 -15 -166q-1 -12 -1 -38v-48q0 -15 1 -27q0 -42 -4 -61q16 -12 7 -47.5t-3 -50.5t20.5 -19t26.5 -1.5t23 -0.5q13 5 28 5q29 0 62 -19q19 -31 19 -58q0 -10 -3 -20q-16 -8 -20 -20q-17 -8 -43 -8q-26 -1 -60 7 q-49 11 -80 11q-14 0 -24 -2q-6 -2 -21 2t-18 -4h-12q-29 0 -87 7q-34 4 -59 4q-28 0 -45 -5q-22 22 -22 45q0 10 4 20q5 12 13 18.5t19.5 8.5t20.5 2t23 -1t20 -1q8 -6 26.5 -13.5t22.5 -9.5q6 2 19 5t22.5 6.5t16.5 7.5q-1 11 0.5 33.5t0 41t-10.5 29.5q2 3 8.5 8.5 t9.5 11t0 11.5q-15 9 -18 26t1 32.5t-1 31.5q10 13 10 35q-1 14 -5 32q-6 24 -5 41q0 14 4 23q-1 12 1.5 37t1.5 45t-9 35q0 8 6.5 22.5t6.5 25.5t-13 18q9 24 -2.5 43t-36.5 39.5t-33 31.5q-37 23 -86 23q-3 -1 -6 -1q-53 -2 -90 -30q-16 -20 -53 -49t-50 -43 q-25 4 -28 -14q8 -10 3 -20.5t-10.5 -15.5t-16.5 -13t-15 -13q-24 -38 -31 -51q9 -12 10 -30q0 -15 -8 -35q-7 -22 -7 -39q0 -16 7 -27q6 -21 -4.5 -62t-3.5 -61q18 -22 13 -36.5t-13.5 -38.5t-1.5 -40q-2 -4 -3 -8t0.5 -9t2.5 -8.5t4 -9.5l4 -8q4 -1 20.5 -4t25 -4t20.5 0 t20 8q4 9 11 9t17 -4.5t15 -4.5q3 -2 10.5 -7.5t11 -8.5t9 -8.5t9 -11.5t5.5 -13q1 -4 1 -9q0 -25 -26 -48q-30 -6 -97 -6q-38 0 -88 2q-115 4 -167 4h-18q-69 9 -80 45q0 11 -1.5 15z" />
<glyph unicode="o" d="M140 435.5q-2 30.5 0.5 52t15.5 38.5q0 13 2.5 26.5t5 23.5t8.5 24.5t8.5 21.5t11.5 22.5t11.5 20t13.5 22.5t12 20q9 9 33.5 40.5t44.5 40.5q17 27 46.5 40t66.5 22.5t57 21.5q40 8 81 8q59 0 118 -18q14 -8 43 -15.5t37 -10.5q14 -23 58.5 -55t57.5 -60q21 -4 29 -17.5 t7 -28.5t5.5 -30.5t24.5 -23.5q1 -20 14.5 -58t16.5 -57q3 -5 3.5 -18.5t2.5 -16.5v2q1 -20 1 -39q0 -134 -50 -213q6 -15 -10 -27t-13 -24q-19 -16 -39.5 -49.5t-43.5 -58.5t-56 -33q-10 -8 -38.5 -18t-39.5 -23q-10 -4 -41.5 -7t-44.5 -16h-9q-187 0 -321 129 q-11 22 -37.5 59.5t-42.5 70t-18 65.5q-16 17 -22 55t-9 45q1 16 -1 46.5zM267.5 388q1.5 -23 11.5 -40q8 -8 4.5 -20t-0.5 -21.5t20 -7.5q11 -4 3 -19t-3 -22q15 -28 55.5 -71t57.5 -72q13 0 40.5 -11.5t45.5 -5.5q32 -12 50 -9t49.5 10.5t51.5 6.5q26 -5 49 23t41 31 q41 37 54 63q49 46 61 160q2 3 5.5 17.5t10.5 21.5v-2q-7 12 -10 34t-14 33q-2 3 -0.5 4t8.5 3.5t12 5.5q-17 8 -22.5 21.5t-6.5 32.5t-3 26q-8 7 -21.5 36.5t-32.5 32.5q7 18 -14 32t-25 24q-24 3 -57.5 30.5t-46.5 32.5h-27q-66 0 -114 -12q-14 -2 -27.5 -6t-24 -7.5 t-24.5 -12.5t-20.5 -13t-21.5 -16.5t-20 -16.5t-22 -20t-21 -19q5 -25 -17.5 -58.5t-25.5 -47.5q23 -14 5 -36.5t-13 -33.5q3 -22 0.5 -40t-1 -41z" />
<glyph unicode="p" d="M53 822q0 9 2.5 19.5t1.5 16.5q15 25 41 27t48.5 -5.5t48.5 5.5q6 1 14 1q21 0 54 -6q36 -6 56 -6h9q4 -4 15.5 -11t18 -14.5t3.5 -19.5q3 -9 11 -14t17 -2q8 5 23.5 11t27 13.5t19.5 18.5q9 6 34.5 13.5t37.5 17.5q15 -1 37 7.5t35 12.5t38 -6q24 2 33.5 0t30 -9.5 t30.5 -10.5q26 6 38 1t32.5 -19.5t32.5 -18.5q16 -14 41 -54.5t51 -54.5q7 -12 29 -37.5t33.5 -47.5t9.5 -46q9 -14 19 -45t19 -45v2q-1 -15 -1.5 -67.5t-2.5 -77t-13 -61.5t-32 -62q-12 -63 -61.5 -115t-126.5 -106q-84 -34 -152 -34q-27 0 -51 5q-17 13 -58.5 22t-58.5 25 q-22 6 -29.5 34t-27.5 34q-3 1 -8.5 3t-11 3t-11.5 0q-6 -6 -10.5 -23.5t-15.5 -23.5q-3 -17 4.5 -49t7.5 -46q4 -5 9.5 -16.5t8.5 -15.5q-1 -10 -10 -41t-6 -51.5t27 -32.5q3 -4 9.5 -13.5t10.5 -14.5t12 -12t14.5 -6.5t18.5 1.5q15 13 36.5 13.5t46.5 -3t40 -0.5 q5 -5 21 -9t22 -14q-4 -7 0.5 -18.5t10 -20.5t1.5 -17t-22 -11q-2 -20 -14.5 -26.5t-33.5 -7t-30 -5.5q-43 10 -108 10h-7q-10 -1 -19 -1q-57 0 -95 3q-21 0 -65 -4q-39 -4 -72 -4h-8q-36 1 -66 10q-47 7 -60 45q-2 14 6 32.5t9 21.5q14 1 45 14t49 10q10 5 36 1.5t34 6.5 q9 -9 26 -6q10 9 12 17q0 15 -2.5 47.5t-2.5 50.5t3 43.5t11 46.5q-6 20 -6 53q0 26 4 60q-6 17 -6 46q0 21 3 48q3 22 3 39q0 34 -11 49q-1 22 7.5 60.5t10 60t-13.5 59.5q2 8 2 19q0 19 -8 47q-5 21 -5 38t5 29q10 24 10.5 69.5t4.5 61.5q16 13 10 37q-11 17 -30.5 15 t-35 -8.5t-34.5 5.5q-22 -4 -48 -4h-23q-41 3 -63 23q-6 6 -6 15zM369 436q20 -14 15.5 -51.5t12.5 -48.5q-16 -15 -11 -29.5t18 -23t24 -22t8 -28.5q10 -5 13 -14.5t1.5 -17.5t4 -14.5t20.5 -6.5q-2 -8 -3 -9.5t4 -8.5t5 -8q21 -3 49 -14.5t47.5 -20.5t49 -14t53.5 6 q8 3 11 15t11 13q13 -20 24.5 -16.5t18 15.5t17 25.5t22.5 14.5q2 23 36.5 51.5t31.5 55.5q14 -1 20.5 5t11.5 19t9 19q-3 12 6 30.5t4 30.5q15 13 10.5 33.5t-9.5 33.5t20 31v-2q0 4 -6 9.5t-3 13.5q-3 9 -13.5 19.5t-16 19.5t-0.5 18q-3 4 -33 63t-59 81q-12 3 -19.5 12.5 t-11 19.5t-12.5 19t-23 10q-21 -9 -49 4t-41 12q-10 -4 -49 -7t-56 -17q-10 -18 -26 -28t-41.5 -19.5t-32.5 -12.5q0 -11 -10 -27.5t-12 -23.5q-20 -17 -22 -45q-1 -10 -1 -20q0 -21 3 -44q5 -36 1 -55q-12 -5 -16.5 -27t-5.5 -24z" />
<glyph unicode="q" d="M125 500q2 13 4.5 36t5.5 41.5t8 38.5q17 17 34 54.5t37.5 64.5t53.5 35q7 6 23 26.5t29.5 30.5t29.5 7q35 52 120 52q12 0 24 -1q6 5 46.5 1.5t49.5 -3.5q6 -8 24 -8.5t23 -4.5q30 -9 55 -45q9 3 22 -7t23 -9q23 -2 42 25t38 28q47 -4 62 -26q3 -7 4.5 -15.5t2 -14.5 t-2 -17t-3 -14.5t-4.5 -17t-4 -14.5q-2 -32 -2 -90v-41v-41q0 -59 -2 -94q6 -35 6 -94q0 -26 -2 -55q-1 -41 -1 -74q0 -47 3 -78q-13 -13 -4 -26q5 -3 1 -7q-2 -1 -2.5 -2t-0.5 -2q0 -14 3 -41t3 -48.5t-6 -39.5q1 -22 4.5 -61.5t4 -58t-2.5 -54.5q-8 -3 -8.5 -9t2.5 -12 t0 -14q11 -1 14 -6.5t1.5 -12t0 -15t9.5 -13.5q18 -6 42 -6t45 3.5t39.5 -5t27.5 -31.5q-4 -30 -19 -45q-14 7 -32 7q-20 0 -44 -9q-21 -3 -81.5 -5.5t-86.5 -6.5q-24 6 -71 6q-29 0 -67 -2q-25 -2 -46 -2q-62 0 -90 12q-15 15 -23 51q-2 6 0 13t6 15t5 13q11 11 39.5 5.5 t42.5 5.5q10 0 28 -1.5t28 -2t26 0t32 3.5q26 -26 41 -11q8 6 7 10t-5.5 10.5t-3.5 10.5q22 1 26.5 29t14.5 35q0 9 -6 34.5t-4 42.5t16 29q3 8 -1.5 15.5t-12 11.5t-13 7.5t-4 7t14.5 7.5q4 11 25.5 27.5t13.5 32.5q-5 6 -16 14t-15 14q-13 -2 -25.5 -23t-27.5 -24 q3 -8 0.5 -11t-11 -3h-10.5q-22 -22 -33 -20q-6 1 -12 8q-17 -3 -42 -23t-46 -20q-9 -7 -33 -0.5t-34 -1.5h-7q-30 0 -71 22q-47 24 -72 25q-98 76 -164 172q-5 19 -30.5 70t-26.5 83q-11 32 -11 70q0 35 9 76zM236 383q7 -14 11 -45t11 -45q22 -8 30.5 -42t16.5 -42 q19 -9 35 -33.5t32 -43t40 -19.5q9 -7 22.5 -11t23 -4.5t26 -1t22.5 -0.5q5 0 18 -1.5t22.5 -1t16.5 4.5q1 0 7.5 3t10 3.5t9 1t9 -2t5.5 -7.5q19 -9 25 1t7.5 29t8.5 24q9 -2 17 3.5t16 15.5t14 13q15 -1 24.5 7.5t17 24t11.5 19.5q-2 18 16.5 45t12.5 50q-2 3 -3 10.5 t-3.5 11t-9.5 0.5q-2 1 -2 12q22 9 26.5 29t0 39.5t5.5 40.5v2q-4 6 -19.5 17t-18.5 20q-6 17 14 37q4 7 3.5 20.5t-11.5 14.5q-15 5 -15.5 15.5t4 20.5t-5.5 23q-16 5 -23 18.5t-12 30t-16 25.5q-4 -1 -11.5 1.5t-10.5 2.5q-5 4 -20 14t-22.5 14.5t-20 11.5t-23.5 11.5 t-23 7.5q-8 2 -19 2q-19 0 -48 -8q-31 -9 -53 -9q-8 0 -15 1q-10 -6 -25 -25.5t-30 -30.5t-33 -6q-5 -15 -21 -30t-25 -29t-5 -35q-14 -5 -17.5 -18t-1 -25t-3 -18.5t-23.5 -1.5q-3 -7 4 -15t6 -12q-24 -33 -24 -73q0 -29 12 -62z" />
<glyph unicode="r" d="M74 76q-4 21 18 26q13 7 56 8q15 0 34 -2q56 -3 79 -2h11q12 -8 33 -8q18 0 43 6q8 12 11.5 26.5t4 22t-1.5 28t-2 24.5q0 25 2 39q-7 24 -7 69q0 18 1 39t1 39q0 44 -7 66q3 7 3.5 15t-0.5 19t-1 15q-4 30 15 49q-11 93 -15 109q4 5 6 10.5t2.5 12.5t0.5 11.5t-1.5 13 t-1.5 11.5v20q-15 11 -34 15.5t-49.5 5.5t-36.5 2q-10 -5 -20.5 -7.5t-23.5 -3.5t-21 -1.5t-24.5 0t-21.5 0.5q-27 2 -51 34q-3 17 -3 30q0 31 17 40q84 11 164 11.5t156 -11.5q36 -31 44 -46q8 -16 9 -36q15 0 27.5 7t28.5 21.5t22 18.5q12 2 45 25q26 18 47 16h8 q23 0 66 13q36 13 61 13q6 0 12 -1q15 12 31 4q9 -3 26 -11t30.5 -12t27.5 -4q2 -1 34.5 -25t53.5 -40l4 8v-4q0 -6 2 -6q14 -15 30.5 -46.5t24.5 -41.5q0 -5 3.5 -30.5t4 -35t0 -31.5t-4.5 -34.5t-12.5 -27t-22.5 -24.5q-15 -16 -34 -18t-43 2t-38 2q-3 14 -17.5 27 t-23.5 26.5t-2 34.5q-8 17 8.5 39.5t18.5 34.5q3 5 20 16q4 4 8 6q15 18 -6 39q-53 37 -95 37q-9 0 -17 -2q-19 2 -36 2q-46 0 -73 -16q-9 -12 -26 -18t-31.5 -8t-26.5 -12.5t-14 -31.5q-3 -5 -9 -2l-4 2q-7 3 -12 -2q-7 -11 -24 -24q-26 -26 -26 -50q0 -4 1 -8l-12 -12 l-9 -8q-26 -22 -16 -47q8 -15 -6.5 -43.5t-5.5 -47.5v-46v-40v-26q0 -27 1 -58q2 -46 7 -86q-4 -6 -7 -18t-7 -18q-5 -13 2 -27q8 -15 10 -27q10 -8 25 0l6 4q17 7 26 -4h17q38 0 112 6q18 1 34 1q57 0 93 -11q16 -3 24 -12.5t15 -28.5q11 -18 -6 -32q-2 -1 -15 -10t-18 -15 q-41 -10 -70 -10q-35 0 -55 14q-66 -4 -104 -4q-58 0 -102 8h-8q-41 0 -162 -8q-36 -2 -68 -2q-60 0 -107 8q-12 6 -26 27q1 8 -1.5 23t-2.5 22z" />
<glyph unicode="s" d="M173.5 75q-0.5 20 6 45t4.5 38q13 26 13.5 58t-3.5 56.5t1 57.5q7 4 15 12.5t12 12.5t14.5 6.5t21.5 -5.5q2 -3 10 -12.5t12.5 -14.5t13 -11t17.5 -9q2 -6 14 -11t11 -15q-17 -17 -8 -33q6 -10 21.5 -18.5t23.5 -18t2 -27.5q7 -12 28 -12q5 5 5 10q3 -2 21.5 -9.5 t23.5 -18.5q19 0 49.5 -11t44.5 -12q5 -13 28.5 -17.5t26.5 -19.5q11 1 26 16.5t17 16.5q18 -2 33 -3q42 0 61 19q9 3 21 13.5t18 13.5q-3 -6 2 -9.5t11.5 -3.5t11.5 3q3 3 13.5 10t12.5 14q-6 9 8.5 24.5t2.5 25.5q1 4 5 18t5.5 21t3.5 19t0.5 22.5t-4.5 21.5 q-13 7 -27.5 21.5t-25 26.5t-25.5 23.5t-28.5 11.5t-34.5 -9q-22 0 -49.5 6t-47 12t-44.5 6t-48 -10q-3 -1 -14.5 -4t-17.5 -4t-14.5 1t-14.5 9q-26 2 -71.5 13.5t-57.5 13.5q-9 5 -16.5 24.5t-22.5 24.5q-62 42 -68 104q14 33 7.5 62.5t-3.5 63.5t29 54q1 10 4 18t11 15.5 t11.5 11t17 11.5t15.5 10q20 -8 40 -0.5t34.5 20t35 19t40.5 -1.5q18 15 58.5 14t58.5 13q17 -18 51 -21.5t64.5 -9.5t43.5 -31q7 -1 26.5 -9.5t33.5 -6.5q4 5 16 30t27 33h28q28 0 39 -6q12 -29 12 -56q0 -14 -3 -28q0 -4 -3 -12.5t-2.5 -13.5t7.5 -7q-11 -12 -14 -32 t3 -39q-1 -17 3.5 -46t3 -52t-16.5 -42q-47 9 -61 23q-7 8 -11 18q-1 2 -3 6.5t-3 7.5t-4.5 5.5t-7.5 3.5q-9 16 -4 34.5t0 32.5t-29 11q-6 6 -15 15.5t-15 16.5t-14.5 14t-17 10t-19.5 3t-23 -6q-10 -1 -27.5 17.5t-23.5 21.5q-12 -2 -52.5 -2.5t-60.5 -12.5q-10 14 -59 9 q-13 -22 -55.5 -33.5t-55.5 -34.5q-12 -12 -17.5 -41.5t-15.5 -40.5q-1 -21 23 -45t28 -39q10 5 25.5 -8.5t19.5 -15.5q22 -1 61 -7t59 -8t61 2q8 12 13 11t14 -8t14 -7q42 7 76 7q78 0 118 -35q5 3 13 0.5t11.5 -1.5t9.5 -4t8.5 -6t8 -7t7 -8.5t7 -9t7.5 -9.5 q38 -25 57.5 -69t19.5 -88.5t-7 -88.5q4 2 7 -3q2 -2 0 -2q-3 0 -7 1l2 2q-61 -94 -95 -127q-60 -59 -128 -59q-8 0 -17 1q-20 -10 -64 -10t-53 -2q-3 1 -9.5 7.5t-12.5 6.5q-11 0 -40.5 0.5t-46 1t-40 4.5t-39.5 11q-4 11 -12.5 17t-16.5 7t-21.5 2t-19.5 2q-2 6 -10 13.5 t-10 9.5q-4 1 -10 -3t-9.5 -5.5t-7.5 4.5q-9 -7 -16 -22.5t-16 -26t-25 -10.5q-7 0 -9.5 -1t-8.5 1t-8 2t-7.5 3.5t-7 4t-7 4t-6.5 4.5q-16 14 -16.5 34z" />
<glyph unicode="t" d="M102 842q0 13 12 25.5t27 19.5q11 5 26 5q17 0 39 -6q41 -12 60 -9q7 -1 23.5 -3.5t25.5 -3t22 0.5t23.5 7.5t18.5 18.5q-7 6 -2.5 39t4.5 39q0 16 -4 24q13 24 10.5 46.5t-8.5 48t-11.5 47t2 43t31.5 37.5q8 9 22.5 6.5t21.5 -6t20.5 -12t19.5 -11.5q17 -25 19 -55.5 t-5.5 -56.5t-11.5 -57t0 -58q-3 -15 3.5 -41.5t3.5 -38.5q9 -14 32.5 -15.5t30.5 -5.5q6 1 14 1t18 -0.5t15 -0.5q30 0 43 15q34 -15 76 -18q15 -1 29 -1q26 0 48 4q34 6 79 9q22 2 41.5 2t35.5 -2q6 -5 27 -13q13 -3 18 -14q0 -21 -2 -31q0 -25 -7.5 -40.5t-30.5 -22.5 q-20 0 -74 4q-15 1 -28 1q-26 0 -46 -5q-31 11 -43.5 15t-37.5 2t-40 -19q-34 10 -98 10q-11 0 -30 -2.5t-29.5 -3t-30.5 3.5q-11 -13 -15 -35q0 -6 1.5 -18t1.5 -17q0 -4 -1.5 -14.5t-1.5 -15.5t0.5 -13t2.5 -14.5t6 -13.5q-3 -79 -21 -136q5 -15 5 -43q0 -14 -1 -30 q0 -49 13 -66q2 -14 -6.5 -34.5t-12.5 -32.5t6 -33q7 -4 12.5 1t6.5 5q4 -10 -1 -24.5t-5 -26t14 -21.5q4 -17 31 -24q18 -7 20 -25q37 -24 85 -29q10 -1 21 -1q36 0 68 14q3 2 14 12t14.5 13t12.5 11.5t13 14t9.5 14t9 16.5t5.5 17q-5 30 -8 35q16 18 22.5 38t8.5 51.5 t4 41.5q3 24 12 41q35 14 63 14q25 0 43 -12q4 -19 4 -41q0 -40 -12 -92q-3 -11 -17.5 -62t-19.5 -77q-4 -29 -43 -66t-47 -61q-11 -2 -20.5 -5.5t-24.5 -12t-18 -9.5q-28 -14 -51 -14q-9 0 -17 2q-19 -6 -39.5 -6t-36.5 2t-39.5 10.5t-34.5 13.5t-37 17.5t-34 15.5 q-2 8 -14 16h-4q-11 8 -7 23q-36 33 -49 80q-24 69 -33 88q0 7 1 49t2 59t5.5 47t12.5 52q-12 35 -12 82v81q-4 8 2 27q4 20 -11 25q16 30 16 52q0 6 -1 11q-3 12 -12 20t-17.5 10.5t-24.5 5.5t-22 5q-24 0 -59 -14q-34 -7 -60 4q-7 4 -35 4q-21 0 -28 14q-20 23 -20 45 q0 9 3 17z" />
<glyph unicode="u" d="M57 860q7 16 33 25q16 -9 50 -8q14 1 28 1q12 1 22 0q37 0 52 -12q28 3 54 -9.5t42 -33.5q-5 -8 -6 -17.5t0.5 -21.5t1.5 -16q6 -8 2.5 -35t9.5 -35q-9 -19 1.5 -56t4.5 -54q-1 -18 -8 -46t-12.5 -48.5t-4.5 -46.5t13 -48q0 -14 -2 -47t-2 -50.5t2.5 -44t10.5 -48.5 t22 -41q8 2 17 -3t13 -5q4 -16 20 -22t40.5 -8.5t34.5 -6.5q17 6 52 13.5t59.5 13.5t50 23.5t36.5 45.5q32 9 47.5 34.5t25.5 63t21 54.5q5 12 5 34q0 24 -6 58q-4 22 -4 40q0 35 16 52q3 10 -1.5 23t-9.5 23t-2 20t19 16q0 8 2 29.5t2.5 32t-3 26t-11.5 27.5q-22 6 -42 6 q-13 0 -25 -2q-21 -4 -43 -5q-11 0 -22 1q-35 3 -57 28q0 6 -1 27.5t2.5 35.5t15.5 23q21 4 51 4q20 0 45 -2q9 9 15 7.5t18.5 -7.5t19.5 -6q20 7 42 7q31 0 65 -15q12 -5 24.5 -27t24.5 -24q-2 -6 -3.5 -34.5t-13.5 -37.5q0 -16 -7 -46t-7 -54t14 -43q5 -17 -9 -45.5 t-3 -48.5q3 -26 3 -68q0 -29 -2 -66q-1 -33 -1 -59q0 -45 4 -70q5 -10 10.5 -33.5t14 -41t24.5 -25.5q12 -6 41 -9t50 -11t28 -29q-2 -15 0 -25.5t1 -21.5t-7 -19q-3 -2 -11 -5.5t-10 -4.5h-7q-19 0 -61 -4q-26 -2 -48 -2t-42 2q-38 4 -63 27q-2 6 -14.5 33t-11.5 44 q-5 13 -29 13q-22 -19 -24.5 -21t-23.5 -19.5t-27 -21t-25.5 -17.5t-28.5 -17t-27.5 -12.5t-31 -11.5t-30 -5.5t-34.5 -3t-35 3.5h-8q-74 0 -123 51q-22 3 -41.5 17.5t-23.5 35.5q-1 12 -12 30.5t-13 21.5q0 11 -4.5 20.5t-14 21t-12.5 17.5q-10 86 -10 150v21q3 70 7 177 q3 64 2 111q0 31 -1 55q-9 26 -30 39q-16 10 -47 9.5t-55.5 4t-33.5 27.5q-9 15 -4 57z" />
<glyph unicode="v" d="M47 776q-8 34 2 51q29 17 67 24.5t65.5 7.5t74.5 -2.5t68 -2.5q8 0 32.5 2.5t37 2t31 -3t31.5 -12.5t21 -26q5 -10 5.5 -18t-2.5 -13t-9 -9.5t-11.5 -7.5t-14 -6.5t-13.5 -6.5q-18 -2 -51 -1.5t-51 -0.5q-6 -3 -8.5 -7t-2 -9.5t2 -10t4.5 -12t4 -10.5q20 -61 53 -97 q-2 -24 18.5 -62t18.5 -61q12 -7 15 -33t5 -30q6 -13 14 -39.5t17 -45.5t23 -34q3 -25 23 -69t22 -68q15 -8 34 11t27 22q0 14 12.5 38t10.5 37q6 15 25.5 84t41.5 105q8 14 12 42.5t13 43.5q-2 16 7.5 42t8.5 42q5 11 19.5 33t22 40t7.5 37q-10 11 -31.5 13.5t-29.5 7.5 q-12 -1 -8 -18q1 -2 -1 0q-2 1 -8 8q-6 1 -21 2.5t-24.5 4t-17.5 7.5q-9 19 -2 61q8 16 41.5 23t42.5 12q13 1 29 1q24 0 55 -2q52 -3 95 -3t75 10q3 -1 14 -2.5t15.5 -2.5t13.5 -3.5t14 -5t11.5 -6.5t10.5 -10t7 -13l2 2q1 -18 -8 -30.5t-19 -17t-28.5 -11t-26.5 -10.5h-13 q-65 0 -85 -37q-15 -20 -25 -71t-27 -72q-13 -31 -35.5 -111.5t-45.5 -120.5q-1 -18 -9.5 -51t-9.5 -37q-11 -3 -15.5 -24t-10.5 -27q-2 -17 -19 -54t-16 -61q-4 -9 -12 -38t-18.5 -46t-29.5 -24q-23 7 -44 3t-40.5 2t-27.5 29q-7 14 -23.5 58t-30.5 65q-13 18 -22 63 t-25 64q-14 30 -37 93.5t-38 93.5q-12 69 -35 98q-4 12 -16 37.5t-18 46t-5 41.5q-3 4 -20 37.5t-35 40.5q-25 -4 -47 -4q-55 0 -99 22z" />
<glyph unicode="w" d="M39 827q-7 30 33 45q8 1 22.5 5t24.5 3t20 -10q18 -1 48 4t55 8.5t50.5 2.5t41.5 -18.5t20 -51.5q-8 -17 -24 -25.5t-40.5 -13.5t-35.5 -10q-16 -17 -17 -38t7.5 -50.5t9.5 -40.5q13 -4 18 -17t0 -26q-7 -26 -5.5 -38t10 -37.5t10.5 -37.5q23 -13 22 -50.5t19 -51.5 q4 -10 3.5 -38.5t8.5 -33.5q7 -7 6.5 -22t2 -27.5t16.5 -17.5q25 -3 45 14q-5 12 -5 30q0 16 4 38q5 28 5 47q0 12 -2 22q40 10 49 43q12 30 12 55q0 7 -1 15q-5 28 -5 65q1 4 1 7q0 41 17 71q5 9 13 15t14.5 9.5t19 5t18 1.5h21h17.5q15 0 33 -20t24 -23q6 -26 2 -50.5 t2 -52t27 -43.5v-12q0 -44 26 -59q-9 -13 -4 -51q22 -15 16.5 -49.5t14.5 -47.5q2 -4 5 -19t9 -22q7 10 13 0q17 21 23 74.5t24 73.5q7 22 16.5 86t24.5 94q16 51 16 131q30 30 17 55q-10 19 -35 27.5t-48.5 18.5t-33.5 32q8 21 26.5 38t40.5 18q16 1 38 1q35 0 84 -3 q78 -5 106 -5q16 -6 19.5 -18t0 -33.5t-3.5 -25.5q-3 -1 -14 -5t-16 -6t-15 -7t-15.5 -9t-13 -10t-12.5 -13.5t-8 -15.5q-21 -89 -21 -125v-6q-14 -27 -22.5 -59.5t-16 -77t-12.5 -64.5q-6 -29 -19.5 -104t-23.5 -115q-17 -31 -17 -51q0 -9 3 -16q-1 2 -4.5 3.5t-3.5 2.5 q-8 -88 -58 -115q-23 -2 -49.5 19t-38.5 24q-8 13 -14.5 36.5t-17.5 35.5q-7 13 -7 51t-18 47q-3 15 -8.5 58.5t-14.5 68.5q-17 18 -23 66.5t-24 66.5q-2 3 -4 18t-12 15q-9 -7 -9.5 -28t-2.5 -25q1 -6 1 -12q0 -23 -11.5 -57.5t-11.5 -56.5q0 -6 1 -12q-4 -9 -12 -26 t-12 -26.5t-9.5 -27t-4 -27.5t4.5 -28q-19 -12 -17.5 -41t-8.5 -41q2 -14 2 -26q0 -29 -12 -49q-11 -3 -32 -12t-35.5 -14.5t-33.5 -4t-33 15.5q-20 26 -31 60.5t-19.5 77t-16.5 65.5q-9 25 -18 104.5t-35 118.5q-2 23 -20 89q-14 52 -14 89q0 10 1 19q-5 13 -12 43 t-13 47.5t-23 34t-44 18.5q-31 16 -31 53z" />
<glyph unicode="x" d="M14 850q32 38 96 45q19 2 35 2q42 0 78 -12h8q26 0 103 4q19 1 36 1q43 0 74 -7q7 -2 12.5 -7t8.5 -8.5t7.5 -12t6.5 -11.5q11 -19 -6 -33q-4 -4 -16 -12l-11 -6q-3 -3 -6 -9q-4 -1 -13.5 -3.5t-14 -4t-10 -7t-7.5 -13.5q3 -30 17.5 -53.5t46 -53.5t39.5 -39 q24 -24 32 -51q7 -2 13 -2q27 0 45 35q33 30 61 78q31 52 53 82q4 11 -2 19.5t-16 8.5q-12 -3 -49 13q-19 22 -21 38q4 26 11 37q7 18 26 23q26 5 65 5q44 0 106 -6q51 -5 90 -6q50 0 81 9q9 -6 45 -6q29 -4 31 -23q-1 -8 0 -24.5t0 -24.5q-4 -26 -22 -33q-10 -1 -35 -4 t-40 -4.5t-36 0.5t-37 8q-26 -2 -42 -14.5t-33.5 -39t-24.5 -34.5q-16 -19 -39 -28q-10 -23 -43 -60q-27 -34 -31 -59q-6 -6 -29.5 -25.5t-33.5 -34.5t-13 -36q54 -41 115 -127q9 -12 27.5 -34t27.5 -34q18 -23 56 -61q24 -61 96 -68q19 10 44 10q30 0 68 -14q27 -15 31 -51 q-11 -43 -37 -54h2q-13 -1 -50 -7t-62.5 -5.5t-48.5 10.5h-11q-24 0 -61.5 -3t-69.5 -3h-15q-38 1 -73 13q-15 42 -15 64q0 5 1 9q7 11 23 16t30.5 6t26.5 9t14 25q-11 22 -51 57q-35 38 -41 63q-16 14 -37 47t-35 46q-22 1 -35.5 -12.5t-26 -34.5t-24.5 -29 q-40 -28 -43 -68q-47 -37 -61 -86q13 -13 59 -18q37 -7 39 -35q8 -40 -10 -51q-6 -1 -31.5 -9.5t-40.5 -9.5q-27 4 -82 4q-37 0 -86 -2q-18 -1 -34 -1q-78 0 -126 16q-18 15 -26 37q-2 5 -2 9q0 21 37 46q20 5 63.5 10t63.5 10q73 18 88 84q28 23 78 99q47 70 88 96 q20 22 20 46q0 7 -2 13t-25 23q-14 7 -8 18q-34 27 -108 123q-6 24 -24.5 46.5t-45.5 46t-39 38.5q-9 2 -23 2q-25 0 -67 -6q-9 -1 -17 -1q-44 0 -67 19q-4 6 -13 16.5t-11 12.5q-12 15 -9 33z" />
<glyph unicode="y" d="M43 817q-1 4 -1 7q0 31 38 57q25 14 75 14q30 0 70 -5q53 -7 90 -7q36 0 58 6q30 -10 56 -10q12 0 23 3q22 4 47 4q15 0 31 -2q43 -4 70 -30q31 35 88 40q12 2 22 2q44 0 76 -19q36 8 97 8q15 0 32 -1h51q47 0 74 3q30 -4 39 -58q-8 -16 -23 -26t-27 -13t-35 -5.5 t-31 -4.5q-33 -6 -52 -28t-24.5 -46.5t-15.5 -54.5t-25 -47q1 -15 -4.5 -29t-14.5 -30.5t-12 -26.5q-3 -8 -16.5 -43t-18.5 -49.5t-12.5 -41t-11.5 -48.5q-49 -89 -70 -162q-25 -48 -61.5 -177.5t-79.5 -189.5q-13 -61 -68 -101t-121 -46q-13 -4 -26.5 -4.5t-22.5 1t-24.5 4 t-24.5 3.5q-30 0 -56 18t-52 46.5t-41 38.5q-34 46 -37 114v13q0 60 24 106q55 46 103 46q15 0 30 -5q6 -13 22 -28t27 -24.5t17.5 -27.5t-4.5 -37q1 -18 -13.5 -35t-32 -28.5t-31 -23.5t-9 -25.5t32.5 -28.5q30 -17 65 -17q41 0 88 23q10 16 37.5 46.5t41 56.5t11.5 59 q24 31 46.5 96.5t33.5 85.5q1 6 1 12q0 34 -26 83q-31 59 -32 63q-12 14 -25 48.5t-30 47.5q-4 8 -9 24t-11.5 29t-16.5 23q1 7 -4 15t-13 11q-1 31 -31.5 87t-31.5 88q-3 1 -6.5 7t-5 7t-7.5 -4q-11 11 -26 46t-34.5 51t-53.5 3q-31 -2 -60 -3.5t-56 10t-40 36.5zM393 760 q0 -27 27.5 -67t30.5 -62q8 -13 25.5 -40t27.5 -43.5t20 -40t13 -44.5q14 -10 20 -41t12 -41q7 -3 19 -14.5t18.5 -14.5t22.5 0q8 9 14 21.5t9 22t7.5 26t6.5 24.5q28 32 30 50q18 32 31 97.5t25 92.5q2 7 22 34t12 44q-13 -2 -26 -2q-21 0 -41 5q-32 8 -67.5 24.5 t-55.5 21.5q-37 -33 -106 -33q-24 0 -52 4q-4 -2 -16 -3.5t-19 -6t-10 -14.5z" />
<glyph unicode="z" d="M168 66q21 52 60 103.5t92 110t81 97.5q21 28 67 83.5t67 84.5q39 24 82.5 94t78.5 94q4 5 1 11.5t-5 9t-8 7.5t-8 7q-78 3 -156 3t-155 -3q-34 -19 -45 -39v-14t2 -21.5t8 -13.5q-17 -28 -17 -58q0 -11 2 -22q8 -16 -2.5 -39.5t-11.5 -30.5q-26 -26 -57 -26q-12 0 -25 4 q-13 15 -20 35t-8 35.5t-2 42.5t-3 41q18 20 19.5 52.5t-4.5 60.5t0.5 57t34.5 45q83 11 165 13q41 1 92 1q51 1 112 -1q122 -2 161 -3q22 3 43 3l43 -3q5 -5 17 -9t18 -10t4 -20q6 -6 7.5 -15t0 -22t-1.5 -14q-18 -36 -75 -97t-74 -94q-26 -21 -53 -51.5t-38.5 -46.5 t-40.5 -57q-22 -19 -26 -45q-10 -2 -31 -23q-5 -30 -30 -53t-54 -46.5t-39 -50.5q-6 -8 -28 -28t-31.5 -37.5t-3.5 -38.5q20 -9 48 -9q16 0 34 3q15 1 39 1q42 0 112 -2q45 -1 77 -2q47 0 69 3q6 4 23.5 10.5t27.5 15t14 23.5q11 20 11 56q0 12 -2 25q-1 15 -1 27q0 34 9 52 q-2 6 -2 14q0 22 16 53q30 27 59 27q8 0 17 -2q11 -6 25.5 -21t17.5 -18q-8 -16 -9 -50t-4 -46q10 -16 -6 -19v-74t-3 -75t-22.5 -64.5t-56.5 -42.5q-52 4 -137 4q-80 0 -188 -4q-135 -4 -223 -4q-59 0 -97 2q-16 3 -31 20t-22 34z" />
<glyph unicode="&#xa0;" d="M143 115q16 8 61 7.5t58 12.5q3 1 10.5 0t12.5 0.5t8 7.5q2 6 9.5 0t12.5 -4q25 -3 93.5 -2.5t95.5 -3.5q8 2 7.5 8t-5.5 11q5 10 6 20t0.5 14.5t-4 18t-4.5 16.5q2 13 1.5 43t4 50.5t18.5 35.5q-1 9 -8 19.5t-6 21.5q-8 28 3.5 90t-3.5 92q7 28 5.5 86t6.5 86 q-27 48 -71 31q-7 -7 -63.5 -4t-69.5 2q-28 10 -52.5 2.5t-54 -6t-47.5 24.5q-11 43 -6 73q15 23 38.5 28.5t45.5 -0.5t49 -5.5t45 14.5q22 -19 88.5 -10.5t91.5 0.5q15 -7 47.5 1t44.5 -7q40 -61 29 -115q-16 -13 -18 -29t4.5 -30t11 -32t0.5 -32q5 -31 -3.5 -86.5 t-4.5 -87.5q8 -14 10 -29t-2.5 -33t-8.5 -28.5t-12 -30.5q26 -42 13 -77q-4 -11 -5.5 -24.5t-1.5 -21t1.5 -27t1.5 -24.5q7 -4 11 -18t11 -19q25 -12 81 -3t79 -9q31 -5 46 -3t45.5 10t45.5 10q1 -1 26 -13t32 -24h-3q10 -19 7 -42.5t-17 -41.5q-25 -13 -73.5 -9t-73.5 0 q-7 0 -25 -0.5t-27 -0.5t-21.5 3.5t-22.5 10.5q-21 2 -47.5 -5t-46 -14.5t-44 -6t-45.5 17.5q-44 -6 -149 -2.5t-150 0.5q-14 17 -51.5 11.5t-50.5 14.5q-6 -3 -8.5 -1t-1.5 6t0 9t-4 7q-13 31 -7 45z" />
<glyph unicode="&#xa7;" d="M155.5 780.5q-0.5 7.5 0 21t6 23t16.5 17.5q-1 9 2.5 18t6.5 13.5t11.5 15t10.5 12.5q7 -2 12.5 0.5t13.5 10t9 8.5q-2 14 8 31.5t20.5 29.5t9 27t-23.5 28q-14 14 -8.5 46.5t-11.5 45.5q-8 27 -2 51.5t27.5 60.5t25.5 44q18 5 34 28t32.5 39t41.5 11q88 48 178 33 q10 -2 15 -2t19 3t18 3q8 -2 23 -3t24 -2.5t20 -7.5t17 -16q16 3 27 -12.5t20 -18.5q20 4 35.5 -3t30.5 -22.5t22 -19.5q-5 -18 2 -31t24 -10q4 -7 13.5 -24t16 -31.5t9.5 -28.5q8 -3 10 -7t1.5 -7t-4.5 -12q0 -7 -3 -20t-3 -24t6 -20q-3 -49 -39 -78q-13 5 -32 -5t-30 -15 t-29 16q-13 -1 -20.5 14.5t-11.5 18.5q-5 4 -12.5 3.5t-14 -3t-12.5 0t-8 13.5q6 12 11.5 52.5t24.5 54.5q8 6 32 11.5t36.5 15.5t7.5 32q-11 8 -32 36t-39 36h-12h-13.5t-13 0.5t-14 1.5t-12 3t-12 5.5t-9 8t-7.5 10.5q-33 -5 -71.5 -4.5t-71.5 3.5t-67 -9.5t-58 -43.5 q-10 -7 -22 -5t-22.5 8t-20 4.5t-13.5 -15.5q1 -15 10 -16.5t21 2t16 0.5q-17 2 -30 -23q-2 -6 -12 -11.5t-15.5 -12.5t-1.5 -19q11 -11 20.5 -57t38.5 -59q14 -5 23.5 -27t22 -33.5t38.5 0.5q-3 -14 3.5 -22t19.5 -15t18 -12q22 2 40 -13.5t28.5 -34t29.5 -31.5t44 -7 q19 -12 56.5 -42t43.5 -34q18 -13 59 -34q4 -12 29.5 -21.5t26.5 -28.5q15 -15 43 -32t39 -27q1 -16 12 -35t21 -32t15 -32t-5 -36q0 -2 -2 -17.5t-2 -22t2 -17.5t8 -17q6 -31 -26.5 -75.5t-37.5 -65.5q-4 -3 -24 -16t-27.5 -24.5t-1.5 -27.5q19 -20 28.5 -47t16 -62.5 t12.5 -52.5q-1 -3 -11 -29t-13 -33t-13.5 -28t-19 -30.5t-23 -22t-30.5 -20.5q-16 -23 -40 -33.5t-56.5 -17.5t-49.5 -15q-15 4 -22 3t-21 -6.5t-20 -6.5q-54 1 -83 3t-70 13t-64 31q-21 -1 -41 10.5t-29 30.5q-7 8 -24 13t-23 9q-5 11 -21.5 40.5t-23 45t-15 41.5t-7.5 50 t10 49q13 5 8.5 25.5t11.5 25.5q-2 6 2 7t9.5 0t7.5 3q15 27 38.5 29.5t54 -4.5t48.5 -2q2 -15 22 -6q3 1 2 -1t-8 -10q10 -11 9.5 -38t3.5 -42q-14 -13 -21.5 -48t-11.5 -44l-60 -20q14 -5 25 -15.5t25 -29t18 -23.5q8 -15 32.5 -21t31.5 -12q32 5 84.5 -5.5t76.5 -8.5 q11 5 30 9.5t34 11t26 18.5q11 8 38 16.5t42 20t11 35.5q17 19 19.5 43t-4 41.5t-17.5 44t-15 39.5q-7 15 -26 19t-36 2t-27 6.5t-1 31.5q-10 13 -51 27q-2 -1 -8 -7.5t-11 -7.5q-6 6 -14 26.5t-18 26.5q-22 6 -56.5 35t-50.5 35q-18 6 -58.5 41t-70.5 35q-17 6 -44.5 36 t-49.5 31q-17 13 -36.5 50.5t-41.5 50.5q0 5 -7.5 42t-2.5 58l-4.5 22.5t-4 25zM215 702q3 -1 9 -6t12 -7.5t12 -0.5q37 -56 84 -88q11 0 22.5 -13t20.5 -16q25 -12 82 -62.5t96 -59.5q6 -12 20.5 -29.5t18.5 -26.5q17 6 31 -1.5t22.5 -20t22.5 -22.5t30 -9q10 -6 19 -29 q45 -3 87.5 19.5t67.5 60.5q15 8 11.5 21.5t1.5 25.5q22 27 6 84q-5 6 -10 27t-15 29q-17 -3 -25.5 7.5t-13.5 28.5t-10 25q-17 -10 -31 -4t-21 15.5t-18.5 23t-23.5 18.5q-15 5 -30 24t-31 33.5t-37 12.5q-23 0 -30.5 17t-11.5 36.5t-18 22.5q-11 -18 -23.5 -19.5t-22.5 7 t-24 18t-26 8.5q-13 21 -50 43.5t-48 32.5q-26 -26 -47 -15q-9 2 -15 -7.5t0 -16.5q-14 -19 -39 -44.5t-34 -35.5q10 -20 -7.5 -55.5t-13.5 -51.5z" />
<glyph unicode="&#xa9;" horiz-adv-x="1300" d="M82 541q-1 15 2.5 41.5t3.5 38.5q0 216 172 391q7 7 16 27.5t19 27.5q14 10 40.5 14t37.5 9q176 94 299 94q24 0 48.5 -6.5t53 -16.5t45.5 -14q198 -60 291 -158q5 -6 16.5 -17.5t19.5 -21t15 -20.5q45 -64 66 -217q2 -14 6.5 -33t7 -35.5t2.5 -34.5q0 -238 -96 -366 q-7 -9 -13.5 -16.5t-15.5 -15.5t-14 -12t-17 -13.5t-16 -12.5q-87 -69 -172 -96q-130 -45 -227 -45q-101 0 -148 12q-12 2 -33 14t-24 13q-144 54 -227 137q-133 136 -158 332zM156 549q1 -14 2.5 -25.5t5.5 -25.5t6 -20t9 -25t9 -23q45 -135 166 -227q63 -47 148 -74 t170 -27q123 0 235 52t180 145q82 113 82 311q0 168 -98 303q-120 162 -350 185q-7 1 -24 9.5t-25 8.5q-179 0 -310 -106q-92 -72 -145 -171t-53 -216q0 -9 -4 -36.5t-4 -37.5zM377 621q1 23 10 38q4 70 29 109q-2 24 22 58t27 48q16 7 29.5 31t27.5 31q63 40 143 33 t132 -58q9 -6 14 -6q6 6 15 30t26 30q20 7 41 -15q10 -21 7.5 -32t-11.5 -31.5t-10 -34.5q4 -19 5.5 -76t12.5 -88q1 -3 -6 -22q-24 -17 -53 -7q-20 12 -26 33t-7 48t-8 42q-2 20 -15.5 40t-26.5 31.5t-36 29.5q-29 16 -61 19.5t-62 -13.5q-3 -2 -23.5 -12.5t-29 -21 t-8.5 -28.5q-17 -8 -27.5 -20.5t-24 -41.5t-14.5 -30q-3 -14 -11.5 -42t-11.5 -44q0 -9 -2 -28.5t-2 -35t4 -28.5q-4 -23 3 -47q15 -16 28 -61.5t35 -65.5q15 -44 82 -70q37 -6 80.5 0t66.5 33q8 19 45 61.5t39 73.5q0 5 0.5 9.5t2 8t4.5 8t4.5 6.5t6 6.5t6.5 6t7 6t6 5.5 q43 10 58 -15h-2q-1 -4 -1.5 -14t-1 -17t-2.5 -10q-2 -5 -6 -20.5t-8 -22.5q-25 -79 -68 -125q-8 -22 -41 -42.5t-42 -32.5q-56 -23 -125.5 -16.5t-112.5 46.5q-6 8 -29 32t-35 41.5t-18 37.5q-22 25 -31.5 80t-13.5 67q-1 1 -1.5 7t-2.5 8q3 21 0 39t-2 41z" />
<glyph unicode="&#xab;" d="M80 524q3 19 8 33q2 5 3.5 16t0.5 11q21 6 33 12q2 2 8.5 11t9.5 9q5 3 13.5 5.5t13.5 5.5q39 12 53 24q25 4 27 4q14 5 21.5 24t23.5 26q3 1 10 0t10 0q8 3 20.5 10.5t22.5 11.5q12 10 33 25q14 10 41 14q4 2 10 9t13 7q18 2 20 4q2 1 6.5 7.5t7.5 7.5q7 3 31 19t39 22 q42 19 43 20q35 9 45 0q21 -15 15 -35q6 -16 4 -26q-1 -6 -11 -17t-20 -19t-10 -9q-15 4 -21 4q-4 0 -10 -4t-10 -8l-4 -3l-48 -24l-12 -16l-26 -5l-37 -20l-54 -37h-18l-29 -14l-14 -17l-23 -8q-22 -10 -24 -12q-13 -6 -20 -16t-25 -19q-4 -2 -11.5 -8t-11.5 -8l-12 -6 l-2 10h2q3 -2 15.5 -1.5t15.5 -0.5q3 -2 8 -12.5t8 -12.5q5 -2 8 -4.5t4.5 -4.5t4 -3t6.5 0l55 -31l33 -18l30 -11q21 -30 37 -40q1 -1 6 4t7 4q8 -3 26 -8.5t25 -8.5q12 -6 29 -23t22 -20l47 -26q6 -4 12 -4q12 -4 25 2q20 -29 20 -41q0 -10 -6 -19q7 -15 2 -20 q-3 -8 -13.5 -14t-19.5 -8l-10 -1q-25 9 -37 17q-2 1 -6 1t-6 1q-18 6 -22 6q-8 5 -24 18t-23 17q-9 4 -26 14t-34.5 16.5t-40.5 8.5q0 1 0.5 2l2 4t1.5 4v2q-3 1 -15 4t-15 4q-13 5 -32.5 19.5t-33.5 21.5q-10 5 -16.5 11t-8.5 7t-8 0t-10 0q-7 3 -12 19q-6 4 -56 29 q-16 8 -28 20q-2 1 -8.5 -3.5t-8.5 -4.5q-4 3 -1.5 9.5t-0.5 8.5q-20 10 -37 10q-2 19 -2 25q-1 1 -24 10zM424 526q3 19 8 33q2 5 3.5 16t0.5 11q21 6 33 12q2 2 8.5 11t9.5 9q6 3 14 6.5t11 4.5q5 2 14.5 5.5t14.5 5.5t12 6t12 9q27 3 29 7q3 1 7 8t7 8q3 2 21 13.5 t33 17.5q3 1 11 -0.5t11 -1.5q9 3 21.5 12.5t19.5 13.5q23 15 33 21q6 4 14.5 5.5t18.5 1.5t14 1q4 2 10 9.5t12 8.5q19 2 21 2q2 1 6 7.5t6 7.5q10 4 30.5 18t33.5 21l41 16q38 10 47 2q20 -14 14 -35q6 -16 4 -28q-1 -6 -11 -16.5t-19.5 -18t-8.5 -8.5q-14 4 -22 4 q-4 0 -10 -4t-9 -8l-4 -3l-43 -20l-8 -19l-31 -4l-35 -18l-57 -29l-20 -2l-29 -12l-14 -17l-21 -10q-23 -10 -29 -12q-9 -5 -19.5 -12t-23.5 -13q-3 -2 -11 -5t-11 -5t-11 -8t-14 -8q-14 -7 -14 -8q-3 4 -7 10l-5 8q1 0 3 -1q7 -4 13 -5q1 -1 13.5 -1.5t17.5 -2.5 q3 -2 8 -12t8 -13q29 -13 45 -8l58 -31l30 -18l31 -12q23 -27 41 -37q1 -1 3 1.5t4.5 5t4.5 1.5q8 -3 26 -8.5t25 -8.5q16 -8 48 -28l43 -27q8 -4 14 -6q6 -3 16.5 -1.5t12.5 3.5q2 -3 5 -8.5t7.5 -16.5t3.5 -16q0 -9 -6 -18q7 -15 4 -21q-3 -8 -13.5 -13t-20.5 -6l-9 -1 q-25 8 -39 14q-2 1 -5.5 1t-4.5 1q-18 6 -23 6q-10 5 -25.5 19t-21.5 18q-43 21 -96 27l2 10q-2 1 -9.5 2.5t-13.5 3.5t-8 4q-11 5 -30.5 18t-36.5 21q-7 4 -15 11t-12 8l-5 -2q-6 -3 -11 -3q-1 0 -2.5 5t-3.5 10t-5 6l-18 -2q-38 19 -61 29q-18 9 -29 20q-2 1 -8 -3.5 t-9 -4.5q-4 3 -1.5 10t-0.5 10q-9 4 -21.5 7.5t-14.5 1.5q-2 18 -2 24q-1 1 -3 1.5t-8 3t-14 5.5z" />
<glyph unicode="&#xad;" d="M135 540.5q-3 8.5 2.5 20t24.5 23.5q20 14 62.5 14t68.5 4q72 -9 219 2t233 -2q131 5 168 0q32 -6 50 -39h-2q3 -11 5 -18.5t2 -15.5t0.5 -10.5t-3 -10.5t-4.5 -10t-7.5 -13t-9.5 -16q-26 -9 -95 -5t-95 -5q-406 0 -539 4q-5 1 -19 2t-20 2.5t-13 6.5t-9 15q-2 11 -9 27 t-10 24.5z" />
<glyph unicode="&#xae;" horiz-adv-x="1300" d="M82 541q-1 15 2.5 41.5t3.5 38.5q0 216 172 391q7 7 16 27.5t19 27.5q14 10 40.5 14t37.5 9q176 94 299 94q24 0 48.5 -6.5t53 -16.5t45.5 -14q198 -60 291 -158q5 -6 16.5 -17.5t19.5 -21t15 -20.5q45 -64 66 -217q2 -14 6.5 -33t7 -35.5t2.5 -34.5q0 -238 -96 -366 q-7 -9 -13.5 -16.5t-15.5 -15.5t-14 -12t-17 -13.5t-16 -12.5q-87 -69 -172 -96q-130 -45 -227 -45q-101 0 -148 12q-12 2 -33 14t-24 13q-144 54 -227 137q-133 136 -158 332zM156 549q1 -14 2.5 -25.5t5.5 -25.5t6 -20t9 -25t9 -23q45 -135 166 -227q63 -47 148 -74 t170 -27q123 0 235 52t180 145q82 113 82 311q0 168 -98 303q-120 162 -350 185q-7 1 -24 9.5t-25 8.5q-179 0 -310 -106q-92 -72 -145 -171t-53 -216q0 -9 -4 -36.5t-4 -37.5zM360 897q0 17 15.5 28t40.5 11q9 0 63 -8q14 -2 58 -2q2 0 25.5 1.5t37.5 0.5l78 -6 q13 -1 37 6.5t28 7.5q31 0 52 -6t29 -11t23 -22.5t23 -24.5q41 -41 41 -104q0 -36 -4 -54.5t-20 -35.5q-16 -16 -25 -24t-27.5 -19t-39.5 -17q28 -4 43 -12t19 -14t6.5 -24.5t4.5 -24.5q13 -45 15 -70v-2v-2v-2.5t-0.5 -5.5t-0.5 -9t-0.5 -14t-0.5 -20q-1 -31 8 -44t33 -18 l67 -2q36 -2 32 -20q-3 -21 -45 -38q-31 -13 -63 -13q-21 0 -43 12t-29.5 19.5l-27.5 27.5q-2 2 -7 7.5t-6.5 7.5t-4.5 7t-4 9t-2 10.5t-1 15.5l-2 84q0 14 6 35.5t3 28.5q-10 18 -14.5 23.5t-20 9.5t-49.5 4l-66 -2q-41 0 -49 -4.5t-8 -26.5v-21v-45q0 -16 -7.5 -36.5 t-7.5 -26.5q-3 -41 5.5 -54.5t33.5 -11.5q2 0 14 -9t15 -9q6 1 23 10.5t20 9.5q16 0 26.5 -9.5t10.5 -26.5t-14 -28t-37 -11q-11 0 -70 8q-40 4 -61 4q-3 0 -22 11t-44 9q-5 -1 -19 -6t-24 -6q-2 -1 -8.5 -10.5t-7.5 -9.5q-23 0 -37.5 11t-14.5 28q0 15 11 25.5t26 10.5 q1 0 11.5 -1t17.5 -1q4 -1 11 -2t10 -2q15 0 29 7t18 18q2 5 1.5 12.5t-2 18.5t0.5 32l8 113l8 94l-16 86q-3 19 6 49.5t8 36.5q-3 35 -9.5 43t-29.5 8q-1 0 -19.5 -2.5t-23.5 -1.5q-18 -6 -27 -6q-15 -1 -27 10.5t-14 26.5zM575 676q0 -15 5.5 -17t48.5 -2l65 -2q45 0 71 6 t38 22t15 33t3 50q0 31 -2.5 46.5t-12.5 30t-32.5 20t-60.5 5.5q-96 0 -125 -18q-9 -5 -11 -14t-2 -50v-110z" />
<glyph unicode="&#xb0;" horiz-adv-x="555" d="M90 1120q10 41 42 78.5t71 46.5q6 1 21.5 2t25 4t16.5 11q60 8 94 -5q46 -25 78 -67.5t33 -89.5h-2q2 -43 -17 -82t-55 -57q-54 -36 -125 -33.5t-122 37.5q-64 43 -60 155zM174 1114q-4 -62 31 -84q29 -19 67.5 -20.5t67.5 18.5q21 9 31 30t8 44h2q-1 27 -19 51.5 t-43 36.5q-7 2 -53 2q-6 -9 -33 -14q-21 -4 -37.5 -23t-21.5 -41z" />
<glyph unicode="&#xb4;" d="M346 1056q-2 13 6 27q23 38 47 62q7 6 22 19.5t23.5 21.5t19.5 20t17 23q3 13 36.5 48.5t25.5 65.5q6 6 26 -1.5t25 10.5q-2 6 2.5 18t3.5 19q11 13 24 20t22.5 8t26 2.5t27.5 3.5q53 -3 70 -41q25 -23 18 -69h3q-40 -54 -142 -133q-14 -22 -66.5 -74t-68.5 -92 q-58 -54 -111 -37q-6 -2 -10 1t-8.5 10t-9.5 11q-2 9 -9.5 20t-12.5 17.5t-7 19.5z" />
<glyph unicode="&#xbb;" d="M70 281q1 6 12 16.5t21.5 18t11.5 6.5q12 -5 18 -5q4 0 10 4.5t9 8.5l4 4l43 20l10 19l29 2l34 18l60 33h18l29 12l14 17l23 10q22 8 28 10q8 5 17.5 12.5t23.5 14.5q1 1 23 8q5 2 12 9t10 9l3 2q3 1 4.5 2t4.5 2t3.5 1h1.5q4 -5 8 -12l3 -5h-1q-8 4 -14 4q-1 0 -13 1 t-16 5q-3 2 -8 11t-8 10q-36 16 -49 14l-56 29l-31 20l-30 9q-25 26 -41 36q-1 1 -5.5 -3t-6.5 -3q-7 3 -25 8.5t-25 8.5q-11 5 -47 28l-47 27q-8 4 -14 4q-4 2 -23 2q-20 27 -20 39q0 10 6 16q-7 15 -2 23q3 8 13 13t19 6l9 1q27 -8 37 -16h14q15 -5 21 -8q9 -5 25 -18 t24 -17q20 -10 27.5 -13t25.5 -7t41 -5q-4 -12 0 -12q2 -1 9.5 -2.5t13.5 -3.5t8 -4q10 -5 30 -17.5t37 -19.5q8 -4 14 -10.5t9 -7.5q1 0 4 1t5.5 1.5t6.5 -0.5q1 0 2 -5t4 -10t6 -6l19 2q38 -19 61 -31q8 -4 29 -18q2 -1 8 4.5t8 5.5q4 -3 2 -10.5t2 -9.5l35 -10 q2 -19 2 -25q1 -1 3 -1.5t8.5 -2.5t13.5 -4q-3 -21 -8 -35q-4 -12 -4 -27q-23 -6 -33 -12q-3 -2 -9.5 -10.5t-9.5 -9.5q-7 -4 -24 -11q-5 -2 -14.5 -5.5t-14.5 -5.5t-12 -6t-12 -9q-27 -2 -29 -4q-3 -1 -7 -9t-7 -10t-21 -13.5t-33 -17.5q-3 -1 -11.5 1t-10.5 2 q-9 -3 -21 -13t-20 -14q-12 -8 -33 -23q-6 -4 -15 -5.5t-18 -1.5t-12 -1q-5 -2 -11.5 -8.5t-11.5 -7.5q-18 0 -20 -2q-2 -1 -6.5 -7.5t-7.5 -7.5q-10 -4 -30 -17t-34 -19l-41 -19q-38 -9 -47 -2q-20 14 -14 35q-6 15 -6 29zM436 270q1 6 11.5 16.5t21 18t10.5 6.5 q13 -4 19 -4q4 0 10 4.5t10 8.5l4 4l47 24l11 17l28 6l35 18l55 37h19l31 14l12 17l22 8q23 10 27 12q13 6 19.5 16t23.5 19q4 2 11 9t11 9q6 3 2 2q-2 -1 -6 -2l17 -6q-3 2 -14.5 1t-14.5 1t-8.5 12.5t-9.5 12.5t-7.5 5t-4.5 4.5t-4 3t-7 -0.5l-57 31l-31 18l-29 9 q-22 31 -38 41q-1 1 -3.5 -1.5l-5 -5t-4.5 -2.5q-1 0 -21 7.5t-30 13.5q-12 5 -30 22t-21 19l-47 24q-7 4 -15 6q-4 2 -9.5 2t-9.5 -1l-3 -1q-21 27 -21 39q0 11 9 17q-7 15 -5 22q3 8 13 13.5t19 7.5l9 2q27 -9 39 -17h13q3 -1 11 -4t11 -4q8 -5 24 -19t23 -18q9 -4 26 -14 t34.5 -16.5t40.5 -8.5q0 -1 -0.5 -2l-2 -4t-1.5 -4v-2q2 -1 15 -4t15 -4q13 -5 32.5 -19.5t33.5 -21.5q10 -4 16.5 -9.5t9.5 -6.5q2 -1 8 -0.5t9 -1.5q5 -2 12 -17q2 -1 23 -11t32 -17q2 -1 29 -19q2 -1 8 3.5t8 4.5q4 -3 2.5 -10.5t2.5 -9.5l34 -10q2 -19 4 -25q1 -1 23 -8 v2q-3 -21 -8 -35l-4 -27q-23 -8 -35 -14q-3 -2 -9.5 -10.5t-9.5 -9.5q-1 0 -22 -9q-5 -2 -14.5 -5.5t-14.5 -5.5t-12 -6t-12 -9q-27 -4 -29 -6q-14 -5 -20.5 -24t-22.5 -26q-3 -1 -11.5 0t-11.5 0q-8 -3 -20.5 -10.5t-22.5 -11.5q-18 -15 -34 -23q-5 -3 -37 -16 q-4 -2 -11 -8.5t-14 -7.5q-18 0 -20 -2q-1 -1 -6.5 -7t-8.5 -6q-9 -5 -31.5 -21t-35.5 -22q-42 -19 -43 -20q-35 -9 -45 -2q-20 14 -17 35q-6 16 -4 30z" />
<glyph unicode="&#xc0;" d="M42.5 61q-3.5 -6 0.5 -12q21 -40 96 -49q25 4 80 4q14 -1 43 -4t45 -4q101 -4 144 39q3 20 -9 43q-32 28 -100 16q-16 7 -23.5 18.5t-7.5 27t2.5 27.5t8 30.5t6.5 25.5q6 18 0 37q17 26 24 53q6 11 12.5 18.5t16.5 11t16.5 6t20 1t18.5 -2t20.5 -3.5t18.5 -4q31 -4 45 -2 q19 -1 57.5 3.5t55.5 4.5q72 0 96 -49q41 -121 31 -176q-11 -25 -37 -21q-17 0 -25 2h-18q-2 -1 -6.5 -3.5t-8 -5t-6.5 -5.5q-4 -2 -12 -5.5t-10.5 -5t-8 -6t-4 -9t0.5 -13.5q1 -3 2.5 -8.5t2.5 -9t4 -7t7 -4.5q7 0 10 -6l4 -2q5 -4 7 -2q59 -16 157 -12q117 4 160 -2 q7 2 22.5 5t22.5 5h-2q24 7 35 29q2 11 2.5 19t-2 14.5t-3.5 10.5t-7 7.5t-8 5t-12 3.5t-12 2.5t-14 2.5q-9 1 -36.5 3.5t-46.5 7t-33 14.5q-25 17 -25 59q0 30 8 62q-25 20 -33 43.5t-10 58.5v13.5v14t-0.5 12.5t-1.5 14t-2.5 12t-4 13t-6.5 11.5t-9 12.5q-3 11 -13.5 50.5 t-19 64.5t-20.5 48q-9 30 -21 90.5t-14 69.5q-8 16 -8 37q-2 9 -3 26.5t-2.5 28t-7.5 24t-16 23.5q-4 17 -14 42t-16.5 41.5t-10.5 43t4 45.5q-8 13 -12 48q-4 31 -13 47q-34 43 -65 43q-57 2 -68 -54q-2 -8 -5 -25.5t-5 -25.5q-4 -31 -16 -43q-2 -44 -27 -125 q-30 -84 -37 -119q-11 -60 -38.5 -167.5t-37.5 -153.5q-9 -16 -20.5 -51t-13.5 -41q6 -26 -11 -68q-18 -40 -14 -63q-7 -12 -14 -29q-3 -9 -6.5 -31t-8 -39.5t-12.5 -29.5q-14 -54 -96 -62q-15 0 -35 -4q-2 -2 -7 -6t-7 -6l-12 -6t-10 -5.5t-5.5 -7.5zM360 1583q-8 42 15 59 q17 32 59 35q9 -2 24 -3t23 -2t18.5 -7t20.5 -18q-1 -5 4 -14t4 -15q4 -12 12 -11.5t14.5 5t14.5 -1.5q-5 -20 6 -36.5t27 -32t19 -28.5q6 -12 17 -23.5t27 -25t23 -20.5q20 -20 43 -53h-2q7 -21 4.5 -29t-11 -20.5t-9.5 -22.5q-4 -2 -11.5 -11t-15.5 -8q-45 -14 -94 35 q-14 31 -58 74t-57 61q-83 69 -117 113zM383 457q-5 35 14 73q20 58 21 70q6 24 9.5 71t12.5 83.5t33 62.5q1 21 -0.5 27.5t2.5 28t4.5 28.5t5.5 29t6.5 28.5t7.5 28t7 27.5q22 18 42 9.5t32 -30.5q3 -7 -2 -26q-4 -14 8 -21q-2 -11 4 -24q1 -1 3 -5t2.5 -6t2 -5.5t2 -6 t0.5 -5.5t-1 -6t-3 -5q5 -10 14 -37q3 -12 5.5 -35.5t6.5 -41t13 -34.5q-4 -32 16 -86q23 -59 21 -92q28 -46 0 -88q-23 -29 -76 -29q-6 1 -25.5 3t-26 2t-24.5 -1q-12 2 -37 2q-5 0 -24 -0.5t-27 0t-22.5 3t-26.5 8.5z" />
<glyph unicode="&#xc1;" d="M42.5 61q-3.5 -6 0.5 -12q21 -40 96 -49q25 4 80 4q14 -1 43 -4t45 -4q101 -4 144 39q3 20 -9 43q-32 28 -100 16q-16 7 -23.5 18.5t-7.5 27t2.5 27.5t8 30.5t6.5 25.5q6 18 0 37q17 26 24 53q6 11 12.5 18.5t16.5 11t16.5 6t20 1t18.5 -2t20.5 -3.5t18.5 -4q31 -4 45 -2 q19 -1 57.5 3.5t55.5 4.5q72 0 96 -49q41 -121 31 -176q-11 -25 -37 -21q-17 0 -25 2h-18q-2 -1 -6.5 -3.5t-8 -5t-6.5 -5.5q-4 -2 -12 -5.5t-10.5 -5t-8 -6t-4 -9t0.5 -13.5q1 -3 2.5 -8.5t2.5 -9t4 -7t7 -4.5q7 0 10 -6l4 -2q5 -4 7 -2q59 -16 157 -12q117 4 160 -2 q7 2 22.5 5t22.5 5h-2q24 7 35 29q2 11 2.5 19t-2 14.5t-3.5 10.5t-7 7.5t-8 5t-12 3.5t-12 2.5t-14 2.5q-9 1 -36.5 3.5t-46.5 7t-33 14.5q-25 17 -25 59q0 30 8 62q-25 20 -33 43.5t-10 58.5v13.5v14t-0.5 12.5t-1.5 14t-2.5 12t-4 13t-6.5 11.5t-9 12.5q-3 11 -13.5 50.5 t-19 64.5t-20.5 48q-9 30 -21 90.5t-14 69.5q-8 16 -8 37q-2 9 -3 26.5t-2.5 28t-7.5 24t-16 23.5q-4 17 -14 42t-16.5 41.5t-10.5 43t4 45.5q-8 13 -12 48q-4 31 -13 47q-34 43 -65 43q-57 2 -68 -54q-2 -8 -5 -25.5t-5 -25.5q-4 -31 -16 -43q-2 -44 -27 -125 q-30 -84 -37 -119q-11 -60 -38.5 -167.5t-37.5 -153.5q-9 -16 -20.5 -51t-13.5 -41q6 -26 -11 -68q-18 -40 -14 -63q-7 -12 -14 -29q-3 -9 -6.5 -31t-8 -39.5t-12.5 -29.5q-14 -54 -96 -62q-15 0 -35 -4q-2 -2 -7 -6t-7 -6l-12 -6t-10 -5.5t-5.5 -7.5zM383 457q-5 35 14 73 q20 58 21 70q6 24 9.5 71t12.5 83.5t33 62.5q1 21 -0.5 27.5t2.5 28t4.5 28.5t5.5 29t6.5 28.5t7.5 28t7 27.5q22 18 42 9.5t32 -30.5q3 -7 -2 -26q-4 -14 8 -21q-2 -11 4 -24q1 -1 3 -5t2.5 -6t2 -5.5t2 -6t0.5 -5.5t-1 -6t-3 -5q5 -10 14 -37q3 -12 5.5 -35.5t6.5 -41 t13 -34.5q-4 -32 16 -86q23 -59 21 -92q28 -46 0 -88q-23 -29 -76 -29q-6 1 -25.5 3t-26 2t-24.5 -1q-12 2 -37 2q-5 0 -24 -0.5t-27 0t-22.5 3t-26.5 8.5zM388.5 1361.5q-2.5 7.5 4.5 29.5q18 30 41 53q8 8 23.5 21t27 24t17.5 22q4 13 20.5 29.5t27 33t5.5 36.5 q5 4 11 2.5t11 -4.5t9.5 -1t7.5 11q-1 6 4 15.5t4 15.5q9 11 20 16.5t19 6.5t22 2t23 3q46 -3 64 -32q19 -19 14 -60h-2q-28 -38 -117 -117q-13 -18 -57 -61t-58 -74q-50 -47 -94 -30q-5 -2 -8.5 0.5t-7 8t-8.5 7.5q-2 10 -11.5 22.5t-12 20z" />
<glyph unicode="&#xc2;" d="M44.5 61q-3.5 -6 0.5 -12q21 -40 96 -49q25 4 80 4q14 -1 43 -4t45 -4q101 -4 144 39q3 20 -9 43q-32 28 -100 16q-16 7 -23.5 18.5t-7.5 27t2.5 27.5t8 30.5t6.5 25.5q6 18 0 37q17 26 24 53q6 11 12.5 18.5t16.5 11t16.5 6t20 1t18.5 -2t20.5 -3.5t18.5 -4q31 -4 45 -2 q19 -1 57.5 3.5t55.5 4.5q72 0 96 -49q41 -121 31 -176q-11 -25 -37 -21q-17 0 -25 2h-18q-18 -12 -20 -14q-2 -1 -13.5 -6t-14.5 -7.5t-6 -9t-1 -16.5q1 -3 2.5 -8.5t2.5 -9t4 -7t7 -4.5q7 0 10 -6l4 -2q5 -4 7 -2q59 -16 157 -12q117 4 160 -2q7 2 22.5 5t22.5 5h-2 q24 7 35 29q2 12 1.5 21.5t-1 15.5t-6 10.5t-8 7t-12 5t-13 3t-16.5 2.5q-9 2 -37 4t-47 6.5t-33 14.5q-25 17 -25 59q0 30 8 62q-25 20 -33 43.5t-10 58.5v13.5v14t-0.5 12.5t-1.5 14t-2.5 12t-4 13t-6.5 11.5t-9 12.5q-3 11 -13.5 50.5t-19 64.5t-20.5 48q-9 30 -21 90.5 t-14 69.5q-8 16 -8 37q-2 9 -3 26.5t-2.5 28t-7.5 24t-16 23.5q-4 17 -14 42t-16.5 41.5t-10.5 43t4 45.5q-8 13 -12 48q-4 31 -13 47q-34 43 -65 43q-57 2 -68 -54q-2 -8 -5 -25.5t-5 -25.5q-4 -31 -16 -43q-2 -44 -27 -125q-30 -84 -37 -119q-11 -60 -38.5 -167.5 t-37.5 -153.5q-9 -16 -20.5 -51t-13.5 -41q6 -26 -11 -68q-18 -40 -14 -63q-7 -12 -14 -29q-3 -9 -6.5 -31t-8 -39.5t-12.5 -29.5q-14 -54 -96 -62q-15 0 -35 -4q-2 -2 -7 -6t-7 -6l-12 -6t-10 -5.5t-5.5 -7.5zM263.5 1339.5q-1.5 8.5 6.5 18.5q14 25 39 47q6 6 19 18 t20 19.5t16 18.5t15 20q3 12 19.5 27t28.5 31t9 36q6 4 20 6.5t20 9.5t5 25q11 12 22.5 16t28.5 4.5t27 3.5q35 -4 49 -32q19 -14 21 -31q7 -5 19 -15t14 -12q8 -22 26 -38.5t23 -32.5q6 -12 17 -23.5t30.5 -28.5t25.5 -22q18 -16 39 -47q5 -18 3 -23t-11 -13t-12 -15 q-1 0 -9 -5t-10 -5t-10 1q-24 -8 -37 -3t-28 24q-15 32 -58.5 73.5t-56.5 59.5q-7 8 -24.5 24.5t-26.5 28.5q-39 -26 -47 -53q-14 -21 -58.5 -60t-58.5 -71q-3 -3 -9 -9.5t-9 -9.5t-8 -6.5t-9.5 -5t-10.5 -1t-14 2.5q-10 -2 -30 13q-3 6 -9.5 12.5t-10.5 10t-5.5 12z M385 457q-5 35 14 73q20 58 21 70q6 24 9.5 71t12.5 83.5t33 62.5q1 21 -0.5 27.5t2.5 28t4.5 28.5t5.5 29t6.5 28.5t7.5 28t7 27.5q22 18 42 9.5t32 -30.5q3 -7 -2 -26q-4 -14 8 -21q-2 -11 4 -24q1 -1 3 -5t2.5 -6t2 -5.5t2 -6t0.5 -5.5t-1 -6t-3 -5q5 -10 14 -37 q3 -12 5.5 -35.5t6.5 -41t13 -34.5q-4 -32 16 -86q23 -59 21 -92q28 -46 0 -88q-23 -29 -76 -29q-6 1 -25.5 3t-26 2t-24.5 -1q-12 2 -37 2q-5 0 -24 -0.5t-27 0t-22.5 3t-26.5 8.5z" />
<glyph unicode="&#xc3;" d="M44.5 63q-3.5 -6 0.5 -12q21 -40 96 -49q25 4 80 4q14 -1 43 -4t45 -4q101 -4 144 39q3 20 -9 43q-32 28 -100 16q-16 7 -23.5 18.5t-7.5 27t2.5 27.5t8 30.5t6.5 25.5q6 18 0 37q17 26 24 53q6 11 12.5 18.5t16.5 11t16.5 6t20 1t18.5 -2t20.5 -3.5t18.5 -4q31 -4 45 -2 q19 -1 57.5 3.5t55.5 4.5q72 0 96 -49q41 -121 31 -176q-11 -25 -37 -21q-17 0 -25 2h-18q-18 -12 -20 -14q-2 -1 -13.5 -6t-14.5 -7.5t-6 -9t-1 -16.5q1 -3 2.5 -8.5t2.5 -9t4 -6.5t7 -4q7 0 10 -7l4 -2q5 -4 7 -2q59 -16 157 -12q117 4 160 -2q7 2 22.5 5t22.5 5h-2 q24 7 35 29q2 12 1.5 21.5t-1 15.5t-6 10.5t-8 7t-12 5t-13 3t-16.5 2.5q-9 2 -37 4t-47 6.5t-33 14.5q-25 17 -25 59q0 30 8 62q-25 20 -33 43.5t-10 58.5v13.5v14t-0.5 12.5t-1.5 14t-2.5 12t-4 13t-6.5 11.5t-9 12.5q-3 11 -13.5 50.5t-19 64.5t-20.5 48q-9 30 -21 90.5 t-14 69.5q-8 16 -8 37q-2 9 -3 26.5t-2.5 28t-7.5 24t-16 23.5q-4 17 -14 42t-16.5 41.5t-10.5 43t4 45.5q-8 13 -12 48q-4 31 -13 47q-34 43 -65 43q-57 2 -68 -54q-2 -8 -5 -25.5t-5 -25.5q-4 -31 -16 -43q-2 -44 -27 -125q-31 -85 -37 -118q-11 -60 -38.5 -168 t-37.5 -154q-9 -16 -20.5 -51t-13.5 -41q6 -26 -11 -68q-18 -40 -14 -63q-7 -12 -14 -29q-3 -9 -6.5 -31t-8 -39.5t-12.5 -29.5q-14 -54 -96 -62q-15 0 -35 -4q-2 -2 -7 -6t-7 -6l-12 -6t-10 -5.5t-5.5 -7.5zM197 1417q-2 16 5.5 29.5t16 20t27.5 16.5t24 14q23 2 50.5 25 t56 41t59.5 12q12 -5 34 -22t41 -26t34 -3q14 2 35 -22.5t24 -26.5q14 9 28.5 4t22.5 -14t22.5 -19t29.5 -12q10 14 40.5 34t43.5 23q19 3 31 20t34 13q39 -10 41 -29q4 1 7.5 -1t4.5 -4t3 -7t3 -6v2q6 -42 -28 -60q-34 -5 -88.5 -50t-89.5 -46q-8 -6 -13 -4.5t-14 6 t-14 4.5q-16 -6 -30 1t-23 19.5t-24.5 28t-31.5 21.5q-29 -3 -75.5 28.5t-75.5 28.5q-25 4 -52.5 -14.5t-56.5 -40t-53 -23.5q-4 8 -26 15.5t-23 23.5zM385 459q-5 35 14 73q20 58 21 70q6 24 9.5 71t12.5 83.5t33 62.5q1 21 -0.5 27.5t2.5 28t4.5 28.5t5.5 29t6.5 28.5 t7.5 28t7 27.5q22 18 42 9.5t32 -30.5q3 -7 -2 -26q-4 -14 8 -21q-2 -11 4 -24q1 -1 3 -5t2.5 -6t2 -5.5t2 -6t0.5 -5.5t-1 -6t-3 -5q5 -10 14 -37q3 -12 5.5 -35.5t6.5 -41t13 -34.5q-4 -32 16 -86q23 -59 21 -92q28 -46 0 -88q-23 -29 -76 -29q-6 1 -25.5 3t-26 2 t-24.5 -1q-18 3 -37 3q-7 0 -24.5 -0.5t-26.5 -0.5t-23 2.5t-26 8.5z" />
<glyph unicode="&#xc4;" d="M40 71q3 8 4 12t8 9.5t10.5 8t11 7.5l10.5 7q12 3 36.5 5t40.5 4.5t31.5 13t20.5 30.5q13 18 20.5 59t18.5 58q-3 24 15 64.5t12 68.5q2 6 13.5 41t20.5 51q7 33 35.5 144.5t38.5 174.5q5 28 34 110t30 132q11 14 17 43.5t9 52.5t20.5 40t51.5 16q36 -2 69 -45 q6 -13 11.5 -47t15.5 -50q-8 -18 -4.5 -44.5t9 -43t15 -41.5t13.5 -41q22 -22 26.5 -70t14.5 -67q2 -12 8.5 -49.5t12 -63t12.5 -49.5q9 -18 17.5 -40t13 -38t11.5 -44t11 -41q17 -21 22 -51t3 -54.5t7 -52t35 -45.5q-1 -4 -3.5 -16.5t-3.5 -18t-1 -16t1.5 -17t6.5 -14.5 t13 -14q19 -14 55.5 -19t63.5 -6t44.5 -20.5t10.5 -61.5v-2q-5 -12 -15.5 -19t-18 -9.5t-25 -5t-21.5 -3.5q-44 6 -159.5 0.5t-157.5 11.5q-3 -3 -10.5 3.5t-12.5 5.5q-11 3 -16 34q-3 4 -0.5 10.5t1.5 9.5t3.5 8t5 7t6.5 6.5t7.5 6t8 5t8.5 4.5l9 4.5t8 4.5q7 1 26.5 -1.5 t32.5 1t19 18.5q2 11 2.5 21.5t-1.5 23t-4 21.5t-6.5 23t-7 20.5t-8.5 22.5t-8 20q-18 35 -49 43.5t-86 0t-68 -8.5q-18 -2 -57 7.5t-66.5 6t-42.5 -32.5q-6 -28 -22 -53q5 -17 0 -38t-13.5 -38.5t-5 -34.5t26.5 -28q58 9 104 -31q12 -23 9 -43q-34 -36 -89 -41.5 t-123.5 1.5t-103.5 1q-78 9 -98 51q-4 6 -1 14zM197 1316.5q0 15.5 10 29.5q6 4 10.5 9.5t9 14t6.5 12.5q11 1 19 5.5t17.5 12t17.5 11.5q16 -22 35 -22q15 3 30 -8t25 -11q35 -40 20 -84l-2 -2q-5 -7 -10.5 -24t-13 -26.5t-23.5 -10.5q-3 -2 -9 -8t-10.5 -9.5t-11.5 -3.5 t-14 6q-46 -7 -98 41q1 12 -3.5 32t-4.5 35.5zM391 455q21 -10 68 -10t63 -3q16 3 48.5 -1t58.5 -0.5t43 24.5l-2 2q27 41 2 84q2 33 -20 89.5t-17 90.5q-15 24 -20.5 73.5t-18.5 72.5q9 11 -2.5 31t-9.5 30q-9 5 -9 13t2.5 18t0.5 16q-12 21 -29.5 29t-36.5 -8 q-37 -139 -33 -195q-24 -26 -33 -62.5t-12.5 -83.5t-9.5 -71q-2 -19 -19.5 -65t-13.5 -74zM719 1329q-1 2 2.5 5t8.5 7t7 7q36 50 82 53q23 0 35 -2q4 -10 23.5 -16t19.5 -23q14 -7 19.5 -31t11.5 -31h-2v-10v-14q-27 -23 -21 -49q-6 -3 -17 -11t-18 -12.5t-18 -8.5t-21 -5 q-15 5 -30 1.5t-29.5 0t-19.5 18.5q-29 40 -33 121z" />
<glyph unicode="&#xc5;" d="M42.5 59q-3.5 -6 0.5 -12q21 -40 96 -49q25 4 80 4q14 -1 43 -4t45 -4q101 -4 144 39q3 20 -9 43q-32 28 -100 16q-16 7 -23.5 18.5t-7.5 27t2.5 27.5t8 30.5t6.5 25.5q6 19 0 37q17 26 24 53q6 11 12.5 18.5t16.5 11t16.5 6t20 1t18.5 -2t20.5 -3.5t18.5 -4q31 -4 45 -2 q19 -1 57.5 3.5t55.5 4.5q72 0 96 -49q41 -121 31 -176q-11 -25 -37 -21q-17 0 -25 2h-18q-2 -1 -6.5 -3.5t-8 -5t-6.5 -5.5q-4 -2 -12 -5.5t-10.5 -5t-8 -6t-4 -9t0.5 -13.5q1 -3 2.5 -8.5t2.5 -9t4 -7t7 -4.5q7 0 10 -6l4 -2q5 -4 7 -2q59 -16 157 -12q117 4 160 -2 q7 2 22.5 5t22.5 5h-2q24 7 35 29q2 11 2.5 19t-2 14.5t-3.5 10.5t-7 7.5t-8 5t-12 3.5t-12 2.5t-14 2.5q-9 1 -36.5 3.5t-46.5 7t-33 14.5q-25 17 -25 59q0 30 8 62q-25 20 -33 43.5t-10 58.5v13.5v14t-0.5 12.5t-1.5 14t-2.5 12t-4 13t-6.5 11.5t-9 12.5q-3 11 -13.5 50.5 t-19 64.5t-20.5 48q-9 30 -21 90.5t-14 69.5q-8 16 -8 37q-2 9 -3 26.5t-2.5 28t-7.5 24t-16 23.5q-4 17 -14 42t-16.5 41.5t-10.5 43t4 45.5q-8 14 -12 47q-4 32 -13 48q-34 43 -65 43q-57 2 -68 -54q-2 -8 -5 -25.5t-5 -25.5q-4 -31 -16 -43q-2 -44 -27 -125 q-30 -84 -37 -119q-11 -60 -38.5 -167.5t-37.5 -153.5q-9 -16 -20.5 -51t-13.5 -41q6 -26 -11 -68q-18 -40 -14 -63q-7 -12 -14 -29q-3 -9 -6.5 -31t-8 -39.5t-12.5 -29.5q-14 -54 -96 -62q-15 0 -35 -4q-2 -2 -7 -6t-7 -6l-12 -6t-10 -5.5t-5.5 -7.5zM354 1466 q9 40 40.5 74t70.5 43q48 8 63 25q62 8 97 -4q46 -25 77 -68t31 -90h-2q2 -43 -17 -82t-55 -55q-54 -35 -125 -33.5t-120 35.5q-64 43 -60 155zM383 455q-5 35 14 73q20 58 21 70q6 24 9.5 71t12.5 83.5t33 62.5q1 21 -0.5 27.5t2.5 28t4.5 28.5t5.5 29t6.5 28.5t7.5 28 t7 27.5q22 18 42 9.5t32 -30.5q3 -7 -2 -26q-4 -14 8 -21q-2 -11 4 -24q1 -1 3 -5t2.5 -6t2 -5.5t2 -6t0.5 -5.5t-1 -6t-3 -5q5 -10 14 -37q3 -12 5.5 -35.5t6.5 -41t13 -34.5q-4 -32 16 -86q23 -59 21 -92q28 -46 0 -88q-23 -29 -76 -29q-6 1 -25.5 3t-26 2t-24.5 -1 q-12 2 -37 2q-5 0 -24 -0.5t-27 0t-22.5 3t-26.5 8.5zM446 1458q-4 -55 29 -76q26 -18 61.5 -19t59.5 17q39 17 39 70v-2q-3 53 -53 84q-7 2 -52 2q-5 -9 -30 -14q-20 -4 -35.5 -22t-18.5 -40z" />
<glyph unicode="&#xc6;" horiz-adv-x="1492" d="M29 59q0 9 3 16t11.5 14t12 10t17.5 10t15 8q12 3 47.5 5.5t58 12t35.5 35.5q16 17 34.5 58.5t35.5 58.5q2 24 29.5 65t27.5 68q7 12 26 44.5t30 47.5q14 30 72 143t85 176q13 29 61.5 110.5t63.5 131.5q14 14 27.5 41t22.5 47t31.5 35t55.5 14q13 0 29 -4q30 10 96 6 q88 -5 238 -12q24 -4 70 5.5t71 -5.5q7 -8 20.5 -24.5t20.5 -24.5q-6 -30 9 -90.5t10 -91.5q42 -66 12 -117q-34 -26 -72 -10q-23 15 -25.5 61t-15.5 60q-4 19 1 51.5t-0.5 53.5t-34.5 34q-8 -2 -14.5 0.5t-14.5 8t-12 7.5q-32 1 -62 1.5t-54.5 1.5t-64.5 5 q-35 -18 -83.5 -16t-69.5 -10q0 -15 6 -27q-16 -27 -18 -52.5t3 -58.5t5 -49q15 -25 13 -43t-7 -47t0 -47q0 -1 -3 -32.5t-3 -47.5q15 -4 34 -5.5t39 -1.5t27 -1q8 -1 15.5 -1.5t11 -2t7.5 -2t5 -1.5t3.5 -0.5t3.5 0.5t4.5 2.5t6 4.5t9 7t12.5 10q4 16 -3 55t3 55 q25 49 49 55q30 0 43 -26q17 -49 13 -152t10 -157q-4 -17 -4 -46.5t-6 -48.5t-27 -32q-27 -4 -64 28q-14 15 -14.5 37.5t5 40t0 35.5t-29.5 29q-27 6 -34.5 8t-18 3t-13 0t-18.5 -2.5t-35 -2.5q-2 -1 -13 -4.5t-13 -4.5q2 -22 2.5 -66t1.5 -58q12 -22 9.5 -51t-11 -54.5 t-6 -53t23.5 -46.5q-2 -4 -9 -19.5t-9 -22t-4.5 -18t1 -19.5t11.5 -15q24 -19 90 -23q40 0 58 4q54 -1 215 6q13 6 13.5 17.5t-3 24t-0.5 18.5q3 19 7 47.5t6 41t7.5 34.5t14.5 47q6 19 24.5 31t38.5 14q44 -7 57 -39v2q12 -27 -2.5 -64.5t-9.5 -62.5q-8 -19 -11.5 -28.5 t-9 -28.5t-7.5 -32t-1.5 -29.5t5.5 -31.5q-5 -45 -52 -92q-26 -2 -83.5 2t-81.5 -2q-18 10 -33 10t-33.5 -3t-34.5 -1q-21 6 -59 6q-8 -4 -18.5 -6t-23.5 -4.5t-18 -3.5q-42 6 -158.5 0.5t-150.5 11.5q-5 -3 -11 3.5t-11 5.5q-6 2 -9 7t-4 14.5t-2 12.5q2 23 21.5 37 t50.5 27q4 1 6 2q7 1 25.5 -1.5t32.5 1t24 18.5q7 15 10.5 30t3.5 33t-0.5 28.5t-3 32.5t-2.5 28q-6 22 -21 33.5t-38 12.5t-44.5 -1t-49.5 -6t-45 -4q-19 -2 -55.5 7.5t-64.5 6t-50 -32.5q-12 -26 -35 -53q2 -13 -5.5 -30t-17 -31.5t-17 -29t-5 -27t19.5 -21.5 q62 10 92 -31q8 -23 -2 -43q-42 -36 -97.5 -41.5t-121.5 1.5t-102 1q-75 9 -88 51zM479 461q19 -10 60 -9.5t67 -2.5q18 4 50 -0.5t58.5 -1.5t47.5 24q38 42 22 86q9 31 2 90.5t9 89.5q-9 24 -3.5 73t-0.5 73q12 8 5 29.5t-3 31.5q-8 8 -6 14t7.5 16.5t4.5 16.5 q-5 21 -22 29t-42 -8q-68 -135 -78 -195q-30 -26 -48.5 -62t-33.5 -84t-26 -71q-7 -20 -37 -65.5t-33 -73.5z" />
<glyph unicode="&#xc7;" d="M108 650q-2 -37 3 -66.5t0 -61.5q4 -2 4.5 -10t5.5 -10q11 -31 17.5 -82t17.5 -93t39 -73q10 -34 28.5 -62.5t58.5 -72.5t46 -51q49 -44 117.5 -63.5t136 -15.5t133.5 25q16 19 48 38.5t56.5 40.5t34.5 52q82 82 111 205q5 11 12 35.5t14 36.5q5 7 5 31.5t1 31.5h2 q-17 33 -84 19q-2 -2 -12.5 -11t-14.5 -13t-11.5 -12.5t-10.5 -15t-5.5 -16t-2.5 -18.5q-4 -42 -29 -83.5t-56.5 -84.5t-43.5 -76q-28 -32 -75.5 -46.5t-93.5 -13t-95 4.5q-46 21 -86.5 57.5t-54.5 77.5q-37 30 -62 107t-51 104q-7 45 0 78q-6 23 -6 50t3 59.5t3 49.5 q4 24 39 142q8 15 26.5 55.5t36.5 65t45 39.5q0 26 16.5 43t46.5 32t40 23q50 30 110 25.5t105 -33.5q136 -87 143 -170q16 -38 11.5 -70t3.5 -67t40 -56q40 -9 80 10l5 10t3.5 10t-1.5 11q-19 54 -22 146.5t-7 119.5q-1 17 8 40t17 39t10 38t-13 39q-10 15 -27 20.5 t-30 -0.5q-25 -9 -38.5 -46.5t-24.5 -47.5q-21 -4 -33 8q-87 84 -218 95t-235 -56q-23 -11 -45 -48.5t-47 -49.5q-5 -24 -26.5 -53t-39 -59t-14.5 -62q-47 -65 -51 -184q-15 -24 -17 -61zM361.5 -371.5q-2.5 7.5 3.5 27.5q19 32 43 53q6 6 22.5 20.5t27 26t15.5 23.5 q4 13 20.5 29.5t27 32.5t5.5 36q6 5 15 1.5t14 -5t12 11.5q-1 6 4 15.5t4 15.5q10 11 20.5 17t18.5 7t22.5 2t22.5 3q45 -3 64 -33q20 -20 12 -62l-2 3q-28 -38 -117 -117q-12 -17 -55.5 -60.5t-56.5 -74.5q-51 -47 -96 -33q-5 -2 -8.5 0.5t-7 8.5t-7.5 9q-2 10 -11.5 22.5 t-12 20z" />
<glyph unicode="&#xc8;" d="M25 57q7 -33 55 -45q21 7 100 4t103 -2q28 -15 100.5 -3t101.5 9q23 -19 88 -10.5t89 0.5q16 -2 43 1t50.5 3t41.5 -10q27 6 97.5 2.5t98.5 -0.5q46 46 51 90q-3 12 -3.5 26.5t0 24t5.5 28t6 23.5t9 27t8 23q-4 23 11 71t3 76q-12 31 -57 41q-53 -8 -65 -47 q-13 -39 -15 -107t-8 -98q-3 -7 0.5 -20t2.5 -23.5t-15 -15.5q-19 -3 -147.5 -0.5t-143.5 2.5q-52 -9 -74 2q-92 -12 -139 -4q-9 0 -13.5 6.5t-7 17t-4.5 13.5q7 40 3.5 75t1 76.5t24.5 69.5q-14 11 -12 40t-13 40q-14 11 -10.5 25.5t10.5 25.5t-6 27q-10 46 13 53 q9 0 44.5 2.5t49 2.5h40.5t49 -2t44 -7q23 -10 28.5 -28.5t-0.5 -36t-5.5 -39.5t14.5 -37q35 -35 61 -33q22 14 28.5 33t6.5 50t4 48q-14 50 -9.5 157t-12.5 152q-14 27 -41 27q-27 -6 -52 -56q-10 -16 -3 -55t3 -55q-15 -11 -31 -17t-36 -6.5t-33 0t-38.5 4t-35.5 4.5 q-8 1 -24.5 0t-27 -1t-23 5t-21.5 17q1 47 0 84.5t1 84.5t7 85q8 18 0.5 57.5t-2.5 57.5q18 23 38 31t40.5 5t40.5 -8t45 -5t47 11q55 -5 157 -8.5t111 -3.5q5 -1 12 -6t14 -7.5t15 -0.5q30 -13 36.5 -34t1 -54t-2.5 -51q12 -13 13.5 -38.5t5.5 -47.5t22 -33 q19 -9 39.5 -5.5t34.5 15.5q27 51 -14 115q5 30 -10 90t-9 90q-29 37 -41 51q-36 12 -58 10t-57 -7.5t-57 -2.5q-79 3 -244 -0.5t-241 2.5q-36 13 -78 10q-25 -8 -56 -7.5t-58.5 5t-55.5 -3t-45 -30.5q1 -10 -0.5 -12.5t2 -11.5t4 -10.5t5.5 -9t5 -8.5l15 -7.5t17.5 -7.5 t16 -1.5t17.5 6.5q31 -6 60.5 -1.5t63 -0.5t52.5 -27q11 -30 2.5 -85t-0.5 -80q0 -9 -3 -25.5t-3 -30t6 -24.5q9 -38 -2 -54q-1 -40 -1 -85.5t0.5 -101t0.5 -85.5q7 -27 -7.5 -72.5t-8.5 -70.5q18 -16 18 -45t-5.5 -53t7.5 -50q3 -28 -7 -53.5t-30 -40.5q-43 -3 -60 -3 t-54 3t-58 4q-26 -10 -46 -30t-21 -44zM360 1583q-8 42 15 59q17 32 59 35q9 -2 24 -3t23 -2t18.5 -7t20.5 -18q-1 -5 4 -14t4 -15q4 -12 12 -11.5t14.5 5t14.5 -1.5q-5 -20 6 -36.5t27 -32t19 -28.5q6 -12 17 -23.5t27 -25t23 -20.5q20 -20 43 -53h-2q7 -21 4.5 -29 t-11 -20.5t-9.5 -22.5q-4 -2 -11.5 -11t-15.5 -8q-45 -14 -94 35q-14 31 -58 74t-57 61q-83 69 -117 113z" />
<glyph unicode="&#xc9;" d="M25 57q7 -33 55 -45q21 7 100 4t103 -2q28 -15 100.5 -3t101.5 9q23 -19 88 -10.5t89 0.5q16 -2 43 1t50.5 3t41.5 -10q27 6 97.5 2.5t98.5 -0.5q46 46 51 90q-3 12 -3.5 26.5t0 24t5.5 28t6 23.5t9 27t8 23q-4 23 11 71t3 76q-12 31 -57 41q-53 -8 -65 -47 q-13 -39 -15 -107t-8 -98q-3 -7 0.5 -20t2.5 -23.5t-15 -15.5q-19 -3 -147.5 -0.5t-143.5 2.5q-52 -9 -74 2q-92 -12 -139 -4q-9 0 -13.5 6.5t-7 17t-4.5 13.5q7 40 3.5 75t1 76.5t24.5 69.5q-14 11 -12 40t-13 40q-14 11 -10.5 25.5t10.5 25.5t-6 27q-10 46 13 53 q9 0 44.5 2.5t49 2.5h40.5t49 -2t44 -7q23 -10 28.5 -28.5t-0.5 -36t-5.5 -39.5t14.5 -37q35 -35 61 -33q22 14 28.5 33t6.5 50t4 48q-14 50 -9.5 157t-12.5 152q-14 27 -41 27q-27 -6 -52 -56q-10 -16 -3 -55t3 -55q-15 -11 -31 -17t-36 -6.5t-33 0t-38.5 4t-35.5 4.5 q-8 1 -24.5 0t-27 -1t-23 5t-21.5 17q1 47 0 84.5t1 84.5t7 85q8 18 0.5 57.5t-2.5 57.5q18 23 38 31t40.5 5t40.5 -8t45 -5t47 11q55 -5 157 -8.5t111 -3.5q5 -1 12 -6t14 -7.5t15 -0.5q30 -13 36.5 -34t1 -54t-2.5 -51q12 -13 13.5 -38.5t5.5 -47.5t22 -33 q19 -9 39.5 -5.5t34.5 15.5q27 51 -14 115q5 30 -10 90t-9 90q-29 37 -41 51q-36 12 -58 10t-57 -7.5t-57 -2.5q-79 3 -244 -0.5t-241 2.5q-36 13 -78 10q-25 -8 -56 -7.5t-58.5 5t-55.5 -3t-45 -30.5q1 -10 -0.5 -12.5t2 -11.5t4 -10.5t5.5 -9t5 -8.5l15 -7.5t17.5 -7.5 t16 -1.5t17.5 6.5q31 -6 60.5 -1.5t63 -0.5t52.5 -27q11 -30 2.5 -85t-0.5 -80q0 -9 -3 -25.5t-3 -30t6 -24.5q9 -38 -2 -54q-1 -40 -1 -85.5t0.5 -101t0.5 -85.5q7 -27 -7.5 -72.5t-8.5 -70.5q18 -16 18 -45t-5.5 -53t7.5 -50q3 -28 -7 -53.5t-30 -40.5q-43 -3 -60 -3 t-54 3t-58 4q-26 -10 -46 -30t-21 -44zM388.5 1361.5q-2.5 7.5 4.5 29.5q18 30 41 53q8 8 23.5 21t27 24t17.5 22q4 13 20.5 29.5t27 33t5.5 36.5q5 4 11 2.5t11 -4.5t9.5 -1t7.5 11q-1 6 4 15.5t4 15.5q9 11 20 16.5t19 6.5t22 2t23 3q46 -3 64 -32q19 -19 14 -60h-2 q-28 -38 -117 -117q-13 -18 -57 -61t-58 -74q-50 -47 -94 -30q-5 -2 -8.5 0.5t-7 8t-8.5 7.5q-2 10 -11.5 22.5t-12 20z" />
<glyph unicode="&#xca;" d="M27 57q7 -33 55 -45q21 7 100 4t103 -2q28 -15 100.5 -3t101.5 9q23 -19 88 -10.5t89 0.5q16 -2 43 1t50.5 3t41.5 -10q27 6 97.5 2.5t98.5 -0.5q47 47 52 90q-3 9 -3.5 19.5t-1 18.5t1.5 20.5t3.5 19t5.5 20t5.5 18t6.5 19t6 17.5q-4 23 11 71t3 76q-12 31 -57 41 q-53 -8 -65 -47q-13 -39 -15 -107t-8 -98q-3 -7 0.5 -20t2.5 -23.5t-15 -15.5q-19 -3 -147.5 -0.5t-143.5 2.5q-52 -9 -74 2q-92 -12 -139 -4q-9 0 -13.5 6.5t-7 17t-4.5 13.5q7 40 3.5 75t1 76.5t24.5 69.5q-14 11 -12 40t-13 40q-14 11 -10.5 25.5t10.5 25.5t-6 27 q-10 46 13 53q9 0 44.5 2.5t49 2.5h40.5t49 -2t44 -7q23 -10 28.5 -28.5t-0.5 -36t-5.5 -39.5t14.5 -37q35 -35 61 -33q22 14 28.5 33t6.5 50t4 48q-14 50 -9.5 157t-12.5 152q-14 27 -41 27q-27 -6 -52 -56q-10 -16 -3 -55t3 -55q-15 -11 -31 -17t-36 -6.5t-33 0t-38.5 4 t-35.5 4.5q-8 1 -24.5 0t-27 -1t-23 5t-21.5 17q1 47 0 84.5t1 84.5t7 85q8 18 0.5 57.5t-2.5 57.5q18 23 38 31t40.5 5t40.5 -8t45 -5t47 11q55 -5 157 -8.5t111 -3.5q5 -1 12 -6t14 -7.5t15 -0.5q30 -13 36.5 -34t1 -54t-2.5 -51q12 -13 13.5 -38.5t5.5 -47.5t22 -33 q19 -9 39.5 -5.5t34.5 15.5q27 51 -14 115q5 30 -10 90t-9 90q-29 37 -41 51q-36 12 -58 10t-57 -7.5t-57 -2.5q-79 3 -244 -0.5t-241 2.5q-36 13 -78 10q-25 -8 -56 -7.5t-58.5 5t-55.5 -3t-45 -30.5q1 -10 -0.5 -12.5t2 -11.5t4 -10.5t5.5 -9t5 -8.5l15 -7.5t17.5 -7.5 t16 -1.5t17.5 6.5q31 -6 60.5 -1.5t63 -0.5t52.5 -27q11 -30 2.5 -85t-0.5 -80q0 -9 -3 -25.5t-3 -30t6 -24.5q9 -38 -2 -54q-1 -40 -1 -85.5t0.5 -101t0.5 -85.5q7 -27 -7.5 -72.5t-8.5 -70.5q18 -16 18 -45t-5.5 -53t7.5 -50q3 -28 -7 -53.5t-30 -40.5q-43 -3 -60 -3 t-54 3t-58 4q-26 -10 -46 -30t-21 -44zM263.5 1339.5q-1.5 8.5 6.5 18.5q14 25 39 47q6 6 19 18t20 19.5t16 18.5t15 20q3 12 19.5 27t28.5 31t9 36q6 4 20 6.5t20 9.5t5 25q11 12 22.5 16t28.5 4.5t27 3.5q35 -4 49 -32q19 -14 21 -31q7 -5 19 -15t14 -12q8 -22 26 -38.5 t23 -32.5q6 -12 17 -23.5t30.5 -28.5t25.5 -22q18 -16 39 -47q5 -18 3 -23t-11 -13t-12 -15q-1 0 -9 -5t-10 -5t-10 1q-24 -8 -37 -3t-28 24q-15 32 -58.5 73.5t-56.5 59.5q-7 8 -24.5 24.5t-26.5 28.5q-39 -26 -47 -53q-14 -21 -58.5 -60t-58.5 -71q-3 -3 -9 -9.5t-9 -9.5 t-8 -6.5t-9.5 -5t-10.5 -1t-14 2.5q-10 -2 -30 13q-3 6 -9.5 12.5t-10.5 10t-5.5 12z" />
<glyph unicode="&#xcb;" d="M27 57q7 -33 55 -45q21 7 100 4t103 -2q28 -15 100.5 -3t101.5 9q23 -19 88 -10.5t89 0.5q16 -2 43 1t50.5 3t41.5 -10q27 6 97.5 2.5t98.5 -0.5q47 47 52 90q-3 9 -3.5 19.5t-1 18.5t1.5 20.5t3.5 19t5.5 20t5.5 18t6.5 19t6 17.5q-4 23 11 71t3 76q-12 31 -57 41 q-53 -8 -65 -47q-13 -39 -15 -107t-8 -98q-3 -7 0.5 -20t2.5 -23.5t-15 -15.5q-19 -3 -147.5 -0.5t-143.5 2.5q-52 -9 -74 2q-92 -12 -139 -4q-9 0 -13.5 6.5t-7 17t-4.5 13.5q7 40 3.5 75t1 76.5t24.5 69.5q-14 11 -12 40t-13 40q-14 11 -10.5 25.5t10.5 25.5t-6 27 q-10 46 13 53q9 0 44.5 2.5t49 2.5h40.5t49 -2t44 -7q23 -10 28.5 -28.5t-0.5 -36t-5.5 -39.5t14.5 -37q35 -35 61 -33q22 14 28.5 33t6.5 50t4 48q-14 50 -9.5 157t-12.5 152q-14 27 -41 27q-27 -6 -52 -56q-10 -16 -3 -55t3 -55q-15 -11 -31 -17t-36 -6.5t-33 0t-38.5 4 t-35.5 4.5q-8 1 -24.5 0t-27 -1t-23 5t-21.5 17q1 47 0 84.5t1 84.5t7 85q8 18 0.5 57.5t-2.5 57.5q18 23 38 31t40.5 5t40.5 -8t45 -5t47 11q55 -5 157 -8.5t111 -3.5q5 -1 12 -6t14 -7.5t15 -0.5q30 -13 36.5 -34t1 -54t-2.5 -51q12 -13 13.5 -38.5t5.5 -47.5t22 -33 q19 -9 39.5 -5.5t34.5 15.5q27 51 -14 115q5 30 -10 90t-9 90q-29 37 -41 51q-36 12 -58 10t-57 -7.5t-57 -2.5q-79 3 -244 -0.5t-241 2.5q-36 13 -78 10q-25 -8 -56 -7.5t-58.5 5t-55.5 -3t-45 -30.5q1 -10 -0.5 -12.5t2 -11.5t4 -10.5t5.5 -9t5 -8.5l15 -7.5t17.5 -7.5 t16 -1.5t17.5 6.5q31 -6 60.5 -1.5t63 -0.5t52.5 -27q11 -30 2.5 -85t-0.5 -80q0 -9 -3 -25.5t-3 -30t6 -24.5q9 -38 -2 -54q-1 -40 -1 -85.5t0.5 -101t0.5 -85.5q7 -27 -7.5 -72.5t-8.5 -70.5q18 -16 18 -45t-5.5 -53t7.5 -50q3 -28 -7 -53.5t-30 -40.5q-43 -3 -60 -3 t-54 3t-58 4q-26 -10 -46 -30t-21 -44zM150.5 1443.5q0.5 15.5 11.5 29.5q6 4 10.5 9.5t9 15.5t6.5 13q11 1 19 5t17 11t16 11q16 -22 34 -22q14 3 30 -7.5t28 -9.5q36 -41 18 -84v-2q-5 -7 -10.5 -24t-13.5 -27t-25 -12q-3 -2 -9 -8t-10.5 -9.5t-11 -3.5t-12.5 6 q-45 -7 -100 41q1 12 -3.5 32t-4 35.5zM741 1470q-1 2 3 4.5t9.5 6t6.5 4.5q1 2 6.5 9t6.5 9t6 8t7.5 7.5t7.5 5.5t9 5.5t10 3t12 1.5q37 0 49 -2q3 -8 11 -10.5t15.5 -3t13 -4.5t4.5 -15q14 -7 19 -30.5t11 -30.5v2v-27q-26 -22 -20 -47q-5 -3 -16.5 -11t-19 -12.5 t-18.5 -8.5t-22 -5q-15 5 -30 2t-30 0.5t-20 18.5q-31 43 -31 120z" />
<glyph unicode="&#xcc;" d="M139 80q-1 -12 0.5 -20.5t7.5 -14.5q47 -25 156 -25q17 -2 40.5 5t37 10t37.5 -10q7 12 28 12q32 -14 95 -10t90 -13q46 -5 103 -2.5t95 19.5q9 -1 33 -6.5t37.5 -7t31.5 3.5t30 20q26 39 6 72q-12 19 -35.5 23t-44.5 0t-43 3q-14 -7 -55 -2t-56 2q-67 3 -123 47 q-4 9 5.5 17t5.5 18q-4 5 -7.5 19t-11.5 16q-2 8 6 13.5t10 11.5q-8 77 5 114q-1 22 -5.5 59t-7.5 63.5t-2 59t8 56.5q-7 24 -9 54t-1 50.5t4 57t4 51.5q-1 7 -5.5 25t-5 24.5t2.5 24.5q0 1 -1.5 9.5t-2 10.5t-1.5 10t-1 11t-0.5 10t0 10.5t1.5 9.5t3 10l4.5 9t5.5 10 q8 11 0 36.5t7 35.5q-3 19 7.5 26t30 8.5t27.5 6.5q131 0 260 -3q39 20 31 52q-2 2 -7.5 9.5t-8.5 11.5t-9.5 10.5t-11.5 10t-12.5 5.5t-14.5 2q-80 -10 -372 -5.5t-369 3.5q-4 -6 -15 -14t-16 -15q-12 -31 19 -59q1 -1 4.5 -3.5t5 -3.5t5 -3t5 -3t5 -2t5.5 -1t5 -0.5t6 0.5 t6 3q17 2 43.5 -1t49 -2t42.5 12q54 -12 156 -4q19 -16 20.5 -46t-3.5 -54.5t5 -49.5q-8 -23 -11 -49.5t-2.5 -45t3 -50t2.5 -47.5q-2 -2 -2.5 -5.5t-2 -6.5t-5.5 -3q0 -12 2 -14q9 -27 1.5 -93t2.5 -96q-10 -30 -6 -97t-8 -97q-5 -17 -5.5 -31.5t1.5 -34.5t2 -34 q1 -5 6.5 -14t6.5 -13.5t-7 -13.5q-5 -12 -2 -28t16 -22q-1 -5 -8.5 -12.5t-7.5 -11.5q28 -11 -11 -38q-3 -2 -4 -3q-18 -10 -29.5 -7t-30.5 10t-32 5q-19 -9 -43.5 -10t-44 3.5t-47 10.5t-45.5 8q-17 -1 -39.5 -21.5t-30.5 -23.5q1 -6 0 -18zM360 1583q-8 42 15 59 q17 32 59 35q9 -2 24 -3t23 -2t18.5 -7t20.5 -18q-1 -5 4 -14t4 -15q4 -12 12 -11.5t14.5 5t14.5 -1.5q-5 -20 6 -36.5t27 -32t19 -28.5q6 -12 17 -23.5t27 -25t23 -20.5q20 -20 43 -53h-2q7 -21 4.5 -29t-11 -20.5t-9.5 -22.5q-4 -2 -11.5 -11t-15.5 -8q-45 -14 -94 35 q-14 31 -58 74t-57 61q-83 69 -117 113z" />
<glyph unicode="&#xcd;" d="M139 80q-1 -12 0.5 -20.5t7.5 -14.5q47 -25 156 -25q17 -2 40.5 5t37 10t37.5 -10q7 12 28 12q32 -14 95 -10t90 -13q46 -5 103 -2.5t95 19.5q9 -1 33 -6.5t37.5 -7t31.5 3.5t30 20q26 39 6 72q-12 19 -35.5 23t-44.5 0t-43 3q-14 -7 -55 -2t-56 2q-67 3 -123 47 q-4 9 5.5 17t5.5 18q-4 5 -7.5 19t-11.5 16q-2 8 6 13.5t10 11.5q-8 77 5 114q-1 22 -5.5 59t-7.5 63.5t-2 59t8 56.5q-7 24 -9 54t-1 50.5t4 57t4 51.5q-1 7 -5.5 25t-5 24.5t2.5 24.5q0 1 -1.5 9.5t-2 10.5t-1.5 10t-1 11t-0.5 10t0 10.5t1.5 9.5t3 10l4.5 9t5.5 10 q8 11 0 36.5t7 35.5q-3 19 7.5 26t30 8.5t27.5 6.5q131 0 260 -3q39 20 31 52q-2 2 -7.5 9.5t-8.5 11.5t-9.5 10.5t-11.5 10t-12.5 5.5t-14.5 2q-80 -10 -372 -5.5t-369 3.5q-4 -6 -15 -14t-16 -15q-12 -31 19 -59q1 -1 4.5 -3.5t5 -3.5t5 -3t5 -3t5 -2t5.5 -1t5 -0.5t6 0.5 t6 3q17 2 43.5 -1t49 -2t42.5 12q54 -12 156 -4q19 -16 20.5 -46t-3.5 -54.5t5 -49.5q-8 -23 -11 -49.5t-2.5 -45t3 -50t2.5 -47.5q-2 -2 -2.5 -5.5t-2 -6.5t-5.5 -3q0 -12 2 -14q9 -27 1.5 -93t2.5 -96q-10 -30 -6 -97t-8 -97q-5 -17 -5.5 -31.5t1.5 -34.5t2 -34 q1 -5 6.5 -14t6.5 -13.5t-7 -13.5q-5 -12 -2 -28t16 -22q-1 -5 -8.5 -12.5t-7.5 -11.5q28 -11 -11 -38q-3 -2 -4 -3q-18 -10 -29.5 -7t-30.5 10t-32 5q-19 -9 -43.5 -10t-44 3.5t-47 10.5t-45.5 8q-17 -1 -39.5 -21.5t-30.5 -23.5q1 -6 0 -18zM388.5 1361.5 q-2.5 7.5 4.5 29.5q18 30 41 53q8 8 23.5 21t27 24t17.5 22q4 13 20.5 29.5t27 33t5.5 36.5q5 4 11 2.5t11 -4.5t9.5 -1t7.5 11q-1 6 4 15.5t4 15.5q9 11 20 16.5t19 6.5t22 2t23 3q46 -3 64 -32q19 -19 14 -60h-2q-28 -38 -117 -117q-13 -18 -57 -61t-58 -74 q-50 -47 -94 -30q-5 -2 -8.5 0.5t-7 8t-8.5 7.5q-2 10 -11.5 22.5t-12 20z" />
<glyph unicode="&#xce;" d="M141 79.5q-1 -8.5 1 -18.5t8 -16q47 -25 155 -25q17 -2 40.5 5t37 10t37.5 -10q7 12 29 12q32 -14 94.5 -10t89.5 -13q46 -5 103 -2.5t95 19.5q9 -1 33 -6.5t37.5 -7t31.5 3.5t30 20q26 39 6 72q-12 19 -35.5 23t-44.5 0t-43 3q-14 -7 -55 -2t-56 2q-67 3 -123 47 q-4 9 5.5 17t5.5 18q-4 5 -7.5 19t-11.5 16q-2 8 6.5 13.5t10.5 11.5q-8 79 4 114q-1 22 -5.5 59t-7.5 63.5t-2 59t8 56.5q-7 24 -9 54t-1 50.5t4 57t4 51.5q-1 7 -5.5 25t-5 24.5t2.5 24.5q0 1 -1.5 9.5t-2 10.5t-1.5 10t-1 11t-0.5 10t0 10.5t1.5 9.5t3 10l4.5 9t5.5 10 q8 11 0 36.5t7 35.5q-3 19 7.5 26t30 8.5t27.5 6.5q131 0 260 -3q39 20 31 52q-2 2 -7.5 9.5t-8.5 11.5t-9.5 10.5t-11.5 10t-12.5 5.5t-14.5 2q-80 -10 -372 -5.5t-369 3.5q-4 -6 -15 -14t-16 -15q-12 -31 19 -59q1 -1 4.5 -3.5t5 -3.5t5 -3t5 -3t5 -2t5.5 -1t5 -0.5t6 0.5 t6 3q17 2 43.5 -1t49 -2t42.5 12q54 -12 156 -4q19 -16 20.5 -46t-3.5 -54.5t5 -49.5q-8 -23 -11 -49.5t-2.5 -45t3 -50t2.5 -47.5q-2 -2 -2.5 -5.5t-2 -6.5t-5.5 -3q0 -12 2 -14q9 -27 1.5 -93t2.5 -96q-10 -30 -6 -97t-8 -97q-5 -17 -5.5 -31.5t1.5 -34.5t2 -34 q1 -5 6.5 -14t6.5 -13.5t-7 -13.5q-5 -12 -2 -28t16 -22q-1 -5 -8.5 -12.5t-7.5 -11.5q28 -11 -11 -38q-3 -2 -4 -3q-18 -10 -29.5 -7t-30.5 10t-32 5q-19 -9 -43.5 -10t-44 3.5t-47 10.5t-45.5 8q-17 -1 -39.5 -21.5t-30.5 -23.5q1 -10 0 -18.5zM263.5 1339.5 q-1.5 8.5 6.5 18.5q14 25 39 47q6 6 19 18t20 19.5t16 18.5t15 20q3 12 19.5 27t28.5 31t9 36q6 4 20 6.5t20 9.5t5 25q11 12 22.5 16t28.5 4.5t27 3.5q35 -4 49 -32q19 -14 21 -31q7 -5 19 -15t14 -12q8 -22 26 -38.5t23 -32.5q6 -12 17 -23.5t30.5 -28.5t25.5 -22 q18 -16 39 -47q5 -18 3 -23t-11 -13t-12 -15q-1 0 -9 -5t-10 -5t-10 1q-24 -8 -37 -3t-28 24q-15 32 -58.5 73.5t-56.5 59.5q-7 8 -24.5 24.5t-26.5 28.5q-39 -26 -47 -53q-14 -21 -58.5 -60t-58.5 -71q-3 -3 -9 -9.5t-9 -9.5t-8 -6.5t-9.5 -5t-10.5 -1t-14 2.5 q-10 -2 -30 13q-3 6 -9.5 12.5t-10.5 10t-5.5 12z" />
<glyph unicode="&#xcf;" d="M141 79.5q-1 -8.5 1 -18.5t8 -16q47 -25 155 -25q17 -2 40.5 5t37 10t37.5 -10q7 12 29 12q32 -14 94.5 -10t89.5 -13q46 -5 103 -2.5t95 19.5q9 -1 33 -6.5t37.5 -7t31.5 3.5t30 20q26 39 6 72q-12 19 -35.5 23t-44.5 0t-43 3q-14 -7 -55 -2t-56 2q-67 3 -123 47 q-4 9 5.5 17t5.5 18q-4 5 -7.5 19t-11.5 16q-2 8 6.5 13.5t10.5 11.5q-8 79 4 114q-1 22 -5.5 59t-7.5 63.5t-2 59t8 56.5q-7 24 -9 54t-1 50.5t4 57t4 51.5q-1 7 -5.5 25t-5 24.5t2.5 24.5q0 1 -1.5 9.5t-2 10.5t-1.5 10t-1 11t-0.5 10t0 10.5t1.5 9.5t3 10l4.5 9t5.5 10 q8 11 0 36.5t7 35.5q-3 19 7.5 26t30 8.5t27.5 6.5q131 0 260 -3q39 20 31 52q-2 2 -7.5 9.5t-8.5 11.5t-9.5 10.5t-11.5 10t-12.5 5.5t-14.5 2q-80 -10 -372 -5.5t-369 3.5q-4 -6 -15 -14t-16 -15q-12 -31 19 -59q1 -1 4.5 -3.5t5 -3.5t5 -3t5 -3t5 -2t5.5 -1t5 -0.5t6 0.5 t6 3q17 2 43.5 -1t49 -2t42.5 12q54 -12 156 -4q19 -16 20.5 -46t-3.5 -54.5t5 -49.5q-8 -23 -11 -49.5t-2.5 -45t3 -50t2.5 -47.5q-2 -2 -2.5 -5.5t-2 -6.5t-5.5 -3q0 -12 2 -14q9 -27 1.5 -93t2.5 -96q-10 -30 -6 -97t-8 -97q-5 -17 -5.5 -31.5t1.5 -34.5t2 -34 q1 -5 6.5 -14t6.5 -13.5t-7 -13.5q-5 -12 -2 -28t16 -22q-1 -5 -8.5 -12.5t-7.5 -11.5q28 -11 -11 -38q-3 -2 -4 -3q-18 -10 -29.5 -7t-30.5 10t-32 5q-19 -9 -43.5 -10t-44 3.5t-47 10.5t-45.5 8q-17 -1 -39.5 -21.5t-30.5 -23.5q1 -10 0 -18.5zM150.5 1443.5 q0.5 15.5 11.5 29.5q6 4 10.5 9.5t9 15.5t6.5 13q11 1 19 5t17 11t16 11q16 -22 34 -22q14 3 30 -7.5t28 -9.5q36 -41 18 -84v-2q-5 -7 -10.5 -24t-13.5 -27t-25 -12q-3 -2 -9 -8t-10.5 -9.5t-11 -3.5t-12.5 6q-45 -7 -100 41q1 12 -3.5 32t-4 35.5zM741 1470q-1 2 3 4.5 t9.5 6t6.5 4.5q1 2 6.5 9t6.5 9t6 8t7.5 7.5t7.5 5.5t9 5.5t10 3t12 1.5q37 0 49 -2q3 -8 11 -10.5t15.5 -3t13 -4.5t4.5 -15q14 -7 19 -30.5t11 -30.5v2v-27q-26 -22 -20 -47q-5 -3 -16.5 -11t-19 -12.5t-18.5 -8.5t-22 -5q-15 5 -30 2t-30 0.5t-20 18.5q-31 43 -31 120z " />
<glyph unicode="&#xd1;" d="M25 104q-2 -29 11 -52.5t40 -33.5q11 -7 31.5 1t27.5 6q25 -13 55 -13t52 13q19 4 65 -3t68 1q9 0 32.5 -4t41.5 -3.5t30 9.5q5 12 29 32.5t24 38.5q0 14 -16.5 21.5t-19.5 13.5q-33 10 -62 -8q-3 0 -9.5 -1t-10 -0.5t-6.5 3.5q-11 5 -35.5 4.5t-41 5t-20.5 25.5 q5 28 -1.5 90.5t-0.5 93.5q0 3 2.5 16.5t3.5 17t2.5 15.5t1.5 17t0.5 15.5t-0.5 17t-3 15.5t-5 17q8 11 0 40.5t8 35.5q0 24 -26 39q0 20 13 51t16 47q-15 13 -16 33.5t3.5 38.5t-2.5 39q-1 4 1 11t3.5 12t-1 10t-11.5 8q9 15 -1.5 42.5t-4.5 41.5q14 20 8 84q6 13 3 29 t-9 29t-3.5 28t19.5 26q19 0 27 -11t8.5 -25t5 -30t15.5 -22q-7 -12 -3.5 -18t7 -6.5t13 -1t15.5 -2.5q10 -1 11 -10.5t-7 -12.5q-13 -10 -11.5 -19t9 -14t15 -14.5t4.5 -20.5q17 -18 26.5 -59.5t12.5 -48.5q13 -4 17.5 -24.5t15.5 -24.5q20 -3 24 -31q-6 -4 -6.5 -10 t2.5 -11.5t7 -13t5 -12.5q-7 -15 -1 -24.5t16.5 -14t19 -12.5t6.5 -19q-11 -12 -2.5 -34t0.5 -31q25 -8 30 -39t17 -41q21 -16 25 -66q15 -17 27 -54.5t16 -45.5q26 -14 49 -70q-5 -16 4.5 -47t1.5 -49q2 -3 8.5 -14.5t12.5 -17.5t14 -9q6 -10 12 -32t15 -37.5t26 -22.5 q48 -3 90 31q5 5 9 30q-12 27 -12.5 79t-2.5 67q13 15 2.5 58.5t-8.5 58.5q12 51 4 141q1 10 2 42.5t6 43.5q-1 24 2 122t-6 117q-6 16 2.5 44t8.5 38q-6 24 -9 52t-3 46.5t0.5 55.5t0.5 55q0 29 15.5 38t37.5 4t44.5 -6t37.5 7q29 17 29 41q4 28 -12 44.5t-43 19.5 q-55 -7 -131 0q-19 -17 -53 -13.5t-56 -3.5q-21 16 -46.5 17.5t-58 -3t-50.5 -3.5q-9 1 -14 -4t-5.5 -12.5t-1 -16.5t-0.5 -17q0 -4 -10 -10.5t-4 -17.5q13 -16 33 -16.5t36 3.5t37 -10q3 0 15 -2.5t18.5 -3t15 3t11.5 12.5q2 0 9 1.5t11 1.5h10t10 -3t7 -8 q15 -14 17.5 -35.5t-1 -40t1.5 -40.5q-9 -28 -7 -44.5t8.5 -48t6.5 -51.5q-15 -9 -6.5 -29.5t-3.5 -31.5q7 -30 -3.5 -86t-10.5 -76q8 -6 10 -17.5t0.5 -26.5t-0.5 -20q1 -6 -3.5 -18.5t-3.5 -22t13 -14.5q-9 -27 -5 -75.5t-5 -73.5q-19 -3 -16 -25q15 -15 13 -25.5 t-7.5 -26t-1.5 -24.5q-12 -2 -15.5 5t-3 17t-2.5 13q-3 13 -3 34t-3 34q-15 13 -23.5 55t-33.5 53q-11 11 -18 42t-13 40q-15 6 -22 31t-13 31q4 17 -0.5 33.5t-12.5 27t-22 27t-20 24.5q3 9 -6.5 26t-3.5 28q6 14 0 18.5t-19.5 7t-17.5 8.5q10 8 11.5 16.5t-2.5 14.5t-9 15 t-6 16q1 1 2 2.5t2 2.5t2 1q-21 7 -29.5 22.5t-8 31t-6 34t-22.5 29.5q-6 10 -24 17.5t-25 19.5q8 24 6.5 36.5t-8.5 35t-8 34.5q16 10 -1.5 25t-13.5 24q-34 29 -104 25q-22 -9 -34 -7.5t-32.5 6.5t-33.5 3q-7 0 -36.5 2.5t-41.5 2t-31.5 -7.5t-32.5 -22q-6 -9 -4 -20 t6 -17t10.5 -15t8.5 -15q16 5 49.5 -6.5t50.5 -8.5q4 -7 6.5 -5.5t7 7t7.5 6.5q1 -1 6 -3.5t7.5 -4.5t4.5 -6q-5 -62 -10 -86q0 -10 -2.5 -33.5t-3 -36t3 -30t12.5 -29.5q-9 -11 -10.5 -24.5t2 -25t8 -27.5t4.5 -27q-6 -10 -7.5 -21.5t0 -30t1.5 -24.5q-7 -19 -5.5 -58.5 t-6.5 -58.5q7 -19 9 -43t1 -41.5t-4 -48t-4 -43.5q23 -97 -2 -195q-5 -9 -2.5 -34.5t-3.5 -38.5q-25 -25 -95 -6q-46 -3 -77 -50zM197 1417q-2 16 5.5 29.5t16 20t27.5 16.5t24 14q23 2 50.5 25t56 41t59.5 12q12 -5 34 -22t41 -26t34 -3q14 2 35 -22.5t24 -26.5 q14 9 28.5 4t22.5 -14t22.5 -19t29.5 -12q10 14 40.5 34t43.5 23q19 3 31 20t34 13q39 -10 41 -29q4 1 7.5 -1t4.5 -4t3 -7t3 -6v2q6 -42 -28 -60q-34 -5 -88.5 -50t-89.5 -46q-8 -6 -13 -4.5t-14 6t-14 4.5q-16 -6 -30 1t-23 19.5t-24.5 28t-31.5 21.5q-29 -3 -75.5 28.5 t-75.5 28.5q-25 4 -52.5 -14.5t-56.5 -40t-53 -23.5q-4 8 -26 15.5t-23 23.5z" />
<glyph unicode="&#xd2;" d="M80 643q-4 -21 8.5 -68t1.5 -77q3 -15 10.5 -45.5t10.5 -46.5q13 -65 77 -195q-4 -22 17.5 -44t23.5 -38q4 -4 11 -12l10.5 -12t11.5 -9.5t14 -4t17 4.5q7 -3 12.5 -9.5t10.5 -16t8 -13.5q5 -3 13.5 -11.5t17 -13t18.5 -3.5q5 -16 18 -18.5t31.5 2t26.5 3.5 q12 -13 30 -19.5t28.5 -7.5t38.5 0t34 1q3 10 12.5 12.5t20 0.5t20.5 1q4 -2 11.5 -6.5l12.5 -7.5t12 -3.5t13 5.5q-1 17 17.5 23.5t21.5 11.5q17 -7 31 0t22 18.5t21.5 19.5t29.5 3q3 5 12.5 13.5t14.5 14.5t8.5 17t-4.5 20q6 16 21 28t32 13q0 12 -10 14q22 19 41.5 68.5 t40.5 69.5q3 10 14 31t13.5 31.5t-2.5 33.5q2 10 -4.5 30.5t-4.5 35.5t23 22v2q23 83 14 182t-57 170q-4 5 -2.5 22t-5.5 21q3 25 -18.5 56t-22.5 49q-1 8 -11.5 19t-17.5 13q-15 -3 -17 13t-5 18q-4 8 -28.5 28t-19.5 40q-15 32 -73 37q-9 16 -25.5 25t-29 11t-35.5 3 q-16 12 -53 8t-50 16q-10 -2 -77 -21.5t-103 -23.5q-29 -3 -53 -20.5t-49 -47t-39 -40.5q-11 -2 -21.5 -10t-13.5 -19q10 -21 -12.5 -42.5t-24.5 -33.5q-14 -16 -21 -36.5t-12 -47.5t-10 -41q-1 -4 -6 -12.5t-6.5 -13t0.5 -11.5q-21 -30 -26.5 -99t-8.5 -81zM198.5 679.5 q-3.5 16.5 2 32.5t22.5 25q2 8 -4 18.5t-6 12.5q19 10 20.5 47t16.5 49q15 14 20.5 51t22.5 50q-6 21 23 44t22 46q4 9 18 4t19 0q19 22 22 43q3 3 9.5 4t16 1t13.5 1q17 20 45 24.5t52.5 1.5t52.5 7q10 -6 50.5 -12t53.5 -27q9 1 19 -9.5t16 -11.5q42 0 51 -14 q-13 -13 -7 -26t16.5 -20t25 -18.5t18.5 -21.5q-6 -24 23 -49.5t25 -48.5q26 -8 28 -30t-3.5 -39.5t16.5 -27.5q13 -15 1.5 -44t8.5 -42q-17 -21 -4 -41q10 -6 9.5 -16.5t-4.5 -20t1 -20.5l2 2q10 -74 -10 -137q6 -17 0.5 -31.5t-17.5 -30t-16 -26.5q-4 -15 -0.5 -33 t-2.5 -34t-26 -19q-15 -1 -19.5 -12.5t-1.5 -24t-3.5 -20.5t-26.5 -5q-5 -6 -6 -23t-6 -24q-3 -1 -35.5 -22.5t-56.5 -14.5q-11 -15 -40 -25t-38 -20q-43 -19 -80 -4q-6 9 -16.5 14.5t-16 7t-22 3.5t-19.5 2q-5 -3 -13 -3.5t-20 0.5t-16 1q-11 17 -37.5 41t-45 46.5 t-22.5 47.5q-7 9 -28 30t-28.5 38t-2.5 41q-9 6 -9.5 13.5t3 18.5t2.5 19q-19 3 -24 31t-21 34q-1 14 -3 38.5t-3 44.5t0 36q-4 4 -6 8q5 15 4 34t-4.5 35.5zM360 1583q-8 42 15 59q17 32 59 35q9 -2 24 -3t23 -2t18.5 -7t20.5 -18q-1 -5 4 -14t4 -15q4 -12 12 -11.5t14.5 5 t14.5 -1.5q-5 -20 6 -36.5t27 -32t19 -28.5q6 -12 17 -23.5t27 -25t23 -20.5q20 -20 43 -53h-2q7 -21 4.5 -29t-11 -20.5t-9.5 -22.5q-4 -2 -11.5 -11t-15.5 -8q-45 -14 -94 35q-14 31 -58 74t-57 61q-83 69 -117 113z" />
<glyph unicode="&#xd3;" d="M80 643q-4 -21 8.5 -68t1.5 -77q3 -15 10.5 -45.5t10.5 -46.5q13 -65 77 -195q-4 -22 17.5 -44t23.5 -38q4 -4 11 -12l10.5 -12t11.5 -9.5t14 -4t17 4.5q7 -3 12.5 -9.5t10.5 -16t8 -13.5q5 -3 13.5 -11.5t17 -13t18.5 -3.5q5 -16 18 -18.5t31.5 2t26.5 3.5 q12 -13 30 -19.5t28.5 -7.5t38.5 0t34 1q3 10 12.5 12.5t20 0.5t20.5 1q4 -2 11.5 -6.5l12.5 -7.5t12 -3.5t13 5.5q-1 17 17.5 23.5t21.5 11.5q17 -7 31 0t22 18.5t21.5 19.5t29.5 3q3 5 12.5 13.5t14.5 14.5t8.5 17t-4.5 20q6 16 21 28t32 13q0 12 -10 14q22 19 41.5 68.5 t40.5 69.5q3 10 14 31t13.5 31.5t-2.5 33.5q2 10 -4.5 30.5t-4.5 35.5t23 22v2q23 83 14 182t-57 170q-4 5 -2.5 22t-5.5 21q3 25 -18.5 56t-22.5 49q-1 8 -11.5 19t-17.5 13q-15 -3 -17 13t-5 18q-4 8 -28.5 28t-19.5 40q-15 32 -73 37q-9 16 -25.5 25t-29 11t-35.5 3 q-16 12 -53 8t-50 16q-10 -2 -77 -21.5t-103 -23.5q-29 -3 -53 -20.5t-49 -47t-39 -40.5q-11 -2 -21.5 -10t-13.5 -19q10 -21 -12.5 -42.5t-24.5 -33.5q-14 -16 -21 -36.5t-12 -47.5t-10 -41q-1 -4 -6 -12.5t-6.5 -13t0.5 -11.5q-21 -30 -26.5 -99t-8.5 -81zM198.5 679.5 q-3.5 16.5 2 32.5t22.5 25q2 8 -4 18.5t-6 12.5q19 10 20.5 47t16.5 49q15 14 20.5 51t22.5 50q-6 21 23 44t22 46q4 9 18 4t19 0q19 22 22 43q3 3 9.5 4t16 1t13.5 1q17 20 45 24.5t52.5 1.5t52.5 7q10 -6 50.5 -12t53.5 -27q9 1 19 -9.5t16 -11.5q42 0 51 -14 q-13 -13 -7 -26t16.5 -20t25 -18.5t18.5 -21.5q-6 -24 23 -49.5t25 -48.5q26 -8 28 -30t-3.5 -39.5t16.5 -27.5q13 -15 1.5 -44t8.5 -42q-17 -21 -4 -41q10 -6 9.5 -16.5t-4.5 -20t1 -20.5l2 2q10 -74 -10 -137q6 -17 0.5 -31.5t-17.5 -30t-16 -26.5q-4 -15 -0.5 -33 t-2.5 -34t-26 -19q-15 -1 -19.5 -12.5t-1.5 -24t-3.5 -20.5t-26.5 -5q-5 -6 -6 -23t-6 -24q-3 -1 -35.5 -22.5t-56.5 -14.5q-11 -15 -40 -25t-38 -20q-43 -19 -80 -4q-6 9 -16.5 14.5t-16 7t-22 3.5t-19.5 2q-5 -3 -13 -3.5t-20 0.5t-16 1q-11 17 -37.5 41t-45 46.5 t-22.5 47.5q-7 9 -28 30t-28.5 38t-2.5 41q-9 6 -9.5 13.5t3 18.5t2.5 19q-19 3 -24 31t-21 34q-1 14 -3 38.5t-3 44.5t0 36q-4 4 -6 8q5 15 4 34t-4.5 35.5zM388.5 1361.5q-2.5 7.5 4.5 29.5q18 30 41 53q8 8 23.5 21t27 24t17.5 22q4 13 20.5 29.5t27 33t5.5 36.5 q5 4 11 2.5t11 -4.5t9.5 -1t7.5 11q-1 6 4 15.5t4 15.5q9 11 20 16.5t19 6.5t22 2t23 3q46 -3 64 -32q19 -19 14 -60h-2q-28 -38 -117 -117q-13 -18 -57 -61t-58 -74q-50 -47 -94 -30q-5 -2 -8.5 0.5t-7 8t-8.5 7.5q-2 10 -11.5 22.5t-12 20z" />
<glyph unicode="&#xd4;" d="M82 643q-4 -21 8.5 -68t1.5 -77q3 -15 10.5 -45.5t10.5 -46.5q13 -65 77 -195q-4 -22 17.5 -44t23.5 -38q4 -4 11 -12l10.5 -12t11.5 -9.5t14 -4t17 4.5q7 -3 12.5 -9.5t10.5 -16t8 -13.5q5 -3 13.5 -11.5t17 -13t18.5 -3.5q5 -16 18 -18.5t31.5 2t26.5 3.5 q12 -13 30 -19.5t28.5 -7.5t38.5 0t34 1q3 10 12.5 12.5t20 0.5t20.5 1q4 -2 11.5 -6.5l12.5 -7.5t12 -3.5t13 5.5q-1 17 17.5 23.5t21.5 11.5q17 -7 31 0t22 18.5t21.5 19.5t29.5 3q3 5 12.5 13.5t14.5 14.5t8.5 17t-4.5 20q6 16 21 28t32 13q0 12 -10 14q21 19 41 68.5 t41 69.5q3 10 14 31t13.5 31.5t-2.5 33.5q2 10 -4.5 30.5t-4.5 35.5t23 22v2q23 83 14 182t-57 170q-4 5 -2.5 22t-5.5 21q3 25 -18.5 56t-22.5 49q-1 8 -11.5 19t-17.5 13q-15 -3 -17 13t-5 18q-4 8 -28.5 28t-19.5 40q-15 32 -73 37q-9 16 -25.5 25t-29 11t-35.5 3 q-16 12 -53 8t-50 16q-10 -2 -77 -21.5t-103 -23.5q-29 -3 -53 -20.5t-49 -47t-39 -40.5q-11 -2 -21.5 -10t-13.5 -19q10 -21 -12.5 -42.5t-24.5 -33.5q-14 -16 -21 -36.5t-12 -47.5t-10 -41q-1 -4 -6 -12.5t-6.5 -13t0.5 -11.5q-21 -30 -26.5 -99t-8.5 -81zM200.5 679.5 q-3.5 16.5 2 32.5t22.5 25q2 8 -4 18.5t-6 12.5q19 10 20.5 47t16.5 49q15 14 20.5 51t22.5 50q-6 21 23 44t22 46q4 9 18 4t19 0q19 22 22 43q3 3 9.5 4t16 1t13.5 1q17 20 45 24.5t52.5 1.5t52.5 7q10 -6 50.5 -12t53.5 -27q9 1 19 -9.5t16 -11.5q42 0 51 -14 q-13 -13 -7 -26t16.5 -20t25 -18.5t18.5 -21.5q-6 -24 23 -49.5t25 -48.5q26 -8 28 -30t-3.5 -39.5t16.5 -27.5q13 -15 1.5 -44t8.5 -42q-17 -21 -4 -41q10 -6 9.5 -16.5t-4.5 -20t1 -20.5l2 2q10 -74 -10 -137q6 -17 0.5 -31.5t-17.5 -30t-16 -26.5q-4 -15 -0.5 -33 t-2.5 -34t-26 -19q-15 -1 -19.5 -12.5t-1.5 -24t-3.5 -20.5t-26.5 -5q-5 -6 -6 -23t-6 -24q-3 -1 -35.5 -22.5t-56.5 -14.5q-11 -15 -40 -25t-38 -20q-43 -19 -80 -4q-6 9 -16.5 14.5t-16 7t-22 3.5t-19.5 2q-5 -3 -13 -3.5t-20 0.5t-16 1q-11 17 -37 41t-44.5 46.5 t-22.5 47.5q-7 9 -28 30t-29 38t-3 41q-9 6 -9.5 13.5t3 18.5t2.5 19q-19 3 -24 31t-21 34q-1 14 -3 38.5t-3 44.5t0 36q-4 4 -6 8q5 15 4 34t-4.5 35.5zM263.5 1339.5q-1.5 8.5 6.5 18.5q14 25 39 47q6 6 19 18t20 19.5t16 18.5t15 20q3 12 19.5 27t28.5 31t9 36 q6 4 20 6.5t20 9.5t5 25q11 12 22.5 16t28.5 4.5t27 3.5q35 -4 49 -32q19 -14 21 -31q7 -5 19 -15t14 -12q8 -22 26 -38.5t23 -32.5q6 -12 17 -23.5t30.5 -28.5t25.5 -22q18 -16 39 -47q5 -18 3 -23t-11 -13t-12 -15q-1 0 -9 -5t-10 -5t-10 1q-24 -8 -37 -3t-28 24 q-15 32 -58.5 73.5t-56.5 59.5q-7 8 -24.5 24.5t-26.5 28.5q-39 -26 -47 -53q-14 -21 -58.5 -60t-58.5 -71q-3 -3 -9 -9.5t-9 -9.5t-8 -6.5t-9.5 -5t-10.5 -1t-14 2.5q-10 -2 -30 13q-3 6 -9.5 12.5t-10.5 10t-5.5 12z" />
<glyph unicode="&#xd5;" d="M82 645q-4 -21 8.5 -68t1.5 -77q3 -15 10.5 -45.5t10.5 -46.5q13 -65 77 -195q-4 -22 17.5 -44t23.5 -38q4 -4 11 -12l10.5 -12t11.5 -9.5t14 -4t17 4.5q7 -3 12.5 -9.5t10.5 -16t8 -13.5q5 -3 13.5 -11.5t17 -13t18.5 -3.5q5 -16 18 -18.5t31.5 2t26.5 3.5 q12 -13 30 -19.5t28.5 -7.5t38.5 0t34 1q3 10 12.5 12.5t20 0.5t20.5 1q4 -2 11.5 -6.5l12.5 -7.5t12 -3.5t13 5.5q-1 17 17.5 23.5t21.5 11.5q17 -7 31 0t22 18.5t21.5 19.5t29.5 3q3 5 12.5 13.5t14.5 14.5t8.5 17t-4.5 20q6 16 21 28t32 13q0 12 -10 14q21 19 41 68.5 t41 69.5q3 10 14 31t13.5 31.5t-2.5 33.5q2 10 -4.5 30.5t-4.5 35.5t23 22v2q23 83 14 182t-57 170q-4 5 -2.5 22t-5.5 21q3 25 -18.5 56t-22.5 49q-1 9 -12 20t-17 13q-15 -3 -17 12.5t-5 17.5q-4 8 -28.5 28t-19.5 40q-15 32 -73 37q-9 16 -25.5 25t-29 11t-35.5 3 q-16 12 -53 8t-50 16q-10 -2 -77 -21.5t-103 -23.5q-29 -3 -53 -20.5t-49 -47t-39 -40.5q-11 -2 -21.5 -10t-13.5 -19q10 -21 -12.5 -42.5t-24.5 -33.5q-14 -16 -21 -36.5t-12 -47.5t-10 -41q-1 -4 -6 -12.5t-6.5 -13t0.5 -11.5q-21 -30 -26.5 -99t-8.5 -81zM197 1417 q-2 16 5.5 29.5t16 20t27.5 16.5t24 14q23 2 50.5 25t56 41t59.5 12q12 -5 34 -22t41 -26t34 -3q14 2 35 -22.5t24 -26.5q14 9 28.5 4t22.5 -14t22.5 -19t29.5 -12q10 14 40.5 34t43.5 23q19 3 31 20t34 13q39 -10 41 -29q4 1 7.5 -1t4.5 -4t3 -7t3 -6v2q6 -42 -28 -60 q-34 -5 -88.5 -50t-89.5 -46q-8 -6 -13 -4.5t-14 6t-14 4.5q-16 -6 -30 1t-23 19.5t-24.5 28t-31.5 21.5q-29 -3 -75.5 28.5t-75.5 28.5q-25 4 -52.5 -14.5t-56.5 -40t-53 -23.5q-4 8 -26 15.5t-23 23.5zM200.5 681.5q-3.5 16.5 2 32.5t22.5 25q2 8 -4 18.5t-6 12.5 q19 10 20.5 47t16.5 49q15 14 20.5 51t22.5 50q-6 21 23 44t22 46q4 9 18 4t19 0q19 22 22 43q3 3 9.5 4t16 1t13.5 1q17 20 45 24.5t52.5 1.5t52.5 7q10 -6 50.5 -12t53.5 -27q9 1 19 -9.5t16 -11.5q42 0 51 -14q-13 -13 -7 -26t16.5 -20t25 -18.5t18.5 -21.5 q-6 -24 23 -49.5t25 -48.5q26 -8 28 -30t-3.5 -39.5t16.5 -27.5q13 -15 1.5 -44t8.5 -42q-17 -20 -4 -40q10 -6 9.5 -17t-4.5 -20.5t1 -20.5l2 2q10 -74 -10 -137q6 -17 0.5 -31.5t-17.5 -30t-16 -26.5q-4 -15 -0.5 -33t-2.5 -34t-26 -19q-15 -1 -19.5 -12.5t-1.5 -24 t-3.5 -20.5t-26.5 -5q-5 -6 -6 -23t-6 -24q-10 -3 -26 -15.5t-32 -19t-34 -1.5q-11 -15 -40 -25.5t-38 -20.5q-43 -19 -80 -4q-6 9 -16.5 14.5t-16 7t-22 3.5t-19.5 2q-5 -3 -13 -3.5t-20 0.5t-16 1q-11 17 -37 41t-44.5 46.5t-22.5 47.5q-7 9 -28 30t-29 38t-3 41 q-9 6 -9.5 13.5t3 18.5t2.5 19q-19 3 -24 31t-21 34q-1 14 -3 38.5t-3 44.5t0 36q-4 4 -6 8q5 15 4 34t-4.5 35.5z" />
<glyph unicode="&#xd6;" d="M80 618q1 6 6.5 78t26.5 101q-2 7 4.5 21.5t7.5 19.5q4 13 9.5 40.5t13 48t22.5 36.5q1 11 24 33t13 44q1 10 11 17.5t20 9.5q15 12 40.5 41.5t49.5 46.5t53 19q27 3 57 10.5t67.5 19.5t55.5 17q13 -16 32.5 -17t35 2.5t35.5 -10.5q54 -6 72 -20q10 -7 16 -19 q60 -4 73 -39q-3 -15 6 -25.5t23.5 -21t19.5 -20.5q1 -1 3.5 -18t17.5 -13q7 0 18 -11t13 -20q1 -20 22.5 -50t18.5 -54q6 -5 5.5 -20.5t4.5 -22.5q90 -137 41 -355q-16 -6 -21 -17t-2 -22t5.5 -25t0.5 -22q7 -11 5 -25.5t-6.5 -24t-11.5 -23.5t-9 -23q-21 -20 -40.5 -68.5 t-41.5 -68.5q8 -5 8 -16q-17 -1 -32 -13t-21 -26q9 -9 6 -20t-8 -17t-13.5 -14.5t-11.5 -12.5q-16 4 -29.5 -4.5t-21.5 -20t-22 -18.5t-31 0q-4 -5 -23 -11.5t-18 -23.5q-6 -6 -13 -6.5t-12 2.5t-12.5 8t-11.5 7q-10 -2 -20.5 0t-21 -0.5t-14.5 -12.5q-8 0 -27 -1 t-29.5 -0.5t-25 2.5t-26 8t-21.5 16q-7 1 -20 -1.5t-22.5 -4.5t-19 2t-13.5 18q-10 -2 -18 2t-16.5 13t-12.5 12q-2 2 -12 19t-19 22q-11 -3 -17 -4.5t-14 4t-11.5 9.5l-10.5 12t-11 12q-3 16 -25 37t-18 42q-4 8 -14.5 31t-15 33t-13 30.5t-13.5 34t-10.5 31.5t-8.5 35 q-2 12 -23 92q11 30 -0.5 76.5t-7.5 66.5zM131.5 1316.5q0.5 15.5 11.5 29.5q6 4 10.5 9.5t9.5 14.5t7 12q11 1 19 5t16.5 12t15.5 12q16 -22 35 -22q14 3 30 -8t27 -11q36 -42 19 -84v-2q-5 -7 -10.5 -24t-13.5 -26.5t-25 -10.5q-3 -2 -9 -8t-10.5 -9.5t-11 -3.5t-12.5 6 q-46 -7 -101 41q1 12 -3.5 32t-4 35.5zM195 588q6 -6 8 -10q-1 -26 8 -117q15 -6 19.5 -35.5t23.5 -34.5q2 -9 -1 -19.5t-2.5 -17.5t9.5 -12q-5 -23 1.5 -39.5t28.5 -38t29 -31.5q3 -34 48.5 -79.5t52.5 -57.5h23.5t27.5 4q6 -1 17 -2t17.5 -2t15 -3t15 -7t11.5 -12 q35 -16 76 4q10 10 40 20t42 27q23 -7 53.5 13.5t34.5 21.5q7 8 8 25t4 22q20 -3 26.5 5t3.5 20t1.5 23.5t19.5 12.5q21 4 27 18.5t3.5 39t-1.5 30.5q1 4 21.5 33.5t13.5 52.5q22 66 8 136q-5 7 0 29t-10 28q-11 21 6 41q-19 13 -6.5 42t0.5 44q-15 5 -17.5 18.5t1.5 28 t-2.5 29t-27.5 20.5q5 23 -23 48.5t-22 49.5q-4 10 -18.5 21.5t-25 19t-16.5 20.5t7 27q-9 13 -53 13q-7 0 -16.5 9.5t-16.5 8.5q-12 23 -53.5 29.5t-50.5 11.5q-28 -10 -52.5 -7t-52.5 -2t-45 -26q-5 -1 -14.5 -1t-16 -0.5t-8.5 -2.5q0 -17 -20 -41q-7 -6 -21 -1.5 t-16 -4.5q7 -23 -22 -46t-23 -44q-18 -14 -24 -51t-21 -51q-15 -11 -16.5 -48t-20.5 -47q1 -2 7.5 -13t4.5 -19q-18 -8 -24 -23.5t-2.5 -32t4 -35t-5.5 -32.5zM788 1329q-1 2 3 5t9 7t7 7q36 50 82 53q23 0 33 -2q4 -10 23.5 -16t19.5 -23q14 -7 19 -31t11 -31v-10v-14 q-26 -22 -20 -49q-5 -3 -16.5 -11t-19 -12.5t-18.5 -8.5t-22 -5q-15 5 -30 1.5t-30 0t-20 18.5q-31 43 -31 121z" />
<glyph unicode="&#xd8;" d="M72 -164q-1 25 5 41t15 24t25 22.5t28 31.5q2 3 10 31t23 37q21 28 62 100q-1 1 -3.5 3t-3.5 3q-3 16 -25 38t-18 44q-4 8 -17 36.5t-18.5 40.5t-15 34.5t-15 42t-9.5 38.5q-7 35 -25 95q11 30 0 76t-6 67q2 9 6.5 79t24.5 99q-2 5 0.5 12t7.5 15.5t6 13.5q5 14 10 41 t12 47.5t21 36.5q1 11 24 33.5t13 44.5q1 10 11.5 17.5t21.5 9.5q15 12 40.5 41t49 46t51.5 19q36 4 102 23t80 22q17 -20 50 -15.5t51 -6.5q54 -6 72 -20q10 -7 16 -19q60 -4 77 -39q-5 -18 13 -33q7 6 10 21t2.5 28t4.5 23t18 10q4 18 14 37t25.5 42.5t21.5 33.5 q1 21 16.5 39t34.5 24q21 4 41 -45v-2q9 -26 -11.5 -59.5t-21.5 -49.5q-24 -12 -35.5 -53t-37.5 -51q-7 -9 -29 -64h2q8 0 19 -10.5t12 -19.5q1 -19 22.5 -50.5t18.5 -56.5q6 -5 5.5 -20.5t2.5 -22.5q47 -71 55.5 -170t-14.5 -182q-21 -7 -23 -22t4 -35.5t3 -30.5 q7 -22 4 -33.5t-13 -31.5t-12 -31q-21 -19 -40.5 -68t-41.5 -68q8 -5 8 -16q-17 -1 -32 -13t-21 -28q9 -9 5.5 -20t-8 -16.5t-14 -14t-12.5 -12.5q-16 4 -29.5 -4.5t-21.5 -20t-21.5 -18.5t-29.5 0q-5 -6 -16 -9t-18.5 -7.5t-6.5 -16.5q-11 -7 -16.5 -7t-17 7t-15.5 8 q-6 -1 -19.5 0.5t-22.5 -0.5t-13 -12q-9 0 -27.5 -1t-29 -0.5t-25 2.5t-26 8t-21.5 17q-8 1 -26.5 -3.5t-31.5 -1.5t-18 20q-4 -2 -8.5 -0.5t-7.5 2t-7 3.5l-6 4.5t-6 5t-6 5.5q-6 -9 -21 -18q-28 -82 -77 -105q-3 -6 -10 -18.5t-9.5 -19t-5 -20.5t-2.5 -32l-12 -20 t-13.5 -20t-13.5 -13.5t-20.5 -11.5t-26.5 -2q-37 15 -51 65zM197 606q6 -6 10 -8q-1 -16 0 -36t3 -44.5t3 -38.5q15 -6 19.5 -34.5t23.5 -32.5q1 -8 -1.5 -19.5t-1.5 -19t11 -13.5q-5 -23 2 -39t28.5 -36.5t27.5 -28.5q0 -2 1 -6t1 -6q23 18 34 68.5t37 70.5q7 12 48 73 t55 97q44 37 69 113q21 10 36.5 43t29.5 43q0 25 27.5 51.5t33.5 42.5q1 18 27 48t18 58q25 28 45 66h2q-24 21 -8 47q-9 12 -53 12q-7 0 -17 10t-18 9q-12 23 -52.5 29.5t-49.5 11.5q-28 -10 -52.5 -7t-52.5 -2t-45 -26q-5 -1 -15 -1t-16 -1t-8 -4q0 -19 -20 -39 q-7 -6 -21 -1.5t-18 -4.5q6 -19 -8 -32.5t-27.5 -26.5t-7.5 -31q-18 -14 -24.5 -51.5t-22.5 -51.5q-15 -11 -16 -47.5t-19 -46.5q1 -4 5.5 -11t5.5 -10t-1 -12q-18 -8 -24 -23.5t-2.5 -32t4 -35.5t-5.5 -34zM389 160q27 -23 37 -43q4 1 23 1t26 3q5 -1 17 -2t18 -2t15 -3.5 t15.5 -7.5t12.5 -12q35 -16 76 4q10 10 39.5 20t40.5 27q23 -7 53.5 13t36.5 22q7 8 8 24.5t4 20.5q20 -3 26 5t3.5 20.5t1 24t18.5 12.5q21 4 27.5 20.5t3 35t0.5 34.5q1 3 21 33t12 53q21 63 10 135q-5 7 0 29t-10 28q-11 22 6 39q-12 10 -12.5 21.5t5.5 21t7 22t-8 23.5 q-15 5 -17.5 18.5t1.5 28.5t-2 29.5t-27 20.5q2 10 -1 19t-7 14t-12 13l-11 11q-8 -17 -29 -46t-26 -38q7 -13 -3.5 -21.5t-11.5 -13.5q-6 -16 -34.5 -54t-28.5 -63q-15 -6 -23.5 -20t-11.5 -27.5t-11.5 -27.5t-23.5 -19q-2 -12 -16.5 -37.5t-14.5 -42.5q-7 -13 -51 -76 t-53 -102q-12 -10 -21.5 -37t-23.5 -35q-1 -17 -24 -41t-21 -47q-4 -8 -29 -28z" />
<glyph unicode="&#xd9;" d="M58 1180.5q2 -6.5 2.5 -10t4.5 -9.5l6 -9t6.5 -9t6.5 -8q9 -4 27.5 -4t29.5 -5q11 1 28 -11t19 -13q24 -11 26 -31t-6 -48t-7 -42q6 -12 6 -26.5t-2.5 -32t-1.5 -27.5q6 -41 7.5 -85.5t0.5 -103.5t0 -90q1 -41 -2.5 -112t-4 -111.5t6.5 -113.5q8 -12 5.5 -41.5 t12.5 -38.5q-3 -37 19.5 -65.5t58 -56.5t49.5 -48q58 -16 109 -39q14 5 40 -5.5t42 -4.5q37 0 100.5 13t89.5 15q15 17 56.5 52t64.5 65.5t27 67.5q44 69 16 188q9 14 9.5 31t-3 38.5t-2.5 32.5q1 30 0 88.5t0 106.5t6 86q-3 13 -3 42.5t-7 45.5q11 65 2 223q30 43 127 47 q14 3 21 13.5t6.5 23t-0.5 25.5v2q-2 8 -14.5 13t-14.5 7q-28 16 -44.5 11t-45 -12.5t-51.5 -0.5q-4 -1 -16.5 -4.5t-19.5 -5t-16.5 1.5t-15.5 12q-120 0 -157 4q-4 -4 -15 -15.5t-16 -18.5q-3 -12 6 -52q57 -21 102 -4q15 -7 44.5 -7t43.5 -7q-13 -22 -20 -29 q-4 -23 16 -43q-19 -172 -10 -276q8 -6 9 -14t-2.5 -14.5t-8.5 -15.5t-6 -14q9 -26 5 -101t-1 -107q-10 -13 -10.5 -28.5t3 -28t-0.5 -29.5q14 -26 2 -74t2 -72q-27 -67 -90 -117q-28 -32 -67 -41.5t-100 -7t-77 1.5q-12 10 -40 28t-47 34.5t-28 38.5q-16 2 -23.5 11.5 t-12.5 28t-9 25.5q-13 43 -11 67.5t9 65.5t6 66q-10 24 -9 37.5t6.5 37.5t4.5 37q-17 15 -15 38t9.5 42.5t-2.5 44.5q9 19 3.5 57t4.5 54q-1 31 -5.5 123t-4.5 143q8 16 21 25.5t30 13t31 4.5t34.5 1t31.5 1q4 2 7 5t4.5 7t3 6.5t2.5 7.5t1.5 7t1 7.5t0.5 6.5 q-3 22 -17 36.5t-34 19.5q-25 -12 -70 -4t-67 -7q-42 -12 -77 -3.5t-78 7t-73 -27.5q-3 -3 -1 -9.5zM360 1583q-8 42 15 59q17 32 59 35q9 -2 24 -3t23 -2t18.5 -7t20.5 -18q-1 -5 4 -14t4 -15q4 -12 12 -11.5t14.5 5t14.5 -1.5q-5 -20 6 -36.5t27 -32t19 -28.5 q6 -12 17 -23.5t27 -25t23 -20.5q20 -20 43 -53h-2q7 -21 4.5 -29t-11 -20.5t-9.5 -22.5q-4 -2 -11.5 -11t-15.5 -8q-45 -14 -94 35q-14 31 -58 74t-57 61q-83 69 -117 113z" />
<glyph unicode="&#xda;" d="M58 1180.5q2 -6.5 2.5 -10t4.5 -9.5l6 -9t6.5 -9t6.5 -8q9 -4 27.5 -4t29.5 -5q11 1 28 -11t19 -13q24 -11 26 -31t-6 -48t-7 -42q6 -12 6 -26.5t-2.5 -32t-1.5 -27.5q6 -41 7.5 -85.5t0.5 -103.5t0 -90q1 -41 -2.5 -112t-4 -111.5t6.5 -113.5q8 -12 5.5 -41.5 t12.5 -38.5q-3 -37 19.5 -65.5t58 -56.5t49.5 -48q58 -16 109 -39q14 5 40 -5.5t42 -4.5q37 0 100.5 13t89.5 15q15 17 56.5 52t64.5 65.5t27 67.5q44 69 16 188q9 14 9.5 31t-3 38.5t-2.5 32.5q1 30 0 88.5t0 106.5t6 86q-3 13 -3 42.5t-7 45.5q11 65 2 223q30 43 127 47 q14 3 21 13.5t6.5 23t-0.5 25.5v2q-2 8 -14.5 13t-14.5 7q-28 16 -44.5 11t-45 -12.5t-51.5 -0.5q-4 -1 -16.5 -4.5t-19.5 -5t-16.5 1.5t-15.5 12q-120 0 -157 4q-4 -4 -15 -15.5t-16 -18.5q-3 -12 6 -52q57 -21 102 -4q15 -7 44.5 -7t43.5 -7q-13 -22 -20 -29 q-4 -23 16 -43q-19 -172 -10 -276q8 -6 9 -14t-2.5 -14.5t-8.5 -15.5t-6 -14q9 -26 5 -101t-1 -107q-10 -13 -10.5 -28.5t3 -28t-0.5 -29.5q14 -26 2 -74t2 -72q-27 -67 -90 -117q-28 -32 -67 -41.5t-100 -7t-77 1.5q-12 10 -40 28t-47 34.5t-28 38.5q-16 2 -23.5 11.5 t-12.5 28t-9 25.5q-13 43 -11 67.5t9 65.5t6 66q-10 24 -9 37.5t6.5 37.5t4.5 37q-17 15 -15 38t9.5 42.5t-2.5 44.5q9 19 3.5 57t4.5 54q-1 31 -5.5 123t-4.5 143q8 16 21 25.5t30 13t31 4.5t34.5 1t31.5 1q4 2 7 5t4.5 7t3 6.5t2.5 7.5t1.5 7t1 7.5t0.5 6.5 q-3 22 -17 36.5t-34 19.5q-25 -12 -70 -4t-67 -7q-42 -12 -77 -3.5t-78 7t-73 -27.5q-3 -3 -1 -9.5zM388.5 1361.5q-2.5 7.5 4.5 29.5q18 30 41 53q8 8 23.5 21t27 24t17.5 22q4 13 20.5 29.5t27 33t5.5 36.5q5 4 11 2.5t11 -4.5t9.5 -1t7.5 11q-1 6 4 15.5t4 15.5 q9 11 20 16.5t19 6.5t22 2t23 3q46 -3 64 -32q19 -19 14 -60h-2q-28 -38 -117 -117q-13 -18 -57 -61t-58 -74q-50 -47 -94 -30q-5 -2 -8.5 0.5t-7 8t-8.5 7.5q-2 10 -11.5 22.5t-12 20z" />
<glyph unicode="&#xdb;" d="M60 1180.5q2 -6.5 2.5 -10t4.5 -9.5l6 -9t6.5 -9t6.5 -8q9 -4 27.5 -4t29.5 -5q11 1 28 -11t19 -13q24 -11 26 -31t-6 -48t-7 -42q6 -12 6 -26.5t-2.5 -32t-1.5 -27.5q6 -41 7.5 -85.5t0.5 -103.5t0 -90q1 -41 -2.5 -112t-4 -111.5t6.5 -113.5q8 -12 5.5 -41.5 t12.5 -38.5q-3 -37 19.5 -65.5t58 -56.5t49.5 -48q58 -16 109 -39q14 5 40 -5.5t42 -4.5q37 0 100.5 13t89.5 15q15 17 56.5 52t64.5 65.5t27 67.5q44 69 16 188q9 14 9.5 31t-3 38.5t-2.5 32.5q1 30 0 88.5t0 106.5t6 86q-3 13 -3 42.5t-7 45.5q11 65 2 223q30 43 127 47 q14 3 21 13.5t6.5 23t-0.5 25.5v2q-2 8 -14.5 13t-14.5 7q-28 16 -44.5 11t-45 -12.5t-51.5 -0.5q-4 -1 -16.5 -4.5t-19.5 -5t-16.5 1.5t-15.5 12q-120 0 -157 4q-4 -4 -15 -15.5t-16 -18.5q-3 -12 6 -52q57 -21 102 -4q15 -7 44.5 -7t43.5 -7q-13 -22 -20 -29 q-4 -23 16 -43q-19 -172 -10 -276q8 -6 9 -14t-2.5 -14.5t-8.5 -15.5t-6 -14q9 -26 5 -101t-1 -107q-10 -13 -10.5 -28.5t3 -28t-0.5 -29.5q14 -26 2 -74t2 -72q-27 -67 -90 -117q-28 -32 -67 -41.5t-100 -7t-77 1.5q-12 10 -40 28t-47 34.5t-28 38.5q-16 2 -23.5 11.5 t-12.5 28t-9 25.5q-13 43 -11 67.5t9 65.5t6 66q-10 24 -9 37.5t6.5 37.5t4.5 37q-17 15 -15 38t9.5 42.5t-2.5 44.5q9 19 3.5 57t4.5 54q-1 31 -5.5 123t-4.5 143q8 16 21 25.5t30 13t31 4.5t34.5 1t31.5 1q4 2 7 5t4.5 7t3 6.5t2.5 7.5t1.5 7t1 7.5t0.5 6.5 q-3 22 -17 36.5t-34 19.5q-25 -12 -70 -4t-67 -7q-42 -12 -77 -3.5t-78 7t-73 -27.5q-3 -3 -1 -9.5zM263.5 1339.5q-1.5 8.5 6.5 18.5q14 25 39 47q6 6 19 18t20 19.5t16 18.5t15 20q3 12 19.5 27t28.5 31t9 36q6 4 20 6.5t20 9.5t5 25q11 12 22.5 16t28.5 4.5t27 3.5 q35 -4 49 -32q19 -14 21 -31q7 -5 19 -15t14 -12q8 -22 26 -38.5t23 -32.5q6 -12 17 -23.5t30.5 -28.5t25.5 -22q18 -16 39 -47q5 -18 3 -23t-11 -13t-12 -15q-1 0 -9 -5t-10 -5t-10 1q-24 -8 -37 -3t-28 24q-15 32 -58.5 73.5t-56.5 59.5q-7 8 -24.5 24.5t-26.5 28.5 q-39 -26 -47 -53q-14 -21 -58.5 -60t-58.5 -71q-3 -3 -9 -9.5t-9 -9.5t-8 -6.5t-9.5 -5t-10.5 -1t-14 2.5q-10 -2 -30 13q-3 6 -9.5 12.5t-10.5 10t-5.5 12z" />
<glyph unicode="&#xdc;" d="M47.5 1055q-1.5 7 1.5 10q23 19 53.5 24.5t57 1t58.5 -6t58 5.5q20 5 70 -1t70 9q40 -9 49 -54q0 -2 -2 -10.5t-3 -11.5t-3.5 -9t-6 -10.5t-8.5 -7.5q-9 0 -30.5 0.5t-34.5 -0.5t-30 -4.5t-29.5 -13t-20.5 -25.5q-1 -52 3 -103t5 -83q-10 -18 -4.5 -54t-1.5 -57 q8 -17 2.5 -43t-9 -41t16.5 -36q-1 -15 -7.5 -28.5t-7 -18.5t10.5 -27q1 -26 -7 -68t-10 -65.5t11 -67.5q5 -8 10.5 -24.5t12.5 -27t22 -13.5q9 -21 28 -37.5t45.5 -33.5t39.5 -28h63t66 -0.5t62.5 11.5t53.5 36q65 52 91 117q-13 24 -2.5 72t-2.5 74q2 12 -1 28.5 t-2.5 30.5t10.5 27q-2 31 3 86.5t-5 80.5q1 5 6 14t8.5 15.5t2.5 14.5t-9 14q-3 33 -3 58t1 37.5t5.5 45t6.5 53.5q-18 18 -14 39q3 5 9 15.5t9 15.5q-16 7 -44.5 7t-43.5 7q-46 -15 -102 9q-10 40 -9 47q6 7 19 19t16 15q35 -4 156 -4q6 -9 15.5 -12t15.5 -2t20 6t16 6 q25 -8 73 7.5t67 -5.5q4 -4 16 -9t14 -13v-2q0 -13 0.5 -25.5t-6.5 -23t-22 -13.5q-94 0 -123 -45q0 -16 1.5 -43.5t1.5 -40t-1.5 -34t-5.5 -46.5q7 -17 7 -36t3 -33q-7 -49 -7 -131.5t-1 -104.5q0 -10 4 -32t3.5 -39t-9.5 -31q28 -118 -17 -191q-4 -36 -26.5 -66t-64 -64.5 t-56.5 -51.5q-26 -2 -89.5 -15.5t-100.5 -13.5q-16 -6 -42 5t-40 6q-48 26 -107 39q-14 20 -49.5 48t-58 56.5t-19.5 65.5q-16 13 -14 39t-6 43q-7 69 -6.5 101t4 91.5t2.5 101.5q-1 52 0 88.5t-1 80.5t-8 85q0 9 3 27.5t2.5 33t-7.5 27.5q-1 12 4 22t8.5 13.5t-1.5 9.5 t-25 15q-4 2 -12.5 9t-16.5 11.5t-16 3.5q-11 7 -29.5 7.5t-27.5 3.5q-2 2 -6.5 8t-6.5 9l-6 9t-4 9t-1.5 10zM154 1318.5q0 15.5 10 29.5q6 4 10.5 9.5t9 15.5t6.5 13q14 1 30.5 12.5t23.5 14.5q16 -22 35 -22q15 3 30 -8t25 -11q35 -40 20 -84l-2 -2q-5 -7 -10.5 -24 t-13 -26.5t-23.5 -10.5q-3 -2 -9 -8t-10.5 -9.5t-11.5 -3.5t-14 6q-46 -7 -98 41q1 12 -3.5 32t-4.5 35.5zM745 1346q-1 2 3 4.5t9 6t7 5.5q1 2 6.5 9t6.5 9t6 8t7.5 7.5t7.5 5.5t9 5.5t10 3t12 1.5q38 0 50 -2q4 -10 24.5 -13t20.5 -20q14 -7 19 -30.5t11 -30.5h-2v-10v-15 q-26 -22 -20 -49q-6 -3 -17 -11t-18 -12.5t-18 -8.5t-21 -5q-15 5 -30 2t-30 0.5t-20 18.5q-29 40 -33 121z" />
<glyph unicode="&#xdf;" d="M82.5 36.5q-0.5 5.5 1.5 12t3.5 11t5.5 12t5 10.5q21 19 69 13.5t69 15.5q19 18 22 42.5t-4.5 46.5t-11 48.5t3.5 48.5q26 53 -2 90q11 32 3 113.5t-5 113.5q-11 28 -3 82t-6 82q13 29 1.5 91t3.5 94q-5 15 -3 47.5t-2 50.5q3 5 13.5 18t15.5 20t10.5 19t6.5 23 q33 57 94 76q14 16 48 25.5t46 17.5q15 -2 62 -1.5t53 -7.5q13 1 28.5 0t35.5 -3l30 -3q12 -7 44.5 -23t49.5 -25.5t39 -30.5t35 -46q4 -13 30.5 -55.5t24.5 -69.5q9 -28 -2 -84t-2 -80q-34 -67 -102 -145q3 -30 44.5 -58.5t49.5 -49.5q11 -11 34.5 -42t36.5 -40q6 1 5 -1 q0 -1 -4 -5l-1 -1q6 -30 23 -75t25 -83t0 -79v2q4 -19 -5 -54.5t-6 -52.5q-10 -2 -15.5 -16.5t-8.5 -17.5q-22 -9 -70.5 -53t-87.5 -48q-16 -15 -39 -17.5t-42.5 1t-43.5 -3.5q-10 9 -28.5 22t-32 25t-23.5 29q-25 -4 -33 14q14 16 6 49.5t3 50.5q-10 11 4 23.5t12 21.5 q10 15 38.5 22.5t37.5 20.5q1 0 14 -3t16 -4t14.5 -4t15 -5.5t12.5 -6.5t13 -8.5t9 -10.5t8 -13t4 -16q4 -8 8 -37t21 -39q17 -4 27.5 4.5t20 22t19.5 16.5q24 12 30.5 37.5t3 48.5t3.5 45q-5 10 -9.5 44t-18.5 48q-9 27 -13 38.5t-16.5 30t-28.5 29.5q-2 2 -25 34.5 t-33.5 43.5t-34 24t-48.5 9q-23 21 -62 23t-80 1.5t-65 14.5q-17 15 -12 49q5 4 8 12t4 9q32 10 87.5 14.5t99.5 16.5t77 46q5 18 29.5 38.5t30.5 37.5q1 5 9.5 24t8 31.5t-13.5 22.5q7 27 -1 49.5t-22 37t-29.5 35t-19.5 40.5q-13 11 -46 20t-46 23q-19 -1 -55 1.5 t-63.5 2.5t-57.5 -5.5t-52 -25.5t-34 -55q-67 -30 -47 -131q18 -47 -6 -109q8 -20 5.5 -65t8.5 -62q-3 -1 -3.5 -5t-2.5 -5q-3 -29 6.5 -86.5t3.5 -89.5q9 -59 -1.5 -160t-4.5 -153q1 -3 8.5 -16t10 -18.5t4.5 -16.5t1 -21q9 -14 40 -13.5t42 -11.5q7 -1 24.5 -1.5t27.5 -2 t21 -8t15 -18.5q1 -9 -0.5 -17.5t-5 -19t-4.5 -15.5q-53 -17 -122 -19.5t-152.5 1.5t-124.5 2q-8 -1 -14 3.5t-12 11.5t-11 10q-3 6 -3.5 11.5z" />
<glyph unicode="&#xe0;" d="M94 296q2 -19 8 -52t7 -49q3 -69 57.5 -118.5t128.5 -72.5q38 1 100.5 -3.5t112 -3t94.5 16.5q23 17 69 40t66 36q12 9 30.5 -1t29.5 -7q7 -14 31 -27.5t32 -25.5q28 -16 57.5 -24.5t62.5 -5.5t56 21q25 29 13 58v-2q-4 14 -14.5 22.5t-19 11.5t-27 6.5t-23.5 4.5 q-23 1 -41.5 12.5t-44 39.5t-29.5 32q-20 20 -25.5 44.5t0 46t8 47.5t-3.5 50q-3 39 6.5 108t10.5 93q-4 15 2.5 46t1.5 50q-11 54 -46 97.5t-85 54.5q-24 15 -88 37q-26 -1 -66.5 7.5t-63.5 12t-63 -7.5q-28 -28 -96.5 -37.5t-93.5 -24.5q-2 -4 -8 -3.5t-10.5 -0.5t-2.5 -8 q-16 -6 -27.5 -18.5t-22.5 -30t-19 -25.5q0 -41 -11 -69q-2 -19 6.5 -36t14.5 -23.5t30 -24t27 -19.5q52 -14 99 29q20 18 23.5 40t-4 56.5t-7.5 46.5q10 19 33 29t47 10q20 -3 66 -7.5t71.5 -8t61.5 -13.5t63 -24q26 -14 36.5 -35t14.5 -59.5t6 -48.5q-9 -27 -48 -43 t-50 -27q-49 -9 -186 -21.5t-207 -31.5q-8 -5 -40.5 -19.5t-49 -29.5t-17.5 -39q-25 -14 -35 -37t-8 -42zM211 215q-13 68 18 119q30 34 72 48.5t86.5 14t88 -4t90.5 1.5t81 24q54 -4 74 -29q-10 -14 0 -43t0 -45h2q0 -25 -11.5 -44t-33.5 -40.5t-31 -34.5q-7 -5 -17.5 -9 t-25.5 -8.5t-22 -6.5q-9 -6 -47.5 -34t-64.5 -36.5t-56 0.5q-13 4 -45.5 13.5t-51 16t-43 19.5t-40 32.5t-23.5 45.5zM356 1262q-8 41 13 59q17 32 59 35q9 -1 24 -2.5t22.5 -3t18.5 -7.5t21 -18q-1 -5 4 -14t4 -15q4 -12 12 -11.5t14.5 5t14.5 -1.5q-4 -15 2 -29.5 t16 -23.5t20 -21.5t13 -23.5q6 -12 17 -23.5t27.5 -25.5t23.5 -21q15 -15 43 -51h-2q7 -21 4.5 -29t-11 -20.5t-9.5 -22.5q-4 -2 -11.5 -10.5t-15.5 -7.5q-45 -14 -94 35q-14 31 -58 74t-57 61q-84 70 -115 113z" />
<glyph unicode="&#xe1;" d="M96 296q2 -19 8 -52t7 -49q3 -69 57.5 -118.5t128.5 -72.5q38 1 100.5 -3.5t112 -3t94.5 16.5q23 17 69 40t66 36q12 9 30.5 -1t29.5 -7q7 -14 31 -27.5t32 -25.5q28 -16 57.5 -24.5t62.5 -5.5t56 21q25 29 13 58v-2q-4 14 -14.5 22.5t-19 11.5t-27 6.5t-23.5 4.5 q-23 1 -41.5 12.5t-44 39.5t-29.5 32q-20 20 -25.5 44.5t0 46t8 47.5t-3.5 50q-3 39 6.5 108t10.5 93q-4 15 2.5 46t1.5 50q-11 54 -46 97.5t-85 54.5q-24 15 -88 37q-26 -1 -66.5 7.5t-63.5 12t-63 -7.5q-28 -28 -96.5 -37.5t-93.5 -24.5q-2 -4 -8 -3.5t-10.5 -0.5t-2.5 -8 q-16 -6 -27.5 -18.5t-22.5 -30t-19 -25.5q0 -44 -10 -69q-2 -15 1.5 -27.5t13 -24t17 -17.5t23.5 -17.5t22 -16.5q52 -14 99 29q20 18 23.5 40t-4 56.5t-7.5 46.5q10 19 33 29t47 10q20 -3 66 -7.5t71.5 -8t61.5 -13.5t63 -24q26 -14 36.5 -35t14.5 -59.5t6 -48.5 q-9 -27 -48 -43t-50 -27q-49 -9 -186 -21.5t-207 -31.5q-8 -5 -40.5 -19.5t-49 -29.5t-17.5 -39q-25 -14 -35 -37t-8 -42zM213 215q-13 68 18 119q30 34 72 48.5t86.5 14t88 -4t90.5 1.5t81 24q54 -4 74 -29q-10 -14 0 -43t0 -45h2q0 -25 -11.5 -44t-33.5 -40.5t-31 -34.5 q-7 -5 -17.5 -9t-25.5 -8.5t-22 -6.5q-9 -6 -47.5 -34t-64.5 -36.5t-56 0.5q-13 4 -45.5 13.5t-51 16t-43 19.5t-40 32.5t-23.5 45.5zM394.5 1039.5q-2.5 7.5 4.5 29.5q18 30 41 53q8 8 23.5 21t27 24.5t17.5 22.5q4 13 20.5 29.5t27 32.5t5.5 36q5 4 11 2.5t11 -4.5t9.5 -1 t7.5 11q-1 6 4 15.5t4 15.5q10 11 20.5 17t18.5 7t22.5 2t22.5 3q45 -3 64 -33q21 -21 12 -59q-28 -38 -117 -117q-13 -18 -56.5 -61t-57.5 -74q-51 -47 -95 -33q-5 -2 -8.5 0.5t-7 8.5t-8.5 9q-2 10 -11.5 22.5t-12 20z" />
</font>
</defs>
</svg>
