<?xml version="1.0" encoding="UTF-8"?>
<svg id="Layer_1" data-name="Layer 1" xmlns="http://www.w3.org/2000/svg" xmlns:xlink="http://www.w3.org/1999/xlink" viewBox="0 0 345.55 164.73">
  <defs>
    <clipPath id="clippath">
      <rect x="12.06" y="9.2" width="116.95" height="146.19" rx="24" ry="24" transform="translate(-13.44 13.76) rotate(-10.18)" fill="none" stroke-width="0"/>
    </clipPath>
    <clipPath id="clippath-1">
      <rect x="216.83" y="9.2" width="116.95" height="146.19" rx="24" ry="24" transform="translate(18.88 -47.37) rotate(10.18)" fill="#fff" stroke-width="0"/>
    </clipPath>
    <clipPath id="clippath-2">
      <rect x="114.45" y="9.2" width="116.95" height="146.19" rx="24" ry="24" fill="none" stroke-width="0"/>
    </clipPath>
  </defs>
  <g clip-path="url(#clippath)">
    <g>
      <rect x="12.01" y="9.2" width="117.07" height="146.34" transform="translate(-13.45 13.77) rotate(-10.18)" fill="#53a9b8" stroke-width="0"/>
      <g>
        <g>
          <g>
            <path d="M86.48,78.34c-.74.13-1.48.27-2.23.41-.51.09-1.02.19-1.53.28-.05,0-.09,0-.13-.01-.03-.01-.05-.02-.08-.04-.12-.1-.24-.2-.36-.29-.04-.03-.08-.06-.12-.08h-.01c-.06-.06-.12-.11-.19-.14-.17-.12-.35-.23-.53-.32h-.01c-.19-.1-.37-.2-.57-.27-.02-.01-.03-.01-.05-.02-.14-.06-.28-.11-.42-.15-.01,0-.02-.01-.03-.01s0,0-.02-.01c-.08-.02-.17-.04-.25-.06-.14-.04-.29-.07-.44-.1-.01,0-.02,0-.04-.01-.16-.02-.32-.04-.49-.06-.48-.04-.93-.04-1.37.02-.23.02-.45.06-.67.11-.22.05-.43.11-.64.18-.42.14-.82.33-1.19.57-.39.24-.75.52-1.09.85-.17.16-.34.33-.5.52h0c-.14.16-.26.31-.36.47-.06.08-.1.16-.15.24-.06.08-.11.16-.15.25-.02.04-.04.07-.06.1-.03.02-.06.04-.1.05-.99.17-1.97.35-2.96.53l-2.37-13.17-.27-1.52s0-.09-.02-.14c.11-.02.22.01.33-.06.29-.04.58-.08.87-.11.09,0,.18-.03.27-.03s.18-.01.27-.01c.06-.01.11-.01.17-.02.06,0,.11,0,.17,0,.39-.02.78-.02,1.17-.01h.01c.25.01.49.02.74.04.41.04.83.08,1.24.14.38.06.74.15,1.12.23.28.06.55.12.82.2.13.03.25.07.37.1.2.06.39.13.59.19l.57.21c.55.21,1.08.45,1.6.71h.01c.41.21.81.43,1.2.67.02.01.04.02.06.04.02.01.03.02.05.03.17.11.34.21.51.33.18.12.35.24.52.36.53.37,1.02.78,1.51,1.21.1.09.19.17.29.27.16.14.32.29.48.44.24.25.48.5.72.76.18.2.35.39.51.6.28.32.54.66.79,1,.13.19.26.38.38.57.07.11.14.21.22.32h0c.15.23.29.44.42.66.07.12.13.23.19.35.23.45.47.89.7,1.35h0c.11.24.2.47.29.71.08.19.16.39.24.58Z" fill="#f8c1b0" stroke-width="0"/>
            <path d="M77.86,83.61s-.07-.02-.11-.03h0s.08.01.11.03Z" fill="#f58925" stroke-width="0"/>
            <path d="M81.62,89.92c-.25.15-.52.28-.79.39h-.01s.01-.01.01-.01c.27-.11.54-.23.79-.38Z" fill="#f58925" stroke-width="0"/>
            <path d="M84.85,83.37c-.05-.3-.11-.61-.18-.91-.01-.04-.01-.07-.01-.09,0,.02.01.05.02.09.08.3.13.61.17.91Z" fill="#f58925" stroke-width="0"/>
            <path d="M85.02,82.18h0s-.07.02-.1.02c.03,0,.06-.01.09-.02h.01Z" fill="#f58925" stroke-width="0"/>
            <path d="M86.6,78.32h0s-.08.02-.12.03h0c-.08-.2-.16-.4-.24-.59h.01s.01,0,.01,0c.08.19.15.39.23.58.04,0,.07-.01.11-.02Z" fill="#f58925" stroke-width="0"/>
            <path d="M82.02,71.44c-.16-.15-.32-.3-.48-.44,0,0,0-.01.01-.01.16.14.31.29.47.45Z" fill="#f58925" stroke-width="0"/>
            <path d="M84.64,74.69c-.08-.11-.15-.21-.22-.32-.12-.19-.25-.38-.38-.57l.39.57c.07.11.14.21.21.32Z" fill="#f58925" stroke-width="0"/>
            <polygon points="85.02 82.18 85.02 82.19 85.01 82.18 85.02 82.18" fill="#f58925" stroke-width="0"/>
            <path d="M86.6,78.32h0s-.08.02-.12.03h0c-.08-.2-.16-.4-.24-.59-.09-.24-.18-.47-.29-.7.12.23.22.45.3.69h.01c.08.2.15.4.23.59.04,0,.07-.01.11-.02Z" fill="#f58925" stroke-width="0"/>
            <path d="M74.63,66.98c-.12-.03-.24-.07-.37-.1h0c.13.02.25.06.37.1Z" fill="#f58925" stroke-width="0"/>
            <path d="M77.39,68.09c-.52-.26-1.05-.5-1.6-.71l-.57-.21c.19.06.38.13.57.2.55.22,1.07.45,1.6.72Z" fill="#f58925" stroke-width="0"/>
            <path d="M82.02,71.44c-.16-.15-.32-.3-.48-.44-.1-.1-.19-.18-.29-.27-.49-.43-.98-.84-1.51-1.21-.17-.12-.34-.24-.52-.36.18.11.35.23.52.35.53.37,1.03.78,1.52,1.21.1.09.19.17.29.27.16.14.31.29.47.45Z" fill="#f58925" stroke-width="0"/>
            <path d="M68.99,66.29c-.06.01-.11.01-.17.02h0c.06-.01.12-.02.17-.02Z" fill="#f58925" stroke-width="0"/>
            <path d="M74.63,66.98c-.12-.03-.24-.07-.37-.1-.27-.08-.54-.14-.82-.2-.38-.08-.74-.17-1.12-.23.38.06.75.14,1.13.22.27.06.55.12.81.2.13.03.25.07.37.11Z" fill="#f58925" stroke-width="0"/>
            <path d="M77.39,68.09c-.52-.26-1.05-.5-1.6-.71l-.57-.21c.19.06.38.13.57.2.55.22,1.07.45,1.6.72Z" fill="#f58925" stroke-width="0"/>
            <path d="M67.41,66.46c-.11.07-.22.04-.33.06.01.05.01.09.02.14l.27,1.52h-.02s-.3-1.66-.3-1.66l-1.67-9.33h.02l1.68,9.32c.12-.02.23.01.33-.05Z" fill="#f58925" stroke-width="0"/>
            <path d="M68.99,66.29c-.06.01-.11.01-.17.02-.09,0-.18.01-.27.01.09-.01.18-.02.27-.02.06,0,.12-.01.17-.01Z" fill="#f58925" stroke-width="0"/>
          </g>
          <g>
            <path d="M55.98,87.41s-.06,0-.09.01c-.08.02-.15.03-.23.04.07-.01.15-.03.23-.05.03,0,.07,0,.09,0Z" fill="#c87223" stroke-width="0"/>
            <path d="M56.16,87.93c-.02-.11-.04-.23-.05-.34-.01-.03-.01-.06-.02-.09.02.02.02.05.03.09.01.11.02.23.04.34Z" fill="#c87223" stroke-width="0"/>
            <path d="M56.58,89.52c-.16-.4-.28-.82-.36-1.26.09.44.21.86.36,1.26Z" fill="#c87223" stroke-width="0"/>
            <path d="M52.87,84.38s.08-.01.11-.02c-.04.01-.07.02-.1.03h-.01Z" fill="#c87223" stroke-width="0"/>
            <path d="M53,83.72h.01c-.01.21-.01.43-.02.64h-.01c.01-.21.01-.43.02-.64Z" fill="#c87223" stroke-width="0"/>
            <path d="M55.2,87.54c.14-.03.29-.05.43-.08h-.01c-.14.04-.28.06-.42.08Z" fill="#c87223" stroke-width="0"/>
            <path d="M56.8,83.68s-.03.02-.05.02c-.25.04-.51.08-.76.13.25-.05.51-.09.76-.14.02-.01.04-.01.05-.01Z" fill="#c87223" stroke-width="0"/>
            <path d="M62.42,93.6s-.01.01-.01.01c-.03,0-.05,0-.08-.01h.09Z" fill="#c87223" stroke-width="0"/>
            <path d="M53.7,79.26c-.06.22-.11.44-.16.66-.06.26-.12.51-.18.76.05-.26.12-.51.17-.76.05-.22.11-.44.17-.66Z" fill="#c87223" stroke-width="0"/>
            <path d="M51.24,84.68s.02,0,.03-.01c-.28.19-.54.41-.79.63.06-.32.29-.53.66-.6l.1-.02Z" fill="#c87223" stroke-width="0"/>
            <path d="M52.87,84.38s.08-.01.11-.02c-.04.01-.07.02-.1.03h-.01Z" fill="#c87223" stroke-width="0"/>
            <path d="M53.22,81.45c.03-.26.08-.52.14-.77-.05.26-.1.52-.13.77-.07.51-.13,1.01-.18,1.52-.03.25-.04.5-.04.75-.01.21-.01.43-.02.64h-.01c.01-.21.01-.43.02-.64,0-.25.01-.5.04-.76.05-.5.12-1.01.18-1.51Z" fill="#c87223" stroke-width="0"/>
            <path d="M55.2,87.54c.14-.03.29-.05.43-.08h-.01c-.14.04-.28.06-.42.08Z" fill="#c87223" stroke-width="0"/>
            <path d="M56.75,83.69s.04-.01.05-.01c-.02.01-.03.02-.05.02-.25.04-.51.08-.76.13.25-.05.51-.09.76-.14Z" fill="#c87223" stroke-width="0"/>
            <path d="M59.21,81.2c-.1.06-.2.12-.29.18.09-.07.18-.13.28-.19h.01Z" fill="#c87223" stroke-width="0"/>
            <path d="M55.12,75.63s-.05.08-.06.13h-.01s.04-.09.07-.13Z" fill="#c87223" stroke-width="0"/>
            <path d="M56.61,73.22c-.13.17-.25.34-.37.52-.37.53-.69,1.08-1,1.65.31-.57.62-1.13.99-1.66.12-.17.24-.34.38-.51Z" fill="#c87223" stroke-width="0"/>
            <path d="M57.94,71.59c-.33.36-.65.73-.95,1.12-.13.17-.26.33-.38.51.11-.17.24-.34.37-.51.3-.39.61-.76.96-1.12Z" fill="#c87223" stroke-width="0"/>
            <path d="M57.94,71.59c-.33.36-.65.73-.95,1.12h-.01c.3-.39.61-.76.96-1.12Z" fill="#c87223" stroke-width="0"/>
            <path d="M63.91,67.43h0c-.12.05-.24.1-.35.15.12-.05.23-.1.35-.15Z" fill="#c87223" stroke-width="0"/>
            <path d="M67.05,66.52c-.11.02-.21.08-.32.06-.1.02-.2.05-.29.07-.29.07-.58.14-.86.22-.04.01-.08.02-.13.03-.04,0-.09.02-.13.03h0c-.1.03-.19.06-.29.09-.38.12-.75.26-1.12.41-.12.05-.23.1-.35.15-.49.21-.96.44-1.43.7-.34.18-.66.39-.98.6-.25.16-.49.32-.72.49-.43.31-.84.64-1.24.99-.43.39-.85.8-1.25,1.22h0c-.35.37-.66.74-.96,1.13-.13.17-.26.34-.37.51-.14.17-.26.34-.38.51-.37.53-.68,1.09-.99,1.66-.04.08-.09.16-.12.24-.03.04-.05.09-.07.13-.13.25-.25.5-.36.76-.12.26-.23.52-.33.78-.1.25-.19.49-.27.74-.07.19-.14.37-.19.56-.07.22-.13.43-.2.65h0c-.06.23-.12.45-.17.67-.05.25-.12.5-.17.76-.06.25-.11.51-.14.77-.06.5-.13,1.01-.18,1.51-.03.26-.04.51-.04.76-.01.21-.01.43-.02.64-.03.01-.07.02-.11.02-.53.1-1.07.19-1.6.29-.01.01-.02.01-.03.01l-.1.02c-.37.07-.6.28-.66.6h0c-.02.11-.02.22.01.34.09.6.2,1.2.32,1.8.11.56.47.8,1.04.71.29-.05.58-.13.88-.14.01.06-.03.09-.07.12-.25.17-.47.36-.65.58-.36.4-.62.88-.84,1.38-.28.67-.41,1.36-.44,2.08-.01.8.1,1.58.35,2.34.14.43.32.82.55,1.19-1.75-.94-3.01-2.51-3.36-4.44-.17-.96-.1-1.92.18-2.83-2.52-.73-4.47-2.61-4.91-5.08-.49-2.72.98-5.4,3.51-6.92-1.22-.99-2.07-2.35-2.36-3.93-.6-3.35,1.55-6.63,4.97-7.95.02-.91.24-1.81.66-2.66,1.42-2.85,4.72-4.2,8.03-3.56h0c.11-.71.33-1.4.66-2.06,1.07-2.17,3.13-3.55,5.48-3.98l.88,4.9,1.68,9.33Z" fill="#c87223" stroke-width="0"/>
            <path d="M65.45,66.9s-.09.02-.13.04h0s.09-.04.13-.04Z" fill="#c87223" stroke-width="0"/>
            <path d="M67.05,66.52c-.1.03-.2.09-.31.07-.1.02-.2.04-.3.06.09-.02.19-.05.29-.07.11.02.21-.04.32-.06Z" fill="#c87223" stroke-width="0"/>
          </g>
          <g>
            <path d="M85.53,109.21l-.55,5.76-.14-.78-6.69,3.13-1.4.25-.49.09-1.26-7.02.46-.08c.6-.11,1.18-.28,1.76-.43.75-.2,1.46-.5,2.17-.8.4-.17.79-.38,1.17-.6.48-.26.93-.54,1.38-.85.47-.31.9-.68,1.32-1.05.14-.12.28-.25.41-.38.14-.13.26-.26.39-.4.13-.13.25-.27.38-.41.13-.13.25-.27.38-.41l.69,3.86.02.12Z" fill="#ef9d94" stroke-width="0"/>
            <polygon points="84.13 123.83 81.19 140.61 80.79 142.91 80.79 142.9 77.4 124.04 79.36 123.68 84.13 123.83" fill="#fbfbfb" stroke-width="0"/>
            <path d="M85.53,109.08v.06s0,.08,0,.08l-.55,5.76-.14-.78-6.69,3.13-1.4.25c.85-4.05,7.94-8.04,8.76-8.48.01,0,.02,0,.02-.01h0Z" fill="#fbfbfb" stroke-width="0"/>
            <polygon points="93.25 113.6 93.24 113.62 88.71 122.49 86.59 123.73 86.56 123.75 84.98 114.97 85.53 109.21 85.54 109.14 85.54 109.12 93.25 113.6" fill="#4b366a" stroke-width="0"/>
            <g>
              <polygon points="76.48 118.72 76.46 118.81 76.45 118.72 76.48 118.72" fill="#04c0b1" stroke-width="0"/>
              <polygon points="84.84 114.19 86.59 123.91 86.3 123.9 85.05 123.86 84.13 123.83 79.36 123.68 78.22 117.31 78.15 117.32 84.84 114.19" fill="#04c0b1" stroke-width="0"/>
              <polygon points="78.22 117.31 79.36 123.68 77.4 124.04 76.46 118.81 76.48 118.72 76.44 118.72 76.25 117.66 78.22 117.31" fill="#03a193" stroke-width="0"/>
              <polygon points="76.48 118.72 76.46 118.81 76.45 118.72 76.48 118.72" fill="#03a193" stroke-width="0"/>
            </g>
            <path d="M89.92,130.69s-1.11,3.87-2.35,6.86c0,.02-.01.04-.03.06-.15.3-.7,1.18-1.42,2.29-1.72,2.67-4.37,6.63-4.6,7.03l-.75-4h0l.4-2.31,2.94-16.78.91.02,1.26.04-.5.29.92,1.44,3.2,5.06h0Z" fill="#4b366a" stroke-width="0"/>
          </g>
          <g>
            <path d="M91.8,87.19c.02.43-.01.85-.09,1.26-.08.49-.23.97-.45,1.43-.45.94-1.09,1.71-2.07,2.14-.24.11-.49.18-.75.23-.1.02-.15.06-.14.18.08.91.04,1.82-.01,2.74-.03.73-.09,1.45-.21,2.18-.08.51-.18,1.01-.29,1.52-.19.85-.44,1.68-.76,2.48-.29.76-.65,1.49-1.06,2.2-.32.54-.67,1.07-1.08,1.55-.02.03-.04.07-.06.1-.01.01-.02.02-.02.03-.13.14-.25.28-.37.41-.13.14-.25.28-.38.41-.13.14-.25.27-.39.4-.13.13-.27.26-.41.38-.42.37-.85.74-1.32,1.05-.45.31-.9.59-1.38.85-.38.22-.77.43-1.17.6-.71.3-1.42.6-2.17.8-.58.15-1.16.32-1.76.43l-.46.08-4.64-25.8c.26-.06.53-.12.8-.16.26-.04.52-.08.79-.13.02-.01.03-.01.04-.01.02,0,.04,0,.05.02.01.01.02.03.02.06,0,.12.02.23.03.35.04.34.13.67.2,1.01.02.1,0,.21.09.28.16.37.3.76.5,1.11,1.04,1.84,2.62,2.93,4.67,3.29.36.06.72.09,1.07.09h.11c.13,0,.24-.01.36-.03.06,0,.11,0,.16-.01.12-.01.24-.03.36-.05.04,0,.09-.02.13-.03.19-.03.37-.08.56-.14.08-.03.17-.05.26-.09.09-.02.18-.05.27-.09.27-.11.54-.24.79-.39.12-.07.23-.13.34-.22.12-.07.23-.15.34-.24.04-.02.09-.06.13-.1.13-.1.25-.2.36-.31.29-.26.55-.55.79-.87.15-.2.3-.42.43-.64.15-.26.29-.52.4-.79.08-.19.15-.38.21-.58.08-.23.14-.46.18-.7.03-.16.06-.33.07-.5.01-.03.01-.06.01-.08.02-.19.03-.38.03-.57v-.04c0-.29-.02-.59-.06-.89v-.02c-.04-.3-.09-.61-.17-.91-.01-.04-.02-.07-.02-.09,0-.05.01-.08.04-.1.02-.03.06-.04.13-.05.03-.01.06-.02.09-.02s.07-.01.1-.01h0c.39-.07.79-.15,1.18-.22.6-.1,1.19-.23,1.79-.3.02.06.07.08.12.09.3.07.57.18.82.32.47.25.87.61,1.25,1.01.5.52.86,1.13,1.13,1.8.3.74.46,1.5.49,2.3Z" fill="#f8c1b0" stroke-width="0"/>
            <polygon points="70.36 84.84 75 110.64 74.99 110.64 70.36 84.84" fill="#f8c1b0" stroke-width="0"/>
            <path d="M84.85,83.37c-.05-.3-.11-.61-.18-.91-.01-.04-.01-.07-.01-.09,0,.02.01.05.02.09.08.3.13.61.17.91Z" fill="#f8c1b0" stroke-width="0"/>
            <path d="M67.41,66.46c-.11.07-.22.04-.33.06h-.02s-1.67-9.33-1.67-9.33h.01l1.68,9.32c.12-.02.23.01.33-.05Z" fill="#f58925" stroke-width="0"/>
            <path d="M68.99,66.29c-.06.01-.11.01-.17.02-.09,0-.18.01-.27.01.09-.01.18-.02.27-.02.06,0,.12-.01.17-.01Z" fill="#f58925" stroke-width="0"/>
            <path d="M74.63,66.98c-.12-.03-.24-.07-.37-.1-.27-.08-.54-.14-.82-.2-.38-.08-.74-.17-1.12-.23.38.06.75.14,1.13.22.27.06.55.12.81.2.13.03.25.07.37.11Z" fill="#f58925" stroke-width="0"/>
            <path d="M77.39,68.09c-.52-.26-1.05-.5-1.6-.71l-.57-.21c.19.06.38.13.57.2.55.22,1.07.45,1.6.72Z" fill="#f58925" stroke-width="0"/>
            <path d="M82.02,71.44c-.16-.15-.32-.3-.48-.44-.1-.1-.19-.18-.29-.27-.49-.43-.98-.84-1.51-1.21-.17-.12-.34-.24-.52-.36.18.11.35.23.52.35.53.37,1.03.78,1.52,1.21.1.09.19.17.29.27.16.14.31.29.47.45Z" fill="#f58925" stroke-width="0"/>
            <path d="M84.64,74.69c-.08-.11-.15-.21-.22-.32-.12-.19-.25-.38-.38-.57l.39.57c.07.11.14.21.21.32Z" fill="#f58925" stroke-width="0"/>
            <path d="M86.6,78.32h0s-.08.02-.12.03h0c-.08-.2-.16-.4-.24-.59-.09-.24-.18-.47-.29-.7.12.23.22.45.3.69h.01c.08.2.15.4.23.59.04,0,.07-.01.11-.02Z" fill="#f58925" stroke-width="0"/>
            <path d="M84.68,82.46s-.02-.07-.02-.09c0,.02,0,.05.01.09.07.3.13.61.18.91-.04-.3-.09-.61-.17-.91ZM86.49,78.34h-.01s.08,0,.12-.01h0s-.07.01-.11.01Z" fill="#272623" stroke-width="0"/>
            <path d="M89.6,80.47c-.1-.6-.21-1.2-.32-1.79-.02-.11-.06-.21-.1-.3h-.01c-.16-.29-.45-.42-.84-.36l-.14.02h-.03c-.52.09-1.03.19-1.55.28h-.01s-.08.02-.12.03h0c-.74.12-1.48.26-2.23.4-.51.09-1.02.19-1.53.28-.05,0-.09,0-.13-.01-.03-.01-.05-.02-.08-.04-.12-.1-.24-.2-.36-.29-.04-.03-.08-.06-.12-.08h-.01c-.06-.06-.12-.11-.19-.14-.17-.12-.35-.23-.53-.32h-.01c-.19-.1-.38-.19-.57-.27-.02-.01-.03-.01-.05-.02-.14-.06-.28-.11-.42-.15-.01,0-.02-.01-.03-.01s0,0-.02-.01c-.08-.02-.17-.04-.25-.06-.14-.04-.29-.07-.44-.1-.01,0-.02,0-.04-.01-.16-.02-.32-.04-.48-.05-.48-.05-.94-.04-1.38,0-.23.02-.45.06-.67.11-.22.05-.43.11-.64.18-.42.14-.82.33-1.19.57-.38.24-.75.53-1.09.85-.17.16-.34.33-.5.52h0c-.12.15-.24.31-.36.47-.06.08-.1.16-.15.24-.05.09-.1.17-.14.26-.02.04-.04.07-.07.09-.03.02-.06.04-.1.05-.99.17-1.97.35-2.96.53h-.01l.63,3.49c.26-.06.53-.12.8-.16.26-.05.52-.1.79-.14h.04s.04,0,.05.02c.02.01.02.03.03.06,0,.12.01.23.02.35.04.34.13.67.2,1.01.06.09.08.18.09.28.16.37.3.76.5,1.11,1.04,1.84,2.62,2.93,4.67,3.29.36.06.72.09,1.07.09h.11c.13,0,.24-.01.36-.03.06,0,.11,0,.16-.01.12-.01.24-.03.36-.05.04,0,.09-.02.13-.03.19-.03.37-.08.56-.14.08-.03.17-.05.26-.09.09-.03.18-.06.26-.1h.01c.27-.11.54-.23.79-.38.12-.07.23-.13.34-.22.12-.07.23-.15.34-.24.04-.02.09-.06.13-.1.13-.1.25-.2.36-.31.29-.26.55-.55.79-.87.15-.2.3-.42.43-.64.15-.26.29-.52.4-.79.08-.19.15-.38.21-.58.08-.23.14-.46.18-.7.03-.16.06-.33.07-.5.01-.03.01-.06.01-.08.02-.19.03-.38.03-.57v-.04c0-.29-.02-.59-.06-.89v-.02c-.05-.3-.11-.61-.18-.91-.01-.04-.01-.07-.01-.09,0-.05.01-.08.04-.1.02-.03.06-.04.13-.05.03-.01.06-.02.09-.02s.06-.01.09-.02h.01c.39-.06.79-.14,1.18-.21.6-.1,1.19-.23,1.79-.3.29-.09.59-.11.88-.17.56-.12.82-.47.73-1.03ZM83.07,84.63c-.01.14-.03.28-.06.41-.2,1.23-.84,2.22-1.86,3-.5.38-1.18.67-1.86.79-.07.02-.15.03-.22.03-1.81.23-3.64-.7-4.56-2.32-.77-1.37-.9-2.81-.37-4.28.39-1.06,1.1-1.87,2.09-2.43,1.3-.75,2.8-.7,4.04-.14h.01c.3.13.57.3.83.49h.01c.22.17.42.34.61.53.02.02.04.05.07.07h0c.05.07.1.13.15.19.05.06.1.12.14.18.12.15.22.3.31.46.54.91.77,1.92.67,3.02Z" fill="#252523" stroke-width="0"/>
            <path d="M93.27,83.18c.34,1.9-.28,3.78-1.56,5.27.08-.41.11-.83.09-1.26-.03-.8-.19-1.56-.49-2.3-.27-.67-.63-1.28-1.13-1.8-.38-.4-.78-.76-1.25-1.01-.25-.14-.52-.25-.82-.32-.05-.01-.1-.03-.12-.09.29-.09.59-.11.88-.17.56-.12.82-.47.73-1.03-.1-.6-.21-1.2-.32-1.79-.02-.11-.06-.21-.1-.3h-.01c-.16-.29-.45-.42-.84-.36l-.14.02h-.03c-.52.09-1.03.19-1.55.28h-.01s-.07.02-.11.02c-.08-.19-.15-.39-.23-.58h-.01c-.08-.25-.18-.47-.3-.7h0c-.23-.47-.47-.91-.7-1.36-.06-.12-.12-.23-.19-.35-.13-.22-.27-.43-.42-.65h0c-.07-.12-.14-.22-.21-.33l-.39-.57c-.25-.34-.51-.68-.79-1-.16-.21-.33-.4-.51-.6-.24-.26-.48-.51-.72-.76-.16-.16-.31-.31-.47-.45-.1-.1-.19-.18-.29-.27-.49-.43-.99-.84-1.52-1.21-.17-.12-.34-.24-.52-.35-.17-.12-.34-.22-.51-.33-.02-.01-.03-.02-.05-.03-.02-.02-.04-.03-.06-.04-.39-.24-.79-.46-1.2-.67h-.01c-.53-.27-1.05-.5-1.6-.72-.19-.07-.38-.14-.57-.2-.2-.06-.39-.13-.59-.19-.12-.04-.24-.08-.37-.11-.26-.08-.54-.14-.81-.2-.38-.08-.75-.16-1.13-.22-.41-.06-.83-.1-1.24-.14-.25-.02-.49-.03-.74-.04h-.01c-.39-.01-.78-.01-1.17.01-.06,0-.11,0-.17,0-.05,0-.11.01-.17.01-.09,0-.18.01-.27.02-.09,0-.18.02-.27.03-.29.03-.58.07-.87.11-.1.06-.21.03-.33.05l-1.68-9.32h-.02l-.88-4.9c2.36-.42,4.76.16,6.52,1.82.54.5.99,1.08,1.33,1.7,2.88-1.75,6.45-1.63,8.77.55.69.65,1.2,1.42,1.55,2.26,3.68.05,6.83,2.37,7.42,5.73.29,1.58-.04,3.14-.84,4.49,2.9.55,5.21,2.56,5.7,5.28.45,2.47-.73,4.9-2.84,6.47.58.75.99,1.63,1.16,2.59Z" fill="#f58925" stroke-width="0"/>
            <path d="M85.46,108.76v.04s0-.02,0-.04Z" fill="#4b366a" stroke-width="0"/>
            <path d="M85.47,108.74s0,.01-.01.02v-.03s.01,0,.01,0h0Z" fill="#4b366a" stroke-width="0"/>
            <path d="M72.38,86.26c-.09-.07-.07-.18-.09-.28.06.09.08.18.09.28Z" fill="#deaea3" stroke-width="0"/>
            <path d="M67.1,66.66s0-.05-.02-.07c0-.02,0-.05-.01-.07h0s.01-.01.01-.01h0c.01.06.01.1.02.15Z" fill="#deaea3" stroke-width="0"/>
            <path d="M74.63,66.98c-.12-.03-.24-.07-.37-.1-.27-.08-.54-.14-.82-.2-.38-.08-.74-.17-1.12-.23.38.06.75.14,1.13.22.27.06.55.12.81.2.13.03.25.07.37.11Z" fill="#f8c1b0" stroke-width="0"/>
            <path d="M77.39,68.09c-.52-.26-1.05-.5-1.6-.71l-.57-.21c.19.06.38.13.57.2.55.22,1.07.45,1.6.72Z" fill="#f8c1b0" stroke-width="0"/>
            <path d="M68.82,66.31c-.09,0-.18.01-.27.01.09-.01.18-.02.27-.02.06,0,.12-.01.17-.01-.06.01-.11.01-.17.02Z" fill="#f8c1b0" stroke-width="0"/>
            <path d="M69.74,81.35h-.01l-2.37-13.17-.27-1.52s-.01-.05-.01-.07,0-.05-.01-.07h0s.01-.01.01-.01c.12-.02.23.01.33-.05-.11.07-.22.04-.33.06.01.05.01.09.02.14l.27,1.52,2.37,13.17Z" fill="#f8c1b0" stroke-width="0"/>
            <path d="M82.02,71.44c-.16-.15-.32-.3-.48-.44-.1-.1-.19-.18-.29-.27-.49-.43-.98-.84-1.51-1.21-.17-.12-.34-.24-.52-.36.18.11.35.23.52.35.53.37,1.03.78,1.52,1.21.1.09.19.17.29.27.16.14.31.29.47.45Z" fill="#f8c1b0" stroke-width="0"/>
            <path d="M84.64,74.69c-.08-.11-.15-.21-.22-.32-.12-.19-.25-.38-.38-.57l.39.57c.07.11.14.21.21.32Z" fill="#f8c1b0" stroke-width="0"/>
            <path d="M86.49,78.34h-.01c-.08-.19-.16-.39-.24-.58-.09-.24-.18-.47-.29-.7.12.23.22.45.3.69h.01c.08.2.15.4.23.59Z" fill="#f8c1b0" stroke-width="0"/>
            <path d="M82.4,81.61c-.09-.16-.19-.31-.31-.46-.04-.06-.09-.12-.14-.18-.05-.06-.1-.12-.15-.18h0s-.05-.06-.07-.08c-.19-.19-.39-.36-.61-.52h-.01c-.26-.2-.53-.37-.83-.5h-.01c-1.24-.56-2.74-.61-4.04.14-.99.56-1.7,1.37-2.09,2.43-.53,1.47-.4,2.91.37,4.28.92,1.62,2.75,2.55,4.56,2.32.07,0,.15-.01.22-.03.68-.12,1.36-.41,1.86-.79,1.02-.78,1.66-1.77,1.86-3,.03-.13.05-.27.06-.41.1-1.1-.13-2.11-.67-3.02ZM77.67,85.94h-.01c-.66.12-1.3-.32-1.42-.97-.08-.44.09-.86.4-1.13.06-.05.11-.09.17-.13.13-.07.26-.12.41-.15.18-.04.36-.03.52.01h.01s.08.02.11.04c.07.02.13.05.19.09.12.06.22.15.31.26.06.05.09.1.12.16.03.04.06.08.07.13.04.08.07.17.09.27.13.65-.32,1.29-.97,1.42Z" fill="#f8c1b0" stroke-width="0"/>
            <path d="M78.64,84.52c.13.65-.32,1.29-.97,1.42h-.01c-.66.12-1.3-.32-1.42-.97-.08-.44.09-.86.4-1.13.06-.05.11-.09.17-.13.13-.07.26-.12.41-.15.18-.03.37-.03.53.02.04.01.08.02.11.03.07.02.13.05.19.09.12.06.22.15.31.26.05.05.09.1.12.16.03.04.05.09.07.13.04.08.07.17.09.27Z" fill="#252523" stroke-width="0"/>
          </g>
          <g>
            <path d="M117.22,148.27l-34.36,6.17-2.07-11.52h0s.75,4,.75,4c.23-.4,2.88-4.36,4.6-7.03.71-1.11,1.27-1.99,1.42-2.29.01-.02.02-.04.03-.06,1.23-2.99,2.35-6.86,2.35-6.86l-3.2-5.06-.92-1.44.5-.29h.28s-.03-.15-.03-.15l.03-.02,2.12-1.25.76-1.49,3.77-7.38c3.95,2.33,8.43,5.36,12.5,9.87,1.11,1.22,2.18,2.56,3.21,4.01,1.53,2.16,2.95,4.6,4.2,7.37l4.08,13.4h0Z" fill="#654092" stroke-width="0"/>
            <polygon points="80.79 142.91 80.79 142.92 80.79 142.92 80.79 142.9 80.79 142.91" fill="#654092" stroke-width="0"/>
            <path d="M76.25,117.66l-.49.09-1.4.25-7.36-.6.14.76h0s-2.52-5.19-2.52-5.19l-.02-.13-.06-.3v-.05s-.63-3.51-.63-3.51c.49.26.98.52,1.49.75.17.08.34.15.52.22.13.05.26.1.39.14.4.14.8.28,1.22.38.52.13,1.05.24,1.58.32.44.06.87.13,1.3.15.78.03,1.55.07,2.32,0,.46-.05.93-.09,1.38-.16.14-.01.27-.03.41-.05l.39-.07.08-.02,1.26,7.02Z" fill="#e0a79f" stroke-width="0"/>
            <path d="M81.51,146.96l1.34,7.48-29.09,5.22v.05s-6.06,1.09-6.06,1.09v-.05s-.05-14.12-.05-14.12c.26-3.79.95-7.19,1.92-10.26,2.23-7.11,5.96-12.43,9.34-16.59l3,2.76,4.33,3.98,2.42.43h.03s.03.16.03.16l.26-.1.57.1-.36,1.67-1.24,5.85s2.39,3.24,4.59,5.61c.01.01.03.03.04.04.25.23,1.07.87,2.13,1.66,2.55,1.9,6.43,4.71,6.78,5.01Z" fill="#412d75" stroke-width="0"/>
            <polygon points="77.4 124.04 80.79 142.9 79.61 140.89 71.02 126.19 75.44 124.39 77.4 124.04" fill="#dbcee7" stroke-width="0"/>
            <path d="M64.57,112.85v.06s.05.07.05.07l2.52,5.21-.14-.78,7.36.61,1.4-.25c-2.21-3.5-10.24-4.78-11.16-4.9-.01,0-.02,0-.03,0h0Z" fill="#dbcee7" stroke-width="0"/>
            <path d="M80.79,142.9l.73,4.05c-.35-.3-4.23-3.11-6.78-5.01-1.06-.8-1.89-1.43-2.13-1.66-.02-.02-.03-.03-.04-.04-2.2-2.37-4.59-5.61-4.59-5.61l1.24-5.85.36-1.67-.57-.1,1.16-.48.85-.34,8.59,14.71,1.18,2.01h0Z" fill="#382b6a" stroke-width="0"/>
            <polygon points="80.79 142.91 80.79 142.92 80.79 142.92 80.79 142.9 80.79 142.91" fill="#382b6a" stroke-width="0"/>
            <polygon points="67.14 118.17 68.71 126.95 68.68 126.95 66.26 126.52 58.93 119.78 58.91 119.77 64.58 112.88 64.59 112.9 64.62 112.97 67.14 118.17" fill="#382b6a" stroke-width="0"/>
            <g>
              <polygon points="76.41 118.73 76.46 118.81 76.45 118.72 76.41 118.73" fill="#04c0b1" stroke-width="0"/>
              <polygon points="74.36 118 74.29 118.01 75.44 124.39 71.02 126.19 70.17 126.53 69.01 127.01 68.74 127.11 67 117.4 74.36 118" fill="#03a295" stroke-width="0"/>
              <polygon points="76.44 118.72 76.41 118.73 76.46 118.81 77.4 124.04 75.44 124.39 74.29 118.01 76.25 117.66 76.44 118.72" fill="#00927a" stroke-width="0"/>
              <polygon points="76.41 118.73 76.46 118.81 76.45 118.72 76.41 118.73" fill="#03a193" stroke-width="0"/>
            </g>
          </g>
          <g>
            <path d="M74.99,110.64l-.08.02-.38.06c-.14.03-.28.05-.42.06-.45.07-.92.11-1.38.16-.77.07-1.54.03-2.32,0-.43-.02-.86-.09-1.3-.15-.53-.08-1.06-.19-1.58-.32-.42-.1-.82-.24-1.22-.38-.13-.05-.26-.1-.39-.15-.09-.03-.18-.06-.26-.1-.09-.04-.18-.08-.26-.11-.51-.23-1-.49-1.49-.75,0,0-.02,0-.03-.02-.03-.02-.05-.05-.09-.07-.55-.31-1.06-.68-1.55-1.08-.63-.52-1.22-1.08-1.76-1.69-.58-.64-1.1-1.33-1.57-2.06-.29-.44-.55-.88-.81-1.33-.36-.64-.67-1.3-.96-1.97-.36-.84-.71-1.68-.95-2.56-.03-.12-.09-.14-.2-.12-.25.04-.52.06-.78.04-1.07-.06-1.94-.56-2.69-1.29-.35-.34-.65-.72-.89-1.13-.23-.37-.41-.76-.55-1.19-.25-.76-.36-1.54-.35-2.34.03-.72.16-1.41.44-2.08.22-.5.48-.98.84-1.38.18-.22.4-.41.65-.58.04-.03.08-.06.07-.12.59-.15,1.19-.23,1.79-.34.22-.05.45-.09.68-.13.14-.02.28-.04.42-.07h.01s.01-.01.01-.01h.02c.08-.01.15-.02.23-.04.03-.01.06-.01.09-.01.02,0,.04,0,.05.01,0,0,.02.01.03.02s.02.02.02.03,0,.02.01.03c0,.03,0,.06.02.09.01.11.03.23.05.34.02.11.04.22.06.33.08.44.2.86.36,1.26.08.2.17.39.27.58.09.17.18.33.28.49.05.08.1.16.16.24.1.14.21.28.32.41s.22.26.35.38c.04.04.09.09.13.13.13.13.27.25.42.37.11.09.22.17.33.25.09.07.19.13.29.19,0,.01.01.01.01.01.1.07.2.13.3.18.12.07.24.14.37.2.02.01.03.01.05.02.15.08.31.14.47.2.04.02.09.04.13.05.14.05.28.1.42.14.1.03.21.06.31.08.13.03.25.06.38.08.17.03.34.05.5.06.05.01.11.02.17.01.03,0,.06,0,.09,0,.03.01.05.01.08.01h.22c.19,0,.38-.01.57-.03.2-.02.39-.04.58-.08.26-.05.51-.11.76-.2.13-.04.25-.09.38-.14.24-.1.49-.22.73-.36.9-.53,1.63-1.19,2.17-1.97.27-.39.49-.82.67-1.27.09-.23.17-.47.23-.71.05-.17.08-.34.11-.51.03-.08.05-.16.06-.25.01-.1.03-.2.03-.3.03-.31.03-.61.04-.92.06-.1,0-.19-.01-.29-.02-.17-.04-.34-.07-.51-.03-.17-.06-.34-.09-.51-.03-.11-.05-.22-.09-.33-.01-.02-.01-.03-.01-.05s.01-.03.02-.04c0-.01.03-.02.06-.02.13-.02.27-.05.4-.08.4-.07.79-.15,1.19-.2l4.63,25.8Z" fill="#dfafa4" stroke-width="0"/>
            <path d="M56.16,87.93c-.02-.11-.04-.23-.05-.34-.01-.03-.01-.06-.02-.09.02.02.02.05.03.09.01.11.02.23.04.34Z" fill="#dfafa4" stroke-width="0"/>
            <path d="M56.58,89.52c-.16-.4-.28-.82-.36-1.26.09.44.21.86.36,1.26Z" fill="#dfafa4" stroke-width="0"/>
            <path d="M62.63,93.61h-.22s-.05,0-.08-.01h.09c.07.01.14.01.21.01Z" fill="#dfafa4" stroke-width="0"/>
            <polygon points="75 110.64 74.99 110.64 70.36 84.84 75 110.64" fill="#dfafa4" stroke-width="0"/>
            <path d="M52.98,84.36s-.07.02-.1.03h-.01s.08-.02.11-.03Z" fill="#c87223" stroke-width="0"/>
            <path d="M53.36,80.68c-.05.26-.1.52-.13.77-.07.51-.13,1.01-.18,1.52-.03.25-.04.5-.04.75-.01.21-.01.43-.02.64h-.01c.01-.21.01-.43.02-.64,0-.25.01-.5.04-.76.05-.5.12-1.01.18-1.51.03-.26.08-.52.14-.77Z" fill="#c87223" stroke-width="0"/>
            <path d="M53.7,79.26c-.06.22-.11.44-.16.66-.06.26-.12.51-.18.76.05-.26.12-.51.17-.76.05-.22.11-.44.17-.66Z" fill="#c87223" stroke-width="0"/>
            <path d="M56.61,73.22c-.13.17-.25.34-.37.52-.37.53-.69,1.08-1,1.65.31-.57.62-1.13.99-1.66.12-.17.24-.34.38-.51Z" fill="#c87223" stroke-width="0"/>
            <path d="M57.94,71.59c-.33.36-.65.73-.95,1.12-.13.17-.26.33-.38.51.11-.17.24-.34.37-.51.3-.39.61-.76.96-1.12Z" fill="#c87223" stroke-width="0"/>
            <path d="M63.91,67.43h0c-.12.05-.24.1-.35.15.12-.05.23-.1.35-.15Z" fill="#c87223" stroke-width="0"/>
            <path d="M65.45,66.9s-.09.02-.13.04h0s.09-.04.13-.04Z" fill="#c87223" stroke-width="0"/>
            <path d="M67.05,66.52c-.1.03-.2.09-.31.07-.1.02-.2.04-.3.06.09-.02.19-.05.29-.07.11.02.21-.04.32-.06Z" fill="#c87223" stroke-width="0"/>
            <polygon points="67.08 66.51 67.06 66.51 67.06 66.52 67.05 66.52 65.37 57.19 65.4 57.19 67.08 66.51" fill="#c87223" stroke-width="0"/>
            <path d="M56.12,87.59s-.01-.07-.03-.09c0,.03,0,.06.02.09.01.11.03.23.05.34-.02-.11-.03-.23-.04-.34ZM56.22,88.26c.08.44.2.86.36,1.26-.15-.4-.27-.82-.36-1.26ZM52.87,84.38h.01s.06-.01.1-.02c-.03.01-.07.02-.11.02ZM51.14,84.7c-.37.07-.6.28-.66.6.25-.22.51-.44.79-.63-.01.01-.02.01-.03.01l-.1.02ZM62.42,93.6h-.09s.05.01.08.01h.22c-.07,0-.14,0-.21-.01Z" fill="#252523" stroke-width="0"/>
            <path d="M68.71,85.14s.03-.02.06-.02c.13-.02.27-.05.4-.08.39-.08.79-.16,1.19-.2l-.63-3.49c-.15.03-.3.06-.45.08l-2.51.46h-.03s-.07-.01-.09-.03c-.01,0-.03-.02-.04-.03-.01,0-.03-.01-.04-.02-.29-.26-.61-.49-.95-.67-.2-.1-.39-.2-.59-.29-.15-.07-.3-.13-.44-.18-.45-.16-.89-.27-1.33-.34t-.02,0c-.49-.07-.98-.07-1.48-.01-.25.03-.51.07-.76.14-.2.05-.41.11-.61.18-.11.04-.23.08-.34.13s-.23.11-.34.16c-.17.08-.34.17-.5.27-.1.06-.2.12-.29.18-.09.06-.19.13-.28.2-.17.13-.33.27-.49.41-.01.02-.02.02-.03.03-.15.15-.3.3-.44.46-.01.02-.03.04-.04.06-.14.17-.27.34-.39.52-.06.08-.11.17-.16.25-.06.08-.11.17-.16.26-.02.04-.05.07-.07.09-.02.01-.04.02-.06.02-.02.01-.03.02-.05.02-.25.04-.51.08-.76.13-.25.04-.51.09-.77.14-.17.03-.35.06-.52.09-.24.04-.47.08-.7.12-.34.05-.67.12-1.01.18h-.01s-.07.02-.1.03h-.01c-.53.09-1.07.18-1.6.28-.28.19-.54.41-.79.63h0c-.02.11-.02.22.01.34.09.6.2,1.2.32,1.8.11.56.47.8,1.04.71.29-.05.58-.13.88-.14.59-.15,1.19-.23,1.79-.34.22-.05.45-.09.68-.13.14-.03.29-.05.43-.08h.03c.07-.01.15-.03.23-.05.03,0,.07,0,.09,0,.02,0,.04,0,.05.01,0,0,.02.01.03.02s.02.02.02.03,0,.02.01.03c.02.02.02.05.03.09.01.11.02.23.04.34.02.11.04.22.06.33.09.44.21.86.36,1.26.08.2.17.39.27.58.09.17.18.33.28.49.05.08.1.16.16.24.1.14.21.28.32.41s.22.26.35.38c.04.04.09.09.13.13.13.13.27.25.42.37.11.09.22.17.33.25.09.07.19.13.29.19,0,.01.01.01.01.01.1.07.2.13.3.18.12.07.24.14.37.2.02.01.03.01.05.02.15.08.31.14.47.2.04.02.09.04.13.05.14.05.28.1.42.14.1.03.21.06.31.08.13.03.25.06.38.08.17.03.34.05.5.06.05.01.11.02.17.01.03,0,.06,0,.09,0h.09c.07.01.14.01.21.01.19,0,.38-.01.57-.03.2-.02.39-.04.58-.08.26-.05.51-.12.76-.2.13-.04.25-.09.38-.14.24-.1.49-.22.73-.36.9-.53,1.63-1.19,2.17-1.97.27-.39.49-.82.67-1.27.09-.23.17-.47.23-.71.05-.17.08-.34.11-.51.02-.08.04-.16.05-.25.02-.1.03-.2.04-.3.03-.31.03-.61.04-.92-.01-.06-.03-.13-.03-.2,0-.03,0-.06.01-.09-.02-.17-.04-.34-.06-.51-.03-.17-.06-.34-.09-.51-.03-.11-.06-.22-.1-.33-.01-.02-.01-.04,0-.05-.01-.02,0-.04.02-.04ZM67.06,87.88c-.29,1.85-1.71,3.37-3.5,3.77h-.01c-.06.02-.11.03-.16.04-.69.12-1.43.09-2.03-.1-1.36-.42-2.37-1.24-2.98-2.53-.56-1.16-.65-2.36-.3-3.6.08-.28.19-.56.33-.83.01-.03.03-.05.04-.08.01-.01.02-.03.03-.04.21-.38.48-.72.79-1.03.96-.97,2.36-1.55,3.85-1.3,1.12.19,2.07.69,2.8,1.56,1.01,1.19,1.39,2.59,1.14,4.14Z" fill="#252523" stroke-width="0"/>
            <path d="M64.53,112.52v.04s0-.03,0-.04Z" fill="#4b366a" stroke-width="0"/>
            <path d="M64.51,112.5s.01,0,.02.02v-.03s-.02,0-.02,0h0Z" fill="#4b366a" stroke-width="0"/>
            <path d="M68.96,86.87c-.01-.06-.03-.13-.03-.2,0-.03.01-.06.02-.09.02.1.07.19.01.29Z" fill="#deaea3" stroke-width="0"/>
            <path d="M67.06,66.52c0,.05.02.1.03.15l-.03-.15h0Z" fill="#deaea3" stroke-width="0"/>
            <path d="M69.73,81.35c-.15.03-.3.06-.45.08-.84.15-1.67.3-2.51.45-.01,0-.02.01-.03.01-.04,0-.07-.01-.09-.03-.01,0-.03-.02-.04-.03s-.03-.02-.04-.03c-.29-.27-.61-.49-.95-.67-.2-.11-.39-.2-.59-.28-.15-.07-.3-.13-.44-.18-.44-.17-.89-.28-1.33-.34t-.02,0c-.49-.07-.98-.07-1.48-.01-.25.03-.51.07-.76.14-.2.05-.41.11-.61.18-.11.04-.23.08-.34.13s-.23.09-.34.15c-.18.08-.35.18-.51.27-.1.06-.19.12-.28.19-.09.06-.19.13-.28.2-.17.13-.34.27-.49.41-.01.02-.02.02-.03.03-.15.15-.3.3-.44.46-.01.02-.03.04-.04.06-.14.16-.27.34-.39.52-.06.08-.11.17-.16.25-.06.08-.11.17-.16.26-.02.04-.05.07-.07.09-.02.01-.04.02-.06.02-.01,0-.03,0-.05.01-.25.05-.51.09-.76.14-.25.04-.51.09-.77.14-.17.03-.35.06-.52.09-.24.04-.47.08-.7.12-.34.05-.67.12-1.01.18.01-.21.01-.43.02-.64,0-.25.01-.5.04-.75.05-.51.11-1.01.18-1.52.03-.25.08-.51.13-.77.06-.25.12-.5.18-.76.05-.22.1-.44.16-.66h0c.07-.23.13-.44.2-.66.05-.19.12-.37.19-.56.08-.25.17-.49.27-.74.1-.26.21-.52.33-.78.11-.26.23-.51.36-.76h.01s.03-.09.06-.13c.03-.08.08-.16.12-.24.31-.57.63-1.12,1-1.65.12-.18.24-.35.37-.52.12-.18.25-.34.38-.51.3-.39.62-.76.95-1.12h0c.4-.43.82-.84,1.25-1.23.4-.35.81-.68,1.24-.99.23-.17.47-.33.72-.49.32-.21.64-.42.98-.6.47-.26.94-.49,1.43-.7.11-.05.23-.1.35-.14h0c.37-.16.74-.3,1.12-.42.1-.03.19-.06.29-.08.04-.02.09-.03.13-.04.05-.01.09-.02.13-.03.28-.08.57-.15.86-.22.1-.02.2-.04.3-.06.11.02.21-.04.31-.07l.3,1.67h.01s2.37,13.16,2.37,13.16Z" fill="#dfafa4" stroke-width="0"/>
            <path d="M53.36,80.68c-.05.26-.1.52-.13.77-.07.51-.13,1.01-.18,1.52-.03.25-.04.5-.04.75-.01.21-.01.43-.02.64h-.01c.01-.21.01-.43.02-.64,0-.25.01-.5.04-.76.05-.5.12-1.01.18-1.51.03-.26.08-.52.14-.77Z" fill="#dfafa4" stroke-width="0"/>
            <path d="M53.7,79.26c-.06.22-.11.44-.16.66-.06.26-.12.51-.18.76.05-.26.12-.51.17-.76.05-.22.11-.44.17-.66Z" fill="#dfafa4" stroke-width="0"/>
            <path d="M56.61,73.22c-.13.17-.25.34-.37.52-.37.53-.69,1.08-1,1.65.31-.57.62-1.13.99-1.66.12-.17.24-.34.38-.51Z" fill="#dfafa4" stroke-width="0"/>
            <path d="M57.94,71.59c-.33.36-.65.73-.95,1.12-.13.17-.26.33-.38.51.11-.17.24-.34.37-.51.3-.39.61-.76.96-1.12Z" fill="#dfafa4" stroke-width="0"/>
            <path d="M63.91,67.43h0c-.12.05-.24.1-.35.15.12-.05.23-.1.35-.15Z" fill="#dfafa4" stroke-width="0"/>
            <path d="M65.45,66.9s-.09.02-.13.04h0s.09-.04.13-.04Z" fill="#dfafa4" stroke-width="0"/>
            <path d="M67.05,66.52c-.1.03-.2.09-.31.07-.1.02-.2.04-.3.06.09-.02.19-.05.29-.07.11.02.21-.04.32-.06Z" fill="#dfafa4" stroke-width="0"/>
            <path d="M69.74,81.35h-.01l-2.37-13.17h-.01s-.3-1.66-.3-1.66h.01s.01-.01.01-.01h0s.01.06.01.08c.01.02.02.05.02.07l.27,1.52,2.37,13.17Z" fill="#dfafa4" stroke-width="0"/>
            <path d="M65.92,83.74c-.73-.87-1.68-1.37-2.8-1.56-1.49-.25-2.89.33-3.85,1.3-.31.31-.58.65-.79,1.03-.01.01-.02.03-.03.04-.01.03-.03.05-.04.08-.14.27-.25.55-.33.83-.35,1.24-.26,2.44.3,3.6.61,1.29,1.62,2.11,2.98,2.53.6.19,1.34.22,2.03.1.05-.01.1-.02.16-.04h.01c1.79-.4,3.21-1.92,3.5-3.77.25-1.55-.13-2.95-1.14-4.14ZM63.9,88.41h-.04s-.01.01-.01.01c-.13.02-.25.01-.37-.01-.29-.05-.54-.2-.72-.41-.14-.17-.24-.36-.27-.58-.02-.15-.02-.29,0-.42.01-.04.02-.08.03-.11.01-.06.03-.12.06-.17.05-.1.11-.19.18-.28.03-.05.07-.09.12-.11.01-.03.03-.04.04-.04.02-.02.04-.04.06-.05h0s.04-.03.06-.04c.03-.02.06-.04.09-.06.04-.02.08-.04.12-.05.08-.03.16-.06.24-.07.65-.11,1.29.33,1.4.99.12.65-.33,1.28-.99,1.4Z" fill="#dfafa4" stroke-width="0"/>
            <path d="M64.89,87.01c.12.65-.33,1.28-.99,1.4h-.04s-.01.01-.01.01c-.13.02-.25.01-.37-.01-.29-.05-.54-.2-.72-.41-.14-.17-.24-.36-.27-.58-.02-.15-.02-.29,0-.42.01-.04.02-.08.03-.11.01-.06.03-.12.06-.17.05-.1.11-.19.18-.28.03-.04.08-.09.12-.11.01-.03.03-.04.04-.04.02-.02.04-.04.06-.05.02-.02.04-.03.06-.04.03-.02.06-.04.09-.06.04-.02.08-.04.12-.05.08-.03.16-.06.24-.07.65-.11,1.29.33,1.4.99Z" fill="#252523" stroke-width="0"/>
          </g>
        </g>
        <path d="M99.16,137.66l2.44-.81-2.14-1.45v-.04s-.03-.02-.03-.02l-.02-2.59-2.04,1.59-.04-.02-.03.03-2.46-.78.88,2.44-.03.03.02.03-1.5,2.1,2.57-.09.02.03h.04s1.54,2.08,1.54,2.08l.71-2.49h.04s0-.05,0-.05ZM99.93,136.61l-.66.22.08-.61.57.39ZM96.63,136.16l.88-.92,1.15.56-.17,1.26-1.25.23-.6-1.13ZM98.68,134.28v.7s-.55-.27-.55-.27l.55-.43ZM96.08,134.74l.66.21-.42.44-.24-.65ZM95.72,137.37l.4-.56.29.54-.69.02ZM98.1,138.52l-.41-.56.61-.11-.19.67Z" fill="#f9c0a0" stroke-width="0"/>
      </g>
    </g>
  </g>
  <g>
    <rect x="216.83" y="9.2" width="116.95" height="146.19" rx="24" ry="24" transform="translate(18.88 -47.37) rotate(10.18)" fill="#fff"/>
    <g clip-path="url(#clippath-1)">
      <g>
        <g id="sfondo">
          <rect x="202.48" y="23.99" width="145.65" height="116.56" transform="translate(145.66 338.71) rotate(-79.82)" fill="#967cad" stroke-width="0"/>
        </g>
        <g id="corpo">
          <g id="matilde">
            <g>
              <path d="M252.14,124.18c-1.62,9.03-3.31,18.04-4.88,27.08l-12.45-2.24c3.19-6.99,6.4-13.98,9.57-20.99,2.52-5.83,2.68-6.62,8.71-9.04-.34,1.73-.64,3.46-.95,5.19Z" fill="#028c88" stroke-width="0"/>
              <path d="M264.38,143.15l-1.95,10.83-15.17-2.73c.83-4.67,1.67-9.34,2.51-14.01l.12-.65c.68-3.76,1.36-7.51,2.05-11.27l.08-.47c.36-1.95.71-3.91,1.07-5.87.81-.35,1.72-.49,2.51-.85.17.06.32-.03.49-.03-1.41,7.58-2.83,15.23-4.1,22.81.21.04.47.09.78.14.17.03.34.06.51.1.25.04.5.09.76.14h.06c.83.16,1.72.33,2.64.49l.17.03c.61.11,1.23.22,1.84.33h.04c.86.16,1.71.31,2.53.46l.13.02c1.02.18,1.99.35,2.82.5l.12.02Z" fill="#0d0b09" stroke-width="0"/>
              <path d="M247.71,148.62c0-.06.02-.13.04-.19l-.07.41c.01-.08.02-.15.03-.23Z" fill="#323230" stroke-width="0"/>
              <path d="M248.38,144.89c.31-1.85.65-3.7,1.01-5.55-.34,1.85-.68,3.7-1.01,5.55Z" fill="#323230" stroke-width="0"/>
              <path d="M247.58,149.39c-.11.62-.22,1.24-.33,1.87.09-.62.2-1.25.33-1.87Z" fill="#323230" stroke-width="0"/>
              <path d="M252.92,119.8c.05-.27.11-.54.16-.81-.12.62-.24,1.23-.35,1.85l.19-1.04Z" fill="#323230" stroke-width="0"/>
              <path d="M255.5,141.56l-1.09-.2c-.11-.02-.22-.04-.32-.06h-.06c-.11-.03-.22-.05-.31-.07l-.44-.08c.13.02.27.05.42.07h.05c.43.08.9.17,1.4.26.12.02.24.05.36.07Z" fill="#323230" stroke-width="0"/>
              <path d="M261.76,142.68c-.11-.02-.21-.03-.33-.05l-.13-.02c-.55-.09-1.13-.19-1.74-.3-.03,0-.05,0-.08-.01-.85-.15-1.73-.32-2.58-.48l-.17-.03c-.21-.04-.42-.08-.63-.12-.11-.02-.22-.04-.32-.06l5.98,1.07Z" fill="#323230" stroke-width="0"/>
              <path d="M275.97,78.59l-1.64,9.16c-.79.75-1.65,1.42-2.59,1.99-.08.05-.17.11-.25.16,0,0,0,0-.02,0-1.23.75-2.55,1.28-3.91,1.74-1.99.81-4.12,1.45-6.07,2.14-.25.11-.51.21-.77.3-.5.19-1,.37-1.39.62-.04.02-.07.05-.1.07-.41.3-.69.69-.73,1.27,0,.06,0,.11,0,.17-.05-.07-.11-.13-.16-.2h-.01c-.33-.19-.65-.33-.95-.43-.06-2.58.48-5.11,1.51-7.41,0-.01,0-.02,0-.01,2.24-6.85,8.97-11.41,17.05-9.59Z" fill="#b9914d" stroke-width="0"/>
              <path d="M258.51,96.22s0,0,0,0c0-.06,0-.12,0-.17,0,.06,0,.12,0,.18Z" fill="#e5b260" stroke-width="0"/>
              <path d="M274.32,87.75c-.86.87-1.82,1.56-2.84,2.15.09-.05.17-.11.25-.16.94-.57,1.8-1.24,2.59-1.99Z" fill="#e5b260" stroke-width="0"/>
              <path d="M256.56,117.79c-8.84-2.32-13.3-14.08-2.67-18.01.1.75.33,1.52.72,2.23.39.74.93,1.43,1.64,1.98-.25.13-.48.27-.7.43-.06.04-.12.08-.19.13-.06.04-.12.09-.18.14-.43.34-.81.73-1.15,1.16-.08.09-.15.19-.22.29-1.19,1.67-1.69,3.83-1.24,5.89.43,2.07,1.61,3.86,3.4,5.1h0c.16.25.49.38.58.66Z" fill="#b9914d" stroke-width="0"/>
              <path d="M258.28,142.06l-3.86-.69c.52.1,1.09.2,1.69.31l2.25.4s-.05-.01-.08-.02ZM258.36,142.07c.13.03.26.05.39.08h.04c.24.06.47.1.7.15.03,0,.05.01.08.01.61.12,1.22.23,1.83.31h.05c.11.03.22.04.33.06-.98-.18-2.18-.39-3.4-.61Z" fill="#018c89" stroke-width="0"/>
              <path d="M253.7,141.23s.01,0,.02,0,.02,0,.02,0h-.05ZM253.74,141.24c.22.04.44.08.67.12s.48.09.73.13c-.5-.09-.97-.18-1.4-.25ZM262.86,138.85c-.17.12-.31.3-.36.56-.05.28,0,.52.13.71-.22-.4-.13-.97.23-1.27ZM263.83,133.41c-.17.12-.3.32-.35.58-.05.23,0,.44.1.61-.19-.39-.07-.91.25-1.19ZM264.89,127.93c-.2.12-.37.32-.44.64-.04.24,0,.44.1.61-.18-.42-.03-.98.34-1.24ZM266.33,128.87c.05-.22,0-.42-.09-.58.2.42.04.98-.34,1.25.21-.12.37-.34.44-.66ZM265.35,134.34c.06-.28,0-.52-.12-.7.24.42.11,1.04-.3,1.33.2-.11.36-.32.42-.63ZM264.38,139.77c.05-.28,0-.5-.13-.67.23.41.1,1.01-.27,1.3.19-.12.33-.33.4-.63Z" fill="#028c88" stroke-width="0"/>
              <path d="M267.82,122.92c-1.08.27-3.04,2.28-4.02,2.01-1.68-2.35-3.3-4.75-4.86-7.17-.06-.1-.13-.2-.2-.31-.87.2-1.81.36-2.66.65-1.41,7.58-2.83,15.23-4.1,22.81.21.04.47.09.78.14l.98.18c.43.07.9.16,1.4.25.12.02.24.05.36.07l8.87,1.59,3.64-20.26c-.06,0-.13.01-.2.03ZM264.89,127.93c.17-.12.38-.17.62-.13.35.06.58.23.7.44.01.02.02.03.03.05.1.16.14.36.09.58-.06.32-.22.54-.44.66-.02.01-.04.02-.06.03-.18.1-.39.14-.63.08-.34-.05-.55-.24-.66-.47,0,0,0,0,0,0-.09-.17-.13-.37-.1-.61.07-.32.24-.52.44-.64ZM263.83,133.41s.01,0,.01,0c.19-.16.44-.24.75-.16.28.04.48.17.6.35.02.02.03.04.04.06.13.18.18.42.12.7-.06.31-.21.52-.42.63,0,0,0,0,0,0-.17.11-.39.17-.65.12-.33-.06-.55-.23-.67-.45,0-.01-.02-.02-.02-.03,0,0,0-.01,0-.01h0c-.11-.17-.15-.38-.1-.61.05-.27.18-.46.35-.58ZM263.98,140.4l-.03.02c-.18.14-.41.2-.67.13-.31-.04-.52-.2-.64-.42,0,0,0,0,0,0-.12-.19-.18-.43-.13-.71.05-.26.18-.44.36-.56h0c.18-.16.42-.23.73-.17.29.04.49.18.61.36.01.01.03.03.03.05.12.17.19.4.13.67-.07.3-.21.5-.4.63Z" fill="#028c88" stroke-width="0"/>
              <path d="M255.98,117.13c-1.79-1.25-2.97-3.04-3.4-5.1-.46-2.06.04-4.22,1.24-5.89.07-.1.15-.2.22-.29.34-.43.72-.82,1.15-1.16.06-.05.12-.09.18-.14.07-.05.12-.09.19-.13.22-.16.46-.3.7-.43.02.01.04.03.06.05.13.1.27.2.4.28.04.02.07.04.11.07-2.83,3.64-3.5,8.83-.85,12.73Z" fill="#6a3d33" stroke-width="0"/>
              <path d="M268.73,118.88l-.67,3.75c-.11-.12-.23-.25-.34-.37-1.67-1.87-3.14-3.98-4.51-6.09,0-.01-.01-.02-.02-.03,0,0,0-.01,0-.01,0,0,0,0,0,0,0-.01,0-.02-.03-.04,0-.47.21-.9.4-1.32h0c.03-.08.07-.16.1-.23.01.09.1.17.25.19,1.99.8,3.54,2.58,4.83,4.15Z" fill="#deaa96" stroke-width="0"/>
              <path d="M265.35,134.34c-.06.31-.21.52-.42.63,0,0,0,0,0,0-.42.23-1.04.07-1.32-.32,0-.01-.02-.02-.02-.03,0,0,0-.01,0-.01h0c-.11-.17-.15-.38-.1-.61.05-.27.18-.46.35-.58,0,0,.01,0,.01,0,.41-.29,1.04-.19,1.35.19.02.02.03.04.04.06.13.18.18.42.12.7Z" fill="#0d0b09" stroke-width="0"/>
              <path d="M264.38,139.77c-.07.3-.21.5-.4.63l-.03.02c-.43.26-1.03.12-1.31-.29,0,0,0,0,0,0-.12-.19-.18-.43-.13-.71.05-.26.18-.44.36-.56h0c.41-.28,1.04-.19,1.34.19.01.01.03.03.03.05.12.17.19.4.13.67Z" fill="#0d0b09" stroke-width="0"/>
              <path d="M266.33,128.87c-.06.32-.22.54-.44.66-.02.01-.04.02-.06.03-.44.21-1.04.04-1.29-.39,0,0,0,0,0,0-.09-.17-.13-.37-.1-.61.07-.32.24-.52.44-.64.43-.24,1.04-.08,1.31.31.01.02.02.03.03.05.1.16.14.36.09.58Z" fill="#0d0b09" stroke-width="0"/>
              <path d="M269.43,115l-.7,3.89c-1.79-1.22-3.32-3.17-5.17-4.12h0c.16-.89.64-1.69.9-2.54,0,0,0,0,0,0,1.65.87,3.14,2.34,4.96,2.77Z" fill="#ea8d74" stroke-width="0"/>
              <path d="M268.06,122.63l-.05.26c-.06,0-.13.01-.2.03-1.08.27-3.04,2.28-4.02,2.01-1.68-2.35-3.3-4.75-4.86-7.17-.06-.1-.13-.2-.2-.31,1.14-.75,2.37-1.37,3.57-2.01.47-.27.57.46.85.64.02.02.02.03.03.04,0,0,0,0,0,0,0,0,0,0,0,.01,0,0,0,.02.02.03,1.37,2.11,2.83,4.22,4.51,6.09.11.13.22.25.34.37Z" fill="#007972" stroke-width="0"/>
            </g>
            <path d="M271.74,89.74c-.08.05-.17.11-.25.16,1.02-.58,1.98-1.28,2.84-2.15-.79.75-1.65,1.42-2.59,1.99Z" fill="#fecfb4" stroke-width="0"/>
            <path d="M267.33,96.39c-.75-.13-1.49.52-1.65,1.45s.3,1.79,1.05,1.93,1.49-.51,1.66-1.44-.3-1.8-1.05-1.93Z" fill="#fecfb4" stroke-width="0"/>
            <path d="M262.69,93.85c2.13-.38,4.36-.18,6.48.04-.85-.93-5.07-.47-6.48-.04ZM267.33,96.39c-.75-.13-1.49.52-1.65,1.45s.3,1.79,1.05,1.93,1.49-.51,1.66-1.44-.3-1.8-1.05-1.93Z" fill="#deaa96" stroke-width="0"/>
            <path d="M274.32,87.75c-.86.87-1.82,1.56-2.84,2.15,0,0,0,0-.02,0-1.23.75-2.55,1.28-3.91,1.74-1.99.81-4.12,1.45-6.07,2.14-.8,2.02-.93,4.28-1.29,6.35-.17-.29-.22-.75-.38-1.09h0s-.01-.07-.02-.1c-.01-.02-.02-.05-.03-.08,0-.02,0-.03-.02-.05-.14-.38-.29-.76-.48-1.11-.12-.31-.24-.61-.4-.9-.04-.08-.09-.17-.13-.25,0,0,0,0,0,0-.03-.07-.07-.14-.12-.2-.03-.05-.07-.1-.1-.14-.05-.07-.11-.13-.16-.2h-.01c-.33-.19-.65-.33-.95-.43-2.56-.83-3.85,1.56-3.5,4.19.1.75.33,1.52.72,2.23.39.74.93,1.43,1.64,1.98.02.01.04.03.06.05.13.1.27.2.4.28.04.02.07.04.11.07.28.18.58.33.91.46.6.41,1.54.24,2.05.55.06,3.12,2.39,5.08,4.68,6.81,0,0,0,0,0,0,1.65.87,3.14,2.34,4.96,2.77l.72-4.01.63-3.53,3.54-19.72ZM266.72,99.76c-.75-.13-1.22-1-1.05-1.93s.91-1.58,1.65-1.45,1.22,1,1.05,1.93-.91,1.58-1.66,1.44ZM262.69,93.85c1.42-.42,5.64-.89,6.48.04-2.12-.22-4.36-.42-6.48-.04Z" fill="#deaa96" stroke-width="0"/>
            <path d="M269.17,93.9c-2.12-.22-4.36-.42-6.48-.04,1.42-.42,5.64-.89,6.48.04Z" fill="#deaa96" stroke-width="0"/>
            <path d="M268.38,98.32c-.17.93-.91,1.58-1.66,1.44s-1.22-1-1.05-1.93.91-1.58,1.65-1.45,1.22,1,1.05,1.93Z" fill="#deaa96" stroke-width="0"/>
            <path d="M269.17,93.9c-2.12-.22-4.36-.42-6.48-.04,1.42-.42,5.64-.89,6.48.04Z" fill="#6a3d33" stroke-width="0"/>
            <path d="M260.21,100.14c-.17-.29-.22-.75-.38-1.09h0s-.01-.07-.02-.1c-.01-.02-.02-.05-.03-.08,0-.02,0-.03-.02-.05-.14-.38-.29-.76-.48-1.11-.12-.31-.24-.61-.4-.9-.04-.08-.09-.17-.13-.25,0,0,0,0,0,0-.03-.07-.07-.14-.12-.2-.03-.05-.07-.1-.1-.14,0-.06,0-.11,0-.17.04-.58.32-.97.73-1.27.03-.02.06-.04.1-.07.39-.25.88-.44,1.39-.62.26-.09.51-.19.77-.3-.8,2.02-.93,4.28-1.29,6.35Z" fill="#6a3d33" stroke-width="0"/>
            <path d="M268.38,98.32c-.17.93-.91,1.58-1.66,1.44s-1.22-1-1.05-1.93.91-1.58,1.65-1.45,1.22,1,1.05,1.93Z" fill="#0d0b09" stroke-width="0"/>
            <g>
              <g>
                <path d="M282.46,129.63c-1.63,9.02-3.18,18.06-4.85,27.08l12.45,2.24c-.55-7.66-1.13-15.33-1.66-23.01-.33-6.34-.21-7.13-5.02-11.5-.28,1.74-.6,3.46-.92,5.2Z" fill="#02b7b0" stroke-width="0"/>
                <path d="M264.38,143.15l-1.95,10.83,15.17,2.73c.85-4.67,1.69-9.34,2.52-14.01l.12-.65c.67-3.76,1.34-7.52,2-11.28l.08-.47c.35-1.96.69-3.91,1.04-5.87-.64-.61-1.44-1.06-2.06-1.67-.18,0-.29-.14-.44-.2-1.32,7.59-2.65,15.27-4.1,22.81-.21-.04-.47-.08-.78-.14-.17-.03-.34-.06-.51-.09-.25-.04-.5-.09-.76-.13h-.06c-.83-.16-1.72-.31-2.64-.48l-.17-.03c-.61-.11-1.23-.22-1.84-.33h-.04c-.86-.16-1.71-.31-2.52-.46l-.13-.02c-1.02-.18-1.98-.36-2.82-.52l-.12-.02Z" fill="#323230" stroke-width="0"/>
                <path d="M278.1,154.08c.01-.06.02-.13.03-.19l-.07.41c.01-.08.03-.15.05-.22Z" fill="#323230" stroke-width="0"/>
                <path d="M278.77,150.35c.36-1.84.68-3.7.99-5.55-.33,1.85-.65,3.7-.99,5.55Z" fill="#323230" stroke-width="0"/>
                <path d="M277.95,154.85c-.11.62-.23,1.24-.34,1.86.13-.62.24-1.24.34-1.86Z" fill="#323230" stroke-width="0"/>
                <path d="M283.25,125.25c.05-.27.09-.54.13-.81-.1.62-.21,1.24-.31,1.86l.19-1.04Z" fill="#323230" stroke-width="0"/>
                <path d="M273.25,144.74l1.09.2c.11.02.22.04.32.06h.06c.11.03.22.05.32.06l.44.08c-.13-.02-.27-.05-.42-.08h-.05c-.43-.09-.9-.17-1.4-.26-.12-.02-.24-.04-.36-.06Z" fill="#323230" stroke-width="0"/>
                <path d="M267,143.62c.1.02.21.04.32.07l.13.02c.54.11,1.13.22,1.74.33.03,0,.05,0,.08.01.85.15,1.73.3,2.59.45l.17.03c.21.03.42.07.63.11.11.02.22.04.32.06l-5.98-1.07Z" fill="#323230" stroke-width="0"/>
                <path d="M287.48,101c-.32-.01-.66,0-1.04.07h0c-.08.04-.16.08-.22.13.02-.06.04-.11.06-.16.17-.56.04-1.02-.24-1.44-.02-.03-.04-.06-.06-.09-.28-.37-.68-.72-1.08-1.07-.21-.18-.42-.36-.62-.55-1.58-1.33-3.35-2.67-4.95-4.12-1.11-.9-2.16-1.87-3.06-2.99,0,0,0-.01,0-.01-.06-.08-.12-.16-.19-.24-.68-.86-1.25-1.79-1.73-2.77l1.64-9.16c8.21,1.1,12.93,7.72,12.66,14.92,0,0,0,0,0,.02.17,2.51-.21,5.08-1.16,7.47Z" fill="#e5b260" stroke-width="0"/>
                <path d="M286.26,101.03s-.03.1-.06.16h0c.03-.05.05-.11.06-.16Z" fill="#e5b260" stroke-width="0"/>
                <path d="M276.25,90.75c-.76-.9-1.42-1.89-1.92-3,.48.98,1.05,1.9,1.73,2.77.06.08.12.16.19.24Z" fill="#e5b260" stroke-width="0"/>
                <path d="M280.53,122.09c.19-.23.54-.24.78-.41h0c2.11-.55,3.84-1.82,4.96-3.61,1.14-1.77,1.43-3.97.89-5.95-.03-.12-.07-.24-.1-.35-.17-.52-.4-1.02-.68-1.48-.04-.06-.08-.13-.12-.19-.04-.06-.08-.12-.12-.18-.16-.23-.33-.44-.52-.65.86-.27,1.61-.72,2.24-1.29.6-.54,1.09-1.18,1.45-1.84,8.6,7.38.33,16.85-8.77,15.95Z" fill="#e5b260" stroke-width="0"/>
                <path d="M270.4,144.24l2.25.4c.6.11,1.17.21,1.69.3l-3.86-.69s-.05,0-.08-.01ZM267,143.62c.1.02.21.04.32.07h.05c.59.14,1.2.25,1.82.35.03,0,.05,0,.08.01.23.04.47.08.71.11h.04c.13.03.26.05.39.07-1.22-.22-2.42-.44-3.4-.61Z" fill="#018c89" stroke-width="0"/>
                <path d="M275.01,145.06s.01,0,.02,0,.01,0,.02,0h-.05ZM273.61,144.81c.25.05.49.09.73.13s.46.08.67.12c-.43-.08-.9-.16-1.4-.25ZM267.06,140.92c.18-.13.32-.34.37-.62.04-.26-.02-.48-.14-.65.23.4.11.97-.23,1.27ZM268.1,135.41c.16-.12.27-.3.31-.54.04-.27-.01-.49-.13-.67.2.38.13.9-.18,1.2ZM269.08,129.98c.15-.12.26-.3.3-.53.05-.32-.04-.57-.19-.75.26.37.2.96-.11,1.28ZM267.69,129.86c-.26-.38-.22-.96.11-1.29-.15.12-.26.29-.29.51-.06.32.02.58.18.77ZM266.7,135.29c-.28-.4-.19-1.04.18-1.35-.18.13-.32.33-.35.61-.06.31.02.56.17.73ZM265.71,140.71c-.24-.4-.16-1.01.21-1.31-.18.12-.31.31-.36.59-.04.3.02.55.15.73Z" fill="#028c88" stroke-width="0"/>
                <path d="M268.02,122.89l-3.64,20.26,8.87,1.59c.12.02.24.04.36.06.5.09.97.17,1.4.25l.98.18c.31.06.57.1.78.14,1.45-7.55,2.78-15.22,4.1-22.81-.69-.57-1.52-1.05-2.27-1.53-.1.08-.2.15-.29.22-2.31,1.73-4.66,3.41-7.05,5.03-1.02-.09-2.15-2.66-3.07-3.29-.06-.04-.12-.08-.17-.1ZM269.38,129.45c-.05.23-.16.41-.3.53,0,0,0,0,0,0-.18.18-.44.28-.78.22-.25-.03-.43-.14-.56-.3-.02-.02-.03-.03-.04-.05-.16-.19-.23-.45-.18-.77.03-.22.14-.4.29-.51.02-.01.03-.03.05-.04.19-.16.46-.24.81-.17.24.04.42.17.53.34.15.18.24.43.19.75ZM268.41,134.88c-.04.24-.15.41-.31.54h0s0,.01-.01.01c0,0-.02.02-.03.03-.19.16-.45.24-.78.19-.26-.05-.45-.17-.57-.34,0,0,0,0,0,0-.15-.18-.23-.42-.17-.73.04-.28.17-.49.35-.61.02-.02.04-.03.06-.04.17-.13.41-.18.69-.12.31.04.52.2.64.41,0,0,0,0,0,.01.11.17.17.4.13.67ZM265.55,139.98c.05-.28.18-.47.36-.59.02-.02.03-.03.05-.03.18-.13.41-.19.7-.12.31.05.52.2.63.41h0c.12.18.18.4.14.65-.05.28-.19.49-.37.62,0,0,0,0,0,0-.19.16-.44.24-.74.17-.27-.03-.47-.17-.58-.36l-.02-.03c-.13-.18-.2-.43-.15-.73Z" fill="#02b7b0" stroke-width="0"/>
                <path d="M286.27,118.08c-1.12,1.79-2.85,3.06-4.96,3.6,3.85-2.73,5.02-7.83,3.63-12.23.04,0,.09-.02.12-.02.16-.03.32-.07.48-.12.03,0,.05-.02.07-.02.19.21.36.42.52.65.04.06.08.12.12.18.04.06.08.12.12.19.28.47.51.96.68,1.48.04.11.07.23.1.35.54,1.98.25,4.18-.89,5.95Z" fill="#8a5246" stroke-width="0"/>
                <path d="M268.74,118.88l-.67,3.75c.15-.08.3-.15.44-.23,2.22-1.17,4.33-2.64,6.34-4.14.01,0,.02-.02.03-.02,0,0,0,0,.01,0,0,0,0,0,0,0,0,0,.01-.01.04-.03.16-.44.12-.91.09-1.38h0c0-.09-.01-.17-.01-.25-.04.08-.15.13-.3.09-2.15.06-4.22,1.19-5.97,2.21Z" fill="#fecfb2" stroke-width="0"/>
                <path d="M266.53,134.55c-.06.31.02.56.17.73,0,0,0,0,0,0,.32.36.95.43,1.35.16.01,0,.02-.02.03-.03,0,0,.01,0,.01,0h0c.16-.13.27-.3.31-.54.04-.27-.01-.49-.13-.67,0,0,0-.01,0-.01-.28-.42-.9-.54-1.33-.29-.02.01-.04.02-.06.04-.18.13-.32.33-.35.61Z" fill="#323230" stroke-width="0"/>
                <path d="M265.55,139.98c-.04.3.02.55.15.73l.02.03c.31.4.92.48,1.33.18,0,0,0,0,0,0,.18-.13.32-.34.37-.62.04-.26-.02-.48-.14-.65h0c-.29-.4-.91-.54-1.33-.29-.02,0-.03.02-.05.03-.18.12-.31.31-.36.59Z" fill="#323230" stroke-width="0"/>
                <path d="M267.51,129.09c-.06.32.02.58.18.77.01.02.03.04.04.05.34.35.96.4,1.34.08,0,0,0,0,0,0,.15-.12.26-.3.3-.53.05-.32-.04-.57-.19-.75-.32-.37-.94-.43-1.34-.17-.02.01-.03.03-.05.04-.15.12-.26.29-.29.51Z" fill="#323230" stroke-width="0"/>
                <path d="M275.03,116.81h0c-2.07.26-4.19,1.55-6.29,2.07l.7-3.89c1.86.23,3.77-.63,5.62-.87-.05.89.13,1.8-.03,2.68Z" fill="#deaa96" stroke-width="0"/>
                <path d="M268.06,122.63l-.05.26c.06.02.11.05.17.1.92.63,2.05,3.2,3.07,3.29,2.39-1.62,4.74-3.3,7.05-5.03.09-.07.19-.15.29-.22-.81-1.1-1.74-2.11-2.65-3.13-.34-.42-.69.23-1.02.31-.02.01-.03.02-.04.03,0,0,0,0,0,0,0,0,0,0-.01,0,0,0-.01.01-.03.02-2.02,1.5-4.13,2.97-6.34,4.14-.15.08-.29.15-.44.23Z" fill="#009590" stroke-width="0"/>
              </g>
              <path d="M276.06,90.52c-.68-.86-1.25-1.79-1.73-2.77.5,1.11,1.16,2.1,1.92,3-.06-.08-.12-.16-.19-.24Z" fill="#fecfb4" stroke-width="0"/>
              <path d="M277.88,98.29c-.74-.13-1.49.52-1.65,1.45s.3,1.79,1.05,1.93,1.49-.51,1.66-1.44-.3-1.8-1.05-1.93Z" fill="#fecfb4" stroke-width="0"/>
              <path d="M287.48,101c-.32-.01-.66,0-1.04.07h0c-.08.04-.16.08-.22.13h0s-.09.06-.14.09c-.07.05-.13.09-.19.15h0c-.07.07-.14.13-.21.19-.25.21-.47.45-.69.7-.3.26-.58.57-.84.88-.01.01-.03.03-.04.04-.02.02-.03.05-.05.06-.03.03-.06.05-.06.08h-.01c-.27.26-.47.67-.73.89.38-2.07,1.04-4.23,1-6.41-1.58-1.33-3.35-2.67-4.95-4.12-1.11-.9-2.16-1.87-3.06-2.99,0,0,0-.01,0-.01-.76-.9-1.42-1.89-1.92-3l-4.89,27.25c1.86.23,3.77-.63,5.62-.87h0c2.76-.84,5.61-1.86,6.76-4.77.58-.11,1.42.37,2.12.2.35,0,.69-.05,1.01-.12.04,0,.09-.02.12-.02.16-.03.32-.07.48-.12.03,0,.05-.02.07-.02.86-.27,1.61-.72,2.24-1.29.6-.54,1.09-1.18,1.45-1.84,1.24-2.34.86-5.03-1.82-5.14ZM277.28,101.66c-.74-.13-1.22-1-1.05-1.93s.91-1.58,1.65-1.45,1.22,1,1.05,1.93-.91,1.58-1.66,1.44ZM277.02,95.31c1.11-.58,4.91,1.33,6.09,2.22-1.87-1.09-4.03-1.69-6.09-2.22Z" fill="#fecfb4" stroke-width="0"/>
              <path d="M283.12,97.52c-1.87-1.09-4.03-1.69-6.09-2.22,1.11-.58,4.91,1.33,6.09,2.22Z" fill="#8a5246" stroke-width="0"/>
              <path d="M286.26,101.03c-.02.05-.04.11-.06.16-.05.03-.09.06-.14.1-.07.05-.13.09-.19.15h0c-.07.07-.14.13-.21.19-.25.21-.47.45-.69.7-.3.26-.58.57-.84.88-.01.01-.03.03-.04.04-.02.02-.03.05-.05.06-.03.03-.06.05-.06.08h-.01c-.27.26-.47.67-.73.89.38-2.07,1.04-4.23,1-6.41.2.19.41.37.62.55.4.35.81.69,1.08,1.07.02.03.04.06.06.09.28.42.42.88.24,1.44Z" fill="#8a5246" stroke-width="0"/>
              <path d="M278.94,100.22c-.17.93-.91,1.58-1.66,1.44s-1.22-1-1.05-1.93.91-1.58,1.65-1.45,1.22,1,1.05,1.93Z" fill="#231f20" stroke-width="0"/>
            </g>
          </g>
          <g id="sorriso">
            <path d="M270.38,109.72l.09-.49c.88.13,1.82.03,2.67-.3.11-.03.22-.07.31.05.05.9-2.39.68-3.06.74Z" fill="#db8586" stroke-width="0"/>
            <path d="M268.07,108.02c.67.61,1.52,1.03,2.39,1.21l-.09.49c-.6-.29-2.97-.94-2.61-1.76.12-.08.21,0,.3.06Z" fill="#db8586" stroke-width="0"/>
          </g>
        </g>
      </g>
    </g>
  </g>
  <g clip-path="url(#clippath-2)">
    <rect id="sfondo-2" data-name="sfondo" x="114.44" y="9.2" width="116.96" height="146.17" fill="#ffdb52" stroke-width="0"/>
    <g id="corpo-2" data-name="corpo">
      <g id="corpo-3" data-name="corpo">
        <g id="vestito">
          <path d="M213.67,152.73c.07-1.94.09-3.88.01-5.83,0-.03,0-.06,0-.08-.03-.83-.08-1.66-.16-2.49-.24-2.68-.68-5.32-1.33-7.94-.24-.95-.5-1.9-.79-2.84-.06-.2-.12-.4-.19-.6-.54-1.69-1.17-3.36-1.85-5.01-.21-.5-.5-.97-.62-1.51,1.02.09,2.04.15,3.06.2.02,0,.04,0,.06,0,1.3.06,2.59.11,3.89.19.05,0,.1,0,.15,0,.38.03.76.13,1.15.02,1.72,2.31,3.23,4.75,4.56,7.3,1.05,2.03,1.99,4.11,2.76,6.26.81,2.25,1.47,4.53,1.97,6.87.57,2.68.91,5.38,1.03,8.09h-13.83c.07-.89.12-1.77.15-2.66Z" fill="#c6e8e3" stroke-width="0"/>
          <rect x="188.83" y="125.98" width="16.54" height="3.28" fill="#3e4552" stroke-width="0"/>
          <path d="M196.82,106.74c-1.53,3.58-15.01,14.86-18.28,13.81v-6.56c3.66-.45,12.55-3.21,17.04-6.29.02-.01.04-.03.06-.05.08-.05.17-.11.24-.17.15-.11.29-.21.43-.32.08-.07.16-.12.23-.19.03-.03.06-.05.09-.07.02-.02.04-.04.06-.06.03-.03.06-.05.09-.08.01,0,.02-.01.03-.02,0,0,.01,0,.02-.01Z" fill="#3e4552" stroke-width="0"/>
          <path d="M216.12,125.56c-4.81-7.61-13.33-12.4-19.3-18.82-1.53,3.58-15.01,14.86-18.28,13.81v-6.56c-.29.2-.58.44-.86.72-1.4,1.41-2.67,3.66-4.42,3.84-.07,0-.21.01-.3.01h-.08v36.82h40.64c.07-.89.12-1.77.14-2.66.07-1.94.09-3.88.02-5.83,0-.03,0-.06-.01-.08-.24-4.5-1-8.95-2.28-13.27-.06-.2-.12-.4-.19-.6-.54-1.69-1.17-3.36-1.85-5.01-.21-.5-.5-.97-.62-1.51,1.02.07,2.04.14,3.06.2.02,0,.04,0,.05,0,1.3.06,2.59.11,3.9.19.05,0,.1,0,.14,0,.39,0,.77.02,1.15.02-.26-.46-.56-.9-.91-1.3ZM205.37,129.25h-16.55v-3.28h16.55v3.28Z" fill="#00bfc0" stroke-width="0"/>
          <path d="M137.11,126.44c-.12.54-.41,1-.62,1.51-.68,1.65-1.31,3.32-1.85,5.01-.07.2-.13.4-.19.6-.29.94-.56,1.88-.79,2.84-.65,2.61-1.09,5.26-1.33,7.94-.08.83-.13,1.66-.16,2.49,0,.03,0,.06,0,.08-.08,1.94-.06,3.88.01,5.83.03.89.08,1.77.15,2.66h-13.83c.12-2.71.46-5.42,1.03-8.09.5-2.33,1.16-4.62,1.97-6.87.78-2.15,1.71-4.23,2.76-6.26,1.32-2.55,2.84-4.99,4.56-7.3.39.11.77,0,1.15-.02.05,0,.1,0,.15,0,1.3-.08,2.6-.13,3.89-.19.02,0,.04,0,.06,0,1.02-.05,2.04-.1,3.06-.2Z" fill="#b3d1cd" stroke-width="0"/>
          <path d="M172.88,118.57v36.82h-40.56c-.07-.89-.12-1.77-.15-2.66-.07-1.94-.09-3.88-.01-5.83,0-.03,0-.06,0-.08.24-4.5,1-8.95,2.28-13.27.06-.2.12-.4.19-.6.54-1.69,1.17-3.36,1.85-5.01.21-.5.5-.97.62-1.51-1.02.07-2.04.14-3.06.2-.02,0-.04,0-.05,0-1.3.06-2.59.11-3.89.19-.05,0-.1,0-.15,0-.39,0-.77.02-1.15.02.27-.46.56-.9.91-1.3,4.82-7.61,13.33-12.4,19.3-18.82,1.53,3.58,15.02,14.86,18.28,13.81v-6.56c.29.2.58.44.87.72,1.39,1.41,2.67,3.66,4.42,3.84.07,0,.21.01.3.01Z" fill="#019091" stroke-width="0"/>
          <path d="M167.3,114v6.56c-3.26,1.05-16.75-10.23-18.28-13.81,0,0,.01.01.02.01.03.03.06.05.09.07.01.02.02.02.03.03.02.02.04.04.06.06.03.02.05.04.08.07.08.06.15.12.24.19.13.11.27.22.42.32.08.06.16.11.24.17.02.02.05.04.06.05,4.48,3.08,13.38,5.84,17.04,6.29Z" fill="#1f1911" stroke-width="0"/>
        </g>
        <g id="testa">
          <path d="M177.68,114.72c-1.4,1.41-2.67,3.66-4.42,3.84-.07,0-.21.01-.3.01h-.08v-3.43h.08c2.13,0,3.75-.23,4.72-.42Z" fill="#efb790" stroke-width="0"/>
          <path d="M178.65,114.51s-.07.04-.1.07v-.04c.07-.02.1-.03.1-.03Z" fill="#eeb08e" stroke-width="0"/>
          <path d="M187.2,80.49c0,3.94-3.2,7.14-7.14,7.14-3.66,0-6.68-2.75-7.1-6.3-.02-.15-.04-.31-.04-.47h0c0-.13-.01-.25-.01-.37s0-.25.01-.37c0-.17.02-.32.04-.48.42-3.55,3.44-6.29,7.1-6.29,3.94,0,7.14,3.19,7.14,7.14Z" fill="#f7bca3" stroke-width="0"/>
          <path d="M192.64,109.86s0,0,0,.02c0,0-.02,0-.02,0,.01,0,.02-.01.03-.02Z" fill="#f7bca3" stroke-width="0"/>
          <path d="M193.16,109.53h0s-.06.04-.08.06h-.02s-.02.02-.03.03c.05-.03.09-.06.14-.09Z" fill="#f7bca3" stroke-width="0"/>
          <path d="M191.31,80.49c-.77-6.32-14.02-17.87-14.02-15.27,0,2.39-3.73,2.03-4.33,1.96-.01,0-.02,0-.02,0h-.01s-.05,0-.05,0v-8.17h.08c11.03-.05,18.57,10.29,22.89,19.34,1.03,6.12-3.77,8.47-4.54,2.15Z" fill="#f7bca3" stroke-width="0"/>
          <path d="M192.64,109.86s0,0,0,.02c0,0-.02,0-.02,0,.01,0,.02-.01.03-.02Z" fill="#1f1911" stroke-width="0"/>
          <path d="M193.02,109.61s.02-.01.03-.02h.02s.06-.05.08-.07h0s-.09.05-.14.08ZM192.61,109.88s.02,0,.02,0c0-.01,0-.02,0-.02,0,.01-.02.02-.03.02Z" fill="#1f1911" stroke-width="0"/>
          <path d="M195.64,107.66s-.04.04-.06.05c-4.48,3.08-13.38,5.84-17.04,6.29v.54c.07-.02.11-.03.11-.03.55-.22,1.12-.42,1.72-.6h0c2.09-.64,4.4-1.12,6.66-1.75.02,0,.05-.01.07-.02.13-.04.25-.07.37-.11.02,0,.04,0,.05-.01.28-.08.57-.17.85-.26.2-.06.38-.13.57-.2.28-.1.56-.2.84-.3.28-.11.55-.22.83-.35.01,0,.02,0,.03-.01.01,0,.02-.01.03-.02.02,0,.03-.01.05-.02.26-.12.52-.23.78-.36.13-.07.27-.14.4-.21.13-.06.26-.13.39-.21h0s.06-.04.08-.06c.08-.04.15-.09.23-.13.01,0,.02-.01.03-.02,0,0,.01-.01.02-.01h.02c.11-.07.21-.14.32-.22.01,0,.02-.01.03-.02.05-.03.09-.06.14-.09h0s.01,0,.02-.02h.01v-.02s.03-.01.04-.02h.01s.04-.03.07-.05h-.01c.14-.1.29-.21.44-.31.15-.11.31-.23.48-.36.11-.08.23-.17.34-.26.45-.33.89-.67,1.33-1.01.14-.11.28-.22.43-.32.08-.07.16-.12.23-.19.03-.03.06-.05.09-.07.02-.02.04-.04.06-.06.02-.02.04-.04.06-.06-.16.12-.59.46-1.11.87ZM172.88,67.17h0s.04,0,.05,0c-.04,0-.05,0-.05,0ZM172.9,79.86c0-.07-.02-.13-.02-.2v1.65c.01-.06.02-.12.02-.18.01-.09.02-.18.02-.27h0c0-.13-.01-.25-.01-.37s0-.25.01-.37c0-.09-.01-.18-.02-.26Z" fill="#f7bca3" stroke-width="0"/>
          <path d="M203.72,86.96c-.31,1.97-1.61,3.73-3.4,4.63-.58,4.78.32,10.82-3.39,15.02l-.1.12s0,0,0,0c0,0-.01.01-.02.01-.01.01-.02.02-.03.02-.01.01-.02.02-.03.02-.16.12-.59.46-1.11.87-.02.02-.04.04-.06.05-4.48,3.08-13.38,5.84-17.04,6.29-.29.2-.58.44-.86.72-.96.19-2.59.41-4.72.42v-.21c-.01-.85-.03-4.18-.04-8.74v-1.01c0-1.28,0-2.64,0-4.06v-2.06c0-2.35.02-4.82.04-7.3v-10.42c.42,3.54,3.44,6.3,7.1,6.3,3.94,0,7.14-3.2,7.14-7.14s-3.2-7.14-7.14-7.14c-3.66,0-6.68,2.74-7.1,6.29v-12.47c.59.07,4.33.43,4.33-1.96,0-2.59,13.25,8.95,14.02,15.27.78,6.32,5.58,3.97,4.54-2.15,5.05-1.69,9.12,3.92,7.87,8.62Z" fill="#f7bca3" stroke-width="0"/>
          <path d="M172.93,80.49c0,.12,0,.24-.01.36,0-.12-.01-.24-.01-.36s0-.25.01-.37c0,.12.01.24.01.37Z" fill="#fff" stroke-width="0"/>
          <path d="M187.2,80.49c0,3.94-3.2,7.14-7.14,7.14-3.66,0-6.68-2.75-7.1-6.3-.02-.15-.04-.31-.04-.47h0c0-.13.01-.25.01-.37s0-.25-.01-.37c0-.17.02-.32.04-.48.42-3.55,3.44-6.29,7.1-6.29,3.94,0,7.14,3.19,7.14,7.14Z" fill="#fff" stroke-width="0"/>
          <path d="M191.31,80.49c-.77-6.32-14.02-17.87-14.02-15.27,0,2.39-3.73,2.03-4.33,1.96-.01,0-.02,0-.02,0h-.01s-.05,0-.05,0v-9.21h.08c13.98.06,21.86,14.27,22.89,20.38,1.03,6.12-3.77,8.47-4.54,2.15Z" fill="#533c33" stroke-width="0"/>
          <circle cx="180.06" cy="80.49" r="1.15" fill="#231f20" stroke-width="0"/>
          <path d="M172.96,115.14v3.43h-.08c-.09,0-.23,0-.3-.01-1.75-.18-3.02-2.43-4.42-3.84.96.19,2.58.41,4.71.42h.08Z" fill="#d1a08c" stroke-width="0"/>
          <path d="M167.3,114.53v.04s-.07-.05-.1-.07c0,0,.04.01.1.03Z" fill="#eeb08e" stroke-width="0"/>
          <path d="M172.93,80.49c0,.12,0,.24-.01.36h0c0,.1-.01.2-.02.28,0,.06-.01.12-.02.18v.03c-.03.21-.06.42-.1.63-.03.15-.07.3-.11.45,0,.02,0,.03-.01.04-.04.15-.09.3-.14.45-.04.1-.08.2-.12.3-.03.07-.05.13-.08.19-.06.13-.12.27-.19.4-.04.07-.07.14-.11.21-.09.16-.19.32-.29.47-.09.13-.19.26-.28.39-.06.08-.13.17-.2.25-.12.14-.25.28-.39.42-.08.08-.17.16-.25.24-.1.09-.21.19-.32.27-.16.12-.32.25-.49.36-.2.13-.4.26-.61.38-.09.05-.19.09-.28.14-.14.07-.28.13-.42.19-.03.02-.05.03-.08.03-.1.04-.2.08-.29.11-.72.25-1.5.38-2.3.38-3.95,0-7.14-3.2-7.14-7.14s3.2-7.14,7.14-7.14c.3,0,.6.02.89.06.1.01.19.03.29.04.12.02.24.04.36.07.07.02.14.03.21.05.47.11.92.28,1.35.48.1.05.21.1.31.16.39.21.75.45,1.09.73.07.06.14.11.21.18.12.1.23.21.35.32.08.08.16.17.24.25.15.17.3.35.44.53.07.09.13.19.2.28.11.15.21.32.3.48.04.06.08.13.11.2.22.41.39.85.53,1.3.04.12.07.25.1.38.01.02.01.04.02.06.03.13.06.27.08.41,0,.05.02.1.03.16.01.05.02.1.02.16,0,0,0,.01,0,.02,0,.07.02.13.02.2.01.08.02.17.02.26,0,.12.01.24.01.37Z" fill="#f7bca3" stroke-width="0"/>
          <path d="M153.2,109.86s0,0,0,.02c0,0,.02,0,.02,0-.01,0-.02-.01-.03-.02Z" fill="#f7bca3" stroke-width="0"/>
          <path d="M152.68,109.53h0s.06.04.08.06h.02s.02.02.03.03c-.05-.03-.09-.06-.14-.09Z" fill="#f7bca3" stroke-width="0"/>
          <path d="M172.96,59v8.17s0,0-.02,0h-.01s-.03,0-.05,0c-.02,0-.03,0-.05,0-.03,0-.07.01-.11.02-.1,0-.23.02-.38.03-.07,0-.15.01-.24.01-.55.02-1.26-.01-1.91-.19-.03-.01-.06-.02-.1-.03-.44-.13-.84-.34-1.12-.66-.06-.06-.11-.13-.15-.2-.16-.25-.25-.56-.25-.94,0-.03,0-.06,0-.09-.01-.06-.03-.1-.05-.14-.06-.1-.17-.14-.31-.14-.04,0-.09,0-.14.02-.05,0-.11.02-.18.04-.04,0-.08.02-.12.04-.11.04-.24.09-.37.16-.06.03-.11.06-.18.09-.23.12-.48.27-.76.45-.06.04-.13.08-.2.13-.07.04-.13.09-.2.14-.07.04-.14.09-.21.15-.07.05-.14.1-.21.15-.1.07-.21.15-.32.24-.56.43-1.18.94-1.81,1.51-.08.07-.17.15-.25.23-.34.3-.68.62-1.03.96-.08.08-.17.16-.26.25-.66.64-1.33,1.34-1.99,2.05-.11.12-.22.24-.32.36-1.13,1.27-2.18,2.6-3.04,3.91-.09.13-.18.27-.26.4-.21.32-.4.65-.57.96-.09.16-.18.31-.25.47-.18.36-.34.7-.47,1.04-.07.17-.13.32-.19.48-.07.2-.13.39-.18.58-.02.07-.04.14-.05.21-.02.07-.04.14-.05.21-.01.05-.02.09-.03.14-.02.09-.03.18-.04.27-.02.12-.03.24-.05.36-.02.1-.03.19-.05.27,0,.03-.01.06-.02.08-.02.1-.04.2-.06.3-.08.38-.19.72-.3,1.01-.04.11-.09.21-.13.3-.09.2-.19.37-.29.52-.42.61-.92.89-1.42.89-.07,0-.14,0-.22-.02-.06-.01-.12-.02-.19-.04-.08-.03-.17-.06-.25-.1-.07-.04-.14-.08-.21-.13-.07-.05-.13-.1-.2-.16-.04-.03-.07-.06-.1-.09-.04-.03-.07-.07-.1-.1-.38-.42-.7-1.04-.89-1.82-.06-.26-.11-.54-.15-.84-.02-.16-.03-.33-.04-.5-.03-.63,0-1.34.13-2.09,4.31-9.05,11.86-19.39,22.89-19.34h.08Z" fill="#f7bca3" stroke-width="0"/>
          <path d="M153.2,109.86s0,0,0,.02c0,0,.02,0,.02,0-.01,0-.02-.01-.03-.02Z" fill="#1f1911" stroke-width="0"/>
          <path d="M152.68,109.53h0s.06.04.08.06h.02s.02.02.03.03c-.05-.03-.09-.06-.14-.09ZM153.2,109.86s0,0,0,.02c0,0,.02,0,.02,0-.01,0-.02-.01-.03-.02Z" fill="#1f1911" stroke-width="0"/>
          <path d="M172.78,81.96c.05-.21.08-.42.1-.63v-.03c-.03.22-.06.44-.1.66ZM172.93,80.21c0,.09,0,.18,0,.28,0,.12,0,.24-.01.36h0c0,.17.02.33.04.48v-1.69c-.02.15-.04.31-.04.48,0,.03,0,.06,0,.09ZM172.94,67.17s.01,0,.02,0h0s0-.01-.02,0ZM150.26,107.71s-.04-.03-.06-.05c-.52-.4-.95-.74-1.11-.87.01.01.02.02.03.03.01.02.02.02.03.03.02.02.04.04.06.06.03.02.05.04.08.07.08.06.15.12.24.19.13.11.27.22.42.32.44.33.88.68,1.33,1.01.11.09.23.18.34.26.17.13.33.24.48.36.14.11.29.21.44.31h-.02s.05.03.07.05h.01s.03.02.04.02v.02h.02s.01.01.02.01h0s0,0,0,0h0s.03.02.04.03c.03.02.06.04.09.06.01.01.02.02.04.02.1.08.21.14.32.21h0s0,0,.01,0,.01,0,.02.01c0,.01.02.02.03.02.08.05.15.1.23.13.03.02.06.04.08.06h0c.13.08.26.15.39.21.13.07.27.14.4.21.26.13.52.24.78.36.02.01.03.02.05.02.01,0,.02.01.03.02.01,0,.02.01.04.01.27.12.54.23.82.35.28.1.56.21.85.3.19.07.37.13.57.2.28.09.57.18.85.26.02,0,.03.01.05.01.12.04.24.07.37.11.02.01.05.02.07.02,2.25.63,4.56,1.11,6.66,1.75h0c.59.19,1.17.38,1.72.6,0,0,.04.01.11.03v-.54c-3.65-.45-12.55-3.21-17.04-6.29Z" fill="#f1b18e" stroke-width="0"/>
          <path d="M172.88,79.66s0-.02,0-.02c0-.06-.01-.11-.02-.16-.01-.06-.02-.11-.03-.16-.02-.14-.05-.27-.08-.41,0-.02,0-.04-.02-.06-.03-.12-.06-.25-.1-.38-.13-.46-.31-.89-.53-1.3-.03-.07-.07-.13-.11-.2-.09-.17-.19-.33-.3-.48-.06-.09-.12-.19-.2-.28-.14-.19-.28-.36-.44-.53-.07-.08-.15-.17-.24-.25-.11-.11-.23-.22-.35-.32-.07-.06-.14-.12-.21-.18-.34-.28-.7-.53-1.09-.73-.1-.06-.21-.11-.31-.16-.43-.21-.88-.37-1.35-.48-.07-.02-.14-.04-.21-.05-.12-.03-.24-.05-.36-.07-.1-.02-.19-.03-.29-.04-.29-.04-.59-.06-.89-.06-3.95,0-7.14,3.19-7.14,7.14s3.2,7.14,7.14,7.14c.8,0,1.58-.13,2.3-.38.1-.03.2-.07.29-.11.03,0,.05-.02.08-.03.14-.06.28-.12.42-.19.09-.05.19-.09.28-.14.21-.12.42-.24.61-.38.17-.11.33-.24.49-.36.11-.09.22-.18.32-.27.08-.08.17-.15.25-.24.13-.13.26-.27.39-.42.07-.08.14-.17.2-.25.1-.13.19-.26.28-.39.1-.15.2-.31.29-.47.04-.07.08-.14.11-.21.07-.13.13-.26.19-.4.03-.06.06-.13.08-.19.04-.1.08-.2.12-.3.06-.15.1-.3.14-.45,0-.01.01-.03.01-.04.05-.15.08-.3.11-.45.05-.21.08-.42.1-.63v-.03c.01-.06.02-.12.02-.18.01-.09.02-.18.02-.27,0,.16.02.32.04.47v10.42c-.02,2.48-.03,4.95-.04,7.3v2.06c0,1.42,0,2.79,0,4.06v1.01c.01,4.56.03,7.89.04,8.74v.21h-.08c-2.13,0-3.75-.23-4.71-.42-.28-.28-.57-.53-.87-.72-3.65-.45-12.55-3.21-17.04-6.29-.02-.01-.04-.03-.06-.05-.52-.4-.95-.74-1.11-.87-.02-.01-.04-.03-.06-.04,0,0-.01,0-.02-.01,0,0,0,0,0,0l-.1-.12c-3.71-4.21-2.82-10.24-3.39-15.02-1.78-.9-3.09-2.67-3.4-4.63-1.25-4.7,2.82-10.31,7.87-8.62-.13.76-.17,1.46-.13,2.09.01.17.02.34.04.5.03.29.08.57.15.84.2.78.51,1.39.89,1.82.03.03.06.07.1.1.03.04.06.07.1.09.07.06.13.11.2.16.07.05.14.09.21.13.08.04.17.07.25.1.06.02.12.03.19.04.07.02.14.02.22.02.5,0,1-.28,1.42-.89.1-.15.2-.32.29-.52.05-.09.09-.2.13-.3.12-.29.22-.63.3-1.01.03-.1.05-.2.06-.3,0-.03.01-.06.02-.08.02-.09.03-.18.05-.27.02-.11.04-.23.05-.36.01-.09.03-.18.04-.27,0-.05.02-.09.03-.14.01-.07.03-.14.05-.21.02-.07.03-.14.05-.21.05-.19.11-.38.18-.58.06-.16.12-.32.19-.48.13-.34.29-.68.47-1.04.08-.15.17-.31.25-.47.17-.31.36-.64.57-.96.08-.13.17-.27.26-.4.86-1.31,1.91-2.65,3.04-3.91.1-.12.21-.24.32-.36.66-.72,1.33-1.41,1.99-2.05.08-.08.17-.17.26-.25.35-.34.69-.66,1.03-.96.08-.08.17-.15.25-.23.63-.57,1.25-1.07,1.81-1.51.11-.08.22-.17.32-.24.07-.06.14-.11.21-.15.07-.06.14-.11.21-.15.07-.05.13-.1.2-.14.07-.05.13-.09.2-.13.28-.19.53-.34.76-.45.06-.03.12-.06.18-.09.13-.07.26-.12.37-.16.04-.02.08-.03.12-.04.07-.03.12-.04.18-.04.05-.01.1-.02.14-.02.14,0,.25.05.31.14.02.04.04.08.05.14,0,.03,0,.06,0,.09,0,.38.09.69.25.94.05.07.1.14.15.2.28.31.68.52,1.12.66.04.01.07.02.1.03.65.18,1.37.2,1.91.19.08,0,.17,0,.24-.01.15,0,.28-.02.38-.03.05,0,.08-.01.11-.02.02,0,.04,0,.05,0,.02,0,.04,0,.05,0h.01s.01,0,.02,0v12.47c-.02.15-.04.31-.04.48,0-.09-.01-.18-.02-.26,0-.07-.02-.13-.02-.2Z" fill="#f1b18e" stroke-width="0"/>
          <path d="M172.93,80.49c0,.12,0,.24-.01.36,0-.12-.01-.24-.01-.36s0-.25.01-.37c0,.12.01.24.01.37Z" fill="#fff" stroke-width="0"/>
          <path d="M172.91,80.49c0,.12,0,.24.01.36h0c0,.1-.01.2-.02.28,0,.06-.01.12-.02.18v.03c-.03.21-.06.42-.1.63-.03.15-.07.3-.11.45,0,.02,0,.03-.01.04-.04.15-.09.3-.14.45-.04.1-.08.2-.12.3-.03.07-.05.13-.08.19-.06.13-.12.27-.19.4-.04.07-.07.14-.11.21-.09.16-.19.32-.29.47-.09.13-.19.26-.28.39-.06.08-.13.17-.2.25-.12.14-.25.28-.39.42-.08.08-.17.16-.25.24-.1.09-.21.19-.32.27-.16.12-.32.25-.49.36-.2.13-.4.26-.61.38-.09.05-.19.09-.28.14-.14.07-.28.13-.42.19-.03.02-.05.03-.08.03-.1.04-.2.08-.29.11-.72.25-1.5.38-2.3.38-3.95,0-7.14-3.2-7.14-7.14s3.2-7.14,7.14-7.14c.3,0,.6.02.89.06.1.01.19.03.29.04.12.02.24.04.36.07.07.02.14.03.21.05.47.11.92.28,1.35.48.1.05.21.1.31.16.39.21.75.45,1.09.73.07.06.14.11.21.18.12.1.23.21.35.32.08.08.16.17.24.25.15.17.3.35.44.53.07.09.13.19.2.28.11.15.21.32.3.48.04.06.08.13.11.2.22.41.39.85.53,1.3.04.12.07.25.1.38.01.02.01.04.02.06.03.13.06.27.08.41,0,.05.02.1.03.16.01.05.02.1.02.16,0,0,0,.01,0,.02,0,.07.02.13.02.2.01.08.02.17.02.26,0,.12-.01.24-.01.37Z" fill="#fff" stroke-width="0"/>
          <path d="M172.96,57.96v9.21s0,0-.02,0h-.01s-.03,0-.05,0c-.02,0-.03,0-.05,0-.03,0-.07.01-.11.02-.1,0-.23.02-.38.03-.07,0-.15.01-.24.01-.55.02-1.26-.01-1.91-.19-.03-.01-.06-.02-.1-.03-.44-.13-.84-.34-1.12-.66-.06-.06-.11-.13-.15-.2-.16-.25-.25-.56-.25-.94,0-.03,0-.06,0-.09-.01-.06-.03-.1-.05-.14-.06-.1-.17-.14-.31-.14-.04,0-.09,0-.14.02-.05,0-.11.02-.18.04-.04,0-.08.02-.12.04-.11.04-.24.09-.37.16-.06.03-.11.06-.18.09-.23.12-.48.27-.76.45-.06.04-.13.08-.2.13-.07.04-.13.09-.2.14-.07.04-.14.09-.21.15-.07.05-.14.1-.21.15-.1.07-.21.15-.32.24-.56.43-1.18.94-1.81,1.51-.08.07-.17.15-.25.23-.34.3-.68.62-1.03.96-.08.08-.17.16-.26.25-.66.64-1.33,1.34-1.99,2.05-.11.12-.22.24-.32.36-1.13,1.27-2.18,2.6-3.04,3.91-.09.13-.18.27-.26.4-.21.32-.4.65-.57.96-.09.16-.18.31-.25.47-.18.36-.34.7-.47,1.04-.07.17-.13.32-.19.48-.07.2-.13.39-.18.58-.02.07-.04.14-.05.21-.02.07-.04.14-.05.21-.01.05-.02.09-.03.14-.02.09-.03.18-.04.27-.02.12-.03.24-.05.36-.02.1-.03.19-.05.27,0,.03-.01.06-.02.08-.02.1-.04.2-.06.3-.08.38-.19.72-.3,1.01-.04.11-.09.21-.13.3-.09.2-.19.37-.29.52-.42.61-.92.89-1.42.89-.07,0-.14,0-.22-.02-.06-.01-.12-.02-.19-.04-.08-.03-.17-.06-.25-.1-.07-.04-.14-.08-.21-.13-.07-.05-.13-.1-.2-.16-.04-.03-.07-.06-.1-.09-.04-.03-.07-.07-.1-.1-.38-.42-.7-1.04-.89-1.82-.06-.26-.11-.54-.15-.84-.02-.16-.03-.33-.04-.5-.03-.63,0-1.34.13-2.09,1.03-6.11,8.9-20.32,22.89-20.38h.08Z" fill="#443028" stroke-width="0"/>
          <circle cx="165.78" cy="80.49" r="1.15" fill="#231f20" stroke-width="0"/>
        </g>
      </g>
      <path id="sorriso-2" data-name="sorriso" d="M181.26,90.57c0,4.68-3.8,8.48-8.48,8.48s-8.48-3.8-8.48-8.48c5.24,3.37,10.87,3.64,16.96,0Z" fill="#fff" stroke-width="0"/>
    </g>
  </g>
</svg>