<?xml version="1.0" encoding="UTF-8"?>
<svg id="Layer_1" data-name="Layer 1" xmlns="http://www.w3.org/2000/svg" viewBox="0 0 226.77 283.46">
  <defs>
    <style>
      .cls-1 {
        fill: none;
        stroke: #f9c0a0;
        stroke-miterlimit: 10;
      }

      .cls-2 {
        fill: #f4a27f;
      }

      .cls-2, .cls-3, .cls-4, .cls-5, .cls-6, .cls-7, .cls-8, .cls-9, .cls-10, .cls-11, .cls-12, .cls-13, .cls-14, .cls-15, .cls-16, .cls-17, .cls-18, .cls-19, .cls-20, .cls-21, .cls-22, .cls-23, .cls-24, .cls-25, .cls-26, .cls-27, .cls-28, .cls-29, .cls-30, .cls-31, .cls-32, .cls-33, .cls-34, .cls-35, .cls-36, .cls-37, .cls-38, .cls-39, .cls-40, .cls-41, .cls-42, .cls-43, .cls-44, .cls-45, .cls-46, .cls-47, .cls-48, .cls-49, .cls-50, .cls-51, .cls-52, .cls-53, .cls-54, .cls-55, .cls-56, .cls-57, .cls-58, .cls-59, .cls-60, .cls-61, .cls-62, .cls-63, .cls-64, .cls-65, .cls-66, .cls-67, .cls-68, .cls-69, .cls-70, .cls-71, .cls-72, .cls-73, .cls-74, .cls-75, .cls-76, .cls-77, .cls-78, .cls-79, .cls-80, .cls-81, .cls-82, .cls-83, .cls-84, .cls-85, .cls-86, .cls-87, .cls-88, .cls-89, .cls-90, .cls-91, .cls-92, .cls-93, .cls-94, .cls-95, .cls-96, .cls-97, .cls-98, .cls-99, .cls-100, .cls-101, .cls-102, .cls-103, .cls-104, .cls-105, .cls-106, .cls-107, .cls-108, .cls-109, .cls-110, .cls-111, .cls-112, .cls-113, .cls-114, .cls-115, .cls-116, .cls-117, .cls-118, .cls-119, .cls-120, .cls-121, .cls-122, .cls-123, .cls-124, .cls-125, .cls-126, .cls-127, .cls-128, .cls-129, .cls-130, .cls-131, .cls-132 {
        stroke-width: 0px;
      }

      .cls-3 {
        fill: #f9c18e;
      }

      .cls-4 {
        fill: #f9bf87;
      }

      .cls-5 {
        fill: #f59b77;
      }

      .cls-6 {
        fill: #f8aa7c;
      }

      .cls-7 {
        fill: #f8b685;
      }

      .cls-8 {
        fill: #f8bf87;
      }

      .cls-9 {
        fill: #f8c1b0;
      }

      .cls-10 {
        fill: #f8c192;
      }

      .cls-11 {
        fill: #f8c591;
      }

      .cls-12 {
        fill: #f58925;
      }

      .cls-13 {
        fill: #f89261;
      }

      .cls-14 {
        fill: #f7cf9c;
      }

      .cls-15 {
        fill: #f88f5b;
      }

      .cls-16 {
        fill: #fac087;
      }

      .cls-17 {
        fill: #f9b881;
      }

      .cls-18 {
        fill: #4c2846;
      }

      .cls-19 {
        fill: #4ba5aa;
      }

      .cls-20 {
        fill: #4b366a;
      }

      .cls-21 {
        fill: #5e3d70;
      }

      .cls-22 {
        fill: #4a2943;
      }

      .cls-23 {
        fill: #462f5f;
      }

      .cls-24 {
        fill: #754577;
      }

      .cls-25 {
        fill: #765990;
      }

      .cls-26 {
        fill: #7b497c;
      }

      .cls-27 {
        fill: #265665;
      }

      .cls-28 {
        fill: #4f3264;
      }

      .cls-29 {
        fill: #48274d;
      }

      .cls-30 {
        fill: #573665;
      }

      .cls-31 {
        fill: #29b9b1;
      }

      .cls-32 {
        fill: #2c213b;
      }

      .cls-33 {
        fill: #281b31;
      }

      .cls-34 {
        fill: #653d71;
      }

      .cls-35 {
        fill: #643d6e;
      }

      .cls-36 {
        fill: #70467a;
      }

      .cls-37 {
        fill: #704376;
      }

      .cls-38 {
        fill: #9b5a89;
      }

      .cls-39 {
        fill: #533567;
      }

      .cls-40 {
        fill: #966d8c;
      }

      .cls-41 {
        fill: #6f3f69;
      }

      .cls-42 {
        fill: #9c5a8a;
      }

      .cls-43 {
        fill: #8a4f77;
      }

      .cls-44 {
        fill: #37cfbe;
      }

      .cls-45 {
        fill: #36b9b7;
      }

      .cls-46 {
        fill: #382b6a;
      }

      .cls-47 {
        fill: #392444;
      }

      .cls-48 {
        fill: #33bab7;
      }

      .cls-49 {
        fill: #35253c;
      }

      .cls-50 {
        fill: #35274e;
      }

      .cls-51 {
        fill: #352015;
      }

      .cls-52 {
        fill: #272623;
      }

      .cls-53 {
        fill: #2f223a;
      }

      .cls-54 {
        fill: #392642;
      }

      .cls-55 {
        fill: #37b8b7;
      }

      .cls-56 {
        fill: #392b1d;
      }

      .cls-57 {
        fill: #59396e;
      }

      .cls-58 {
        fill: #58396e;
      }

      .cls-59 {
        fill: #844d80;
      }

      .cls-60 {
        fill: #844d7d;
      }

      .cls-61 {
        fill: #1b110a;
      }

      .cls-62 {
        fill: #412d75;
      }

      .cls-63 {
        fill: #452c59;
      }

      .cls-64 {
        fill: #35cbbc;
      }

      .cls-65 {
        fill: #35b5b7;
      }

      .cls-66 {
        fill: #110c06;
      }

      .cls-67 {
        fill: #100e14;
      }

      .cls-68 {
        fill: #04c0b1;
      }

      .cls-69 {
        fill: #428594;
      }

      .cls-70 {
        fill: #0a0f0c;
      }

      .cls-71 {
        fill: #201c35;
      }

      .cls-72 {
        fill: #244758;
      }

      .cls-73 {
        fill: #a87199;
      }

      .cls-74 {
        fill: #a96b9b;
      }

      .cls-75 {
        fill: #1e2746;
      }

      .cls-76 {
        fill: #123649;
      }

      .cls-77 {
        fill: #252523;
      }

      .cls-78 {
        fill: #c77123;
      }

      .cls-79 {
        fill: #deaea3;
      }

      .cls-80 {
        fill: #c87223;
      }

      .cls-81 {
        fill: #ae6692;
      }

      .cls-82 {
        fill: #e0a79f;
      }

      .cls-83 {
        fill: #ae6592;
      }

      .cls-84 {
        fill: #dfafa4;
      }

      .cls-85 {
        fill: #dbcee7;
      }

      .cls-86 {
        fill: #b06694;
      }

      .cls-87 {
        fill: #30b7b3;
      }

      .cls-88 {
        fill: #30c6b7;
      }

      .cls-89 {
        fill: #31b1b2;
      }

      .cls-90 {
        fill: #34224b;
      }

      .cls-91 {
        fill: #2ebeb6;
      }

      .cls-92 {
        fill: #2f837e;
      }

      .cls-93 {
        fill: #2f93b4;
      }

      .cls-94 {
        fill: #8f5283;
      }

      .cls-95 {
        fill: #7d422e;
      }

      .cls-96 {
        fill: #7d4a7d;
      }

      .cls-97 {
        fill: #9a5b86;
      }

      .cls-98 {
        fill: #804732;
      }

      .cls-99 {
        fill: #938666;
      }

      .cls-100 {
        fill: #84bbb1;
      }

      .cls-101 {
        fill: #654072;
      }

      .cls-102 {
        fill: #654092;
      }

      .cls-103 {
        fill: #744677;
      }

      .cls-104 {
        fill: #824630;
      }

      .cls-105 {
        fill: #f2d9b4;
      }

      .cls-106 {
        fill: #f68354;
      }

      .cls-107 {
        fill: #f5a981;
      }

      .cls-108 {
        fill: #fbfbfb;
      }

      .cls-109 {
        fill: #ef9d94;
      }

      .cls-110 {
        fill: #f1c0a5;
      }

      .cls-111 {
        fill: #f6cda2;
      }

      .cls-112 {
        fill: #f78d5e;
      }

      .cls-113 {
        fill: #f6a47f;
      }

      .cls-114 {
        fill: #f78757;
      }

      .cls-115 {
        fill: #f78759;
      }

      .cls-116 {
        fill: #f6cca7;
      }

      .cls-117 {
        fill: #f6b38b;
      }

      .cls-118 {
        fill: #f7774b;
      }

      .cls-119 {
        fill: #f5b088;
      }

      .cls-120 {
        fill: #f78c5b;
      }

      .cls-121 {
        fill: #f6bd94;
      }

      .cls-122 {
        fill: #f79a72;
      }

      .cls-123 {
        fill: #f6774a;
      }

      .cls-124 {
        fill: #f6c69f;
      }

      .cls-125 {
        fill: #f6bf99;
      }

      .cls-126 {
        fill: #f5af87;
      }

      .cls-127 {
        fill: #03a193;
      }

      .cls-128 {
        fill: #03a295;
      }

      .cls-129 {
        fill: #682b3d;
      }

      .cls-130 {
        fill: #683949;
      }

      .cls-131 {
        fill: #00927a;
      }

      .cls-132 {
        fill: #694175;
      }
    </style>
  </defs>
  <rect class="cls-40" width="226.77" height="283.46"/>
  <rect class="cls-60" y="68.96" width="226.76" height="61.65"/>
  <rect class="cls-57" y="140.6" width="226.76" height="61.65"/>
  <rect class="cls-90" y="208.4" width="226.76" height="61.65"/>
  <g>
    <path class="cls-65" d="M53.17,199.63c-5.27,0-10.55,0-15.82-.01-.37.04-.5-.13-.55-.5-.15-1.2-.1-2.4-.1-3.61,0-9.76,0-19.52,0-29.27,0-.98-.1-.86.89-.87.13,0,.25-.02.38-.03,1.3-.08,2.59-.04,3.89-.02.1,0,.2,0,.3,0,3.91-.05,7.81,0,11.72-.03.61,0,.57.39.64.79.26,1.61.18,3.23.21,4.85.07,2.41.1,4.81-.03,7.22-.04.74.08,1.47.08,2.21-.01,5.87,0,11.74,0,17.61,0,.08,0,.17,0,.25,0,1.39-.19,1.55-1.61,1.41Z"/>
    <path class="cls-101" d="M226.76,79.12v51.37c-.22.21-.5.18-.78.18-5.37,0-10.74.01-16.11,0-.17,0-.34-.03-.47-.15-.15-.22-.18-.48-.15-.73.13-1.29.08-2.58.06-3.87-.02-1.57.15-3.12.15-4.69-.02-13.25,0-26.5-.01-39.75,0-.11,0-.21.01-.32.08-.53.02-1.05.04-1.58.03-.63.23-.89.84-.85,2.02.13,4.03-.14,6.05-.02,1.15.06,2.31.02,3.47.04.96.02,1.14.2,1.14,1.17,0,9,0,18,0,27.01,0,.36,0,.72.11,1.07.09,1.47.11,2.95.17,4.42.06,1.37.03,2.74,0,4.12-.05,3.25.18,6.5.17,9.24-.17-1.14.26-2.76.32-4.39.09-.31.14-.62.11-.94-.1-1.15.06-2.31.07-3.46,0-1.43.07-2.87.04-4.3-.02-1.07-.14-2.14-.1-3.21.12-3.18-.08-6.36-.01-9.54.02-.78.04-1.55.12-2.33.07-.72-.15-1.42-.09-2.14.14-1.74.04-3.49.12-5.23.04-.9.19-1.81.08-2.7-.15-1.22-.05-2.44-.11-3.66-.04-.89.1-1.76.16-2.65.02-.38.07-.73-.09-1.11-.2-.5.09-.87.69-1.06.61-.19,1.21.02,1.82-.04.58-.05,1.17.08,1.76-.05.15-.03.29.04.4.14Z"/>
    <path class="cls-114" d="M69.96,20.8h13.66c.33.56.24,1.24.24,1.89,0,11.92,0,23.83,0,35.75,0,.49-.07.99.14,1.6.2-.55.13-1.04.13-1.51,0-11.95,0-23.89,0-35.84,0-.64-.09-1.33.24-1.89h9.99c.24.38.24.86.23,1.32-.09,5.44.15,10.87.14,16.31-.02,5.91,0,11.82-.01,17.73,0,1.16.12,2.31.1,3.46,0,.32.07.53.27.68.14.11.32.21.3.53-.25.37-.58.31-.89.33-7.02.37-14.05.13-21.07.18-.9,0-1.8-.23-2.7-.06-.38.07-.8-.04-1.14-.42-.15-.34-.11-.72-.11-1.1,0-11.83,0-23.66,0-35.5,0-.81,0-1.63.12-2.43.06-.41.15-.78.38-1.05Z"/>
    <path class="cls-106" d="M176.43,25.12h21.75c.24.33.24.76.24,1.18,0,10.28,0,20.55,0,30.83,0,.39,0,.79-.19,1.12-.5-.08-.11-.59-.23-.83-.08.6.08,1.16.21,1.74.05.45.09.9-.08,1.33-.05.09-.11.15-.18.2-.38.29-.81.28-1.23.28-2.19,0-4.37-.03-6.56-.05-4.17-.04-8.33-.02-12.5-.02-.44,0-.88.02-1.31-.17-.07-.07-.11-.16-.13-.27-.06-.61-.02-1.23-.02-1.84,0-10.6,0-21.2,0-31.81,0-.57-.09-1.18.24-1.68Z"/>
    <path class="cls-59" d="M210.45,18.7h10.75c.29.49.24,1.1.24,1.69,0,4.21-.05,8.41-.1,12.62-.09,8.48-.03,16.97-.02,25.46,0,.43-.02.86.05,1.28.03.17.11.3.22.3.12,0,.19-.14.21-.31.06-.42.04-.85.04-1.28,0-9.11.01-18.22,0-27.33,0-2.21.2-4.39.14-6.6-.03-1.18,0-2.36-.1-3.54-.06-.76-.16-1.58.2-2.28,1.41,0,2.82.03,4.24-.02.38-.01.45.12.45.71-.01,13.8-.01,27.59-.01,41.39-.21.33-.49.36-.76.36-1.3,0-2.6.04-3.9,0-1.4-.17-2.8.01-4.2-.09-.47-.22-.94-.25-1.41,0-.35.05-.69.06-1.04,0-1.06-.32-2.13-.06-3.19-.16-.68-.06-1.38.2-2.05-.19-.06-.09-.1-.2-.12-.33.01-3.32-.13-6.64.09-9.96.04-.56.02-1.12.02-1.68,0-9.38,0-18.75,0-28.13,0-.65-.08-1.33.24-1.88Z"/>
    <path class="cls-112" d="M141.53,28.69c.28.46.23,1.04.24,1.59,0,3.26.02-3.47,0-.22-.02,2.63.1,5.25.22,7.88.02.36,0,.72-.03,1.08-.07.62-.06,1.24-.06,1.87,0,3.82,0,7.63,0,11.45,0,2.53.18,5.05.16,7.59.06.32.26.38.4.54.16.19.12.36-.04.51-.26.19-.53.18-.81.18-.46,0-.93,0-1.39,0-1.79.02-3.58.21-5.36.14-7.1-.29-14.19-.03-21.29-.14-.29,0-.59.02-.84-.3-.09-.53.2-.5.37-.57.29-.11.59-.07.88-.07,3.37,0,6.74,0,10.11,0,.97,0,.99-.07,1.02-1.54.03-1.39-.2-2.75-.13-4.14.11-2.27.02-4.53,0-6.8-.05-4.87.22-9.73.14-14.6,0-.26.04-4.44.04-4.44h16.38Z"/>
    <path class="cls-111" d="M.15,130.49c1.8,0,3.6,0,5.41-.02.23,0,.46.05.67-.1.2-.24.48-.24.75-.24,4.85,0,9.69-.02,14.54,0,.15,0,.29.02.44.04.57.16,1.14.17,1.72.05.59-.13,1.2-.11,1.8-.07,6.65-.08,13.3.04,19.94-.07.15-.03.31-.04.46-.02,2.24.1,4.48.19,6.71-.06.27-.03.53-.1.79-.21.18-.08.38-.22.57,0,.11.32-.12.51-.29.72-.82,1-1.74,1.89-2.66,2.79-1.56,1.54-3.1,3.11-4.65,4.66-.27.26-.52.58-.98.43-.27-.15-.55-.2-.85-.19-.19,0-.38,0-.57,0-14.24-.08-28.48-.05-42.72-.06-.37,0-.77.1-1.09-.18v-7.48Z"/>
    <path class="cls-63" d="M22.79,32.72h13.78c.24.26.24.6.24.93,0,8.67,0,17.33,0,26,0,.26,0,.53-.11.78-.09.2-.25.29-.45.31-.1.01-.21.02-.31.02-4.1-.03-8.2.22-12.3.14-.8-.02-1.05-.17-1.01-1.11.1-2.23.11-4.48,0-6.71-.02-.49.04-.96.05-1.45.06-3.16-.17-6.32-.14-9.48.03-2.81.03-5.62.02-8.43,0-.35-.02-.71.23-1Z"/>
    <path class="cls-37" d="M.15,199.11v-40.21c.22-.21.49-.23.77-.23,1.16.02,2.31,0,3.47.05.85.04,1.72.02,2.58-.03.6-.03,1.18.03,1.76.12.39.06.58.29.59.69.01.53-.04,1.06.05,1.58.03.42.01.85.01,1.27,0,11.82,0,23.63,0,35.45,0,.44.08.89-.18,1.3-.22.22-.5.18-.77.18-1.37,0-2.73.02-4.1,0-1.11-.02-2.21.21-3.33.13-.32-.02-.63-.02-.85-.32Z"/>
    <path class="cls-132" d="M54.91,18.7h12.9c.3.25.28.71.28,1.13-.02,4.63.09,9.27.08,13.9,0,2.3-.18,4.6-.11,6.9.08,2.53-.03,5.06,0,7.59.05,3.35-.06,6.71,0,10.07.01.53.02,1.05.17,1.54.19.58-.01.77-.34.83-.08.01-.17.02-.25.02-3.98,0-7.96,0-11.95,0-.44,0-.81-.1-.85-.96-.08-.49-.05-.98-.05-1.47,0-11.93,0-23.85,0-35.78,0-.89.03-1.77-.06-2.66-.04-.4-.02-.79.18-1.11Z"/>
    <path class="cls-25" d="M125.35,32c0,1.58-.02,3.16-.03,4.74-.03,4.27-.09,8.55-.08,12.82,0,3.21-.03,6.43.08,9.64.05,1.37-.02,1.41-.93,1.41-3.69,0-7.37,0-11.06,0-.21,0-.42-.06-.62.11-.54.59-1.16.59-1.7-.01-.04-.28-.04-.52.19-.58.04,0,.08.01.13.02,1.09.15,1.15.05,1.15-1.63,0-2.83.04-5.65-.01-8.48-.18-9.88-.1-19.76-.11-29.64,0-.58-.06-1.2.23-1.69h12.39c.19.31.23.7.23,1.1-.04,2.34.21,4.66.13,7-.04,1.09.11,2.16.13,3.25.01.66-.03,1.31-.1,1.96Z"/>
    <path class="cls-10" d="M226.76,130.62v7.36c-.31.29-.71.23-1.08.23-2.99,0-5.98.04-8.96,0-2.23-.03-4.45.19-6.68.14-.49-.01-.65.16-.64.67.04,1.37.08,2.74-.03,4.11,0,.08-.02.15-.04.22-.19,1.05-.1,2.11-.1,3.16,0,2.05.04,4.1-.02,6.15-.02.66.01,1.34-.12,2-.03.15-.07.32-.25.31-.13,0-.17-.17-.21-.29-.03-.1-.05-.21-.04-.31.05-1.88-.13-3.74-.26-5.61-.09-1.35.43-2.66.23-3.99-.14.1-.36.2-.62.23-.17.02-.37.06-.42.24-.18.62-.55.93-1.35.68.41.63.39,1.12.18,1.64-.22.56-.45.69-1.02.5-.31-.11-.61-.27-.96-.13,0,.1.07.1.13.1,1.15.17,1.21.34.94,1.5-.15.65-.4,1.42.43,1.9.16.1.25.29.19.5-.06.24-.26.24-.45.26-.08,0,.02,0-.06,0-.28.04-.66-.09-.78.25-.12.3.2.47.4.65.23.22.27.49.01.71-.27.23-.54.19-.77-.09-.03-.03-.04-.07-.07-.11-.39-.69-.39-.66-1.08-.46-.37.1-.47.31-.46.64.04,1.01-.02,2.04-.14,3.03-.55,4.63-.15,9.27-.23,13.91-.08,4.65.02,9.3-.04,13.94-.02,1.17-.29,2.34-.23,3.52.02.44.03.88.16,1.31.14.45.17.94.07,1.38-.44,2.03-.14,4.08-.23,6.12-.01.27.03.56-.07.82-.05.15-.09.42-.37.21-.17-.29-.15-.61-.15-.93,0-6.1,0-12.2,0-18.3,0-.27,0-.55.05-.82.04-.25.13-.49.13-.75-.03-2.68.2-5.35.14-8.04-.01-.57-.18-1.12-.14-1.7.15-2.2-.06-4.41,0-6.61,0-.3-.05-.59-.13-.87-.06-.31-.06-.63-.06-.95,0-4.12,0-8.23,0-12.35,0-.32,0-.63.05-.95.21-.66.13-1.34.12-2-.02-.99.1-1.98-.08-2.96-.08-.48-.02-.96-.05-1.44.01-.47-.01-.91-.5-1.17-.75-.09-1.51-.03-2.26-.03-2.25-.01-4.49,0-6.74,0-.29,0-.59.05-.86-.13-.19-.22-.35-.46-.71-.43-.17.01-.36-.08-.38-.27-.02-.22.19-.24.35-.29.06-.02.12-.02.19-.03.87-.17.98-.34.57-1.13-.17-.34-.37-.65-.06-.98.32-.33.73-.38,1.17-.31.18.03.38.31.53,0,.14-.29.43-.56.15-.92-.33-.42-.24-1.04-.78-1.39-.27-.18-.07-.58.33-.68.61-.14,1.23-.31,1.87-.28.74.03,1.45-.13,2.18-.18-1.14-.08-2.28-.26-3.43-.18-.23.02-.47.03-.67-.1-.2-.13-.18-.26.03-.37.85-.13,1.71-.11,2.57-.1,1.11.01,2.22-.06,3.33.05.49.13,1,.13,1.5.13,2.28-.01,4.55,0,6.83,0,.73,0,1.57-.2,1.69,1,.44-.36.55-.85,1.02-.92.42-.06.84-.03,1.26-.03,4.28,0,8.56,0,12.83,0,.82,0,1.64-.11,2.46-.06.21.01.42-.05.62.06Z"/>
    <path class="cls-55" d="M111.16,60.18c-.04.12-.08.25-.13.37-.23.43-.56.4-.87.4-3.61.01-7.22.01-10.83,0-.27,0-.55,0-.79-.26-.17-.24-.22-.56-.22-.89,0-2.3-.29-4.58-.06-6.89.09-.91-.08-1.82-.06-2.75.11-3.84.16-7.68,0-11.53-.08-2,.07-4,.08-6,.04-4.11,0-8.23.01-12.34,0-.55-.04-1.13.23-1.59h12.52c.32.55.24,1.24.24,1.88,0,10.71,0,21.42,0,32.13,0,2,.21,3.99.13,6-.02.51.04,1.07-.26,1.47Z"/>
    <path class="cls-96" d="M1.92,18.7h10.62c.15.25.22.56.21.9-.02,1.5.09,3.01.03,4.51-.03.76,0,1.5.07,2.25.04.49.01.98-.11,1.44-.05.21-.17.4-.13.64.25,1.61.04,3.19-.08,4.78-.04.57.2,1.04.2,1.62-.02,2.36.01,4.72-.06,7.08-.02.61-.07,1.17.02,1.79.12.82,0,1.59-.59,1.93-.16.09-.26.33-.36.54.16-.28.3-.64.61-.47.3.17.31.54.34.95.11,2.04.1,4.09,0,6.11-.04.92-.04,1.78.02,2.69.08,1.22.08,2.47-.13,3.71-.1.6-.28.93-.62.88-1.13-.16-2.22.32-3.37.15-1.59-.24-3.23-.1-4.83.18-.65.11-1.23-.45-1.87-.21-.21.08-.34-.38-.36-.71-.04-.75-.16-1.48-.16-2.25.02-5.59-.03-11.19.03-16.78.02-1.89.05-3.78.08-5.67.02-1-.09-2.02-.09-3.03.01-2.95,0-5.9-.01-8.85,0-.61.04-1.18.31-1.66.25-.44.19-.99.19-1.51,0-.35-.11-.72.06-1.05Z"/>
    <path class="cls-24" d="M210.19,60.4c0,.06,0,.12,0,.18-.15.3-.37.29-.58.29-3.72,0-7.44.02-11.16,0-.08,0-.17-.03-.25-.06-.13-.07-.22-.21-.26-.41.05,0,.1.01.14.02.07-.07-.04-.06.04-.07.89-.12.77-1.17.8-2.09.02-.56.01-1.12.01-1.68,0-11.65,0-23.3,0-34.96,0-.98-.04-1.98.23-2.91h10.37c.29.93.18,1.94.16,2.89-.04,1.9-.03,3.8-.04,5.7-.03,8.74-.02,17.48,0,26.22,0,1.74-.17,3.46-.06,5.22.05.75.14,1.31.57,1.67Z"/>
    <path class="cls-26" d="M1.92,18.7c.29.71.05,1.53.2,2.28.02.09-.03.31-.08.34-.66.38-.49,1.27-.49,2.01,0,1.28.03,2.55.09,3.83.05,1.22-.12,2.48-.09,3.73.05,2.04.17,4.08.11,6.11-.1,3.24-.1,6.47-.11,9.71,0,3.4.01,6.81-.01,10.21,0,.86.14,1.69.15,2.54,0,.45.12.57.44.38.25-.15.57-.16.84.17.33.42.69-.02,1.03.02,1.08.13,2.15-.23,3.25-.13.75.07,1.54.24,2.25.16.88-.1,1.78-.21,2.67-.28.11,0,.2-.09.22-.28.19-1.44.36-2.99.09-4.32-.18-.88,0-1.42.03-2.16.1-2.21.02-4.45.02-6.67,0-.39-.19-.4-.34-.44-.2-.06-.23.2-.26.43-.03.24.08.61-.13.69-.21.08-.3-.29-.44-.48-.17-.24-.09-.4.08-.49.2-.11.38-.24.54-.47.7-.97.73-1.11.33-2.53-.03-.11-.05-.27-.02-.36.37-1.07.19-2.25.24-3.37.06-1.27.11-2.57,0-3.82-.18-1.98-.05-3.93.04-5.89.03-.62-.45-1.22,0-1.83.39.43.35,1.09.35,1.7.01,3.32,0,6.64,0,9.97,0,6.58.02,13.16-.01,19.74,0,.25-.05.52.11.81.27-.31.18-.76.18-1.13,0-3.78,0-7.57,0-11.35,0-7.43,0-14.87,0-22.3,0-1.68.06-3.35,0-5.03-.02-.52-.03-1.06.23-1.49h9.36c0,3.52,0,7.05,0,10.57,0,3.38-.06,6.76.03,10.13.07,2.56.09,5.12.09,7.68,0,4.01.02,8.01,0,12.02,0,1.48-.03,1.49.98,1.49,2.07,0,4.13.1,6.19-.04,2.02-.14,4.04-.11,6.06-.15.17,0,.34.02.47-.19.08-.07.19-.07.2.05.04.29-.09.45-.25.57-1.36.26-2.73.3-4.09.32-4.13.06-8.25.04-12.38.01-1.91,0-3.82-.11-5.73-.04-.67.05-1.34.08-2.01-.05-.81-.29-1.63-.26-2.44-.04-.16.04-.31.03-.47,0-.29-.12-.58-.14-.88-.14-1.98,0-3.96,0-5.93,0-.32,0-.63.04-.94.18-.33.06-.67.17-.93-.3.39-1.28.42-2.65.42-4.03,0-12.04,0-24.09,0-36.13,0-.65-.08-1.33.24-1.89h.51Z"/>
    <path class="cls-35" d="M176.43,18.7c0,13.28,0,26.57-.02,39.85,0,.63.17,1.31-.15,1.89-.23.32-.52.23-.79.24-2.44,0-4.89,0-7.33,0-.9,0-1.04-.22-1.05-1.68-.05-6.22-.17-12.43-.14-18.66.03-6.62,0-13.23.01-19.85,0-.62-.07-1.27.24-1.79h9.23Z"/>
    <path class="cls-48" d="M54.91,28.69c.25,8.85.04,17.7.11,26.56.01,1.61,0,3.21,0,4.82-.23.24-.28.7-.64.8-2.56.05-5.12.02-7.68.02-.28,0-.55-.03-.73-.33-.21-.49-.22-1.02-.23-1.54-.06-3.81-.16-7.62-.03-11.42.19-5.87.03-11.73.11-17.6,0-.45-.05-.91.24-1.29h8.85Z"/>
    <path class="cls-45" d="M44.95,60.36c-.12.16-.27.17-.42.17-2.61-.01-5.22-.02-7.84-.03.09-.19.05-.28-.09-.3-.02-5.78-.04-11.56-.05-17.35,0-8.05,0-16.1,0-24.15h8.47c.24.39.24.9.24,1.39,0,12.92,0,25.84,0,38.75,0,.55.02,1.14-.33,1.52Z"/>
    <path class="cls-64" d="M156.58,18.7h8.47c.17.27.23.62.23.99,0,2.7.06,5.41-.03,8.11-.03,8.45,0,16.9-.01,25.35,0,1.55,0,3.09,0,4.64,0,2.58-.11,2.77-1.8,2.78-1.94,0-3.87,0-5.81,0-.36,0-.72.02-1.05-.24-.35-.45-.36-1.09-.36-1.71.02-2.36,0-4.73.07-7.09.1-3.08.02-6.17.06-9.26.04-3.32-.18-6.63-.08-9.95.12-4.01.04-8.02.08-12.02,0-.55-.04-1.13.24-1.59Z"/>
    <path class="cls-44" d="M147.35,18.7h8.35c.28.46.23,1.04.23,1.59.01,2.83-.11,5.66-.06,8.48.07,3.88.05,7.77.06,11.65.01,4.84.03,9.68,0,14.51,0,1.22.09,2.43.12,3.64.01.58.06,1.2-.21,1.7-.14.18-.31.2-.48.21-2.48.12-4.96.1-7.45,0-.59-.02-.72-.24-.75-1.2,0-.23,0-.46,0-.69,0-12.76,0-25.52,0-38.28,0-.55-.09-1.13.18-1.61Z"/>
    <path class="cls-107" d="M14.53,207.85c-2.9,0-5.8-.02-8.7-.02-1.89,0-3.78.02-5.68.04v-8.37c.13-.13.3-.12.47-.13,6.02-.11,12.04-.04,18.06-.07.32,0,.61.19.93.12.28-.14.57-.11.87-.11,1.79,0,3.58-.01,5.37,0,3.41.03,6.82-.09,10.23-.06.29,0,.59,0,.88-.05.33-.07.67-.07,1-.07,4.2,0,8.4,0,12.6,0,.31,0,.63,0,.94.06.5.09,1.01.06,1.51.06,7.39,0,14.78,0,22.16,0,.41,0,.85-.09,1.22.21.05.32-.22.31-.4.36-.29.07-.59.04-.88.04-8.42,0-16.85.07-25.27-.03-4.33-.05-8.67.2-13-.02-1.73.05-3.45.01-5.18.02-.48,0-.97.15-1.43.14-1.44-.03-2.88.33-4.32-.04-.88-.22-1.66.07-2.31.69-.11.1-.19.23-.29.33-.57.59-.69.6-1.25.02-.12-.12-.24-.23-.41-.28-.18-.04-.35,0-.43.18-.08.17.06.26.18.35.7.53.7.53.41,1.32-.09.25-.13.49-.04.74.15.42.17.87.28,1.3.14.53.02.87-.54,1.02.5.52.98,1,1.64,1.24.12.04.21.15.18.3-.03.14-.15.19-.27.23-.14.05-.29.04-.44.04-1.94-.03-3.88-.04-5.81-.02-2.08.02-4.16-.05-5.73.03,3.82-.01,8.14-.01,12.46,0,2.25,0,4.5,0,6.75,0,.29,0,.6-.07.84.16-.02.38-.31.2-.47.2-1.47.02-2.94,0-4.41,0-2.29,0-4.58,0-6.86,0-.23,0-.46-.04-.69.05-.06,0-.11,0-.17,0-.45-.08-.9-.08-1.34,0h-.56c-.7-.08-1.4-.08-2.1,0Z"/>
    <path class="cls-119" d="M16.45,68.81c-3.12.01-6.23.02-9.35.03-2.32,0-4.63,0-6.95,0v-.38c.2-.19.45-.2.71-.2,2.96-.02,5.92,0,8.88-.03.29,0,.54-.06.72-.3.15-.19.36-.32.59-.34.77-.08,1.46-.54,2.27-.49.44.03.51-.3.57-.68.16-1.04.24-2.09.71-3.06.13-.28.31-.5.73-.66-.36,0-.68.08-.73-.28-.05-.39.03-.76.35-1.03.17-.14.37-.22.58-.21.95.03,1.88-.21,2.82-.13-.86-.07-1.72.08-2.58.02-2.51-.18-5.02-.31-7.54-.27-.51,0-.57-.08-.52-.43.18-.09.37-.08.56-.08,7.34,0,14.69-.02,22.03,0,.35.08.7.13,1.06.13.24,0,.52.06.53.34.02.33-.29.36-.54.4-.12.02-.25,0-.3,0,.45.05.95,0,1.41-.33.37-.26.81-.16,1.23-.17.51-.01,1.01.09,1.5.16.17.03.33.12.37.3.04.16-.07.3-.2.36-.5.23-.95.52-1.38.86-.31.24-.51-.16-.82-.27-.03.37.19.74-.06,1.08-.22.29-.51.5-.75.77-.2.22-.36.44-.36.78.02.78-.02.8-.82.75-.09,0-.17,0-.23.07-.05.17.08.27.15.39.07.13.16.27.15.41-.06.49-.4.88-.62,1.29-.12.22-.52.45-.81.63-.3.19-.64.5-.99.04-.1-.14-.21-.12-.3.01-.23.34-.56.3-.9.3-3.56.08-7.12,0-10.68.03-.34,0-.67-.11-.98-.06.16.05.44-.12.5.22Z"/>
    <path class="cls-74" d="M142.54,60.74c-.21-.31-.54.05-.73-.32.23-.32.24-.74.24-1.18.02-5.23.06-10.46-.03-15.68-.02-1.52.05-3.09-.25-4.59-.37-6.75-.19-13.51-.24-20.27h5.56c.16.31.12.69.12,1.04,0,13.4,0,26.79,0,40.19,0,.2.02.4-.04.58-.08.21-.22.33-.36.34-1.35.17-2.7.5-4.06.06-.08-.03-.16-.09-.22-.18Z"/>
    <path class="cls-5" d="M220.68,60.35c2.03,0,4.06,0,6.09,0v8.5c-.34,0-.68,0-1.02.01-.2.09-.41.05-.62.05-3.65,0-7.3,0-10.95,0-1.28,0-2.56-.02-3.84,0-.32-.22-.02-.29.11-.33.39-.13.8-.11,1.19-.07,1.41.14,2.81.04,4.22.08.82.02,1.64,0,2.1,0-1.51.02-3.39-.04-5.26,0-.5.01-.73-.12-.71-.68.01-.41-.16-.8-.11-1.24.05-.45-.28-.37-.56-.25-.64.28-.66.26-.79-.44-.11-.6-.23-1.21-.08-1.82.05-.22.05-.48.35-.53.06-.01.07-.05.01-.12-.12-.16-.09-.36-.19-.54-.28.14-.57.22-.78-.11-.21-.33.05-.5.25-.68.27-.24.43-.47.03-.75-.27-.19-.2-.38.07-.53.15-.08.31-.17.47-.17,1.14-.05,2.28-.23,3.43-.19-.42-.01-.85-.07-1.26,0-.86.17-1.72.12-2.58.13-4.49.02-8.98,0-13.47.01-.11,0-.21,0-.32-.02-.58-.03-1.16,0-1.74-.01-.25,0-.5.03-.71-.15-.05-.08-.04-.15.03-.22.13-.09.27-.11.42-.09.17.02.34.02.5.02,6.45-.01,12.89.1,19.34.07,1.91,0,3.83-.02,5.74,0,.21,0,.42-.06.62.06Z"/>
    <path class="cls-81" d="M.15,137.97c14.85,0,29.69,0,44.54,0,.4,0,.71.11.98.38.11.28-.12.43-.27.58-1.34,1.31-2.6,2.69-3.78,4.16-.16.2-.29.48-.62.46-4.17-.04-8.35-.09-12.52-.13-.22-.12-.45-.06-.68-.06-2.32,0-4.64,0-6.95,0-.21,0-.42.02-.63-.05-.48-.16-.63-.45-.44-.92.05-.12.11-.23.16-.34.2-.44.29-.84-.04-1.3-.31-.45-.14-.96.3-1.27.13-.09.28-.19.39-.04.26.36.45.12.67-.03.4-.28.81-.58,1.26-.12.08-.01.11-.04.11-.09.03-1.16.18-.96,1.08-.96,3.69,0,7.37,0,11.06,0-3.85,0-7.7-.08-11.54.02-7.33.17-14.66.02-21.99.08-.37,0-.77.06-1.08-.22v-.13Z"/>
    <path class="cls-38" d="M.15,138.1h35.47c-.21.35-.48.25-.69.25-3.12,0-6.24,0-9.36,0-.73,0-1.46.01-2.19,0-.4,0-.69.02-.49.55.06.17.02.38.02.57,0,.22-.15.28-.34.28-.18,0-.35-.03-.32-.28.05-.49-.25-.31-.4-.17-.28.25-.76.26-.86.77-.05.23-.27.04-.38-.06-.17-.14.02-.36-.07-.54-.15.14-.27.27-.41.38-.31.26-.34.62-.05.82.76.53.27,1.08.04,1.57-.33.72-.15,1.07.7,1.07,2.32,0,4.64,0,6.95,0,.24,0,.51-.08.72.12-7.51,0-15.01,0-22.52,0-1.93,0-3.87,0-5.8,0v-5.33Z"/>
    <path class="cls-2" d="M7.62,60.49c.2.17.44.1.67.1,1.35,0,2.69,0,4.04,0,.35,0,.72-.07,1.03.19.04.04.13.06.18.04.79-.35,1.56.13,2.36.04.81-.1,1.64-.02,2.46-.02.29,0,.6-.06.81.21-.01.1-.07.17-.16.16-1-.11-1.99.15-2.99.14-1.1-.01-1.1,0-1.28,1.19.29.02.58-.26.87-.03.1.08.22.14.17.29-.03.11-.13.17-.24.17-.2,0-.44-.16-.57.09-.19.36-.48.74-.49,1.12-.01.65-.31,1.22-.35,1.85-.01.19-.05.37-.03.56.06.47-.23.78-.72.72-.91-.11-1.67.48-2.54.53-.02,0-.05,0-.06.02-.44,1-1.34.54-2.02.57-2,.07-4,.02-6,.03-.33,0-.65,0-.98.15-.36.17-.71-.28-1.12-.16-.16.04-.33,0-.5,0v-7.99c.2-.11.41-.06.62-.06,2.08,0,4.16,0,6.24,0,.2,0,.42-.07.61.08Z"/>
    <path class="cls-29" d="M98.53,22.04c-.01,4.45.03,8.91-.04,13.36-.07,4.27.07,8.53.02,12.79-.03,2.72-.07,5.44-.07,8.15,0,1.42.08,2.84.12,4.26-.07.29-.23.44-.42.47-.85.12-1.7.17-2.54-.03-.1-.02-.19-.13-.25-.25-.92,0-.76-.85-.78-1.77-.1-4.21-.05-8.42-.07-12.63-.02-3.58.02-7.15-.02-10.73-.05-4.54-.17-9.09-.11-13.63h4.17Z"/>
    <path class="cls-60" d="M226.76,143.3c-5.57,0-11.14,0-16.72.02-.29,0-.57-.22-.85-.02,0-1.37-.03-2.74,0-4.11,0-.34-.29-.73-.04-.97.29-.27.77-.12,1.16-.13,5.38-.18,10.77-.09,16.15-.14.1,0,.21.01.31.02v5.33Z"/>
    <path class="cls-122" d="M226.76,207.74c-1.11.17-2.23.08-3.34.09-1.49.02-2.99,0-4.48,0,.09-.34.38-.27.61-.29.31-.03.63-.01,1.01,0-.92-.34-1.83-.29-2.7-.49-.6-.14-.92-.27-.45-.97.14-.21.15-.43.12-.67-.03-.21-.1-.45.02-.62.3-.43.33-.77-.15-1.09-.17-.12-.11-.36.02-.52.4-.47.43-1.09.66-1.63.27-.61-.52-1.69-1.23-1.7-.88-.02-1.76,0-2.65-.02-1.39-.03-2.78.02-4.17-.04-.26-.01-.5-.02-.73-.15-.09-.06-.15-.14-.16-.25.1-.18.26-.24.44-.26.29,0,.58.03.86.05,1.57,0,3.13,0,4.7,0,.23,0,.46,0,.68-.09,2.66-.17,5.32-.08,7.97-.06.63,0,1.25-.27,1.87-.05.36.06.76-.02,1.07.26v8.5Z"/>
    <path class="cls-18" d="M226.76,199.24c-.38,0-.75,0-1.13,0-.3-.2-.35-.51-.37-.83-.02-.3-.01-.59-.01-.89,0-13.38,0-26.75,0-40.13,0-1.28,0-1.27-1.27-1.29-1.41-.02-2.82.07-4.23-.05-.59-.13-1.19-.25-1.8-.25-.7,0-.81.11-.82.8-.02,1.27.01,2.53-.02,3.8,0,.29.13.71-.38.77-.2-.24-.14-.52-.14-.79,0-1.16,0-2.32,0-3.48,0-.8-.05-.85-.87-.85-1.52,0-3.03,0-4.55,0-.27,0-.55.04-.8-.11-.11-.09-.12-.2-.05-.33.34-.11.69-.15,1.06-.13,1.83.07,3.66.09,5.48.05,2.73-.05,5.46.01,8.2-.06.34,0,.63-.02.82.39.19.42.58.18.9.12v43.25Z"/>
    <path class="cls-73" d="M165.06,27.79c0-3.03,0-6.06-.01-9.09h2.15c0,10.36,0,20.73.01,31.09,0,3.29.19,6.57.11,9.85-.02.77.26.75.6.75,2.57,0,5.14,0,7.71.01.21,0,.42.02.63.03.03.04.05.1.05.16-.16.28-.38.27-.59.27-3.35,0-6.69.02-10.04,0-.13,0-.25-.02-.37-.09-.17-.15-.35-.33-.25-.68.2-.73.11-1.49.11-2.24,0-9.57,0-19.14,0-28.72,0-.45.07-.93-.11-1.35Z"/>
    <path class="cls-97" d="M55.91,60.81c-.41-.16-.86.1-1.26-.23-.2-.64.2-.57.37-.78,0,.75.37.58.64.58,3.16,0,6.31,0,9.47,0,1.01,0,2.01,0,3.14,0-.69-.78-.45-1.81-.45-2.68,0-2.72-.04-5.44.04-8.17.05-1.71-.06-3.46-.05-5.19.03-4.63.1-9.26.11-13.9,0-3.02-.07-6.04-.11-9.06-.01-.9.15-1.8,0-2.69h2.15c-.14.96-.24,1.93-.24,2.92,0,12.7-.01,25.4-.02,38.1,0,.36.02.73-.13,1.04-.22.41-.52.39-.82.39-4.02.02-8.05.02-12.07,0-.27,0-.55,0-.77-.34Z"/>
    <path class="cls-75" d="M111.16,60.18c-.03-11.16-.06-22.32-.1-33.48,0-2.67,0-5.33-.01-8h1.52c0,7.44,0,14.87.02,22.31.02,6,.07,12,.1,18,0,.13.02.27,0,.39-.04.33.32.82-.11.97-.47.17-.99.67-1.42-.19Z"/>
    <path class="cls-71" d="M.8,60.75c-.22.01-.44.02-.65.04,0-13.67,0-27.33-.02-41,0-.94.13-1.26.72-1.09.18.05.38,0,.57,0,0,9.41,0,18.82,0,28.24,0,3.29,0,6.58,0,9.87,0,1.05-.09,2.1-.08,3.15,0,.65-.32.58-.52.79Z"/>
    <path class="cls-22" d="M199.19,18.7c.26.77-.01,1.54-.01,2.31.02,11.08.02,22.16,0,33.24,0,1.7.13,3.42-.1,5.11-.06.41.12.66.27,1.04-.45,0-.85,0-1.25,0-.16-.52.07-1.08-.06-1.61-.07-.33-.09-.65.01-.97.13-.26.09-.57.09-.86.03-12.56.05-25.12.07-37.68,0-.2-.02-.39-.03-.59.34,0,.67,0,1.01,0Z"/>
    <path class="cls-54" d="M222.08,18.7c.04,2.66.17,5.32.11,7.98-.23,11.01-.08,22.03-.11,33.04,0,.52,0,.9-.45.87-.4-.02-.56-.23-.56-.88.01-9.24-.05-18.49.04-27.73.04-4.43.02-8.86.09-13.29h.89Z"/>
    <path class="cls-47" d="M210.19,60.4c-.19,0-.38,0-.57-.01-.3-.01-.45-.15-.25-.66.07-.18.06-.45.06-.67,0-10.98,0-21.96.03-32.94,0-2.47-.09-4.95.1-7.42h.89c0,10.2.03,20.41-.04,30.61-.02,3.48-.07,6.97-.1,10.45,0,.23,0,.46-.12.64Z"/>
    <path class="cls-72" d="M44.95,60.36c.12-.41.08-.84.08-1.26,0-13.47,0-26.93,0-40.4h1.01c0,5.53,0,11.06-.02,16.58-.02,6.32-.08,12.63-.09,18.95,0,2.03.08,4.06.12,6.09-.37.15-.74.18-1.11.04Z"/>
    <path class="cls-92" d="M155.79,60.19c.13-2.04-.11-4.06-.1-6.09.03-7.68.04-15.37-.02-23.05-.03-4.12.06-8.23.03-12.35h.89c0,3.58.04,7.17-.02,10.75-.11,6.1.08,12.19,0,18.29-.05,3.67-.07,7.33-.11,11,0,.5.02.98.12,1.46.01.53-.22.64-.48.61-.22-.02-.4-.18-.32-.61Z"/>
    <path class="cls-49" d="M13.43,18.7c0,13.29,0,26.57,0,39.86,0,.39,0,.79,0,1.18,0,.27.17.62-.1.77-.22.12-.47.16-.67-.04-.2-.21-.03-.53-.03-.81.02-1.45.04-2.89.04-4.34,0-8.69,0-17.38,0-26.06,0-.49-.07-.98-.1-1.46.12-.37.13-.76.1-1.16-.15-2.64-.06-5.29-.11-7.93h.89Z"/>
    <path class="cls-98" d="M84.37,20.8c0,7.1,0,14.19,0,21.29,0,5.69,0,11.38,0,17.07,0,.22,0,.44,0,.66.01.45-.03.82-.42.8-.4-.02-.34-.42-.34-.8,0-4.81,0-9.63,0-14.44,0-8.19,0-16.38,0-24.57h.76Z"/>
    <path class="cls-100" d="M155.79,60.19c.26.68.53.45.79,0,2.53,0,5.06.01,7.59.01.74,0,.88-.21.88-1.4,0-9.98,0-19.95,0-29.93,0-.36.01-.72.02-1.08.31.11.23.5.23.8,0,10.27,0,20.55.03,30.82,0,.38-.32.76-.02,1.14-.05.23-.17.36-.31.44-.36.13-.73.04-1.09.25-2.48.04-4.96.29-7.45-.06-1.35-.19-2.69.08-4.04.17-1.46.1-2.9-.21-4.35-.23-.35,0-.72-.05-.98-.54,0-13.96,0-27.92,0-41.88h.25c0,13.42.01,26.84,0,40.26,0,1,.16,1.27.81,1.26,2.55-.06,5.1-.03,7.64-.03Z"/>
    <path class="cls-129" d="M19.63,199.44c-2.54.12-5.08.05-7.63.06-3.95.01-7.9,0-11.85-.01v-.38c.76.23,1.55.17,2.31.1,2.11-.19,4.22-.04,6.33-.1.1,0,.21,0,.31-.02.22.13.44.03.66.01,2.67,0,5.34,0,8.02,0,.62,0,1.25-.07,1.82.26,0,.02.02.05.03.07Z"/>
    <path class="cls-17" d="M226.76,130.62c-5.53.23-11.07.09-16.61.13-.78,0-1.02.2-1.22,1-.03.11.03.29-.13.32-.2.04-.21-.15-.27-.28-.12-.28-.4-.48-.4-.84,0-.22-.24-.19-.4-.19-2.7,0-5.39,0-8.09.02-.39,0-.74-.08-1.11-.16-.01-.09.02-.16.1-.2.46-.13.92-.02,1.38-.02,2.57-.01,5.14,0,7.71,0,.71,0,1.41.15,2.12.13,4.29,0,8.58.02,12.88.02,1.35,0,2.69-.02,4.04-.03v.13Z"/>
    <path class="cls-36" d="M209.85,130.5c-.23.15-.49.1-.74.1-3.14,0-6.28,0-9.42-.01-.38,0-.75-.06-1.13-.1-.16-.14-.19-.33-.17-.52.19-2.26.09-4.53.06-6.79,0-.36-.02-.72.08-1.06.18-.32.24-.66.23-1.03,0-2.68-.15-5.38.02-8.05.43-6.75.08-13.51.18-20.26,0-.63.58-1.19.35-1.72-.25-.58-.27-1.13-.32-1.71-.03-.34-.03-.68.01-1.01.03-.2.03-.46.31-.48.23-.02.38.14.49.33.43.77.61,1.6.58,2.47-.02.93.05,1.86.11,2.78.04.6.57,1.18.7,1.86.05.24.43.29.72.16.19-.08.43-.16.57.06.15.22.05.47-.12.64-.29.27-.42.53-.24.94.13.31-.09.5-.38.58.61.27.23.9.46,1.34.18-.14-.03-.49.28-.54.23-.03.44.08.57.23.41.49,1.14.54,1.48,1.18.1.19.73.17,1.13.16.46-.01.75.08.67.63-.05.33.17.49.46.59.34.11.54.32.53.7,0,.35-.21.46-.54.47-.27.01-.21.27-.24.44-.03.24,0,.44.26.58.68.4.67.4.1,1-.17.18.03.6-.5.62.37.13.57-.03.79-.09.46-.12.62-.01.66.46.03.3-.07.58-.15.87-.11.4-.05.75.3,1.02.75.6.75.69.07,1.38.61.08.69.43.71.98.05,1.5.07,3,.08,4.5,0,.45.13.96-.44,1.23.43.11.45.44.45.78,0,1.44,0,2.87,0,4.31,0,2.24-.02,4.48.01,6.72.01.93-.26,1.84-.1,2.77.09.34.47.24.65.44.14.01.28.03.42.04Z"/>
    <path class="cls-32" d="M220.94,108.04c0-9.07,0-18.14,0-27.2,0-.23-.02-.47,0-.7.03-.25-.17-.66.19-.71.38-.05.49.41.52.68.11,1.03.37,2.02.36,3.09-.06,7.16-.05,14.31-.06,21.47,0,2.16,0,4.31,0,6.47,0,3.41,0,6.81,0,10.22-.13,1.96-.26,3.91-.38,5.87h-.2c-.05-.62-.14-1.24-.16-1.87-.1-4.51-.15-9.02-.17-13.54,0-1.26-.07-2.52-.1-3.79Z"/>
    <path class="cls-53" d="M209.42,130.46c-.3-.04-.66.16-.87-.23.15-.79.17-1.59.18-2.39.02-3.84.02-7.69,0-11.53-.01-1.84.15-3.69.09-5.53-.29-8.4-.05-16.8-.13-25.2,0-.43-.11-.9.24-1.27.15-1.46.12-2.92.13-4.38,0-.17,0-.34.02-.5.02-.16.1-.29.28-.28.21,0,.19.18.2.33.07.55-.14,1.13.13,1.67,0,10.21,0,20.42-.01,30.62,0,2.22.07,4.43-.02,6.64-.06,1.46.12,2.91.02,4.36-.15,2.13-.08,4.26-.13,6.39,0,.43-.08.86-.12,1.3Z"/>
    <path class="cls-19" d="M19.39,199.11c-.16-.47-.12-.95-.12-1.43,0-13.35,0-26.7,0-40.05,0-1.27,0-1.26,1.28-1.26,3.12,0,6.23,0,9.35-.02.46,0,.81.06.74.64.11.2.06.41.06.62,0,9.18,0,18.35,0,27.53,0,.22.16.51-.16.67-.33-.3-.25-.7-.25-1.07,0-2.62,0-5.24,0-7.86,0-6.04,0-12.08,0-18.13,0-.25,0-.51,0-.76-.03-.59-.16-.67-.72-.7-1.3-.07-2.6.08-3.91.06-1.09-.02-2.16-.29-3.26-.33-.65-.02-1.3-.03-1.96-.04-.37,0-.54.16-.54.53,0,.27,0,.55,0,.82,0,7.88,0,15.76,0,23.64,0,.61,0,1.22-.19,1.82-.12.38-.12.81,0,1.19.18.58.19,1.16.19,1.75,0,3.38,0,6.76,0,10.14,0,.46-.03.93.1,1.39.09.31-.02.58-.24.81-.11.09-.22.11-.34.03Z"/>
    <path class="cls-33" d="M9.77,199.11c-.04.3-.26.26-.46.27-.22.01-.22-.12-.2-.28,0-8.13,0-16.27.01-24.4,0-4.54.02-9.09.02-13.63.24-.5.05-1.04.12-1.55.04-.27-.16-.72.25-.74.42-.01.25.45.25.7,0,8.65,0,17.3.01,25.95,0,1.28.09,2.58.07,3.85-.03,3.07-.08,6.13-.08,9.2,0,.21,0,.42,0,.63Z"/>
    <path class="cls-69" d="M30.5,185.79c.22-.26.12-.57.12-.85,0-9.08,0-18.17,0-27.25,0-.23,0-.46.01-.7.18.2.11.44.11.67.02,3.84.03,7.68.04,11.52,0,3.59-.02,7.18-.02,10.77,0,6.13,0,12.25,0,18.38,0,1.03-.01,1.04-1.01,1.04-3.37,0-6.74-.01-10.11-.02-.08-.08-.16-.16-.24-.25.09,0,.17,0,.26-.01.3-.28.67-.22,1.02-.22,2.84,0,5.69,0,8.53,0q1.06,0,1.06-1.09c0-3.63,0-7.27,0-10.9,0-.37-.07-.77.24-1.08Z"/>
    <path class="cls-117" d="M165.06,61c.08-.05.16-.1.24-.15,3.67,0,7.35.02,11.02.03.37-.17.74,0,1.12,0,6.53,0,13.06,0,19.6,0,.32,0,.62-.07.93-.14.07.05.15.1.22.15.03.08.02.15-.03.22-.74.9-1.79.76-2.74.69-.98-.07-1.97-.23-2.95-.28-.76-.04-1.53.12-2.32.01-1.54-.2-3.1-.07-4.65-.15-1.72-.08-3.45,0-5.17-.05-4.8-.11-9.6-.13-14.4-.12-.19,0-.38,0-.57-.04-.12-.03-.23-.08-.3-.19Z"/>
    <path class="cls-117" d="M198.06,59.09c0,.21,0,.42-.01.62-.23-.47-.05-.97-.03-1.46.02.28.03.56.05.84Z"/>
    <path class="cls-16" d="M36.7,199.62c.23.03.44-.07.68-.06,3.05.05,6.09.16,9.14-.05.86-.06,1.72.08,2.57.09,8.92.03,17.85.02,26.77.02.19,0,.38.04.54-.11.31-.35.74-.27,1.12-.26,3.67.1,7.34.03,11.01.05.27,0,.55.01.82-.02,2.83.01,5.67-.17,8.5.15.17.02.33.06.49-.02.37-.1.7.04,1.04.17,2.27.91,4.57,1.69,6.9,2.43.88.28,1.78.52,2.65.85.49.18.92.42,1.14.94.14.92.1,1.85.04,2.77-.04.68-.4.95-1.21,1-1.22.07-2.43-.04-3.65-.04-1.08.05-2.17.08-3.25,0-.44-.03-.87.06-1.3.13-1.09,0-2.18.03-3.27-.02-.18-.05-.36-.1-.56-.1-1.49.04-2.99-.09-4.48.08-.31.07-.62.04-.93.05-.12,0-.24,0-.36,0-2.33,0-4.66,0-7,0-.29,0-.59-.01-.87.09-2.91.07-5.81.01-8.72.03-.67,0-1.33.08-2,.16-.97.12-1.96-.03-2.94-.08-1.5-.09-3-.04-4.5-.03-.25-.09-.5-.05-.75-.05-8.89,0-17.79,0-26.68,0-1.98,0-3.96-.1-5.94-.06-.19,0-.38.03-.54-.11-2.58,0-5.16-.02-7.74-.03-.15-.28.06-.35.25-.37.52-.05,1.03-.24,1.57-.12.23.05.46.07.69.03.84-.14,1.68-.03,2.52-.01,1.72.03,3.45.04,5.18-.05,1.16-.06,2.35,0,3.52.05,1.5.06,2.99,0,4.48-.05.36-.01.71-.04,1.07.01,1.09.15,1.09.14,1.09-.91-.1.11-.09.23-.04.35.08.2.09.38-.12.49-.19.1-.4.1-.52-.07-.25-.36-.59-.42-.99-.42-.38,0-.45-.24-.3-.56-.18.02-.26.15-.36.25-.26.25-.49.22-.69-.06-.33-.46-.61-.92-1.24-1.09-.43-.11-.25-.65-.35-.96-.18-.02-.23.08-.29.17-.12.17-.25.3-.47.23-.24-.07-.31-.26-.33-.49-.02-.17,0-.34-.04-.51-.06-.29-.13-.52-.46-.19-.33.32-.5.08-.54-.24-.06-.5-.11-1-.18-1.51-.05-.37.17-.68.58-.67.42,0,.42.34.37.65-.04.24-.06.48.21.59.29.12.35-.16.45-.33.22-.41.7-.3,1.09-.52-.34-.41-.76-.36-1.14-.34-.65.04-1.14-.23-1.54-.72-.15-.18-.3-.36-.19-.63Z"/>
    <path class="cls-28" d="M31.16,207.62c1.2,0,2.4.02,3.6.03,9.92.04,19.84.08,29.76.12.19,0,.37.05.56.08-5.03,0-10.07.02-15.1.02-10.17,0-20.35,0-30.52,0-.25,0-.51-.01-.76-.02.34-.14.71-.07,1.06-.08,3.57-.03,7.15-.04,10.72-.07.23,0,.46.04.68-.08Z"/>
    <path class="cls-28" d="M71.84,208.36c-.21.01-.36-.08-.5-.22-.3-.28-.66-.09-.99-.14-.26-.04-.53.08-.77-.11,4.54-.27,9.09-.27,13.64-.26.14-.1.28-.12.42.02-.17.39-.53.28-.82.28-2.73,0-5.46.07-8.19.05-.95,0-1.84.31-2.78.39Z"/>
    <path class="cls-28" d="M14.53,207.85c.7-.11,1.4-.13,2.1,0-.7,0-1.4,0-2.1,0Z"/>
    <path class="cls-28" d="M17.19,207.85c.45-.12.89-.12,1.34,0-.45,0-.89,0-1.34,0Z"/>
    <path class="cls-113" d="M215.52,60.99c-3.38,0-6.77.01-10.15.02-.72.03-1.44.11-2.17.07-.86-.05-1.73.07-2.6.09-.81.02-1.62-.07-2.42-.17,0-.03,0-.07,0-.1,3.73,0,7.47-.02,11.2-.02.27,0,.54,0,.82,0,1.55,0,3.1.01,4.66.02.23,0,.46-.06.67.1Z"/>
    <path class="cls-113" d="M217.79,60.99c-.43,0-.86,0-1.29,0,.43-.16.86-.16,1.29,0Z"/>
    <path class="cls-130" d="M141.77,28.71c.33-.12.38.31.39.93.18,9.84.13,19.69.14,29.53,0,.83-.11,1.31-.5,1.23-.13-7.43-.13-14.86-.13-22.29,0-2.72-.01-5.44-.02-8.16,0-.43-.03-.88.11-1.25Z"/>
    <path class="cls-106" d="M68.03,231.32c-7.25,0-14.5,0-21.75,0-.24.33-.24.76-.24,1.18,0,10.28,0,20.55,0,30.83,0,.39,0,.79.19,1.12.5-.08.11-.59.23-.83.08.6-.08,1.16-.21,1.74-.05.45-.09.9.08,1.33.05.09.11.15.18.2.38.29.81.28,1.23.28,2.19,0,4.37-.03,6.56-.05,4.17-.04,8.33-.02,12.5-.02.44,0,.88.02,1.31-.17.07-.07.11-.16.13-.27.06-.61.02-1.23.02-1.84,0-10.6,0-21.2,0-31.81,0-.57.09-1.18-.24-1.68Z"/>
    <path class="cls-59" d="M34.01,224.9h-10.75c-.29.49-.24,1.1-.24,1.69,0,4.21.05,8.41.1,12.62.09,8.48.03,16.97.02,25.46,0,.43.02.86-.05,1.28-.03.17-.11.3-.22.3-.12,0-.19-.14-.21-.31-.06-.42-.04-.85-.04-1.28,0-9.11-.01-18.22,0-27.33,0-2.21-.2-4.39-.14-6.6.03-1.18,0-2.36.1-3.54.06-.76.16-1.58-.2-2.28-1.41,0-2.82.03-4.24-.02-.38-.01-.45.12-.45.71.01,13.8.01,27.59.01,41.39.21.33.49.36.76.36,1.3,0,2.6.04,3.9,0,1.4-.17,2.8.01,4.2-.09.47-.22.94-.25,1.41,0,.35.05.69.06,1.04,0,1.06-.32,2.13-.06,3.19-.16.68-.06,1.38.2,2.05-.19.06-.09.1-.2.12-.33-.01-3.32.13-6.64-.09-9.96-.04-.56-.02-1.12-.02-1.68,0-9.38,0-18.75,0-28.13,0-.65.08-1.33-.24-1.88Z"/>
    <path class="cls-112" d="M186.13,234.89c-.28.46-.23,1.04-.24,1.59,0,3.26-.02-3.47,0-.22.02,2.63-.1,5.25-.22,7.88-.02.36,0,.72.03,1.08.07.62.06,1.24.06,1.87,0,3.82,0,7.63,0,11.45,0,2.53-.18,5.05-.16,7.59-.06.32-.26.38-.4.54-.16.19-.12.36.04.51.26.19.53.18.81.18.46,0,.93,0,1.39,0,1.79.02,3.58.21,5.36.14,7.1-.29,14.19-.03,21.29-.14.29,0,.59.02.84-.3.09-.53-.2-.5-.37-.57-.29-.11-.59-.07-.88-.07-3.37,0-6.74,0-10.11,0-.97,0-.99-.07-1.02-1.54-.03-1.39.2-2.75.13-4.14-.11-2.27-.02-4.53,0-6.8.05-4.87-.22-9.73-.14-14.6,0-.26-.04-4.44-.04-4.44h-16.38Z"/>
    <path class="cls-25" d="M202.31,238.2c0,1.58.02,3.16.03,4.74.03,4.27.09,8.55.08,12.82,0,3.21.03,6.43-.08,9.64-.05,1.37.02,1.41.93,1.41,3.69,0,7.37,0,11.06,0,.21,0,.42-.06.62.11.54.59,1.16.59,1.7-.01.04-.28.04-.52-.19-.58-.04,0-.08.01-.13.02-1.09.15-1.15.05-1.15-1.63,0-2.83-.04-5.65.01-8.48.18-9.88.1-19.76.11-29.64,0-.58.06-1.2-.23-1.69-4.13,0-8.26,0-12.39,0-.19.31-.23.7-.23,1.1.04,2.34-.21,4.66-.13,7,.04,1.09-.11,2.16-.13,3.25-.01.66.03,1.31.1,1.96Z"/>
    <path class="cls-24" d="M34.27,266.6c0,.06,0,.12,0,.18.15.3.37.29.58.29,3.72,0,7.44.02,11.16,0,.08,0,.17-.03.25-.06.13-.07.22-.21.26-.41-.05,0-.1.01-.14.02-.07-.07.04-.06-.04-.07-.89-.12-.77-1.17-.8-2.09-.02-.56-.01-1.12-.01-1.68,0-11.65,0-23.3,0-34.96,0-.98.04-1.98-.23-2.91-3.46,0-6.91,0-10.37,0-.29.93-.18,1.94-.16,2.89.04,1.9.03,3.8.04,5.7.03,8.74.02,17.48,0,26.22,0,1.74.17,3.46.06,5.22-.05.75-.14,1.31-.57,1.67Z"/>
    <path class="cls-35" d="M151.23,224.9c0,13.28,0,26.57.02,39.85,0,.63-.17,1.31.15,1.89.23.32.52.23.79.24,2.44,0,4.89,0,7.33,0,.9,0,1.04-.22,1.05-1.68.05-6.22.17-12.43.14-18.66-.03-6.62,0-13.23-.01-19.85,0-.62.07-1.27-.24-1.79h-9.23Z"/>
    <path class="cls-64" d="M171.08,224.9c-2.82,0-5.65,0-8.47,0-.17.27-.23.62-.23.99,0,2.7-.06,5.41.03,8.11.03,8.45,0,16.9.01,25.35,0,1.55,0,3.09,0,4.64,0,2.58.11,2.77,1.8,2.78,1.94,0,3.87,0,5.81,0,.36,0,.72.02,1.05-.24.35-.45.36-1.09.36-1.71-.02-2.36,0-4.73-.07-7.09-.1-3.08-.02-6.17-.06-9.26-.04-3.32.18-6.63.08-9.95-.12-4.01-.04-8.02-.08-12.02,0-.55.04-1.13-.24-1.59Z"/>
    <path class="cls-44" d="M180.32,224.9c-2.78,0-5.56,0-8.35,0-.28.46-.23,1.04-.23,1.59-.01,2.83.11,5.66.06,8.48-.07,3.88-.05,7.77-.06,11.65-.01,4.84-.03,9.68,0,14.51,0,1.22-.09,2.43-.12,3.64-.01.58-.06,1.2.21,1.7.14.18.31.2.48.21,2.48.12,4.96.1,7.45,0,.59-.02.72-.24.75-1.2,0-.23,0-.46,0-.69,0-12.76,0-25.52,0-38.28,0-.55.09-1.13-.18-1.61Z"/>
    <path class="cls-74" d="M185.13,266.94c.21-.31.54.05.73-.32-.23-.32-.24-.74-.24-1.18-.02-5.23-.06-10.46.03-15.68.02-1.52-.05-3.09.25-4.59.37-6.75.19-13.51.24-20.27-1.85,0-3.71,0-5.56,0-.16.31-.12.69-.12,1.04,0,13.4,0,26.79,0,40.19,0,.2-.02.4.04.58.08.21.22.33.36.34,1.35.17,2.7.5,4.06.06.08-.03.16-.09.22-.18Z"/>
    <path class="cls-73" d="M162.6,234c0-3.03,0-6.06.01-9.09h-2.15c0,10.36,0,20.73-.01,31.09,0,3.29-.19,6.57-.11,9.85.02.77-.26.75-.6.75-2.57,0-5.14,0-7.71.01-.21,0-.42.02-.63.03-.03.04-.05.1-.05.16.16.28.38.27.59.27,3.35,0,6.69.02,10.04,0,.13,0,.25-.02.37-.09.17-.15.35-.33.25-.68-.2-.73-.11-1.49-.11-2.24,0-9.57,0-19.14,0-28.72,0-.45-.07-.93.11-1.35Z"/>
    <path class="cls-75" d="M216.5,266.38c.03-11.16.06-22.32.1-33.48,0-2.67,0-5.33.01-8h-1.52c0,7.44,0,14.87-.02,22.31-.02,6-.07,12-.1,18,0,.13-.02.27,0,.39.04.33-.32.82.11.97.47.17.99.67,1.42-.19Z"/>
    <path class="cls-22" d="M45.27,224.9c-.26.77.01,1.54.01,2.31-.02,11.08-.02,22.16,0,33.24,0,1.7-.13,3.42.1,5.11.06.41-.12.66-.27,1.04.45,0,.85,0,1.25,0,.16-.52-.07-1.08.06-1.61.07-.33.09-.65-.01-.97-.13-.26-.09-.57-.09-.86-.03-12.56-.05-25.12-.07-37.68,0-.2.02-.39.03-.59-.34,0-.67,0-1.01,0Z"/>
    <path class="cls-54" d="M22.38,224.9c-.04,2.66-.17,5.32-.11,7.98.23,11.01.08,22.03.11,33.04,0,.52,0,.9.45.87.4-.02.56-.23.56-.88-.01-9.24.05-18.49-.04-27.73-.04-4.43-.02-8.86-.09-13.29h-.89Z"/>
    <path class="cls-47" d="M34.27,266.6c.19,0,.38,0,.57-.01.3-.01.45-.15.25-.66-.07-.18-.06-.45-.06-.67,0-10.98,0-21.96-.03-32.94,0-2.47.09-4.95-.1-7.42h-.89c0,10.2-.03,20.41.04,30.61.02,3.48.07,6.97.1,10.45,0,.23,0,.46.12.64Z"/>
    <path class="cls-92" d="M171.88,266.39c-.13-2.04.11-4.06.1-6.09-.03-7.68-.04-15.37.02-23.05.03-4.12-.06-8.23-.03-12.35h-.89c0,3.58-.04,7.17.02,10.75.11,6.1-.08,12.19,0,18.29.05,3.67.07,7.33.11,11,0,.5-.02.98-.12,1.46-.01.53.22.64.48.61.22-.02.4-.18.32-.61Z"/>
    <path class="cls-100" d="M171.88,266.39c-.26.68-.53.45-.79,0-2.53,0-5.06.01-7.59.01-.74,0-.88-.21-.88-1.4,0-9.98,0-19.95,0-29.93,0-.36-.01-.72-.02-1.08-.31.11-.23.5-.23.8,0,10.27,0,20.55-.03,30.82,0,.38.32.76.02,1.14.05.23.17.36.31.44.36.13.73.04,1.09.25,2.48.04,4.96.29,7.45-.06,1.35-.19,2.69.08,4.04.17,1.46.1,2.9-.21,4.35-.23.35,0,.72-.05.98-.54,0-13.96,0-27.92,0-41.88h-.25c0,13.42-.01,26.84,0,40.26,0,1-.16,1.27-.81,1.26-2.55-.06-5.1-.03-7.64-.03Z"/>
    <path class="cls-130" d="M185.89,234.91c-.33-.12-.38.31-.39.93-.18,9.84-.13,19.69-.14,29.53,0,.83.11,1.31.5,1.23.13-7.43.13-14.86.13-22.29,0-2.72.01-5.44.02-8.16,0-.43.03-.88-.11-1.25Z"/>
    <path class="cls-65" d="M22.05,130.38c-5.27,0-10.55,0-15.82-.01-.37.04-.5-.13-.55-.5-.15-1.2-.1-2.4-.1-3.61,0-9.76,0-19.52,0-29.27,0-.98-.1-.86.89-.87.13,0,.25-.02.38-.03,1.3-.08,2.59-.04,3.89-.02.1,0,.2,0,.3,0,3.91-.05,7.81,0,11.72-.03.61,0,.57.39.64.79.26,1.61.18,3.23.21,4.85.07,2.41.1,4.81-.03,7.22-.04.74.08,1.47.08,2.21-.01,5.87,0,11.74,0,17.61,0,.08,0,.17,0,.25,0,1.39-.19,1.55-1.61,1.41Z"/>
    <path class="cls-103" d="M10.75,96.07c-1.3,0-2.59.01-3.89.02.56-.23,1.15-.09,1.72-.1.72,0,1.45-.11,2.17.07Z"/>
    <path class="cls-115" d="M25.68,96.88c0-.17,0-.35,0-.52-.3-.52-.21-1.07-.17-1.62.01-.24,0-.48,0-.73,0-1.12-.12-2.23-.02-3.34.32-3.53.06-7.06.15-10.59,0-.23-.05-.46.05-.69.05-.6.1-1.21.28-1.79,2.71-.1,5.41-.17,8.12-.13.83.01.84.02.84.86.01,2.17.02,4.33.04,6.5.14.15.17.34.18.53.1,1.9.28,3.79.04,5.69-.02.13-.01.25-.01.38-.02,11.3-.01,22.6,0,33.9,0,1.14.09,2.27,0,3.41-.02.24-.02.5.07.74.1-.28.07-.56.07-.84.05-5.93-.02-11.87,0-17.8.01-3.74-.09-7.48.02-11.22.14-4.58.06-9.17.11-13.75.01-1.01.11-1.09,1.14-1.1.67-.01,1.34.07,2.01-.05,1.35,0,2.7,0,4.05,0,.71.11,1.42.02,2.13.05.64.02.71.09.7.74,0,1.89.14,3.78.04,5.67-.09,1.66.3,3.3.09,4.95.04.27.04.55.04.82,0,7.3.01,14.61-.01,21.91,0,1.71.15,3.41.15,5.12,0,1.9-.22,3.79-.14,5.69,0,.19-.01.38-.12.55-.56.21-1.14.14-1.72.14-6.12.02-12.24.01-18.36.01-.09-.55,0-1.09,0-1.64,0-10.19,0-20.37,0-30.56,0-.43-.1-.9.22-1.28Z"/>
    <path class="cls-15" d="M54.78,128.97c-.31.31-.48.74-.86.99-.03-.08-.07-.19-.16-.13-.87.56-1.85.52-2.83.53-1.38,0-2.76,0-4.14,0-.29,0-.58.02-.84-.14-.16-.25-.13-.53-.13-.8,0-10.75,0-21.49,0-32.24,0-.36-.02-.72.11-1.06.17-.39.52-.48.89-.48,2.44-.02,4.88-.03,7.32,0,.69,0,.92.28.99.97.01.11.03.21.01.32-.19,1.4.02,2.82-.07,4.23-.07,1.02-.05,2.06-.05,3.09,0,7.79,0,15.58,0,23.37,0,.46.03.93-.25,1.35Z"/>
    <path class="cls-95" d="M46.02,96.11c.01,3.86.02,7.73.03,11.59.01,7.2.02,14.4.03,21.6,0,.31.05.64-.14.92-.13,0-.27,0-.4,0-.2-1.19-.09-2.4-.06-3.59.05-1.71.05-3.41,0-5.12-.06-1.86-.03-3.71-.03-5.57,0-6.44-.01-12.88-.02-19.32,0-.17.01-.34.02-.51.19-.3.38-.16.57,0Z"/>
    <path class="cls-89" d="M198.71,121.99c-.01,2.06-.04,4.12-.03,6.18,0,.78-.04,1.55-.11,2.32,0,.04-.01.08-.02.11-2.01,0-4.03,0-6.04,0-.09.11-.21.16-.33.15-1.03-.07-2.06-.01-3.09-.06-.19,0-.38-.05-.52-.19-.12-.22-.09-.45-.09-.68,0-6.21.01-12.42,0-18.63,0-1.33.15-2.65.15-3.99,0-1.42-.18-2.82-.15-4.24.13-5.34.07-10.68.17-16.02.05-2.87.04-5.74.09-8.61,0-.23,0-.47.06-.69.13-.53.55-.5.96-.47.88.06,1.75.17,2.63.18,1.78,0,3.55.03,5.33,0,.52,0,.9.07,1.01.64.09.2.05.42.05.63,0,1.56-.06,3.13.01,4.69.36,8.06.11,16.13.16,24.2.03,4.62-.17,9.25-.11,13.87,0,.21.02.43-.11.61Z"/>
    <path class="cls-14" d="M188.65,130.44c.78.14,1.57.04,2.36.07.5.02.99.03,1.49.11.11.15.3.2.45.18,1.24-.18,2.47.09,3.71.09.22,0,.56-.08.56.23,0,.37-.36.24-.59.27-1.29.15-2.6.06-3.87.37-.19.05-.39.04-.37.31.02.19.11.32.33.28.33-.07.33.14.32.37-.03.39-.01.77.41.96.21.1.13.24.05.36-.18.29-.35.56-.42.91-.05.24-.27.29-.41.06-.38-.58-.82-.17-1.22-.07-.18.04-.32.38-.19.46.48.31.25.9.57,1.26.23.25.06.38-.19.42-.43.07-.87.12-1.32.18.07.24.22.17.39.16.29-.03.63-.06.52.43-.39.32-.85.19-1.27.16-1.97-.14-3.94-.15-5.91,0-.23.02-.46.02-.69.02-4.11,0-8.22.1-12.33-.03-3.16-.1-6.32-.03-9.47-.1-1.03-.03-2.05.17-3.09.15-.74-.01-1.47-.11-2.2-.15-.38-.02-.61-.26-.78-.57-.06-.11-.08-.23-.09-.35-.07-.77-.08-1.53.06-2.29.16-.99.27-1.99.45-2.98.02-.15.09-.27.15-.4.4-.53.93-.88,1.58-1.02.38-.14.78-.16,1.18-.16,5.48,0,10.95,0,16.43,0,.36,0,.72.01,1.07.1.24,0,.48-.06.72,0,3.36.04,6.72,0,10.08.02.31,0,.63-.01.94.04.21-.01.42,0,.59.14Z"/>
    <path class="cls-42" d="M201.84,139.25c-.26.94-.24,1.91-.24,2.87,0,.21-.03.43,0,.63.07.53-.15.68-.67.68-3.73-.02-7.45,0-11.18,0-10.76,0-21.52,0-32.28,0-.27,0-.55.08-.8-.1.14-.2.36-.21.56-.22,1.01-.05,2.01-.16,3.03-.14,2.38.05,4.75.03,7.13.11,2.44.08,4.88.1,7.32-.05.93-.06,1.87.13,2.81-.12.63-.17,1.3.19,2,.09,1.25-.19,2.52-.16,3.78-.13.15,0,.29.02.43-.06-.01-.37-.32-.42-.54-.55-.18-.11-.39-.22-.36-.47.03-.2.22-.23.38-.27.12-.03.29-.05.29-.19.02-.55.25-1.01.55-1.45.12-.18.06-.39-.22-.38-.34,0-.6-.05-.49-.58-.41.36-.83.5-.83,1.04,0,.31-.07.67-.52.64-.4-.02-.81-.57-.74-.95.13-.77.12-.77-.63-.95-.56-.13-1.13-.09-1.7-.09-4.12,0-8.25.01-12.37-.03-.25,0-.51.01-.75-.1-.14-.06-.29-.15-.26-.32.02-.13.17-.17.3-.19.19-.03.38-.02.57-.03,1.79-.03,3.58.04,5.37.05,1.71.02,3.41,0,5.12,0,2.08,0,4.17.04,6.25-.01,1.83-.05,3.66-.11,5.48-.04,4.06.15,8.11.09,12.17.11.12,0,.25-.02.36.07.74.08.77.57.66,1.13Z"/>
    <path class="cls-110" d="M201.19,138.11c-7.95,0-15.91-.02-23.86-.03-.17,0-.34,0-.5,0-.2-.1-.41-.05-.62-.05-3.35,0-6.71-.13-10.05.04-2.92.14-5.84.07-8.76.14-.46.01-.93,0-1.38-.12-.5-.13-.61-.36-.43-.87.52.82,1.41.61,2.11.6,3.24-.06,6.48-.16,9.71-.08,5.15.13,10.31.14,15.46.09,1.55-.01,3.1-.07,4.65-.12,1.24-.03,2.47.15,3.71.14.27.16.57.13.86.13,3.12,0,6.24,0,9.38,0-.05.06-.07.11-.09.11-.06.02-.12.02-.19.03Z"/>
    <path class="cls-17" d="M201.91,177.89c0-1.62-.02-3.24-.02-4.87,0-3.33,0-6.66,0-9.99,0-.99.02-1.98.03-2.97.14.39.06.79.06,1.19.02,1.7.12,3.4.1,5.09-.04,2.44.22,4.89,0,7.32-.12,1.41.04,2.82-.16,4.22Z"/>
    <path class="cls-17" d="M202.68,151.08c-.77-.71-.36-1.59-.43-2.39-.01-.15.16-.27.31-.25.23.03.13.21.09.34-.18.55.05,1.08.11,1.61.03.25.01.44-.09.68Z"/>
    <path class="cls-17" d="M202.49,146.31c.25-.23-.23-.8.18-.87.43-.07.24.56.46.82.14.16.35.35.14.6-.12.14-.3.15-.46.07-.23-.11-.34-.3-.31-.62Z"/>
    <path class="cls-42" d="M201.87,145.72c0-1.65-.01-3.3-.02-4.96.19.27.11.57.1.86-.05,1.37.12,2.74-.08,4.1Z"/>
    <path class="cls-17" d="M204.67,149.44c-.11.2-.23.47-.4.71-.12.17-.36.19-.5.04-.21-.22.08-.26.18-.34.17-.14.29-.27.23-.53-.04-.17.13-.19.25-.17.13.01.24.06.23.29Z"/>
    <path class="cls-17" d="M208.74,143.53c-.58-.66-.08-1.34-.15-2,.05,0,.1,0,.15,0v2.01Z"/>
    <path class="cls-17" d="M202.61,152.3c-.02.14.03.32-.15.31-.18,0-.21-.18-.22-.33,0-.12-.03-.29.15-.29.19,0,.2.18.22.3Z"/>
    <path class="cls-17" d="M207.34,131.44s.1-.12.17-.14c.11-.03.21.04.23.16.02.1-.06.15-.15.16-.11,0-.21,0-.24-.17Z"/>
    <path class="cls-6" d="M213.99,207.84c-.26-.44-.71-.39-1.08-.33-.63.1-1.24.22-1.81-.2-.06-.05-.16-.05-.24-.07-.27-.06-.74.44-.79-.27-.02-.34-.03-.68.21-.96.02-.03.02-.08.02-.13-.21-.19-.29.35-.49.11-.23-.27-.2-.66-.09-.9.29-.64.1-1.15-.06-1.78-.16-.62-.1-1.41.25-2.07.38-.71.35-.85-.3-1.32-.15-.11-.22-.25-.3-.4.48.19.99.08,1.48.11,1.59.1,3.19-.07,4.78.09.41.04.87-.09,1.31-.07.79.03,1.01.23,1.15,1.01.03.15.08.29.2.38.31.25.27.49.01.74-.14.14-.2.31-.22.51-.02.19-.03.4-.13.55-.31.46-.7.87.18,1.17.19.07.09.43-.15.57-.3.17-.32.43-.23.71.16.45.09.81-.27,1.14-.16.15-.27.25.13.37,1.05.3,2.16.21,3.19.58.15.05.38.02.36.25-.02.2-.24.12-.37.13-.6.06-1.21-.11-1.81.1-1.65.05-3.29.07-4.94.01Z"/>
    <path class="cls-121" d="M59.09,68.6c-.2.16-.44.1-.67.1-2.72.01-5.45.02-8.17.04-.22,0-.46-.06-.67.1-6.39,0-12.79.02-19.18.02-2.88,0-5.76-.02-8.64-.03-.5-.07-.99-.06-1.49,0-1.27,0-2.55,0-3.82,0-.35-.22-.75,0-1.19-.17.22-.24.47-.17.69-.17,3.56,0,7.12,0,10.68,0,.46,0,.91-.13,1.37-.02.23.06.34-.11.35-.34,0-.18.1-.27.28-.27.13,0,.24,0,.32.15.08.14-.05.5.24.38.24-.1.59-.14.7-.45.04-.12.04-.28.17-.3.46-.09.98-.11.29-.69-.11-.09.08-.21.21-.21.19,0,.44.18.53-.13.06-.23-.05-.45-.21-.63-.14-.16-.46-.24-.28-.54.2-.32.49-.27.78-.12.13.07.27.15.4.01.12-.12.15-.3.07-.41-.38-.5.08-.75.3-1.07.24-.34.7-.47.86-.9.08-.21.17-.39-.1-.53-.11-.06-.25-.14-.16-.28.11-.18.26-.34.5-.35.18,0,.25.1.28.27.07.38.38.34.48.13.24-.53.74-.56,1.17-.74.12-.05.32-.09.27-.29-.04-.14-.2-.14-.32-.14-.63,0-1.24-.18-1.88-.14-.37.03-.7.05-.97.35-.15.17-1.72.25-1.89.12-.04-.03-.09-.1-.09-.15,0-.13.11-.17.22-.17.32,0,.63,0,.95-.01.14,0,.33,0,.31-.21-.01-.15-.18-.15-.3-.17-.32-.05-.68.12-.98-.13,4.72,0,9.44,0,14.16,0,.74.25,1.5.1,2.25.09.84,0,1.67.12,2.5.25.1.02.27.07.26.15-.06.56.46.56.74.78.37.28.4.48.06.79-.36.33-.86.37-1.36.61.35.17.66.1.93.19.21.07.4.15.42.41.02.27-.13.43-.37.52-.1.04-.21.04-.3.09-.34.2-.46.52-.49.9-.03.35.14.45.42.58.38.17.53.53.44.96-.09.46.04.68.55.63.34-.03.62.24.95.31.12.03.25.09.23.25-.02.15-.14.21-.26.25-.36.11-.74.21-1.12.16-.87-.13-1.73-.02-2.57.09-1.53.2-3.06.05-4.28.11,1.56.02,3.42-.1,5.29-.16,3.18-.12,6.36-.06,9.54-.03.21,0,.43.01.57.21Z"/>
    <path class="cls-104" d="M38.6,84.71c-.7.21-1.42.1-2.13.09-.59,0-.81.16-.8.79.02,3.4.05,6.81-.02,10.21-.16,8.96-.05,17.92-.07,26.88,0,2.19,0,4.38,0,6.57,0,.17,0,.34,0,.51,0,.18-.05.34-.28.35-.25,0-.33-.15-.34-.36,0-.17,0-.34,0-.51,0-11.56,0-23.11,0-34.67,0-2.23.05-4.47.08-6.7.01-1.01-.16-2.02-.06-3.04.63-.25,1.29-.08,1.93-.11.57-.03,1.13,0,1.7,0Z"/>
    <path class="cls-119" d="M20.27,68.82c.5-.16.99-.16,1.49,0-.5,0-.99,0-1.49,0Z"/>
    <path class="cls-34" d="M198.71,121.99c0-3.51-.02-7.02-.02-10.52,0-11.01,0-22.02,0-33.03,0-.15.01-.29.02-.44.19.2.11.44.11.67,0,1.84,0,3.68,0,5.52,0,.21,0,.41.12.62,0-.94,0-1.88,0-2.81,0-.91.02-1.82,0-2.73-.01-.36.14-.49.46-.51.15,0,.29-.01.44-.01,2.78,0,5.56.01,8.34,0,.58,0,.8.17.76.76-.08,1.26.08,2.53-.12,3.79-.05.33-.13.72.11,1.04,0,9.49.08,18.98-.04,28.47-.07,5.41-.01,10.82-.1,16.22,0,.42-.06.83-.24,1.22.21-4.6.09-9.21.12-13.81,0-.15,0-.3,0-.44-.02-.28-.07-.55-.45-.32-.19.12-.34.08-.39-.12-.06-.25.13-.29.31-.25.48.09.56-.22.53-.56-.09-1.09,0-2.19-.05-3.29-.03-.64-.15-1.3-.03-1.95.07-.35.02-.62-.43-.49-.21.06-.4.04-.45-.19-.06-.25.1-.44.32-.46.25-.02.4-.06.4-.35,0-.3-.2-.29-.4-.36-.51-.17-.74-.79-.54-1.37.07-.2.19-.38.18-.6,0-.39.09-.87-.55-.4-.43.32-.73-.18-1.11-.18,0-.16.09-.19.2-.19.17,0,.39.19.49-.07.1-.27-.18-.28-.32-.37-.08-.05-.1-.14-.06-.22.05-.1.14-.07.22-.02.13.09.24.17.4.08.13-.07.3-.11.29-.29,0-.19-.13-.32-.33-.3-.65.05-.67-.34-.58-.82.02-.12.05-.26.02-.37-.11-.39.05-.47.38-.36.15.05.34.32.42-.04.05-.24.06-.51-.26-.63-.88-.32-.88-.33-.69-1.25-.45.04-.88.16-1.32-.12-.26-.16-.31.26-.5.41-.24-.3-.02-.67-.13-.91-.85.09-1.03-.9-1.74-.97.25.46-.06.71-.48.98-.07-.42-.16-.83-.11-1.16.08-.55-.02-.77-.6-.69.08-.31.26-.12.38-.18.31-.15.54-.28.19-.63-.3-.3-.25-.55.13-.74.11-.05.25-.12.3-.22.07-.14.22-.31.07-.46-.14-.13-.26.03-.38.11-.48.31-1.11,0-1.16-.58-.03-.41.21-.93-.52-1.08-.23-.04-.14-.5-.09-.76.2-1.07-.18-2.12-.07-3.18.07-.67-.46-1.16-.49-1.79,0-.16-.15-.27-.31-.28-.25-.01-.16.2-.16.32,0,.73.01,1.47.04,2.2.02.39.47.44.66.77-.68.28-.71.87-.71,1.47,0,6.11.17,12.22-.07,18.32-.14,3.5-.07,6.98-.18,10.47,0,.19.02.39-.23.45Z"/>
    <path class="cls-30" d="M192.49,68.97c.84-.11,1.7.1,2.54-.12.58-.23,1.18-.2,1.79-.2.4,0,.8,0,1.2,0,3.71.03,7.41-.1,11.11-.05.37,0,.77-.07,1.09.21,2.65.01,5.3.03,7.95.04,2.53,0,5.05,0,7.58,0-.2.18-.44.11-.66.11-1.98,0-3.96,0-5.94,0-1.71,0-3.42,0-5.14,0-5.6,0-11.19-.03-16.79.02-1.57.01-3.15.13-4.73.1-.04-.03-.06-.05-.04-.08.01-.03.03-.04.04-.04Z"/>
    <path class="cls-21" d="M192.49,68.97s0,.08,0,.12c-3.42,0-6.83,0-10.25,0,.14-.12.31-.1.48-.1,3.26,0,6.51,0,9.77,0Z"/>
    <path class="cls-96" d="M9.49,60.96c-2.6,0-5.2,0-7.81,0,.12-.11.27-.1.42-.1,2.32,0,4.65,0,6.97,0,.15,0,.3-.02.42.1Z"/>
    <path class="cls-96" d="M12.27,60.96c-.79,0-1.58,0-2.37,0,.79-.16,1.58-.15,2.37,0Z"/>
    <path class="cls-116" d="M45.9,61.52c.18.06.43.09.47.33.05.24-.2.29-.37.36-.22.1-.48.02-.7.24-.18.19-.22-.1-.24-.2-.06-.32.42-.74.83-.73Z"/>
    <path class="cls-116" d="M46.78,61c-.25.12-.48.21-.69.34-.14.08-.32.01-.33-.17-.02-.18.16-.16.28-.16.25,0,.5,0,.75,0Z"/>
    <path class="cls-51" d="M209.18,199.37c-.28-.42-.15-.9-.15-1.35,0-8.45,0-16.91.02-25.36,0-4.95-.03-9.89.06-14.84.08-4.5.04-9,.06-13.5,0-.25.02-.51.03-.76.22-.11.37-.14.31.2-.24,1.46-.11,2.92,0,4.38.05.58.02,1.21-.18,1.8-.06.19-.08.44-.01.62.46,1.16.14,2.35.12,3.52,0,.4.11.81-.12,1.21-.15.26.09.42.37.4.21,0,.41-.06.62-.08,0,.08,0,.16,0,.24-.55.43-.4,1.03-.39,1.61.02,2.37-.08,4.73-.04,7.1.04,2.22-.06,4.43.03,6.65-.13,5.12-.18,10.24-.16,15.36,0,2.85-.02,5.69,0,8.54.01,1.22.1,2.44-.01,3.67,0,.17-.05.33-.2.44-.12.05-.24.1-.36.16Z"/>
    <path class="cls-7" d="M36.7,199.62c.39.77.95,1.26,1.89,1.14.35-.04.72-.04,1.02.21.12.11.32.2.27.39-.05.2-.25.28-.45.28-.44-.01-.85-.03-.91.59-.02.19-.26.39-.49.25-.22-.15-.56-.24-.54-.62,0-.06.05-.12.07-.17.08-.21.27-.42.01-.62-.1-.08-.25-.05-.35.04-.2.18-.3.4-.15.67.27.49.02,1.04.18,1.55.05,0,.1.02.12,0,.17-.18.15-.58.54-.5.38.07.24.44.34.67.08.19.05.36,0,.55-.05.16.02.3.18.36.19.07.28-.05.29-.22.02-.48.39-.41.65-.34.41.11.07.36.03.54-.07.32.05.69.31.63.57-.12.67.26.88.59.15.24.34.47.56.76.26-.5.64-.72,1.18-.68.06.37-.5.31-.46.67.19.16.39-.01.59,0,.31.03.65-.04.72.42.03.22.21.26.39.19.27-.11.11-.24.01-.39-.11-.16.17-.9.34-.9.27,0,.29.21.2.41-.12.27-.26.52-.02.82.12.15-.02.29-.17.33-.26.07-.54.17-.8.14-1.86-.18-3.71.13-5.57,0-1.27-.09-2.55-.09-3.81-.06-1.7.04-3.41.15-5.1.03-1.28-.09-2.54.16-3.82-.03-.4-.06-.99-.05-1.39.32-2.23-.03-4.46-.03-6.69-.03-2.08,0-4.17,0-6.25.04-.15,0-.3,0-.44,0-.13,0-.29-.02-.3-.17,0-.2.18-.2.33-.2.9,0,1.8.01,2.7,0,3.42,0,6.85-.01,10.27-.02.05,0,.11-.04.17-.11-.45,0-.66-.58-1.16-.46-.12-.53-.65-.65-.96-.98-.17-.18,0-.31.27-.29.41.02.74.04.5-.62-.19-.53-.18-1.15-.42-1.7-.1-.22.06-.5.22-.7.4-.49.2-.8-.32-.89-.45-.08-.59-.28-.42-.67.17-.39.51-.48.89-.31.13.06.25.16.36.25.19.16.2.62.43.55.29-.09.53-.39.74-.65.74-.91,1.76-1.13,2.87-.83.78.21,1.63.14,2.44,0,.12-.02.26-.11.37-.09,1.29.29,2.55-.22,3.84-.11,1.28.11,2.57.03,3.85.03Z"/>
    <path class="cls-7" d="M20.88,206.23s.25-.04.22.21c-.03.3-.32.29-.52.35-.16.05-.3-.05-.27-.24.03-.24.19-.36.57-.33Z"/>
    <path class="cls-7" d="M20.61,202.12c.13.07.25.15.23.32-.01.11-.1.19-.21.17-.17-.03-.24-.15-.22-.31.01-.1.07-.2.2-.18Z"/>
    <path class="cls-125" d="M197.94,68.82c-.97-.03-1.94.2-2.91.04-2.44,0-4.89-.02-7.33-.02-13.4,0-26.81,0-40.21,0-1.52,0-2.85-.55-4.14-1.27-1.22-.69-2.46-1.36-3.71-1.99-1.58-.79-3.16-1.57-4.77-2.27-1.29-.56-2.56-1.17-3.72-1.96-.19-.13-.54-.17-.43-.52.1-.31.42-.21.66-.23,4.25-.28,8.51-.1,12.76-.13,3.94-.03,7.88,0,11.82,0,.46-.09.93-.09,1.39,0,.59,0,1.18,0,1.77,0,.22-.1.46-.05.69-.05,11.18,0,22.36,0,33.53,0,.23,0,.46-.05.68.06.84,0,1.68,0,2.52,0-.02.31-.27.27-.46.31-.18.04-.38.04-.57.04-1.36-.04-2.72.05-4.07.15-1.8.14-3.63-.14-5.4.32-.14.04-.29.03-.44-.02.19.26.4.05.59,0,.41-.08.71.05.88.43.22.5.45.99.25,1.58-.11.32-.21.69.38.78.32.05.37.89.11,1.37-.22.4-.49.32-.78.09-.22-.18-.34-.05-.43.15-.12.25-.27.47-.42.7-.2.32-.5.43-.86.44-.15,0-.32.07-.27.26.06.21.23.12.37.09.11-.02.18-.1.28-.15.62-.33,1.24-.04,1.37.66.08.43-.19.51-.52.51-.52,0-1.03-.09-1.64-.12.28.23.52.16.74.16,5.31,0,10.61,0,15.92,0,.27,0,.55-.02.82.03.18.04.42.07.39.32-.02.24-.26.17-.41.17-1.24,0-2.49,0-3.73,0-.23,0-.46-.04-.69.04Z"/>
    <path class="cls-126" d="M197.94,68.82c.35-.21.74-.09,1.11-.1,1.19-.02,2.39,0,3.69,0-.27-.36-.54-.25-.75-.25-4.65,0-9.31.01-13.96-.02-1,0-2,.03-3,.01-.16,0-.35.05-.45-.14-.07-.15-.02-.29.08-.41.14-.18.31-.2.5-.08.48.28,1.05.01,1.54.23.09.04.27-.02.25-.12-.07-.33-.21-.64-.49-.84-.24-.18-.5-.16-.64.11-.22.42-.61.18-.91.26-.15.04-.11-.18-.16-.29-.15-.39.1-.66.4-.59.93.22.95-.59,1.26-1.05.11-.16.09-.43.34-.48.28-.05.33.2.44.37.04.07.11.14.18.17.11.06.24-.02.25-.11.05-.41.21-.82.12-1.23-.04-.16-.25-.11-.38-.02-.45.3-.47.02-.37-.3.11-.38.16-.8.2-1.17.04-.4-.28-.84-.48-1.25-.05-.11-.29-.2-.39-.09-.49.53-.86-.08-1.28-.11-.06,0-.15-.12-.15-.17.02-.16.16-.17.29-.17,1.91-.03,3.83-.27,5.73-.21,1.27.04,2.51-.34,3.8-.11.55.1,1.24.04,1.84-.2,5.93,0,11.86,0,17.8,0-1.44.15-2.85.36-4.27.64.32.18.5.49.86.61-.45.13-.51.66-.94.8-.23.08-.07.24.03.34.13.12.29.22.41,0,.09-.17.04-.51.35-.41.32.11.12.39.08.6-.07.4.39.7.24,1.13-.23-.08-.03-.46-.34-.45-.37.93-.05,1.84.05,2.75.12.04.2-.03.26-.13.21-.39.55-.38.87-.24.4.18.29.49.13.8-.12.23-.11.45.12.62.21.15.18.3.06.48-.24.37-.01.43.3.44.75,0,1.5-.05,2.25-.01,1.28.06,2.57.01,3.85.02.19,0,.42-.08.62.13-.21.18-.44.11-.65.11-2.57,0-5.14,0-7.7,0-.23,0-.47-.07-.67.09-2.87,0-5.75.02-8.62.02-1.22,0-2.43-.01-3.65-.02Z"/>
    <path class="cls-126" d="M194.01,60.47c-11.63,0-23.27,0-34.9,0,.27-.2.59-.06.89-.11,8.52,0,17.04,0,25.56,0,2.82,0,5.64.01,8.46.02,0,.04,0,.07,0,.11Z"/>
    <path class="cls-126" d="M211.58,65.23c0,.13-.01.24-.16.2-.18-.05-.36-.15-.38-.35-.01-.14.08-.31.26-.27.21.05.24.25.28.41Z"/>
    <path class="cls-38" d="M21.38,140.67c0,.16-.06.3-.24.29-.15,0-.28-.12-.29-.27-.01-.15.07-.29.24-.29.16,0,.26.11.29.27Z"/>
    <path class="cls-81" d="M21.63,138.65c.32-.03.51-.05.83-.09-.29.23-.45.39-.83.09Z"/>
    <path class="cls-123" d="M209.68,171.21c0-3.14,0-6.28,0-9.41,0-1.73.03-3.45.02-5.18,0-.47.15-.72.61-.76,1.89,0,3.78.01,5.67-.03.61-.01.85.11.82.79-.05,1.51,0,3.03,0,4.55.27.33.2.72.2,1.1,0,4.82.01,9.64,0,14.46,0,1.02.18,2.02.13,3.04-.17,3.34-.02,6.68-.15,10.01-.11,2.75-.04,5.49-.09,8.24,0,.26-.06.54.14.82.2-.31.13-.61.13-.89,0-4.5,0-9.01,0-13.51,0-2.07.19-4.14.13-6.21-.08-2.55.06-5.11-.02-7.66-.07-2.36,0-4.73-.02-7.09-.01-1.47-.16-2.95,0-4.43.08-.73-.14-1.47-.1-2.21.05-.97.21-1.15,1.18-1.08.44.03.88.04,1.32.07,1.7,0,3.41.03,5.11,0,.58-.01.74.17.74.75-.03,13.62-.04,27.24-.04,40.85,0,.6-.11,1.22.16,1.81-.32-.25-.65,0-.97,0-1.74-.03-3.48.13-5.21-.09-.53-.07-1.06,0-1.6.16-.63.18-1.32.02-1.98-.06-1.67.02-3.33.02-5,.07-.19,0-.38-.04-.56.05-.27.02-.55.03-.79-.13,0-.12.02-.24.03-.36.43-.97.38-1.97.2-2.98-.05-.27-.08-.54-.08-.81,0-1.94,0-3.89,0-5.83,0-3.03,0-6.06,0-9.09,0-.4-.03-.8.28-1.13.16-.18.12-.44.12-.67,0-2.81,0-5.62,0-8.43,0-.35-.11-.68-.15-.92.15.47.13,1.06.09,1.65-.02.23.01.53-.35.57Z"/>
    <path class="cls-118" d="M210.33,199.35c.28-.22.62-.13.91-.11.89.06,1.77-.14,2.67-.08.64.05,1.31-.01,1.97.07-.15.17-.35.12-.53.12-1.67,0-3.35,0-5.02,0Z"/>
    <path class="cls-56" d="M219.66,155.81c-.55.01-1.1.05-1.64.03-.44-.02-.6.13-.59.58.03,1.25,0,2.49.02,3.74.04,5.28.04,10.56,0,15.84-.04,7.52-.02,15.05-.03,22.57,0,.23.15.55-.22.64-.43.11-.59-.07-.58-.53.07-2.94.04-5.87.1-8.81.18-8.07.06-16.15.04-24.22,0-1.5.02-3,.03-4.5.18-.6.06-1.21.08-1.81.02-1.01.03-2.02,0-3.03-.01-.43.16-.59.55-.66.76-.14,1.49.07,2.23.16Z"/>
    <path class="cls-116" d="M165.06,61h.24c-.29.65-.67.69-1.26.13,0,0-.01-.01-.01-.01.32-.24.68-.06,1.02-.12Z"/>
    <path class="cls-124" d="M97.25,60.48c-.16.12-.31.25-.47.37-.16.36-.53.41-.83.52-2.16.79-4.28,1.65-6.34,2.68-2.68,1.34-5.3,2.78-7.76,4.5-.26.18-.5.49-.89.31-.5.12-1,0-1.49-.04-3.32-.33-6.64-.2-9.96-.22-3.47-.02-6.95,0-10.42,0-3.62,0-7.24-.08-10.86.03-1.62.05-3.23.05-4.85.09-.2,0-.42.06-.62-.06.09-.26.31-.18.48-.18,1.62-.01,3.26.17,4.84-.17,1.24-.27,2.5.14,3.72-.32-.31,0-.57-.14-.82-.29-.1-.06-.18-.22-.31-.08-.22.23-.42.18-.59-.02-.18-.21-.33-.48-.14-.75.27-.37,0-.58-.2-.82-.04-.05-.1-.08-.15-.11-.22-.14-.49.49-.48.12,0-.48-.24-1.05.19-1.5.22-.23.33-.6.79-.42.15.06.25-.13.26-.29,0-.14-.05-.25-.2-.27-.29-.04-.61-.16-.86-.07-.31.12-.38,0-.43-.22-.05-.24.04-.48.3-.46.5.04.86-.16,1.23-.44.1-.07.23-.09.21-.24-.02-.18-.22-.1-.24-.12-.27-.28-.64-.3-.95-.45-.4-.2-.07-.37.23-.51-.82-.1-1.57-.26-2.31-.35-.64-.08-1.33.05-2,.06-.25,0-.52.04-.66-.25,1.79,0,3.58.04,5.37-.02,3.07-.11,6.14-.07,9.21-.12,11.52-.2,23.03-.09,34.55-.09,1.15,0,2.3.16,3.46.24Z"/>
    <path class="cls-34" d="M206.81,109.15q.78.36.5,1.67c-.33-.57.03-1.24-.5-1.67Z"/>
    <path class="cls-34" d="M200.76,99.17c0-.22.2-.24.33-.34.15-.12.31-.23.51-.13.09.05.08.14.05.22-.09.21-.25.36-.48.32-.13-.02-.29.08-.4-.07Z"/>
    <path class="cls-34" d="M202.03,102.13c.23.17.44.3.61.47.13.12.15.32-.01.43-.14.1-.29,0-.36-.14-.11-.23-.32-.43-.24-.77Z"/>
    <path class="cls-34" d="M204.6,101.39c.04-.19.18-.21.29-.26.18-.07.35-.29.56-.1.04.04.04.17,0,.23-.14.2-.33.32-.59.23-.09-.03-.18-.07-.27-.11Z"/>
    <path class="cls-34" d="M205.62,102.38c-.01.21-.13.3-.32.32-.13,0-.27-.03-.26-.19.02-.21.14-.36.35-.37.15-.01.21.11.23.25Z"/>
    <path class="cls-34" d="M207.2,106.1c.03.2-.09.32-.26.35-.13.02-.16-.11-.15-.21.01-.17.04-.36.22-.4.18-.04.13.17.19.26Z"/>
    <path class="cls-34" d="M207.88,113.2c-.13-.06-.28-.13-.24-.31.03-.14.17-.15.3-.15.15,0,.23.09.2.24-.02.13-.11.21-.26.21Z"/>
    <path class="cls-34" d="M205.62,105.8c-.02.17-.13.2-.27.19-.11-.01-.19-.08-.18-.2.01-.14.09-.24.23-.23.15,0,.2.12.22.25Z"/>
    <path class="cls-34" d="M205.3,103.61c0,.19-.12.22-.25.23-.13.01-.26-.01-.27-.18,0-.15.12-.21.24-.24.15-.03.21.09.28.18Z"/>
    <path class="cls-34" d="M202.76,99.89c-.11-.02-.21-.08-.21-.19,0-.14.12-.15.23-.14.11.01.2.08.17.21-.02.1-.1.13-.19.12Z"/>
    <path class="cls-34" d="M201.18,96.73c-.12,0-.19-.06-.19-.18,0-.09.07-.15.16-.15.11,0,.21.03.23.15.01.12-.08.17-.19.18Z"/>
    <path class="cls-34" d="M207.67,111.01c.05-.33.21-.38.44-.39,0,.3-.18.33-.44.39Z"/>
    <path class="cls-31" d="M30.5,185.79c0,4.18-.01,8.36.01,12.54,0,.59-.14.79-.76.79-3.37-.03-6.74-.02-10.1-.03.32-.49-.03-.97-.02-1.46.01-3.8-.01-7.61.02-11.41,0-.57-.3-1.04-.27-1.59.55-9.1.1-18.22.24-27.33,0-.45.15-.56.59-.58,1.27-.06,2.55,0,3.77.19,1.31.21,2.57.2,3.87.08.64-.06,1.27.19,1.94.04.46-.1.74.19.74.8-.02,9.32-.01,18.64-.01,27.96Z"/>
    <path class="cls-31" d="M17.87,256.53c0,3.11-.01,6.22.01,9.33,0,.44-.14.59-.76.59-3.37-.03-6.74-.02-10.1-.02.32-.36-.03-.72-.02-1.08.01-2.83-.01-5.66.02-8.49,0-.42-.3-.77-.27-1.18.55-6.78.1-13.56.24-20.34,0-.33.15-.41.59-.43,1.27-.04,2.55,0,3.77.14,1.31.16,2.57.15,3.87.06.64-.05,1.27.14,1.94.03.46-.08.74.14.74.59-.02,6.93-.01,13.87-.01,20.8Z"/>
    <path class="cls-93" d="M91.18,207.5c-.2.18-.44.1-.67.1-2.29.02-4.59.03-6.88.04-.14,0-.27-.02-.41-.02.05-.03.11-.08.16-.08,2.6-.04,5.19-.12,7.79-.04Z"/>
    <path class="cls-93" d="M100.67,207.48c-.41.26-.86.12-1.28.11-.66-.02-1.34.15-1.99-.1,1.09-.08,2.18-.07,3.28-.01Z"/>
    <path class="cls-93" d="M92.35,207.49h1.73c-.87.04-1.74.26-2.6,0,.29-.07.58-.06.88,0Z"/>
    <path class="cls-94" d="M27.5,69.36c.27.17.53.39.58.77.02.14-.12.28-.22.2-.26-.21-.52-.46-.7-.74-.08-.12.14-.21.34-.23Z"/>
    <path class="cls-4" d="M201.19,207.88c-3.62-.01-7.24-.03-10.87-.04-.59-.09-1.18-.04-1.76-.04-2.97,0-5.94.02-8.91,0-15.62-.13-31.25-.02-46.87-.06-.35,0-.72-.07-1.05.12-.15.1-.3.11-.46.01-.27-.16-.56.07-.84-.04-.03-.17-.16-.15-.29-.16-.73-.07-.74-.09-.72-.85.01-.42.05-.83.17-1.24.1-.33.23-.69-.19-.95-.18-.11-.14-.34-.08-.53.4-1.35.73-2.71.63-4.14-.01-.19.04-.38.19-.52.29-.19.61-.13.92-.13,4.27-.01,8.54,0,12.81,0,.42,0,.84.04,1.26-.04.44-.28.17-.72.24-1.08.04-.23-.06-.45-.1-.67,0-.51-.09-1.02.07-1.52.16-.31.44-.36.75-.36,3.17,0,6.33,0,9.5,0,.21,0,.42.01.59.17,3.18.02,6.36.04,9.54.05,2.32,0,4.64,0,6.95-.04.5,0,.61.16.59.61-.03.8.01,1.61-.02,2.41-.02.48.1.72.63.65.29-.04.59,0,.88,0,2.07-.07,4.14-.1,6.21.01-.42.42-.63,1.08-1.33,1.19-.2.03-.33.19-.31.42.05.5-.19.75-.67.8-.18.02-.33.06-.34.28-.01.24.1.35.33.35.21,0,.36.11.48.27.06.08.12.21.24.1.55-.53.54-.05.6.32.05.33.29.56.45.83.15.24.34.3.56.06.17-.19.37-.4.65-.26.32.15.25.47.19.73-.09.42.22.61.45.84.25.26.48.47.13.84-.21.23.07.81.38.78.89-.06,1.78.11,2.69-.02.7-.1,1.46,0,2.18.09,1.72.22,3.45.05,5.17.11.36.01.7.04,1.05.17.51.19,1.04.19,1.6.11,1.02-.15,2.06-.06,3.08.12.95.16,1.87-.09,2.81-.05.19,0,.5-.2.53.07.05.36-.33.17-.52.23-.06.02-.13.01-.19.02Z"/>
    <path class="cls-13" d="M187.16,199.25c-.12.11-.22.28-.42.22-1.03-.27-2.07-.07-3.1-.1-.6-.02-1.19-.17-1.8-.02-.41.1-.61-.12-.6-.57.02-.85,0-1.71-.12-2.56,0,.46,0,.92,0,1.37-.16-.21-.09-.45-.09-.67-.02-7.18-.05-14.36-.06-21.54,0-6.16.02-12.33.04-18.49,0-.98.02-1,.98-1.01,1.52-.02,3.03-.02,4.55-.03.86,0,.86,0,.78.89-.12.22-.06.46-.06.68,0,13.76,0,27.52,0,41.28,0,.18.08.38-.08.54Z"/>
    <path class="cls-120" d="M187.16,199.25c0-.87.02-1.73.02-2.6,0-13.04,0-26.08,0-39.12,0-.26-.1-.55.12-.79,0,3.21,0,6.42,0,9.63,0,10.1.01,20.19.02,30.29,0,.76,0,1.52,0,2.28.19.15.48.07.65.27.19-.17.11-.39.11-.59,0-13.93-.01-27.85-.02-41.78,0-.99,0-1,1-.99,1.31,0,2.61.03,3.92.02.45,0,.65.12.64.6-.08,4.77-.15,9.55-.2,14.32-.04,4.29-.05,8.58-.04,12.87,0,3.53.1,7.06.07,10.58-.01,1.6.1,3.21-.05,4.81-.01.14.06.28.09.43-1.54-.2-3.09-.15-4.63-.06-.58.03-1.16.11-1.71-.16Z"/>
    <path class="cls-8" d="M152.02,189.11c1.44.15,2.9.1,4.34.11,5.4.04,10.81.07,16.21.08.57,0,.76.14.74.73-.05,1.48-.02,2.95-.03,4.43,0,.24.07.51-.15.71-.49.4-1.07.18-1.61.23-.22.02-.45,0-.68-.05-.27-.06-.53-.12-.81-.12-5.98,0-11.96,0-17.94,0-.08,0-.17,0-.25.02-.32.05-.65.04-.98,0-1.45-.06-2.91-.03-4.36-.01-.25.04-.5,0-.74-.1-.32-.17-.41-.47-.41-.8-.03-1.57-.03-3.15,0-4.72,0-.21.04-.42.19-.59.25-.2.55-.2.84-.2,1.59,0,3.18,0,4.77,0,.31,0,.64-.03.87.26Z"/>
    <path class="cls-3" d="M145.47,179.61c.57-.71.98-1.54,1.63-2.19.55-.42,1.18-.23,1.77-.2,2.48.14,4.96.15,7.44,0,.25-.02.5-.03.76-.03,4.91,0,9.81,0,14.72,0,.52,0,1.03.02,1.45.39,0,1.5-.01,3,.02,4.5,0,.46-.13.54-.57.54-8.6-.02-17.19-.03-25.79-.04-.19,0-.38.03-.56.05-.21.21-.44.18-.68.06-.67-.99-.55-2.03-.19-3.08Z"/>
    <path class="cls-83" d="M156.32,142.05c-.2-.99-.41-1.98-.6-2.97-.05-.24-.06-.48-.39-.46,0-.44,0-.88,0-1.32,0-.15.03-.3.23-.31.01.08.02.15.03.23,0,.43.06.67.62.69,2.17.09,4.33,0,6.5.02,2.1.01,4.21.03,6.31.04,2.38.01,4.76.01,7.14.02.23,0,.47-.06.67.11-3.7,0-7.41,0-11.19,0,.28.35.58.21.85.22,3.43.1,6.87-.03,10.3.07.82.02,1.63-.03,2.44-.04.81,0,1.58.07,2.35.36.44.16.4.26.13.52-.37.36-.42.71.08,1,.13.08.21.32.41.18.14-.1.19-.28.17-.45-.02-.22-.23-.49.03-.64.38-.22.69-.51,1.01-.81.04-.04.17-.02.24.02.13.07.07.18.03.28-.07.15-.14.31-.22.5.09,0,.15.01.2,0,.23-.07.49-.34.68-.06.17.26.17.65-.11.87-.44.35-.52.8-.44,1.3.06.37-.06.4-.36.28-.15-.06-.38-.12-.44.08-.07.23.17.24.33.27.28.06.52.18.64.45.07.15.41.19.22.44-.11.15-.29.21-.51.19-1.61-.15-3.21-.07-4.81.16-.2.03-.37-.04-.54-.12-.38-.16-.76-.14-1.16,0-.44.15-.91.24-1.36,0-.09-.05-.2-.09-.29-.07-2.02.3-4.05.26-6.08.14-.33-.02-.66.07-1,.08-1.93.02-3.86-.15-5.79-.13-1.98.02-3.95.03-5.93.15-.27-.38-.1-.89-.36-1.27Z"/>
    <path class="cls-11" d="M173.12,183.24c.19.13.15.34.15.52,0,1.37,0,2.75.02,4.12,0,.41-.15.48-.52.48-1.89-.02-3.79-.01-5.68-.01-.24.23-.54.21-.83.21-6.62,0-13.23,0-19.85,0-.27,0-.55,0-.8-.16-.22-.18-.24-.44-.25-.69-.03-1.11,0-2.23-.05-3.34-.02-.41-.01-.85.34-1.17.15-.09.31-.11.48-.1.33.07.66.09,1,.09,7.77,0,15.54,0,23.32,0,.34,0,.67-.01,1-.11.56-.03,1.14-.22,1.67.16Z"/>
    <path class="cls-43" d="M173.25,177.57c-.2-.17-.43-.13-.66-.13-5.31,0-10.61-.03-15.92.04-2.29.03-4.59.04-6.88.05-.9,0-1.8-.07-2.69-.11.32-.59.73-1.12,1.14-1.65.44-.13.87,0,1.29.05.78.1,1.54.12,2.32,0,.23-.04.46-.04.69-.04,2.99,0,5.98,0,8.96,0,1.74,0,3.48-.07,5.22.02,1.43.07,2.85.1,4.28.09.46,0,.92-.09,1.38-.1.33,0,.72.02.83.42.09.32.19.67-.19.97-.19.15.37.13.23.4Z"/>
    <path class="cls-61" d="M187.97,199.22c-.24-.03-.63.29-.65-.27.22-.18.12-.44.12-.65,0-13.13,0-26.25,0-39.38,0-.82.01-1.65.02-2.47,0-.11,0-.21.01-.32.03-.2.1-.39.35-.36.29.03.13.26.13.4,0,3.91-.02,7.82-.02,11.73,0,10.21,0,20.42.02,30.63,0,.23.01.46.02.7Z"/>
    <path class="cls-70" d="M145.6,188.32c7.16.01,14.32.02,21.48.03.73.17,1.46.07,2.2.09,1.16.03,2.32.03,3.48.05.2,0,.47-.04.48.27,0,.33-.26.33-.5.33-.78,0-1.56,0-2.34,0-5.88,0-11.75-.02-17.63-.02-.25,0-.5.02-.75.04-2.15-.01-4.29-.02-6.44-.03-.36.14-.38-.12-.37-.34.01-.22-.02-.55.39-.42Z"/>
    <path class="cls-67" d="M170.88,195.16c.75,0,1.49.01,2.24.02.39.55-.02.5-.37.5-5.18,0-10.37,0-15.55.01-.34,0-.67.01-1.01.02-.9.09-1.8.03-2.7.03-2.58,0-5.17,0-7.75,0-.35,0-.44-.25-.51-.52.02-.58.37-.2.59-.2.22.01.44.02.65.03,1.46.09,2.93.1,4.39,0,.31,0,.61,0,.92,0,.22.1.46.05.68.05,5.91,0,11.82,0,17.72,0,.23,0,.46-.04.69.04Z"/>
    <path class="cls-66" d="M146.06,183.27c-.11,0-.22,0-.33,0-.27.07-.37-.13-.45-.33-.06-.14-.09-.3.04-.41.14-.13.26.04.39.09.21,0,.42,0,.64.01.29.19.61.1.92.1,8.37,0,16.74,0,25.12,0,.19,0,.38,0,.57.03.34.05.37.23.17.48-.54.01-1.07.02-1.61.03-.18.07-.38.04-.56.04-8.11,0-16.22,0-24.32,0-.19,0-.38.03-.56-.04Z"/>
    <path class="cls-58" d="M145.59,195.67c3.53.01,7.07.03,10.6.04,0,.03,0,.06,0,.09-2.74,0-5.48.01-8.22.01-.63,0-1.26,0-1.9-.01-.26,0-.51,0-.61.31-.14-.2-.21-.37.12-.44Z"/>
    <path class="cls-13" d="M180.98,199.49c-2.07,0-4.14,0-6.21-.01.75-.18,1.5-.06,2.26-.08,1.12-.03,2.23-.03,3.35-.03.28,0,.55-.02.73-.28.01.15.01.29-.12.39Z"/>
    <path class="cls-91" d="M194.77,101.19c.02.35,0,.66-.38.85-.27.13-.4.36-.2.68.12.19.02.36-.13.5-.17.16-.3.06-.44-.06-.11-.1-.23-.24-.37-.05-.13.18-.34.34-.2.62.08.17.19.29.39.24.26-.06.5-.16.78.02.23.14.29-.12.29-.27-.01-.41.21-.76.26-1.16.04-.39.33-.54.69-.46.46.1.21.43.14.66-.06.22-.21.42-.28.63-.19.54-.03.78.53.85.56.07.87.66.52,1.09-.32.4-.33.77-.04,1.14.34.45.08,1.03.41,1.5.12.17-.31.32-.34.62-.04.57,0,1.13.02,1.69,0,.17.04.42.26.32.79-.34.61.44.86.72.02.02.02.08,0,.12-.27,1.14.25,2.26.1,3.37-.14,1-.08,1.93.14,2.9.13.58-.13,1.18-.18,1.77-.05.55.15,1.01.17,1.51.07,1.22-.13,2.47.19,3.7.35-.1-.02-.55.44-.59-.02.5.24,1-.27,1.47-.42.39-.09,1.02-.29,1.51-.01.03.06.11.11.14.1.05.15-.03.19-.1.08-.14-.02-.35.26-.46,0,.59.15,1.14-.13,1.71-.12.24-.33.55,0,.86.19.18-.05.3-.19.34-.22.06-.45.06-.67.08-.06.3.29.14.3.44h-7.51v-.18h6.64c-.29-.38-.53-.29-.73-.29-2.06,0-4.13-.02-6.19,0-.55,0-.82-.08-.86-.74-.07-.91.05-1.82-.04-2.69-.12-1.18.11-2.33,0-3.52-.18-1.92-.05-3.87-.05-5.8,0-.02,0-.05,0-.06.97-.89.07-1.85.1-2.78.03-.74-.15-1.5.09-2.23.09-.28.07-.59,0-.88-.03-.13-.09-.3,0-.36.47-.27.3-.93.77-1.19.1-.06.13-.16.08-.27-.09-.21-.31-.05-.49-.18.28-.26.59-.49.72-.88.14-.44.12-.74-.42-.78.24-.39.46-.74.67-1.09.02-.04.07-.09.05-.11-.28-.61-.31-1.07.55-1.18.17-.02.06-.26-.5-.5.27-.18.59-.29.63-.65.03-.3.21-.17.36-.08.15.1.33.15.45-.01.11-.14-.03-.27-.11-.39-.46-.68-.46-.68.36-.92.1-.03.2-.08.26-.16.28-.31.49-.25.7.07.08.12.1.38.34.26.18-.09.17-.29.14-.45-.06-.4-.22-.74-.71-.72-.26,0-.51-.06-.69-.25-.18-.18-.27-.49,0-.58.52-.17.57-.71.92-1,.19-.16.23-.46-.22-.36-.29.06-.33-.08-.32-.36.02-1.31.11-1.36,1.32-.74.31.16.59.29.32.7-.16.24-.02.44.08.65.12.28.15.55-.23.65-.27.07-.71,0-.66.41.05.37.43.59.78.73.13.05.29.02.44.02h0Z"/>
    <path class="cls-76" d="M188.04,77.85c.04-.9.52-.34.85-.25.06,2.89.07,5.79-.04,8.68-.07,1.73-.03,3.47-.04,5.2-.03,4.22-.09,8.45-.09,12.67,0,1.43.11,2.87.07,4.31-.2,7.18-.05,14.37-.11,21.55,0,.15-.03.29-.05.44-.22,0-.44-.01-.65-.02-.22-.32-.16-.69-.16-1.05,0-2.75.05-5.5-.01-8.24-.26-12.47-.07-24.93-.09-37.4,0-1.74-.06-3.5.09-5.24.02-.23.04-.47.23-.64Z"/>
    <path class="cls-91" d="M194.77,101.19c-.01-.22.05-.42.25-.54.19-.12.4-.13.59-.02.15.08.19.23.14.38-.08.25-.3.17-.48.18-.17.01-.33,0-.5,0h0Z"/>
    <path class="cls-91" d="M190.96,102.74c-.02.23-.14.42-.37.42-.2,0-.37-.17-.32-.37.05-.2.09-.51.35-.52.23,0,.26.28.33.46Z"/>
    <path class="cls-91" d="M196.03,99.05c.01.36-.19.55-.49.65-.15.05-.27-.07-.22-.2.12-.28.25-.59.47-.77.13-.11.22.17.24.32Z"/>
    <path class="cls-91" d="M190.84,101.71c-.01.13-.03.29-.23.28-.16-.01-.26-.12-.26-.29,0-.11-.05-.28.14-.27.16,0,.34.05.34.29Z"/>
    <path class="cls-91" d="M193.69,95.33c.5.3.13.49-.05.8-.1-.33.15-.55.05-.8Z"/>
    <path class="cls-91" d="M189.43,107.1c0,.15-.01.25-.14.26-.17,0-.2-.12-.2-.25,0-.12-.02-.29.15-.26.08.01.14.18.19.25Z"/>
    <path class="cls-91" d="M197.28,105.43c-.02.14-.07.25-.18.23-.14-.02-.17-.15-.17-.28,0-.11.04-.22.17-.19.13.03.18.14.19.24Z"/>
    <path class="cls-91" d="M192.85,96.42c-.02.31-.06.52-.3.62-.02,0-.09-.03-.09-.06-.02-.25.11-.42.39-.56Z"/>
    <path class="cls-91" d="M189.1,102.93v-.93s.04,0,.05,0v.91s-.04.01-.05.02Z"/>
    <path class="cls-87" d="M188.04,77.85c-.19,13.43-.08,26.86-.06,40.29,0,3.72.05,7.43.06,11.15,0,.38-.03.76-.05,1.13-.71.13-1.43.06-2.14.06-2.78.01-5.56,0-8.34,0-.19,0-.38.04-.55-.09-.23-1.16-.35-2.34-.23-3.52.05-.53.08-1.05.08-1.58,0-6.32-.08-12.64.02-18.95.1-5.89.15-11.78.07-17.67-.04-3.31-.08-6.63-.1-9.94,0-.38-.04-.76.14-1.12.18-.28.47-.33.77-.35.33-.02.67-.02,1.01-.01,1.97.07,3.94-.18,5.91-.1,1.05.04,2.12.06,3.16.23.08.16.16.32.24.48Z"/>
    <path class="cls-88" d="M158.62,95.74s6.26-.11,6.57-.11c1.6,0,3.2,0,4.8,0,1.78,0,3.56-.14,5.35-.11.49,0,.94.04,1.12.6.07.2.08.41.08.63-.06,3.21.26,6.41.12,9.62-.07,1.52.09,3.03-.07,4.55-.13,1.23.11,2.48.1,3.73-.03,4.62,0,9.24-.01,13.87,0,.65.03,1.31-.29,1.92-5.97,0-11.95-.02-17.92-.02-.33,0,.16-34.65.16-34.65Z"/>
    <path class="cls-27" d="M176.38,130.41c-.17-.53.05-1.04.04-1.57-.02-5.26,0-10.52-.01-15.78,0-3.67.04-7.34-.02-11.01-.03-1.98-.04-3.97-.07-5.95-.17-.42-.23-.84-.15-1.29.06-.35.03-.72.03-1.08,0-4.96,0-9.93,0-14.89,0-.4-.04-.8.12-1.19.09-.18.21-.33.41-.36.25-.04.49-.03.35.35,0,2.54-.04,5.07.02,7.61.14,5.49.14,10.99.06,16.48-.11,8.13-.05,16.26-.13,24.38-.01,1.22-.04,2.44.02,3.67,0,.21.06.42-.07.62-.2,0-.4.02-.59.02Z"/>
    <path class="cls-99" d="M155.68,134.64c-.25-.62-.2-1.26-.11-1.89.1-.72.25-1.43.38-2.14.14.32.01.68.13,1-.1.74-.18,1.49-.32,2.22-.05.27-.07.53-.06.8Z"/>
    <path class="cls-50" d="M156.07,131.61c-.27-.31-.02-.67-.13-1,.04-.38-.05-.78.12-1.16.14.63-.11,1.29.11,1.92-.04.08-.07.16-.11.24Z"/>
    <path class="cls-119" d="M32.07,65.93c.09.37-.04.67-.26.94-.06.07-.19,0-.2-.07-.03-.37.32-.56.46-.86Z"/>
    <path class="cls-119" d="M34.14,62.97c-.02.16-.12.26-.29.27-.14,0-.26-.07-.26-.21-.01-.19.13-.25.29-.26.14,0,.25.03.26.21Z"/>
    <path class="cls-21" d="M179.7,69.08c.51-.14,1.03-.16,1.54,0-.51,0-1.03,0-1.54,0Z"/>
    <path class="cls-126" d="M157.34,60.47c-.46,0-.93,0-1.39,0,.46-.18.93-.18,1.39,0Z"/>
    <path class="cls-118" d="M209.68,171.21c.29-.45.1-.94.13-1.41.03-.48,0-.97,0-1.49.44.76.53,1.54.52,2.37-.03,2.6-.01,5.2-.01,7.8,0,.35.09.73-.37.9-.19.07-.13.29-.13.46,0,2.41,0,4.82,0,7.22,0,.19,0,.38.14.53.16.17.18.44.09.6-.41.74-.2,1.53-.22,2.29-.03,1.29.02,2.58-.02,3.87-.02.93.35,1.8.36,2.69,0,.61.08,1.38-.6,1.82,0-4.79.01-9.58.02-14.36.01-4.3.03-8.6.05-12.91,0-.13.02-.25.03-.38Z"/>
    <path class="cls-16" d="M36.91,205.99c.15-.18.25-.44.53-.33.1.04.16.17.11.26-.17.29-.41.12-.64.07Z"/>
    <path class="cls-86" d="M167.55,58.39s-.04.11-.08.12c-.3.08-.51-.13-.73-.26-.21-.12-.2-.35-.14-.56.01-.05.08-.1.14-.11.17-.04.83.59.82.8Z"/>
    <path class="cls-118" d="M213.56,155.98c.82,0,1.64,0,2.47,0,.3,0,.39.07.47.4.31,1.45.34,2.96.08,4.34-.28,1.44.31,2.77.1,4.16-.06.42-.15.79-.43,1.08-.2.21-.45.41-.78.19-.08-.06-.19-.14-.27-.02-.08.12-.04.23.04.35.66.98.96,2.08,1.04,3.24.02.29.05.6-.45.54-.38-.04-.35.36-.28.56.17.47.15,1,.52,1.39.3.32.13.88.55,1.16.02.01.02.1,0,.12-.66.64-.22,1.42-.29,2.13-.04.43,0,.89-.69.68-.28-.09-.49.09-.49.42,0,.31-.1.46-.4.63-.47.26-.92.61-.64,1.31.12.3,0,.62-.4.64-.37.01-.34-.31-.34-.56,0-.57.13-1.19-.76-1.23-.26-.01-.25-.3-.25-.51,0-.36.09-.74-.38-.96-.22-.11-.19-.45.06-.57.44-.21.38-.54.21-.83-.24-.41-.11-.82-.14-1.24,0-.13.02-.29.17-.3.17-.02.24.14.31.27.11.23-.14.68.21.71.38.03.26-.44.37-.7.03-.07.11-.12.17-.18.24-.19.39-.41.2-.71-.19-.3-.48-.31-.78-.19-.23.09-.47.26-.72.17-.68-.25-.62.24-.53.59.11.47.05.97.3,1.41.11.21.13.5-.04.72-.1.13-.27.07-.41.01-.31-.13-.26-.4-.25-.65.01-.51-.03-1-.2-1.49-.13-.38-.14-.8.23-1.1.12-.1.23-.21.12-.37-.31-.46-.06-1.05-.38-1.51-.1-.14-.02-.34.19-.39.4-.08.61-.55,1.06-.52.02,0,.05,0,.06-.02.05-.06.16-.14.15-.18-.25-.76.99-.96.66-1.76-.11-.25-.17-.26-.4-.12-.57.35-.74.89-.72,1.5.01.44-.25.46-.56.49-.35.04-.46-.18-.46-.46,0-.56-.01-1.09-.44-1.53-.1-.11-.07-.36-.07-.55,0-1.33,0-2.66,0-4,0-.34.02-.63-.34-.87-.35-.23-.22-1.09.17-1.29.18-.1.17-.22.17-.36,0-.87,0-1.73,0-2.6,0-.1-.01-.21-.05-.31-.28-.76-.07-1.1.76-1.12.84-.02,1.69,0,2.53,0Z"/>
    <path class="cls-118" d="M210.52,181.33c.08.7.31,1.39.09,2.11-.04.11-.15.24-.02.35.14.12.2-.06.3-.1.34-.12.68-.27,1.03-.29.54-.03.51.5.58.83.07.37-.25.42-.54.42-.14,0-.29-.05-.43-.08-.38-.08-.68-.05-.7.45,0,.18-.06.35-.27.36-.25.01-.23-.2-.23-.36,0-1.22,0-2.43,0-3.65.07,0,.13-.02.2-.03Z"/>
    <path class="cls-118" d="M211.96,181.4c.05-.37.1-.66.14-.95.03-.19.11-.34.31-.34.22,0,.42.1.44.36.02.21.05.43-.06.62-.31.53.01.7.44.75.37.04.69.04.35.53-.05.07-.06.2-.04.3.03.16.16.35,0,.47-.19.15-.41-.07-.48-.17-.41-.52-1.13-.85-1.09-1.58Z"/>
    <path class="cls-118" d="M211.85,179.85c-.41.62-.22,1.4-.28,2.15,0,.11-.07.2-.19.22-.14.02-.25-.03-.29-.18-.23-.83-.17-1.67-.08-2.51.02-.21.25-.36.49-.31.28.06.31.31.35.63Z"/>
    <path class="cls-118" d="M211.46,188.26c-.19.16-.11.34-.13.5-.02.17-.01.38-.24.37-.2,0-.24-.22-.25-.38-.02-.32-.03-.63,0-.95.02-.32.07-.68.5-.26.07.06.14.11.22.04.64-.57.5.05.54.36.03.25.02.5.1.75.07.22.03.45-.24.49-.28.04-.34-.18-.36-.41-.01-.16.05-.34-.12-.51Z"/>
    <path class="cls-118" d="M211.57,185.24c.61-.13.64.27.65.7.01.49-.15.7-.7.67-.58-.02-.55-.36-.57-.75-.01-.44.05-.78.62-.63Z"/>
    <path class="cls-118" d="M209.87,162.13c.28,1.05.21,2.02.18,2.98-.06,0-.12,0-.18,0v-2.99Z"/>
    <path class="cls-118" d="M216.46,198.29c.18-.53-.34-1.56,0-2.57v2.57Z"/>
    <path class="cls-118" d="M215.5,187.98c.35.24.58.42.82.58.14.09.23.21.16.37-.1.24-.23.04-.35,0-.42-.13-.55-.46-.64-.94Z"/>
    <path class="cls-118" d="M216.48,190.71c-.47-.54-.46-.76,0-1.15v1.15Z"/>
    <path class="cls-118" d="M215.59,186.59c-.46-.22-.32-.57-.3-.88,0-.08.11-.14.19-.07.26.2.13.49.16.75,0,.06-.02.12-.04.21Z"/>
    <path class="cls-118" d="M209.87,166.53c-.14.31.51.83,0,1.43v-1.43Z"/>
    <path class="cls-118" d="M213.06,197.46c-.03.18-.14.3-.32.33-.14.02-.23-.09-.24-.23-.02-.2.1-.32.29-.33.14,0,.24.07.27.23Z"/>
    <path class="cls-118" d="M215.88,181c-.16-.27-.12-.55-.07-.96.28.4.22.68.07.96Z"/>
    <path class="cls-118" d="M215.86,178.09c-.14,0-.19-.09-.2-.19-.03-.18,0-.36.2-.4.13-.03.16.11.16.22,0,.15.01.3-.15.38Z"/>
    <path class="cls-121" d="M55.65,61.02c-1.89.49-3.78.35-5.68.13,1.88-.69,3.79.02,5.68-.13Z"/>
    <path class="cls-93" d="M94.92,207.5h2.05s0,.04,0,.06h-2.05s0-.04,0-.06Z"/>
    <path class="cls-93" d="M102.29,207.57h-.95s0-.04,0-.06h.92s.02.04.02.06Z"/>
    <path class="cls-105" d="M128.36,208.14c-.38-.11-.92.23-1.13-.1-.22-.34.33-.6.5-.92.66-1.25,1.3-2.49,1.63-3.88.23-.96.29-1.95.41-2.92.03-.23-.02-.46.14-.66.07-.12.15-.11.24-.02.12,1.51-.13,2.96-.6,4.39-.09.27-.08.26.21.4.16.07.12.25.14.39.11.72-.28,1.37-.3,2.1-.01.61.22.6.63.56.04,0,.08-.01.13-.01.17,0,.4-.24.48.03.07.24-.29.18-.39.33-.69.1-1.39.21-2.08.31Z"/>
    <path class="cls-17" d="M131.81,207.87s-.07-.05-.11-.07c.25-.21.54-.2.84-.2,13.65,0,27.29,0,40.94,0,1.78,0,3.55-.04,5.32.04,3.7.17,7.4.02,11.11.08.15,0,.3-.01.42.1-3.17,0-6.34,0-9.52,0-2.88,0-5.76,0-8.64,0-.22-.1-.46-.05-.69-.05-12.38,0-24.77,0-37.15,0-.23,0-.46-.05-.69.05-.61-.05-1.23-.05-1.84.02Z"/>
    <path class="cls-23" d="M133.65,207.85c.85-.17,1.72-.09,2.58-.09,11.76,0,23.51,0,35.27.01.23,0,.47-.05.68.08-4.44,0-8.88.02-13.33.02-8.15,0-16.3,0-24.44,0-.25,0-.5-.01-.76-.02Z"/>
    <path class="cls-39" d="M130.15,199.63c-.08,0-.16.01-.24.02,0-.18,0-.36,0-.54.69.3,1.41.08,2.1.06.54-.01,1.08-.07,1.63-.07,2.67,0,5.34-.02,8.01,0,.99,0,1.99.07,2.98.12.49.03.55-.15.53-.64-.05-.91.04-1.83.09-2.74.01-.23.05-.46.08-.69.09.16.18.33.27.49-.16.12-.15.28-.12.44,0,.48,0,.95,0,1.43.07.63.09,1.25,0,1.88-.3.15-.62.08-.93.08-4.43,0-8.85,0-13.28.02-.37,0-.76-.11-1.1.12Z"/>
    <path class="cls-17" d="M181.13,205.08c.18.14.5.26.52.41.05.47.41.79.47,1.26.04.3-.05.36-.26.34-.34-.02-.63-.22-.91-.41-.15-.1-.1-.29.02-.38.42-.32.34-.62,0-.93-.06-.06-.1-.15-.04-.22.03-.04.11-.04.19-.07Z"/>
    <path class="cls-58" d="M145.46,199.42c0-.62,0-1.25,0-1.87.09.63.18,1.25,0,1.87Z"/>
    <path class="cls-39" d="M170.88,195.16c-2.31,0-4.63.01-6.94.01-3.85,0-7.7,0-11.55-.02-.2,0-.42.06-.61-.1,1.34-.12,2.69-.04,4.03-.04,4.79.01,9.59.05,14.38.07.23,0,.46-.04.68.07Z"/>
    <path class="cls-39" d="M150.87,195.06c-.92.22-1.86.07-2.79.09-.53.01-1.08.13-1.6-.09,1.46-.06,2.93-.11,4.39,0Z"/>
    <path class="cls-42" d="M183.2,140.11c.02.23.38.36.19.6-.09.11-.29.07-.39-.05-.22-.28.12-.36.2-.55Z"/>
    <path class="cls-58" d="M146.06,183.27c1.33,0,2.65,0,3.98,0,6.93-.01,13.85-.03,20.78-.04.23,0,.46.02.69.04-1.36.15-2.73.1-4.1.1-6.89.01-13.78.1-20.67-.03-.23,0-.47.04-.68-.08Z"/>
  </g>
  <rect class="cls-117" y="60.28" width="226.77" height="8.31"/>
  <rect class="cls-117" y="129.46" width="226.77" height="8.7"/>
  <rect class="cls-117" y="199.31" width="226.77" height="9.1"/>
  <rect class="cls-117" y="262.69" width="226.77" height="9.1"/>
  <rect class="cls-41" y="68.82" width="226.76" height="5.15"/>
  <rect class="cls-41" y="138.39" width="226.76" height="5.15"/>
  <rect class="cls-117" x="171.66" y="167.2" width="67.65" height="8.09" transform="translate(376.73 -34.23) rotate(90)"/>
  <rect class="cls-117" x="37.82" y="93.39" width="74.11" height="8.09" transform="translate(172.31 22.57) rotate(90)"/>
  <g>
    <g>
      <g>
        <ellipse class="cls-12" cx="141.08" cy="151.07" rx="15.34" ry="13.16"/>
        <ellipse class="cls-12" cx="147.39" cy="134.37" rx="15.34" ry="13.16"/>
        <ellipse class="cls-12" cx="141.27" cy="114.08" rx="15.54" ry="13.79"/>
        <ellipse class="cls-12" cx="129.97" cy="105.1" rx="15.56" ry="13.79" transform="translate(-37.11 100.55) rotate(-37.4)"/>
        <path class="cls-12" d="M119.46,110.3c-1.04.77-2.11,1.42-3.23,1.95-1.33.63-2.71,1.09-4.08,1.37v-31.28c4.64,0,9.03,1.94,11.82,5.69.86,1.15,1.5,2.4,1.95,3.7,2.19,6.3-.26,13.94-6.46,18.58Z"/>
      </g>
      <g>
        <ellipse class="cls-80" cx="83.21" cy="151.07" rx="15.34" ry="13.16"/>
        <ellipse class="cls-80" cx="76.89" cy="134.37" rx="15.34" ry="13.16"/>
        <ellipse class="cls-80" cx="83.01" cy="114.08" rx="15.54" ry="13.79"/>
        <ellipse class="cls-80" cx="94.3" cy="105.1" rx="13.79" ry="15.56" transform="translate(-46.47 116.17) rotate(-52.6)"/>
        <path class="cls-80" d="M104.83,110.3c1.04.77,2.11,1.42,3.23,1.95,1.33.63,2.71,1.09,4.08,1.37v-31.28c-4.64,0-9.03,1.94-11.82,5.69-.86,1.15-1.5,2.4-1.95,3.7-2.19,6.3.26,13.94,6.46,18.58Z"/>
      </g>
      <g>
        <path class="cls-109" d="M132.76,190.21v7.85l-3.02,10.79v-1.53l-13.83,3.68h-3.72v-13.82h.93c1.17,0,2.33-.12,3.49-.21,1.5-.12,2.96-.46,4.42-.79.83-.19,1.62-.45,2.43-.73,1-.34,1.96-.73,2.92-1.15,1.01-.44,1.94-1,2.88-1.56,1.24-.74,2.36-1.65,3.5-2.53h0Z"/>
        <polygon class="cls-108" points="125.09 225.45 113.74 256.43 112.19 260.68 112.18 260.66 112.18 223.53 116.04 223.53 125.09 225.45"/>
        <path class="cls-108" d="M132.81,197.8v.11l-.05.14-3.02,10.79v-1.53l-13.83,3.68h-2.76c3.01-7.42,17.89-12.61,19.61-13.17.02,0,.04,0,.05-.02h0Z"/>
        <polygon class="cls-20" points="145.97 209.07 145.94 209.1 134.27 224.45 129.8 226.1 129.74 226.12 129.74 208.84 132.76 198.05 132.8 197.91 132.81 197.87 145.97 209.07"/>
        <g>
          <polygon class="cls-68" points="112.26 213.07 112.19 213.24 112.19 213.07 112.26 213.07"/>
          <polygon class="cls-68" points="129.74 207.31 129.74 226.43 129.2 226.32 126.82 225.81 125.09 225.45 116.04 223.53 116.04 210.99 115.91 210.99 129.74 207.31"/>
          <polygon class="cls-127" points="116.04 210.99 116.04 223.53 112.18 223.53 112.18 213.24 112.26 213.07 112.18 213.07 112.18 210.99 116.04 210.99"/>
          <polygon class="cls-127" points="112.26 213.07 112.19 213.24 112.19 213.07 112.26 213.07"/>
        </g>
        <path class="cls-20" d="M133.78,240.5s-3.45,7-6.82,12.27c-.02.03-.04.07-.07.1-.39.53-1.74,2.02-3.48,3.89-4.19,4.49-10.6,11.14-11.17,11.83l-.05-7.89h0l1.55-4.26,11.35-30.98,1.73.36,2.38.51-1.05.38,1.25,3.07,4.37,10.74h0Z"/>
      </g>
      <g>
        <path class="cls-9" d="M152.25,158.22c-.25,1.82-.9,3.47-1.95,4.93-1.17,1.65-2.67,2.89-4.69,3.38-.49.12-1,.18-1.5.19-.2,0-.31.05-.33.29-.15,1.77-.55,3.49-.95,5.21-.32,1.38-.69,2.75-1.16,4.08-.33.95-.69,1.88-1.08,2.81-.65,1.55-1.41,3.05-2.29,4.47-.83,1.35-1.75,2.62-2.79,3.82-.8.93-1.63,1.82-2.58,2.6-.06.05-.1.11-.15.17-.02,0-.04.03-.05.04-1.14.88-2.26,1.79-3.5,2.53-.94.56-1.87,1.12-2.88,1.56-.96.42-1.92.81-2.92,1.15-.81.27-1.61.54-2.43.73-1.46.33-2.92.67-4.42.79-1.16.09-2.33.21-3.49.21h-.93v-50.78c1.05-.05,2.08-.02,3.13-.02.13,0,.22.03.19.19-.13.89-.08,1.78-.02,2.67,0,.19-.07.39.07.56.17.77.31,1.55.57,2.3,1.35,3.87,3.99,6.47,7.79,7.86,4.99,1.82,10.16,0,13.38-3.74,2.34-2.71,3.24-5.91,3.01-9.46-.02-.32.06-.41.37-.4.91,0,1.8,0,2.71,0,1.17,0,2.35-.04,3.51.04,0,.12.1.16.19.2,1.53.68,2.61,1.88,3.5,3.25.77,1.17,1.25,2.45,1.54,3.82.31,1.52.35,3.04.14,4.57h0Z"/>
        <path class="cls-12" d="M152.5,127.38c-.09.75-.17,1.51-.38,2.26-.23.84-.49,1.66-.82,2.46-.34.84-.77,1.64-1.26,2.4-.79,1.19-1.64,2.33-2.71,3.29-.41.36-.81.73-1.25,1.05-.28.19-.53.44-.72.72-.07,0-.15,0-.22,0-.2-.88-.34-1.76-.59-2.64-.27-.95-.57-1.89-.87-2.83-.3-.96-.73-1.89-1.12-2.82-.69-1.64-1.54-3.2-2.47-4.7-.71-1.16-1.47-2.28-2.33-3.34-.79-.98-1.59-1.94-2.47-2.83-1.24-1.26-2.56-2.45-3.98-3.52-.91-.68-1.84-1.32-2.82-1.91-1.35-.82-2.76-1.55-4.23-2.15-.7-.28-1.37-.58-2.08-.81-1.94-.66-3.92-1.14-5.95-1.41-1.13-.15-2.26-.24-3.4-.25-.23.08-.45,0-.67-.02h0v-18.35c.3,0,.59,0,.89-.02.11,0,1.5.09,2.1.13.99.08,1.98.17,2.96.32.7.1,1.4.17,2.1.3.61.11,1.21.22,1.81.37.56.13,1.14.19,1.68.36.79.24,1.57.5,2.36.68,1.16.26,2.22.75,3.33,1.13,1.28.44,2.5,1.06,3.71,1.68.69.35,1.37.71,2.03,1.1.32.19.62.41.94.61.21.39.64.43.99.6.45.19.82.52,1.19.8.84.61,1.68,1.24,2.46,1.92,1.07.94,2.05,1.97,3.05,2.99.84.86,1.57,1.79,2.27,2.76.92,1.27,1.81,2.54,2.52,3.95.33.66.73,1.29,1.02,1.97.4.91.92,1.77,1.18,2.75.04.15.16.27.13.44,0,.14-.02.27.05.4.24.42.35.91.47,1.35.15.55.45,1.1.37,1.7-.02.19.09.32.27.4.15.84.33,1.67.43,2.51.07.59.05,1.19.05,1.79,0,.82.05,1.64-.04,2.45h.03Z"/>
        <path class="cls-52" d="M150.26,140.52h0c-.2-.62-.72-.97-1.47-.98h-.28c-1.05-.02-2.08,0-3.13,0-.08,0-.15,0-.22,0-1.47,0-2.94.02-4.41.02-1.01,0-2,0-3.01,0-.16,0-.27-.04-.37-.17-.26-.32-.54-.62-.82-.9-.1-.11-.21-.22-.32-.31-1.19-1.14-2.56-2.01-4.11-2.58-.31-.12-.64-.22-.97-.31-4.13-1.14-7.87-.24-11.19,2.42-.59.47-1.13,1.01-1.58,1.61-.1.13-.19.22-.36.22h-5.84v6.85c1.05-.05,2.09-.02,3.14,0,.13,0,.21.03.19.19-.13.89-.08,1.78-.03,2.67.08.18.09.37.07.56.17.77.31,1.55.58,2.3,1.34,3.87,3.99,6.47,7.78,7.86,2.15.78,4.32.89,6.37.45,2.22-.45,4.28-1.55,5.96-3.11.37-.34.72-.7,1.05-1.08,2.34-2.71,3.25-5.91,3.02-9.46-.02-.32.06-.41.37-.41.12,0,.25,0,.37,0,.78.02,1.55,0,2.33,0,1.17,0,2.35-.04,3.51.04.58-.08,1.16-.02,1.74-.03,1.11-.03,1.71-.61,1.73-1.72.02-1.17.02-2.35,0-3.53,0-.22-.03-.42-.09-.6ZM136.48,150.34c-.07.27-.16.52-.25.77-.82,2.27-2.37,3.94-4.57,5.07-1.1.56-2.49.88-3.83.88-.14,0-.28,0-.42-.02-3.52-.18-6.71-2.58-7.9-5.98-1.01-2.88-.76-5.66.76-8.29,1.1-1.9,2.73-3.19,4.81-3.93,2.74-.98,5.58-.37,7.75,1.13.53.35,1.02.77,1.44,1.22,0,0,.02,0,.02.02.36.38.69.78.98,1.21.2.31.39.62.55.95s.3.65.42.98c.73,1.94.82,3.94.25,5.99h0Z"/>
        <path class="cls-20" d="M132.78,197.16v.08s0-.05,0-.08Z"/>
        <path class="cls-20" d="M132.81,197.12s-.02.02-.03.04v-.05h.03Z"/>
        <path class="cls-78" d="M152.06,120.64c-.18-.07-.3-.2-.27-.4.08-.61-.23-1.16-.37-1.7-.12-.44-.23-.93-.47-1.35-.07-.13-.05-.26-.05-.4.29.26.27.66.42.98.35.76.44,1.61.71,2.39.05.14.02.31.03.47h0Z"/>
        <path class="cls-78" d="M137.07,99.23c-.35-.17-.77-.21-.99-.6.44.02.71.3.99.6Z"/>
        <path class="cls-79" d="M115.54,149.79c-.14-.17-.08-.37-.07-.56.08.18.08.37.07.56Z"/>
        <path class="cls-79" d="M112.2,110.33c0,.1,0,.19,0,.29v-.29h0Z"/>
        <path class="cls-9" d="M145.15,139.52c-1.46,0-2.94,0-4.41.02h-3.01c-.16,0-.27-.04-.38-.17-1.65-2.01-3.71-3.41-6.21-4.09-4.13-1.14-7.87-.24-11.19,2.42-.59.47-1.13,1-1.58,1.61-.1.13-.19.22-.36.22h-5.83v-28.91c0-.1,0-.19,0-.29.23,0,.45.1.67.02,1.14,0,2.27.1,3.4.25,2.03.28,4.01.76,5.95,1.41.71.24,1.39.53,2.08.81,1.47.6,2.87,1.33,4.23,2.15.97.59,1.9,1.22,2.82,1.91,1.42,1.07,2.74,2.25,3.98,3.52.89.89,1.68,1.85,2.47,2.83.86,1.06,1.62,2.18,2.33,3.34.93,1.51,1.77,3.07,2.47,4.7.39.93.82,1.85,1.12,2.82.3.94.6,1.88.87,2.83.25.87.39,1.76.59,2.64h0Z"/>
        <path class="cls-9" d="M136.23,144.35c-.12-.33-.26-.65-.42-.98s-.35-.64-.55-.95c-.29-.43-.62-.83-.98-1.21,0,0,0,0-.02-.02-.43-.45-.92-.87-1.44-1.22-2.17-1.5-5.01-2.11-7.75-1.13-2.08.74-3.71,2.03-4.81,3.93-1.51,2.63-1.76,5.41-.76,8.29,1.18,3.41,4.37,5.8,7.9,5.98.14.02.28.02.42.02,1.34,0,2.74-.32,3.83-.88,2.2-1.14,3.75-2.81,4.57-5.07.09-.25.18-.5.25-.77.57-2.06.48-4.05-.25-5.99h0ZM125.74,150.99h0c-1.3,0-2.38-1.06-2.38-2.34s1.05-2.35,2.35-2.36c.35,0,.69.07.99.2.82.36,1.38,1.17,1.39,2.13.02,1.28-1.06,2.36-2.34,2.37Z"/>
        <path class="cls-52" d="M125.7,146.3c1.31,0,2.36,1.02,2.38,2.33.02,1.28-1.07,2.37-2.35,2.37s-2.38-1.06-2.38-2.34,1.06-2.35,2.35-2.36Z"/>
      </g>
      <g>
        <path class="cls-102" d="M179.8,283.36h-67.63v-22.67h0l.05,7.89c.57-.69,6.98-7.33,11.17-11.83,1.74-1.87,3.1-3.36,3.48-3.89.03-.03.05-.07.07-.1,3.38-5.27,6.82-12.27,6.82-12.27l-4.37-10.74-1.25-3.07,1.05-.38.54.11v-.31l.06-.02,4.47-1.65,1.96-2.58,9.71-12.77c6.74,5.8,14.24,13.1,20.45,23.1,1.69,2.71,3.29,5.62,4.74,8.75,2.17,4.64,4.04,9.78,5.49,15.48l3.19,26.94h0Z"/>
        <polygon class="cls-102" points="112.19 260.68 112.19 260.69 112.18 260.69 112.18 260.66 112.19 260.68"/>
        <path class="cls-82" d="M91.61,190.21v7.85l3.02,10.79v-1.53l13.83,3.68h3.72v-13.82h-.93c-1.17,0-2.33-.12-3.49-.21-1.5-.12-2.96-.46-4.42-.79-.83-.19-1.62-.45-2.43-.73-1-.34-1.96-.73-2.92-1.15-1.01-.44-1.94-1-2.88-1.56-1.24-.74-2.36-1.65-3.5-2.53h0Z"/>
        <path class="cls-62" d="M112.18,268.64v14.72h-57.25v.1h-11.94v-.1l4.76-26.94c1.8-7.13,4.28-13.38,7.18-18.9,6.69-12.79,15.61-21.65,23.5-28.43l4.78,6.28,6.89,9.07,4.47,1.65.06.02v.31l.54-.11,1.05.38-1.25,3.07-4.37,10.74s3.45,7,6.82,12.27c.02.03.04.06.07.1.39.53,1.75,2.02,3.49,3.9,4.21,4.5,10.65,11.19,11.21,11.88Z"/>
        <polygon class="cls-85" points="112.18 223.53 112.18 260.66 110.62 256.43 99.27 225.45 108.32 223.53 112.18 223.53"/>
        <path class="cls-85" d="M91.56,197.8v.11l.05.14,3.02,10.79v-1.53l13.83,3.68h2.76c-3.01-7.42-17.89-12.61-19.61-13.17-.02,0-.04,0-.05-.02h0Z"/>
        <path class="cls-46" d="M112.18,260.66v7.98c-.56-.69-7-7.37-11.21-11.88-1.74-1.88-3.11-3.37-3.49-3.9-.03-.04-.05-.07-.07-.1-3.38-5.27-6.82-12.27-6.82-12.27l4.37-10.74,1.25-3.07-1.05-.38,2.38-.51,1.73-.36,11.35,30.98,1.55,4.23h0Z"/>
        <polygon class="cls-46" points="112.19 260.68 112.19 260.69 112.18 260.69 112.18 260.66 112.19 260.68"/>
        <polygon class="cls-46" points="94.62 208.84 94.62 226.12 94.56 226.1 90.09 224.45 78.42 209.1 78.39 209.07 91.56 197.87 91.57 197.91 91.61 198.05 94.62 208.84"/>
        <g>
          <polygon class="cls-68" points="112.11 213.07 112.19 213.24 112.19 213.07 112.11 213.07"/>
          <polygon class="cls-128" points="108.45 210.99 108.32 210.99 108.32 223.53 99.27 225.45 97.54 225.81 95.16 226.32 94.62 226.43 94.62 207.31 108.45 210.99"/>
          <polygon class="cls-131" points="112.18 213.07 112.11 213.07 112.18 213.24 112.18 223.53 108.32 223.53 108.32 210.99 112.18 210.99 112.18 213.07"/>
          <polygon class="cls-127" points="112.11 213.07 112.19 213.24 112.19 213.07 112.11 213.07"/>
        </g>
      </g>
      <g>
        <path class="cls-84" d="M72.11,158.22c.25,1.82.9,3.47,1.95,4.93,1.17,1.65,2.67,2.89,4.69,3.38.49.12,1,.18,1.5.19.2,0,.31.05.33.29.15,1.77.55,3.49.95,5.21.32,1.38.69,2.75,1.16,4.08.33.95.69,1.88,1.08,2.81.65,1.55,1.41,3.05,2.29,4.47.83,1.35,1.75,2.62,2.79,3.82.8.93,1.63,1.82,2.58,2.6.06.05.1.11.15.17.02,0,.04.03.05.04,1.14.88,2.26,1.79,3.5,2.53.94.56,1.87,1.12,2.88,1.56.96.42,1.92.81,2.92,1.15.81.27,1.61.54,2.43.73,1.46.33,2.92.67,4.42.79,1.16.09,2.33.21,3.49.21h.93v-50.78c-1.05-.05-2.08-.02-3.13-.02-.13,0-.22.03-.19.19.13.89.08,1.78.02,2.67,0,.19.07.39-.07.56-.17.77-.31,1.55-.57,2.3-1.35,3.87-3.99,6.47-7.79,7.86-4.99,1.82-10.16,0-13.38-3.74-2.34-2.71-3.24-5.91-3.01-9.46.02-.32-.06-.41-.37-.4-.91,0-1.8,0-2.71,0-1.17,0-2.35-.04-3.51.04,0,.12-.1.16-.19.2-1.53.68-2.61,1.88-3.5,3.25-.77,1.17-1.25,2.45-1.54,3.82-.31,1.52-.35,3.04-.14,4.57h0Z"/>
        <path class="cls-80" d="M71.86,127.38c.09.75.17,1.51.38,2.26.23.84.49,1.66.82,2.46.34.84.77,1.64,1.26,2.4.79,1.19,1.64,2.33,2.71,3.29.41.36.81.73,1.25,1.05.28.19.53.44.72.72.07,0,.15,0,.22,0,.2-.88.34-1.76.59-2.64.27-.95.57-1.89.87-2.83.3-.96.73-1.89,1.12-2.82.69-1.64,1.54-3.2,2.47-4.7.71-1.16,1.47-2.28,2.33-3.34.79-.98,1.59-1.94,2.47-2.83,1.24-1.26,2.56-2.45,3.98-3.52.91-.68,1.84-1.32,2.82-1.91,1.35-.82,2.76-1.55,4.23-2.15.7-.28,1.37-.58,2.08-.81,1.94-.66,3.92-1.14,5.95-1.41,1.13-.15,2.26-.24,3.4-.25.23.08.45,0,.67-.02h0v-18.35c-.3,0-.59,0-.89-.02-.11,0-1.5.09-2.1.13-.99.08-1.98.17-2.96.32-.7.1-1.4.17-2.1.3-.61.11-1.21.22-1.81.37-.56.13-1.14.19-1.68.36-.79.24-1.57.5-2.36.68-1.16.26-2.22.75-3.33,1.13-1.28.44-2.5,1.06-3.71,1.68-.69.35-1.37.71-2.03,1.1-.32.19-.62.41-.94.61-.21.39-.64.43-.99.6-.45.19-.82.52-1.19.8-.84.61-1.68,1.24-2.46,1.92-1.07.94-2.05,1.97-3.05,2.99-.84.86-1.57,1.79-2.27,2.76-.92,1.27-1.81,2.54-2.52,3.95-.33.66-.73,1.29-1.02,1.97-.4.91-.92,1.77-1.18,2.75-.04.15-.16.27-.13.44,0,.14.02.27-.05.4-.24.42-.35.91-.47,1.35-.15.55-.45,1.1-.37,1.7.02.19-.09.32-.27.4-.15.84-.33,1.67-.43,2.51-.07.59-.05,1.19-.05,1.79,0,.82-.05,1.64.04,2.45h-.03Z"/>
        <path class="cls-77" d="M106.34,139.53c-.17,0-.26-.09-.36-.22-.46-.6-1-1.14-1.58-1.61-3.33-2.66-7.06-3.56-11.19-2.42-.36.1-.71.21-1.05.34-1.66.62-3.12,1.59-4.36,2.88-.28.27-.55.57-.81.88-.1.13-.21.17-.37.17-1.01,0-2,0-3.01,0h-.42c-1.33,0-2.66,0-3.99-.02-.07,0-.14,0-.22,0-1.07,0-2.14,0-3.21,0h-.2c-.73,0-1.24.34-1.46.92-.07.19-.11.41-.11.66-.02,1.18-.02,2.36,0,3.53.02,1.11.63,1.69,1.73,1.72.58,0,1.16-.05,1.73.03,1.17-.08,2.35-.03,3.52-.04.73,0,1.46,0,2.2,0,.02,0,.03,0,.05,0,.15,0,.3,0,.45,0,.31,0,.39.09.37.41-.23,3.55.68,6.75,3.02,9.46,1.81,2.11,4.26,3.61,6.94,4.17,2.06.45,4.27.35,6.44-.44,3.78-1.39,6.43-4,7.78-7.86.27-.75.41-1.53.58-2.3-.02-.19,0-.38.06-.56.06-.89.11-1.78-.02-2.67-.02-.16.06-.19.19-.19,1.05,0,2.09-.04,3.13,0v-6.85h-5.83ZM104.85,151.06c-1.19,3.44-4.42,5.84-7.98,5.99-.11,0-.23,0-.34,0-1.34,0-2.74-.32-3.83-.88-2.44-1.26-4.08-3.18-4.82-5.84-.67-2.41-.43-4.73.67-6.97.25-.51.56-1,.92-1.46.06-.07.11-.14.18-.21.53-.65,1.16-1.22,1.85-1.71,2.17-1.51,5.03-2.14,7.79-1.15,2.08.74,3.71,2.03,4.81,3.93,1.51,2.63,1.76,5.41.76,8.29h0Z"/>
        <path class="cls-20" d="M91.59,197.16v.08s0-.05,0-.08Z"/>
        <path class="cls-20" d="M91.56,197.12s.02.02.03.04v-.05h-.03Z"/>
        <path class="cls-78" d="M72.3,120.64c.18-.07.3-.2.27-.4-.08-.61.23-1.16.37-1.7.12-.44.23-.93.47-1.35.07-.13.05-.26.05-.4-.29.26-.27.66-.42.98-.35.76-.44,1.61-.71,2.39-.05.14-.02.31-.03.47h0Z"/>
        <path class="cls-78" d="M87.3,99.23c.35-.17.77-.21.99-.6-.44.02-.71.3-.99.6Z"/>
        <path class="cls-79" d="M108.82,149.79c.14-.17.08-.37.07-.56-.08.18-.08.37-.07.56Z"/>
        <path class="cls-79" d="M112.17,110.33c0,.1,0,.19,0,.29v-.29h0Z"/>
        <path class="cls-84" d="M79.21,139.52c1.46,0,2.94,0,4.41.02h3.01c.16,0,.27-.04.38-.17,1.65-2.01,3.71-3.41,6.21-4.09,4.13-1.14,7.87-.24,11.19,2.42.59.47,1.13,1,1.58,1.61.1.13.19.22.36.22h5.83v-28.91c0-.1,0-.19,0-.29-.23,0-.45.1-.67.02-1.14,0-2.27.1-3.4.25-2.03.28-4.01.76-5.95,1.41-.71.24-1.39.53-2.08.81-1.47.6-2.87,1.33-4.23,2.15-.97.59-1.9,1.22-2.82,1.91-1.42,1.07-2.74,2.25-3.98,3.52-.89.89-1.68,1.85-2.47,2.83-.86,1.06-1.62,2.18-2.33,3.34-.93,1.51-1.77,3.07-2.47,4.7-.39.93-.82,1.85-1.12,2.82-.3.94-.6,1.88-.87,2.83-.25.87-.39,1.76-.59,2.64h0Z"/>
        <path class="cls-84" d="M104.09,142.77c-1.1-1.9-2.73-3.19-4.81-3.93-2.76-.99-5.62-.36-7.79,1.15-.7.49-1.32,1.06-1.85,1.71-.07.07-.12.14-.18.21-.36.46-.67.95-.92,1.46-1.1,2.24-1.33,4.56-.67,6.97.74,2.67,2.38,4.58,4.82,5.84,1.1.56,2.49.88,3.83.88.11,0,.23,0,.34,0,3.55-.15,6.78-2.56,7.98-5.99,1.01-2.88.76-5.66-.76-8.29h0ZM98.64,150.99h-.09c-1.24-.05-2.28-1.12-2.26-2.37,0-.16.02-.32.05-.47.07-.31.19-.59.36-.84.04-.06.09-.13.14-.18.21-.25.48-.46.78-.6.32-.16.68-.24,1.06-.24,1.3,0,2.35,1.07,2.35,2.36s-1.08,2.34-2.38,2.34Z"/>
        <path class="cls-52" d="M98.67,146.3c-1.31,0-2.36,1.02-2.38,2.33-.02,1.28,1.07,2.37,2.35,2.37s2.38-1.06,2.38-2.34-1.06-2.35-2.35-2.36Z"/>
      </g>
    </g>
    <g>
      <polygon class="cls-1" points="146.69 250.87 150.21 249.01 149.53 252.94 152.38 255.73 148.45 256.3 146.69 259.88 144.92 256.3 140.99 255.73 143.84 252.94 143.17 249.01 146.69 250.87"/>
      <polygon class="cls-1" points="146.69 250.87 143.84 252.94 144.92 256.3 148.45 256.3 149.53 252.94 146.69 250.87"/>
    </g>
  </g>
</svg>