<?xml version="1.0" encoding="UTF-8"?>
<svg id="arrabbiato" xmlns="http://www.w3.org/2000/svg" viewBox="0 0 226.77 283.46">
  <def>
    <style>
      .arrabbiato{
      animation: arrabbiatoAnimation 1.5s ease-in-out 1s 1 forwards;
      }
      @keyframes arrabbiatoAnimation {
      from{
        -ms-transform: translateX(0%);
        -moz-transform: translateX(0%);
        -o-transform: translateX(0%);
        transform: translateX(0%) scale(1);
        -webkit-transform:  translateX(0%) scale(1);
      }
      to{
        -ms-transform: translateX(-10%);
        -moz-transform: translateX(-10%);
        -o-transform: translateX(-10%);
        transform: translateX(-10%) scale(1.2);
        -webkit-transform: translateX(-10%) scale(1.2);
      }
      }

      .iconArrabbiato{
      transform: translateY(-1%);
      animation: arrabbiatoIconAnimation 1s ease-in-out 2s 1 forwards;
      }
      @keyframes arrabbiatoIconAnimation {
      0%{
      transform: translateY(-1%);
      }
      100%{
      transform: translateY(0%);
      }
      }
    </style>
  </def>
  <rect id="sfondo" x="0" y="0" width="226.77" height="283.46" fill="#1a6789" stroke-width="0" />
  <g class="arrabbiato">
    <g id="corpo">
      <g id="claudio">
        <g>
          <path d="M128.68,146.49s.09.04.14.08c-.04-.02-.09-.04-.14-.06v-.02Z" fill="#f58925"
            stroke-width="0" />
          <path d="M137.26,142.42c-.36-.39-.69-.8-.99-1.22.01,0,.02,0,.02,0,.35.38.68.78.97,1.21Z"
            fill="#f58925" stroke-width="0" />
          <path d="M138.56,138.49c.05.05.09.09.13.14-.04-.05-.09-.1-.14-.14h0Z" fill="#f58925"
            stroke-width="0" />
          <path d="M139.69,139.54h1.54c-.5,0-1,0-1.5.01-.02,0-.03,0-.04-.01Z" fill="#f58925"
            stroke-width="0" />
          <path
            d="M147.37,139.53s-.01.01-.01.01c-.07,0-.15,0-.22-.01h0c-.09-.42-.17-.82-.26-1.22h.01c.09.41.17.81.26,1.21.07,0,.14,0,.22,0Z"
            fill="#f58925" stroke-width="0" />
          <path d="M133.89,159.94c-.53.2-1.07.36-1.63.47h0c.55-.12,1.1-.28,1.63-.47Z" fill="#f58925"
            stroke-width="0" />
          <path
            d="M142.18,149.81c.13-.99.17-2.01.1-3.06-.01-.07,0-.13.02-.17-.01.05-.02.11-.01.17.07,1.05.04,2.08-.11,3.06Z"
            fill="#f58925" stroke-width="0" />
          <path
            d="M143.89,146.36h-1.24c-.08,0-.14,0-.19.01.05-.01.12-.02.2-.02.12,0,.25.01.37,0h.01c.28.01.56.01.85.01Z"
            fill="#f58925" stroke-width="0" />
          <path d="M137.26,142.42c-.36-.39-.69-.8-.99-1.22.01,0,.02,0,.02,0,.35.38.68.78.97,1.21Z"
            fill="#f58925" stroke-width="0" />
          <path
            d="M157.11,145.75c.84,1.63,1.31,3.43,1.31,5.32,0,3.76-1.84,7.15-4.78,9.55.3-.76.49-1.56.61-2.4.21-1.54.17-3.05-.14-4.56-.29-1.37-.78-2.65-1.54-3.82-.58-.89-1.24-1.71-2.05-2.35-.44-.36-.92-.66-1.46-.9-.09-.04-.18-.08-.19-.2.58-.07,1.17-.01,1.74-.02,1.11-.03,1.72-.61,1.74-1.72.02-1.17.02-2.35,0-3.53,0-.22-.03-.42-.09-.6h-.01c-.21-.62-.72-.97-1.48-.98h-.3c-1.03-.02-2.07-.01-3.1-.01-.08,0-.15,0-.22,0-.09-.4-.17-.8-.26-1.2-.09-.48-.19-.96-.33-1.43-.27-.95-.57-1.89-.86-2.83-.3-.97-.73-1.89-1.12-2.82-.17-.41-.36-.81-.56-1.2-.19-.4-.39-.79-.59-1.18-.17-.34-.35-.67-.54-1-.12-.22-.25-.44-.39-.66-.12-.22-.25-.44-.39-.66-.36-.58-.72-1.15-1.12-1.7-.23-.35-.48-.7-.74-1.04-.15-.2-.31-.4-.47-.6-.79-.97-1.58-1.93-2.47-2.82-.58-.6-1.18-1.17-1.8-1.73-.21-.19-.43-.36-.65-.54-.01-.01-.03-.02-.04-.03-.29-.26-.59-.5-.9-.74-.01,0-.02-.02-.03-.03-.19-.15-.37-.31-.56-.45-.92-.69-1.85-1.32-2.82-1.91-.34-.2-.68-.4-1.03-.58-.35-.19-.7-.38-1.05-.56-.23-.13-.46-.24-.69-.35-.12-.06-.25-.12-.38-.17-.36-.17-.72-.33-1.08-.48-.49-.2-.98-.41-1.48-.59-.06-.03-.12-.05-.18-.06-.03-.01-.07-.03-.1-.04-.11-.04-.21-.08-.32-.12-.18-.06-.35-.11-.53-.16-.31-.11-.62-.2-.93-.29h-.01c-.49-.14-.98-.27-1.47-.39h-.01c-.26-.06-.53-.12-.79-.17h-.01c-.23-.06-.47-.11-.7-.15-.5-.1-1-.18-1.51-.25-.22-.03-.45-.06-.67-.08-.34-.04-.68-.07-1.03-.09-.27-.02-.54-.03-.81-.05-.04-.01-.07-.01-.1,0h0s-.07-.01-.11,0c-.22-.02-.45-.03-.66-.03-.22.08-.43-.02-.66-.02v-18.34h-.05v-9.65c4.64,0,9.03,1.94,11.82,5.7.86,1.15,1.5,2.39,1.95,3.69h0c6.09-2.34,12.85-.88,16.52,4.06,1.09,1.47,1.81,3.1,2.17,4.82,6.98,1.35,12.21,6.88,12.21,13.48,0,3.11-1.16,5.98-3.12,8.29,5.33,2.06,9.04,6.66,9.04,12,0,4.85-3.06,9.09-7.62,11.38Z"
            fill="#f58925" stroke-width="0" />
          <path d="M143.89,146.36h-.82s-.02,0-.03-.01c.28.01.56.01.85.01Z" fill="#f58925"
            stroke-width="0" />
          <path d="M138.55,138.48h0c-.05-.05-.1-.1-.16-.15.06.05.11.1.16.15Z" fill="#f58925"
            stroke-width="0" />
          <path d="M140.99,124.84c-.24-.35-.49-.69-.76-1.03t.02-.01c.26.34.51.69.74,1.04Z"
            fill="#f58925" stroke-width="0" />
          <path
            d="M142.5,127.2c-.13-.22-.27-.44-.4-.65-.35-.58-.72-1.15-1.11-1.71.4.55.76,1.12,1.12,1.7.14.22.27.44.39.66Z"
            fill="#f58925" stroke-width="0" />
          <path
            d="M143.43,128.86c-.18-.34-.37-.67-.56-1-.12-.22-.24-.44-.37-.66.14.22.27.44.39.66.19.33.37.66.54,1Z"
            fill="#f58925" stroke-width="0" />
          <path d="M138.56,138.49c.05.05.09.09.13.14-.04-.05-.09-.1-.14-.14h0Z" fill="#f58925"
            stroke-width="0" />
          <path d="M139.69,139.54h1.54c-.5,0-1,0-1.5.01-.02,0-.03,0-.04-.01Z" fill="#f58925"
            stroke-width="0" />
          <path
            d="M147.37,139.53s-.01.01-.01.01c-.07,0-.15,0-.22-.01h0c-.09-.42-.17-.82-.26-1.22-.09-.47-.2-.94-.33-1.41-.27-.95-.57-1.89-.86-2.83-.3-.96-.73-1.89-1.12-2.82-.17-.41-.36-.81-.55-1.21.2.39.39.79.56,1.2.39.93.82,1.85,1.12,2.82.29.94.59,1.88.86,2.83.14.47.24.95.33,1.43.09.4.17.8.26,1.2.07,0,.14,0,.22,0Z"
            fill="#f58925" stroke-width="0" />
          <path d="M128.43,113.81c-.23-.11-.46-.23-.69-.34h0c.23.1.46.21.69.34Z" fill="#f58925"
            stroke-width="0" />
          <path
            d="M133.89,117.31c-.19-.15-.38-.29-.57-.44-.91-.68-1.84-1.32-2.82-1.91-.34-.2-.68-.4-1.02-.59.35.18.69.38,1.03.58.97.59,1.9,1.22,2.82,1.91.19.14.37.3.56.45Z"
            fill="#f58925" stroke-width="0" />
          <path
            d="M140.99,124.84c-.24-.35-.49-.69-.76-1.03-.14-.2-.3-.4-.46-.6-.79-.97-1.59-1.93-2.47-2.82-.58-.59-1.19-1.17-1.81-1.73-.21-.19-.42-.37-.63-.55.22.18.44.35.65.54.62.56,1.22,1.13,1.8,1.73.89.89,1.68,1.85,2.47,2.82.16.2.32.4.47.6.26.34.51.69.74,1.04Z"
            fill="#f58925" stroke-width="0" />
          <path
            d="M142.5,127.2c-.13-.22-.27-.44-.4-.65-.35-.58-.72-1.15-1.11-1.71.4.55.76,1.12,1.12,1.7.14.22.27.44.39.66Z"
            fill="#f58925" stroke-width="0" />
          <path d="M142.89,127.86s-.02,0-.02,0c-.12-.22-.24-.44-.37-.66.14.22.27.44.39.66Z"
            fill="#f58925" stroke-width="0" />
          <path
            d="M119.75,110.84c-.5-.09-1.01-.17-1.52-.24-.22-.03-.43-.06-.65-.08h-.01c.22,0,.45.04.67.07.51.07,1.01.15,1.51.25Z"
            fill="#f58925" stroke-width="0" />
          <path
            d="M124.52,112.12c-.11-.04-.22-.07-.33-.11-.17-.06-.35-.12-.52-.17.18.05.35.1.53.16.11.04.21.08.32.12Z"
            fill="#f58925" stroke-width="0" />
          <path
            d="M127.36,113.29c-.36-.16-.72-.32-1.09-.47-.5-.2-.98-.41-1.47-.6.5.18.99.39,1.48.59.36.15.72.31,1.08.48Z"
            fill="#f58925" stroke-width="0" />
          <path
            d="M128.43,113.81c-.23-.11-.46-.23-.69-.34-.12-.06-.25-.12-.38-.18.13.05.26.11.38.17.23.11.46.22.69.35Z"
            fill="#f58925" stroke-width="0" />
          <path
            d="M133.89,117.31c-.19-.15-.38-.29-.57-.44-.91-.68-1.84-1.32-2.82-1.91-.34-.2-.68-.4-1.02-.59.35.18.69.38,1.03.58.97.59,1.9,1.22,2.82,1.91.19.14.37.3.56.45Z"
            fill="#f58925" stroke-width="0" />
          <path d="M135.51,118.65s-.01.01-.02.01c-.21-.19-.42-.37-.63-.55.22.18.44.35.65.54Z"
            fill="#f58925" stroke-width="0" />
          <path
            d="M115.51,110.37c-.22-.01-.45-.02-.67-.02-.22.08-.44,0-.65-.02,0,.1,0,.19,0,.29v2.99h-.01s-.02.01-.03.01v-21.64h.05v18.34c.23,0,.44.1.66.02.21,0,.44.01.66.03Z"
            fill="#f58925" stroke-width="0" />
          <path
            d="M119.75,110.84c-.5-.09-1.01-.17-1.52-.24-.22-.03-.43-.06-.65-.08-.35-.04-.69-.07-1.04-.1.35.02.69.05,1.03.09.22.02.45.05.67.08.51.07,1.01.15,1.51.25Z"
            fill="#f58925" stroke-width="0" />
        </g>
        <g>
          <path
            d="M81.47,138.3c-.08.4-.16.81-.26,1.22h0c-.07.02-.14.02-.21.02,0,0,0-.01,0-.01.08,0,.14,0,.21,0,.09-.41.17-.81.26-1.22h.01Z"
            fill="#c87223" stroke-width="0" />
          <path
            d="M88.83,139.5c-.06.04-.13.05-.21.05-.5-.01-1-.01-1.5-.01h1.5c.08,0,.15-.01.21-.04Z"
            fill="#c87223" stroke-width="0" />
          <path
            d="M85.89,146.37s-.11-.01-.18-.01h-.5s.02,0,.04-.01c.15.01.3,0,.45,0,.08,0,.14.01.19.02Z"
            fill="#c87223" stroke-width="0" />
          <path d="M86.07,148.8c-.04-.51-.05-1.02-.02-1.54-.02.52-.01,1.04.02,1.54Z" fill="#c87223"
            stroke-width="0" />
          <path
            d="M86.05,147.26c-.01-.17,0-.34,0-.51.01-.06,0-.12,0-.17.02.04.03.1.02.17-.01.17-.02.34-.02.51Z"
            fill="#c87223" stroke-width="0" />
          <path d="M96.04,160.39h0s-.01,0-.02,0h.02Z" fill="#c87223" stroke-width="0" />
          <path d="M98.69,147.31s.04-.06.07-.09c-.05.07-.1.14-.14.21.02-.04.04-.08.07-.12Z"
            fill="#c87223" stroke-width="0" />
          <path d="M99.62,146.53s-.06.03-.09.04c.02-.02.05-.03.07-.04h.02Z" fill="#c87223"
            stroke-width="0" />
          <path
            d="M84.16,130.39c-.13.28-.26.57-.38.86-.19.46-.39.92-.59,1.39.19-.47.39-.94.58-1.4.12-.29.25-.57.39-.85Z"
            fill="#c87223" stroke-width="0" />
          <path
            d="M87.61,124.5c-.48.67-.93,1.35-1.36,2.05-.26.43-.52.87-.77,1.31-.47.82-.92,1.67-1.32,2.53.39-.86.83-1.7,1.3-2.53.25-.44.51-.88.78-1.32.43-.7.87-1.38,1.37-2.04Z"
            fill="#c87223" stroke-width="0" />
          <path d="M88.1,123.84c-.17.22-.33.44-.49.66.14-.22.3-.44.47-.66h.02Z" fill="#c87223"
            stroke-width="0" />
          <path
            d="M82.91,133.36c-.08.23-.16.47-.24.71-.3.94-.6,1.88-.87,2.83-.13.47-.23.93-.33,1.4-.08.4-.16.81-.26,1.22h0c-.07.02-.14.02-.21.02,0,0,0-.01,0-.01.08,0,.14,0,.21,0,.09-.41.17-.81.26-1.22.09-.47.2-.94.33-1.41.27-.95.57-1.89.87-2.83.07-.24.16-.47.25-.7Z"
            fill="#c87223" stroke-width="0" />
          <path
            d="M88.83,139.5c-.06.04-.13.05-.21.05-.5-.01-1-.01-1.5-.01h1.5c.08,0,.15-.01.21-.04Z"
            fill="#c87223" stroke-width="0" />
          <polygon points="89.8 138.5 89.79 138.51 89.79 138.5 89.8 138.5" fill="#c87223"
            stroke-width="0" />
          <path
            d="M87.61,124.5c-.48.67-.93,1.35-1.36,2.05-.26.43-.52.87-.77,1.31h-.02c.25-.44.51-.88.78-1.32.43-.7.87-1.38,1.37-2.04Z"
            fill="#c87223" stroke-width="0" />
          <path
            d="M99.17,114.2c-.44.25-.88.5-1.32.76-.97.59-1.91,1.23-2.82,1.91-.76.57-1.49,1.18-2.19,1.82-.61.54-1.21,1.11-1.79,1.7-.87.89-1.68,1.85-2.47,2.82-.17.21-.33.42-.48.63-.17.22-.33.44-.49.66.14-.22.3-.44.47-.66.16-.22.32-.43.49-.64.79-.97,1.59-1.93,2.47-2.82.58-.59,1.17-1.16,1.78-1.7.71-.64,1.44-1.25,2.2-1.82.92-.69,1.86-1.32,2.82-1.91.44-.26.88-.51,1.33-.75Z"
            fill="#c87223" stroke-width="0" />
          <path d="M100.53,113.5h0c-.46.23-.91.46-1.36.7.45-.25.9-.48,1.36-.7Z" fill="#c87223"
            stroke-width="0" />
          <path
            d="M99.17,114.2c-.44.25-.88.5-1.32.76-.97.59-1.91,1.23-2.82,1.91-.76.57-1.49,1.18-2.19,1.82-.01,0-.01-.01-.02-.01.71-.64,1.44-1.25,2.2-1.82.92-.69,1.86-1.32,2.82-1.91.44-.26.88-.51,1.33-.75Z"
            fill="#c87223" stroke-width="0" />
          <path
            d="M103.53,112.23c-.49.19-.96.39-1.45.59-.53.21-1.04.45-1.55.69-.46.22-.91.45-1.36.69.45-.25.9-.48,1.36-.7.5-.25,1.02-.48,1.54-.69.48-.2.97-.4,1.46-.58Z"
            fill="#c87223" stroke-width="0" />
          <path
            d="M104.69,111.84c-.17.05-.35.11-.52.17-.14.05-.29.1-.43.15.14-.06.28-.11.42-.16.18-.06.35-.11.53-.16Z"
            fill="#c87223" stroke-width="0" />
          <path
            d="M110.69,110.52h0c-.19.03-.38.05-.57.08-.51.07-1.01.15-1.51.24.49-.1,1-.18,1.5-.25.19-.03.39-.05.58-.07Z"
            fill="#c87223" stroke-width="0" />
          <path
            d="M113.66,110.37s-.06,0-.09-.01c-.02-.01-.04,0-.06-.01-.94.01-1.88.07-2.82.18-.19.02-.38.04-.57.07-.51.07-1.01.15-1.51.24.49-.1,1-.18,1.5-.25.19-.03.39-.05.58-.07.93-.11,1.88-.17,2.81-.18.05.02.11.03.16.03Z"
            fill="#c87223" stroke-width="0" />
          <path d="M114.13,110.32v.02c-.13.01-.26.02-.4.03.13-.01.27-.04.4-.05Z" fill="#c87223"
            stroke-width="0" />
        </g>
        <g>
          <path
            d="M134.75,190.21v7.85l-3.02,10.79v-1.53l-13.83,3.68h-3.72v-13.82h.93c1.17,0,2.33-.12,3.49-.21,1.5-.12,2.96-.46,4.42-.79.83-.19,1.62-.45,2.43-.73,1-.34,1.96-.73,2.92-1.15,1.01-.44,1.94-1,2.88-1.56,1.24-.74,2.36-1.65,3.5-2.53h0Z"
            fill="#ef9d94" stroke-width="0" />
          <polygon
            points="127.08 225.45 115.73 256.43 114.18 260.68 114.17 260.66 114.17 223.53 118.03 223.53 127.08 225.45"
            fill="#fbfbfb" stroke-width="0" />
          <path
            d="M134.8,197.8v.11l-.05.14-3.02,10.79v-1.53l-13.83,3.68h-2.76c3.01-7.42,17.89-12.61,19.61-13.17.02,0,.04,0,.05-.02h0Z"
            fill="#fbfbfb" stroke-width="0" />
          <polygon
            points="147.96 209.07 147.93 209.1 136.26 224.45 131.79 226.1 131.73 226.12 131.73 208.84 134.75 198.05 134.79 197.91 134.8 197.87 147.96 209.07"
            fill="#4b366a" stroke-width="0" />
          <g>
            <polygon points="114.25 213.07 114.18 213.24 114.18 213.07 114.25 213.07" fill="#04c0b1"
              stroke-width="0" />
            <polygon
              points="131.73 207.31 131.73 226.43 131.19 226.32 128.81 225.81 127.08 225.45 118.03 223.53 118.03 210.99 117.9 210.99 131.73 207.31"
              fill="#04c0b1" stroke-width="0" />
            <polygon
              points="118.03 210.99 118.03 223.53 114.17 223.53 114.17 213.24 114.25 213.07 114.17 213.07 114.17 210.99 118.03 210.99"
              fill="#03a193" stroke-width="0" />
            <polygon points="114.25 213.07 114.18 213.24 114.18 213.07 114.25 213.07" fill="#03a193"
              stroke-width="0" />
          </g>
          <path
            d="M135.77,240.5s-3.45,7-6.82,12.27c-.02.03-.04.07-.07.1-.39.53-1.74,2.02-3.48,3.89-4.19,4.49-10.6,11.14-11.17,11.83l-.05-7.89h0l1.55-4.26,11.35-30.98,1.73.36,2.38.51-1.05.38,1.25,3.07,4.37,10.74h0Z"
            fill="#4b366a" stroke-width="0" />
        </g>
        <g>
          <path
            d="M154.25,158.22c-.12.84-.31,1.64-.61,2.4-.32.9-.77,1.74-1.34,2.53-1.18,1.65-2.67,2.89-4.69,3.38-.49.12-1,.18-1.51.19-.2,0-.31.05-.33.29-.14,1.77-.54,3.48-.94,5.21-.32,1.38-.69,2.75-1.16,4.09-.32.95-.68,1.88-1.07,2.8-.65,1.55-1.42,3.05-2.29,4.48-.83,1.35-1.75,2.62-2.79,3.81-.8.93-1.63,1.82-2.58,2.6-.06.05-.1.11-.15.17-.02.01-.04.03-.05.04-1.13.88-2.26,1.79-3.5,2.53-.94.56-1.87,1.12-2.88,1.56-.96.41-1.92.8-2.92,1.14-.8.27-1.61.54-2.43.73-1.46.33-2.91.67-4.42.79-1.16.09-2.33.21-3.49.21h-.92v-50.78c.52-.02,1.03-.03,1.55-.03s1.05.01,1.58.02c.06,0,.11,0,.14.02.03.02.05.06.05.12,0,0,0,.03,0,.04-.09.64-.09,1.28-.06,1.92,0,.25.03.5.04.75-.01.19-.07.39.07.56.09.39.16.77.25,1.16.04.19.09.38.14.57.05.2.1.38.17.57.09.27.2.53.31.79h.01c.17.43.36.84.59,1.23.17.33.35.64.55.94.19.3.39.59.61.86.2.25.4.49.62.72.17.19.36.38.55.56.21.2.43.39.65.57.22.19.45.37.69.53h0c.23.16.47.32.71.47.03.02.05.03.08.04.19.13.39.24.59.33.31.17.63.33.96.47.28.13.56.24.86.35.41.15.82.27,1.22.37.05.02.1.03.15.04.08.01.15.03.22.05l.18.03c.2.04.39.07.59.1.27.04.54.07.8.09.27.02.54.03.8.03.2,0,.41-.01.61-.02.2,0,.4-.02.61-.05.2,0,.4-.04.6-.08.2-.02.4-.06.59-.1.56-.11,1.1-.27,1.63-.47.27-.09.53-.19.79-.31.06-.03.12-.05.18-.08.19-.09.39-.19.58-.29.25-.13.5-.27.74-.42,0,0,.03,0,.04-.02.23-.14.45-.29.68-.45.23-.16.46-.34.68-.52.22-.18.44-.37.65-.56.37-.34.71-.7,1.04-1.08.34-.4.66-.81.94-1.23.06-.09.12-.17.18-.26.05-.1.11-.19.17-.29.07-.1.12-.2.18-.31.06-.1.12-.2.17-.31.08-.14.15-.28.21-.42.02-.05.05-.1.07-.15.1-.22.2-.44.28-.67.11-.27.2-.55.29-.83.08-.27.16-.55.22-.83.02-.09.04-.17.06-.26.05-.27.1-.55.14-.84.15-.98.18-2.01.11-3.06-.01-.06,0-.12.01-.17,0-.02,0-.05,0-.07.01-.04.02-.07.05-.09.02-.02.05-.04.09-.05h.01s.11-.01.19-.01h1.24c.49,0,.98-.01,1.47,0,1.17.01,2.35-.04,3.51.03,0,.12.1.16.19.2.54.24,1.02.54,1.46.9.81.64,1.47,1.46,2.05,2.35.76,1.17,1.25,2.45,1.54,3.82.31,1.51.35,3.02.14,4.56Z"
            fill="#f8c1b0" stroke-width="0" />
          <path
            d="M142.18,149.81c.13-.99.17-2.01.1-3.06-.01-.07,0-.13.02-.17-.01.05-.02.11-.01.17.07,1.05.04,2.08-.11,3.06Z"
            fill="#f8c1b0" stroke-width="0" />
          <rect x="114.17" y="146.39" width=".01" height="50.78" fill="#f8c1b0" stroke-width="0" />
          <path
            d="M117.45,146.4s-.08-.02-.14-.02c-.53-.01-1.05-.02-1.58-.02.52,0,1.04.01,1.57.01.06,0,.12.01.15.03Z"
            fill="#f8c1b0" stroke-width="0" />
          <path
            d="M147.37,139.53s-.01.01-.01.01c-.07,0-.15,0-.22-.01h0c-.09-.42-.17-.82-.26-1.22-.09-.47-.2-.94-.33-1.41-.27-.95-.57-1.89-.86-2.83-.3-.96-.73-1.89-1.12-2.82-.17-.41-.36-.81-.55-1.21.2.39.39.79.56,1.2.39.93.82,1.85,1.12,2.82.29.94.59,1.88.86,2.83.14.47.24.95.33,1.43.09.4.17.8.26,1.2.07,0,.14,0,.22,0Z"
            fill="#f58925" stroke-width="0" />
          <path
            d="M124.52,112.12c-.11-.04-.22-.07-.33-.11-.17-.06-.35-.12-.52-.17.18.05.35.1.53.16.11.04.21.08.32.12Z"
            fill="#f58925" stroke-width="0" />
          <path
            d="M127.36,113.29c-.36-.16-.72-.32-1.09-.47-.5-.2-.98-.41-1.47-.6.5.18.99.39,1.48.59.36.15.72.31,1.08.48Z"
            fill="#f58925" stroke-width="0" />
          <path
            d="M128.43,113.81c-.23-.11-.46-.23-.69-.34-.12-.06-.25-.12-.38-.18.13.05.26.11.38.17.23.11.46.22.69.35Z"
            fill="#f58925" stroke-width="0" />
          <path
            d="M115.51,110.37c-.22-.01-.45-.02-.67-.02-.22.08-.44,0-.65-.02h-.03v-18.35h.03v18.34c.23,0,.44.1.66.02.21,0,.44.01.66.03Z"
            fill="#f58925" stroke-width="0" />
          <path
            d="M119.75,110.84c-.5-.09-1.01-.17-1.52-.24-.22-.03-.43-.06-.65-.08-.35-.04-.69-.07-1.04-.1.35.02.69.05,1.03.09.22.02.45.05.67.08.51.07,1.01.15,1.51.25Z"
            fill="#f58925" stroke-width="0" />
          <path
            d="M133.89,117.31c-.19-.15-.38-.29-.57-.44-.91-.68-1.84-1.32-2.82-1.91-.34-.2-.68-.4-1.02-.59.35.18.69.38,1.03.58.97.59,1.9,1.22,2.82,1.91.19.14.37.3.56.45Z"
            fill="#f58925" stroke-width="0" />
          <path
            d="M140.99,124.84c-.24-.35-.49-.69-.76-1.03-.14-.2-.3-.4-.46-.6-.79-.97-1.59-1.93-2.47-2.82-.58-.59-1.19-1.17-1.81-1.73-.21-.19-.42-.37-.63-.55.22.18.44.35.65.54.62.56,1.22,1.13,1.8,1.73.89.89,1.68,1.85,2.47,2.82.16.2.32.4.47.6.26.34.51.69.74,1.04Z"
            fill="#f58925" stroke-width="0" />
          <path
            d="M142.5,127.2c-.13-.22-.27-.44-.4-.65-.35-.58-.72-1.15-1.11-1.71.4.55.76,1.12,1.12,1.7.14.22.27.44.39.66Z"
            fill="#f58925" stroke-width="0" />
          <path
            d="M143.43,128.86c-.18-.34-.37-.67-.56-1-.12-.22-.24-.44-.37-.66.14.22.27.44.39.66.19.33.37.66.54,1Z"
            fill="#f58925" stroke-width="0" />
          <path
            d="M138.39,138.33c.06.05.11.1.16.16h0c-.05-.06-.1-.11-.16-.16ZM138.56,138.49h0s.1.09.14.14c-.04-.05-.08-.09-.13-.14ZM147.15,139.52h-.01c.07.02.15.02.22.02,0,0,0-.01.01-.01-.08,0-.15,0-.22,0ZM142.29,146.75c-.01-.06,0-.12.01-.17-.02.04-.03.1-.02.17.07,1.05.03,2.07-.1,3.06.15-.98.18-2.01.11-3.06ZM117.3,146.37c-.53,0-1.05-.01-1.57-.01.53,0,1.05.01,1.58.02.06,0,.11,0,.14.02-.03-.02-.09-.03-.15-.03Z"
            fill="#272623" stroke-width="0" />
          <path
            d="M152.26,140.52h-.01c-.21-.62-.72-.97-1.48-.98h-.3c-1.03-.02-2.07-.01-3.1-.01-.01,0-.01.01-.01.01-.07,0-.15,0-.22-.01h0c-1.46,0-2.93,0-4.4.01h-1.51c-.5,0-1,0-1.5.01-.02,0-.03,0-.04-.01-.02,0-.03,0-.04-.01-.03.01-.06,0-.08,0-.05,0-.09-.03-.13-.06-.03-.02-.06-.05-.09-.09-.19-.24-.4-.46-.61-.68-.01-.02-.03-.04-.05-.06-.04-.05-.09-.1-.14-.14-.05-.06-.1-.11-.16-.16-.05-.06-.1-.11-.16-.15-.14-.13-.28-.26-.42-.38,0-.02-.03-.03-.04-.03-.15-.14-.31-.27-.47-.39-.15-.13-.3-.24-.46-.35-.01-.02-.03-.03-.04-.03-.16-.11-.33-.22-.49-.32-.17-.11-.35-.21-.52-.31-.09-.06-.18-.11-.27-.14-.15-.09-.3-.17-.46-.23-.12-.06-.24-.12-.37-.17-.19-.08-.38-.16-.57-.23-.09-.04-.18-.07-.28-.1-.15-.06-.3-.1-.46-.14-.08-.03-.15-.06-.23-.07-4.13-1.14-7.87-.24-11.19,2.42-.59.47-1.12.99-1.59,1.59-.02.03-.05.06-.07.09-.06.09-.15.14-.28.14h-5.85v6.86h.01c.52-.02,1.03-.03,1.55-.03s1.04.01,1.57.01c.06,0,.12.01.15.03.03.02.05.06.05.12v.04c-.09.64-.09,1.28-.07,1.92,0,.25.03.5.04.75.03.07.05.13.06.2.02.12.02.24.01.36.09.39.16.77.25,1.16.04.19.09.38.14.57.06.2.12.38.18.57.09.27.19.53.3.79h.01c.17.43.37.84.59,1.23.17.33.35.64.55.94.19.3.39.59.61.86.2.25.4.49.62.72.17.19.36.38.55.56.21.2.43.39.65.57.22.18.45.36.69.53h0c.23.16.47.32.71.47.03.02.05.03.08.04.19.12.39.23.59.33.31.17.63.33.96.47.28.13.56.24.86.35.41.15.82.27,1.22.37.19.05.37.09.55.12.2.04.39.07.59.1.27.04.54.07.8.09.27.02.54.03.8.03.2,0,.41-.01.61-.02.2-.01.41-.02.61-.05.2-.02.4-.05.6-.08.19-.03.39-.07.59-.11.55-.11,1.1-.27,1.63-.46.27-.09.53-.2.79-.31.06-.03.12-.05.18-.08.19-.09.39-.19.58-.29.25-.13.5-.27.74-.42,0,0,.03,0,.04-.02.23-.14.45-.29.68-.45.23-.16.46-.34.68-.52.22-.18.44-.37.65-.56.37-.34.71-.7,1.04-1.08.34-.4.66-.81.94-1.23.06-.09.12-.17.18-.26.05-.1.11-.19.17-.29.07-.1.12-.2.18-.31.06-.1.12-.2.17-.31.08-.14.15-.28.21-.42.02-.05.05-.1.07-.15.1-.22.2-.44.28-.67.11-.27.2-.55.29-.83.08-.27.16-.55.22-.83.02-.09.04-.17.06-.26.05-.27.1-.55.14-.84.13-.99.17-2.01.1-3.06-.01-.07,0-.13.02-.17,0-.02,0-.05,0-.07.01-.04.02-.07.05-.09.02-.02.05-.04.09-.05h.01s.12-.02.2-.02c.12,0,.25.01.37,0h.01c.28.01.56.01.85.01.49,0,.98-.01,1.47,0,1.17.01,2.35-.04,3.51.03.58-.07,1.17-.01,1.74-.02,1.11-.03,1.72-.61,1.74-1.72.02-1.17.02-2.35,0-3.53,0-.22-.03-.42-.09-.6ZM138.48,150.34c-.07.27-.16.52-.25.77-.82,2.27-2.37,3.93-4.57,5.07-1.1.56-2.49.88-3.84.88-.14,0-.27,0-.41-.02h-.01c-.88-.05-1.74-.23-2.54-.53-.41-.15-.81-.33-1.19-.55-.76-.41-1.46-.94-2.07-1.56-.16-.16-.3-.32-.45-.48-.28-.33-.54-.69-.78-1.06-.35-.56-.64-1.16-.86-1.8-1.01-2.88-.76-5.66.76-8.29,1.09-1.9,2.72-3.19,4.81-3.93,2.73-.97,5.57-.37,7.74,1.13.52.34,1.01.76,1.43,1.2l.02.02h0s.02.02.02.02c.35.38.68.78.97,1.21,0,.01.01.01.02.02s.01.02.02.03c.08.14.17.28.25.42.09.15.18.31.26.48.16.33.3.65.42.98.72,1.94.81,3.93.25,5.99Z"
            fill="#272623" stroke-width="0" />
          <path d="M134.77,197.16v.08s0-.05,0-.08Z" fill="#4b366a" stroke-width="0" />
          <path d="M134.8,197.12s-.02.02-.03.04v-.05h.03Z" fill="#4b366a" stroke-width="0" />
          <path d="M117.54,149.79c-.14-.17-.08-.37-.07-.56.03.07.05.13.06.2.02.12.02.24.01.36Z"
            fill="#deaea3" stroke-width="0" />
          <path d="M114.19,110.33c0,.1,0,.19,0,.29v-.15s-.01-.03,0-.05v-.09h0Z" fill="#deaea3"
            stroke-width="0" />
          <path
            d="M115.51,110.37c-.22-.01-.45-.02-.67-.02-.22.08-.44,0-.65-.02,0,.1,0,.19,0,.29v28.9h-.01v-28.91s0-.09.01-.14c0-.02-.01-.03,0-.05v-.1h0c.23,0,.44.1.66.02.21,0,.44.01.66.03Z"
            fill="#f8c1b0" stroke-width="0" />
          <path
            d="M119.75,110.84c-.5-.09-1.01-.17-1.52-.24-.22-.03-.43-.06-.65-.08-.35-.04-.69-.07-1.04-.1.35.02.69.05,1.03.09.22.02.45.05.67.08.51.07,1.01.15,1.51.25Z"
            fill="#f8c1b0" stroke-width="0" />
          <path
            d="M124.52,112.12c-.11-.04-.22-.07-.33-.11-.17-.06-.35-.12-.52-.17.18.05.35.1.53.16.11.04.21.08.32.12Z"
            fill="#f8c1b0" stroke-width="0" />
          <path
            d="M127.36,113.29c-.36-.16-.72-.32-1.09-.47-.5-.2-.98-.41-1.47-.6.5.18.99.39,1.48.59.36.15.72.31,1.08.48Z"
            fill="#f8c1b0" stroke-width="0" />
          <path
            d="M128.43,113.81c-.23-.11-.46-.23-.69-.34-.12-.06-.25-.12-.38-.18.13.05.26.11.38.17.23.11.46.22.69.35Z"
            fill="#f8c1b0" stroke-width="0" />
          <path
            d="M133.89,117.31c-.19-.15-.38-.29-.57-.44-.91-.68-1.84-1.32-2.82-1.91-.34-.2-.68-.4-1.02-.59.35.18.69.38,1.03.58.97.59,1.9,1.22,2.82,1.91.19.14.37.3.56.45Z"
            fill="#f8c1b0" stroke-width="0" />
          <path d="M138.55,138.48h0c-.05-.05-.1-.1-.16-.15.06.05.11.1.16.15Z" fill="#f8c1b0"
            stroke-width="0" />
          <path
            d="M140.99,124.84c-.24-.35-.49-.69-.76-1.03-.14-.2-.3-.4-.46-.6-.79-.97-1.59-1.93-2.47-2.82-.58-.59-1.19-1.17-1.81-1.73-.21-.19-.42-.37-.63-.55.22.18.44.35.65.54.62.56,1.22,1.13,1.8,1.73.89.89,1.68,1.85,2.47,2.82.16.2.32.4.47.6.26.34.51.69.74,1.04Z"
            fill="#f8c1b0" stroke-width="0" />
          <path
            d="M142.5,127.2c-.13-.22-.27-.44-.4-.65-.35-.58-.72-1.15-1.11-1.71.4.55.76,1.12,1.12,1.7.14.22.27.44.39.66Z"
            fill="#f8c1b0" stroke-width="0" />
          <path
            d="M143.43,128.86c-.18-.34-.37-.67-.56-1-.12-.22-.24-.44-.37-.66.14.22.27.44.39.66.19.33.37.66.54,1Z"
            fill="#f8c1b0" stroke-width="0" />
          <path
            d="M147.14,139.52c-1.46,0-2.93,0-4.4.02h-3.05s-.03,0-.04-.01c-.03.01-.06,0-.08,0-.05-.01-.09-.03-.13-.06-.03-.02-.06-.05-.09-.09-.19-.24-.4-.46-.61-.68-.01-.02-.03-.04-.05-.06-.04-.05-.08-.09-.13-.14h0c-.05-.06-.1-.11-.16-.16-.05-.06-.1-.11-.16-.15-.14-.13-.28-.26-.42-.38,0-.02-.03-.03-.04-.03-.15-.15-.31-.28-.47-.39-.15-.13-.3-.24-.46-.35-.01-.02-.03-.03-.04-.03-.16-.12-.32-.23-.49-.32-.17-.12-.34-.22-.52-.31-.09-.06-.18-.11-.27-.14-.15-.09-.3-.17-.46-.23-.12-.06-.24-.12-.37-.17-.19-.09-.38-.16-.57-.23h0c-.09-.04-.19-.07-.28-.1-.15-.06-.3-.1-.46-.14-.08-.03-.15-.06-.23-.07h-.01c-4.13-1.15-7.87-.25-11.19,2.41-.59.47-1.13.99-1.58,1.6-.02.03-.05.06-.07.09-.08.08-.16.13-.29.13h-5.83v-28.9c0-.1,0-.19,0-.29.21.02.43.1.65.02.22,0,.45.01.67.02.04-.01.07,0,.11,0h0s.06-.01.1,0c.27.02.54.03.81.05.35.03.69.06,1.04.1.22.02.43.05.65.08.51.07,1.02.15,1.52.24.23.04.47.09.7.15h.01c.26.05.53.11.79.17h.01c.49.12.98.25,1.47.39h.01c.31.09.62.18.93.29.17.05.35.11.52.17.11.04.22.07.33.11.03.01.07.03.1.04.06.01.12.03.18.06.49.19.97.4,1.47.6.37.15.73.31,1.09.47.13.06.26.12.38.18.23.11.46.23.69.34.35.18.7.37,1.05.56.34.19.68.39,1.02.59.98.59,1.91,1.23,2.82,1.91.19.15.38.29.57.44.01.01.02.02.03.03.3.24.6.49.9.74.01,0,.03.02.04.03.21.18.42.36.63.55.62.56,1.23,1.14,1.81,1.73.88.89,1.68,1.85,2.47,2.82.16.2.32.4.46.6.27.34.52.68.76,1.03.39.56.76,1.13,1.11,1.71.13.21.27.43.4.65.13.22.25.44.37.66.19.33.38.66.56,1,.2.39.4.78.59,1.18.19.4.38.8.55,1.21.39.93.82,1.86,1.12,2.82.29.94.59,1.88.86,2.83.13.47.24.94.33,1.41.09.4.17.8.26,1.21Z"
            fill="#f8c1b0" stroke-width="0" />
          <path d="M138.56,138.49c.05.05.09.09.13.14-.04-.05-.09-.1-.14-.14h0Z" fill="#f8c1b0"
            stroke-width="0" />
          <path
            d="M147.15,139.52h-.01c-.09-.41-.17-.81-.26-1.21-.09-.47-.2-.94-.33-1.41-.27-.95-.57-1.89-.86-2.83-.3-.96-.73-1.89-1.12-2.82-.17-.41-.36-.81-.55-1.21.2.39.39.79.56,1.2.39.93.82,1.85,1.12,2.82.29.94.59,1.88.86,2.83.14.47.24.95.33,1.43.09.4.17.8.26,1.2Z"
            fill="#f8c1b0" stroke-width="0" />
          <path d="M136.29,141.21s-.01,0-.02,0c.3.42.63.83.99,1.22-.29-.43-.62-.83-.97-1.21Z"
            fill="#f8c1b0" stroke-width="0" />
          <path
            d="M138.23,144.35c-.12-.33-.26-.65-.42-.98-.08-.17-.17-.33-.26-.48-.08-.14-.17-.28-.25-.42-.01-.01-.01-.02-.02-.03s-.02-.01-.02-.02c-.36-.39-.69-.8-.99-1.22h0s-.01-.02-.02-.03c-.42-.44-.91-.86-1.43-1.2-2.17-1.5-5.01-2.1-7.74-1.13-2.09.74-3.72,2.03-4.81,3.93-1.52,2.63-1.77,5.41-.76,8.29.22.64.51,1.24.86,1.8.24.37.5.73.78,1.06.15.16.29.32.45.48.61.62,1.31,1.15,2.07,1.56.38.21.78.39,1.19.55.8.3,1.66.48,2.54.53h.01c.14.02.27.02.41.02,1.35,0,2.74-.32,3.84-.88,2.2-1.14,3.75-2.8,4.57-5.07.09-.25.18-.5.25-.77.56-2.06.47-4.05-.25-5.99ZM130.07,148.69c0,.1-.01.2-.03.3-.03.24-.11.48-.22.69-.04.09-.1.18-.16.27-.11.16-.23.31-.38.43-.04.04-.08.07-.12.1-.08.06-.16.12-.24.17-.28.17-.59.28-.92.32-.07.01-.13.02-.2.02h-.08c-1.3,0-2.38-1.06-2.38-2.34,0-.12.01-.23.03-.35,0-.12.04-.24.08-.35.04-.14.1-.28.17-.41.11-.2.24-.38.41-.54.05-.06.11-.11.17-.16.41-.33.93-.54,1.49-.54.12,0,.23.01.35.03.13,0,.24.04.36.07.05.02.09.03.14.05.05,0,.09.02.14.04.05.02.09.04.14.08.07.02.14.06.2.12.13.08.24.17.35.28.06.04.11.1.15.16.05.06.09.12.14.18s.08.12.11.19c.05.06.08.13.1.2.06.14.11.28.14.42.01.04.02.08.02.12.01.05.02.09.02.14,0,.08.02.16.02.24v.07Z"
            fill="#f8c1b0" stroke-width="0" />
          <path
            d="M130.07,148.62v.07c0,.1-.01.2-.03.3-.03.24-.11.48-.22.69-.04.09-.1.18-.16.27-.11.16-.23.31-.38.43-.04.04-.08.07-.12.1-.08.06-.16.12-.24.17-.28.17-.59.28-.92.32-.07.01-.13.02-.2.02h-.08c-1.3,0-2.38-1.06-2.38-2.34,0-.12.01-.23.03-.35,0-.12.04-.24.08-.35.04-.14.1-.28.17-.41.11-.2.24-.38.41-.54.05-.06.11-.11.17-.16.41-.33.93-.54,1.49-.54.12,0,.23.01.35.03.13,0,.24.04.36.07.05.02.09.03.14.05.05,0,.09.03.14.06.05.02.1.04.14.06.07.04.14.08.2.12.13.08.24.17.35.28.05.05.1.11.15.16.05.06.09.12.14.18.04.06.08.12.11.19.04.06.07.13.1.2.06.14.11.28.14.42.01.04.02.08.02.12.01.05.02.09.02.14,0,.08.02.16.02.24Z"
            fill="#272623" stroke-width="0" />
        </g>
        <g>
          <path
            d="M181.79,283.36h-67.63v-22.67h0l.05,7.89c.57-.69,6.98-7.33,11.17-11.83,1.74-1.87,3.1-3.36,3.48-3.89.03-.03.05-.07.07-.1,3.38-5.27,6.82-12.27,6.82-12.27l-4.37-10.74-1.25-3.07,1.05-.38.54.11v-.31l.06-.02,4.47-1.65,1.96-2.58,9.71-12.77c6.74,5.8,14.24,13.1,20.45,23.1,1.69,2.71,3.29,5.62,4.74,8.75,2.17,4.64,4.04,9.78,5.49,15.48l3.19,26.94h0Z"
            fill="#654092" stroke-width="0" />
          <polygon points="114.18 260.68 114.18 260.69 114.17 260.69 114.17 260.66 114.18 260.68"
            fill="#654092" stroke-width="0" />
          <path
            d="M93.6,190.21v7.85l3.02,10.79v-1.53l13.83,3.68h3.72v-13.82h-.93c-1.17,0-2.33-.12-3.49-.21-1.5-.12-2.96-.46-4.42-.79-.83-.19-1.62-.45-2.43-.73-1-.34-1.96-.73-2.92-1.15-1.01-.44-1.94-1-2.88-1.56-1.24-.74-2.36-1.65-3.5-2.53h0Z"
            fill="#e0a79f" stroke-width="0" />
          <path
            d="M114.17,268.64v14.72h-57.25v.1h-11.94v-.1l4.76-26.94c1.8-7.13,4.28-13.38,7.18-18.9,6.69-12.79,15.61-21.65,23.5-28.43l4.78,6.28,6.89,9.07,4.47,1.65.06.02v.31l.54-.11,1.05.38-1.25,3.07-4.37,10.74s3.45,7,6.82,12.27c.02.03.04.06.07.1.39.53,1.75,2.02,3.49,3.9,4.21,4.5,10.65,11.19,11.21,11.88Z"
            fill="#412d75" stroke-width="0" />
          <polygon
            points="114.17 223.53 114.17 260.66 112.61 256.43 101.26 225.45 110.31 223.53 114.17 223.53"
            fill="#dbcee7" stroke-width="0" />
          <path
            d="M93.55,197.8v.11l.05.14,3.02,10.79v-1.53l13.83,3.68h2.76c-3.01-7.42-17.89-12.61-19.61-13.17-.02,0-.04,0-.05-.02h0Z"
            fill="#dbcee7" stroke-width="0" />
          <path
            d="M114.17,260.66v7.98c-.56-.69-7-7.37-11.21-11.88-1.74-1.88-3.11-3.37-3.49-3.9-.03-.04-.05-.07-.07-.1-3.38-5.27-6.82-12.27-6.82-12.27l4.37-10.74,1.25-3.07-1.05-.38,2.38-.51,1.73-.36,11.35,30.98,1.55,4.23h0Z"
            fill="#382b6a" stroke-width="0" />
          <polygon points="114.18 260.68 114.18 260.69 114.17 260.69 114.17 260.66 114.18 260.68"
            fill="#382b6a" stroke-width="0" />
          <polygon
            points="96.61 208.84 96.61 226.12 96.55 226.1 92.08 224.45 80.41 209.1 80.38 209.07 93.55 197.87 93.56 197.91 93.6 198.05 96.61 208.84"
            fill="#382b6a" stroke-width="0" />
          <g>
            <polygon points="114.1 213.07 114.18 213.24 114.18 213.07 114.1 213.07" fill="#04c0b1"
              stroke-width="0" />
            <polygon
              points="110.44 210.99 110.31 210.99 110.31 223.53 101.26 225.45 99.53 225.81 97.15 226.32 96.61 226.43 96.61 207.31 110.44 210.99"
              fill="#03a295" stroke-width="0" />
            <polygon
              points="114.17 213.07 114.1 213.07 114.17 213.24 114.17 223.53 110.31 223.53 110.31 210.99 114.17 210.99 114.17 213.07"
              fill="#00927a" stroke-width="0" />
            <polygon points="114.1 213.07 114.18 213.24 114.18 213.07 114.1 213.07" fill="#03a193"
              stroke-width="0" />
          </g>
        </g>
        <g>
          <path
            d="M114.17,146.39v50.78h-.91c-1.17,0-2.33-.12-3.5-.21-1.5-.12-2.96-.46-4.42-.79-.82-.19-1.62-.46-2.43-.73-1-.34-1.96-.73-2.92-1.14-1-.44-1.94-1-2.87-1.56-1.25-.74-2.37-1.65-3.51-2.53-.01,0-.03-.03-.05-.04-.05-.06-.09-.12-.15-.17-.94-.78-1.78-1.67-2.58-2.6-1.03-1.19-1.96-2.46-2.78-3.81-.88-1.43-1.65-2.93-2.3-4.48-.38-.92-.74-1.85-1.07-2.8-.47-1.34-.84-2.71-1.16-4.09-.39-1.73-.79-3.44-.94-5.21-.02-.24-.13-.29-.33-.29-.51-.01-1.02-.07-1.5-.19-2.02-.49-3.52-1.73-4.69-3.38-.56-.76-1-1.58-1.32-2.45-.31-.79-.52-1.61-.63-2.48-.21-1.54-.17-3.05.13-4.56.29-1.37.78-2.65,1.55-3.82.58-.89,1.23-1.71,2.04-2.35.44-.36.92-.66,1.46-.9.09-.04.18-.08.19-.2,1.18-.07,2.34-.02,3.52-.03.72-.01,1.46,0,2.2,0h.51c.07,0,.13,0,.18.01.08.02.13.07.15.14.01.02.01.05.01.07,0,.05.02.11,0,.17,0,.17-.02.34,0,.51-.03.52-.02,1.03.02,1.54.02.34.06.68.1,1.01.09.66.23,1.3.42,1.93.11.35.23.7.37,1.05.5,1.21,1.2,2.36,2.12,3.42.61.71,1.28,1.34,2.02,1.89.14.11.28.22.43.32.2.15.4.28.61.4.17.11.35.22.53.32.3.16.61.31.92.45.15.07.31.14.47.2.32.13.64.24.97.34.16.06.32.1.49.14.17.04.33.08.5.12t.02,0c.07.02.14.03.21.04.07.01.14.02.21.04.12.02.25.04.38.06.13.02.26.04.4.05.21.03.41.04.62.05.72.04,1.45,0,2.18-.09.28-.04.55-.08.83-.14.07-.02.14-.03.22-.05.29-.07.58-.15.87-.24.17-.05.33-.11.5-.17,3.32-1.22,5.75-3.37,7.22-6.47.21-.44.4-.91.57-1.39.06-.19.12-.38.17-.57.16-.57.27-1.15.4-1.73.14-.17.08-.37.07-.56.06-.89.11-1.78-.02-2.67,0-.01,0-.03-.01-.04,0-.06.02-.1.05-.12.03-.02.08-.02.14-.02.52-.01,1.05-.02,1.57-.02s1.04.01,1.55.03Z"
            fill="#dfafa4" stroke-width="0" />
          <path d="M86.07,148.8c-.04-.51-.05-1.02-.02-1.54-.02.52-.01,1.04.02,1.54Z" fill="#dfafa4"
            stroke-width="0" />
          <path
            d="M86.05,147.26c-.01-.17,0-.34,0-.51.01-.06,0-.12,0-.17.02.04.03.1.02.17-.01.17-.02.34-.02.51Z"
            fill="#dfafa4" stroke-width="0" />
          <path
            d="M112.62,146.36c-.52,0-1.05.01-1.57.02-.06,0-.11,0-.14.02.03-.02.09-.03.15-.03.52,0,1.04-.01,1.56-.01Z"
            fill="#dfafa4" stroke-width="0" />
          <rect x="114.17" y="146.39" width=".01" height="50.78" fill="#dfafa4" stroke-width="0" />
          <path
            d="M82.91,133.36c-.08.23-.16.47-.24.71-.3.94-.6,1.88-.87,2.83-.13.47-.23.93-.33,1.4-.08.4-.16.81-.26,1.22h0c-.07.02-.14.02-.21.02,0,0,0-.01,0-.01.08,0,.14,0,.21,0,.09-.41.17-.81.26-1.22.09-.47.2-.94.33-1.41.27-.95.57-1.89.87-2.83.07-.24.16-.47.25-.7Z"
            fill="#c87223" stroke-width="0" />
          <path
            d="M84.16,130.39c-.13.28-.26.57-.38.86-.19.46-.39.92-.59,1.39.19-.47.39-.94.58-1.4.12-.29.25-.57.39-.85Z"
            fill="#c87223" stroke-width="0" />
          <path
            d="M87.61,124.5c-.48.67-.93,1.35-1.36,2.05-.26.43-.52.87-.77,1.31-.47.82-.92,1.67-1.32,2.53.39-.86.83-1.7,1.3-2.53.25-.44.51-.88.78-1.32.43-.7.87-1.38,1.37-2.04Z"
            fill="#c87223" stroke-width="0" />
          <path
            d="M99.17,114.2c-.44.25-.88.5-1.32.76-.97.59-1.91,1.23-2.82,1.91-.76.57-1.49,1.18-2.19,1.82-.61.54-1.21,1.11-1.79,1.7-.87.89-1.68,1.85-2.47,2.82-.17.21-.33.42-.48.63-.17.22-.33.44-.49.66.14-.22.3-.44.47-.66.16-.22.32-.43.49-.64.79-.97,1.59-1.93,2.47-2.82.58-.59,1.17-1.16,1.78-1.7.71-.64,1.44-1.25,2.2-1.82.92-.69,1.86-1.32,2.82-1.91.44-.26.88-.51,1.33-.75Z"
            fill="#c87223" stroke-width="0" />
          <path
            d="M103.53,112.23c-.49.19-.96.39-1.45.59-.53.21-1.04.45-1.55.69-.46.22-.91.45-1.36.69.45-.25.9-.48,1.36-.7.5-.25,1.02-.48,1.54-.69.48-.2.97-.4,1.46-.58Z"
            fill="#c87223" stroke-width="0" />
          <path
            d="M104.69,111.84c-.17.05-.35.11-.52.17-.14.05-.29.1-.43.15.14-.06.28-.11.42-.16.18-.06.35-.11.53-.16Z"
            fill="#c87223" stroke-width="0" />
          <path
            d="M113.66,110.37s-.06,0-.09-.01c-.02-.01-.04,0-.06-.01-.94.01-1.88.07-2.82.18-.19.02-.38.04-.57.07-.51.07-1.01.15-1.51.24.49-.1,1-.18,1.5-.25.19-.03.39-.05.58-.07.93-.11,1.88-.17,2.81-.18.05.02.11.03.16.03Z"
            fill="#c87223" stroke-width="0" />
          <path
            d="M114.19,91.98v18.35h-.03s-.01,0-.02,0h-.01c-.13.01-.26.02-.4.03.13-.01.27-.04.4-.05v-18.34h.06Z"
            fill="#c87223" stroke-width="0" />
          <path
            d="M86.05,147.26c-.03.52-.02,1.03.02,1.54-.03-.5-.04-1.02-.02-1.54ZM86.07,146.75c.01-.07,0-.13-.02-.17,0,.05.02.11,0,.17,0,.17-.02.34,0,.51,0-.17,0-.34.02-.51ZM111.06,146.37c-.06,0-.12.01-.15.03.03-.02.08-.02.14-.02.52-.01,1.05-.02,1.57-.02-.52,0-1.04.01-1.56.01ZM81.2,139.52c-.07,0-.13,0-.21,0,0,0,0,.01,0,.01.07,0,.14,0,.21-.01h0s-.01,0-.01,0Z"
            fill="#252523" stroke-width="0" />
          <path
            d="M108.34,139.53c-.17,0-.26-.09-.36-.22-.46-.6-1-1.13-1.58-1.6-3.33-2.66-7.06-3.56-11.2-2.42-.17.05-.35.1-.52.16-.18.05-.35.11-.52.18-.04.01-.08.02-.11.04-.15.05-.29.11-.43.18-.02,0-.05.01-.07.03-.08.04-.15.07-.22.1-.17.07-.33.15-.49.24-.15.07-.3.15-.44.24-.11.05-.21.12-.31.19-.24.15-.47.3-.69.46-.07.04-.13.09-.19.14-.15.11-.3.22-.44.35-.17.14-.34.28-.5.44-.16.14-.32.3-.47.46h-.01c-.1.1-.2.2-.29.31-.18.18-.34.37-.5.56-.05.07-.11.11-.17.13-.06.04-.13.05-.21.05-.5-.01-1-.01-1.5-.01h-1.5c-1.48-.01-2.94-.02-4.41-.02h0c-.07.02-.14.02-.21.02,0,0,0-.01,0-.01-1.06,0-2.13,0-3.18.01h-.23c-.73.01-1.24.34-1.46.92-.07.19-.11.41-.11.66-.02,1.18-.02,2.36,0,3.53.02,1.11.62,1.69,1.73,1.72.58.01,1.16-.05,1.73.02h.01c1.18-.07,2.34-.02,3.52-.03.72-.01,1.46,0,2.2,0h.01s.02,0,.04-.01c.15.01.3,0,.45,0,.08,0,.14.01.19.02.08.02.13.07.15.14.01.02.01.05.01.07.02.04.03.1.02.17-.01.17-.02.34-.02.51-.02.52-.01,1.04.02,1.54.02.34.06.68.1,1.01.09.66.23,1.3.42,1.93.11.35.23.7.37,1.05.5,1.21,1.2,2.36,2.12,3.42.61.71,1.28,1.34,2.02,1.89.14.11.28.22.43.32.2.15.4.28.61.4.17.11.35.22.53.32.3.16.61.31.92.45.15.07.31.14.47.2.32.13.64.24.97.34.16.05.32.1.49.14.17.04.33.08.5.12h.02c.07.02.14.03.21.05.07.01.14.02.21.04.12.02.25.04.38.06.13.02.26.04.4.05.21.03.41.04.62.05.72.04,1.45,0,2.18-.09.28-.04.55-.08.83-.14.07-.02.14-.03.22-.05.29-.07.58-.15.87-.24.17-.05.33-.11.5-.17,3.32-1.22,5.75-3.37,7.22-6.47.2-.44.39-.91.56-1.39.07-.19.13-.38.18-.57.16-.57.27-1.15.4-1.73-.01-.12-.01-.24.01-.36h0c.01-.07.02-.13.05-.2.06-.89.11-1.78-.02-2.67v-.04c0-.06.02-.1.05-.12.03-.02.09-.03.15-.03.52,0,1.04-.01,1.56-.01s1.04.01,1.55.03v-6.86h-5.83ZM106.84,151.06c-.07.21-.16.42-.25.63-.06.16-.14.32-.22.47-.08.16-.16.31-.26.47-.07.13-.15.26-.23.38-.21.32-.45.64-.7.93-.14.17-.3.34-.45.48-.48.49-1.02.92-1.6,1.28-.15.1-.3.19-.45.27-.19.1-.38.2-.58.29-.14.07-.28.12-.42.18-.11.05-.22.09-.33.13-.35.12-.7.22-1.05.29-.1.02-.2.04-.29.06-.18.04-.35.06-.53.08-.2.02-.4.04-.6.05h0c-.11.01-.23.01-.34.01-1.34,0-2.74-.32-3.83-.88-2.44-1.26-4.09-3.17-4.82-5.84-.67-2.41-.43-4.73.66-6.97.25-.51.56-.99.91-1.45h.01c.06-.08.11-.15.18-.22.53-.65,1.15-1.22,1.85-1.71,2.17-1.51,5.03-2.13,7.79-1.15,2.08.74,3.71,2.03,4.81,3.93,1.51,2.63,1.76,5.41.75,8.29Z"
            fill="#252523" stroke-width="0" />
          <path d="M93.58,197.16v.08s0-.05,0-.08Z" fill="#4b366a" stroke-width="0" />
          <path d="M93.55,197.12s.02.02.03.04v-.05h-.03Z" fill="#4b366a" stroke-width="0" />
          <path
            d="M114.13,82.33v27.99c-.13.01-.27.04-.4.05h-.07s-.11-.01-.16-.03c-.93.01-1.88.07-2.81.18-.19.02-.39.04-.58.07-.5.07-1.01.15-1.5.25-.02,0-.04,0-.06.01-.24.04-.48.09-.71.15-.25.04-.49.1-.74.16-.49.11-.98.24-1.47.39h0c-.31.09-.62.18-.93.29-.18.05-.35.1-.53.16-.14.05-.28.1-.42.16-.07.02-.14.04-.21.07-.49.18-.98.38-1.46.58-.52.21-1.04.44-1.54.69-.46.22-.91.45-1.36.7-.45.24-.89.49-1.33.75-.96.59-1.9,1.22-2.82,1.91-.76.57-1.49,1.18-2.2,1.82-.61.54-1.2,1.11-1.78,1.7-.88.89-1.68,1.85-2.47,2.82-.17.21-.33.42-.49.64-.17.22-.33.44-.47.66-.5.66-.94,1.34-1.37,2.04-.27.44-.53.88-.78,1.32-.47.83-.91,1.67-1.3,2.53-.14.28-.27.56-.39.85-.19.46-.39.93-.58,1.4t0,0c-.1.23-.2.47-.28.71-.09.23-.18.46-.25.7-.3.94-.6,1.88-.87,2.83-.13.47-.24.94-.33,1.41-.09.41-.17.81-.26,1.22-.07,0-.13,0-.21,0-1.06,0-2.13,0-3.18.01h-.23c-.73.01-1.24.34-1.46.92-.07.19-.11.41-.11.66-.02,1.18-.02,2.36,0,3.53.02,1.11.62,1.69,1.73,1.72.58.01,1.16-.05,1.73.02h.01c-.01.12-.1.16-.19.2-.54.24-1.02.54-1.46.9-.81.64-1.46,1.46-2.04,2.35-.77,1.17-1.26,2.45-1.55,3.82-.3,1.51-.34,3.02-.13,4.56.11.87.32,1.69.63,2.48-3-2.4-4.88-5.83-4.88-9.63,0-1.89.47-3.69,1.31-5.32-4.56-2.28-7.63-6.52-7.63-11.38,0-5.35,3.71-9.95,9.05-12-1.96-2.31-3.12-5.18-3.12-8.29,0-6.6,5.22-12.12,12.19-13.48.36-1.72,1.08-3.35,2.17-4.82,3.67-4.94,10.43-6.4,16.53-4.05h0c.45-1.31,1.1-2.55,1.95-3.7,2.79-3.76,7.18-5.7,11.82-5.7Z"
            fill="#c87223" stroke-width="0" />
          <path
            d="M110.82,149.79c-.01-.12-.01-.24.01-.36h0c.01-.07.03-.14.06-.2.01.19.07.39-.07.56Z"
            fill="#deaea3" stroke-width="0" />
          <path d="M114.16,110.33c0,.1,0,.19,0,.29v-.29h0Z" fill="#deaea3" stroke-width="0" />
          <path
            d="M114.17,113.61v25.91h-5.82c-.17,0-.26-.09-.36-.22-.46-.61-1-1.13-1.58-1.6-3.33-2.66-7.06-3.56-11.2-2.42-.18.05-.36.1-.53.17-.18.05-.35.11-.52.17h0s-.08.03-.11.05c-.15.05-.29.11-.43.18-.02,0-.05.01-.07.03-.08.02-.15.06-.22.1-.17.07-.33.15-.49.24-.15.07-.3.15-.44.24-.11.05-.21.12-.31.19-.24.13-.47.29-.69.46-.07.04-.13.09-.19.14-.15.11-.3.22-.44.35-.17.14-.34.28-.5.44-.16.14-.32.3-.47.46h-.01c-.1.1-.2.2-.29.31-.18.18-.34.37-.5.56-.05.07-.11.11-.17.13-.06.03-.13.04-.21.04h-3c-1.48-.01-2.94-.02-4.41-.02.1-.41.18-.82.26-1.22.1-.47.2-.93.33-1.4.27-.95.57-1.89.87-2.83.08-.24.16-.48.24-.71.08-.24.18-.48.28-.71t0,0c.2-.47.4-.93.59-1.39.12-.29.25-.58.38-.86.4-.86.85-1.71,1.32-2.53.25-.44.51-.88.77-1.31.43-.7.88-1.38,1.36-2.05.16-.22.32-.44.49-.66.15-.21.31-.42.48-.63.79-.97,1.6-1.93,2.47-2.82.58-.59,1.18-1.16,1.79-1.7.7-.64,1.43-1.25,2.19-1.82.91-.68,1.85-1.32,2.82-1.91.44-.26.88-.51,1.32-.76.45-.24.9-.47,1.36-.69.51-.24,1.02-.48,1.55-.69.49-.2.96-.4,1.45-.59.07-.03.14-.05.21-.07.14-.05.29-.1.43-.15.17-.06.35-.12.52-.17.31-.11.62-.2.93-.29h0c.48-.14.98-.27,1.47-.39.25-.06.49-.12.74-.16.23-.06.47-.11.71-.15.02-.01.04-.01.06-.01.5-.09,1-.17,1.51-.24.19-.03.38-.05.57-.07.94-.11,1.88-.17,2.82-.18.02.01.04,0,.06.01.03.01.06.01.09.01h.07c.14-.01.27-.02.4-.03h.01v3.28s.02,0,.03-.01Z"
            fill="#dfafa4" stroke-width="0" />
          <path
            d="M82.91,133.36c-.08.23-.16.47-.24.71-.3.94-.6,1.88-.87,2.83-.13.47-.23.93-.33,1.4-.08.4-.16.81-.26,1.22h-.01c.09-.41.17-.81.26-1.22.09-.47.2-.94.33-1.41.27-.95.57-1.89.87-2.83.07-.24.16-.47.25-.7Z"
            fill="#dfafa4" stroke-width="0" />
          <path
            d="M84.16,130.39c-.13.28-.26.57-.38.86-.19.46-.39.92-.59,1.39.19-.47.39-.94.58-1.4.12-.29.25-.57.39-.85Z"
            fill="#dfafa4" stroke-width="0" />
          <path
            d="M87.61,124.5c-.48.67-.93,1.35-1.36,2.05-.26.43-.52.87-.77,1.31-.47.82-.92,1.67-1.32,2.53.39-.86.83-1.7,1.3-2.53.25-.44.51-.88.78-1.32.43-.7.87-1.38,1.37-2.04Z"
            fill="#dfafa4" stroke-width="0" />
          <path
            d="M99.17,114.2c-.44.25-.88.5-1.32.76-.97.59-1.91,1.23-2.82,1.91-.76.57-1.49,1.18-2.19,1.82-.61.54-1.21,1.11-1.79,1.7-.87.89-1.68,1.85-2.47,2.82-.17.21-.33.42-.48.63-.17.22-.33.44-.49.66.14-.22.3-.44.47-.66.16-.22.32-.43.49-.64.79-.97,1.59-1.93,2.47-2.82.58-.59,1.17-1.16,1.78-1.7.71-.64,1.44-1.25,2.2-1.82.92-.69,1.86-1.32,2.82-1.91.44-.26.88-.51,1.33-.75Z"
            fill="#dfafa4" stroke-width="0" />
          <path
            d="M103.53,112.23c-.49.19-.96.39-1.45.59-.53.21-1.04.45-1.55.69-.46.22-.91.45-1.36.69.45-.25.9-.48,1.36-.7.5-.25,1.02-.48,1.54-.69.48-.2.97-.4,1.46-.58Z"
            fill="#dfafa4" stroke-width="0" />
          <path
            d="M104.69,111.84c-.17.05-.35.11-.52.17-.14.05-.29.1-.43.15.14-.06.28-.11.42-.16.18-.06.35-.11.53-.16Z"
            fill="#dfafa4" stroke-width="0" />
          <path
            d="M113.66,110.37s-.06,0-.09-.01c-.02-.01-.04,0-.06-.01-.94.01-1.88.07-2.82.18-.19.02-.38.04-.57.07-.51.07-1.01.15-1.51.24.49-.1,1-.18,1.5-.25.19-.03.39-.05.58-.07.93-.11,1.88-.17,2.81-.18.05.02.11.03.16.03Z"
            fill="#dfafa4" stroke-width="0" />
          <path
            d="M114.18,110.38v.04s0,.03,0,.05v29.05h-.01v-25.91s-.02.01-.03.01v-3.28h-.01c-.13.01-.26.02-.4.03.13-.01.27-.04.4-.05h.04s0,.04.01.06Z"
            fill="#dfafa4" stroke-width="0" />
          <path
            d="M106.09,142.77c-1.1-1.9-2.73-3.19-4.81-3.93-2.76-.98-5.62-.36-7.79,1.15-.7.49-1.32,1.06-1.85,1.71-.07.07-.12.14-.18.21h-.01c-.35.47-.66.95-.91,1.46-1.09,2.24-1.33,4.56-.66,6.97.73,2.67,2.38,4.58,4.82,5.84,1.09.56,2.49.88,3.83.88.11,0,.23,0,.34-.01h0c.2-.01.4-.03.6-.05.18-.02.35-.04.53-.08.09-.02.19-.04.29-.06.35-.07.7-.17,1.05-.29.11-.04.22-.08.33-.13.14-.06.28-.11.42-.18.2-.09.39-.19.58-.29.15-.08.3-.17.45-.27.58-.36,1.12-.79,1.6-1.28.16-.15.31-.31.45-.48.25-.29.49-.61.7-.93.08-.12.16-.25.23-.38.1-.16.18-.31.26-.47.08-.15.16-.31.22-.47.09-.21.18-.42.25-.63,1.01-2.88.76-5.66-.75-8.29ZM102.14,150.45c-.3.24-.65.41-1.04.49-.15.03-.31.05-.47.05h-.08c-.13-.01-.26-.02-.39-.05-.07-.01-.15-.03-.22-.06-.07-.02-.14-.05-.21-.08-.07-.03-.14-.06-.21-.1-.13-.07-.26-.15-.37-.25-.35-.29-.62-.67-.76-1.11-.02-.06-.04-.12-.05-.17-.04-.18-.06-.36-.06-.55,0-.15.02-.3.05-.44.05-.27.15-.52.29-.75.02-.04.04-.08.07-.12.02-.03.04-.06.07-.09.01-.01.03-.03.04-.05.06-.07.13-.14.19-.2.05-.05.11-.1.17-.15.05-.05.11-.09.18-.13.06-.04.12-.08.19-.12.02-.02.05-.03.07-.04h.01s.08-.04.13-.05c.07-.04.14-.06.22-.08.07-.02.15-.04.22-.05.08-.02.16-.03.24-.04.08-.01.16-.01.24-.01.4,0,.78.11,1.12.29.2.11.39.25.54.41.43.42.69,1,.69,1.65,0,.72-.34,1.37-.87,1.8Z"
            fill="#dfafa4" stroke-width="0" />
          <path
            d="M103.01,148.65c0,.72-.34,1.37-.87,1.8-.3.24-.65.41-1.04.49-.15.03-.31.05-.47.05h-.08c-.13-.01-.26-.02-.39-.05-.07-.01-.15-.03-.22-.06-.07-.02-.14-.05-.21-.08-.07-.03-.14-.06-.21-.1-.13-.07-.26-.16-.37-.25-.35-.29-.62-.67-.76-1.11-.02-.06-.04-.12-.05-.17-.04-.18-.06-.36-.06-.55,0-.15.02-.3.05-.44.05-.27.15-.52.29-.75.04-.07.09-.14.14-.21.01-.01.03-.03.04-.05.06-.07.13-.14.19-.2.05-.05.11-.1.17-.15.05-.05.11-.09.18-.13.06-.04.12-.08.19-.12.03-.01.06-.03.09-.04.04-.02.08-.04.12-.05.07-.03.14-.06.22-.08.07-.02.15-.04.22-.05.08-.02.16-.03.24-.04.08-.01.16-.01.24-.01.4,0,.78.11,1.12.29.2.11.39.25.54.41.43.42.69,1,.69,1.65Z"
            fill="#252523" stroke-width="0" />
        </g>
        <path
          d="M150.82,256.75l4.63-.67-3.35-3.28.02-.05-.04-.03.8-4.63-4.15,2.19-.04-.03-.04.03-4.13-2.18.78,4.63-.04.03.02.05-3.35,3.28,4.63.67.02.05h.05l2.07,4.22,2.07-4.22h.05l.02-.05ZM153.3,255.38l-2.14.31.59-1.82,1.55,1.51ZM146.42,253.13l2.26-1.65,2.26,1.65-.86,2.67h-2.8l-.86-2.67ZM151.54,249.92l-.37,2.14-1.55-1.13,1.92-1.01ZM145.83,249.92l1.91,1.01-1.55,1.13-.36-2.14ZM144.06,255.38l1.55-1.51.59,1.82-2.14-.31ZM148.68,258.75l-.96-1.95h1.92l-.96,1.95Z"
          fill="#f9c0a0" stroke-width="0" />
      </g>
      <g id="sopraciglia" class="iconArrabbiato">
        <rect x="123.03" y="145.07" width="9.34" height="3.15"
          transform="translate(-48.57 64.53) rotate(-23.97)" fill="#f8c1b0" stroke-width="0" />
        <rect x="96.12" y="145.07" width="9.34" height="3.15"
          transform="translate(133.31 321.6) rotate(-156.03)" fill="#dfafa4" stroke-width="0" />
      </g>
    </g>
    <g id="icon">
      <path
        d="M137.27,118.26h-8.49v-2h8.49c.9,0,1.64-.74,1.64-1.64v-8.49h2v8.49c0,2.01-1.63,3.64-3.64,3.64Z"
        fill="#a11e21" stroke-width="0" />
      <path
        d="M154.6,118.26h-8.49c-2.01,0-3.64-1.63-3.64-3.64v-8.49h2v8.49c0,.9.74,1.64,1.64,1.64h8.49v2Z"
        fill="#a11e21" stroke-width="0" />
      <path
        d="M140.92,132.19h-2v-8.49c0-.9-.74-1.64-1.64-1.64h-8.49v-2h8.49c2.01,0,3.64,1.63,3.64,3.64v8.49Z"
        fill="#a11e21" stroke-width="0" />
      <path
        d="M144.47,132.19h-2v-8.49c0-2.01,1.63-3.64,3.64-3.64h8.49v2h-8.49c-.9,0-1.64.74-1.64,1.64v8.49Z"
        fill="#a11e21" stroke-width="0" />
    </g>
  </g>

</svg>