<?xml version="1.0" encoding="UTF-8"?>
<svg id="imbarazzato" xmlns="http://www.w3.org/2000/svg" viewBox="0 0 226.77 283.46">
  <def>
    <style>
      .gocciaAnimation{
        transition: all ;
        animation: gocciaAnimation 1.5s ease-out 1;
      }
      @keyframes gocciaAnimation {
        0%{
          opacity:1;
          transform: translateY(0%);
        }
        100%{
          opacity:0;
          transform: translateY(5%);
        }
      }

      .trimolioImbarrazato{
        animation: trimolioAnimation 1s ease-out 2 forwards;
      }
      @keyframes trimolioAnimation {
        0%{
          transform: translateY(0%);
        }
        50%{
          transform: translateY(-2%);
        }
        100%{
          transform: translateY(0%);
        }
      }
    </style>
  </def>
  <rect id="sfondo" x="0" y="0" width="226.77" height="283.46" fill="#53a9b8" stroke-width="0"/>
  <g id="corpo" >
    <g id="claudio">
      <g>
        <path d="M126.76,146.54s-.05-.02-.07-.03h0s.05,0,.07.03Z" fill="#f58925" stroke-width="0"/>
        <path d="M135.27,142.42c-.36-.39-.69-.8-.99-1.22,0,0,.02,0,.02,0,.35.38.68.78.97,1.21Z" fill="#f58925" stroke-width="0"/>
        <path d="M139.25,139.54c-.5,0-1,0-1.51.01-.12,0-.21-.02-.29-.09.08.06.17.08.29.08h1.51Z" fill="#f58925" stroke-width="0"/>
        <path d="M130.27,160.4c.14-.03.28-.06.42-.09-.14.04-.28.07-.43.1h0s.01-.01.01-.01Z" fill="#f58925" stroke-width="0"/>
        <path d="M140.3,146.76c.03.56.04,1.1.01,1.64.02-.54.02-1.09-.02-1.64,0-.11,0-.19.03-.24-.02.06-.03.14-.02.24Z" fill="#f58925" stroke-width="0"/>
        <path d="M141.56,146.36h-.9c-.08,0-.15,0-.2.02.05-.02.12-.03.21-.03.12,0,.25.01.37,0h.01c.17.01.34.01.51.01Z" fill="#f58925" stroke-width="0"/>
        <path d="M145.38,139.53s-.01.01-.01.01c-.07,0-.15,0-.22-.01h0c-.09-.41-.17-.82-.26-1.22t.01.01c.09.4.17.8.26,1.2.07.01.14.01.22.01Z" fill="#f58925" stroke-width="0"/>
        <path d="M140.51,127.2c-.13-.22-.26-.44-.4-.65-.58-.94-1.19-1.86-1.87-2.74t.02-.01c.67.88,1.28,1.8,1.86,2.74.13.22.27.44.39.66Z" fill="#f58925" stroke-width="0"/>
        <path d="M141.35,128.7c-.15-.28-.31-.56-.46-.83-.01,0-.01-.01-.01-.01-.12-.22-.25-.44-.37-.66.14.22.26.44.39.66.16.28.31.56.45.84Z" fill="#f58925" stroke-width="0"/>
        <path d="M135.27,142.42c-.36-.39-.69-.8-.99-1.22,0,0,.02,0,.02,0,.35.38.68.78.97,1.21Z" fill="#f58925" stroke-width="0"/>
        <path d="M136.24,138.18c-.44-.42-.9-.8-1.39-1.15.49.34.95.72,1.39,1.15Z" fill="#f58925" stroke-width="0"/>
        <path d="M139.25,139.54c-.5,0-1,0-1.51.01-.12,0-.21-.02-.29-.09.08.06.17.08.29.08h1.51Z" fill="#f58925" stroke-width="0"/>
        <path d="M141.56,146.36h-.48s-.02,0-.03-.01c.17.01.34.01.51.01Z" fill="#f58925" stroke-width="0"/>
        <path d="M145.38,139.53s-.01.01-.01.01c-.07,0-.15,0-.22-.01h0c-.09-.41-.17-.82-.26-1.22-.09-.47-.2-.94-.33-1.41-.27-.95-.57-1.89-.86-2.83-.3-.96-.73-1.89-1.12-2.82-.12-.29-.25-.58-.38-.86.14.28.27.56.39.85.39.93.82,1.85,1.12,2.82.29.94.59,1.88.86,2.83.14.47.24.96.33,1.43.09.4.17.8.26,1.2.07.01.14.01.22.01Z" fill="#f58925" stroke-width="0"/>
        <path d="M131.85,117.28c-.17-.14-.34-.28-.52-.41-.91-.68-1.84-1.32-2.82-1.91-.89-.54-1.81-1.04-2.76-1.49h0c.95.44,1.87.94,2.77,1.48.97.59,1.9,1.22,2.82,1.91.18.13.34.28.51.42Z" fill="#f58925" stroke-width="0"/>
        <path d="M140.51,127.2c-.13-.22-.26-.44-.4-.65-.58-.94-1.19-1.86-1.87-2.74-.14-.2-.3-.4-.46-.6-.79-.97-1.59-1.93-2.47-2.82-.58-.59-1.19-1.17-1.81-1.73-.16-.14-.32-.27-.47-.41.16.14.33.27.49.41.62.55,1.22,1.12,1.8,1.72.89.89,1.68,1.85,2.47,2.82.16.2.32.4.47.6.67.88,1.28,1.8,1.86,2.74.13.22.27.44.39.66Z" fill="#f58925" stroke-width="0"/>
        <path d="M140.9,127.86s-.01.01-.01.01c-.01,0-.01-.01-.01-.01-.12-.22-.25-.44-.37-.66.14.22.26.44.39.66Z" fill="#f58925" stroke-width="0"/>
        <path d="M117.76,110.84c-.5-.09-1.01-.17-1.52-.24-.22-.03-.43-.06-.65-.08h-.01c.22.01.45.04.67.07.51.07,1.01.15,1.51.25Z" fill="#f58925" stroke-width="0"/>
        <path d="M122.63,112.16c-.14-.05-.29-.1-.43-.15-.17-.06-.35-.12-.52-.17.18.05.36.1.53.16.14.05.28.1.42.16Z" fill="#f58925" stroke-width="0"/>
        <path d="M131.85,117.28c-.17-.14-.34-.28-.52-.41-.91-.68-1.84-1.32-2.82-1.91-.89-.54-1.81-1.04-2.76-1.49-.48-.23-.97-.45-1.47-.65-.5-.2-.98-.41-1.47-.6.5.18.99.39,1.48.59.49.2.98.42,1.46.65.95.45,1.87.95,2.77,1.49.97.59,1.9,1.22,2.82,1.91.18.13.34.28.51.42Z" fill="#f58925" stroke-width="0"/>
        <path d="M133.52,118.66h-.02c-.16-.14-.32-.27-.47-.41.16.14.33.27.49.41Z" fill="#f58925" stroke-width="0"/>
        <path d="M155.12,145.74c.84,1.63,1.31,3.43,1.31,5.33,0,3.76-1.83,7.14-4.77,9.54.29-.76.49-1.56.6-2.39.21-1.54.17-3.05-.14-4.56-.29-1.37-.78-2.65-1.54-3.82-.58-.89-1.24-1.71-2.05-2.35h-.01c-.44-.36-.92-.66-1.45-.89-.09-.04-.18-.08-.19-.2.58-.08,1.17-.02,1.74-.03,1.11-.03,1.72-.61,1.74-1.72.02-1.17.02-2.35,0-3.53,0-.22-.03-.42-.09-.6h-.01c-.21-.62-.72-.97-1.48-.98h-.3c-1.03-.02-2.07-.01-3.1-.01-.08,0-.15,0-.22-.01-.09-.4-.17-.8-.26-1.2-.09-.47-.19-.96-.33-1.43-.27-.95-.57-1.89-.86-2.83-.3-.97-.73-1.89-1.12-2.82-.12-.29-.25-.57-.39-.85-.09-.22-.2-.43-.31-.64-.04-.09-.09-.19-.14-.28l-.18-.36c-.07-.14-.14-.27-.22-.41-.14-.28-.29-.56-.45-.84-.13-.22-.25-.44-.39-.66-.12-.22-.26-.44-.39-.66-.58-.94-1.19-1.86-1.86-2.74-.15-.2-.31-.4-.47-.6-.79-.97-1.58-1.93-2.47-2.82-.58-.6-1.18-1.17-1.8-1.72-.16-.14-.33-.27-.49-.41-.05-.04-.11-.09-.16-.13-.32-.29-.65-.55-.98-.81-.01-.01-.03-.02-.04-.03-.17-.14-.33-.29-.51-.42-.92-.69-1.85-1.32-2.82-1.91-.9-.54-1.82-1.04-2.77-1.49-.48-.23-.97-.45-1.46-.65-.49-.2-.98-.41-1.48-.59-.06-.03-.12-.05-.18-.06-.14-.06-.28-.11-.42-.16-.17-.06-.35-.11-.53-.16-.31-.11-.62-.2-.93-.29h-.01c-.49-.15-.98-.28-1.47-.39-.27-.07-.54-.13-.81-.17-.23-.06-.47-.11-.7-.15-.5-.1-1-.18-1.51-.25-.22-.03-.45-.06-.67-.08-.9-.1-1.82-.16-2.72-.17-.22.08-.43-.02-.66-.02v-18.34h-.05v-9.64c4.64,0,9.03,1.93,11.82,5.69.86,1.15,1.5,2.4,1.95,3.69h0c6.09-2.34,12.85-.88,16.52,4.06,1.09,1.47,1.81,3.1,2.17,4.82,6.98,1.35,12.21,6.88,12.21,13.48,0,3.11-1.16,5.98-3.12,8.29,5.33,2.06,9.04,6.66,9.04,12,0,4.85-3.06,9.09-7.62,11.37Z" fill="#f58925" stroke-width="0"/>
        <path d="M117.76,110.84c-.5-.09-1.01-.17-1.52-.24-.22-.03-.43-.06-.65-.08-.91-.1-1.83-.16-2.74-.17-.22.08-.44,0-.65-.02,0,.05,0,.09-.01.14v3.14h-.01s-.02.01-.03.01v-21.64h.05v18.34c.23,0,.44.1.66.02.9.01,1.82.07,2.72.17.22.02.45.05.67.08.51.07,1.01.15,1.51.25Z" fill="#f58925" stroke-width="0"/>
      </g>
      <g>
        <path d="M79.48,138.3c-.08.41-.16.81-.26,1.22h0c-.07.02-.14.02-.21.02,0,0,0-.01-.01-.01.08,0,.14,0,.21-.01.09-.4.17-.81.26-1.22h0Z" fill="#c87223" stroke-width="0"/>
        <path d="M83.91,146.38s-.12-.02-.2-.02h-.49s.02,0,.04-.01c.15.01.3,0,.45,0,.08,0,.15.01.2.03Z" fill="#c87223" stroke-width="0"/>
        <path d="M84.07,146.76c.01-.1,0-.18-.02-.24.03.05.04.13.03.24-.07,1.05-.03,2.07.1,3.06-.15-.99-.18-2.01-.11-3.06Z" fill="#c87223" stroke-width="0"/>
        <path d="M86.67,139.54s-.02.01-.04.01c-.5-.01-1-.01-1.5-.01h1.54Z" fill="#c87223" stroke-width="0"/>
        <path d="M87.81,138.51c-.14.13-.27.27-.4.41.12-.15.25-.29.39-.42h.01Z" fill="#c87223" stroke-width="0"/>
        <path d="M94.05,160.39h0s-.01,0-.02,0h.02Z" fill="#c87223" stroke-width="0"/>
        <path d="M96.85,147.13c-.08.09-.15.19-.22.3.02-.04.04-.08.07-.12.04-.06.09-.13.14-.18h0Z" fill="#c87223" stroke-width="0"/>
        <path d="M84.8,125.69c-.18.28-.36.57-.54.86-.26.43-.52.87-.77,1.31-.1.17-.2.35-.29.53.09-.17.18-.35.27-.53.25-.44.51-.88.78-1.32.18-.29.35-.57.55-.85Z" fill="#c87223" stroke-width="0"/>
        <path d="M86.11,123.84c-.13.16-.25.32-.38.49.12-.17.24-.33.37-.5,0,.01.01.01.01.01Z" fill="#c87223" stroke-width="0"/>
        <path d="M112.14,82.34v27.98c-.13,0-.26.04-.38.05h-.02s-.09,0-.14-.01h-.03s-.03-.01-.05-.01h-.01c-.28-.01-.56,0-.84.02-.28.01-.57.03-.85.05-.29.01-.57.04-.85.08-.09,0-.18.01-.27.02-.19.02-.39.04-.58.07-.5.07-1.01.15-1.5.25-.26.05-.52.1-.77.16h0c-.24.04-.48.1-.72.16h-.01c-.49.12-.98.25-1.47.39h-.01c-.27.08-.54.16-.81.25-.22.06-.44.13-.65.2-.11.04-.21.08-.32.12-.03.01-.07.03-.1.04-.07.01-.14.04-.2.07-.5.18-.98.38-1.47.58-.52.21-1.04.44-1.54.69-.16.08-.32.15-.47.24-.11.04-.21.1-.31.16-.29.15-.58.31-.87.47-.35.18-.7.38-1.04.58-.96.59-1.9,1.22-2.82,1.91-.76.57-1.49,1.18-2.2,1.82-.61.54-1.2,1.11-1.78,1.7-.88.89-1.68,1.85-2.47,2.82-.17.21-.33.42-.48.63-.13.17-.25.33-.37.5h0c-.12.17-.24.34-.36.51-.19.28-.38.56-.57.85-.2.28-.37.56-.55.85-.27.44-.53.88-.78,1.32-.09.18-.18.36-.27.53-.01,0-.01.02-.02.03-.14.27-.29.53-.43.8h0c-.14.28-.28.54-.41.82-.2.39-.39.79-.56,1.2-.39.93-.81,1.85-1.11,2.82-.3.94-.6,1.88-.87,2.83-.13.47-.24.94-.33,1.41-.09.41-.17.82-.26,1.22-.07.01-.13.01-.21.01-1.06,0-2.13-.01-3.18.01h-.23c-.73.01-1.24.34-1.46.92h0c-.07.2-.11.41-.11.66-.02,1.18-.02,2.36,0,3.53.02,1.11.62,1.69,1.73,1.72.58.01,1.16-.05,1.73.03h.01c-.01.12-.1.16-.19.2-.54.24-1.02.54-1.46.89-.81.64-1.46,1.46-2.04,2.35-.77,1.17-1.26,2.45-1.55,3.82-.3,1.51-.34,3.02-.13,4.56.11.86.32,1.69.62,2.47-3-2.41-4.87-5.83-4.87-9.62,0-1.89.47-3.69,1.31-5.32-4.56-2.28-7.63-6.52-7.63-11.38,0-5.35,3.71-9.95,9.05-12-1.96-2.31-3.12-5.18-3.12-8.29,0-6.6,5.21-12.12,12.19-13.48.36-1.72,1.08-3.35,2.17-4.82,3.67-4.94,10.43-6.4,16.53-4.05h0c.45-1.3,1.1-2.55,1.95-3.7,2.79-3.76,7.18-5.69,11.82-5.69Z" fill="#c87223" stroke-width="0"/>
        <path d="M82.34,130.04c-.19.4-.38.8-.55,1.21-.39.93-.81,1.86-1.11,2.82-.3.94-.6,1.88-.87,2.83-.13.47-.23.93-.33,1.4-.08.41-.16.81-.26,1.22h0c-.07.02-.14.02-.21.02,0,0,0-.01-.01-.01.08,0,.14,0,.21-.01.09-.4.17-.81.26-1.22.09-.47.2-.94.33-1.41.27-.95.57-1.89.87-2.83.3-.97.72-1.89,1.11-2.82.17-.41.36-.81.56-1.2Z" fill="#c87223" stroke-width="0"/>
        <path d="M86.67,139.54s-.02.01-.04.01c-.5-.01-1-.01-1.5-.01h1.54Z" fill="#c87223" stroke-width="0"/>
        <path d="M88.78,137.6c-.34.28-.66.59-.97.91-.14.13-.27.27-.4.41.12-.15.25-.29.39-.42.31-.33.64-.63.98-.9Z" fill="#c87223" stroke-width="0"/>
        <path d="M84.8,125.69c-.18.28-.36.57-.54.86-.26.43-.52.87-.77,1.31h-.02c.25-.44.51-.88.78-1.32.18-.29.35-.57.55-.85Z" fill="#c87223" stroke-width="0"/>
        <path d="M96.89,114.37c-.35.19-.69.39-1.03.59-.97.59-1.91,1.23-2.82,1.91-.76.57-1.49,1.18-2.19,1.82-.61.54-1.21,1.11-1.79,1.7-.87.89-1.68,1.85-2.47,2.82-.17.21-.33.42-.48.63-.13.16-.25.32-.38.49.12-.17.24-.33.37-.5.15-.21.31-.42.48-.63.79-.97,1.59-1.93,2.47-2.82.58-.59,1.17-1.16,1.78-1.7.71-.64,1.44-1.25,2.2-1.82.92-.69,1.86-1.32,2.82-1.91.34-.2.69-.4,1.04-.58Z" fill="#c87223" stroke-width="0"/>
        <path d="M98.54,113.5h0c-.16.09-.31.16-.47.24.15-.09.31-.16.47-.24Z" fill="#c87223" stroke-width="0"/>
        <path d="M96.89,114.37c-.35.19-.69.39-1.03.59-.97.59-1.91,1.23-2.82,1.91-.76.57-1.49,1.18-2.19,1.82,0,0,0-.01-.02-.01.71-.64,1.44-1.25,2.2-1.82.92-.69,1.86-1.32,2.82-1.91.34-.2.69-.4,1.04-.58Z" fill="#c87223" stroke-width="0"/>
        <path d="M101.55,112.23c-.49.19-.97.39-1.46.59-.53.21-1.04.45-1.55.69-.16.08-.31.15-.47.23.15-.09.31-.16.47-.24.5-.25,1.02-.48,1.54-.69.49-.2.97-.4,1.47-.58Z" fill="#c87223" stroke-width="0"/>
        <path d="M102.82,111.8c-.22.07-.43.14-.64.21-.11.04-.22.07-.33.11.11-.04.21-.08.32-.12.21-.07.43-.14.65-.2Z" fill="#c87223" stroke-width="0"/>
        <path d="M108.7,110.52h0c-.19.03-.38.05-.57.08-.51.07-1.01.15-1.51.24.49-.1,1-.18,1.5-.25.19-.03.39-.05.58-.07Z" fill="#c87223" stroke-width="0"/>
        <path d="M108.97,110.5c-.09.01-.18.02-.27.03-.19.02-.38.04-.57.07-.51.07-1.01.15-1.51.24.49-.1,1-.18,1.5-.25.19-.03.39-.05.58-.07.09,0,.18-.02.27-.02Z" fill="#c87223" stroke-width="0"/>
        <path d="M111.52,110.35c-.28,0-.57.01-.85.02.28-.02.56-.03.84-.03h.01Z" fill="#c87223" stroke-width="0"/>
        <path d="M112.14,110.32v.02c-.07,0-.13.01-.19.02-.06,0-.12.01-.19.01.12-.01.25-.04.38-.05Z" fill="#c87223" stroke-width="0"/>
      </g>
      <g>
        <path d="M132.76,190.21v7.85l-3.02,10.79v-1.53l-13.83,3.68h-3.72v-13.82h.93c1.17,0,2.33-.12,3.49-.21,1.5-.12,2.96-.46,4.42-.79.83-.19,1.62-.45,2.43-.73,1-.34,1.96-.73,2.92-1.15,1.01-.44,1.94-1,2.88-1.56,1.24-.74,2.36-1.65,3.5-2.53h0Z" fill="#ef9d94" stroke-width="0"/>
        <polygon points="125.09 225.45 113.74 256.43 112.19 260.68 112.18 260.66 112.18 223.53 116.04 223.53 125.09 225.45" fill="#fbfbfb" stroke-width="0"/>
        <path d="M132.81,197.8v.11l-.05.14-3.02,10.79v-1.53l-13.83,3.68h-2.76c3.01-7.42,17.89-12.61,19.61-13.17.02,0,.04,0,.05-.02h0Z" fill="#fbfbfb" stroke-width="0"/>
        <polygon points="145.97 209.07 145.94 209.1 134.27 224.45 129.8 226.1 129.74 226.12 129.74 208.84 132.76 198.05 132.8 197.91 132.81 197.87 145.97 209.07" fill="#4b366a" stroke-width="0"/>
        <g>
          <polygon points="112.26 213.07 112.19 213.24 112.19 213.07 112.26 213.07" fill="#04c0b1" stroke-width="0"/>
          <polygon points="129.74 207.31 129.74 226.43 129.2 226.32 126.82 225.81 125.09 225.45 116.04 223.53 116.04 210.99 115.91 210.99 129.74 207.31" fill="#04c0b1" stroke-width="0"/>
          <polygon points="116.04 210.99 116.04 223.53 112.18 223.53 112.18 213.24 112.26 213.07 112.18 213.07 112.18 210.99 116.04 210.99" fill="#03a193" stroke-width="0"/>
          <polygon points="112.26 213.07 112.19 213.24 112.19 213.07 112.26 213.07" fill="#03a193" stroke-width="0"/>
        </g>
        <path d="M133.78,240.5s-3.45,7-6.82,12.27c-.02.03-.04.07-.07.1-.39.53-1.74,2.02-3.48,3.89-4.19,4.49-10.6,11.14-11.17,11.83l-.05-7.89h0l1.55-4.26,11.35-30.98,1.73.36,2.38.51-1.05.38,1.25,3.07,4.37,10.74h0Z" fill="#4b366a" stroke-width="0"/>
      </g>
      <g>
        <path d="M152.26,158.22c-.11.83-.31,1.63-.6,2.39-.33.9-.78,1.75-1.35,2.54-1.18,1.65-2.67,2.89-4.69,3.38-.49.12-1,.18-1.51.19-.2,0-.31.05-.33.29-.14,1.77-.54,3.49-.94,5.21-.32,1.38-.69,2.75-1.16,4.09-.32.95-.68,1.88-1.07,2.8-.65,1.55-1.42,3.05-2.29,4.48-.83,1.35-1.75,2.62-2.79,3.81-.8.93-1.63,1.82-2.58,2.6-.06.05-.1.11-.15.17-.02.01-.04.03-.05.04-1.13.88-2.26,1.79-3.5,2.53-.94.56-1.87,1.12-2.88,1.56-.96.42-1.92.8-2.92,1.14-.8.27-1.61.54-2.43.73-1.46.33-2.91.67-4.42.79-1.16.09-2.33.21-3.49.21h-.92v-50.77c1.05-.05,2.07-.02,3.12-.02h.01s.1.01.13.02c.02.01.03.02.04.04.01.01.02.03.02.06v.02s-.01.03-.01.05c-.09.64-.09,1.29-.06,1.93.01.25.03.49.04.73,0,.19-.07.39.07.56.08.39.16.77.25,1.16.09.38.19.77.31,1.14.17.48.36.95.57,1.39.16.33.32.65.51.96.18.32.37.62.57.91.26.38.55.75.86,1.09.16.18.32.35.48.51,1.3,1.31,2.91,2.31,4.8,3,.17.06.33.12.5.17.14.04.28.08.42.12s.28.08.42.11c.01.01.02.01.03.01.08.01.15.03.22.05.03.01.07.01.1.02.02,0,.04.01.06.01.21.04.41.08.61.1.05.01.09.01.14.02.21.03.43.05.63.07h.05c.23.02.45.03.67.03h.07c.21,0,.43-.01.65-.02.1,0,.2-.01.3-.02.11,0,.21-.02.31-.03.2-.01.4-.04.6-.08.19-.02.39-.06.58-.1.15-.03.29-.06.43-.1.14-.03.28-.07.41-.11.13-.04.27-.08.4-.12.13-.04.27-.09.4-.14.13-.04.27-.1.4-.15s.26-.11.39-.16h.01c.25-.12.51-.24.75-.37.25-.13.5-.27.74-.42.02-.01.03-.02.04-.02.12-.08.23-.15.34-.22.12-.08.23-.15.34-.23.23-.16.46-.34.68-.52.21-.17.42-.35.62-.54.01,0,.02-.01.03-.02.04-.04.08-.07.11-.1.33-.31.63-.64.93-.98.25-.29.47-.57.69-.87.11-.15.21-.3.31-.45.1-.15.2-.31.29-.46.07-.1.12-.2.18-.31.11-.19.21-.38.3-.57.13-.25.24-.5.35-.76.14-.34.26-.7.37-1.05.04-.14.08-.29.12-.44.01-.04.01-.07.02-.11.05-.18.09-.35.13-.53.05-.18.08-.36.1-.55.01-.02.01-.04.01-.06.03-.17.05-.34.07-.51.03-.18.05-.37.06-.56,0-.19.02-.39.03-.58.03-.54.02-1.08-.01-1.64-.01-.1,0-.18.02-.24.01-.02.02-.05.03-.07l.03-.03s.05-.03.08-.04c.05-.02.12-.02.2-.02h.9c.6,0,1.2-.01,1.81,0,1.17.01,2.35-.04,3.51.04.01.12.1.16.19.2.53.23,1.01.53,1.45.89h.01c.81.64,1.47,1.46,2.05,2.35.76,1.17,1.25,2.45,1.54,3.82.31,1.51.35,3.02.14,4.56Z" fill="#f8c1b0" stroke-width="0"/>
        <rect x="112.18" y="146.4" width=".01" height="50.77" fill="#f8c1b0" stroke-width="0"/>
        <path d="M140.31,148.4c.02-.54.02-1.09-.02-1.64,0-.11,0-.19.03-.24-.02.06-.03.14-.02.24.03.56.04,1.1.01,1.64Z" fill="#f8c1b0" stroke-width="0"/>
        <path d="M117.76,110.84c-.5-.09-1.01-.17-1.52-.24-.22-.03-.43-.06-.65-.08-.91-.1-1.83-.16-2.74-.17-.22.08-.44,0-.65-.02h-.03v-18.35h.03v18.34c.23,0,.44.1.66.02.9.01,1.82.07,2.72.17.22.02.45.05.67.08.51.07,1.01.15,1.51.25Z" fill="#f58925" stroke-width="0"/>
        <path d="M122.63,112.16c-.14-.05-.29-.1-.43-.15-.17-.06-.35-.12-.52-.17.18.05.36.1.53.16.14.05.28.1.42.16Z" fill="#f58925" stroke-width="0"/>
        <path d="M131.85,117.28c-.17-.14-.34-.28-.52-.41-.91-.68-1.84-1.32-2.82-1.91-.89-.54-1.81-1.04-2.76-1.49-.48-.23-.97-.45-1.47-.65-.5-.2-.98-.41-1.47-.6.5.18.99.39,1.48.59.49.2.98.42,1.46.65.95.45,1.87.95,2.77,1.49.97.59,1.9,1.22,2.82,1.91.18.13.34.28.51.42Z" fill="#f58925" stroke-width="0"/>
        <path d="M140.51,127.2c-.13-.22-.26-.44-.4-.65-.58-.94-1.19-1.86-1.87-2.74-.14-.2-.3-.4-.46-.6-.79-.97-1.59-1.93-2.47-2.82-.58-.59-1.19-1.17-1.81-1.73-.16-.14-.32-.27-.47-.41.16.14.33.27.49.41.62.55,1.22,1.12,1.8,1.72.89.89,1.68,1.85,2.47,2.82.16.2.32.4.47.6.67.88,1.28,1.8,1.86,2.74.13.22.27.44.39.66Z" fill="#f58925" stroke-width="0"/>
        <path d="M141.35,128.7c-.15-.28-.31-.56-.46-.83-.01,0-.01-.01-.01-.01-.12-.22-.25-.44-.37-.66.14.22.26.44.39.66.16.28.31.56.45.84Z" fill="#f58925" stroke-width="0"/>
        <path d="M145.38,139.53s-.01.01-.01.01c-.07,0-.15,0-.22-.01h0c-.09-.41-.17-.82-.26-1.22-.09-.47-.2-.94-.33-1.41-.27-.95-.57-1.89-.86-2.83-.3-.96-.73-1.89-1.12-2.82-.12-.29-.25-.58-.38-.86.14.28.27.56.39.85.39.93.82,1.85,1.12,2.82.29.94.59,1.88.86,2.83.14.47.24.96.33,1.43.09.4.17.8.26,1.2.07.01.14.01.22.01Z" fill="#f58925" stroke-width="0"/>
        <path d="M145.16,139.52h0c.07.02.15.02.22.02,0,0,0-.01.01-.01-.08,0-.15,0-.22-.01ZM140.3,146.76c-.01-.1,0-.18.02-.24-.03.05-.04.13-.03.24.04.55.04,1.1.02,1.64.03-.54.02-1.08-.01-1.64Z" fill="#272623" stroke-width="0"/>
        <path d="M150.27,140.52h-.01c-.21-.62-.72-.97-1.48-.98h-.3c-1.03-.02-2.07-.01-3.1-.01-.01,0-.01.01-.01.01-.07,0-.15,0-.22-.01h0c-1.46-.01-2.93,0-4.4.01h-1.5c-.5,0-1,0-1.51.01-.12,0-.21-.02-.29-.09-.03-.02-.06-.05-.09-.09-.17-.21-.35-.41-.54-.6-.07-.1-.16-.19-.26-.28-.1-.11-.21-.22-.32-.31-.44-.42-.9-.8-1.39-1.15,0-.02-.03-.03-.04-.03-.16-.11-.33-.22-.49-.32-.17-.12-.34-.22-.52-.31-.09-.05-.18-.1-.27-.14-.15-.09-.3-.17-.46-.23-.3-.15-.62-.29-.94-.4-.09-.04-.18-.07-.28-.1-.15-.05-.3-.1-.46-.14-.08-.03-.15-.06-.23-.07-4.13-1.14-7.87-.24-11.19,2.42-.59.47-1.13,1.01-1.59,1.6-.09.13-.18.22-.35.22h-5.85v6.86c1.05-.05,2.08-.02,3.13-.01h.01s.1.01.13.02c.02.01.03.02.04.04.01.01.02.03.02.06v.07c-.09.64-.09,1.29-.07,1.93.01.25.03.49.04.73.03.07.05.13.06.2.02.12.02.24.01.36.08.39.16.77.25,1.16.09.38.19.77.32,1.14.17.48.36.95.56,1.39.16.33.33.65.51.96.18.32.37.62.57.91.27.38.56.75.86,1.09.16.18.32.35.48.51,1.3,1.31,2.91,2.31,4.8,3,.17.06.33.12.5.17.14.04.28.08.42.12s.28.08.42.11c.01.01.02.01.03.01.08.01.15.03.22.05.03.01.07.01.1.02.02,0,.04.01.06.01.21.04.41.07.61.1.05.01.09.01.14.02.21.03.43.05.63.07h.05c.23.02.45.03.67.03h.07c.21,0,.43-.01.65-.02.1,0,.2-.01.3-.02.11,0,.21-.02.31-.03.2-.02.4-.05.6-.08.19-.03.39-.07.58-.11h.01c.14-.03.28-.06.42-.09.14-.03.28-.07.41-.11.13-.04.27-.08.4-.12.13-.04.27-.09.4-.14.13-.04.27-.1.4-.15s.26-.11.39-.16h.01c.25-.12.51-.24.75-.37.25-.13.5-.27.74-.42.02-.01.03-.02.04-.02.12-.08.23-.15.34-.22.12-.08.23-.15.34-.23.23-.16.46-.34.68-.52.21-.17.42-.35.62-.54.01,0,.02-.01.03-.02.04-.04.08-.07.11-.1.33-.31.63-.64.93-.98.25-.29.47-.57.69-.87.11-.15.21-.3.31-.45.1-.15.2-.31.29-.46.07-.1.12-.2.18-.31.11-.19.21-.38.3-.57.13-.25.24-.5.35-.76.14-.34.26-.7.37-1.05.04-.14.08-.29.12-.44.01-.04.01-.07.02-.11.05-.18.09-.35.13-.53.04-.18.07-.37.1-.55.01-.02.01-.04.01-.06.03-.17.05-.34.07-.51.03-.18.05-.37.06-.56,0-.19.02-.39.03-.58.02-.54.02-1.09-.02-1.64,0-.11,0-.19.03-.24.01-.02.02-.05.03-.07l.03-.03s.05-.03.08-.04c.05-.02.12-.03.21-.03.12,0,.25.01.37,0h.01c.17.01.34.01.51.01.6,0,1.2-.01,1.81,0,1.17.01,2.35-.04,3.51.04.58-.08,1.17-.02,1.74-.03,1.11-.03,1.72-.61,1.74-1.72.02-1.17.02-2.35,0-3.53,0-.22-.03-.42-.09-.6ZM136.49,150.34c-.07.27-.16.52-.25.77-.82,2.27-2.37,3.93-4.57,5.07-1.1.56-2.49.88-3.84.88-.14,0-.27,0-.41-.02h-.02c-1.76-.1-3.44-.74-4.82-1.79-.26-.2-.51-.41-.75-.63-.08-.07-.15-.14-.22-.22-.16-.15-.3-.31-.45-.48-.71-.83-1.27-1.79-1.64-2.86-1.01-2.88-.76-5.66.76-8.29,1.09-1.9,2.72-3.19,4.81-3.92,2.73-.98,5.57-.37,7.74,1.12.52.34,1.01.76,1.43,1.2l.02.02h0s.02.02.02.02c.35.38.68.78.97,1.21,0,.01.01.01.02.02.19.3.37.61.53.93.16.33.3.65.42.98.72,1.94.81,3.93.25,5.99Z" fill="#272623" stroke-width="0"/>
        <path d="M132.78,197.16v.08s0-.05,0-.08Z" fill="#4b366a" stroke-width="0"/>
        <path d="M132.81,197.12s-.02.02-.03.04v-.05h.03Z" fill="#4b366a" stroke-width="0"/>
        <path d="M115.55,149.79c-.14-.17-.08-.37-.07-.56.03.07.05.13.06.2.02.12.02.24.01.36Z" fill="#deaea3" stroke-width="0"/>
        <path d="M112.2,110.33c0,.1-.01.18-.01.28v-.28h.01Z" fill="#deaea3" stroke-width="0"/>
        <path d="M145.15,139.52c-1.46,0-2.93.01-4.4.02h-3.01c-.12,0-.21-.02-.29-.08-.03-.02-.06-.05-.09-.09-.17-.21-.35-.41-.54-.6-.07-.1-.16-.19-.26-.28-.1-.11-.21-.22-.32-.31-.44-.43-.9-.81-1.39-1.15,0-.02-.03-.03-.04-.03-.16-.12-.32-.23-.49-.32-.17-.12-.34-.22-.52-.31-.09-.06-.18-.11-.27-.14-.15-.09-.3-.17-.46-.23-.3-.15-.62-.29-.94-.4h0c-.09-.04-.19-.07-.28-.1-.15-.05-.3-.1-.46-.14-.08-.03-.15-.06-.23-.07h0c-4.13-1.15-7.87-.25-11.19,2.41-.59.47-1.13,1-1.59,1.6-.09.13-.18.22-.35.22h-5.83v-29.05s.01-.09.01-.14c.21.02.43.1.65.02.91.01,1.83.07,2.74.17.22.02.43.05.65.08.51.07,1.02.15,1.52.24.23.04.47.09.7.15.27.04.54.1.81.17.5.12.98.25,1.47.39h.01c.31.09.62.18.93.29.17.05.35.11.52.17.14.05.29.1.43.15.06.01.12.03.18.06.49.19.97.4,1.47.6.5.2.99.42,1.47.65.95.45,1.87.95,2.76,1.49.98.59,1.91,1.23,2.82,1.91.18.13.35.27.52.41.01.01.03.02.04.03.33.27.66.53.98.81.05.04.11.09.16.13.15.14.31.27.47.41.62.56,1.23,1.14,1.81,1.73.88.89,1.68,1.85,2.47,2.82.16.2.32.4.46.6.68.88,1.29,1.8,1.87,2.74.14.21.27.43.4.65.12.22.25.44.37.66,0,0,0,.01.01.01.15.27.31.55.46.83.08.14.15.27.22.41l.18.36c.05.09.1.19.14.28.11.21.22.42.31.64.13.28.26.57.38.86.39.93.82,1.86,1.12,2.82.29.94.59,1.88.86,2.83.13.47.24.94.33,1.41.09.4.17.81.26,1.21Z" fill="#f8c1b0" stroke-width="0"/>
        <path d="M112.18,110.61s0-.09.01-.14v29.05h-.01v-28.91Z" fill="#f8c1b0" stroke-width="0"/>
        <path d="M117.76,110.84c-.5-.09-1.01-.17-1.52-.24-.22-.03-.43-.06-.65-.08-.91-.1-1.83-.16-2.74-.17-.22.08-.44,0-.65-.02,0,.05,0,.09-.01.14v-.15h.01c.23,0,.44.1.66.02.9.01,1.82.07,2.72.17.22.02.45.05.67.08.51.07,1.01.15,1.51.25Z" fill="#f8c1b0" stroke-width="0"/>
        <path d="M122.63,112.16c-.14-.05-.29-.1-.43-.15-.17-.06-.35-.12-.52-.17.18.05.36.1.53.16.14.05.28.1.42.16Z" fill="#f8c1b0" stroke-width="0"/>
        <path d="M131.85,117.28c-.17-.14-.34-.28-.52-.41-.91-.68-1.84-1.32-2.82-1.91-.89-.54-1.81-1.04-2.76-1.49-.48-.23-.97-.45-1.47-.65-.5-.2-.98-.41-1.47-.6.5.18.99.39,1.48.59.49.2.98.42,1.46.65.95.45,1.87.95,2.77,1.49.97.59,1.9,1.22,2.82,1.91.18.13.34.28.51.42Z" fill="#f8c1b0" stroke-width="0"/>
        <path d="M140.51,127.2c-.13-.22-.26-.44-.4-.65-.58-.94-1.19-1.86-1.87-2.74-.14-.2-.3-.4-.46-.6-.79-.97-1.59-1.93-2.47-2.82-.58-.59-1.19-1.17-1.81-1.73-.16-.14-.32-.27-.47-.41.16.14.33.27.49.41.62.55,1.22,1.12,1.8,1.72.89.89,1.68,1.85,2.47,2.82.16.2.32.4.47.6.67.88,1.28,1.8,1.86,2.74.13.22.27.44.39.66Z" fill="#f8c1b0" stroke-width="0"/>
        <path d="M141.35,128.7c-.15-.28-.31-.56-.46-.83-.01,0-.01-.01-.01-.01-.12-.22-.25-.44-.37-.66.14.22.26.44.39.66.16.28.31.56.45.84Z" fill="#f8c1b0" stroke-width="0"/>
        <path d="M145.16,139.52h0c-.09-.4-.17-.81-.26-1.21-.09-.47-.2-.94-.33-1.41-.27-.95-.57-1.89-.86-2.83-.3-.96-.73-1.89-1.12-2.82-.12-.29-.25-.58-.38-.86.14.28.27.56.39.85.39.93.82,1.85,1.12,2.82.29.94.59,1.88.86,2.83.14.47.24.96.33,1.43.09.4.17.8.26,1.2Z" fill="#f8c1b0" stroke-width="0"/>
        <path d="M134.3,141.21s-.01,0-.02,0c.3.42.63.83.99,1.22-.29-.43-.62-.83-.97-1.21Z" fill="#f8c1b0" stroke-width="0"/>
        <path d="M136.24,144.35c-.12-.33-.26-.65-.42-.98-.16-.32-.34-.63-.53-.93,0-.01-.02-.01-.02-.02-.36-.39-.69-.8-.99-1.22h0s-.01-.02-.02-.03c-.42-.44-.91-.86-1.43-1.2-2.17-1.49-5.01-2.1-7.74-1.12-2.09.73-3.72,2.02-4.81,3.92-1.52,2.63-1.77,5.41-.76,8.29.37,1.07.93,2.03,1.64,2.86.15.16.3.33.45.48.07.08.14.15.22.22.24.22.49.43.75.63,1.38,1.05,3.06,1.69,4.82,1.79h.02c.14.02.27.02.41.02,1.35,0,2.74-.32,3.84-.88,2.2-1.14,3.75-2.8,4.57-5.07.09-.25.18-.5.25-.77.56-2.06.47-4.05-.25-5.99ZM127.89,149.55c-.09.21-.21.41-.35.58-.05.05-.1.11-.15.16-.05.06-.11.11-.17.16-.41.33-.92.54-1.48.54h-.01c-1.3,0-2.38-1.06-2.38-2.34,0-.65.26-1.23.69-1.65.15-.16.34-.3.54-.41.34-.18.72-.29,1.12-.29.17,0,.33.02.48.05.08.01.15.03.23.05.07.02.15.05.22.08.02.01.04.02.06.02.02.01.05.02.07.04.39.18.71.47.94.82.06.08.11.17.15.26.05.1.09.2.12.3h0c.03.11.06.21.07.32.03.12.04.25.04.38.01.33-.06.64-.19.93Z" fill="#f8c1b0" stroke-width="0"/>
        <path d="M128.08,148.62c.01.33-.06.64-.19.93-.09.21-.21.41-.35.58-.05.05-.1.11-.15.16-.05.06-.11.11-.17.16-.41.33-.92.54-1.48.54h-.01c-1.3,0-2.38-1.06-2.38-2.34,0-.65.26-1.23.69-1.65.15-.16.34-.3.54-.41.34-.18.72-.29,1.12-.29.17,0,.33.02.48.05.08.01.15.03.23.05.07.02.15.05.22.08.02.01.04.02.06.02h0s.05.03.07.04c.39.18.71.47.94.82.06.08.11.17.15.26.05.1.09.2.12.3h0c.03.11.06.21.07.32.03.12.04.25.04.38Z" fill="#272623" stroke-width="0"/>
      </g>
      <g>
        <path d="M179.8,283.36h-67.63v-22.67h0l.05,7.89c.57-.69,6.98-7.33,11.17-11.83,1.74-1.87,3.1-3.36,3.48-3.89.03-.03.05-.07.07-.1,3.38-5.27,6.82-12.27,6.82-12.27l-4.37-10.74-1.25-3.07,1.05-.38.54.11v-.31l.06-.02,4.47-1.65,1.96-2.58,9.71-12.77c6.74,5.8,14.24,13.1,20.45,23.1,1.69,2.71,3.29,5.62,4.74,8.75,2.17,4.64,4.04,9.78,5.49,15.48l3.19,26.94h0Z" fill="#654092" stroke-width="0"/>
        <polygon points="112.19 260.68 112.19 260.69 112.18 260.69 112.18 260.66 112.19 260.68" fill="#654092" stroke-width="0"/>
        <path d="M91.61,190.21v7.85l3.02,10.79v-1.53l13.83,3.68h3.72v-13.82h-.93c-1.17,0-2.33-.12-3.49-.21-1.5-.12-2.96-.46-4.42-.79-.83-.19-1.62-.45-2.43-.73-1-.34-1.96-.73-2.92-1.15-1.01-.44-1.94-1-2.88-1.56-1.24-.74-2.36-1.65-3.5-2.53h0Z" fill="#e0a79f" stroke-width="0"/>
        <path d="M112.18,268.64v14.72h-57.25v.1h-11.94v-.1l4.76-26.94c1.8-7.13,4.28-13.38,7.18-18.9,6.69-12.79,15.61-21.65,23.5-28.43l4.78,6.28,6.89,9.07,4.47,1.65.06.02v.31l.54-.11,1.05.38-1.25,3.07-4.37,10.74s3.45,7,6.82,12.27c.02.03.04.06.07.1.39.53,1.75,2.02,3.49,3.9,4.21,4.5,10.65,11.19,11.21,11.88Z" fill="#412d75" stroke-width="0"/>
        <polygon points="112.18 223.53 112.18 260.66 110.62 256.43 99.27 225.45 108.32 223.53 112.18 223.53" fill="#dbcee7" stroke-width="0"/>
        <path d="M91.56,197.8v.11l.05.14,3.02,10.79v-1.53l13.83,3.68h2.76c-3.01-7.42-17.89-12.61-19.61-13.17-.02,0-.04,0-.05-.02h0Z" fill="#dbcee7" stroke-width="0"/>
        <path d="M112.18,260.66v7.98c-.56-.69-7-7.37-11.21-11.88-1.74-1.88-3.11-3.37-3.49-3.9-.03-.04-.05-.07-.07-.1-3.38-5.27-6.82-12.27-6.82-12.27l4.37-10.74,1.25-3.07-1.05-.38,2.38-.51,1.73-.36,11.35,30.98,1.55,4.23h0Z" fill="#382b6a" stroke-width="0"/>
        <polygon points="112.19 260.68 112.19 260.69 112.18 260.69 112.18 260.66 112.19 260.68" fill="#382b6a" stroke-width="0"/>
        <polygon points="94.62 208.84 94.62 226.12 94.56 226.1 90.09 224.45 78.42 209.1 78.39 209.07 91.56 197.87 91.57 197.91 91.61 198.05 94.62 208.84" fill="#382b6a" stroke-width="0"/>
        <g>
          <polygon points="112.11 213.07 112.19 213.24 112.19 213.07 112.11 213.07" fill="#04c0b1" stroke-width="0"/>
          <polygon points="108.45 210.99 108.32 210.99 108.32 223.53 99.27 225.45 97.54 225.81 95.16 226.32 94.62 226.43 94.62 207.31 108.45 210.99" fill="#03a295" stroke-width="0"/>
          <polygon points="112.18 213.07 112.11 213.07 112.18 213.24 112.18 223.53 108.32 223.53 108.32 210.99 112.18 210.99 112.18 213.07" fill="#00927a" stroke-width="0"/>
          <polygon points="112.11 213.07 112.19 213.24 112.19 213.07 112.11 213.07" fill="#03a193" stroke-width="0"/>
        </g>
      </g>
      <g>
        <path d="M112.18,146.4v50.77h-.91c-1.17,0-2.33-.12-3.5-.21-1.5-.12-2.96-.46-4.42-.79-.82-.19-1.62-.46-2.43-.73-1-.34-1.96-.72-2.92-1.14-1-.44-1.94-1-2.87-1.56-1.25-.74-2.37-1.65-3.51-2.53-.01,0-.03-.03-.05-.04-.05-.06-.09-.12-.15-.17-.94-.78-1.78-1.67-2.58-2.6-1.03-1.19-1.96-2.46-2.79-3.81-.87-1.43-1.64-2.93-2.29-4.48-.38-.92-.74-1.85-1.07-2.8-.47-1.34-.84-2.71-1.16-4.09-.39-1.72-.79-3.44-.94-5.21-.02-.24-.13-.29-.33-.29-.51-.01-1.02-.07-1.5-.19-2.02-.49-3.52-1.73-4.69-3.38-.56-.77-1-1.59-1.33-2.46-.3-.78-.51-1.61-.62-2.47-.21-1.54-.17-3.05.13-4.56.29-1.37.78-2.65,1.55-3.82.58-.89,1.23-1.71,2.04-2.35.44-.35.92-.65,1.46-.89.09-.04.18-.08.19-.2,1.18-.08,2.34-.03,3.52-.04.72-.01,1.46,0,2.2,0h.5c.08,0,.15,0,.2.02h.01s.05.02.07.04c.03.02.05.06.06.1.02.06.03.14.02.24-.07,1.05-.04,2.07.11,3.06.04.28.09.56.14.83.02.09.04.18.06.26.06.28.14.56.22.83.09.28.18.56.29.83.08.23.18.45.28.67.02.05.05.1.07.15.06.14.13.28.21.42.05.11.11.21.17.31.06.11.11.21.18.31.06.1.12.19.18.29.05.09.11.17.17.26.28.42.6.83.94,1.23.15.18.31.35.47.52l.24.24c.16.16.32.32.5.46.03.04.07.07.1.1.06.05.11.1.17.14.18.16.36.3.54.43.14.11.28.22.43.32.02.02.05.03.07.05.13.1.26.19.4.26.04.04.09.07.14.09.18.11.35.22.53.32.3.16.61.31.92.45.23.11.47.2.71.29.24.09.48.18.73.25.16.06.32.1.49.14.17.04.33.08.5.12t.02,0c.07.02.14.03.21.04s.14.02.21.04c.26.05.52.08.78.11.21.03.42.04.62.05.21,0,.4.02.61.02h.02c.26,0,.51-.01.77-.03.24-.02.47-.04.71-.07.02,0,.05-.01.07-.01.28-.04.55-.08.83-.14.16-.04.32-.07.47-.12.16-.03.31-.08.47-.13.05-.01.1-.02.15-.04.17-.05.34-.11.5-.17.27-.1.53-.2.78-.31,1.29-.55,2.43-1.26,3.41-2.12.16-.14.32-.28.47-.44.21-.2.42-.42.62-.64.31-.34.6-.71.86-1.09.13-.2.26-.4.39-.6.5-.81.92-1.69,1.26-2.66.07-.19.12-.38.17-.57.08-.28.15-.57.21-.86.07-.29.13-.58.19-.87.14-.17.08-.37.07-.56.06-.89.11-1.78-.02-2.66,0-.02-.01-.03-.01-.05,0,0,0-.02.01-.03-.01-.02,0-.04.01-.05.01-.02.02-.03.04-.04.03,0,.08-.02.13-.02h.01c1.04,0,2.07-.03,3.11.02Z" fill="#dfafa4" stroke-width="0"/>
        <path d="M84.07,146.76c.01-.1,0-.18-.02-.24.03.05.04.13.03.24-.07,1.05-.03,2.07.1,3.06-.15-.99-.18-2.01-.11-3.06Z" fill="#dfafa4" stroke-width="0"/>
        <path d="M108.88,146.49s-.01.02-.01.03v-.02h.01Z" fill="#dfafa4" stroke-width="0"/>
        <rect x="112.18" y="146.4" width=".01" height="50.77" fill="#dfafa4" stroke-width="0"/>
        <path d="M82.34,130.04c-.19.4-.38.8-.55,1.21-.39.93-.81,1.86-1.11,2.82-.3.94-.6,1.88-.87,2.83-.13.47-.23.93-.33,1.4-.08.41-.16.81-.26,1.22h0c-.07.02-.14.02-.21.02,0,0,0-.01-.01-.01.08,0,.14,0,.21-.01.09-.4.17-.81.26-1.22.09-.47.2-.94.33-1.41.27-.95.57-1.89.87-2.83.3-.97.72-1.89,1.11-2.82.17-.41.36-.81.56-1.2Z" fill="#c87223" stroke-width="0"/>
        <path d="M84.8,125.69c-.18.28-.36.57-.54.86-.26.43-.52.87-.77,1.31-.1.17-.2.35-.29.53.09-.17.18-.35.27-.53.25-.44.51-.88.78-1.32.18-.29.35-.57.55-.85Z" fill="#c87223" stroke-width="0"/>
        <path d="M96.89,114.37c-.35.19-.69.39-1.03.59-.97.59-1.91,1.23-2.82,1.91-.76.57-1.49,1.18-2.19,1.82-.61.54-1.21,1.11-1.79,1.7-.87.89-1.68,1.85-2.47,2.82-.17.21-.33.42-.48.63-.13.16-.25.32-.38.49.12-.17.24-.33.37-.5.15-.21.31-.42.48-.63.79-.97,1.59-1.93,2.47-2.82.58-.59,1.17-1.16,1.78-1.7.71-.64,1.44-1.25,2.2-1.82.92-.69,1.86-1.32,2.82-1.91.34-.2.69-.4,1.04-.58Z" fill="#c87223" stroke-width="0"/>
        <path d="M101.55,112.23c-.49.19-.97.39-1.46.59-.53.21-1.04.45-1.55.69-.16.08-.31.15-.47.23.15-.09.31-.16.47-.24.5-.25,1.02-.48,1.54-.69.49-.2.97-.4,1.47-.58Z" fill="#c87223" stroke-width="0"/>
        <path d="M102.82,111.8c-.22.07-.43.14-.64.21-.11.04-.22.07-.33.11.11-.04.21-.08.32-.12.21-.07.43-.14.65-.2Z" fill="#c87223" stroke-width="0"/>
        <path d="M108.97,110.5c-.09.01-.18.02-.27.03-.19.02-.38.04-.57.07-.51.07-1.01.15-1.51.24.49-.1,1-.18,1.5-.25.19-.03.39-.05.58-.07.09,0,.18-.02.27-.02Z" fill="#c87223" stroke-width="0"/>
        <path d="M111.52,110.35c-.28,0-.57.01-.85.02.28-.02.56-.03.84-.03h.01Z" fill="#c87223" stroke-width="0"/>
        <path d="M112.2,91.98v18.35h-.03s-.01,0-.02.01h-.01c-.07,0-.13.01-.19.02-.06,0-.12.01-.19.01.12-.01.25-.04.38-.05v-18.34h.06Z" fill="#c87223" stroke-width="0"/>
        <path d="M108.87,146.5v.02s0-.02.01-.03h-.01ZM84.18,149.82c-.13-.99-.17-2.01-.1-3.06.01-.11,0-.19-.03-.24.02.06.03.14.02.24-.07,1.05-.04,2.07.11,3.06ZM79.21,139.52c-.07.01-.13.01-.21.01.01,0,.01.01.01.01.07,0,.14,0,.21-.01h0s-.01-.01-.01-.01Z" fill="#252523" stroke-width="0"/>
        <path d="M106.35,139.53c-.17,0-.26-.09-.36-.22-.23-.29-.48-.58-.74-.85-.19-.2-.4-.4-.62-.57-.08-.07-.15-.13-.22-.18-3.33-2.66-7.06-3.56-11.2-2.42-.18.05-.35.1-.52.16-.18.05-.35.11-.52.18-.21.08-.41.16-.61.25-.15.06-.3.13-.45.21-.09.03-.18.08-.26.13-.15.07-.3.15-.44.24-.04.02-.07.04-.11.06-.16.09-.31.19-.47.3-.18.11-.36.24-.53.38-.18.13-.35.26-.52.4-.34.28-.66.59-.97.91-.14.13-.27.27-.4.41-.14.15-.27.3-.4.45-.03.04-.06.07-.09.09-.04.03-.08.06-.13.06-.04.02-.08.02-.12.02-.01.01-.02.01-.04.01-.5-.01-1-.01-1.5-.01h-1.5c-1.48-.01-2.94-.02-4.41-.02h0c-.07.02-.14.02-.21.02,0,0,0-.01-.01-.01-1.06,0-2.13-.01-3.18.01h-.23c-.73.01-1.24.34-1.46.92h0c-.07.2-.11.41-.11.66-.02,1.18-.02,2.36,0,3.53.02,1.11.62,1.69,1.73,1.72.58.01,1.16-.05,1.73.03h.01c1.18-.08,2.34-.03,3.52-.04.72-.01,1.46,0,2.2,0h.01s.02,0,.04-.01c.15.01.3,0,.45,0,.08,0,.15.01.2.03h.01s.05.02.07.04c.03.02.05.06.06.1.03.05.04.13.03.24-.07,1.05-.03,2.07.1,3.06.04.28.09.56.14.83.02.09.04.18.06.26.06.28.14.56.22.83.09.28.18.56.29.83.08.23.18.45.28.67.02.05.05.1.07.15.06.14.13.28.21.42.05.11.11.21.17.31.06.11.11.21.18.31.06.1.12.19.18.29.05.09.11.17.17.26.28.42.6.83.94,1.23.15.18.31.35.47.52l.24.24c.16.16.32.32.5.46.03.04.07.07.1.1.06.05.11.1.17.14.17.15.36.29.54.43.14.11.28.22.43.32.02.02.05.03.07.05.13.1.26.19.4.26.04.04.09.07.14.09.18.11.35.22.53.32.3.16.61.31.92.45.23.11.47.2.71.29.24.09.48.18.73.25.16.05.32.1.49.14.17.04.33.08.5.12h.02c.07.02.14.03.21.05.07.01.14.02.21.04.26.05.52.08.78.11.21.03.42.04.62.05.21,0,.4.02.61.02h.02c.26,0,.51-.01.77-.03.24-.02.47-.04.71-.07.02,0,.05-.01.07-.01.28-.04.55-.08.83-.14.16-.04.32-.07.47-.12.16-.03.31-.08.47-.13.22-.06.43-.13.65-.21.27-.1.53-.2.78-.31,1.29-.55,2.43-1.26,3.41-2.12.16-.14.32-.28.47-.44.21-.2.42-.42.62-.64.3-.34.59-.71.86-1.09.13-.2.26-.4.39-.6.49-.81.91-1.69,1.25-2.66.07-.19.13-.38.18-.57.08-.28.15-.57.21-.86.07-.29.13-.58.19-.87-.01-.12-.01-.24.01-.36h0c0-.07.03-.13.05-.2.06-.89.11-1.78-.02-2.66v-.07h.01s0-.05.01-.06c.01-.02.02-.03.04-.04.03,0,.08-.02.13-.02h.01c1.04-.01,2.08-.04,3.11.01v-6.86h-5.83ZM104.85,151.06c-.08.22-.16.43-.25.63-.07.17-.14.32-.23.48-.12.26-.27.51-.43.75-.08.13-.17.27-.27.4-.43.61-.93,1.15-1.5,1.63-.14.12-.28.24-.42.34-.17.12-.33.24-.51.35-.37.25-.77.46-1.18.65-.2.1-.41.18-.61.25-.44.16-.89.28-1.36.37-.38.07-.76.12-1.15.14h-.06c-.11.01-.23.01-.34.01-1.34,0-2.74-.32-3.83-.88-2.44-1.26-4.09-3.17-4.82-5.84-.67-2.41-.43-4.73.66-6.97.25-.51.56-.99.91-1.45h.01c.06-.08.11-.15.18-.22.53-.65,1.15-1.22,1.85-1.71,2.17-1.5,5.03-2.13,7.79-1.14,2.08.73,3.71,2.02,4.81,3.92,1.51,2.63,1.76,5.41.75,8.29Z" fill="#272623" stroke-width="0"/>
        <path d="M91.59,197.16v.08s0-.05,0-.08Z" fill="#4b366a" stroke-width="0"/>
        <path d="M91.56,197.12s.02.02.03.04v-.05h-.03Z" fill="#4b366a" stroke-width="0"/>
        <path d="M108.83,149.79c-.01-.12-.01-.24.01-.36h0c0-.07.03-.14.06-.2,0,.19.07.39-.07.56Z" fill="#deaea3" stroke-width="0"/>
        <path d="M112.17,110.33c0,.1,0,.19,0,.29v-.29h0Z" fill="#deaea3" stroke-width="0"/>
        <path d="M112.18,113.61v25.91h-5.82c-.17,0-.26-.09-.36-.22-.23-.3-.47-.58-.75-.84-.19-.2-.4-.4-.62-.57-.07-.07-.14-.13-.21-.19-3.33-2.66-7.06-3.56-11.2-2.42-.18.05-.36.1-.53.17-.18.05-.35.11-.52.17h0c-.21.08-.41.16-.61.26-.15.06-.3.13-.45.21-.09.03-.18.08-.26.13-.15.07-.3.15-.44.24-.04.02-.07.04-.11.06-.16.09-.31.19-.47.3-.18.11-.36.24-.53.38-.18.11-.35.25-.52.4-.34.27-.67.57-.98.9-.14.13-.27.27-.39.42-.14.15-.27.3-.4.45-.03.04-.06.07-.09.09-.04.03-.08.05-.13.06-.04.02-.08.02-.12.02h-3.04c-1.48-.01-2.94-.02-4.41-.02.1-.41.18-.81.26-1.22.1-.47.2-.93.33-1.4.27-.95.57-1.89.87-2.83.3-.96.72-1.89,1.11-2.82.17-.41.36-.81.55-1.21.13-.28.27-.54.41-.81h0c.14-.28.29-.54.43-.81.01-.01.01-.02.02-.03.09-.18.19-.36.29-.53.25-.44.51-.88.77-1.31.18-.29.36-.58.54-.86.19-.29.38-.57.57-.85.12-.17.24-.34.36-.5h0c.13-.18.25-.34.38-.5.15-.21.31-.42.48-.63.79-.97,1.6-1.93,2.47-2.82.58-.59,1.18-1.16,1.79-1.7.7-.64,1.43-1.25,2.19-1.82.91-.68,1.85-1.32,2.82-1.91.34-.2.68-.4,1.03-.59.29-.16.58-.32.87-.47.1-.06.2-.12.31-.16.16-.08.31-.15.47-.23.51-.24,1.02-.48,1.55-.69.49-.2.97-.4,1.46-.59.06-.03.13-.06.2-.07.03-.01.07-.03.1-.04.11-.04.22-.07.33-.11.21-.07.42-.14.64-.21.27-.09.54-.17.81-.25h.01c.49-.14.98-.27,1.47-.39h.01c.24-.06.47-.11.72-.16h0c.25-.06.51-.11.77-.16.5-.09,1-.17,1.51-.24.19-.03.38-.05.57-.07.09-.01.18-.02.27-.03.28-.04.56-.07.85-.08.28-.02.57-.04.85-.05.28-.01.57-.02.85-.02.02,0,.03.01.05.01h.03c.12.03.23.02.35,0,.06-.01.12-.02.19-.02h.01v3.28s.02,0,.03-.01Z" fill="#dfafa4" stroke-width="0"/>
        <path d="M82.34,130.04c-.19.4-.38.8-.55,1.21-.39.93-.81,1.86-1.11,2.82-.3.94-.6,1.88-.87,2.83-.13.47-.23.93-.33,1.4-.08.41-.16.81-.26,1.22h-.01c.09-.4.17-.81.26-1.22.09-.47.2-.94.33-1.41.27-.95.57-1.89.87-2.83.3-.97.72-1.89,1.11-2.82.17-.41.36-.81.56-1.2Z" fill="#dfafa4" stroke-width="0"/>
        <path d="M84.8,125.69c-.18.28-.36.57-.54.86-.26.43-.52.87-.77,1.31-.1.17-.2.35-.29.53.09-.17.18-.35.27-.53.25-.44.51-.88.78-1.32.18-.29.35-.57.55-.85Z" fill="#dfafa4" stroke-width="0"/>
        <path d="M96.89,114.37c-.35.19-.69.39-1.03.59-.97.59-1.91,1.23-2.82,1.91-.76.57-1.49,1.18-2.19,1.82-.61.54-1.21,1.11-1.79,1.7-.87.89-1.68,1.85-2.47,2.82-.17.21-.33.42-.48.63-.13.16-.25.32-.38.49.12-.17.24-.33.37-.5.15-.21.31-.42.48-.63.79-.97,1.59-1.93,2.47-2.82.58-.59,1.17-1.16,1.78-1.7.71-.64,1.44-1.25,2.2-1.82.92-.69,1.86-1.32,2.82-1.91.34-.2.69-.4,1.04-.58Z" fill="#dfafa4" stroke-width="0"/>
        <path d="M101.55,112.23c-.49.19-.97.39-1.46.59-.53.21-1.04.45-1.55.69-.16.08-.31.15-.47.23.15-.09.31-.16.47-.24.5-.25,1.02-.48,1.54-.69.49-.2.97-.4,1.47-.58Z" fill="#dfafa4" stroke-width="0"/>
        <path d="M102.82,111.8c-.22.07-.43.14-.64.21-.11.04-.22.07-.33.11.11-.04.21-.08.32-.12.21-.07.43-.14.65-.2Z" fill="#dfafa4" stroke-width="0"/>
        <path d="M108.97,110.5c-.09.01-.18.02-.27.03-.19.02-.38.04-.57.07-.51.07-1.01.15-1.51.24.49-.1,1-.18,1.5-.25.19-.03.39-.05.58-.07.09,0,.18-.02.27-.02Z" fill="#dfafa4" stroke-width="0"/>
        <path d="M111.52,110.35c-.28,0-.57.01-.85.02.28-.02.56-.03.84-.03h.01Z" fill="#dfafa4" stroke-width="0"/>
        <path d="M112.19,110.47v29.05h-.01v-25.91s-.02.01-.03.01v-3.28h-.01c-.07,0-.13.01-.19.02-.06,0-.12.01-.19.01.12-.01.25-.04.38-.05h.04c0,.06,0,.1.01.15Z" fill="#dfafa4" stroke-width="0"/>
        <path d="M104.1,142.77c-1.1-1.9-2.73-3.19-4.81-3.92-2.76-.99-5.62-.36-7.79,1.14-.7.49-1.32,1.06-1.85,1.71-.07.07-.12.14-.18.21h-.01c-.35.47-.66.95-.91,1.46-1.09,2.24-1.33,4.56-.66,6.97.73,2.67,2.38,4.58,4.82,5.84,1.09.56,2.49.88,3.83.88.11,0,.23,0,.34-.01h.06c.39-.02.77-.07,1.15-.14.47-.09.92-.21,1.36-.37.21-.08.41-.16.61-.25.41-.19.81-.4,1.18-.65.18-.11.34-.23.51-.35.14-.11.29-.22.42-.34.57-.48,1.07-1.02,1.5-1.63.1-.13.19-.27.27-.4.16-.24.31-.49.43-.75.09-.16.16-.31.23-.48.09-.2.17-.41.25-.63,1.01-2.88.76-5.66-.75-8.29ZM100.15,150.45c-.29.24-.65.41-1.03.49-.16.03-.32.05-.48.05h-.08c-.13-.01-.26-.02-.39-.05-.07-.01-.15-.03-.22-.06-.07-.02-.14-.05-.21-.08-.07-.03-.14-.06-.21-.1-.13-.07-.26-.15-.37-.25-.35-.29-.62-.67-.76-1.11-.02-.06-.04-.12-.05-.17-.04-.18-.06-.36-.06-.55,0-.15.02-.3.05-.44.05-.27.15-.52.29-.75.02-.04.04-.08.07-.12.04-.06.09-.13.14-.18h0c.15-.18.34-.34.55-.47.07-.05.14-.08.21-.12.01,0,.01-.01.02-.01.07-.03.15-.07.23-.09.06-.03.13-.05.2-.06.11-.03.22-.05.33-.06.09-.02.18-.02.28-.02.44,0,.84.12,1.19.33.18.11.34.23.47.37.06.05.11.1.15.16.1.11.18.24.25.37,0,.01.01.01.01.01.11.19.19.41.23.64.03.15.05.31.05.47,0,.72-.34,1.37-.87,1.8Z" fill="#dfafa4" stroke-width="0"/>
        <path d="M101.02,148.65c0,.72-.34,1.37-.87,1.8-.29.24-.65.41-1.03.49-.16.03-.32.05-.48.05h-.08c-.13-.01-.26-.02-.39-.05-.07-.01-.15-.03-.22-.06-.07-.02-.14-.05-.21-.08-.07-.03-.14-.06-.21-.1-.13-.07-.26-.16-.37-.25-.35-.29-.62-.67-.76-1.11-.02-.06-.04-.12-.05-.17-.04-.18-.06-.36-.06-.55,0-.15.02-.3.05-.44.05-.27.15-.52.29-.75.07-.11.14-.21.22-.3.15-.18.34-.34.55-.47.07-.05.14-.08.21-.12.01,0,.01-.01.02-.01.07-.03.15-.07.23-.09.06-.03.13-.05.2-.06.11-.03.22-.05.33-.06.09-.02.18-.02.28-.02.44,0,.84.12,1.19.33.18.11.34.23.47.37.06.05.11.1.15.16.1.11.18.24.25.37,0,.01.01.01.01.01.1.2.18.41.23.64.03.15.05.31.05.47Z" fill="#272623" stroke-width="0"/>
      </g>
      <path d="M148.83,256.75l4.62-.67-3.35-3.28.02-.05-.04-.03.8-4.63-4.15,2.19-.04-.03-.04.03-4.13-2.19.78,4.63-.04.03.02.05-3.35,3.28,4.63.67.02.05h.05l2.07,4.22,2.07-4.22h.05l.02-.05ZM151.31,255.38l-2.14.31.59-1.82,1.55,1.52ZM144.43,253.13l2.26-1.65,2.26,1.65-.86,2.67h-2.8l-.86-2.67ZM149.55,249.92l-.37,2.14-1.55-1.13,1.92-1.01ZM143.83,249.92l1.91,1.01-1.55,1.13-.36-2.14ZM142.06,255.38l1.55-1.52.59,1.82-2.14-.31ZM146.69,258.75l-.96-1.95h1.92l-.96,1.95Z" fill="#f9c0a0" stroke-width="0"/>
      <rect x="101.13" y="174.99" width="22.04" height="1" fill="#38393a" stroke-width="0"/>
    </g>
    <g class="gocciaAnimation" id="icon">
      <path d="M153.73,110.59c0,5.46-4.43,9.89-9.89,9.89s-9.88-4.43-9.88-9.89c0-1.24.23-2.42.65-3.51h-.02l9.25-26.99,9.3,27.11h-.01c.39,1.05.6,2.2.6,3.39Z" fill="#0098c8" stroke-width="0"/>
      <path d="M145.61,116.04c-.28,0-.5-.22-.5-.5s.22-.5.5-.5c1.34,0,2.37-.43,3.08-1.27.9-1.07,1.03-2.53.9-3.25-.49-2.78-3.28-10.93-3.31-11.01-.09-.26.05-.55.31-.64.26-.09.54.05.63.31.12.34,2.85,8.31,3.35,11.16.19,1.09-.08,2.82-1.12,4.07-.89,1.06-2.22,1.63-3.84,1.63Z" fill="#fff" stroke-width="0"/>
    </g>
  </g>
</svg>