<?xml version="1.0" encoding="UTF-8"?>
<svg id="imbarazzato" xmlns="http://www.w3.org/2000/svg" viewBox="0 0 226.77 283.46">
  <def>
    <style>
      .gocciaAnimation{
        transition: all ;
        animation: gocciaAnimation 1.5s ease-out 1;
      }
      @keyframes gocciaAnimation {
        0%{
          opacity:1;
          transform: translateY(0%);
        }
        100%{
          opacity:0;
          transform: translateY(5%);
        }
      }

      .trimolioImbarrazato{
        animation: trimolioAnimation 1s ease-out 2 forwards;
      }
      @keyframes trimolioAnimation {
        0%{
          transform: translateY(0%);
        }
        50%{
          transform: translateY(-2%);
        }
        100%{
          transform: translateY(0%);
        }
      }

      .sorriso{
        transform: scaleX(0);
        transform-origin: center center !important ;
        animation: sorriso 1s ease-out 1 0.5s forwards;
      }
      @keyframes sorriso {
        0%{
          transform: scaleX(0);
        }
        100%{
         
          transform: scaleX(1);
        }
      }
    </style>
  </def>
  <g id="sfondo">
    <rect x="-.01" y="-.09" width="226.8" height="283.64" fill="#c72f33" stroke-width="0"/>
    <path d="M42.68,189.18c0,.1-.1.1-.2.1,0,0,.1-.1.2-.1Z" fill="#c72f33" stroke-width="0"/>
  </g>
  <g id="corpo">
    <g id="eleonora">
      <g>
        <path d="M131.87,184.08v.24c0-.08,0-.16,0-.24h0Z" fill="#1a1a1a" stroke-width="0"/>
        <path d="M113.37,185.28h.03v-1.12" fill="none" stroke-width="0"/>
        <path d="M113.37,163.84v1.75c4.26,0,8.55-1.18,11.04-3.54-3.56,1.34-7.29,1.86-11.04,1.79ZM132.07,135.9c-.39-1.25-1.26-2.04-2.58-2.25-1.24-.19-2.38.03-3.22,1.05-.64.77-.87,1.7-.87,2.96.01.41.1,1.06.35,1.69.51,1.22,1.38,2.01,2.74,2.11,1.4.09,2.59-.33,3.32-1.62.72-1.27.67-2.61.26-3.94ZM122.72,130.63c-.34.11-.68.21-1.02.32.34-.11.68-.21,1.02-.31.5-.14,1.01-.28,1.52-.4-.51.11-1.01.25-1.52.39ZM122.08,181.43c-.1.06-.19.11-.29.17.1-.05.19-.1.29-.16.35-.21.71-.42,1.06-.64l-1.06.63Z" fill="#f9c0a0" stroke-width="0"/>
        <path d="M140.41,162.29s.07-.14.11-.26c-.04.08-.07.17-.11.26ZM140.86,161.09v.04c.02-.07.04-.13.07-.2-.02.05-.04.1-.07.16ZM140.98,160.77v.02s.01-.01.01-.02h-.01Z" fill="#f9c0a0" stroke-width="0"/>
        <path d="M118.18,106.27c.91,1.33,1.88,2.65,2.88,3.93-.98-1.3-1.95-2.6-2.88-3.93Z" fill="#f9c0a0" stroke-width="0"/>
        <path d="M143.26,130.22c-.09-.04-.19-.1-.29-.16-.65-.34-1.28-.72-1.88-1.12-.01,0-.01,0-.01,0-.45-.29-.88-.6-1.33-.91-3.29-2.37-6.46-4.96-9.46-7.76-.36-.34-.72-.68-1.08-1.04-.46-.46-.92-.93-1.37-1.41-1.69-1.75-3.38-3.51-4.95-5.36-.19-.22-.38-.43-.55-.66-.28-.32-.54-.64-.79-.97-.17-.2-.33-.41-.49-.62-1-1.28-1.97-2.6-2.88-3.93-.35-.51-.7-1.02-1.04-1.54-1.16-1.77-2.24-3.59-3.24-5.46-.02-.02-.04-.06-.04-.09-.17-.3-.33-.59-.49-.9h-.01v7.99c.01,18.87.01,37.73.01,56.61v.96c3.75.07,7.48-.45,11.04-1.79-2.49,2.36-6.78,3.54-11.04,3.54l.03,18.57v1.12h0s.11.01.23-.02c.2-.04.4-.11.6-.17.69-.22,1.37-.47,2.04-.75.25-.09.5-.2.75-.31.25-.1.49-.22.74-.33.24-.11.49-.23.73-.35.58-.27,1.14-.56,1.7-.86.31-.17.63-.35.95-.52.14-.08.27-.15.41-.24.08-.03.16-.08.24-.13.1-.06.19-.11.29-.17l1.06-.63c.35-.22.7-.43,1.05-.65.69-.44,1.37-.9,2.05-1.36,1.36-.93,2.69-1.91,4-2.91.12-.1.24-.19.38-.28.01-.01.02-.02.03-.02.13-.12.51-.5.81-.79.03-.02.06-.04.1-.08.1-.08.21-.16.3-.25h.01c.19-.18.38-.37.56-.56.01-.01.02-.02.03-.03.75-.74,1.45-1.51,2.11-2.3.3-.34.59-.7.88-1.05,1.23-1.54,2.35-3.16,3.3-4.89.01-.02.02-.05.04-.07.46-.83.91-1.68,1.31-2.56,0,0,.18-.43.29-.65h0s.02-.05.02-.06c.04-.09.07-.18.11-.26.05-.15.11-.31.17-.44.03-.1.07-.19.09-.28.03-.06.06-.12.08-.18v-.04c.03-.06.05-.11.07-.16.01-.05.03-.09.04-.12h.01v-.04h.01v-.04c.03-.06.05-.12.08-.18,0-.04.03-.07.04-.11.09-.29.25-.71.43-1.22,0-.01,0-.02.01-.02.23-.66.5-1.44.77-2.21.07-.18.12-.35.19-.53.32-.95.62-1.83.8-2.38.03-.08.05-.14.07-.2.03-.1.05-.19.08-.26.01-.06.03-.1.03-.12,0,0,.01-.02.01-.03-.13-4.69.04-9.38-.09-14.06.02-.53.02-1.07.05-1.6-.01-.03,0-.07,0-.1.02-1.13.05-2.27.07-3.41,0-.07.01-.13,0-.19,0-1.07.01-2.15,0-3.23,0-.25.02-.5-.27-.66ZM128.49,141.46c-1.36-.1-2.23-.89-2.74-2.11-.25-.63-.34-1.28-.35-1.69,0-1.26.23-2.19.87-2.96.84-1.02,1.98-1.24,3.22-1.05,1.32.21,2.19,1,2.58,2.25.41,1.33.46,2.67-.26,3.94-.73,1.29-1.92,1.71-3.32,1.62ZM137.35,130.79c-.53.17-1.04.04-1.54-.09-1.68-.43-3.38-.74-5.1-.93-1.67-.18-3.33-.1-4.94.16-.51.08-1.02.19-1.53.31s-1.02.26-1.52.4c-.34.1-.68.2-1.02.31-.34.1-.68.21-1.02.31.21-.21.45-.4.68-.58.19-.14.4-.28.61-.4.16-.1.33-.2.51-.29.39-.19.8-.36,1.22-.51,3.85-1.33,7.67-1.24,11.5.12.73.26,1.48.48,2.19.8.11.05.26.07.25.23,0,.21-.18.13-.29.16Z" fill="#f9c0a0" stroke-width="0"/>
        <path d="M113.37,82.4c16.53.41,33.2,10.25,37.58,27.29,3.17,9,3.6,18.79,5.3,28.18-.51-.91-2.49,1.17-3.46,1.16-.69.28-1.43.38-2.13.53-.16.13.12.35-.04.49-.1-.2-.2-.4-.32-.59-.03-.05-.05-.1-.08-.14-.06-.09-.11-.17-.17-.25-.01-.03-.03-.04-.04-.06-.07-.1-.14-.19-.22-.28-.08-.11-.17-.2-.27-.3-.14-.15-.29-.28-.45-.41-.13-.11-.27-.2-.42-.3,0-.01-.02-.02-.04-.02-.02-.02-.04-.03-.06-.04-.01,0-.01,0-.02,0-.07-.05-.15-.09-.23-.13-.01,0-.03-.02-.04-.02-1.13-.58-2.41-.73-3.39-.21-.08.03-.14.07-.2.12-.59.38-1.05,1.03-1.26,2,.02-.53.02-1.07.05-1.6-.01-.03,0-.07,0-.1.02-1.13.05-2.27.07-3.41,0-.07,0-.13,0-.19.02-1.08.02-2.15,0-3.23,0-.25.02-.5-.27-.66-.09-.04-.19-.1-.29-.16-.65-.34-1.28-.72-1.88-1.12-.01,0-.01-.01-.01-.01-.45-.29-.88-.6-1.33-.91-3.29-2.37-6.46-4.96-9.46-7.76-.36-.34-.72-.68-1.08-1.04-.46-.46-.92-.93-1.37-1.41-1.69-1.75-3.38-3.51-4.95-5.36-.19-.22-.38-.43-.55-.66-.27-.32-.54-.64-.79-.97-.17-.2-.33-.41-.49-.62-.98-1.3-1.95-2.6-2.88-3.93-.35-.51-.7-1.02-1.04-1.54-1.16-1.77-2.24-3.59-3.24-5.46-.02-.02-.04-.06-.04-.09-.17-.3-.33-.59-.49-.9v-15.88Z" fill="#38393a" stroke-width="0"/>
        <path d="M121.06,110.2c-1.01-1.28-1.97-2.59-2.88-3.93.93,1.34,1.9,2.63,2.88,3.93Z" fill="#38393a" stroke-width="0"/>
        <path d="M151.2,143.35c0,.22,0,.44-.02.66-.02.22-.04.43-.06.65-.03.23-.06.46-.1.68-.04.23-.09.44-.14.66,0,.03,0,.06-.02.09s-.02.06-.02.08c-.03.12-.06.23-.1.35-.05.17-.11.35-.17.52-.07.23-.17.45-.27.66-.14.3-.3.59-.46.87-.11.19-.23.37-.35.54-.14.19-.27.38-.42.56-.09.11-.19.23-.29.34-.29.34-.6.66-.93.96-.14.14-.29.27-.43.39t-.02.02s-.06.06-.1.09c-.09.07-.19.15-.27.23-.13.1-.26.2-.39.3-.1.07-.19.14-.3.22-.14.11-.3.22-.45.31-.02.02-.05.03-.07.05-.22.14-.43.28-.65.42-.32.2-.64.39-.97.57h0c-.22-.05-.43-.06-.68-.07-.13-4.69.04-9.38-.09-14.06.21-.97.67-1.63,1.26-2.01.06-.05.13-.09.2-.12.98-.52,2.26-.36,3.39.21.02,0,.03.02.05.02.07.04.15.08.23.13,0,0,0,0,.02,0,.02.02.05.02.06.04.02,0,.03.02.04.02.14.1.29.19.42.3.16.13.31.27.45.41.1.1.19.19.27.3.08.09.15.19.23.28,0,.02.02.03.04.06.06.08.11.16.17.25.02.05.05.1.08.14.12.19.22.39.32.59.06.19.13.37.18.56.04.13.07.26.11.39.02.1.05.22.06.32.03.13.06.27.08.4.02.14.04.28.06.43.02.14.03.28.05.43s.02.29.02.43c0,.11,0,.23,0,.35Z" fill="#f9c0a0" stroke-width="0"/>
        <path d="M147.01,151.68c.09-.07.19-.15.27-.23-.03.03-.06.06-.09.08-.06.05-.12.1-.19.14Z" fill="#eda489" stroke-width="0"/>
        <path d="M151.17,142.52v.06c-.02-.14-.03-.29-.05-.43.02.12.04.25.05.37Z" fill="#eda489" stroke-width="0"/>
        <path d="M147.54,162.56c-.06.06-.11.13-.17.19-.99,1.26-2.48,2.05-4.15,1.83-1-.12-2.06-.61-3.12-1.57,0,0,.19-.43.29-.65.06.28.28.53.48.79.62.8,1.39,1.17,2.42,1.05,1.48-.17,2.73-.74,3.74-1.86,1.48-1.63,1.59-4.04.22-5.77-.84-1.06-1.92-1.84-3-2.63-.08-.06-.14-.1-.22-.14-.05-.03-.1-.06-.14-.08-.05-.02-.09-.03-.13-.05-.11-.04-.21-.05-.32-.04.02-.06.03-.1.03-.12,0,0,0-.02,0-.02.25,0,.47.02.68.07h0c2.62.87,3.95,2.5,4.36,4.26.56,1.7.23,3.33-1.01,4.75Z" fill="#c0bbdc" stroke-width="0"/>
        <path d="M147.04,162.33c-1.01,1.12-2.26,1.69-3.74,1.86-1.03.11-1.8-.26-2.42-1.05-.2-.26-.43-.51-.48-.79h0s.02-.04.02-.06c.02-.05.06-.14.1-.26.06-.15.11-.31.17-.44.03-.1.07-.19.1-.27.02-.06.06-.13.07-.19.02-.06.05-.13.07-.2.02-.05.03-.09.04-.12h0v-.02s0,0,0-.02h0s0-.02,0-.02v-.02c.02-.06.04-.12.06-.19.02-.04.03-.07.04-.11.1-.28.25-.71.43-1.22,0,0,0-.02,0-.02.23-.65.5-1.43.77-2.21.06-.18.12-.35.19-.53.32-.95.62-1.83.81-2.38.02-.07.05-.14.06-.19.03-.1.06-.19.08-.26h0c.11-.02.21,0,.32.03.04.02.08.03.13.05.04.02.09.05.14.08.07.04.14.09.22.14,1.07.8,2.16,1.57,3,2.63,1.37,1.72,1.26,4.13-.22,5.77Z" fill="#38393a" stroke-width="0"/>
        <path d="M140.52,162.04c-.04.12-.08.21-.1.26.03-.09.06-.18.1-.26Z" fill="#1a1a1a" stroke-width="0"/>
        <path d="M140.93,160.93c-.02.07-.05.14-.07.2,0-.02,0-.02,0-.04.02-.06.05-.11.06-.16Z" fill="#1a1a1a" stroke-width="0"/>
        <path d="M140.98,160.78s0,0,0,.02v-.02h0Z" fill="#1a1a1a" stroke-width="0"/>
        <path d="M137.64,130.64c0,.2-.19.12-.29.15-.53.18-1.04.04-1.55-.09-1.67-.43-3.37-.74-5.1-.93-1.67-.19-3.33-.1-4.94.16-.51.08-1.01.19-1.52.31h0c-.51.12-1.01.26-1.51.4-.35.1-.68.2-1.02.31-.34.1-.68.21-1.02.31.22-.21.45-.4.68-.58.19-.14.39-.28.6-.4.17-.1.34-.2.52-.29.39-.19.8-.36,1.22-.51,3.85-1.33,7.67-1.24,11.5.12.73.26,1.48.48,2.19.8.11.05.27.06.26.23Z" fill="#38393a" stroke-width="0"/>
        <path d="M131.81,139.84c-.73,1.3-1.92,1.72-3.33,1.62-1.36-.1-2.23-.89-2.74-2.11-.25-.63-.34-1.28-.35-1.68,0-1.26.23-2.19.86-2.96.85-1.02,1.98-1.24,3.23-1.05,1.32.21,2.18,1,2.58,2.25.41,1.33.46,2.67-.26,3.94Z" fill="#1c1a18" stroke-width="0"/>
        <path d="M144.56,189.66l-1.37.77-10.76,6.1v-12.2c3.68,1.62,8.44,3.71,12.13,5.33Z" fill="#227154" stroke-width="0"/>
        <path d="M123.14,180.81c-.35.22-.71.43-1.06.64-.63.36-1.26.72-1.89,1.05.64-.35,1.26-.7,1.89-1.06l1.06-.63Z" fill="#c97c43" stroke-width="0"/>
        <path d="M131.87,184.08v.24c0-.08,0-.16,0-.24h0Z" fill="#c97c43" stroke-width="0"/>
        <path d="M167.44,220.88c-1.26-.53-18.24-6.38-19.5-6.9-3.16-4.62-6.1-19.05-5.32-23.55l1.37-.77c-3.69-1.62-8.45-3.71-12.13-5.33v-.24c.02-1.95.1-8.83,0-9.56,0-.03,0-.05,0-.06.19-.19.38-.38.56-.56.76-.75,1.47-1.53,2.13-2.33.31-.35.6-.7.88-1.05,1.23-1.54,2.35-3.16,3.3-4.89.02-.02.02-.05.04-.07.47-.83.91-1.68,1.31-2.56,1.06.96,2.13,1.45,3.12,1.57,1.67.23,3.16-.57,4.15-1.83.06-.06.11-.12.17-.19,1.24-1.43,1.57-3.05,1.01-4.75-.41-1.76-1.74-3.39-4.36-4.26.32-.19.64-.37.97-.57.22-.13.44-.27.65-.42.02-.02.05-.03.07-.05.15-.1.31-.2.45-.31.1-.07.2-.14.3-.22.13-.1.26-.19.39-.3.06-.05.12-.1.19-.14.02-.02.06-.05.09-.08.03-.03.06-.06.1-.09t.02-.02c.14-.12.29-.25.43-.39.32-.3.64-.62.93-.96.1-.11.2-.23.29-.34.15-.19.29-.37.42-.56.13-.18.24-.35.35-.54.16-.28.31-.57.46-.87.1-.21.2-.43.27-.66.06-.17.12-.35.17-.52.04-.11.07-.23.1-.35,0-.02.02-.05.02-.08s.02-.06.02-.09c.17-.65.27-1.32.31-2,.02-.22.02-.44.02-.66,0-.12,0-.23,0-.35,0-.14,0-.28-.02-.43v-.06c0-.12-.02-.25-.05-.37-.02-.14-.04-.29-.06-.43-.02-.14-.05-.27-.08-.4-.02-.1-.04-.22-.06-.32-.04-.13-.07-.26-.11-.39-.05-.19-.11-.37-.18-.56.15-.14-.13-.35.03-.49.71-.14,1.44-.25,2.13-.52.97,0,2.95-2.08,3.46-1.17.02.1,11.33,82.96,11.19,83.01Z" fill="#38393a" stroke-width="0"/>
        <path d="M147.29,151.45s-.06.06-.09.08c-.06.05-.12.1-.19.14.09-.07.19-.15.27-.23Z" fill="#1a1a1a" stroke-width="0"/>
        <path d="M151.17,142.52v.06c-.02-.14-.03-.29-.05-.43.02.12.04.25.05.37Z" fill="#1a1a1a" stroke-width="0"/>
        <path d="M131.87,184.08v.24c0-.08,0-.16,0-.24h0Z" fill="#eda489" stroke-width="0"/>
        <path d="M113.37,165.59c4.26,0,8.55-1.18,11.04-3.54-3.56,1.34-7.29,1.86-11.04,1.79v1.75Z" fill="#f9c0a0" stroke-width="0"/>
        <path d="M113.4,221.09v-3.78h-.03v3.83h.03c1.49.19,2.63,1.44,2.63,2.98,0,1.4-.95,2.57-2.24,2.91,1.41-.24,2.49-1.47,2.49-2.95,0-1.62-1.28-2.93-2.88-2.99ZM113.4,230.91v-3.8h-.03v3.83h.03c.19,0,.38-.02.57-.06-.19.02-.38.04-.57.03Z" fill="#fff" stroke-width="0"/>
        <path d="M132.43,183.08v27.04h-19.06v-25.97s.02.01.03.01c.06.02.12.03.18.05.08.01.16.04.24.05l.14.02h0s.11.01.23-.02c.21-.04.41-.11.6-.17.69-.22,1.37-.47,2.05-.75.25-.09.5-.2.74-.31.25-.1.5-.22.75-.33.24-.11.49-.23.73-.35.57-.27,1.13-.56,1.69-.86.64-.34,1.26-.69,1.89-1.05.36-.21.71-.42,1.06-.64.35-.22.71-.43,1.05-.65.69-.44,1.38-.9,2.05-1.36,1.37-.93,2.69-1.91,4-2.91.13-.1.25-.19.39-.28,0-.01,0-.02.03-.02.13-.12.5-.5.8-.79.03-.02.07-.04.1-.08.1-.08.21-.16.31-.25.01.01.01.03.01.06,0,.07,0,.19.02.35.06,1.61-.01,7.44-.03,9.21Z" fill="#eda489" stroke-width="0"/>
        <g>
          <path d="M116.28,224.08c0,1.48-1.08,2.71-2.49,2.95,0,.01-.02.01-.03.01-.12.02-.24.03-.36.03h-.03v-5.98h.03c1.6.06,2.88,1.37,2.88,2.99Z" fill="#25a384" stroke-width="0"/>
          <path d="M159.51,274.86c0,.1,0,.19-.02.29,0-.1,0-.21,0-.31,0,0,0,.02,0,.02Z" fill="#09837e" stroke-width="0"/>
          <path d="M166.41,283.46h18.5c-.46-4.49-.75-9.07-1.11-13.53-.05-.51-.09-1.01-.13-1.5-5.37.94-11.98.06-17.78.33.01.11.02.2.03.3.52,5.03.84,9.86.96,14.31h-.47v.09Z" fill="#006347" stroke-width="0"/>
          <path d="M166.41,273.3s-.02.02-.03.03h0s.02-.02.03-.03Z" fill="#09a09c" stroke-width="0"/>
          <path d="M183.79,269.94c-.05-.51-.09-1.01-.13-1.5h0c.04.5.08,1,.12,1.5Z" fill="#09a09c" stroke-width="0"/>
          <path d="M159.51,274.81v.05s0-.02,0-.02c-.05-.56-.1-1.1-.14-1.66.06.55.1,1.09.15,1.63Z" fill="#2f2f30" stroke-width="0"/>
          <path d="M183.66,268.44c-5.37.93-11.97.06-17.78.33-2.13-20.47-7.62-44.14-17.24-59.16-.02-.09-.1-.46-.2-1.04,4.64.69,8.77,3.21,12.66,5.73,21.54,13.99,20.4,28.61,22.56,54.14Z" fill="#25a384" stroke-width="0"/>
          <path d="M159.36,273.17c.05.55.1,1.1.15,1.66,0,.1-.01.21-.01.31.01-.1.01-.19.02-.29v-.05c-.05-.55-.1-1.08-.16-1.63ZM159.33,272.23c.07.86.13,1.72.19,2.57-.03-.79-.08-1.65-.19-2.57ZM142.64,238.3c-.09-.12-.18-.23-.27-.35-.08-.1-.16-.2-.25-.29.46.59.92,1.18,1.37,1.78-.28-.38-.57-.76-.85-1.14Z" fill="#08c0c3" stroke-width="0"/>
          <path d="M159.44,273.98c-.01-.14-.02-.27-.04-.4.02.22.05.43.06.64,0-.08-.01-.16-.02-.24ZM159.82,281.03l-.03-.54c0-.18,0-.36-.02-.55v-.03c-.03-.85-.07-1.69-.11-2.53-.04-.85-.08-1.69-.14-2.53,0,.02,0,.03-.01.04v-.09s-.01-.1-.01-.15c0,0,.01,0,0-.01.01-.01,0-.02,0-.04-.01-.05-.01-.11-.02-.17.01.01.01.02.01.03-.01-.3-.04-.63-.07-.94-.03-.43-.06-.86-.09-1.29-.01-.15-.02-.3-.04-.45-.07-.48-.14-.99-.22-1.51-.03-.19-.06-.37-.09-.56-.01-.03-.01-.06-.02-.09-.01-.03-.01-.05-.01-.08-.03-.13-.07-.28-.12-.44-.04-.16-.09-.34-.15-.52-.06-.19-.12-.4-.2-.61-.06-.16-.12-.33-.18-.51-.02-.06-.04-.12-.06-.18-.01,0-.01-.03-.03-.05-.18-.41-.34-.83-.48-1.27-.1-.26-.21-.52-.32-.79-.22-.54-.46-1.12-.72-1.72-.26-.6-.53-1.23-.81-1.87-.44-.97-.9-1.98-1.38-3.01-.02-.05-.04-.09-.06-.13-.58-1.23-1.18-2.49-1.8-3.75-.11-.19-.2-.4-.3-.6-2.22-4.45-4.62-8.81-6.52-11.54t-.02-.01c-.11-.17-.23-.33-.34-.48-.08-.11-.15-.21-.22-.31-.04-.04-.07-.09-.1-.13-.07-.1-.14-.18-.21-.27h0c-.48-.64-.96-1.28-1.44-1.91-.45-.6-.91-1.19-1.37-1.78,0,0-.01-.01-.01-.02s-.01-.02-.02-.03c-.23-.28-.45-.57-.68-.85-.22-.28-.45-.56-.68-.84-.11-.13-.21-.26-.32-.38-.43-.52-.87-1.04-1.31-1.55-.03-.03-.06-.07-.09-.11-.06-.06-.11-.13-.17-.19-.15-.16-.28-.32-.32-.37h0c-.28-.33-.56-.63-.84-.93-.2-.22-.41-.43-.62-.65-.64-.69-1.31-1.35-2-1.99-.03-.03-.07-.06-.11-.1l-.09-.09s-.06-.06-.1-.09c-.19-.17-.38-.34-.58-.51h-.01c-.19-.18-.39-.35-.58-.52-.03-.02-.07-.06-.1-.08-.03-.03-.07-.06-.11-.09h0s-.03-.03-.03-.04c0-.01-.02-.02-.03-.02v-.02s-.07-.04-.09-.06h-.01s0-.01-.03-.03c-.21-.17-.42-.35-.64-.52-.04-.04-.09-.08-.14-.12,0,0,0-.01-.02-.01-.25-.11-.52-.26-.8-.44-.14-.09-.28-.19-.43-.29-.15-.11-.3-.22-.46-.34-.22-.16-.44-.34-.67-.54-.31-.27-.72-.63-1.2-1.07-.4-.37-.85-.79-1.33-1.25-.62-.59-1.31-1.25-2.04-1.95-.11-.12-.23-.23-.35-.35-.47-.46-.96-.93-1.45-1.41-1.22-1.19-2.49-2.44-3.69-3.62-.23-.23-.46-.46-.69-.68-.52-.52-1.02-1.02-1.49-1.48l-.79-.79c-.39-.39-.74-.74-1.07-1.06l-.24-.24c-.38-.39-.71-.72-.99-.99-.07-.08-.14-.15-.21-.21-.27-.27-.47-.48-.61-.62-.13-.13-.2-.2-.2-.2,0,0-.01-1.41,0-1.82h-.31v9.15h.05c3.71.07,6.69,3.1,6.69,6.83,0,3.38-2.44,6.18-5.66,6.73-.16.04-.32.06-.48.07-.19.02-.38.04-.57.03h-.03v52.5h.03c21.48.01,43.07.01,46.39-.04h.08c-.01-.78-.03-1.55-.05-2.34ZM159.5,274.65s.01.02.01.03v-.03h-.01Z" fill="#25a384" stroke-width="0"/>
          <path d="M159.51,274.81v.05s0-.02,0-.02c-.05-.56-.1-1.1-.14-1.66.06.55.1,1.09.15,1.63Z" fill="#08c0c3" stroke-width="0"/>
          <path d="M159.51,274.86c0,.1,0,.19-.02.29,0-.1,0-.21,0-.31,0,0,0,.02,0,.02Z" fill="#08c0c3" stroke-width="0"/>
          <path d="M166.41,273.3s-.02.02-.03.03h0s.02-.02.03-.03Z" fill="#9a90c4" stroke-width="0"/>
          <path d="M143.49,239.44c-.91-1.19-1.82-2.37-2.76-3.52.46.56.91,1.13,1.36,1.69.19.23.37.46.55.69.28.38.57.76.85,1.14Z" fill="#09a09c" stroke-width="0"/>
          <path d="M159.29,271.79c-.06-.48-.13-.99-.22-1.51-.03-.19-.06-.37-.1-.56,0-.06-.02-.11-.03-.18-.11-.52-.35-1.29-.71-2.25,0-.02,0-.03-.02-.05-.14-.39-.3-.81-.48-1.27-.81-2.04-1.93-4.64-3.23-7.39-.02-.05-.04-.09-.06-.13-.58-1.23-1.18-2.49-1.8-3.75-.1-.19-.2-.39-.3-.6-2.22-4.45-4.62-8.81-6.52-11.54,0,0,0,0-.02-.02-.31-.43-.6-.84-.88-1.18h0c-.48-.64-.96-1.28-1.43-1.92-.28-.38-.57-.76-.85-1.14-.18-.23-.36-.47-.55-.69-.45-.56-.9-1.14-1.36-1.69-.1-.13-.21-.26-.32-.38-.43-.52-.86-1.04-1.3-1.55-.26-.3-.65-.75-.59-.68-.27-.31-.56-.62-.84-.92-.2-.22-.4-.43-.62-.65-.64-.68-1.3-1.34-2-1.99-.03-.03-.07-.06-.1-.1-.06-.06-.13-.12-.2-.18-.38-.35-.77-.69-1.17-1.03-.06-.06-.14-.12-.2-.18h0s-.02-.02-.03-.03c-.02-.02-.02-.03-.04-.04-.02-.02-.06-.04-.08-.06,0,0-.02-.02-.03-.03-.27-.22-.52-.44-.8-.64,2.6,1.18,3.62-.99,6.01-4.16h0c.28-.38.57-.76.89-1.14.06-.09.16-.2.27-.35.12-.15.26-.33.42-.54.1-.14.22-.29.34-.45.02-.03.06-.07.09-.11.19-.24.39-.5.6-.79.27-.35.56-.72.85-1.13.16-.21.32-.43.49-.65.31-.41.61-.81.93-1.23.23-.31.47-.62.7-.94.27-.35.52-.69.77-1.03.02-.02.04-.06.06-.09.39.85.76,1.72,1.14,2.58.19.43.36.85.55,1.27.19.44.37.88.55,1.32.05.11.1.23.14.35.09.22.18.43.27.66.22.54.43,1.07.64,1.61.1.26.2.51.3.76.1.23.19.45.27.68.12.32.24.64.36.97.06.17.13.33.19.5.23.61.45,1.22.67,1.84.28.77.56,1.55.81,2.33.13.38.25.75.38,1.13.19.55.36,1.1.54,1.65.09.26.17.51.24.76.1.3.19.6.28.9.18.56.35,1.1.51,1.66.16.56.32,1.11.48,1.67.08.27.15.54.23.81.07.27.14.53.23.81.28,1.03.56,2.08.82,3.12.21.82.42,1.64.61,2.47.09.35.17.71.25,1.06.1.36.18.72.25,1.09.17.73.33,1.47.48,2.2.13.58.24,1.17.35,1.75.05.19.09.39.12.58.09.48.19.94.27,1.41.15.79.3,1.57.43,2.36.13.74.26,1.49.38,2.24.03.16.06.31.08.48v.06h0s0,.05,0,.07c0,.06.02.13.03.19.1.64.2,1.27.29,1.91.02.14.05.3.06.44.04.27.08.53.12.81.11.81.22,1.61.32,2.42h0c.34,2.68.61,5.35.83,8.04Z" fill="#227154" stroke-width="0"/>
          <path d="M148.64,209.61s-.02.02-.02.03c-.44.65-2.05,2.83-3.81,5.19-.02.03-.05.06-.06.09-.25.34-.51.68-.77,1.03-.23.32-.47.64-.7.94-.31.42-.62.82-.93,1.23-.17.23-.33.44-.49.65-.3.4-.59.77-.85,1.13-.21.29-.41.55-.6.79-.03.04-.06.08-.09.11-.12.16-.23.31-.34.45-.16.21-.3.39-.42.54-.11.15-.21.27-.27.35-.31.39-.6.76-.89,1.14h0c-2.38,3.18-3.41,5.35-6.01,4.17-.67-.31-1.43-.83-2.36-1.61-3.25-2.75-16.35-15.93-16.35-15.93,0,0-.02-1.4,0-1.82l.13-.02c5.69-3.09,25.29-16.44,29.47-18.48,3.61-.7,2.45,4.24,3.16,6.43.32,3.2,1.51,9.94,2.01,12.53.1.58.18.95.2,1.04Z" fill="#006347" stroke-width="0"/>
          <path d="M166.87,283.37h-7.01c-.02-.78-.03-1.55-.06-2.34-.02-.36-.02-.72-.05-1.1v-.03c-.06-1.68-.14-3.37-.25-5.06v-.05c-.02-.79-.08-1.65-.19-2.57,0-.15-.02-.31-.04-.45-.22-2.69-.49-5.36-.83-8.04h0c-.1-.81-.21-1.62-.32-2.42-.04-.27-.08-.54-.12-.81-.02-.14-.04-.3-.06-.44-.09-.64-.19-1.27-.29-1.91,0-.06-.02-.13-.03-.19,0-.02,0-.04,0-.06h0v-.06c-.02-.16-.05-.31-.08-.48-.11-.74-.24-1.49-.38-2.24-.03-.24-.08-.48-.12-.72-.02-.07-.03-.15-.04-.23-.09-.48-.18-.94-.27-1.41-.08-.47-.18-.93-.27-1.41-.03-.19-.07-.39-.12-.58-.11-.58-.23-1.17-.35-1.75-.04-.21-.08-.42-.13-.63-.06-.27-.12-.54-.18-.81-.06-.25-.11-.51-.18-.76-.07-.36-.15-.72-.25-1.09-.02-.14-.06-.27-.09-.41-.05-.22-.1-.43-.16-.65-.19-.83-.4-1.65-.61-2.47-.27-1.04-.54-2.09-.82-3.12-.08-.27-.15-.54-.23-.81-.08-.27-.15-.55-.23-.81-.16-.56-.32-1.12-.48-1.67-.16-.56-.33-1.1-.51-1.66-.09-.3-.19-.6-.28-.9-.07-.26-.15-.51-.24-.76-.18-.55-.35-1.1-.54-1.65-.13-.38-.25-.75-.38-1.13-.26-.78-.53-1.55-.81-2.33-.12-.35-.24-.69-.37-1.04-.1-.27-.19-.54-.3-.81-.06-.17-.12-.33-.19-.5-.12-.32-.24-.64-.36-.97-.08-.23-.17-.46-.27-.68-.1-.26-.19-.51-.3-.76-.2-.54-.42-1.07-.64-1.61-.09-.23-.18-.44-.27-.66-.05-.11-.1-.23-.14-.35-.18-.44-.36-.88-.55-1.32l-.31-.75c-.07-.18-.15-.35-.23-.52-.36-.86-.75-1.72-1.14-2.58,1.76-2.37,3.37-4.54,3.81-5.19,0,0,.02-.02.02-.03,9.62,15.03,15.11,38.69,17.24,59.16.02.1.02.2.03.3.52,5.02.84,9.86.96,14.31Z" fill="#323233" stroke-width="0"/>
          <path d="M159.51,274.81c-.06-.85-.12-1.72-.19-2.57.1.92.16,1.78.19,2.57Z" fill="#323233" stroke-width="0"/>
        </g>
      </g>
      <g>
        <path d="M94.9,184.08v.24c0-.08,0-.16,0-.24h0Z" fill="#1a1a1a" stroke-width="0"/>
        <path d="M113.37,184.16v1.12s.03,0,.03,0" fill="none" stroke-width="0"/>
        <path d="M102.36,162.05c2.49,2.36,6.78,3.54,11.04,3.54v-1.75c-3.75.07-7.48-.45-11.04-1.79ZM94.96,139.84c.73,1.29,1.92,1.71,3.32,1.62,1.36-.1,2.23-.89,2.74-2.11.25-.63.34-1.28.35-1.69,0-1.26-.23-2.19-.87-2.96-.84-1.02-1.98-1.24-3.22-1.05-1.32.21-2.19,1-2.58,2.25-.41,1.33-.46,2.67.26,3.94ZM102.53,130.24c.51.12,1.02.26,1.52.4.34.1.68.2,1.02.31-.34-.11-.68-.21-1.02-.32-.51-.14-1.01-.28-1.52-.39ZM103.63,180.8c.35.22.71.43,1.06.64.1.06.19.11.29.16-.1-.06-.19-.11-.29-.17l-1.06-.63Z" fill="#f9c0a0" stroke-width="0"/>
        <path d="M86.25,162.03c.04.12.08.21.11.26-.04-.09-.07-.18-.11-.26ZM85.84,160.93c.03.07.05.13.07.2v-.04c-.03-.06-.05-.11-.07-.16ZM85.78,160.77s0,.01.01.02v-.02s-.01,0-.01,0Z" fill="#f9c0a0" stroke-width="0"/>
        <path d="M105.71,110.2c1-1.28,1.97-2.6,2.88-3.93-.93,1.33-1.9,2.63-2.88,3.93Z" fill="#f9c0a0" stroke-width="0"/>
        <path d="M83.27,130.87c-.01,1.08,0,2.16,0,3.23-.01.06,0,.12,0,.19.02,1.14.05,2.28.07,3.41,0,.03.01.07,0,.1.03.53.03,1.07.05,1.6-.13,4.68.04,9.37-.09,14.06,0,.01.01.02.01.03,0,.02.02.06.03.12.03.07.05.16.08.26.02.06.04.12.07.2.18.55.48,1.43.8,2.38.07.18.12.35.19.53.27.77.54,1.55.77,2.21.01,0,.01.01.01.02.18.51.34.93.43,1.22.01.04.03.07.04.11.03.06.05.12.08.18v.04s.01,0,.01,0v.02h0s.01.02.01.02c.01.03.03.07.04.12.02.05.04.1.07.16v.04c.02.06.05.12.08.18.02.09.06.18.09.28.06.13.12.29.17.44.04.08.07.17.11.26,0,.01.01.03.02.05h0c.11.23.29.66.29.66.4.88.85,1.73,1.31,2.56.02.02.03.05.04.07.95,1.73,2.07,3.35,3.3,4.89.29.35.58.71.88,1.05.66.79,1.36,1.56,2.11,2.3.01,0,.02.02.03.03.18.19.37.38.56.56h.01c.09.09.2.17.3.25.04.04.07.06.1.08.3.29.68.67.81.79.01,0,.02.01.03.02.14.09.26.18.38.28,1.31,1,2.64,1.98,4,2.91.68.46,1.36.92,2.05,1.36.35.22.7.43,1.05.65l1.06.63c.1.06.19.11.29.17.08.05.16.1.24.13.14.09.27.16.41.24.32.17.64.35.95.52.56.3,1.12.59,1.7.86.24.12.49.24.73.35.25.11.49.23.74.33.25.11.5.22.75.31.67.28,1.35.53,2.04.75.2.06.4.13.6.17.12.03.23.03.23.03h0v-1.13s.03-18.57.03-18.57c-4.26,0-8.55-1.18-11.04-3.54,3.56,1.34,7.29,1.86,11.04,1.79v-.96c0-18.88,0-37.74.01-56.61v-7.99s-.01,0-.01,0c-.16.31-.32.6-.49.9,0,.03-.02.07-.04.09-1,1.87-2.08,3.69-3.24,5.46-.34.52-.69,1.03-1.04,1.54-.91,1.33-1.88,2.65-2.88,3.93-.16.21-.32.42-.49.62-.25.33-.51.65-.79.97-.17.23-.36.44-.55.66-1.57,1.85-3.26,3.61-4.95,5.36-.45.48-.91.95-1.37,1.41-.36.36-.72.7-1.08,1.04-3,2.8-6.17,5.39-9.46,7.76-.45.31-.88.62-1.33.91,0,0,0,0-.01,0-.6.4-1.23.78-1.88,1.12-.1.06-.2.12-.29.16-.29.16-.27.41-.27.66ZM94.99,139.83c-.72-1.27-.67-2.61-.26-3.94.39-1.25,1.26-2.04,2.58-2.25,1.24-.19,2.38.03,3.22,1.05.64.77.87,1.7.87,2.96-.01.41-.1,1.06-.35,1.69-.51,1.22-1.38,2.01-2.74,2.11-1.4.09-2.59-.33-3.32-1.62ZM89.16,130.62c-.01-.16.14-.18.25-.23.71-.32,1.46-.54,2.19-.8,3.83-1.36,7.65-1.45,11.5-.12.42.15.83.32,1.22.51.18.09.35.19.51.29.21.12.42.26.61.4.23.18.47.37.68.58-.34-.1-.68-.21-1.02-.31-.34-.11-.68-.21-1.02-.31-.5-.14-1.01-.28-1.52-.4s-1.02-.23-1.53-.31c-1.61-.26-3.27-.34-4.94-.16-1.72.19-3.42.5-5.1.93-.5.13-1.01.26-1.54.09-.11-.03-.29.05-.29-.16Z" fill="#eda489" stroke-width="0"/>
        <path d="M113.4,98.28c-.16.31-.32.6-.49.9,0,.03-.02.07-.04.09-1,1.87-2.08,3.69-3.24,5.46-.34.52-.69,1.03-1.04,1.54-.93,1.33-1.9,2.63-2.88,3.93-.16.21-.32.42-.49.62-.25.33-.52.65-.79.97-.17.23-.36.44-.55.66-1.57,1.85-3.26,3.61-4.95,5.36-.45.48-.91.95-1.37,1.41-.36.36-.72.7-1.08,1.04-3,2.8-6.17,5.39-9.46,7.76-.45.31-.88.62-1.33.91,0,0,0,0-.01,0-.6.4-1.23.78-1.88,1.12-.1.06-.2.12-.29.16-.29.16-.27.41-.27.66-.02,1.08-.02,2.15,0,3.23-.01.06,0,.12,0,.19.02,1.14.05,2.28.07,3.41,0,.03,0,.07,0,.1.03.53.03,1.07.05,1.6-.21-.97-.67-1.62-1.26-2-.06-.05-.12-.09-.2-.12-.98-.52-2.26-.37-3.39.21,0,0-.03,0-.04.02-.08.04-.16.08-.23.13-.01,0-.01.01-.02.01-.02,0-.04.02-.06.04-.02,0-.03.01-.04.02-.15.1-.29.19-.42.3-.16.13-.31.26-.45.41-.1.1-.19.19-.27.3-.08.09-.15.18-.22.28-.01.02-.03.03-.04.06-.06.08-.11.16-.17.25-.03.04-.05.09-.08.14-.12.19-.22.39-.32.59-.16-.14.12-.36-.04-.49-.7-.15-1.44-.25-2.13-.53-.97,0-2.95-2.07-3.46-1.16,1.7-9.39,2.13-19.18,5.3-28.18,4.38-17.04,21.05-26.88,37.58-27.29v15.88Z" fill="#1a1a1a" stroke-width="0"/>
        <path d="M105.71,110.2c1.01-1.28,1.97-2.59,2.88-3.93-.93,1.34-1.9,2.63-2.88,3.93Z" fill="#38393a" stroke-width="0"/>
        <path d="M75.57,143.35c0,.22,0,.44.02.66.02.22.04.43.06.65.03.23.06.46.1.68.04.23.09.44.14.66,0,.03,0,.06.02.09s.02.06.02.08c.03.12.06.23.1.35.05.17.11.35.17.52.07.23.17.45.27.66.14.3.3.59.46.87.11.19.23.37.35.54.14.19.27.38.42.56.09.11.19.23.29.34.29.34.6.66.93.96.14.14.29.27.43.39t.02.02s.06.06.1.09c.09.07.19.15.27.23.13.1.26.2.39.3.1.07.19.14.3.22.14.11.3.22.45.31.02.02.05.03.07.05.22.14.43.28.65.42.32.2.64.39.97.57h0c.22-.05.43-.06.68-.07.13-4.69-.04-9.38.09-14.06-.21-.97-.67-1.63-1.26-2.01-.06-.05-.13-.09-.2-.12-.98-.52-2.26-.36-3.39.21-.02,0-.03.02-.05.02-.07.04-.15.08-.23.13,0,0,0,0-.02,0-.02.02-.05.02-.06.04-.02,0-.03.02-.04.02-.14.1-.29.19-.42.3-.16.13-.31.27-.45.41-.1.1-.19.19-.27.3-.08.09-.15.19-.23.28,0,.02-.02.03-.04.06-.06.08-.11.16-.17.25-.02.05-.05.1-.08.14-.12.19-.22.39-.32.59-.06.19-.13.37-.18.56-.04.13-.07.26-.11.39-.02.1-.05.22-.06.32-.03.13-.06.27-.08.4-.02.14-.04.28-.06.43-.02.14-.03.28-.05.43s-.02.29-.02.43c0,.11,0,.23,0,.35Z" fill="#eda489" stroke-width="0"/>
        <path d="M79.76,151.68c-.09-.07-.19-.15-.27-.23.03.03.06.06.09.08.06.05.12.1.19.14Z" fill="#eda489" stroke-width="0"/>
        <path d="M75.6,142.52v.06c.02-.14.03-.29.05-.43-.02.12-.04.25-.05.37Z" fill="#eda489" stroke-width="0"/>
        <path d="M79.23,162.56c.06.06.11.13.17.19.99,1.26,2.48,2.05,4.15,1.83,1-.12,2.06-.61,3.12-1.57,0,0-.19-.43-.29-.65-.06.28-.28.53-.48.79-.62.8-1.39,1.17-2.42,1.05-1.48-.17-2.73-.74-3.74-1.86-1.48-1.63-1.59-4.04-.22-5.77.84-1.06,1.92-1.84,3-2.63.08-.06.14-.1.22-.14.05-.03.1-.06.14-.08.05-.02.09-.03.13-.05.11-.04.21-.05.32-.04-.02-.06-.03-.1-.03-.12,0,0,0-.02,0-.02-.25,0-.47.02-.68.07h0c-2.62.87-3.95,2.5-4.36,4.26-.56,1.7-.23,3.33,1.01,4.75Z" fill="#c0bbdc" stroke-width="0"/>
        <path d="M79.73,162.33c1.01,1.12,2.26,1.69,3.74,1.86,1.03.11,1.8-.26,2.42-1.05.2-.26.43-.51.48-.79h0s-.02-.04-.02-.06c-.02-.05-.06-.14-.1-.26-.06-.15-.11-.31-.17-.44-.03-.1-.07-.19-.1-.27-.02-.06-.06-.13-.07-.19-.02-.06-.05-.13-.07-.2-.02-.05-.03-.09-.04-.12h0v-.02s0,0,0-.02h0s0-.02,0-.02v-.02c-.02-.06-.04-.12-.06-.19-.02-.04-.03-.07-.04-.11-.1-.28-.25-.71-.43-1.22,0,0,0-.02,0-.02-.23-.65-.5-1.43-.77-2.21-.06-.18-.12-.35-.19-.53-.32-.95-.62-1.83-.81-2.38-.02-.07-.05-.14-.06-.19-.03-.1-.06-.19-.08-.26h0c-.11-.02-.21,0-.32.03-.04.02-.08.03-.13.05-.04.02-.09.05-.14.08-.07.04-.14.09-.22.14-1.07.8-2.16,1.57-3,2.63-1.37,1.72-1.26,4.13.22,5.77Z" fill="#1a1a1a" stroke-width="0"/>
        <path d="M86.26,162.04c.04.12.08.21.1.26-.03-.09-.06-.18-.1-.26Z" fill="#1a1a1a" stroke-width="0"/>
        <path d="M85.85,160.93c.02.07.05.14.07.2,0-.02,0-.02,0-.04-.02-.06-.05-.11-.06-.16Z" fill="#1a1a1a" stroke-width="0"/>
        <path d="M85.79,160.78s0,0,0,.02v-.02s0,0,0,0Z" fill="#1a1a1a" stroke-width="0"/>
        <path d="M89.13,130.64c0,.2.19.12.29.15.53.18,1.04.04,1.55-.09,1.67-.43,3.37-.74,5.1-.93,1.67-.19,3.33-.1,4.94.16.51.08,1.01.19,1.52.31h0c.51.12,1.01.26,1.51.4.35.1.68.2,1.02.31.34.1.68.21,1.02.31-.22-.21-.45-.4-.68-.58-.19-.14-.39-.28-.6-.4-.17-.1-.34-.2-.52-.29-.39-.19-.8-.36-1.22-.51-3.85-1.33-7.67-1.24-11.5.12-.73.26-1.48.48-2.19.8-.11.05-.27.06-.26.23Z" fill="#1a1a1a" stroke-width="0"/>
        <path d="M94.96,139.84c.73,1.3,1.92,1.72,3.33,1.62,1.36-.1,2.23-.89,2.74-2.11.25-.63.34-1.28.35-1.68,0-1.26-.23-2.19-.86-2.96-.85-1.02-1.98-1.24-3.23-1.05-1.32.21-2.18,1-2.58,2.25-.41,1.33-.46,2.67.26,3.94Z" fill="#1c1a18" stroke-width="0"/>
        <path d="M82.21,189.66l1.37.77,10.76,6.1v-12.2c-3.68,1.62-8.44,3.71-12.13,5.33Z" fill="#006347" stroke-width="0"/>
        <path d="M103.63,180.81c.35.22.71.43,1.06.64.63.36,1.26.72,1.89,1.05-.64-.35-1.26-.7-1.89-1.06l-1.06-.63Z" fill="#c97c43" stroke-width="0"/>
        <path d="M94.9,184.08v.24c0-.08,0-.16,0-.24h0Z" fill="#c97c43" stroke-width="0"/>
        <path d="M59.33,220.88c1.26-.53,18.24-6.38,19.5-6.9,3.16-4.62,6.1-19.05,5.32-23.55l-1.37-.77c3.69-1.62,8.45-3.71,12.13-5.33v-.24c-.02-1.95-.1-8.83,0-9.56,0-.03,0-.05,0-.06-.19-.19-.38-.38-.56-.56-.76-.75-1.47-1.53-2.13-2.33-.31-.35-.6-.7-.88-1.05-1.23-1.54-2.35-3.16-3.3-4.89-.02-.02-.02-.05-.04-.07-.47-.83-.91-1.68-1.31-2.56-1.06.96-2.13,1.45-3.12,1.57-1.67.23-3.16-.57-4.15-1.83-.06-.06-.11-.12-.17-.19-1.24-1.43-1.57-3.05-1.01-4.75.41-1.76,1.74-3.39,4.36-4.26-.32-.19-.64-.37-.97-.57-.22-.13-.44-.27-.65-.42-.02-.02-.05-.03-.07-.05-.15-.1-.31-.2-.45-.31-.1-.07-.2-.14-.3-.22-.13-.1-.26-.19-.39-.3-.06-.05-.12-.1-.19-.14-.02-.02-.06-.05-.09-.08-.03-.03-.06-.06-.1-.09t-.02-.02c-.14-.12-.29-.25-.43-.39-.32-.3-.64-.62-.93-.96-.1-.11-.2-.23-.29-.34-.15-.19-.29-.37-.42-.56-.13-.18-.24-.35-.35-.54-.16-.28-.31-.57-.46-.87-.1-.21-.2-.43-.27-.66-.06-.17-.12-.35-.17-.52-.04-.11-.07-.23-.1-.35,0-.02-.02-.05-.02-.08s-.02-.06-.02-.09c-.17-.65-.27-1.32-.31-2-.02-.22-.02-.44-.02-.66,0-.12,0-.23,0-.35,0-.14,0-.28.02-.43v-.06c0-.12.02-.25.05-.37.02-.14.04-.29.06-.43.02-.14.05-.27.08-.4.02-.1.04-.22.06-.32.04-.13.07-.26.11-.39.05-.19.11-.37.18-.56-.15-.14.13-.35-.03-.49-.71-.14-1.44-.25-2.13-.52-.97,0-2.95-2.08-3.46-1.17-.02.1-11.33,82.96-11.19,83.01Z" fill="#1a1a1a" stroke-width="0"/>
        <path d="M79.48,151.45s.06.06.09.08c.06.05.12.1.19.14-.09-.07-.19-.15-.27-.23Z" fill="#1a1a1a" stroke-width="0"/>
        <path d="M75.6,142.52v.06c.02-.14.03-.29.05-.43-.02.12-.04.25-.05.37Z" fill="#1a1a1a" stroke-width="0"/>
        <path d="M94.9,184.08v.24c0-.08,0-.16,0-.24h0Z" fill="#eda489" stroke-width="0"/>
        <path d="M113.4,163.84c-3.75.07-7.48-.45-11.04-1.79,2.49,2.36,6.78,3.54,11.04,3.54v-1.75Z" fill="#eda489" stroke-width="0"/>
        <path d="M113.37,230.91c-.19.01-.38-.01-.57-.03.19.04.38.06.57.06h.03v-.03h-.03Z" fill="#fff" stroke-width="0"/>
        <path d="M113.42,217.25v.06h-.05v3.78c-1.6.06-2.88,1.37-2.88,2.99,0,1.48,1.08,2.71,2.49,2.95.01.01.02.01.03.01.12.03.24.06.36.07v3.8c-.19.01-.38-.01-.57-.03-.16-.01-.32-.03-.48-.07-3.22-.55-5.66-3.35-5.66-6.73,0-3.74,2.99-6.77,6.71-6.83h.05Z" fill="#dbcee7" stroke-width="0"/>
        <rect x="113.37" y="217.31" width=".03" height="3.78" fill="#fff" stroke-width="0"/>
        <path d="M120.11,224.08c0,3.38-2.44,6.18-5.66,6.73-.16.04-.32.06-.48.07-.19.02-.38.04-.57.03v-3.8c.12-.01.24-.04.36-.07.01,0,.02,0,.03-.01,1.41-.24,2.49-1.47,2.49-2.95,0-1.62-1.28-2.93-2.88-2.99v-3.78h.02v-.06c3.71.07,6.69,3.1,6.69,6.83Z" fill="#fbfbfb" stroke-width="0"/>
        <rect x="113.37" y="227.11" width=".03" height="3.8" fill="#fff" stroke-width="0"/>
        <path d="M113.4,184.15v25.97h-19.06v-27.04c-.02-1.77-.09-7.6-.03-9.21,0-.16,0-.28.02-.35,0-.03,0-.05.01-.06.1.09.21.17.31.25.03.04.07.06.1.08.3.29.67.67.8.79.02,0,.03.01.03.02.14.09.26.18.39.28,1.31,1,2.63,1.98,4,2.91.67.46,1.36.92,2.05,1.36.34.22.7.43,1.05.65.35.22.7.43,1.06.64.63.36,1.25.71,1.89,1.05.56.3,1.12.59,1.69.86.24.12.49.24.73.35.25.11.5.23.75.33.24.11.49.22.74.31.68.28,1.36.53,2.05.75.19.06.39.13.6.17.12.03.23.03.23.03h0s.14-.03.14-.03c.08-.01.16-.04.24-.05.06-.02.12-.03.18-.05,0,0,.02,0,.03-.01Z" fill="#d1906c" stroke-width="0"/>
        <g>
          <path d="M113.4,221.09v5.98h-.03c-.12,0-.24-.01-.36-.03-.01,0-.02,0-.03-.01-1.41-.24-2.49-1.47-2.49-2.95,0-1.62,1.28-2.93,2.88-2.99h.03Z" fill="#227154" stroke-width="0"/>
          <path d="M67.26,274.86c0,.1,0,.19.02.29,0-.1,0-.21,0-.31,0,0,0,.02,0,.02Z" fill="#09837e" stroke-width="0"/>
          <path d="M60.36,283.37h-.47c.12-4.45.44-9.28.96-14.31.01-.1.02-.19.03-.3-5.8-.27-12.41.61-17.78-.33-.04.49-.08.99-.13,1.5-.36,4.46-.65,9.04-1.11,13.53h18.5s0-.09,0-.09Z" fill="#005a3e" stroke-width="0"/>
          <path d="M60.36,273.3s.02.02.03.03h0s-.02-.02-.03-.03Z" fill="#09a09c" stroke-width="0"/>
          <path d="M42.98,269.94c.05-.51.09-1.01.13-1.5h0c-.04.5-.08,1-.12,1.5Z" fill="#09a09c" stroke-width="0"/>
          <path d="M67.26,274.81v.05s0-.02,0-.02c.05-.56.1-1.1.14-1.66-.06.55-.1,1.09-.15,1.63Z" fill="#2f2f30" stroke-width="0"/>
          <path d="M43.11,268.44c5.37.93,11.97.06,17.78.33,2.13-20.47,7.62-44.14,17.24-59.16.02-.09.1-.46.2-1.04-4.64.69-8.77,3.21-12.66,5.73-21.54,13.99-20.4,28.61-22.56,54.14Z" fill="#227154" stroke-width="0"/>
          <path d="M67.25,274.8v.05c0,.1,0,.19.02.29,0-.1-.01-.21-.01-.31.05-.56.1-1.11.15-1.66-.06.55-.11,1.08-.16,1.63ZM67.25,274.8c.06-.85.12-1.71.19-2.57-.11.92-.16,1.78-.19,2.57ZM83.28,239.44c.45-.6.91-1.19,1.37-1.78-.09.09-.17.19-.25.29-.09.12-.18.23-.27.35-.28.38-.57.76-.85,1.14Z" fill="#08c0c3" stroke-width="0"/>
          <path d="M67.26,274.7s0-.03.01-.05c-.01-.01,0-.03,0-.05-.01.03-.01.07-.01.1ZM113.09,208.1c0,.41,0,1.82,0,1.82,0,0-.07.07-.2.2-.14.14-.34.35-.61.62-.07.06-.14.13-.21.21-.28.27-.61.6-.99.99-.08.08-.16.16-.24.24-.33.32-.68.67-1.07,1.06-.26.26-.52.52-.79.79-.47.46-.97.96-1.49,1.48-.23.22-.46.45-.69.68-1.2,1.18-2.47,2.43-3.69,3.62-.49.48-.98.95-1.45,1.41-.12.12-.24.23-.35.35-.66.63-1.28,1.23-1.86,1.78-.36.34-.69.66-1.01.95-.7.66-1.28,1.18-1.7,1.54-.23.2-.45.38-.67.54-.42.32-.81.59-1.17.8-.18.11-.35.2-.52.27-.01,0-.01.01-.02.01-.27.21-.52.43-.78.64l-.03.03s-.06.05-.09.06c0,0,0,.01-.01.02h-.01s-.01.01-.02.02t-.01.02s0,.01,0,.01h-.01s-.08.07-.11.1c-.03.02-.06.06-.1.08-.19.17-.39.34-.58.52-.1.09-.2.18-.3.26-.1.08-.19.16-.28.25-.04.03-.07.06-.1.09-.04.03-.07.06-.1.09-.04.04-.08.07-.11.1-.35.32-.69.65-1.02.98-.33.33-.66.67-.98,1.01-.11.11-.21.21-.31.32-.1.11-.21.22-.31.33-.14.15-.28.3-.41.45-.14.15-.28.3-.42.46h0s-.03.05-.05.07c-.02.02-.04.05-.07.08-.12.15-.32.37-.47.54-.22.25-.44.51-.66.77-.22.26-.43.52-.65.78-.06.06-.11.12-.16.19-.05.06-.1.13-.16.19-.23.28-.46.56-.68.84-.23.28-.46.57-.68.85-.01.01-.02.02-.02.03s0,.02,0,.02c-.46.59-.91,1.18-1.37,1.78-.24.32-.48.63-.72.95-.24.32-.48.63-.72.95h0c-.28.36-.57.76-.87,1.2t-.02.01c-1.9,2.73-4.3,7.09-6.52,11.54-.09.2-.19.41-.3.6-.62,1.26-1.22,2.52-1.8,3.75-.02.04-.04.08-.06.13-.16.34-.32.69-.48,1.02-.31.68-.61,1.34-.9,1.99-.28.64-.56,1.27-.81,1.87-.2.45-.38.89-.55,1.31-.06.14-.12.27-.17.41-.11.27-.22.53-.32.79-.14.44-.3.86-.48,1.27-.02.02-.02.04-.03.05-.05.12-.09.24-.12.35-.12.34-.23.65-.31.94-.02.06-.04.13-.06.19-.04.12-.07.23-.1.34-.05.16-.09.31-.12.44,0,.03,0,.05-.01.08h0s-.01.06-.02.09c-.03.19-.06.37-.09.56-.08.52-.15,1.03-.22,1.51-.01.15-.03.3-.04.45-.03.43-.06.86-.09,1.29-.03.32-.06.65-.07.96,0-.02,0-.03,0-.05,0,.07,0,.15-.02.22,0,.05-.01.1-.01.15v.1s-.01-.03-.01-.05c-.05.84-.1,1.68-.14,2.53-.05.84-.08,1.68-.11,2.53v.03c-.01.19-.02.37-.02.55-.01.18-.02.36-.03.54-.02.79-.04,1.56-.05,2.34h.08c3.32.05,24.91.05,46.39.04h.03v-52.5h-.03c-.19.01-.38-.01-.57-.03-.16-.01-.32-.03-.48-.07-3.22-.55-5.66-3.35-5.66-6.73,0-3.74,2.99-6.77,6.71-6.83h.03v-9.15h-.31Z" fill="#227154" stroke-width="0"/>
          <path d="M67.26,274.81v.05s0-.02,0-.02c.05-.56.1-1.1.14-1.66-.06.55-.1,1.09-.15,1.63Z" fill="#08c0c3" stroke-width="0"/>
          <path d="M67.26,274.86c0,.1,0,.19.02.29,0-.1,0-.21,0-.31,0,0,0,.02,0,.02Z" fill="#08c0c3" stroke-width="0"/>
          <path d="M60.36,273.3s.02.02.03.03h0s-.02-.02-.03-.03Z" fill="#9a90c4" stroke-width="0"/>
          <path d="M83.28,239.44c.91-1.19,1.82-2.37,2.76-3.52-.46.56-.91,1.13-1.36,1.69-.19.23-.37.46-.55.69-.28.38-.57.76-.85,1.14Z" fill="#09a09c" stroke-width="0"/>
          <path d="M67.48,271.79c.06-.48.13-.99.22-1.51.03-.19.06-.37.1-.56,0-.06.02-.11.03-.18.11-.52.35-1.29.71-2.25,0-.02,0-.03.02-.05.14-.39.3-.81.48-1.27.81-2.04,1.93-4.64,3.23-7.39.02-.05.04-.09.06-.13.58-1.23,1.18-2.49,1.8-3.75.1-.19.2-.39.3-.6,2.22-4.45,4.62-8.81,6.52-11.54,0,0,0,0,.02-.02.31-.43.6-.84.88-1.18h0c.48-.64.96-1.28,1.43-1.92.28-.38.57-.76.85-1.14.18-.23.36-.47.55-.69.45-.56.9-1.14,1.36-1.69.1-.13.21-.26.32-.38.43-.52.86-1.04,1.3-1.55.26-.3.65-.75.59-.68.27-.31.56-.62.84-.92.2-.22.4-.43.62-.65.64-.68,1.3-1.34,2-1.99.03-.03.07-.06.1-.1.06-.06.13-.12.2-.18.38-.35.77-.69,1.17-1.03.06-.06.14-.12.2-.18h0s.02-.02.03-.03c.02-.02.02-.03.04-.04.02-.02.06-.04.08-.06,0,0,.02-.02.03-.03.27-.22.52-.44.8-.64-2.6,1.18-3.62-.99-6.01-4.16h0c-.28-.38-.57-.76-.89-1.14-.06-.09-.16-.2-.27-.35-.12-.15-.26-.33-.42-.54-.1-.14-.22-.29-.34-.45-.02-.03-.06-.07-.09-.11-.19-.24-.39-.5-.6-.79-.27-.35-.56-.72-.85-1.13-.16-.21-.32-.43-.49-.65-.31-.41-.61-.81-.93-1.23-.23-.31-.47-.62-.7-.94-.27-.35-.52-.69-.77-1.03-.02-.02-.04-.06-.06-.09-.39.85-.76,1.72-1.14,2.58-.19.43-.36.85-.55,1.27-.19.44-.37.88-.55,1.32-.05.11-.1.23-.14.35-.09.22-.18.43-.27.66-.22.54-.43,1.07-.64,1.61-.1.26-.2.51-.3.76-.1.23-.19.45-.27.68-.12.32-.24.64-.36.97-.06.17-.13.33-.19.5-.23.61-.45,1.22-.67,1.84-.28.77-.56,1.55-.81,2.33-.13.38-.25.75-.38,1.13-.19.55-.36,1.1-.54,1.65-.09.26-.17.51-.24.76-.1.3-.19.6-.28.9-.18.56-.35,1.1-.51,1.66-.16.56-.32,1.11-.48,1.67-.08.27-.15.54-.23.81-.07.27-.14.53-.23.81-.28,1.03-.56,2.08-.82,3.12-.21.82-.42,1.64-.61,2.47-.09.35-.17.71-.25,1.06-.1.36-.18.72-.25,1.09-.17.73-.33,1.47-.48,2.2-.13.58-.24,1.17-.35,1.75-.05.19-.09.39-.12.58-.09.48-.19.94-.27,1.41-.15.79-.3,1.57-.43,2.36-.13.74-.26,1.49-.38,2.24-.03.16-.06.31-.08.48v.06h0s0,.05,0,.07c0,.06-.02.13-.03.19-.1.64-.2,1.27-.29,1.91-.02.14-.05.3-.06.44-.04.27-.08.53-.12.81-.11.81-.22,1.61-.32,2.42h0c-.34,2.68-.61,5.35-.83,8.04Z" fill="#006347" stroke-width="0"/>
          <path d="M78.13,209.61s.02.02.02.03c.44.65,2.05,2.83,3.81,5.19.02.03.05.06.06.09.25.34.51.68.77,1.03.23.32.47.64.7.94.31.42.62.82.93,1.23.17.23.33.44.49.65.3.4.59.77.85,1.13.21.29.41.55.6.79.03.04.06.08.09.11.12.16.23.31.34.45.16.21.3.39.42.54.11.15.21.27.27.35.31.39.6.76.89,1.14h0c2.38,3.18,3.41,5.35,6.01,4.17.67-.31,1.43-.83,2.36-1.61,3.25-2.75,16.35-15.93,16.35-15.93,0,0,.02-1.4,0-1.82l-.13-.02c-5.69-3.09-25.29-16.44-29.47-18.48-3.61-.7-2.45,4.24-3.16,6.43-.32,3.2-1.51,9.94-2.01,12.53-.1.58-.18.95-.2,1.04Z" fill="#005a3e" stroke-width="0"/>
          <path d="M59.9,283.37h7.01c.02-.78.03-1.55.06-2.34.02-.36.02-.72.05-1.1v-.03c.06-1.68.14-3.37.25-5.06v-.05c.02-.79.08-1.65.19-2.57,0-.15.02-.31.04-.45.22-2.69.49-5.36.83-8.04h0c.1-.81.21-1.62.32-2.42.04-.27.08-.54.12-.81.02-.14.04-.3.06-.44.09-.64.19-1.27.29-1.91,0-.06.02-.13.03-.19,0-.02,0-.04,0-.06h0v-.04s0-.02,0-.02c.02-.16.05-.31.08-.48.11-.74.24-1.49.38-2.24.03-.24.08-.48.12-.72.02-.07.03-.15.04-.23.09-.48.18-.94.27-1.41.08-.47.18-.93.27-1.41.03-.19.07-.39.12-.58.11-.58.23-1.17.35-1.75.04-.21.08-.42.13-.63.06-.27.12-.54.18-.81.06-.25.11-.51.18-.76.07-.36.15-.72.25-1.09.02-.14.06-.27.09-.41.05-.22.1-.43.16-.65.19-.83.4-1.65.61-2.47.27-1.04.54-2.09.82-3.12.08-.27.15-.54.23-.81.08-.27.15-.55.23-.81.16-.56.32-1.12.48-1.67.16-.56.33-1.1.51-1.66.09-.3.19-.6.28-.9.07-.26.15-.51.24-.76.18-.55.35-1.1.54-1.65.13-.38.25-.75.38-1.13.26-.78.53-1.55.81-2.33.12-.35.24-.69.37-1.04.1-.27.19-.54.3-.81.06-.17.12-.33.19-.5.12-.32.24-.64.36-.97.08-.23.17-.46.27-.68.1-.26.19-.51.3-.76.2-.54.42-1.07.64-1.61.09-.23.18-.44.27-.66.05-.11.1-.23.14-.35.18-.44.36-.88.55-1.32l.31-.75c.07-.18.15-.35.23-.52.36-.86.75-1.72,1.14-2.58-1.76-2.37-3.37-4.54-3.81-5.19,0,0-.02-.02-.02-.03-9.62,15.03-15.11,38.69-17.24,59.16-.02.1-.02.2-.03.3-.52,5.02-.84,9.86-.96,14.31Z" fill="#323233" stroke-width="0"/>
          <path d="M67.26,274.81c.06-.85.12-1.72.19-2.57-.1.92-.16,1.78-.19,2.57Z" fill="#323233" stroke-width="0"/>
        </g>
      </g>
      <g id="sorriso" class="sorriso">
        <rect x="103.19" y="164.88" width="22.04" height="1" fill="#38393a" stroke-width="0"/>
      </g>
    </g>
    <g id="icon" class="gocciaAnimation">
      <path d="M152.13,102.27c0,5.46-4.43,9.89-9.89,9.89s-9.88-4.43-9.88-9.89c0-1.24.23-2.42.65-3.51h-.02l9.25-26.99,9.3,27.11h-.01c.39,1.05.6,2.2.6,3.39Z" fill="#0098c8" stroke-width="0"/>
      <path d="M144.02,107.72c-.28,0-.5-.22-.5-.5s.22-.5.5-.5c1.34,0,2.37-.43,3.08-1.27.9-1.07,1.03-2.53.9-3.25-.49-2.78-3.28-10.93-3.31-11.01-.09-.26.05-.55.31-.64.26-.09.54.05.63.31.12.34,2.85,8.31,3.35,11.16.19,1.09-.08,2.82-1.12,4.07-.89,1.06-2.22,1.63-3.84,1.63Z" fill="#fff" stroke-width="0"/>
    </g>
  </g>
</svg>