<?xml version="1.0" encoding="UTF-8"?>
<svg id="Layer_1" data-name="Layer 1" xmlns="http://www.w3.org/2000/svg" viewBox="0 0 226.77 283.46">
  <defs>
    <style>
      .cls-1 {
        fill: #f9c0a0;
      }

      .cls-1, .cls-2, .cls-3, .cls-4, .cls-5, .cls-6, .cls-7, .cls-8, .cls-9, .cls-10, .cls-11, .cls-12, .cls-13, .cls-14, .cls-15, .cls-16, .cls-17, .cls-18, .cls-19, .cls-20 {
        stroke-width: 0px;
      }

      .cls-2 {
        fill: #61457c;
      }

      .cls-3 {
        fill: #6466a8;
      }

      .cls-4 {
        fill: #38393a;
      }

      .cls-5 {
        fill: #1a1a1a;
      }

      .cls-6 {
        fill: #19a3a6;
      }

      .cls-7 {
        fill: #0c6b6a;
      }

      .cls-8 {
        fill: #1c1a18;
      }

      .cls-9 {
        fill: #09a09c;
      }

      .cls-10 {
        fill: #08c0c3;
      }

      .cls-11 {
        fill: #09837e;
      }

      .cls-12 {
        fill: #1f2324;
      }

      .cls-13 {
        fill: #cbccce;
      }

      .cls-14 {
        fill: #d1906c;
      }

      .cls-15 {
        fill: #c97c43;
      }

      .cls-16 {
        fill: #c0bbdc;
      }

      .cls-17 {
        fill: #323233;
      }

      .cls-18 {
        fill: #7c83b6;
      }

      .cls-19 {
        fill: #fff;
      }

      .cls-20 {
        fill: #eda489;
      }
    </style>
  </defs>
  <g id="sfondo">
    <rect class="cls-16" x="-.01" y="-.17" width="226.8" height="169.9"/>
    <g>
      <g>
        <path class="cls-3" d="M226.79,50.93v47.3h-64.2l-.1-.1s-.1,0-.1-.1c-.1,0-.1-.1-.1-.1v.2h-5.4v-26c2.5-1,4.9-2,7.4-3,1.7-.7,3.4-1.4,5.1-2.1.5-.2.7-.5.7-1v-19.6c0-1.1.1-1.2,1.2-1.1,1.3.1,2.6.1,3.9.1.2,0,.3,0,.4.1q.1,0,.1.1l.1.1v18c0,.2-.1.5,0,.8h0c.6-.2,1.2-.5,1.9-.8.6-.2,1.2-.5,1.9-.8,4.8-2,9.7-4.1,14.5-6.1,2.2-.9,4.4-1.8,6.6-2.8,2.2-.9,4.4-1.8,6.5-2.8.2-.1.4-.2.6-.2h13.4c1.8-.1,3.7-.1,5.6-.1h0Z"/>
        <path class="cls-18" d="M35.99,164.33c-.3,0-.5,0-.7.1.1-.1.3-.1.7-.1h14.2-14.2ZM51.89,164.13s.1,0,.2-.1h0q-.1.1-.2.1Z"/>
        <path class="cls-18" d="M51.89,166.13c-.1.2-.1.4-.1.6,0,.3,0,.5-.1.8-.1.1-.1.2,0,.3v.5c-.1.2-.2.4-.1.6,0,.2-.1.4-.1.7-.1.1-.1.2,0,.3,0,.3,0,.6-.1.8-.1.1-.1.3-.1.4,0,.2,0,.4-.1.7-.1.1-.1.3,0,.4v.2c-.2.3-.2.6-.1.9,0,.2,0,.4-.1.5-.1.2-.1.4,0,.5v.2c-.1.1-.1.3-.1.5s0,.4-.1.7c-.1.4-.2.9-.2,1.4v.6c-.2.5-.3,1-.2,1.5,0,.2,0,.4-.1.6-.1.1-.1.2,0,.3,0,.2,0,.5-.1.7s-.1.5-.1.8c0,.2,0,.3-.1.5v.1c-.2,1.9-.5,3.8-.7,5.7-.5,3.8-.9,7.6-1.3,11.5,0,.4-.1.8-.1,1.2-.2,2.1-.5,4.3-.8,6.4-1.3.6-2.5,1.1-3.8,1.6-.3.1-.5.2-.8.3-.5.2-.9.4-1.3.6-.4.2-.8.3-1.1.5-.8.4-1.5.7-2.3,1.1,0,0-.1.1-.2.1h0c-1,.4-2.1.6-3.1,1.2-1,.6-2,1.1-2.9,1.7-1,.6-2,1.3-3,2.1-3.6,2.9-6.9,6.1-9.4,10.2-.3.5-.5,1.1-1,1.5-1.5.3-3.1.1-4.7.1-.8,0-.8-.1-.8.8,0,4.6,0,9.1.1,13.7,0,.2-.1.5.2.6v.5c0,.9-.3,1.7-.4,2.6-.2,1.7-.4,3.5-.6,5.2-.2,1.9-.5,3.9-.7,5.8-.2,1.9-.3,3.8-.6,5.7-.3,2.1-.4,4.3-.6,6.4-.3,2.8-.6,5.5-.8,8.3-.2,2-.4,4-.5,6H-.01V101.93c6.5,0,13.1-.1,19.6.1,5.1.1,10.1,0,15.2.1.2,0,.3,0,.4-.1,0,0,.1,0,.1.1v41.2c-.1,0-.1.1-.2.1,0,.1-.1.1-.1.2v.4c-.1,6.8,0,13.6-.2,20.4h.4c.1-.1.3-.1.7-.1h15.6q.1,0,.2-.1t.2-.1s.1,0,.2-.1c-.1.7-.1,1.4-.2,2.1h0Z"/>
        <path class="cls-18" d="M226.79,98.33v185h-5.7c-.1-.4-.1-.8-.1-1.1-.3-2.8-.5-5.5-.8-8.3-.4-3.5-.9-6.9-1.4-10.4-.4-3.6-.6-7.2-1-10.8-.2-2.2-.5-4.4-.7-6.5-.3-2.5-1.1-4.9-1.6-7.4-.3-1.5-.8-2.8-1.2-4.3.4-.1.2-.4.1-.6-.4-1.3-.8-2.6-1.2-3.9-.2-.8-.3-1.6-.9-2.2-.7-.7-1.6-1.3-2.3-2.1,0,0-.1,0-.1.1-.2-.1-.3-.3-.4-.4-1-1.4-2.1-2.7-3.3-3.9-3.2-3.1-6.7-5.8-10.5-8.1-.3-.2-.7-.4-1-.6-1-.6-2.1-1.2-3.3-1.3-.5-.2-.9-.5-1.4-.7-.6-.2-1.1-.5-1.6-.7-2.2-1-4.5-2.1-6.8-2.9.2-.1.2-.2.1-.4-.1-.7-.2-1.5-.4-2.2-.2-1.1-.3-2.1-.5-3.2.1-.1.1-.3.1-.4s0-.2-.1-.3c0-.2-.1-.4-.1-.7.1-.5-.1-1-.2-1.6,0-.2,0-.3-.1-.5.1-.1.1-.3-.1-.4,0-.2,0-.4-.1-.5.1-.1,0-.3-.1-.4,0-.2-.1-.5-.1-.7.1-.1.1-.3-.1-.4,0-.1,0-.3-.1-.4,0-.4,0-.7-.1-1v-.2c.1-.1.1-.2,0-.3v-.9c-.3-.8-.3-1.6-.4-2.4-.5-4-1.1-8-1.6-12.1-.4-3.2-.8-6.3-1.2-9.5v-.5c0-.1-.1-.2-.1-.3v-.1h0v-.1c0-.2-.1-.4-.1-.7.1-.2.1-.3-.1-.5v-.3c.1-.2.1-.4-.1-.6,0-.2,0-.4-.1-.5.1-.2.1-.5-.1-.7,0-.1-.1-.3-.1-.4.1-.2,0-.5-.1-.7v-.4c.1-.3.1-.6-.1-.8v-.3c.1-.2,0-.4-.2-.6.1-.9-.1-1.7-.2-2.6-.5-4.7-1.2-9.3-1.8-13.9-.1-.6-.3-1.2-.1-1.9-.4-.8-.3-1.7-.5-2.5-.5-3.8-1-7.6-1.5-11.4-.1-.6-.4-1.2-.2-1.8-.1,0-.2-.1-.2-.3.1-.8-.2-1.4-.3-2.2v-.4c0-.2-.1-.3-.1-.5,0-.1,0-.2-.1-.3,0-.2-.1-.4-.1-.7.1-.1.1-.2,0-.3,0-.2,0-.4-.1-.5,0-.5-.1-1-.2-1.5,0-.2-.1-.3-.1-.5.1-.2.1-.3-.1-.4v-.3c.1-.2,0-.5-.1-.7,0-.1,0-.3-.1-.4.1-.5-.1-1-.2-1.5,0-.1,0-.3-.1-.4.1-.6,0-1.1-.2-1.6v-.8c-.6-3.8-1.2-7.6-1.8-11.4v-.1c-.2-1.4-.5-2.8-.5-4.2v-.2c.1,0,.1.1.1.1l.1.1.1.1h.1s.1,0,.2.1c.2.1.5.1.8.1l58.6-.1h0Z"/>
        <path class="cls-3" d="M226.79,98.13v.2h-58.4c-.2,0-.3,0-.5-.1q-.1,0-.2-.1h-.1,59.2Z"/>
        <path class="cls-3" d="M-.01,67.63c.6-.1,1.1.4,1.6.6,4.1,2.2,8.1,4.4,12.2,6.6,4.1,2.1,8.2,4.1,12.3,6.2.6.3.6.2.6-.4v-15.6c0-1.1.5-1.7,1.5-1.7h3.2c.3,0,.5,0,.5.5v19.6c0,.9.4,1,.9,1.2.6.2,1.3.4,1.9.7.4.1.6.4.6.9,0,3.7,0,7.4-.1,11-.8.1-1.5.1-2.3.1-9,0-18,.1-27-.1-2-.1-4,0-5.9,0v-29.6h0Z"/>
        <path class="cls-2" d="M49.39,101.83h-13.6c-.2,0-.5-.1-.6.2-.2,0-.3.1-.4.1-5.1,0-10.1.1-15.2-.1-6.5-.2-13.1-.1-19.6-.1v-4.9h5.9c9,.2,18,.1,27,.1.8,0,1.6,0,2.3-.1,1.7.2,3.5.1,5.2.1h8.3c.4,0,.6.1.6.6.1,1.4.2,2.7.1,4.1h0Z"/>
        <path class="cls-3" d="M71.69,153.03l-.8,3c-.5,1-.6,2.1-.9,3.1-.2.8-.4,1.5-.5,2.3-.4.6-.5,1.2-.5,1.8-.2.3-.3.6-.4.9h0c-.1,0-.2.1-.3.1s-.2.1-.4.1-.3,0-.4.1h-.5c-.7.1-1.4,0-2.1,0h-27.9c-.7,0-1.1,0-1.3.1h-.8c.2-6.8,0-13.6.3-20.4v-.4c0-.1.1-.2.2-.2s.2-.1.3-.1c3.2.9,6.4,1.8,9.6,2.6,8.3,2.3,16.7,4.6,25,6.9.5,0,.9.2,1.4.1h0Z"/>
      </g>
      <rect class="cls-18" x="156.79" y="82.23" width="70" height="151.5"/>
      <path class="cls-18" d="M224.29,209.83v73.5H5.39v-73.5h218.9Z"/>
      <rect class="cls-2" x="-.01" y="97.03" width="49.4" height="5"/>
      <rect class="cls-2" x="146.09" y="79.73" width="80.7" height="5"/>
      <rect class="cls-1" x="201.79" y="120.73" width="12.5" height="21.5"/>
      <rect class="cls-1" x="172.79" y="120.73" width="12.5" height="21.5"/>
      <rect class="cls-1" x="172.79" y="172.03" width="12.5" height="21.5"/>
      <rect class="cls-1" x="201.79" y="172.03" width="12.5" height="21.5"/>
      <rect class="cls-1" x="13.59" y="109.03" width="8.2" height="10.3"/>
      <rect class="cls-1" x="13.59" y="153.03" width="8.2" height="10.4"/>
      <rect class="cls-1" x="13.59" y="193.13" width="8.2" height="10.4"/>
      <rect class="cls-18" x="31.29" y="164.43" width="40.4" height="56.3"/>
      <path class="cls-18" d="M167.19,98.13l.1.1h-.3v-.2c.1-.1.1,0,.2.1,0-.1,0,0,0,0h0Z"/>
    </g>
    <g>
      <path class="cls-12" d="M100.39,35.13c.1,0,.3,0,.4.1-.2.1-.4.5-.6,0,.1,0,.1-.1.2-.1h0Z"/>
      <path class="cls-2" d="M130.09,35.13c-.1,0-.3,0-.4-.1.2,0,.3,0,.4.1Z"/>
      <path class="cls-2" d="M42.39,190.03c0,.1-.1.1-.2.1,0,0,.1-.1.2-.1Z"/>
    </g>
  </g>
  <g id="testa">
    <path class="cls-4" d="M169.09,220.73h0c-1.3-.5-18.2-6.3-19.5-6.9-3.2-4.6-6.1-19-5.3-23.5l-.2-.4c-3.7-1.6-7.3-3.6-11-5.3l-.1-.9c0-.5.1-1.1.1-2,0-2.6.1-6.2.1-7.1,0-.1.4-.3.4-.3l.6-.6c.8-.8,1.5-1.5,2.1-2.3.3-.3.6-.7.9-1,1.2-1.5,2.3-3.2,3.3-4.9v-.1c.5-.8.9-1.7,1.3-2.6h0c.1.1.3.2.4.3.9.7,1.8,1.1,2.7,1.2h1.1c.3,0,.7-.1,1-.3.6-.2,1.2-.7,1.7-1.2.1-.1.2-.3.4-.4l.2-.2c1.2-1.4,1.6-3.1,1-4.8-.4-1.8-1.7-3.4-4.3-4.2h0c.3-.2.6-.4,1-.6.2-.1.4-.3.7-.4l.1-.1c.1-.1.3-.2.4-.3.1-.1.2-.1.3-.2.1-.1.3-.2.4-.3.1,0,.1-.1.2-.1h0l.1-.1h0c.1-.1.3-.2.4-.4.3-.3.6-.6.9-1l.3-.3c.1-.2.3-.4.4-.6.1-.2.2-.3.3-.5.2-.3.3-.6.5-.9.1-.2.2-.4.3-.7.1-.2.1-.3.2-.5,0-.1.1-.2.1-.3v-.2c.1-.5.2-1,.3-1.5v-2.3c0-.1,0-.3-.1-.4,0-.1,0-.3-.1-.4,0-.1,0-.2-.1-.3,0-.1-.1-.3-.1-.4,0-.2-.1-.4-.2-.5h0v-.5c.7-.1,1.4-.2,2.1-.5,1,0,3-2.1,3.5-1.2h0c.3,1.9,11.4,83,11.2,83Z"/>
    <path class="cls-14" d="M115.09,184.13v25.8h-18.7v-27h0v-.7.2-.4h0v-8.9c.1.1.3.2.5.4.1,0,.1.1.2.2.8.7,1.9,1.6,2.5,2.1.1,0,.1.1.2.1.7.5,1.4,1,2.2,1.5.4.2.7.5,1.1.8s.7.5,1.1.7c.5.3,1,.6,1.5.9.3.2.6.4,1,.6.6.4,1.3.7,2,1.1.9.5,1.8.9,2.8,1.3.2.1.5.2.7.3,0,0,.1,0,.1.1.2.1.5.2.7.3.3.1.5.2.8.3.2.1.5.1.7.2.1,0,.2,0,.2.1h.1c.1.1.2.1.3,0Z"/>
    <path class="cls-20" d="M133.29,180.73v29.2h-18.2v-25.8h0c.2,0,.4-.1.6-.2.7-.2,1.4-.5,2-.7.2-.1.5-.2.8-.3.2-.1.5-.2.7-.3s.5-.2.7-.3c.6-.3,1.1-.6,1.7-.9.2-.1.3-.2.5-.3.1,0,.1-.1.2-.1s.2-.1.3-.1c.3-.2.6-.3.9-.5.4-.2.7-.4,1.1-.6.4-.2.7-.4,1-.6.7-.4,1.4-.9,2.1-1.4,1.4-.9,2.7-1.9,4-2.9.1-.1.2-.2.4-.3h0l.1-.1.1-.1c.1-.1.2-.2.4-.3l.1-.1.1-.1s.1,0,.1-.1c.1-.1.2-.2.3-.2h0v.1c.1.7.1,4.4,0,7Z"/>
    <path class="cls-5" d="M115.29,82.33c-10.2-.3-20.4,2.9-27.6,10.3h0c-.3.3-.6.6-.9.8-3.8,3.8-6.8,7.7-9.4,16.6-8,27.7-17.2,112.4-17.4,113.9,1.8-.6,25.4-13.3,25.5-13.3,0-1.4.7-17.3.7-18.8h0l10.3-7.8.3-.1h0v-.9h0v-8.9h0c-1.3-1.4-2.7-2.7-4-4.2-1.8-2.1-3.2-4.6-4.1-7.2h0q0-.1-.1-.2c0-.1-.1-.2-.1-.2h0c-.8-1.7-2-6.3-2.3-8.1v-.2c0-.2-.2-.3-.3-.5v-.1h0v.1c-.3-.2-.6-.2-.8-.1-.1,0-.1.1-.2.1s-.1.1-.2.1h0c-.5.4-.9.8-1.4,1.2-.8.7-1.4,1.5-1.9,2.5-1.2,2.4-.4,4.7,1.9,5.9.9.5,1.8.6,2.8.6.2,0,.4-.1.6-.1q.1,0,.2-.1c.1,0,.1-.1.2-.1q.1-.1.2-.2c.2-.2.3-.4.5-.7,0-.1.1-.2.2-.3h0s.1-.1.1,0c.2.1.2.3.1.5-.1.5-.3.9-.6,1.1-.1.1-.2.1-.3.2-.2.1-.4.2-.6.2h-.4c-1.5,0-2.9-.2-4.1-1.2-1.8-1.4-2.4-3.6-1.6-5.7l.3-.6c.1-.2.2-.3.3-.5.1-.1.2-.3.3-.4.1-.2.2-.3.3-.4,0,0,0-.1.1-.1.1-.1.3-.3.4-.4.1-.1.3-.3.4-.4q.1-.1.2-.1t.2-.2c.2-.2.4-.3.6-.5h0c.2-.1.4-.3.5-.4.1-.1.3-.2.4-.3.2-.2,0-.2-.1-.2h0c-.5-.1-.9-.3-1.4-.5-.2-.1-.3-.2-.5-.3s-.3-.2-.4-.3-.2-.2-.3-.2c-.5-.4-.9-.8-1.3-1.2q-.1-.1-.2-.2c-.1-.1-.3-.3-.4-.4h0s-.1-.1-.1-.2c-.1-.2-.3-.3-.4-.5s-.2-.4-.4-.6h0s0-.1-.1-.1c0-.1-.1-.1-.1-.2-.1-.2-.2-.4-.3-.5-.1-.2-.2-.5-.3-.8-.1-.3-.2-.5-.3-.8-.1-.3-.2-.6-.3-.9-.4-1.6-.4-3.2.2-4.7.1-.2.2-.4.2-.6l.3-.6c.1-.1.1-.3.2-.4.6-1,1.4-1.6,2.5-1.9.1,0,.1-.1.2-.1s.2,0,.3-.1h1.2l.1.1h.1c.1,0,.2.1.3.1.3.1.5.2.7.4s.4.4.6.6q.1.1.2.2h0l.1.1.1.1.1.1h.1c.1-.1,0-.2,0-.3.1-2.1,0-4.2,0-6.3,0-.6.1-1.1.5-1.5q.1-.1.2-.2c.1-.1.2-.1.2-.2,3.4-2.2,6.7-4.7,9.8-7.4.6-.5,1.2-1,1.7-1.5.6-.5,1.1-1,1.7-1.6.2-.2.4-.3.6-.5l.5-.5c.7-.7,1.4-1.5,2.1-2.2.7-.8,1.4-1.5,2.1-2.3,1.3-1.5,2.5-2.9,3.7-4.5.8-1,1.6-2.1,2.3-3.1,1.1-1.6,2.2-3.2,3.3-4.8h0c.3-.5.6-1,.8-1.5h0c.2-.5.4-1.1.4-1.7h.1c.1.2.2.3.2.5v-16.6h-.1Z"/>
    <path class="cls-5" d="M86.09,164.43h.4-.4c-1.5,0-2.9-.2-4.1-1.2-1.8-1.4-2.4-3.6-1.6-5.7.6-1.6,1.8-2.7,3.1-3.7-1.3,1-2.4,2.1-3,3.7-.8,2.1-.2,4.3,1.6,5.7,1.1,1,2.5,1.2,4,1.2Z"/>
    <path class="cls-20" d="M102.09,135.73c-.2-.6-.5-1.2-1-1.6,0,0,0-.1-.1-.1-.1-.1-.2-.1-.3-.2-.1-.1-.3-.2-.5-.2-.1-.1-.2-.1-.4-.1h0c-.2,0-.3-.1-.5-.1h-1.3c-.1,0-.2,0-.2.1h-.2c-.1,0-.2,0-.3.1-.1,0-.2.1-.2.1h0c-.1,0-.1.1-.2.1h-.1c-.1,0-.1.1-.2.1,0,0-.1,0-.1.1-.1,0-.1.1-.2.1l-.1.1-.1.1-.1.1-.1.1c-.1.1-.1.2-.2.3-.8,1.4-.7,2.9-.2,4.3.2.6.5,1.1,1,1.5,1.3,1.1,4.2,1,5-1.3.3-.7.4-1.3.4-2,.4-.4.3-1,.2-1.6ZM93.09,129.63h0c-.1,0-.1.1-.2.1.1,0,.2-.1.2-.1.1,0,.2-.1.2-.1,0,.1-.1.1-.2.1Z"/>
    <path class="cls-20" d="M114.99,165.53v-63.2c0-.7-.1-1.4-.1-2.1,0-.1,0-.2-.1-.3h-.1c-.1,0-.2-.1-.3-.1h0c-.3.5-.5,1-.8,1.5h0c-1,1.7-2.1,3.3-3.3,4.8-.8,1-1.5,2.1-2.3,3.1-1.2,1.5-2.4,3-3.7,4.5-.7.8-1.4,1.5-2.1,2.3-.7.7-1.4,1.5-2.1,2.2-.2.2-.4.3-.5.5s-.4.4-.6.5c-.5.5-1.1,1-1.7,1.6-.6.5-1.1,1-1.7,1.5-3.1,2.7-6.3,5.1-9.8,7.4-.1.1-.2.1-.2.2q-.1.1-.2.2c-.4.4-.5.9-.5,1.5v6.6h-.1l-.1-.1h0l-.1-.1q-.1-.1-.2-.2c-.2-.2-.4-.4-.6-.5-.2-.2-.5-.3-.7-.4-.1,0-.2-.1-.3-.1h-.1s-.1,0-.1-.1h-1.2c-.1,0-.2,0-.3.1-.1,0-.1.1-.2.1-1.1.3-1.9,1-2.5,1.9-.1.1-.1.2-.2.4l-.3.6c-.1.2-.2.4-.2.6-.5,1.5-.6,3.1-.2,4.7.1.3.2.6.3.9.1.3.2.5.3.8.2.5.4.9.6,1.3,0,.1.1.1.1.2,0,0,0,.1.1.2.1.2.2.4.4.5.1.2.2.3.4.5,0,.1.1.1.1.2h0c.2.2.4.4.6.6.4.4.8.8,1.3,1.2.1.1.2.1.3.2.1.1.3.2.4.3.2.1.3.2.5.3.4.2.9.4,1.4.5h0q.1-.1.2-.1c.1,0,.3.2.4.2h.3c.1,0,.2.1.2.1.1,0,.2.1.2.2v.1c.1.2.3.3.3.5v.2c.3,1.8,1.5,6.4,2.3,8.1h0c0,.1.1.1.1.2s.1.1.1.2h0c1,2.6,2.3,5,4.1,7.2,1.2,1.5,2.7,2.8,4,4.2h0c.1.1.3.2.5.4.1,0,.1.1.2.2.8.7,1.9,1.6,2.5,2.1.1,0,.1.1.2.1.7.5,1.4,1,2.2,1.5.4.2.7.5,1.1.8s.7.5,1.1.7c.5.3,1,.6,1.5.9.3.2.6.4,1,.6.6.4,1.3.7,2,1.1.9.5,1.8.9,2.8,1.3.2.1.5.2.7.3,0,0,.1,0,.1.1.2.1.5.2.7.3.3.1.5.2.8.3.2.1.5.1.7.2.1,0,.2,0,.2.1h.1c.2-.7.1-14.4.1-19.4ZM90.79,130.73h0s.1,0,0,0c.1-.1.2-.1.2-.1.4-.2.9-.5,1.4-.7,0,0,.1,0,.2-.1.1,0,.2-.1.4-.2q.1,0,.2-.1h0c.1,0,.2-.1.2-.1.2,0,.3-.1.5-.2.3-.1.6-.2.9-.3s.6-.2.9-.2c.4-.1.7-.2,1.1-.2,3.1-.5,6.1-.2,9.1,1,.5.2,1,.5,1.4.9.1.1.1.2.2.2,0,0,.1.1.1.2v.2h0c-.6-.2-1.3-.5-1.9-.7-1.3-.4-2.6-.8-3.9-.9-.2,0-.5,0-.7-.1h-2.4c-1.6.1-3.2.5-4.7.8-.2,0-.3.1-.5.1s-.3.1-.5.1c-.3.1-.6.2-.9.2-.1,0-.2,0-.3.1h-.9c-.1.2-.1.1-.1.1ZM96.89,140.83c-.5-.4-.8-.9-1-1.5-.5-1.5-.6-2.9.2-4.3.1-.1.1-.2.2-.3l.1-.1c.1-.1.2-.2.3-.3,0,0,.1-.1.2-.1l.1-.1s.1,0,.1-.1l.1-.1h.1c.1,0,.1-.1.2-.1h0c.1,0,.1-.1.2-.1h0c.1,0,.2-.1.3-.1h.1c.1,0,.2-.1.2-.1.4-.1.8-.1,1.3,0,.2,0,.3,0,.5.1h0c.1,0,.3.1.4.1,0,0,.1,0,.1.1.1,0,.2.1.3.2.6.4,1.1,1,1.3,1.8.2.6.3,1.1.2,1.7,0,.7-.1,1.4-.4,2-1,2.2-3.9,2.4-5.1,1.3Z"/>
    <path class="cls-1" d="M133.69,135.83c-.4-1.2-1.3-2-2.6-2.2-1.2-.2-2.4,0-3.2,1.1-.6.8-.9,1.7-.9,3,0,.4.1,1.1.3,1.7.5,1.2,1.4,2,2.7,2.1,1.4.1,2.6-.3,3.3-1.6.9-1.5.9-2.8.4-4.1h0ZM124.39,130.53c-.3.1-.7.2-1,.3.3-.1.7-.2,1-.3.5-.1,1-.3,1.5-.4-.5.1-1,.2-1.5.4h0ZM123.69,181.33c-.6.4-1.3.7-1.9,1.1.7-.4,1.3-.7,1.9-1.1.3-.2.7-.4,1.1-.6l-1.1.6ZM114.99,163.73v1.8c4.3,0,8.6-1.2,11-3.5-3.5,1.3-7.2,1.8-11,1.7h0Z"/>
    <path class="cls-1" d="M145.09,137.63c0-1.1.1-2.3.1-3.4v-3.4c0-.2,0-.5-.3-.7h0c-.1,0-.2-.1-.3-.2-.6-.3-1.3-.7-1.9-1.1-.5-.3-.9-.6-1.3-.9-3.3-2.4-6.5-5-9.5-7.8-.4-.3-.7-.7-1.1-1-.5-.5-.9-.9-1.4-1.4-1.7-1.8-3.4-3.5-4.9-5.4-.2-.2-.4-.4-.6-.7-.3-.3-.5-.6-.8-1-.2-.2-.3-.4-.5-.6h0c-.2-.3-.5-.6-.7-1-.2-.2-.4-.5-.6-.7l-.2-.2h0c-.1-.1-.2-.3-.3-.4,0-.1-.1-.1-.1-.2l-.1-.1c-.1-.2-.2-.3-.3-.5,0-.1-.1-.1-.1-.2-.1-.1-.2-.2-.2-.3-.1-.1-.1-.2-.2-.3-.4-.5-.7-1-1-1.5-.6-.9-1.1-1.8-1.7-2.7h0c-.3-.5-.5-.9-.8-1.4s-.5-.9-.8-1.4v-.1c-.1-.1-.2-.3-.2-.4-.1-.2-.2-.3-.2-.5h-.1c-.1.6-.2,1.1-.4,1.7h.4c.1.1.1.2.1.3,0,.7.1,1.4.1,2.1v61.4h.6c.9,0,1.8,0,2.7-.1.4,0,.9-.1,1.3-.1.4-.1.9-.1,1.3-.2.9-.1,1.7-.3,2.6-.6.4-.1.9-.2,1.3-.4.4-.1.8-.3,1.2-.4h0c-.1.2-.3.3-.5.4-.2.1-.3.3-.5.4-.2.1-.3.2-.5.4h-.1c-.2.1-.3.2-.5.3h-.1c-.2.1-.4.2-.6.3h-.1c-.1,0-.2.1-.3.1-.2.1-.5.2-.7.3-.1,0-.2.1-.3.1h0c-.1,0-.2.1-.3.1-.2.1-.5.2-.7.2-.6.2-1.3.3-2,.5-.5.1-1,.2-1.6.2-.3,0-.5,0-.8.1h-1.6v19.7h.2c.2,0,.4-.1.6-.2.7-.2,1.4-.5,2-.7.2-.1.5-.2.8-.3.2-.1.5-.2.7-.3s.5-.2.7-.3c.6-.3,1.1-.6,1.7-.9.2-.1.3-.2.5-.3.1,0,.1-.1.2-.1s.2-.1.3-.2h0c.3-.2.6-.3.9-.5h0l1.1-.6c.4-.2.7-.4,1-.7.7-.4,1.4-.9,2.1-1.4,1.4-.9,2.7-1.9,4-2.9.1-.1.2-.2.4-.3h0l.1-.1.1-.1c.1-.1.2-.2.4-.3l.1-.1.1-.1h0l.1-.1c.1-.1.2-.2.3-.2h0l.6-.6c.8-.8,1.5-1.5,2.1-2.3.3-.3.6-.7.9-1,1.2-1.5,2.4-3.2,3.3-4.9v-.1c.5-.8.9-1.7,1.3-2.6h0s0-.1.1-.1c0,0,0-.1.1-.2,0-.1.1-.2.1-.3h0c0-.1,0-.2.1-.2h0q0-.1.1-.2c0-.1.1-.2.1-.3s.1-.1.1-.2h0q0-.1.1-.2v-.1h0s0-.1.1-.2v-.1c.1-.3.2-.7.4-1.2h0c.2-.6.5-1.4.8-2.2.1-.2.1-.3.2-.5.3-1,.6-1.8.8-2.4q0-.1.1-.2c0-.1.1-.2.1-.3h0v-.1h0c-.1-4.7,0-9.4-.1-14.1.2-.8.2-1.4.3-2h0ZM139.29,130.63h-.2c-.5.2-1,0-1.5-.1-1.7-.4-3.4-.7-5.1-.9-1.7-.2-3.3-.1-4.9.2-.5.1-1,.2-1.5.3h0c-.5.1-1,.3-1.5.4h0c-.3.1-.7.2-1,.3s-.7.2-1,.3c.2-.2.5-.4.7-.6.2-.1.4-.3.6-.4.2-.1.3-.2.5-.3.4-.2.8-.4,1.2-.5,3.8-1.3,7.7-1.2,11.5.1.7.3,1.5.5,2.2.8.1,0,.3.1.3.2l-.3.2ZM133.49,139.73c-.2.3-.3.5-.6.7l-.1.1c0,.1-.1.1-.1.1h0c-.1.1-.2.2-.3.2h-.1c-.1.1-.2.1-.3.1h0c-.1,0-.2.1-.3.1h-.1c-.4.1-.8.1-1.3.1-.7,0-1.2-.3-1.7-.6h0l-.3-.3h0c-.3-.3-.5-.7-.7-1.2,0-.1-.1-.2-.1-.2,0-.1-.1-.2-.1-.2v-2.5c0-.1.1-.2.1-.4q0-.1.1-.2c.1-.2.2-.4.2-.6,0-.1.1-.2.1-.2h0c0-.1.1-.1.1-.2,0,0,0-.1.1-.1h0c.1-.1.2-.2.2-.3.2-.2.4-.3.6-.4.2-.1.4-.2.7-.3h.1c.2,0,.4-.1.6-.1h.2c.2,0,.5,0,.8.1,1.3.2,2.2,1,2.6,2.2.3.9.4,1.9.2,2.8,0,.1,0,.2-.1.3-.1.2-.1.4-.2.5h0c-.2.3-.3.4-.3.5h0Z"/>
    <path class="cls-16" d="M87.99,162.93c-.2.7-.4,1.1-.9,1.3-.2.1-.4.1-.6.2h-.4c-1.5,0-2.9-.2-4.1-1.2-1.8-1.4-2.4-3.6-1.6-5.7.6-1.6,1.8-2.7,3.1-3.7h0c.2-.1.4-.3.5-.4.1-.1.3-.2.4-.3.2-.2,0-.2-.1-.2h0q.1-.1.2-.1c.1,0,.3.2.4.2h.3c.2,0,.3.2.4.3v.1c-.3-.2-.6-.2-.8-.1,0,0-.1.1-.2.1s-.1.1-.2.1h0c-.5.4-.9.8-1.4,1.2-.8.7-1.4,1.5-1.9,2.5-1.2,2.4-.4,4.7,2,6,.9.5,1.8.6,2.8.6.3,0,.6-.1.9-.2.1,0,.1-.1.2-.1s.1-.1.2-.2c.2-.2.3-.4.5-.7,0-.1.1-.2.2-.3h.1c0,.2,0,.4,0,.6Z"/>
    <path class="cls-4" d="M115.29,82.33c16.4.5,33,10.3,37.3,27.3,3.2,9,3.6,18.7,5.3,28.1h0c-.5-.9-2.5,1.2-3.5,1.2-.7.3-1.4.4-2.1.5h0v.5h0c-.1-.2-.2-.4-.3-.6,0-.1-.1-.1-.1-.1-.1-.1-.1-.2-.2-.2v-.1c-.1-.1-.1-.2-.2-.3l-.3-.3-.4-.4c-.1-.1-.3-.2-.4-.3h-.1q-.1-.1-.2-.1h-.1c-.1-.1-.2-.1-.4-.2-.1-.1-.3-.1-.4-.1s-.2-.1-.4-.1c-.1,0-.3-.1-.4-.1h-1.2c-.1,0-.2.1-.4.1-.1,0-.2.1-.4.1-.1,0-.1.1-.2.1-.6.4-1.1,1-1.3,2v-1.7c0-1.1.1-2.3.1-3.4v-3.4c0-.2,0-.5-.3-.7h0c-.1-.1-.2-.1-.3-.2-.6-.3-1.3-.7-1.9-1.1-.4-.3-.9-.6-1.3-.9-3.3-2.4-6.5-5-9.5-7.8-.4-.3-.7-.7-1.1-1-.5-.5-.9-.9-1.4-1.4-1.7-1.8-3.4-3.5-4.9-5.4-.2-.2-.4-.4-.6-.7-.3-.3-.5-.6-.8-1-.2-.2-.3-.4-.5-.6-.2-.3-.5-.7-.7-1-.1-.2-.3-.4-.5-.6l-.1-.1-.1-.1-.1-.1h0c-.1-.1-.2-.3-.3-.4,0-.1-.1-.1-.1-.2l-.1-.1c-.1-.2-.2-.3-.3-.5l-.1-.1s-.1-.1-.1-.2c-.1-.2-.2-.3-.4-.5-.3-.5-.7-1-1-1.5-.6-.9-1.1-1.8-1.7-2.7h0c-.3-.5-.6-.9-.8-1.4-.3-.5-.5-.9-.8-1.4v-.1c-.1-.1-.2-.3-.2-.4-.1-.2-.2-.3-.2-.5h0c.1.2.2.3.2.5v-16.3h.3Z"/>
    <path class="cls-1" d="M152.89,143.23v.7c0,.3,0,.4-.1.6,0,.2-.1.5-.1.7s-.1.4-.1.7v.2c0,.1-.1.2-.1.4-.1.2-.1.4-.2.5-.1.2-.2.4-.3.7s-.3.6-.5.9c-.1.2-.2.4-.4.5-.1.2-.3.4-.4.6l-.3.3c-.3.3-.6.7-.9,1l-.4.4q-.1.1,0,0c.1-.1-.1.1-.1.1-.1.1-.2.1-.3.2-.1.1-.3.2-.4.3-.1.1-.2.1-.3.2-.1.1-.3.2-.4.3,0,0-.1,0-.1.1-.2.1-.4.3-.6.4-.3.2-.6.4-1,.6h0c-.2-.1-.4-.1-.7-.1-.1-4.7,0-9.4-.1-14.1.2-1,.7-1.6,1.3-2q.1-.1.2-.1c1-.5,2.3-.4,3.4.2h.1c.1,0,.1.1.2.1h.1c.1.1.3.2.4.3.2.1.3.3.4.4l.3.3c.1.1.1.2.2.3v.1c.1.1.1.2.2.2,0,.1.1.1.1.1.1.2.2.4.3.6.1.2.1.4.2.6,0,.1.1.3.1.4s.1.2.1.3.1.3.1.4,0,.3.1.4c0,.1,0,.3.1.4s0,.3,0,.4c-.1.2-.1.3-.1.4h0Z"/>
    <path class="cls-16" d="M149.19,162.43l-.2.2c-1,1.3-2.5,2.1-4.1,1.8-1-.1-2.1-.6-3.1-1.6l.3-.6c.1.3.3.5.5.8.6.8,1.4,1.2,2.4,1.1,1.5-.2,2.7-.7,3.7-1.9,1.5-1.6,1.6-4,.2-5.8-.8-1.1-1.9-1.8-3-2.6q-.1-.1-.2-.1c-.1,0-.1-.1-.1-.1q-.1,0-.1-.1c-.1,0-.2-.1-.3,0v-.1h0c.2,0,.5,0,.7.1h0c2.6.9,3.9,2.5,4.4,4.3.4,1.6.1,3.2-1.1,4.6h0Z"/>
    <path class="cls-5" d="M107.59,131.13c-.6-.2-1.3-.5-1.9-.7-1.3-.4-2.6-.8-3.9-.9-.2,0-.5,0-.7-.1h-2.4c-1.6.1-3.2.5-4.7.8-.2,0-.3.1-.5.1s-.3.1-.5.1c-.3.1-.6.2-.9.2-.1,0-.2,0-.3.1h-.9v-.1h0c.1,0,.2-.1.2-.1.4-.2.9-.5,1.4-.7,0,0,.1,0,.2-.1.1,0,.2-.1.4-.2q.1,0,.2-.1c.1,0,.2-.1.2-.1.2,0,.3-.1.5-.2.3-.1.6-.2.9-.3s.6-.2.9-.2c.4-.1.7-.2,1.1-.2,3.1-.5,6.1-.2,9.1,1,.5.2,1,.5,1.4.9.1.1.1.2.2.2,0,0,.1.1.1.2-.2.3-.2.4-.1.4Z"/>
    <path class="cls-4" d="M148.69,162.23c-1,1.1-2.3,1.7-3.7,1.9-1,.1-1.8-.3-2.4-1.1-.2-.3-.4-.5-.5-.8h0v-.1c0-.1.1-.1.1-.3.1-.1.1-.3.2-.4,0-.1.1-.2.1-.3s.1-.1.1-.2.1-.1.1-.2v-.1h0q0-.1.1-.2v-.1c.1-.3.2-.7.4-1.2h0c.2-.6.5-1.4.8-2.2.1-.2.1-.4.2-.5.3-.9.6-1.8.8-2.4,0-.1.1-.1.1-.2s.1-.2.1-.3h.3s.1,0,.1.1l.1.1c.1,0,.1.1.2.1,1.1.8,2.2,1.6,3,2.6,1.4,1.7,1.3,4.1-.2,5.8h0Z"/>
    <path class="cls-4" d="M139.29,130.53c0,.2-.2.1-.3.1-.5.2-1,0-1.6-.1-1.7-.4-3.4-.7-5.1-.9-1.7-.2-3.3-.1-4.9.2-.5.1-1,.2-1.5.3h0c-.5.1-1,.3-1.5.4-.3.1-.7.2-1,.3s-.7.2-1,.3c.2-.2.4-.4.7-.6.2-.1.4-.3.6-.4.2-.1.3-.2.5-.3.4-.2.8-.4,1.2-.5,3.8-1.3,7.7-1.2,11.5.1.7.3,1.5.5,2.2.8.1.1.2.1.2.3h0Z"/>
    <path class="cls-8" d="M102.29,137.43c0,.7-.1,1.4-.4,2.1-.9,2.3-3.8,2.4-5,1.3-.5-.4-.8-.9-1-1.5-.6-1.5-.6-2.9.2-4.3.7-1.3,2-1.7,3.3-1.5,1.4.1,2.2,1,2.7,2.3.1.5.2,1.1.2,1.6Z"/>
    <path class="cls-8" d="M133.49,139.73c-.7,1.3-1.9,1.7-3.3,1.6-1.4-.1-2.2-.9-2.7-2.1-.2-.6-.3-1.3-.3-1.7,0-1.3.2-2.2.9-3,.9-1,2-1.2,3.2-1.1,1.3.2,2.2,1,2.6,2.2.2,1.5.3,2.8-.4,4.1h0Z"/>
    <polygon class="cls-6" points="96.59 183.93 96.59 199.73 88.19 191.93 88.19 191.93 85.29 190.13 84.69 189.93 96.39 184.03 96.59 183.93"/>
    <path class="cls-10" d="M145.49,189.93h0l-1.4.8-10.8,6.1v-12.2c3.8,1.6,8.5,3.7,12.2,5.3Z"/>
    <path class="cls-15" d="M126.09,161.93c-2.5,2.4-6.8,3.5-11,3.5s-8.1-1.1-10.5-3.2c3.4.9,7,1.4,10.5,1.5,3.7.1,7.4-.5,11-1.8h0Z"/>
  </g>
  <g id="corpo">
    <g>
      <path class="cls-7" d="M63.69,268.53c-.2,2.6-.4,5.2-.6,7.8v1c-.1,2-.2,4-.2,5.9h-18.9c.2-2.8.5-5.6.7-8.5.1-2.1.4-4.2.6-6.3h18.1q.2.1.3.1h0Z"/>
      <path class="cls-11" d="M168.09,283.43h18.5c-.5-4.5-.8-9.1-1.1-13.5-.1-.5-.1-1-.1-1.5-5.4.9-12,.1-17.8.3v.3c.5,5,.8,9.9,1,14.3l-.5.1h0ZM168.09,273.23h0Z"/>
      <path class="cls-9" d="M79.99,208.73c-.1.4-.1.7-.2.8h0v.1c-.1.2-.2.3-.2.5-.2.3-.3.6-.5,1-.1.2-.2.4-.3.5-.1.1-.1.2-.2.3s-.1.2-.2.3-.1.2-.2.4c-1.6,3.3-3.1,6.6-4.4,10-.1.1-.1.3-.2.5-.2.4-.3.8-.4,1.1-.1.2-.2.5-.3.7-.1.2-.2.5-.3.7-.1.2-.2.5-.3.7-.2.4-.3.9-.5,1.3-.1.1-.1.3-.1.4-.2.6-.4,1.2-.6,1.8-.2.7-.4,1.4-.7,2.1q0,.1-.1.2c0,.1-.1.3-.1.4-.2.5-.3.9-.4,1.4-.2.6-.4,1.2-.6,1.9-.2.6-.4,1.3-.5,1.9v.1c-.2.7-.4,1.5-.6,2.2-.2,1-.5,1.9-.7,2.9q0,.1-.1.2c0,.1-.1.3-.1.4-.1.2-.1.4-.1.6,0,.1-.1.3-.1.4-.1.5-.2,1-.3,1.5,0,.1-.1.2-.1.3-.1.3-.1.6-.2,1-.7,3.5-1.3,7-1.7,10.5-.3,2.5-.6,5-.8,7.5v.4c-.1.9-.2,1.8-.3,2.7h-18.3c-.2-7-.6-28,6.3-39.7,6.8-9,16.9-18.3,28.4-20h0Z"/>
      <path class="cls-10" d="M185.39,268.33c-5.4.9-12,.1-17.8.3-2.1-20.5-7.6-44.1-17.2-59.2,0-.1-.1-.5-.2-1,4.6.7,8.8,3.2,12.7,5.7,21.5,14.1,20.3,28.7,22.5,54.2Z"/>
      <path class="cls-10" d="M94.99,228.43c-.1,0-.1.1,0,0-.9.9-1.8,1.7-2.7,2.5-.1.1-.2.2-.3.3-.4.4-.8.7-1.1,1.1h0c.4-.4.7-.7,1.1-1.1.1-.1.2-.2.3-.3.9-.8,1.7-1.6,2.7-2.5q-.1.1,0,0s.1-.1.2-.2c-.1.1-.2.2-.2.2ZM95.29,228.23q-.1,0,0,0-.1,0,0,0h0ZM114.79,208.03h0v1.8s-13.1,13.2-16.3,15.9c-.8.6-1.4,1.1-2,1.4h0c.6-.3,1.2-.8,2-1.4,3.2-2.8,16.3-15.9,16.3-15.9h0s0-1.4,0-1.8ZM96.39,227.23h0ZM161.49,280.93h0c0-.3,0-.7-.1-1.1h0c-.1-1.5-.1-2.9-.2-4.4v-.5h0v.1-.3c0-.6-.1-1.1-.1-1.7,0,.2,0,.5.1.8,0,.3,0,.6.1.9v-1.7c0-.3,0-.6-.1-1v-.5c-.1-.5-.1-1-.2-1.5,0-.2-.1-.4-.1-.6v-.2c-.1-.5-.3-1.3-.7-2.2h0c-.2-.4-.3-.8-.5-1.3-.8-2-1.9-4.6-3.2-7.4,0,0,0-.1-.1-.1-.6-1.2-1.2-2.5-1.8-3.8-.1-.2-.2-.4-.3-.6-2.2-4.4-4.6-8.8-6.5-11.5h0c-.3-.4-.6-.8-.9-1.2-.5-.6-.9-1.3-1.4-1.9h0c-.5-.6-.9-1.2-1.3-1.8-.5-.6-.9-1.2-1.4-1.8h0c-.1-.1-.2-.3-.3-.4-.4-.5-.9-1-1.3-1.5l-.2-.2-.1-.1c-.1-.1-.1-.2-.2-.2l-.1-.1h0c-.3-.3-.6-.6-.8-.9-.2-.2-.4-.4-.6-.7l-.3-.3-.3-.3c-.1-.1-.2-.2-.3-.4l-.2-.2c-.2-.2-.5-.5-.8-.7h0l-.1-.1c0-.1-.1-.1-.2-.2-.4-.3-.8-.7-1.2-1l-.2-.2h-.1c-.2-.2-.5-.4-.8-.6h0c-.7-.3-1.4-.8-2.4-1.6-.2-.2-.5-.4-.7-.6-1-.9-2.3-2.2-3.8-3.6-.7-.6-1.3-1.3-2-2l-1-1c-.4-.3-.7-.7-1-1l-.7-.7c-.5-.5-.9-.9-1.4-1.3-.2-.2-.4-.4-.6-.7-.2-.2-.4-.4-.6-.6-.4-.4-.8-.8-1.2-1.2-.2-.2-.4-.4-.5-.5l-.5-.5-.5-.5c-.1-.1-.3-.3-.4-.4s-.2-.2-.4-.4c-.1-.1-.2-.2-.3-.3-.1-.1-.2-.2-.2-.2l-.2-.2-.1-.1h0v-1.8h-.4v9.2c.5,0,1,.1,1.5.2.2.1.5.1.7.2s.5.2.7.3c.3.2.7.3,1,.6.2.1.3.2.5.3s.3.3.5.4c1.2,1.2,2,3,2,4.8,0,1.9-.8,3.6-2,4.8-.3.3-.7.6-1,.8-.2.1-.4.2-.6.3s-.5.2-.8.4c-.8.3-1.6.5-2.5.5h0c-.9,0-1.7-.2-2.5-.5.8.3,1.6.5,2.5.5h0v52.5h46.6c-.8-1.1-.8-1.9-.9-2.7Z"/>
      <path class="cls-6" d="M110.09,219.13c-1.2,1.2-2,3-2,4.8,0,1.9.8,3.6,2,4.8.3.3.7.6,1,.8.2.1.4.2.6.3s.5.2.8.4c.8.3,1.6.5,2.5.5h0v52.5h-45.3c.1-3,.2-6,.4-9h0c.2-1.6.4-3.2.6-4.8h0c.1-.8.2-1.5.4-2.3.3-.7.5-1.4.7-2.1.5-1.9,1.1-3.8,1.8-5.6.9-2.4,1.9-4.7,3.1-7,1.2-2.4,2.5-4.6,4-6.8,1.6-2.5,3.2-4.9,5.1-7.2,1.3-1.7,2.6-3.4,4.1-4.9.4-.4.7-.7,1.1-1.1.4-.4.7-.7,1.1-1.1.1-.1.2-.2.3-.3.9-.8,1.8-1.6,2.6-2.5h0s.1-.1.2-.2h0s.1,0,.1-.1h0c.3-.2.7-.6,1.1-1h0c.6-.3,1.2-.8,2-1.4,3.2-2.8,16.3-15.9,16.3-15.9h0v-1.8h.2v9.2h-.5c-.2,0-.3,0-.5.1-.2,0-.3,0-.5.1h0c-.2,0-.3.1-.5.1-.1,0-.3.1-.4.1s-.1,0-.2.1c-.1,0-.2.1-.3.2-.3.1-.6.3-.9.5-.2.1-.3.2-.5.3-.1,0-.3.2-.5.3Z"/>
      <path class="cls-11" d="M96.39,227.23h0c-.4.4-.9.8-1.1,1h0l-.1.1h0c-.1.1-.2.1-.2.2h0c-.9.8-1.8,1.6-2.6,2.5-.1.1-.2.2-.3.3-.4.4-.8.7-1.1,1.1-.4.4-.7.7-1.1,1.1-1.5,1.5-2.7,3.3-4.1,4.9-1.8,2.3-3.5,4.7-5.1,7.2-1.4,2.2-2.8,4.4-4,6.8-1.1,2.3-2.2,4.6-3.1,7-.7,1.8-1.2,3.7-1.8,5.6-.2.7-.4,1.4-.7,2.1-.1.8-.3,1.5-.4,2.3h0c-.2,1.6-.4,3.2-.6,4.8.2-3,.5-5.9.8-8.8.2-2,.5-3.9.7-5.9.1-1,.3-2,.4-2.9.3-1.9.6-3.9,1-5.8,0-.1,0-.2.1-.3,0-.3.1-.6.2-.8.4-2.3.9-4.6,1.5-6.9.2-.8.4-1.6.6-2.4.2-.7.4-1.4.5-2.1,0-.2.1-.4.2-.6.2-.7.4-1.5.6-2.2s.4-1.4.6-2.1c.5-1.7,1-3.4,1.6-5.1,1.5-4.4,3.1-8.8,5.1-13h0c1.7,2.3,3.5,4.6,4.5,6,.2.2.3.4.5.6.1.2.2.3.3.4.1.1.2.3.3.4.1.2.3.4.4.6.3.3.5.7.8,1h0c.9,1.2,1.6,2.2,2.3,2.9.8.7,1.5,1,2.6.7.1-.4.4-.6.7-.7Z"/>
      <path class="cls-17" d="M83.89,215.13c-1.9,4.3-3.6,8.6-5.1,13.1-2.4,7.3-4.3,14.7-5.8,22.3,0,.1,0,.2-.1.3-1.4,7.8-2.4,15.6-2.9,23.5h0c-.2,3-.3,6-.4,9h-6.7c0-2,.1-4,.2-5.9v-1c.1-2.6.3-5.2.6-7.8h0c.1-.9.2-1.8.3-2.7.2-2.6.5-5.3.8-7.9.5-3.5,1-7.1,1.7-10.5.1-.4.2-.9.3-1.3.1-.5.2-1,.3-1.5,0-.1.1-.3.1-.4.1-.2.1-.4.1-.6.1-.2.1-.4.1-.6.2-1,.5-1.9.7-2.9.2-.7.4-1.5.6-2.2v-.1c.2-.6.3-1.3.5-1.9.2-.6.4-1.2.6-1.9.1-.5.3-1,.4-1.4,0-.1.1-.3.1-.4s0-.1.1-.2c.2-.7.4-1.4.7-2.1.2-.6.4-1.2.6-1.8.1-.1.1-.3.1-.4.2-.4.3-.9.5-1.3.1-.2.2-.5.3-.7.1-.2.2-.5.3-.7.1-.2.2-.4.3-.7.1-.4.3-.8.4-1.1.1-.1.1-.3.2-.5,1.3-3.4,2.8-6.7,4.4-10,.1-.1.1-.2.2-.4s.1-.2.2-.3.1-.2.2-.3c.1-.2.2-.4.3-.5.2-.3.3-.6.5-1,.1-.1.2-.3.2-.5v-.1h0s0,.1.1.1c.1.2.3.4.5.7.1.2.3.4.4.6.8.9,1.9,2.4,3.1,4h0Z"/>
      <path class="cls-9" d="M160.99,271.73c-.1-.5-.1-1-.2-1.5,0-.2-.1-.4-.1-.6v-.2c-.1-.5-.4-1.3-.7-2.2h0c-.1-.4-.3-.8-.5-1.3-.8-2-1.9-4.6-3.2-7.4,0,0,0-.1-.1-.1-.6-1.2-1.2-2.5-1.8-3.8-.1-.2-.2-.4-.3-.6-2.2-4.4-4.6-8.8-6.5-11.5h0c-.3-.4-.6-.8-.9-1.2h0c-.5-.6-1-1.3-1.4-1.9-.3-.4-.6-.8-.9-1.1-.2-.2-.4-.5-.6-.7-.4-.6-.9-1.1-1.4-1.7-.1-.1-.2-.3-.3-.4-.4-.5-.9-1-1.3-1.6-.3-.3-.6-.8-.6-.7-.3-.3-.6-.6-.8-.9l-.6-.6c-.6-.7-1.3-1.3-2-2l-.1-.1-.2-.2c-.4-.4-.8-.7-1.2-1l-.2-.2h0s-.1,0-.1-.1h0c-.3-.2-.5-.4-.8-.6,2.6,1.2,3.6-1,6-4.2h0c.3-.4.6-.8.9-1.1.1-.1.2-.2.3-.4.1-.1.3-.3.4-.5.1-.1.2-.3.3-.4l.1-.1c.2-.2.4-.5.6-.8.3-.4.6-.7.9-1.1.2-.2.3-.4.5-.6.3-.4.6-.8.9-1.2.2-.3.5-.6.7-.9.3-.4.5-.7.8-1,0,0,0-.1.1-.1.4.9.8,1.7,1.1,2.6.2.4.4.9.6,1.3.2.4.4.9.6,1.3.1.1.1.2.1.4.1.2.2.4.3.7.2.5.4,1.1.6,1.6.1.3.2.5.3.8.1.2.2.4.3.7s.2.6.4,1c.1.2.1.3.2.5.2.6.4,1.2.7,1.8.3.8.6,1.6.8,2.3.1.4.2.8.4,1.1.2.6.4,1.1.5,1.6.1.3.2.5.2.8.1.3.2.6.3.9.2.6.4,1.1.5,1.7.2.6.3,1.1.5,1.7.1.3.1.5.2.8.1.3.1.5.2.8.3,1,.6,2.1.8,3.1.2.8.4,1.6.6,2.5.1.4.2.7.2,1.1.1.4.2.7.2,1.1.2.7.3,1.5.5,2.2.1.6.2,1.2.4,1.8.1.2.1.4.1.6.1.5.2.9.3,1.4.1.8.3,1.6.4,2.4.1.7.3,1.5.4,2.2,0,.2.1.3.1.5v.1h0v.3c.1.6.2,1.3.3,1.9,0,.1.1.3.1.4,0,.3.1.5.1.8.1.8.2,1.6.3,2.4h0c.2,2,.5,4.7.7,7.4h0Z"/>
      <path class="cls-11" d="M150.39,209.53h0c-.5.7-2.1,2.9-3.8,5.2l-.1.1c-.2.3-.5.7-.8,1-.2.3-.5.6-.7.9-.3.4-.6.8-.9,1.2-.2.2-.3.4-.5.6-.3.4-.6.8-.9,1.1-.2.3-.4.6-.6.8l-.1.1c-.1.2-.2.3-.3.4-.2.2-.3.4-.4.5-.1.1-.2.3-.3.4-.3.4-.6.8-.9,1.1h0c-2.4,3.2-3.4,5.4-6,4.2-.7-.3-1.4-.8-2.4-1.6-3.2-2.8-16.3-15.9-16.3-15.9v-1.8h.1c5.7-3.1,25.3-16.4,29.5-18.5,3.6-.7,2.4,4.2,3.2,6.4.3,3.2,1.5,9.9,2,12.5.1.8.2,1.2.2,1.3h0Z"/>
      <path class="cls-7" d="M114.79,209.83h0s-13.1,13.2-16.4,15.9c-.8.6-1.4,1.1-2,1.4h0c-.3.2-.6.3-.9.4-1,.3-1.8,0-2.6-.7-.7-.6-1.4-1.7-2.3-2.9h0c-.2-.3-.5-.7-.8-1-.1-.2-.3-.4-.4-.6-.1-.1-.2-.2-.3-.4-.1-.1-.2-.2-.3-.4-.1-.2-.3-.4-.5-.6-1-1.4-2.8-3.7-4.5-6-1.2-1.6-2.3-3.2-3.1-4.2-.2-.2-.3-.4-.4-.6-.2-.3-.4-.5-.5-.7,0,0,0-.1-.1-.1h0c0-.1.1-.4.1-.8.5-2.4,1.7-9.5,2.1-12.7.7-2.2-.5-7.1,3.1-6.4,4.2,2.1,23.8,15.4,29.5,18.5h.1c.2.5.2,1.9.2,1.9Z"/>
      <path class="cls-17" d="M168.59,283.33h-7c0-.8,0-1.5-.1-2.3,0-.4,0-.7-.1-1.1h0c-.1-1.7-.1-3.4-.2-5.1h0c0-.8-.1-1.6-.2-2.6v-.5c-.2-2.7-.5-5.4-.8-8h0c-.1-.8-.2-1.6-.3-2.4,0-.3-.1-.5-.1-.8,0-.1,0-.3-.1-.4-.1-.6-.2-1.3-.3-1.9v-.3h0v-.1c0-.2-.1-.3-.1-.5-.1-.7-.2-1.5-.4-2.2,0-.2-.1-.5-.1-.7v-.2c-.1-.5-.2-.9-.3-1.4s-.2-.9-.3-1.4c0-.2-.1-.4-.1-.6-.1-.6-.2-1.2-.4-1.8,0-.2-.1-.4-.1-.6-.1-.3-.1-.5-.2-.8-.1-.2-.1-.5-.2-.8-.1-.4-.1-.7-.2-1.1,0-.1-.1-.3-.1-.4-.1-.2-.1-.4-.2-.6-.2-.8-.4-1.6-.6-2.5-.3-1-.5-2.1-.8-3.1-.1-.3-.1-.5-.2-.8s-.1-.6-.2-.8c-.2-.6-.3-1.1-.5-1.7-.2-.6-.3-1.1-.5-1.7-.1-.3-.2-.6-.3-.9-.1-.3-.1-.5-.2-.8-.2-.6-.4-1.1-.5-1.6-.1-.4-.2-.8-.4-1.1-.3-.8-.5-1.6-.8-2.3-.1-.4-.2-.7-.4-1-.1-.3-.2-.5-.3-.8-.1-.2-.1-.3-.2-.5-.1-.3-.2-.6-.4-1-.1-.2-.2-.5-.3-.7-.1-.3-.2-.5-.3-.8-.2-.5-.4-1.1-.6-1.6-.1-.2-.2-.4-.3-.7-.1-.1-.1-.2-.1-.4-.2-.4-.4-.9-.6-1.3l-.3-.8c-.1-.2-.1-.4-.2-.5-.4-.9-.8-1.7-1.1-2.6,1.8-2.4,3.4-4.5,3.8-5.2h0c9.6,15,15.1,38.7,17.2,59.2v.3c.6,5,.9,9.8,1,14.3h0Z"/>
    </g>
    <path class="cls-19" d="M119.79,219.13c-.2-.2-.3-.3-.5-.4-.2-.1-.3-.2-.5-.3-.3-.2-.6-.4-1-.6-.2-.1-.5-.2-.7-.3s-.5-.1-.7-.2c-.5-.1-1-.2-1.5-.2v3.8c1.7,0,3,1.3,3,3,0,.6-.2,1.2-.5,1.7-.1.2-.2.3-.4.4-.1.1-.2.1-.2.2-.2.1-.3.2-.5.3-.1,0-.1.1-.2.1-.2.1-.4.2-.6.2h-.6v3.8h0c-.9,0-1.7-.2-2.5-.5.8.3,1.6.5,2.5.5h0c.9,0,1.7-.2,2.5-.5.3-.1.5-.2.8-.4.2-.1.4-.2.6-.3.4-.2.7-.5,1-.8,1.2-1.2,2-2.9,2-4.8,0-1.7-.7-3.4-2-4.7Z"/>
    <path class="cls-13" d="M111.99,224.03c0,1.1.6,2,1.4,2.6.5.3,1,.4,1.5.4h0v3.8h0c-.9,0-1.7-.2-2.5-.5-.3-.1-.5-.2-.8-.4-.2-.1-.4-.2-.6-.3-.4-.2-.7-.5-1-.8-1.2-1.2-2-2.9-2-4.8s.8-3.6,2-4.8c.2-.2.3-.3.5-.4.2-.1.3-.2.5-.3.3-.2.6-.4.9-.5.1-.1.2-.1.3-.2.1,0,.1-.1.2-.1.1-.1.3-.1.4-.1.2,0,.3-.1.5-.1h0c.2,0,.3-.1.5-.1s.4-.1.5-.1h.5v3.8c-.4,0-.8.1-1.2.2-.9.4-1.6,1.5-1.6,2.7Z"/>
    <path class="cls-6" d="M114.99,221.03v6h0c-.6,0-1.1-.2-1.5-.4-.9-.5-1.4-1.5-1.4-2.6,0-1.2.7-2.3,1.8-2.8.3-.1.7-.2,1.1-.2Z"/>
    <path class="cls-10" d="M117.99,224.03h0c0,.8-.3,1.6-.9,2.1-.1.1-.2.1-.2.2-.2.1-.3.2-.5.3-.1,0-.1.1-.2.1-.2.1-.4.2-.6.2h-.6v-6c1.7.1,3,1.4,3,3.1Z"/>
  </g>
</svg>
