<?xml version="1.0" encoding="UTF-8"?>
<svg id="arrabbiato_intero" data-name="arrabbiato intero" xmlns="http://www.w3.org/2000/svg"
  viewBox="0 0 226.77 283.46">
  <def>
    <style>
      .arrabbiato{
      animation: arrabbiatoAnimation 1.5s ease-in-out 1s 1 forwards;
      }
      @keyframes arrabbiatoAnimation {
      from{
      -ms-transform: translateX(0%);
      -moz-transform: translateX(0%);
      -o-transform: translateX(0%);
      transform: translateX(0%) scale(1);
      -webkit-transform: translateX(0%) scale(1);
      }
      to{
      -ms-transform: translateX(-10%);
      -moz-transform: translateX(-10%);
      -o-transform: translateX(-10%);
      transform: translateX(-10%) scale(1.2);
      -webkit-transform: translateX(-10%) scale(1.2);
      }
      }

      .sopracciglia1{
      transform-origin: center center !important;
      animation: sopracciglia1 1s ease-in-out 1 forwards;
      }
      @keyframes sopracciglia1 {
      0%{
      transform: rotate(0deg);
      }
      100%{
      transform: rotate(-30deg) translate(1%,3%);
      }
      }
      .sopracciglia2{
      transform-origin: center center !important;
      animation: sopracciglia2 1s ease-in-out 1 forwards;
      }
      @keyframes sopracciglia2 {
      0%{
      transform: rotate(0deg);
      }
      100%{
      transform: rotate(30deg) translate(-1%,3%);
      }
      }

      .iconArrabbiato{
      transform-origin: center center !important;
      animation: arrabbiatoIconAnimation 1.5s ease-in-out 2s infinite;
      }
      @keyframes arrabbiatoIconAnimation {
      0%{
      transform: scale(1);
      }
      50%{
      transform: translate(-1%,-2%) scale(1.2);
      }
      100%{
      transform: scale(1);
      }
      }
    </style>
  </def>
  <g id="sfondo">
    <rect x="-.01" y="-.09" width="226.8" height="283.64" fill="#c72f33" stroke-width="0" />
    <path d="M42.39,190.11c0,.1-.1.1-.2.1,0,0,.1-.1.2-.1Z" fill="#c72f33" stroke-width="0" />
  </g>
  <g id="corpo" class="arrabbiato">
    <g id="eleonora">
      <g id="eleonora-2" data-name="eleonora">
        <g>
          <path d="M131.87,184.08v.24c0-.08,0-.16,0-.24h0Z" fill="#1a1a1a" stroke-width="0" />
          <path d="M113.37,185.28h.03v-1.12" fill="none" stroke-width="0" />
          <path
            d="M132.07,135.91c-.05-.16-.11-.31-.17-.45-.13-.28-.28-.53-.47-.76-.47-.55-1.11-.91-1.94-1.04-1.12-.17-2.15-.01-2.96.77-.05.04-.09.08-.13.13-.04.05-.09.1-.13.15-.08.09-.15.19-.22.29h0c-.13.2-.24.39-.32.6-.02.04-.03.09-.05.13-.11.32-.19.67-.23,1.05-.02.14-.03.29-.04.43,0,.15,0,.3,0,.46,0,.41.1,1.06.35,1.69.5,1.22,1.37,2.01,2.74,2.11,1.4.09,2.59-.33,3.32-1.62.72-1.27.67-2.61.26-3.94ZM122.08,181.44c-.1.05-.19.11-.29.17.1-.05.19-.11.29-.16.35-.21.7-.42,1.06-.64l-1.06.63Z"
            fill="#f9c0a0" stroke-width="0" />
          <path
            d="M140.41,162.3c.02-.05.07-.14.11-.26-.04.08-.08.17-.11.26ZM140.86,161.1v.04c.02-.07.04-.13.07-.2-.02.06-.04.11-.07.16ZM140.98,160.78v.02s.01-.01.01-.02h-.01Z"
            fill="#f9c0a0" stroke-width="0" />
          <path
            d="M118.18,106.28c.37.54.75,1.08,1.14,1.62.26.36.53.72.8,1.07.3.42.62.83.94,1.24-.98-1.3-1.95-2.6-2.88-3.93Z"
            fill="#f9c0a0" stroke-width="0" />
          <path
            d="M125.45,136.78c.04-.38.12-.73.23-1.05-.12.32-.2.67-.23,1.05ZM126.26,134.71c-.08.09-.15.19-.21.29.07-.1.14-.2.22-.29.04-.05.09-.1.13-.15-.05.04-.1.1-.14.15ZM132.44,173.53s0-.05-.01-.06c-.1.09-.21.17-.31.25-.03.04-.07.06-.1.08-.3.29-.67.67-.8.79-.02,0-.03.01-.03.02-.14.09-.26.18-.39.28-1.31,1-2.63,1.98-4,2.91-.67.46-1.36.92-2.05,1.36-.34.22-.7.43-1.05.65-.35.22-.7.43-1.06.64-.63.36-1.25.71-1.89,1.05-.56.3-1.12.59-1.69.86-.24.12-.49.24-.73.35-.25.11-.5.23-.75.33-.24.11-.49.22-.74.31-.68.28-1.36.53-2.05.75-.19.06-.39.13-.6.17-.12.03-.23.03-.23.03h0s-.14-.03-.14-.03c-.08-.01-.16-.04-.24-.05-.06-.02-.12-.03-.18-.05v1.12h0s.11.01.23-.02c.2-.04.4-.11.6-.17.69-.22,1.37-.47,2.04-.75.25-.09.5-.2.75-.31.25-.1.49-.22.74-.33.24-.11.49-.23.73-.35.58-.27,1.13-.56,1.69-.86.43-.23.85-.46,1.27-.7.08-.04.15-.08.22-.12.04-.02.08-.04.12-.07.1-.06.19-.12.29-.17l1.06-.63c.35-.22.7-.43,1.05-.65.69-.44,1.37-.9,2.05-1.36,1.36-.93,2.69-1.91,4-2.91.12-.1.24-.19.38-.28.01-.01.02-.02.03-.02.13-.12.51-.5.81-.79.03-.02.06-.04.1-.08.1-.08.21-.16.3-.25h.01c.19-.18.38-.38.56-.56l.03-.03c-.01-.16-.01-.28-.02-.35ZM134.56,171.58c-.32.4-.66.78-1.01,1.17.35-.39.69-.77,1.02-1.17.07-.08.15-.17.22-.26-.07.09-.15.18-.23.26ZM135.44,170.53c-.14.17-.28.35-.43.53.15-.18.29-.36.44-.53.61-.77,1.2-1.56,1.75-2.37-.56.81-1.14,1.6-1.76,2.37ZM138.78,165.57s-.02.05-.04.07c-.48.86-.99,1.7-1.54,2.52.56-.82,1.08-1.66,1.55-2.52.01-.02.02-.05.04-.07.46-.83.91-1.68,1.31-2.56-.41.87-.85,1.73-1.32,2.56ZM140.68,161.6s-.02.06-.04.1c.02-.04.04-.07.05-.1.01-.05.03-.1.05-.14-.02.04-.04.09-.06.14ZM140.85,161.14s0,.02,0,.04c0-.01.02-.03.02-.04v-.02s-.01.01-.01.02ZM140.97,160.78v.04h.01v-.04h-.01ZM141.06,160.56c-.02.06-.05.12-.07.18.03-.06.05-.12.08-.18.01-.02.01-.04.02-.06-.01.02-.02.04-.03.06ZM141.1,160.45s0,.04,0,.05c0-.02.02-.03.02-.05.05-.15.11-.32.18-.53-.08.21-.14.38-.19.53ZM142.5,156.47c-.06.17-.12.35-.18.53.07-.18.12-.35.19-.53.08-.24.16-.47.23-.7-.08.23-.16.46-.24.7ZM143.37,153.89c-.01.06-.04.12-.06.19.03-.08.05-.13.07-.19.02-.05.03-.1.04-.14-.02.04-.03.09-.05.14ZM143.45,153.63s-.02.07-.03.12c.01-.05.02-.09.04-.12,0-.03,0-.05.02-.07-.01.02-.02.04-.03.07ZM143.5,153.48c-.06-2.31-.06-4.61-.05-6.92-.01,2.31-.02,4.61.04,6.92v.02s.01,0,.01-.02Z"
            fill="#f9c0a0" stroke-width="0" />
          <path
            d="M143.26,130.23c-.09-.04-.19-.1-.29-.16-.65-.34-1.28-.72-1.88-1.12-.01,0-.01-.01-.01-.01-.45-.29-.88-.6-1.33-.91-3.29-2.37-6.46-4.96-9.46-7.76-.36-.34-.72-.68-1.08-1.04-.46-.46-.92-.93-1.37-1.41-1.69-1.75-3.38-3.51-4.95-5.36-.19-.22-.38-.43-.55-.66-.28-.32-.54-.64-.79-.97-.17-.2-.33-.41-.49-.62-.32-.41-.64-.82-.94-1.24-.28-.35-.54-.71-.8-1.07-.39-.54-.77-1.08-1.14-1.62-.35-.51-.7-1.02-1.04-1.54-1.16-1.77-2.24-3.59-3.24-5.46-.02-.02-.04-.06-.04-.09-.17-.3-.33-.59-.49-.9h-.01v7.99c.01,18.87.01,37.73.01,56.61v2.71l.03,18.57c.06.02.12.03.18.05.08.01.16.04.24.05l.14.02h0s.11.01.23-.02c.21-.04.41-.11.6-.17.69-.22,1.37-.47,2.05-.75.25-.09.5-.2.74-.31.25-.1.5-.22.75-.33.24-.11.49-.23.73-.35.57-.27,1.13-.56,1.69-.86.64-.34,1.26-.69,1.89-1.05.36-.21.71-.42,1.06-.64.35-.22.71-.43,1.05-.65.69-.44,1.38-.9,2.05-1.36,1.37-.93,2.69-1.91,4-2.91.13-.1.25-.19.39-.28,0-.01.01-.02.03-.02.13-.12.5-.5.8-.79.03-.02.07-.04.1-.08.1-.08.21-.16.31-.25.01.01.01.03.01.06.01.07.01.19.02.35.38-.37.74-.75,1.09-1.13.35-.39.69-.77,1.01-1.17.08-.08.16-.17.23-.26.07-.08.15-.17.22-.26.15-.18.29-.36.43-.53.62-.77,1.2-1.56,1.76-2.37.55-.82,1.06-1.66,1.54-2.52.02-.02.03-.05.04-.07.47-.83.91-1.69,1.32-2.56,0,0,.18-.42.29-.65h0s.01-.05.02-.06c.03-.09.07-.18.11-.26.02-.08.05-.15.08-.23.02-.03.03-.07.04-.11.02-.04.03-.07.04-.1.02-.05.04-.1.06-.14.02-.05.03-.1.04-.14.02-.03.03-.06.04-.09.01-.01.02-.03.02-.05s0-.03,0-.04c0-.01.01-.01.01-.02v-.02s.05-.1.07-.16c.01-.05.03-.09.04-.12v-.04h.02v-.04c.02-.06.05-.12.07-.18.01-.02.02-.04.03-.06,0,0,0-.03,0-.05.05-.15.11-.32.19-.53.07-.2.15-.44.25-.69,0-.01,0-.02.01-.02.23-.66.5-1.44.77-2.21.06-.18.12-.36.18-.53.08-.24.16-.47.24-.7.08-.22.15-.44.22-.64.07-.21.13-.4.19-.57.06-.17.11-.33.16-.47h0c.02-.08.05-.14.06-.2.02-.05.03-.1.05-.14.01-.05.02-.09.03-.12.01-.03.02-.05.03-.07,0-.02.01-.04.01-.06v-.02c-.06-2.31-.05-4.61-.04-6.92.01-2.38.03-4.76-.04-7.14.02-.53.02-1.07.05-1.6-.01-.03,0-.07,0-.1.02-1.13.05-2.27.07-3.41,0-.07,0-.13,0-.19,0-1.07,0-2.15,0-3.23,0-.25.02-.5-.27-.66ZM131.81,139.85c-.73,1.29-1.92,1.71-3.32,1.62-1.37-.1-2.24-.89-2.74-2.11-.25-.63-.34-1.28-.35-1.69,0-.16,0-.31,0-.46.01-.14.02-.29.04-.43.03-.38.11-.73.23-1.05.02-.04.03-.09.05-.13.08-.21.19-.4.32-.59h0c.06-.11.13-.21.21-.3.04-.05.09-.11.14-.15.04-.05.08-.09.13-.13.81-.78,1.84-.94,2.96-.77.83.13,1.47.49,1.94,1.04.19.23.34.48.47.76.06.14.12.29.17.45.41,1.33.46,2.67-.26,3.94Z"
            fill="#f9c0a0" stroke-width="0" />
          <path
            d="M156.25,137.87s-.04-.07-.08-.09c-.02-.04-.05-.06-.09-.08-.04-.02-.07-.04-.11-.04-.12-.03-.27-.01-.43.04h0c-.16.06-.34.14-.53.24-.19.1-.4.23-.6.35-.59.37-1.19.75-1.61.75-.7.28-1.42.38-2.13.53-.08.07-.05.15-.02.24.02.09.05.18-.02.25-.1-.2-.2-.41-.32-.59-.03-.05-.06-.1-.08-.15-.06-.08-.11-.16-.17-.25-.02-.02-.03-.04-.04-.05-.05-.07-.11-.15-.16-.21-.02-.03-.04-.05-.06-.07-.08-.11-.17-.2-.27-.3-.14-.15-.29-.28-.45-.41-.13-.11-.28-.2-.42-.3-.01-.01-.03-.02-.04-.02-.02-.02-.04-.03-.07-.04,0,0,0-.01,0-.01-.07-.05-.15-.09-.23-.13-.01-.01-.03-.02-.04-.02h-.01c-.36-.19-.73-.33-1.11-.41-.29-.08-.59-.12-.88-.12-.25,0-.5.02-.75.08-.22.05-.44.13-.64.24-.03,0-.06.02-.08.04-.04.02-.08.05-.13.08-.14.1-.28.21-.41.34-.25.26-.47.59-.64.99-.08.2-.15.43-.2.67.02-.53.02-1.07.05-1.6-.01-.03,0-.07,0-.1.02-1.13.05-2.27.07-3.41,0-.07,0-.13,0-.19.02-1.08.02-2.15,0-3.23,0-.25.02-.5-.27-.66-.09-.04-.19-.1-.29-.16-.65-.34-1.28-.72-1.88-1.12-.01,0-.01-.01-.01-.01-.45-.29-.88-.6-1.33-.91-3.29-2.37-6.46-4.96-9.46-7.76-.36-.34-.72-.68-1.08-1.04-.46-.46-.92-.93-1.37-1.41-1.69-1.75-3.38-3.51-4.95-5.36-.19-.22-.38-.43-.55-.66-.27-.32-.54-.64-.79-.97-.17-.2-.33-.41-.49-.62-.98-1.3-1.95-2.6-2.88-3.93-.35-.51-.7-1.02-1.04-1.54-1.16-1.77-2.24-3.59-3.24-5.46-.02-.02-.04-.06-.04-.09-.17-.3-.33-.59-.49-.9v-15.88c16.53.41,33.2,10.25,37.58,27.29,3.17,9,3.6,18.78,5.3,28.17Z"
            fill="#38393a" stroke-width="0" />
          <path
            d="M121.06,110.21c-.32-.41-.64-.82-.94-1.24-.27-.35-.54-.71-.8-1.07-.39-.54-.77-1.08-1.14-1.62.93,1.33,1.9,2.63,2.88,3.93Z"
            fill="#38393a" stroke-width="0" />
          <path
            d="M151.2,143.35c0,.22,0,.44-.02.66-.02.22-.04.44-.07.65-.03.24-.06.46-.1.69-.03.22-.08.44-.14.66,0,.03-.01.05-.02.09,0,.03,0,.05-.02.08-.03.12-.06.23-.1.34-.05.17-.12.35-.17.52-.08.22-.17.45-.28.66-.14.3-.29.59-.46.87-.11.18-.22.36-.35.54-.13.19-.27.38-.42.56-.09.11-.19.23-.29.34-.29.34-.6.66-.92.96-.15.13-.29.26-.44.38t-.02.02s-.06.06-.09.09c0,.02-.03.03-.05.04-.02.02-.03.03-.04.04-.03.01-.06.04-.1.07-.02.03-.06.05-.09.07-.13.11-.25.21-.38.3-.1.08-.2.15-.3.22-.15.11-.3.22-.45.31-.03.02-.05.04-.07.05-.22.15-.44.28-.66.42-.32.2-.64.39-.96.57h-.01c-.22-.05-.43-.06-.68-.07h-.01c-.06-2.31-.05-4.61-.04-6.92.01-2.38.03-4.76-.04-7.14.05-.24.12-.47.2-.67.16-.4.37-.73.64-.99.13-.13.27-.24.41-.34.05-.03.09-.06.13-.08.02-.02.05-.04.07-.05.2-.11.42-.18.65-.23.25-.06.5-.08.75-.08.29,0,.59.04.88.12.38.08.75.22,1.11.4h.01s.03.02.04.03c.08.04.16.08.23.13,0,0,0,.01,0,.01.03.01.05.02.07.04.01,0,.03.01.04.02.14.1.29.19.42.3.16.13.31.26.45.41.09.09.18.19.26.3l.07.07c.05.06.11.14.16.21.01.01.02.03.04.05.06.09.11.17.17.25.02.05.05.1.08.15.12.18.22.39.32.59.07.18.13.37.18.55.04.13.07.26.11.39.03.1.05.22.07.32.03.13.05.27.08.4.02.14.04.29.06.43s.03.28.05.43c.02.14.02.29.02.42,0,.12.01.23.01.35Z"
            fill="#f9c0a0" stroke-width="0" />
          <path d="M147.01,151.68c.09-.07.19-.15.27-.23-.03.03-.06.06-.09.08-.06.05-.12.1-.19.14Z"
            fill="#eda489" stroke-width="0" />
          <path d="M151.17,142.52v.06c-.02-.14-.03-.29-.05-.43.02.12.04.25.05.37Z" fill="#eda489"
            stroke-width="0" />
          <path
            d="M147.54,162.56c-.06.07-.12.13-.17.19-.99,1.25-2.48,2.05-4.15,1.83-1-.12-2.06-.62-3.12-1.57,0,0,.18-.42.29-.65.06.29.28.53.48.78.62.8,1.39,1.17,2.42,1.06,1.49-.17,2.73-.74,3.75-1.86,1.48-1.64,1.58-4.04.22-5.77-.84-1.06-1.93-1.83-3-2.63-.08-.06-.15-.11-.22-.15-.05-.03-.09-.05-.13-.08-.05-.01-.09-.03-.13-.04-.09-.03-.17-.04-.25-.04h-.08s.02-.05.03-.07c0-.02.01-.04.01-.06v-.02h.01c.25.01.46.02.68.07h.01c2.61.87,3.94,2.51,4.35,4.26.57,1.7.24,3.33-1,4.75Z"
            fill="#c0bbdc" stroke-width="0" />
          <path
            d="M147.04,162.34c-1.02,1.12-2.26,1.69-3.75,1.86-1.03.11-1.8-.26-2.42-1.06-.2-.25-.42-.49-.48-.78h0s.01-.05.02-.06c.02-.05.07-.14.11-.26.02-.08.05-.15.08-.23.02-.03.03-.07.04-.11.02-.04.03-.07.04-.1.02-.05.04-.1.06-.14.02-.05.03-.1.04-.14.02-.03.03-.06.04-.09.01-.01.02-.03.02-.05s0-.03,0-.04c0-.01.01-.01.01-.02v-.02s.05-.1.07-.16c.01-.05.03-.09.04-.12v-.02s.01-.01.01-.02h.02s-.01-.04-.01-.04c.02-.06.05-.12.07-.18.01-.02.02-.04.03-.06,0,0,0-.03,0-.05.05-.15.11-.32.19-.53.07-.2.15-.44.25-.69,0-.01,0-.02.01-.02.23-.66.5-1.44.77-2.21.06-.18.12-.36.18-.53.08-.24.16-.47.24-.7.08-.22.15-.44.22-.64.07-.21.13-.4.19-.57.06-.17.11-.33.16-.47h0c.02-.08.05-.14.06-.2.02-.05.03-.1.05-.14.01-.05.02-.09.03-.12h.08c.08,0,.16.01.25.04.04.01.08.03.13.04.04.03.08.05.13.08.07.04.14.09.22.15,1.07.8,2.16,1.57,3,2.63,1.36,1.73,1.26,4.13-.22,5.77Z"
            fill="#38393a" stroke-width="0" />
          <path d="M140.52,162.04c-.04.12-.09.21-.11.26.03-.09.07-.18.11-.26Z" fill="#1a1a1a"
            stroke-width="0" />
          <path d="M140.98,160.78s0,.01-.01.02v-.02h.01Z" fill="#1a1a1a" stroke-width="0" />
          <path
            d="M131.81,139.85c-.73,1.29-1.92,1.71-3.32,1.62-1.37-.1-2.24-.89-2.74-2.11-.25-.63-.34-1.28-.35-1.69,0-.16,0-.31,0-.46.01-.14.02-.29.04-.43.03-.38.11-.73.23-1.05.02-.04.03-.09.05-.13.08-.21.19-.4.32-.59h0c.06-.11.13-.21.21-.3.04-.05.09-.11.14-.15.04-.05.08-.09.13-.13.81-.78,1.84-.94,2.96-.77.83.13,1.47.49,1.94,1.04.18.23.34.48.47.76.06.14.12.29.17.45.41,1.33.46,2.67-.26,3.94Z"
            fill="#1c1a18" stroke-width="0" />
          <path d="M144.56,189.66l-1.37.77-10.76,6.1v-12.2c3.68,1.62,8.44,3.71,12.13,5.33Z"
            fill="#227154" stroke-width="0" />
          <path
            d="M123.14,180.81c-.35.22-.71.43-1.06.64-.63.36-1.26.72-1.89,1.05.64-.35,1.26-.7,1.89-1.06l1.06-.63Z"
            fill="#c97c43" stroke-width="0" />
          <path d="M131.87,184.08v.24c0-.08,0-.16,0-.24h0Z" fill="#c97c43" stroke-width="0" />
          <path
            d="M167.44,220.89c-.91-.38-10.02-3.54-15.48-5.46-2.1-.74-3.66-1.3-4.01-1.44-.36-.53-.72-1.18-1.07-1.94-2.64-5.69-4.83-16.99-4.3-21.27.01-.13.03-.24.05-.35l1.36-.77c-.08-.03-.16-.07-.24-.11-3.46-1.52-7.81-3.43-11.32-4.97-.19-.09-.38-.17-.56-.25v-.24c.01-1.95.09-8.84.01-9.56,0-.03,0-.05-.01-.06.19-.18.38-.38.56-.56l.03-.03c.38-.37.74-.75,1.09-1.13.35-.39.69-.77,1.01-1.17.08-.08.16-.17.23-.26.07-.08.15-.17.22-.26.15-.18.29-.36.43-.53.62-.77,1.2-1.56,1.76-2.37.55-.82,1.06-1.66,1.54-2.52.02-.02.03-.05.04-.07.47-.83.91-1.69,1.32-2.56,1.06.95,2.12,1.45,3.12,1.57,1.67.22,3.16-.58,4.15-1.83.05-.06.11-.12.17-.19,1.24-1.42,1.57-3.05,1-4.75-.41-1.75-1.74-3.39-4.35-4.26.32-.18.64-.37.96-.57.22-.13.45-.27.66-.42.02,0,.04-.03.07-.05.15-.09.3-.2.45-.31.1-.07.2-.14.3-.22.13-.09.25-.19.38-.3.03-.02.07-.04.09-.07.04-.02.06-.05.1-.07.01-.01.02-.02.04-.04.02,0,.04-.02.05-.04.03-.03.06-.06.09-.09t.02-.02c.15-.12.29-.25.44-.38.32-.3.63-.62.92-.96.1-.11.2-.23.29-.34.15-.18.29-.37.42-.56.13-.18.24-.36.35-.54.17-.28.32-.57.46-.87.11-.21.2-.44.28-.66.05-.17.12-.35.17-.52.04-.11.07-.22.1-.34.01-.03.02-.05.02-.08.01-.04.02-.06.02-.09.06-.22.11-.44.14-.66.09-.44.14-.89.17-1.34.02-.22.02-.44.02-.66,0-.12-.01-.23-.01-.35,0-.13,0-.28-.02-.42v-.06c-.01-.12-.03-.25-.05-.37-.02-.14-.04-.29-.06-.43-.03-.13-.05-.27-.08-.4-.02-.1-.04-.22-.07-.32-.04-.13-.07-.26-.11-.39-.05-.18-.11-.37-.18-.55.07-.07.04-.16.02-.25-.04-.09-.07-.17.01-.24h0c.71-.15,1.43-.25,2.13-.53.42,0,1.02-.38,1.61-.75.2-.12.41-.25.6-.35.19-.1.37-.19.53-.24h0c.16-.06.3-.07.43-.04.04,0,.07.02.11.04.04.02.07.04.09.08.04.02.06.05.08.09.02.09,9.28,67.93,10.94,80.89h0c.17,1.37.26,2.12.25,2.13Z"
            fill="#38393a" stroke-width="0" />
          <path d="M147.29,151.45s-.06.06-.09.08c-.06.05-.12.1-.19.14.09-.07.19-.15.27-.23Z"
            fill="#1a1a1a" stroke-width="0" />
          <path d="M151.17,142.52v.06c-.02-.14-.03-.29-.05-.43.02.12.04.25.05.37Z" fill="#1a1a1a"
            stroke-width="0" />
          <path d="M131.87,184.08v.24c0-.08,0-.16,0-.24h0Z" fill="#eda489" stroke-width="0" />
          <path
            d="M113.4,230.91v-3.8h-.04v3.83h.04c.19,0,.37-.02.56-.06-.19.02-.37.04-.56.03ZM113.4,221.09v-3.78h-.04v3.83s.03,0,.04,0c1.48.18,2.62,1.43,2.62,2.97,0,1.4-.95,2.57-2.24,2.91,1.41-.24,2.49-1.47,2.49-2.95,0-1.62-1.28-2.93-2.87-2.99Z"
            fill="#fff" stroke-width="0" />
          <path
            d="M120.1,224.08c0,3.38-2.44,6.18-5.66,6.73-.16.04-.32.06-.48.07-.19.02-.37.04-.56.03v-3.8c.11-.01.24-.04.35-.07.01,0,.02,0,.03-.01,1.41-.24,2.49-1.47,2.49-2.95,0-1.62-1.28-2.93-2.87-2.99v-3.78h.02v-.06c3.7.07,6.68,3.1,6.68,6.83Z"
            fill="#fbfbfb" stroke-width="0" />
          <path
            d="M132.43,183.09v27.04h-19.06v-25.97s.02.01.03.01c.06.02.12.03.18.05.08.01.16.04.24.05l.14.02h0s.11.01.23-.02c.21-.04.41-.11.6-.17.69-.22,1.37-.47,2.05-.75.25-.09.5-.2.74-.31.25-.1.5-.22.75-.33.24-.11.49-.23.73-.35.57-.27,1.13-.56,1.69-.86.64-.34,1.26-.69,1.89-1.05.36-.21.71-.42,1.06-.64.35-.22.71-.43,1.05-.65.69-.44,1.38-.9,2.05-1.36,1.37-.93,2.69-1.91,4-2.91.13-.1.25-.19.39-.28,0-.01.01-.02.03-.02.13-.12.5-.5.8-.79.03-.02.07-.04.1-.08.1-.08.21-.16.31-.25.01.01.01.03.01.06.01.07.01.19.02.35.06,1.61-.01,7.44-.03,9.21Z"
            fill="#eda489" stroke-width="0" />
          <g>
            <path
              d="M116.27,224.08c0,1.48-1.08,2.71-2.49,2.95-.01.01-.02.01-.03.01-.12.02-.23.03-.35.03h-.04v-5.98h.04c1.59.06,2.87,1.37,2.87,2.99Z"
              fill="#25a384" stroke-width="0" />
            <path d="M159.51,274.86c0,.1,0,.19-.02.29,0-.1,0-.21,0-.31,0,0,0,.02,0,.02Z"
              fill="#09837e" stroke-width="0" />
            <path
              d="M166.41,283.46h18.5c-.46-4.49-.75-9.07-1.11-13.53-.05-.51-.09-1.01-.13-1.5-5.37.94-11.98.06-17.78.33.01.11.02.2.03.3.52,5.03.84,9.86.96,14.31h-.47v.09Z"
              fill="#006347" stroke-width="0" />
            <path d="M166.41,273.3s-.02.02-.03.03h0s.02-.02.03-.03Z" fill="#09a09c" stroke-width="0" />
            <path d="M183.79,269.94c-.05-.51-.09-1.01-.13-1.5h0c.04.5.08,1,.12,1.5Z" fill="#09a09c"
              stroke-width="0" />
            <path d="M159.51,274.81v.05s0-.02,0-.02c-.05-.56-.1-1.1-.14-1.66.06.55.1,1.09.15,1.63Z"
              fill="#2f2f30" stroke-width="0" />
            <path
              d="M183.66,268.44c-5.37.93-11.97.06-17.78.33-2.13-20.47-7.62-44.14-17.24-59.16-.02-.09-.1-.46-.2-1.04,4.64.69,8.77,3.21,12.66,5.73,21.54,13.99,20.4,28.61,22.56,54.14Z"
              fill="#25a384" stroke-width="0" />
            <path
              d="M159.36,273.17c.05.55.1,1.1.15,1.66,0,.1-.01.21-.01.31.01-.1.01-.19.02-.29v-.05c-.05-.55-.1-1.08-.16-1.63ZM159.33,272.23c.07.86.13,1.72.19,2.57-.03-.79-.08-1.65-.19-2.57ZM142.64,238.3c-.09-.12-.18-.23-.27-.35-.08-.1-.16-.2-.25-.29.46.59.92,1.18,1.37,1.78-.28-.38-.57-.76-.85-1.14Z"
              fill="#08c0c3" stroke-width="0" />
            <path
              d="M159.49,274.52s.01.05.01.08v-.05s-.01-.02-.01-.03ZM159.84,282.21c0-.39-.01-.78-.03-1.17-.01-.36-.02-.73-.05-1.1v-.03c-.05-1.64-.13-3.3-.24-4.94t-.01-.02v-.02s-.01.05-.01.08c0,.05,0,.09-.01.13,0-.1.01-.21.01-.31-.01-.18-.03-.35-.04-.52-.01-.1-.02-.21-.03-.31.01.1.02.2.03.29t0,.02s0,.02,0,.03v.02s.01.04.01.06v-.07c0-.1-.01-.19-.02-.29-.01-.18-.02-.36-.04-.54-.01-.23-.03-.46-.05-.69-.01-.2-.03-.4-.05-.6-.01-.15-.02-.3-.04-.45-.07-.48-.14-.99-.22-1.51-.03-.16-.05-.31-.08-.47,0-.03-.01-.05-.01-.08,0-.06-.02-.12-.03-.18-.11-.52-.35-1.29-.71-2.25,0-.02,0-.04-.02-.05h-.01c-.18-.42-.34-.83-.47-1.27-.1-.25-.21-.52-.32-.79-.22-.54-.46-1.12-.72-1.72-.48-1.12-1.02-2.34-1.6-3.61-.04-.08-.08-.17-.11-.25-.17-.34-.33-.68-.49-1.03-.01-.01-.01-.03-.01-.04s-.01-.02-.02-.03c-.01-.02-.02-.04-.03-.06-.58-1.23-1.18-2.49-1.8-3.75-.05-.1-.1-.19-.14-.29-.05-.1-.1-.2-.15-.3-.75-1.52-1.53-3.02-2.31-4.45-.25-.48-.51-.95-.77-1.41-.17-.31-.35-.62-.52-.93-.35-.61-.69-1.2-1.02-1.76-.27-.45-.53-.88-.78-1.29-.13-.21-.26-.41-.39-.6-.26-.39-.5-.76-.74-1.1v-.02h-.02c-.07-.11-.15-.22-.22-.32-.11-.16-.22-.31-.33-.45-.1-.14-.21-.28-.32-.41h0c-.2-.28-.41-.56-.62-.83-.27-.36-.54-.73-.82-1.09-.42-.56-.85-1.12-1.28-1.67-.03-.04-.06-.07-.09-.11,0-.01-.01-.01-.01-.02-.23-.29-.46-.59-.7-.88-.23-.28-.45-.56-.68-.84-.1-.13-.21-.26-.32-.38-.22-.26-.43-.52-.64-.78-.22-.26-.44-.51-.66-.76-.22-.25-.52-.6-.59-.69-.13-.15-.27-.31-.42-.46-.14-.16-.28-.31-.42-.46-.1-.11-.2-.21-.3-.32-.11-.11-.21-.22-.32-.33-.32-.34-.65-.68-.98-1.01s-.67-.66-1.01-.98c-.03-.03-.07-.06-.11-.09h0s-.06-.06-.09-.09c-.04-.03-.07-.07-.11-.1-.19-.17-.39-.34-.58-.51-.19-.17-.39-.34-.58-.51-.07-.06-.14-.12-.21-.18h-.01s-.02-.02-.03-.03h0s-.02-.02-.02-.02c0-.01-.01-.02-.02-.02h0s-.02-.02-.02-.02c-.02-.01-.04-.03-.06-.05,0,0,0-.01-.03-.03-.25-.2-.51-.43-.78-.63,0,0,0-.01-.02-.01h0s-.11-.06-.17-.09c-.06-.02-.12-.05-.18-.09-.14-.08-.29-.16-.44-.26-.29-.18-.59-.39-.91-.64-.21-.17-.43-.34-.66-.54-.08-.07-.17-.14-.26-.22-.07-.06-.16-.13-.24-.21-.07-.06-.14-.13-.22-.2-.05-.05-.1-.09-.15-.13-.24-.22-.5-.46-.78-.72-.24-.22-.49-.46-.75-.71-.29-.27-.59-.56-.9-.86-.2-.18-.4-.38-.62-.59-.08-.08-.16-.15-.24-.23-.35-.33-.7-.68-1.07-1.04-.04-.03-.07-.07-.11-.11-.41-.39-.83-.81-1.26-1.22-.23-.23-.46-.46-.7-.69-.46-.45-.93-.92-1.4-1.37-.15-.16-.31-.31-.46-.45-.31-.31-.61-.61-.91-.9l-.68-.68s0-.01-.01,0l-.76-.76c-.25-.25-.49-.49-.73-.72l-.79-.79c-.06-.06-.12-.12-.17-.18-.13-.14-.27-.27-.39-.38-.17-.17-.35-.34-.51-.5l-.24-.24c-.19-.2-.37-.38-.53-.54-.08-.09-.16-.17-.24-.24-.08-.07-.15-.14-.22-.21-.07-.08-.14-.15-.21-.21-.07-.07-.13-.14-.19-.2l-.3-.3s-.09-.08-.12-.12l-.09-.09s-.05-.06-.06-.06l-.04-.04h-.01v-1.83h-.31v9.15h.06c3.7.07,6.68,3.1,6.68,6.83,0,3.38-2.44,6.18-5.66,6.73-.16.04-.32.06-.48.07-.19.02-.37.04-.56.03h-.04v52.5h.04c21.48.01,43.06.01,46.38-.04h.08c0-.39-.01-.77-.02-1.16ZM159.5,274.55s-.01-.02-.01-.03c0,.03.01.05.01.08v-.05Z"
              fill="#25a384" stroke-width="0" />
            <path d="M159.51,274.81v.05s0-.02,0-.02c-.05-.56-.1-1.1-.14-1.66.06.55.1,1.09.15,1.63Z"
              fill="#08c0c3" stroke-width="0" />
            <path d="M159.51,274.86c0,.1,0,.19-.02.29,0-.1,0-.21,0-.31,0,0,0,.02,0,.02Z"
              fill="#08c0c3" stroke-width="0" />
            <path d="M166.41,273.3s-.02.02-.03.03h0s.02-.02.03-.03Z" fill="#9a90c4" stroke-width="0" />
            <path
              d="M143.49,239.44c-.91-1.19-1.82-2.37-2.76-3.52.46.56.91,1.13,1.36,1.69.19.23.37.46.55.69.28.38.57.76.85,1.14Z"
              fill="#09a09c" stroke-width="0" />
            <path
              d="M159.29,271.79c-.06-.48-.13-.99-.22-1.51-.03-.19-.06-.37-.1-.56,0-.06-.02-.11-.03-.18-.11-.52-.35-1.29-.71-2.25,0-.02,0-.03-.02-.05-.14-.39-.3-.81-.48-1.27-.81-2.04-1.93-4.64-3.23-7.39-.02-.05-.04-.09-.06-.13-.58-1.23-1.18-2.49-1.8-3.75-.1-.19-.2-.39-.3-.6-2.22-4.45-4.62-8.81-6.52-11.54,0,0,0,0-.02-.02-.31-.43-.6-.84-.88-1.18h0c-.48-.64-.96-1.28-1.43-1.92-.28-.38-.57-.76-.85-1.14-.18-.23-.36-.47-.55-.69-.45-.56-.9-1.14-1.36-1.69-.1-.13-.21-.26-.32-.38-.43-.52-.86-1.04-1.3-1.55-.26-.3-.65-.75-.59-.68-.27-.31-.56-.62-.84-.92-.2-.22-.4-.43-.62-.65-.64-.68-1.3-1.34-2-1.99-.03-.03-.07-.06-.1-.1-.06-.06-.13-.12-.2-.18-.38-.35-.77-.69-1.17-1.03-.06-.06-.14-.12-.2-.18h0s-.02-.02-.03-.03c-.02-.02-.02-.03-.04-.04-.02-.02-.06-.04-.08-.06,0,0-.02-.02-.03-.03-.27-.22-.52-.44-.8-.64,2.6,1.18,3.62-.99,6.01-4.16h0c.28-.38.57-.76.89-1.14.06-.09.16-.2.27-.35.12-.15.26-.33.42-.54.1-.14.22-.29.34-.45.02-.03.06-.07.09-.11.19-.24.39-.5.6-.79.27-.35.56-.72.85-1.13.16-.21.32-.43.49-.65.31-.41.61-.81.93-1.23.23-.31.47-.62.7-.94.27-.35.52-.69.77-1.03.02-.02.04-.06.06-.09.39.85.76,1.72,1.14,2.58.19.43.36.85.55,1.27.19.44.37.88.55,1.32.05.11.1.23.14.35.09.22.18.43.27.66.22.54.43,1.07.64,1.61.1.26.2.51.3.76.1.23.19.45.27.68.12.32.24.64.36.97.06.17.13.33.19.5.23.61.45,1.22.67,1.84.28.77.56,1.55.81,2.33.13.38.25.75.38,1.13.19.55.36,1.1.54,1.65.09.26.17.51.24.76.1.3.19.6.28.9.18.56.35,1.1.51,1.66.16.56.32,1.11.48,1.67.08.27.15.54.23.81.07.27.14.53.23.81.28,1.03.56,2.08.82,3.12.21.82.42,1.64.61,2.47.09.35.17.71.25,1.06.1.36.18.72.25,1.09.17.73.33,1.47.48,2.2.13.58.24,1.17.35,1.75.05.19.09.39.12.58.09.48.19.94.27,1.41.15.79.3,1.57.43,2.36.13.74.26,1.49.38,2.24.03.16.06.31.08.48v.06h0s0,.05,0,.07c0,.06.02.13.03.19.1.64.2,1.27.29,1.91.02.14.05.3.06.44.04.27.08.53.12.81.11.81.22,1.61.32,2.42h0c.34,2.68.61,5.35.83,8.04Z"
              fill="#227154" stroke-width="0" />
            <path
              d="M148.64,209.61s-.02.02-.02.03c-.44.65-2.05,2.83-3.81,5.19-.02.03-.05.06-.06.09-.25.34-.51.68-.77,1.03-.23.32-.47.64-.7.94-.31.42-.62.82-.93,1.23-.17.23-.33.44-.49.65-.3.4-.59.77-.85,1.13-.21.29-.41.55-.6.79-.03.04-.06.08-.09.11-.12.16-.23.31-.34.45-.16.21-.3.39-.42.54-.11.15-.21.27-.27.35-.31.39-.6.76-.89,1.14h0c-2.38,3.18-3.41,5.35-6.01,4.17-.67-.31-1.43-.83-2.36-1.61-3.25-2.75-16.35-15.93-16.35-15.93,0,0-.02-1.4,0-1.82l.13-.02c5.69-3.09,25.29-16.44,29.47-18.48,3.61-.7,2.45,4.24,3.16,6.43.32,3.2,1.51,9.94,2.01,12.53.1.58.18.95.2,1.04Z"
              fill="#30935f" stroke-width="0" />
            <path
              d="M166.87,283.37h-7.01c-.02-.78-.03-1.55-.06-2.34-.02-.36-.02-.72-.05-1.1v-.03c-.06-1.68-.14-3.37-.25-5.06v-.05c-.02-.79-.08-1.65-.19-2.57,0-.15-.02-.31-.04-.45-.22-2.69-.49-5.36-.83-8.04h0c-.1-.81-.21-1.62-.32-2.42-.04-.27-.08-.54-.12-.81-.02-.14-.04-.3-.06-.44-.09-.64-.19-1.27-.29-1.91,0-.06-.02-.13-.03-.19,0-.02,0-.04,0-.06h0v-.06c-.02-.16-.05-.31-.08-.48-.11-.74-.24-1.49-.38-2.24-.03-.24-.08-.48-.12-.72-.02-.07-.03-.15-.04-.23-.09-.48-.18-.94-.27-1.41-.08-.47-.18-.93-.27-1.41-.03-.19-.07-.39-.12-.58-.11-.58-.23-1.17-.35-1.75-.04-.21-.08-.42-.13-.63-.06-.27-.12-.54-.18-.81-.06-.25-.11-.51-.18-.76-.07-.36-.15-.72-.25-1.09-.02-.14-.06-.27-.09-.41-.05-.22-.1-.43-.16-.65-.19-.83-.4-1.65-.61-2.47-.27-1.04-.54-2.09-.82-3.12-.08-.27-.15-.54-.23-.81-.08-.27-.15-.55-.23-.81-.16-.56-.32-1.12-.48-1.67-.16-.56-.33-1.1-.51-1.66-.09-.3-.19-.6-.28-.9-.07-.26-.15-.51-.24-.76-.18-.55-.35-1.1-.54-1.65-.13-.38-.25-.75-.38-1.13-.26-.78-.53-1.55-.81-2.33-.12-.35-.24-.69-.37-1.04-.1-.27-.19-.54-.3-.81-.06-.17-.12-.33-.19-.5-.12-.32-.24-.64-.36-.97-.08-.23-.17-.46-.27-.68-.1-.26-.19-.51-.3-.76-.2-.54-.42-1.07-.64-1.61-.09-.23-.18-.44-.27-.66-.05-.11-.1-.23-.14-.35-.18-.44-.36-.88-.55-1.32l-.31-.75c-.07-.18-.15-.35-.23-.52-.36-.86-.75-1.72-1.14-2.58,1.76-2.37,3.37-4.54,3.81-5.19,0,0,.02-.02.02-.03,9.62,15.03,15.11,38.69,17.24,59.16.02.1.02.2.03.3.52,5.02.84,9.86.96,14.31Z"
              fill="#323233" stroke-width="0" />
            <path d="M159.51,274.81c-.06-.85-.12-1.72-.19-2.57.1.92.16,1.78.19,2.57Z" fill="#323233"
              stroke-width="0" />
          </g>
        </g>
        <g>
          <path d="M94.9,184.08v.24c0-.08,0-.16,0-.24h0Z" fill="#1a1a1a" stroke-width="0" />
          <path d="M113.37,184.16v1.12s.03,0,.03,0" fill="none" stroke-width="0" />
          <path
            d="M102.36,162.05c2.49,2.36,6.78,3.54,11.04,3.54v-1.75c-3.75.07-7.48-.45-11.04-1.79ZM94.96,139.84c.73,1.29,1.92,1.71,3.32,1.62,1.36-.1,2.23-.89,2.74-2.11.25-.63.34-1.28.35-1.69,0-1.26-.23-2.19-.87-2.96-.84-1.02-1.98-1.24-3.22-1.05-1.32.21-2.19,1-2.58,2.25-.41,1.33-.46,2.67.26,3.94ZM103.63,180.8c.35.22.71.43,1.06.64.1.06.19.11.29.16-.1-.06-.19-.11-.29-.17l-1.06-.63Z"
            fill="#f9c0a0" stroke-width="0" />
          <path
            d="M86.25,162.03c.04.12.08.21.11.26-.04-.09-.07-.18-.11-.26ZM85.84,160.93c.03.07.05.13.07.2v-.04c-.03-.06-.05-.11-.07-.16ZM85.78,160.77s0,.01.01.02v-.02s-.01,0-.01,0Z"
            fill="#f9c0a0" stroke-width="0" />
          <path d="M105.71,110.2c1-1.28,1.97-2.6,2.88-3.93-.93,1.33-1.9,2.63-2.88,3.93Z"
            fill="#f9c0a0" stroke-width="0" />
          <path
            d="M113.43,98.27c-.16.31-.32.6-.49.9,0,.03-.02.07-.04.09-1,1.87-2.08,3.69-3.24,5.46-.34.52-.69,1.03-1.04,1.54-.91,1.33-1.88,2.65-2.88,3.93-.16.21-.32.42-.49.62-.25.33-.51.65-.79.97-.17.23-.36.44-.55.66-1.57,1.85-3.26,3.61-4.95,5.36-.45.48-.91.95-1.37,1.41-.36.36-.72.7-1.08,1.04-3,2.8-6.17,5.39-9.46,7.76-.45.31-.88.62-1.33.91,0,0,0,.01,0,.01-.6.4-1.23.78-1.88,1.12-.1.06-.2.12-.29.16-.29.16-.27.41-.27.66-.01,1.08,0,2.16,0,3.23-.01.06,0,.12,0,.19.02,1.14.05,2.28.07,3.41,0,.03,0,.07,0,.1.03.53.03,1.07.05,1.6-.13,4.68.04,9.37-.09,14.06,0,.01.01.02.01.03,0,.02.02.06.03.12.03.07.05.16.08.26.02.06.04.12.07.2.18.55.48,1.43.8,2.38.07.18.12.35.19.53.27.77.54,1.55.77,2.21.01,0,.01.01.01.02.18.51.34.93.43,1.22.01.04.03.07.04.11.03.06.05.12.08.18v.04h.01v.02h0s.01.02.01.02c.01.03.03.07.04.12.02.05.04.1.07.16v.04c.02.06.05.12.08.18.02.09.06.18.09.28.06.13.12.29.17.44.04.08.07.17.11.26,0,.01.01.03.02.05h0c.11.23.29.66.29.66.4.88.85,1.73,1.31,2.56.02.02.03.05.04.07.95,1.73,2.07,3.35,3.3,4.89.29.35.58.71.88,1.05.66.79,1.36,1.56,2.11,2.3l.03.03c.18.19.37.38.56.56h.01c.09.09.2.17.3.25.04.04.07.06.1.08.3.29.68.67.81.79,0,0,.02.01.03.02.14.09.26.18.38.28,1.31,1,2.64,1.98,4,2.91.68.46,1.36.92,2.05,1.36.35.22.7.43,1.05.65l1.06.63c.1.06.19.11.29.17.08.05.16.1.24.13.14.09.27.16.41.24.32.17.64.35.95.52.56.3,1.12.59,1.7.86.24.12.49.24.73.35.25.11.49.23.74.33.25.11.5.22.75.31.67.28,1.35.53,2.04.75.2.06.4.13.6.17.12.03.23.03.23.03h0v-1.13l.03-18.57c-4.26,0-8.55-1.18-11.04-3.54,3.56,1.34,7.29,1.86,11.04,1.79v-.96c0-18.88,0-37.74.01-56.61v-7.99h-.01ZM101.05,139.34c-.51,1.22-1.38,2.01-2.74,2.11-1.4.09-2.59-.33-3.32-1.62-.72-1.27-.67-2.61-.26-3.94.39-1.25,1.26-2.04,2.58-2.25,1.24-.19,2.38.03,3.22,1.05.64.77.87,1.7.87,2.96-.01.41-.1,1.06-.35,1.69Z"
            fill="#eda489" stroke-width="0" />
          <path
            d="M113.4,98.28c-.16.31-.32.6-.49.9,0,.03-.02.07-.04.09-1,1.87-2.08,3.69-3.24,5.46-.34.52-.69,1.03-1.04,1.54-.93,1.33-1.9,2.63-2.88,3.93-.16.21-.32.42-.49.62-.25.33-.52.65-.79.97-.17.23-.36.44-.55.66-1.57,1.85-3.26,3.61-4.95,5.36-.45.48-.91.95-1.37,1.41-.36.36-.72.7-1.08,1.04-3,2.8-6.17,5.39-9.46,7.76-.45.31-.88.62-1.33.91,0,0,0,.01-.01.01-.6.4-1.23.78-1.88,1.12-.1.06-.2.12-.29.16-.29.16-.27.41-.27.66-.02,1.08-.02,2.15,0,3.23-.01.06,0,.12,0,.19.02,1.14.05,2.28.07,3.41,0,.03,0,.07,0,.1.03.53.03,1.07.05,1.6-.21-.97-.67-1.62-1.26-2-.06-.05-.12-.09-.2-.12-.98-.52-2.26-.37-3.39.21,0,0-.03,0-.04.02-.08.04-.16.08-.23.13-.01,0-.01,0-.02,0-.02,0-.04.02-.06.04-.02,0-.03,0-.04.02-.15.1-.29.19-.42.3-.16.13-.31.26-.45.41-.1.1-.19.19-.27.3-.08.09-.15.18-.22.28-.01.02-.03.03-.04.06-.06.08-.11.16-.17.25-.03.04-.05.09-.08.14-.12.19-.22.39-.32.59-.16-.14.12-.36-.04-.49-.7-.15-1.44-.25-2.13-.53-.97,0-2.95-2.07-3.46-1.16,1.7-9.39,2.13-19.18,5.3-28.18,4.38-17.04,21.05-26.88,37.58-27.29v15.88Z"
            fill="#1a1a1a" stroke-width="0" />
          <path d="M105.71,110.2c1.01-1.28,1.97-2.59,2.88-3.93-.93,1.34-1.9,2.63-2.88,3.93Z"
            fill="#38393a" stroke-width="0" />
          <path
            d="M75.57,143.35c0,.22,0,.44.02.66.02.22.04.43.06.65.03.23.06.46.1.68.04.23.09.44.14.66,0,.03,0,.06.02.09s.02.06.02.08c.03.12.06.23.1.35.05.17.11.35.17.52.07.23.17.45.27.66.14.3.3.59.46.87.11.19.23.37.35.54.14.19.27.38.42.56.09.11.19.23.29.34.29.34.6.66.93.96.14.14.29.27.43.39t.02.02s.06.06.1.09c.09.07.19.15.27.23.13.1.26.2.39.3.1.07.19.14.3.22.14.11.3.22.45.31.02.02.05.03.07.05.22.14.43.28.65.42.32.2.64.39.97.57h0c.22-.05.43-.06.68-.07.13-4.69-.04-9.38.09-14.06-.21-.97-.67-1.63-1.26-2.01-.06-.05-.13-.09-.2-.12-.98-.52-2.26-.36-3.39.21-.02,0-.03.02-.05.02-.07.04-.15.08-.23.13,0,0,0,0-.02,0-.02.02-.05.02-.06.04-.02,0-.03.02-.04.02-.14.1-.29.19-.42.3-.16.13-.31.27-.45.41-.1.1-.19.19-.27.3-.08.09-.15.19-.23.28,0,.02-.02.03-.04.06-.06.08-.11.16-.17.25-.02.05-.05.1-.08.14-.12.19-.22.39-.32.59-.06.19-.13.37-.18.56-.04.13-.07.26-.11.39-.02.1-.05.22-.06.32-.03.13-.06.27-.08.4-.02.14-.04.28-.06.43-.02.14-.03.28-.05.43s-.02.29-.02.43c0,.11,0,.23,0,.35Z"
            fill="#eda489" stroke-width="0" />
          <path d="M79.76,151.68c-.09-.07-.19-.15-.27-.23.03.03.06.06.09.08.06.05.12.1.19.14Z"
            fill="#eda489" stroke-width="0" />
          <path d="M75.6,142.52v.06c.02-.14.03-.29.05-.43-.02.12-.04.25-.05.37Z" fill="#eda489"
            stroke-width="0" />
          <path
            d="M79.23,162.56c.06.06.11.13.17.19.99,1.26,2.48,2.05,4.15,1.83,1-.12,2.06-.61,3.12-1.57,0,0-.19-.43-.29-.65-.06.28-.28.53-.48.79-.62.8-1.39,1.17-2.42,1.05-1.48-.17-2.73-.74-3.74-1.86-1.48-1.63-1.59-4.04-.22-5.77.84-1.06,1.92-1.84,3-2.63.08-.06.14-.1.22-.14.05-.03.1-.06.14-.08.05-.02.09-.03.13-.05.11-.04.21-.05.32-.04-.02-.06-.03-.1-.03-.12,0,0,0-.02,0-.02-.25,0-.47.02-.68.07h0c-2.62.87-3.95,2.5-4.36,4.26-.56,1.7-.23,3.33,1.01,4.75Z"
            fill="#c0bbdc" stroke-width="0" />
          <path
            d="M79.73,162.33c1.01,1.12,2.26,1.69,3.74,1.86,1.03.11,1.8-.26,2.42-1.05.2-.26.43-.51.48-.79h0s-.02-.04-.02-.06c-.02-.05-.06-.14-.1-.26-.06-.15-.11-.31-.17-.44-.03-.1-.07-.19-.1-.27-.02-.06-.06-.13-.07-.19-.02-.06-.05-.13-.07-.2-.02-.05-.03-.09-.04-.12h0v-.02s0,0,0-.02h0s0-.02,0-.02v-.02c-.02-.06-.04-.12-.06-.19-.02-.04-.03-.07-.04-.11-.1-.28-.25-.71-.43-1.22,0,0,0-.02,0-.02-.23-.65-.5-1.43-.77-2.21-.06-.18-.12-.35-.19-.53-.32-.95-.62-1.83-.81-2.38-.02-.07-.05-.14-.06-.19-.03-.1-.06-.19-.08-.26h0c-.11-.02-.21,0-.32.03-.04.02-.08.03-.13.05-.04.02-.09.05-.14.08-.07.04-.14.09-.22.14-1.07.8-2.16,1.57-3,2.63-1.37,1.72-1.26,4.13.22,5.77Z"
            fill="#1a1a1a" stroke-width="0" />
          <path d="M86.26,162.04c.04.12.08.21.1.26-.03-.09-.06-.18-.1-.26Z" fill="#1a1a1a"
            stroke-width="0" />
          <path d="M85.85,160.93c.02.07.05.14.07.2,0-.02,0-.02,0-.04-.02-.06-.05-.11-.06-.16Z"
            fill="#1a1a1a" stroke-width="0" />
          <path d="M85.79,160.78s0,0,0,.02v-.02s0,0,0,0Z" fill="#1a1a1a" stroke-width="0" />
          <path
            d="M94.96,139.84c.73,1.3,1.92,1.72,3.33,1.62,1.36-.1,2.23-.89,2.74-2.11.25-.63.34-1.28.35-1.68,0-1.26-.23-2.19-.86-2.96-.85-1.02-1.98-1.24-3.23-1.05-1.32.21-2.18,1-2.58,2.25-.41,1.33-.46,2.67.26,3.94Z"
            fill="#1c1a18" stroke-width="0" />
          <path d="M82.21,189.66l1.37.77,10.76,6.1v-12.2c-3.68,1.62-8.44,3.71-12.13,5.33Z"
            fill="#006347" stroke-width="0" />
          <path
            d="M103.63,180.81c.35.22.71.43,1.06.64.63.36,1.26.72,1.89,1.05-.64-.35-1.26-.7-1.89-1.06l-1.06-.63Z"
            fill="#c97c43" stroke-width="0" />
          <path d="M94.9,184.08v.24c0-.08,0-.16,0-.24h0Z" fill="#c97c43" stroke-width="0" />
          <path
            d="M59.33,220.88c1.26-.53,18.24-6.38,19.5-6.9,3.16-4.62,6.1-19.05,5.32-23.55l-1.37-.77c3.69-1.62,8.45-3.71,12.13-5.33v-.24c-.02-1.95-.1-8.83,0-9.56,0-.03,0-.05,0-.06-.19-.19-.38-.38-.56-.56-.76-.75-1.47-1.53-2.13-2.33-.31-.35-.6-.7-.88-1.05-1.23-1.54-2.35-3.16-3.3-4.89-.02-.02-.02-.05-.04-.07-.47-.83-.91-1.68-1.31-2.56-1.06.96-2.13,1.45-3.12,1.57-1.67.23-3.16-.57-4.15-1.83-.06-.06-.11-.12-.17-.19-1.24-1.43-1.57-3.05-1.01-4.75.41-1.76,1.74-3.39,4.36-4.26-.32-.19-.64-.37-.97-.57-.22-.13-.44-.27-.65-.42-.02-.02-.05-.03-.07-.05-.15-.1-.31-.2-.45-.31-.1-.07-.2-.14-.3-.22-.13-.1-.26-.19-.39-.3-.06-.05-.12-.1-.19-.14-.02-.02-.06-.05-.09-.08-.03-.03-.06-.06-.1-.09t-.02-.02c-.14-.12-.29-.25-.43-.39-.32-.3-.64-.62-.93-.96-.1-.11-.2-.23-.29-.34-.15-.19-.29-.37-.42-.56-.13-.18-.24-.35-.35-.54-.16-.28-.31-.57-.46-.87-.1-.21-.2-.43-.27-.66-.06-.17-.12-.35-.17-.52-.04-.11-.07-.23-.1-.35,0-.02-.02-.05-.02-.08s-.02-.06-.02-.09c-.17-.65-.27-1.32-.31-2-.02-.22-.02-.44-.02-.66,0-.12,0-.23,0-.35,0-.14,0-.28.02-.43v-.06c0-.12.02-.25.05-.37.02-.14.04-.29.06-.43.02-.14.05-.27.08-.4.02-.1.04-.22.06-.32.04-.13.07-.26.11-.39.05-.19.11-.37.18-.56-.15-.14.13-.35-.03-.49-.71-.14-1.44-.25-2.13-.52-.97,0-2.95-2.08-3.46-1.17-.02.1-11.33,82.96-11.19,83.01Z"
            fill="#1a1a1a" stroke-width="0" />
          <path d="M79.48,151.45s.06.06.09.08c.06.05.12.1.19.14-.09-.07-.19-.15-.27-.23Z"
            fill="#1a1a1a" stroke-width="0" />
          <path d="M75.6,142.52v.06c.02-.14.03-.29.05-.43-.02.12-.04.25-.05.37Z" fill="#1a1a1a"
            stroke-width="0" />
          <path d="M94.9,184.08v.24c0-.08,0-.16,0-.24h0Z" fill="#eda489" stroke-width="0" />
          <path d="M113.4,163.84c-3.75.07-7.48-.45-11.04-1.79,2.49,2.36,6.78,3.54,11.04,3.54v-1.75Z"
            fill="#eda489" stroke-width="0" />
          <path d="M113.26,230.91c-.15,0-.31-.01-.46-.03.19.04.37.06.56.06h.04v-.03h-.14Z"
            fill="#fff" stroke-width="0" />
          <path
            d="M113.42,217.25v.06h-.06v3.78s-.05,0-.08.01c-.07,0-.14.01-.22.02-1.27.17-2.28,1.15-2.52,2.4-.03.18-.05.37-.05.56,0,1.48,1.08,2.71,2.49,2.95.01.01.02.01.03.01.11.03.24.06.35.07v3.8h-.1c-.15,0-.31-.01-.46-.03-.16-.01-.32-.03-.48-.07-3.22-.55-5.66-3.35-5.66-6.73,0-3.74,2.99-6.77,6.7-6.83h.06Z"
            fill="#dbcee7" stroke-width="0" />
          <rect x="113.36" y="217.31" width=".04" height="3.78" fill="#fff" stroke-width="0" />
          <path d="M113.4,227.11v3.8h-.04v-3.8h.04Z" fill="#fff" stroke-width="0" />
          <path
            d="M113.4,184.15v25.97h-19.06v-27.04c-.02-1.77-.09-7.6-.03-9.21,0-.16,0-.28.02-.35,0-.03,0-.05.01-.06.1.09.21.17.31.25.03.04.07.06.1.08.3.29.67.67.8.79.02,0,.03.01.03.02.14.09.26.18.39.28,1.31,1,2.63,1.98,4,2.91.67.46,1.36.92,2.05,1.36.34.22.7.43,1.05.65.35.22.7.43,1.06.64.63.36,1.25.71,1.89,1.05.56.3,1.12.59,1.69.86.24.12.49.24.73.35.25.11.5.23.75.33.24.11.49.22.74.31.68.28,1.36.53,2.05.75.19.06.39.13.6.17.12.03.23.03.23.03h0s.14-.03.14-.03c.08-.01.16-.04.24-.05.06-.02.12-.03.18-.05,0,0,.02,0,.03-.01Z"
            fill="#d1906c" stroke-width="0" />
          <g>
            <path
              d="M113.4,221.09v5.98h-.04c-.12,0-.23-.01-.35-.03-.01,0-.02,0-.03-.01-1.41-.24-2.49-1.47-2.49-2.95,0-.19.02-.38.05-.56.24-1.25,1.25-2.23,2.52-2.4.08-.01.15-.02.22-.02.03-.01.05-.01.08-.01h.04Z"
              fill="#227154" stroke-width="0" />
            <path d="M67.26,274.86c0,.1,0,.19.02.29,0-.1,0-.21,0-.31,0,0,0,.02,0,.02Z"
              fill="#09837e" stroke-width="0" />
            <path
              d="M60.36,283.37h-.47c.12-4.45.44-9.28.96-14.31.01-.1.02-.19.03-.3-5.8-.27-12.41.61-17.78-.33-.04.49-.08.99-.13,1.5-.36,4.46-.65,9.04-1.11,13.53h18.5s0-.09,0-.09Z"
              fill="#005a3e" stroke-width="0" />
            <path d="M60.36,273.3s.02.02.03.03h0s-.02-.02-.03-.03Z" fill="#09a09c" stroke-width="0" />
            <path d="M42.98,269.94c.05-.51.09-1.01.13-1.5h0c-.04.5-.08,1-.12,1.5Z" fill="#09a09c"
              stroke-width="0" />
            <path d="M67.26,274.81v.05s0-.02,0-.02c.05-.56.1-1.1.14-1.66-.06.55-.1,1.09-.15,1.63Z"
              fill="#2f2f30" stroke-width="0" />
            <path
              d="M43.11,268.44c5.37.93,11.97.06,17.78.33,2.13-20.47,7.62-44.14,17.24-59.16.02-.09.1-.46.2-1.04-4.64.69-8.77,3.21-12.66,5.73-21.54,13.99-20.4,28.61-22.56,54.14Z"
              fill="#227154" stroke-width="0" />
            <path
              d="M67.25,274.8v.05c0,.1,0,.19.02.29,0-.1-.01-.21-.01-.31.05-.56.1-1.11.15-1.66-.06.55-.11,1.08-.16,1.63ZM67.25,274.8c.06-.85.12-1.71.19-2.57-.11.92-.16,1.78-.19,2.57ZM83.28,239.44c.45-.6.91-1.19,1.37-1.78-.09.09-.17.19-.25.29-.09.12-.18.23-.27.35-.28.38-.57.76-.85,1.14Z"
              fill="#08c0c3" stroke-width="0" />
            <path
              d="M113.09,208.1c0,.42,0,1.82,0,1.82l-.2.2c-.14.14-.34.35-.61.62-.07.06-.14.13-.21.21-.28.27-.61.6-.99.99l-.24.24c-.33.32-.68.67-1.07,1.06l-.79.79c-.47.46-.97.96-1.49,1.48-.23.22-.46.45-.69.68-.22.21-.44.44-.67.66-.63.62-1.27,1.25-1.91,1.88-.06.07-.12.13-.18.18-.38.36-.75.73-1.12,1.09-.09.1-.18.19-.27.27-.34.32-.67.64-.99.95-.56.54-1.09,1.06-1.6,1.55,0,.01-.01.02-.02.02-.41.39-.79.75-1.15,1.09-.18.17-.35.34-.52.49-.06.04-.11.09-.16.14-.11.1-.22.2-.32.31-.02.02-.05.04-.07.06-.13.12-.26.22-.37.33-.08.07-.15.14-.22.2-.09.08-.17.15-.24.21-.09.08-.18.15-.26.22-.81.68-1.49,1.16-2.09,1.49-.01.01-.01,0-.01,0-.09.04-.18.08-.26.12t-.02.02c-.26.2-.52.42-.77.63-.02.02-.02.03-.03.03-.01.01-.02.02-.03.02,0,.01-.01.01-.02.01-.01.02-.02.02-.04.03h0s-.02.03-.04.04h0s-.02.03-.02.03h-.01s-.08.08-.11.1c-.03.02-.06.06-.1.08-.2.17-.39.34-.59.52-.19.17-.38.33-.57.52h-.01c-.08.06-.13.11-.2.17h0c-.04.05-.07.07-.1.1-.35.33-.69.65-1.02.98s-.66.67-.98,1.01c-.22.22-.42.44-.62.65-.28.3-.55.6-.83.91h0s0,.02-.01.02c-.01,0-.02.03-.04.05-.02.03-.05.06-.08.09-.06.07-.14.17-.22.26-.08.1-.17.19-.24.28-.22.25-.44.5-.66.76-.22.26-.43.52-.65.78-.06.06-.11.12-.16.19-.05.06-.1.13-.16.19-.23.28-.45.56-.68.84-.23.28-.45.57-.68.85-.01.01-.02.02-.02.03s0,.02,0,.02c-.46.59-.91,1.18-1.37,1.78-.24.32-.48.64-.72.96s-.48.63-.72.95h0c-.28.35-.57.75-.87,1.19,0,0,0,.01-.02.01h0c-.95,1.37-2.03,3.15-3.14,5.13-.28.49-.55,1-.84,1.52-.28.52-.57,1.06-.85,1.6-.28.54-.56,1.08-.85,1.63-.28.55-.56,1.11-.84,1.67-.09.2-.19.4-.3.59-.62,1.27-1.22,2.52-1.8,3.75-.02.04-.04.08-.06.13-.16.35-.32.69-.48,1.03-.31.68-.61,1.34-.9,1.99-.28.64-.56,1.27-.81,1.87-.39.9-.74,1.74-1.04,2.51,0,.03-.02.06-.03.08-.12.38-.26.75-.42,1.1-.01.03-.02.06-.03.09-.02.01-.02.03-.03.04-.09.24-.16.46-.23.67-.15.44-.27.83-.36,1.15-.05.16-.09.31-.12.44,0,.03,0,.05-.01.08h0s-.01.07-.02.1c-.03.18-.06.37-.09.55-.08.49-.14.96-.21,1.42,0,.03-.01.07-.01.1-.01.14-.03.3-.04.45v.03c-.03.42-.06.83-.09,1.25-.03.33-.06.66-.08.99v.04s.01-.09.02-.13v-.07c.01-.12.02-.24.04-.36.03-.27.05-.55.08-.82-.03.28-.05.56-.07.83-.03.27-.05.54-.08.81v.12s-.01-.05-.01-.08c-.05.85-.1,1.69-.14,2.53-.05.85-.08,1.69-.11,2.53v.03c-.01.19-.02.37-.02.55-.01.18-.02.36-.03.54-.02.79-.04,1.56-.05,2.34h.08c3.32.05,24.9.05,46.38.04h.04v-52.5h-.14c-.15,0-.31-.01-.46-.03-.16-.01-.32-.03-.48-.07-3.22-.55-5.66-3.35-5.66-6.73,0-3.74,2.99-6.77,6.7-6.83h.04v-9.15h-.31ZM67.27,274.6v-.05s-.01.09-.01.13c0-.03,0-.05.01-.08Z"
              fill="#227154" stroke-width="0" />
            <path d="M67.26,274.81v.05s0-.02,0-.02c.05-.56.1-1.1.14-1.66-.06.55-.1,1.09-.15,1.63Z"
              fill="#08c0c3" stroke-width="0" />
            <path d="M67.26,274.86c0,.1,0,.19.02.29,0-.1,0-.21,0-.31,0,0,0,.02,0,.02Z"
              fill="#08c0c3" stroke-width="0" />
            <path d="M60.36,273.3s.02.02.03.03h0s-.02-.02-.03-.03Z" fill="#9a90c4" stroke-width="0" />
            <path
              d="M83.28,239.44c.91-1.19,1.82-2.37,2.76-3.52-.46.56-.91,1.13-1.36,1.69-.19.23-.37.46-.55.69-.28.38-.57.76-.85,1.14Z"
              fill="#09a09c" stroke-width="0" />
            <path
              d="M67.48,271.79c.06-.48.13-.99.22-1.51.03-.19.06-.37.1-.56,0-.06.02-.11.03-.18.11-.52.35-1.29.71-2.25,0-.02,0-.03.02-.05.14-.39.3-.81.48-1.27.81-2.04,1.93-4.64,3.23-7.39.02-.05.04-.09.06-.13.58-1.23,1.18-2.49,1.8-3.75.1-.19.2-.39.3-.6,2.22-4.45,4.62-8.81,6.52-11.54,0,0,0,0,.02-.02.31-.43.6-.84.88-1.18h0c.48-.64.96-1.28,1.43-1.92.28-.38.57-.76.85-1.14.18-.23.36-.47.55-.69.45-.56.9-1.14,1.36-1.69.1-.13.21-.26.32-.38.43-.52.86-1.04,1.3-1.55.26-.3.65-.75.59-.68.27-.31.56-.62.84-.92.2-.22.4-.43.62-.65.64-.68,1.3-1.34,2-1.99.03-.03.07-.06.1-.1.06-.06.13-.12.2-.18.38-.35.77-.69,1.17-1.03.06-.06.14-.12.2-.18h0s.02-.02.03-.03c.02-.02.02-.03.04-.04.02-.02.06-.04.08-.06,0,0,.02-.02.03-.03.27-.22.52-.44.8-.64-2.6,1.18-3.62-.99-6.01-4.16h0c-.28-.38-.57-.76-.89-1.14-.06-.09-.16-.2-.27-.35-.12-.15-.26-.33-.42-.54-.1-.14-.22-.29-.34-.45-.02-.03-.06-.07-.09-.11-.19-.24-.39-.5-.6-.79-.27-.35-.56-.72-.85-1.13-.16-.21-.32-.43-.49-.65-.31-.41-.61-.81-.93-1.23-.23-.31-.47-.62-.7-.94-.27-.35-.52-.69-.77-1.03-.02-.02-.04-.06-.06-.09-.39.85-.76,1.72-1.14,2.58-.19.43-.36.85-.55,1.27-.19.44-.37.88-.55,1.32-.05.11-.1.23-.14.35-.09.22-.18.43-.27.66-.22.54-.43,1.07-.64,1.61-.1.26-.2.51-.3.76-.1.23-.19.45-.27.68-.12.32-.24.64-.36.97-.06.17-.13.33-.19.5-.23.61-.45,1.22-.67,1.84-.28.77-.56,1.55-.81,2.33-.13.38-.25.75-.38,1.13-.19.55-.36,1.1-.54,1.65-.09.26-.17.51-.24.76-.1.3-.19.6-.28.9-.18.56-.35,1.1-.51,1.66-.16.56-.32,1.11-.48,1.67-.08.27-.15.54-.23.81-.07.27-.14.53-.23.81-.28,1.03-.56,2.08-.82,3.12-.21.82-.42,1.64-.61,2.47-.09.35-.17.71-.25,1.06-.1.36-.18.72-.25,1.09-.17.73-.33,1.47-.48,2.2-.13.58-.24,1.17-.35,1.75-.05.19-.09.39-.12.58-.09.48-.19.94-.27,1.41-.15.79-.3,1.57-.43,2.36-.13.74-.26,1.49-.38,2.24-.03.16-.06.31-.08.48v.06h0s0,.05,0,.07c0,.06-.02.13-.03.19-.1.64-.2,1.27-.29,1.91-.02.14-.05.3-.06.44-.04.27-.08.53-.12.81-.11.81-.22,1.61-.32,2.42h0c-.34,2.68-.61,5.35-.83,8.04Z"
              fill="#006347" stroke-width="0" />
            <path
              d="M78.13,209.61s.02.02.02.03c.44.65,2.05,2.83,3.81,5.19.02.03.05.06.06.09.25.34.51.68.77,1.03.23.32.47.64.7.94.31.42.62.82.93,1.23.17.23.33.44.49.65.3.4.59.77.85,1.13.21.29.41.55.6.79.03.04.06.08.09.11.12.16.23.31.34.45.16.21.3.39.42.54.11.15.21.27.27.35.31.39.6.76.89,1.14h0c2.38,3.18,3.41,5.35,6.01,4.17.67-.31,1.43-.83,2.36-1.61,3.25-2.75,16.35-15.93,16.35-15.93,0,0,.02-1.4,0-1.82l-.13-.02c-5.69-3.09-25.29-16.44-29.47-18.48-3.61-.7-2.45,4.24-3.16,6.43-.32,3.2-1.51,9.94-2.01,12.53-.1.58-.18.95-.2,1.04Z"
              fill="#005a3e" stroke-width="0" />
            <path
              d="M59.9,283.37h7.01c.02-.78.03-1.55.06-2.34.02-.36.02-.72.05-1.1v-.03c.06-1.68.14-3.37.25-5.06v-.05c.02-.79.08-1.65.19-2.57,0-.15.02-.31.04-.45.22-2.69.49-5.36.83-8.04h0c.1-.81.21-1.62.32-2.42.04-.27.08-.54.12-.81.02-.14.04-.3.06-.44.09-.64.19-1.27.29-1.91,0-.06.02-.13.03-.19,0-.02,0-.04,0-.06h0v-.04s0-.02,0-.02c.02-.16.05-.31.08-.48.11-.74.24-1.49.38-2.24.03-.24.08-.48.12-.72.02-.07.03-.15.04-.23.09-.48.18-.94.27-1.41.08-.47.18-.93.27-1.41.03-.19.07-.39.12-.58.11-.58.23-1.17.35-1.75.04-.21.08-.42.13-.63.06-.27.12-.54.18-.81.06-.25.11-.51.18-.76.07-.36.15-.72.25-1.09.02-.14.06-.27.09-.41.05-.22.1-.43.16-.65.19-.83.4-1.65.61-2.47.27-1.04.54-2.09.82-3.12.08-.27.15-.54.23-.81.08-.27.15-.55.23-.81.16-.56.32-1.12.48-1.67.16-.56.33-1.1.51-1.66.09-.3.19-.6.28-.9.07-.26.15-.51.24-.76.18-.55.35-1.1.54-1.65.13-.38.25-.75.38-1.13.26-.78.53-1.55.81-2.33.12-.35.24-.69.37-1.04.1-.27.19-.54.3-.81.06-.17.12-.33.19-.5.12-.32.24-.64.36-.97.08-.23.17-.46.27-.68.1-.26.19-.51.3-.76.2-.54.42-1.07.64-1.61.09-.23.18-.44.27-.66.05-.11.1-.23.14-.35.18-.44.36-.88.55-1.32l.31-.75c.07-.18.15-.35.23-.52.36-.86.75-1.72,1.14-2.58-1.76-2.37-3.37-4.54-3.81-5.19,0,0-.02-.02-.02-.03-9.62,15.03-15.11,38.69-17.24,59.16-.02.1-.02.2-.03.3-.52,5.02-.84,9.86-.96,14.31Z"
              fill="#323233" stroke-width="0" />
            <path d="M67.26,274.81c.06-.85.12-1.72.19-2.57-.1.92-.16,1.78-.19,2.57Z" fill="#323233"
              stroke-width="0" />
          </g>
        </g>
      </g>
      <g id="sopraciglia">
        <path class="sopracciglia1"
          d="M137.35,129c0,.2-.19.12-.29.15-.53.18-1.04.04-1.55-.09-1.67-.43-3.37-.74-5.1-.93-1.67-.19-3.33-.1-4.94.16-.51.08-1.01.19-1.52.31h0c-.51.12-1.01.26-1.51.4-.35.1-.68.2-1.02.31-.34.1-.68.21-1.02.31.22-.21.45-.4.68-.58.19-.14.39-.28.6-.4.17-.1.34-.2.52-.29.39-.19.8-.36,1.22-.51,3.85-1.33,7.67-1.24,11.5.12.73.26,1.48.48,2.19.8.11.05.27.06.26.23Z"
          fill="#38393a" stroke-width="0" />
        <path class="sopracciglia2"
          d="M88.84,129c0,.2.19.12.29.15.53.18,1.04.04,1.55-.09,1.67-.43,3.37-.74,5.1-.93,1.67-.19,3.33-.1,4.94.16.51.08,1.01.19,1.52.31h0c.51.12,1.01.26,1.51.4.35.1.68.2,1.02.31.34.1.68.21,1.02.31-.22-.21-.45-.4-.68-.58-.19-.14-.39-.28-.6-.4-.17-.1-.34-.2-.52-.29-.39-.19-.8-.36-1.22-.51-3.85-1.33-7.67-1.24-11.5.12-.73.26-1.48.48-2.19.8-.11.05-.27.06-.26.23Z"
          fill="#1a1a1a" stroke-width="0" />
      </g>
    </g>
    <g id="icon" class="iconArrabbiato">
      <path
        d="M124.01,163.7h-8.78v-1.69h8.78c1.04,0,1.89-.85,1.89-1.89v-8.78h1.69v8.78c0,1.97-1.6,3.57-3.57,3.57Z"
        fill="#a11e21" stroke-width="0" />
      <path
        d="M141.92,163.7h-8.78c-1.97,0-3.57-1.6-3.57-3.57v-8.78h1.69v8.78c0,1.04.85,1.89,1.89,1.89h8.78v1.69Z"
        fill="#a11e21" stroke-width="0" />
      <path
        d="M127.58,178.29h-1.69v-8.78c0-1.04-.85-1.89-1.89-1.89h-8.78v-1.69h8.78c1.97,0,3.57,1.6,3.57,3.57v8.78Z"
        fill="#a11e21" stroke-width="0" />
      <path
        d="M131.26,178.29h-1.69v-8.78c0-1.97,1.6-3.57,3.57-3.57h8.78v1.69h-8.78c-1.04,0-1.89.85-1.89,1.89v8.78Z"
        fill="#a11e21" stroke-width="0" />
    </g>
  </g>
</svg>