<?xml version="1.0" encoding="UTF-8"?>
<svg id="contento" xmlns="http://www.w3.org/2000/svg" viewBox="0 0 226.77 283.46">
  <def>
    <style>
      .sorriso{
        opacity:0;
      animation: sorrisoAnimation 1s linear 1 forwards;
      }
      @keyframes sorrisoAnimation {
      from{
        opacity:0;
      }
      to{
        opacity:1; 
      }
      }
    </style>
  </def>
  <g id="sfondo">
    <rect x="-.01" y="-.09" width="226.8" height="283.64" fill="#c72f33" stroke-width="0"/>
    <path d="M42.39,190.11c0,.1-.1.1-.2.1,0,0,.1-.1.2-.1Z" fill="#c72f33" stroke-width="0"/>
  </g>
  <g id="corpo">
    <g id="eleonora">
      <path d="M113.37,165.59v-2.71c0-18.88,0-37.74-.01-56.61v-7.87c-.06.11-.12.22-.19.33-.01.02-.02.04-.02.05-.06.13-.14.26-.21.39,0,.03-.02.07-.04.09-1,1.87-2.08,3.69-3.24,5.46-.34.52-.69,1.03-1.04,1.54-.23.33-.46.66-.69.99-.01.01-.02.01-.02.02-.24.33-.47.65-.71.98h0c-.19.27-.38.52-.58.78-.28.39-.57.78-.87,1.16-.16.21-.32.42-.49.62-.25.33-.51.65-.79.97-.17.23-.36.44-.55.66-1.57,1.85-3.26,3.61-4.95,5.36-.45.48-.91.95-1.37,1.41t-.02.01c-.36.36-.72.7-1.08,1.04-3,2.8-6.17,5.39-9.46,7.76-.45.31-.88.62-1.33.91,0,0,0,.01,0,.01-.6.4-1.23.78-1.88,1.12-.1.06-.2.12-.29.16-.05.03-.1.06-.13.11-.13.15-.12.34-.12.54,0,1.08,0,2.16,0,3.23,0,.06,0,.12,0,.19.02,1.14.05,2.28.07,3.41,0,.03.01.07,0,.1.03.53.03,1.07.05,1.6-.13,4.68.04,9.37-.09,14.06,0,.01.01.02.01.03,0,.02.02.06.03.12.03.07.05.16.08.26.02.06.04.12.07.2.18.55.48,1.43.8,2.38.07.18.12.35.19.53.27.77.54,1.55.77,2.21.01,0,.01.01.01.02.18.51.34.93.43,1.22,0,.04.03.07.04.11.03.06.05.12.08.18v.04h.01v.02h0s0,.02,0,.02c.01.03.03.07.04.12.02.05.04.1.07.16v.04c.02.06.05.12.08.18.02.09.06.18.09.28.06.13.12.29.17.44.04.08.07.17.11.26,0,.01.01.03.02.05h0c.11.23.29.66.29.66.4.88.85,1.73,1.31,2.56.02.02.03.05.04.07.95,1.73,2.07,3.35,3.3,4.89.29.35.58.71.88,1.05.65.78,1.34,1.54,2.08,2.27.01-.14.01-.25.02-.31,0-.03,0-.05.01-.06.1.09.21.17.31.25.03.04.07.06.1.08.3.29.67.67.8.79.02,0,.03.01.03.02.14.09.26.18.39.28,1.31,1,2.63,1.98,4,2.91.67.46,1.36.92,2.05,1.36.34.22.7.43,1.05.65.35.22.7.43,1.06.64.63.36,1.25.71,1.89,1.05.56.3,1.12.59,1.69.86.24.12.49.24.73.35.25.11.5.23.75.33.24.11.49.22.74.31.68.28,1.36.53,2.05.75.19.06.39.13.6.17.12.03.23.03.23.03h0s.14-.03.14-.03c.08-.01.16-.04.24-.05.06-.02.12-.03.18-.05h.03s-.03-18.57-.03-18.57ZM101.05,139.34c-.09.22-.19.42-.31.6-.05.08-.1.16-.15.23-.01.01-.01.02-.02.02-.07.12-.17.24-.27.34-.4.43-.89.72-1.5.85-.04.02-.08.02-.12.03-.04.01-.08.01-.12.01-.04.01-.09.02-.13.02-.05.01-.1.02-.14.02h-.2c-.38.03-.75,0-1.09-.08-.09-.02-.18-.05-.27-.08-.04,0-.07-.02-.1-.03-.03,0-.05-.02-.08-.04-.21-.06-.41-.16-.59-.31-.03-.01-.06-.03-.09-.05-.11-.07-.22-.16-.33-.28-.06-.04-.11-.1-.15-.16-.12-.12-.21-.24-.29-.38-.06-.07-.1-.14-.14-.21-.1-.17-.18-.35-.25-.52h0c-.04-.1-.06-.18-.09-.27-.03-.09-.06-.18-.08-.27-.04-.18-.08-.35-.1-.53-.04-.34-.04-.67-.01-1,.01-.15.03-.3.06-.45.02-.15.05-.29.09-.45.03-.14.07-.29.12-.44h.01c.09-.32.22-.61.38-.86.03-.05.06-.09.09-.13.06-.09.12-.17.19-.24.07-.09.14-.16.22-.23.02-.02.03-.04.05-.04.12-.11.24-.21.38-.3.12-.07.25-.14.38-.21.07-.02.13-.05.2-.07.07-.03.14-.05.22-.07.15-.05.3-.09.47-.11t.02,0c.1-.01.19-.03.29-.03.04-.01.08-.01.12-.01.03,0,.07-.01.1,0,1.04-.07,1.98.21,2.71,1.09.64.77.87,1.7.87,2.96-.01.41-.1,1.06-.35,1.69ZM106.1,131.27c-.35-.11-.69-.21-1.02-.32-.17-.05-.34-.1-.51-.15-.08-.03-.17-.06-.26-.08-.08-.02-.17-.04-.26-.07-.5-.15-1-.28-1.51-.41h-.01c-.51-.12-1.01-.22-1.52-.3-1.62-.27-3.27-.35-4.94-.16-.85.09-1.7.21-2.54.36-.86.16-1.72.35-2.56.56-.12.03-.24.06-.36.09-.13.03-.25.06-.37.06-.17.03-.35.03-.52,0-.1-.01-.2-.03-.3-.06-.1-.03-.28.05-.29-.15,0-.06.02-.11.05-.12.03-.05.08-.07.12-.08.04-.02.08-.03.11-.05.17-.08.34-.15.52-.21l.57-.21.54-.18c.19-.07.37-.13.56-.2,3.83-1.36,7.65-1.45,11.5-.12.42.15.83.32,1.22.51.18.09.35.19.51.29.21.12.42.26.61.4.23.18.47.37.68.58-.02-.01-.04-.01-.06-.02.01.02.03.03.04.04Z" fill="#eda489" stroke-width="0"/>
      <path d="M113.41,82.4v15.88s-.01.03-.02.04c0,.02-.02.04-.03.05-.06.12-.13.24-.19.36-.01.02-.02.04-.02.05-.08.14-.15.27-.23.4,0,.03-.02.07-.04.09-1,1.87-2.08,3.69-3.24,5.46-.34.52-.69,1.03-1.04,1.54-.47.67-.95,1.33-1.43,1.98-.37.52-.76,1.03-1.14,1.54-.1.14-.21.27-.31.41-.16.21-.32.42-.49.62-.25.33-.52.65-.79.97-.17.23-.36.44-.55.66-1.57,1.85-3.26,3.61-4.95,5.36-.45.48-.91.95-1.37,1.41-.36.36-.72.7-1.08,1.04-3,2.8-6.17,5.39-9.46,7.76-.45.31-.88.62-1.33.91,0,0,0,.01,0,.01-.6.4-1.23.78-1.88,1.12-.1.06-.2.12-.29.16-.05.03-.1.06-.13.11-.15.14-.14.35-.14.55-.02,1.08-.02,2.15,0,3.23-.01.06,0,.12,0,.19.02,1.14.05,2.28.07,3.41,0,.03,0,.07,0,.1.03.53.03,1.07.05,1.6-.21-.97-.67-1.62-1.26-2-.06-.05-.12-.09-.2-.12-.98-.52-2.26-.36-3.39.21-.02,0-.03.02-.05.02-.07.04-.15.08-.22.13-.01,0-.01.01-.02.01-.02.02-.05.02-.06.04-.02,0-.04.02-.05.03-.14.09-.29.19-.41.29-.16.13-.32.27-.45.41-.1.1-.19.2-.27.3-.08.09-.15.18-.22.28,0,0,0,.02-.02.03s-.01.01-.02.03c-.06.08-.11.16-.17.25-.01.02-.03.04-.04.07,0,.02-.03.05-.04.07-.06.1-.11.19-.17.29-.05.1-.1.2-.15.3h-.01c-.07-.08-.04-.16-.01-.25.03-.08.06-.17-.02-.24-.7-.15-1.44-.25-2.13-.53-.35,0-.83-.27-1.33-.56-.24-.14-.48-.3-.71-.43-.09-.05-.18-.1-.26-.14-.15-.08-.3-.15-.43-.19-.23-.08-.42-.09-.57,0-.03,0-.06.03-.08.07-.03.03-.05.05-.08.09h0c1.7-9.39,2.13-19.18,5.3-28.17,4.38-17.03,21.02-26.86,37.54-27.29h.04Z" fill="#1a1a1a" stroke-width="0"/>
      <path d="M75.57,143.35c0,.22,0,.44.02.66.02.22.04.43.06.65.03.23.06.46.1.68.04.23.09.44.14.66,0,.03,0,.06.02.09s.02.06.02.08c.03.12.06.23.1.35.05.17.11.35.17.52.07.23.17.45.27.66.14.3.3.59.46.87.11.19.23.37.35.54.14.19.27.38.42.56.09.11.19.23.29.34.29.34.6.66.93.96.14.14.29.27.43.39t.02.02s.06.06.1.09c.09.07.19.15.27.23.13.1.26.2.39.3.1.07.19.14.3.22.14.11.3.22.45.31.02.02.05.03.07.05.22.14.43.28.65.42.32.2.64.39.97.57h0c.22-.05.43-.06.68-.07.13-4.69-.04-9.38.09-14.06-.21-.97-.67-1.63-1.26-2.01-.06-.05-.13-.09-.2-.12-.98-.52-2.26-.36-3.39.21-.02,0-.03.02-.05.02-.07.04-.15.08-.23.13,0,0,0,0-.02,0-.02.02-.05.02-.06.04-.02,0-.03.02-.04.02-.14.1-.29.19-.42.3-.16.13-.31.27-.45.41-.1.1-.19.19-.27.3-.08.09-.15.19-.23.28,0,.02-.02.03-.04.06-.06.08-.11.16-.17.25-.02.05-.05.1-.08.14-.12.19-.22.39-.32.59-.06.19-.13.37-.18.56-.04.13-.07.26-.11.39-.02.1-.05.22-.06.32-.03.13-.06.27-.08.4-.02.14-.04.28-.06.43-.02.14-.03.28-.05.43s-.02.29-.02.43c0,.11,0,.23,0,.35Z" fill="#eda489" stroke-width="0"/>
      <path d="M79.23,162.56c.06.06.11.13.17.19.99,1.26,2.48,2.05,4.15,1.83,1-.12,2.06-.61,3.12-1.57,0,0-.19-.43-.29-.65-.06.28-.28.53-.48.79-.62.8-1.39,1.17-2.42,1.05-1.48-.17-2.73-.74-3.74-1.86-1.48-1.63-1.59-4.04-.22-5.77.84-1.06,1.92-1.84,3-2.63.08-.06.14-.1.22-.14.05-.03.1-.06.14-.08.05-.02.09-.03.13-.05.11-.04.21-.05.32-.04-.02-.06-.03-.1-.03-.12,0,0,0-.02,0-.02-.25,0-.47.02-.68.07h0c-2.62.87-3.95,2.5-4.36,4.26-.56,1.7-.23,3.33,1.01,4.75Z" fill="#c0bbdc" stroke-width="0"/>
      <path d="M79.73,162.33c1.01,1.12,2.26,1.69,3.74,1.86,1.03.11,1.8-.26,2.42-1.05.2-.26.43-.51.48-.79h0s-.02-.04-.02-.06c-.02-.05-.06-.14-.1-.26-.06-.15-.11-.31-.17-.44-.03-.1-.07-.19-.1-.27-.02-.06-.06-.13-.07-.19-.02-.06-.05-.13-.07-.2-.02-.05-.03-.09-.04-.12h0v-.02s0,0,0-.02h0s0-.02,0-.02v-.02c-.02-.06-.04-.12-.06-.19-.02-.04-.03-.07-.04-.11-.1-.28-.25-.71-.43-1.22,0,0,0-.02,0-.02-.23-.65-.5-1.43-.77-2.21-.06-.18-.12-.35-.19-.53-.32-.95-.62-1.83-.81-2.38-.02-.07-.05-.14-.06-.19-.03-.1-.06-.19-.08-.26h0c-.11-.02-.21,0-.32.03-.04.02-.08.03-.13.05-.04.02-.09.05-.14.08-.07.04-.14.09-.22.14-1.07.8-2.16,1.57-3,2.63-1.37,1.72-1.26,4.13.22,5.77Z" fill="#1a1a1a" stroke-width="0"/>
      <path d="M106.1,131.27c-.35-.11-.69-.21-1.02-.32-.17-.05-.34-.1-.51-.15-.08-.03-.17-.06-.26-.08-.08-.02-.17-.04-.26-.07-.5-.15-1-.28-1.51-.41h-.01c-.51-.12-1.01-.22-1.52-.3-1.62-.27-3.27-.35-4.94-.16-.85.09-1.7.21-2.54.36-.86.16-1.72.35-2.56.56-.12.03-.24.06-.36.09-.12.02-.24.05-.37.06-.17.03-.35.03-.52,0-.1-.01-.2-.03-.3-.06-.1-.03-.28.05-.29-.15,0-.06.02-.11.05-.12.03-.05.08-.07.12-.08.03-.01.06-.02.09-.03.18-.08.36-.16.54-.23l.57-.21.54-.18c.18-.05.36-.11.54-.18,3.83-1.36,7.65-1.45,11.5-.12.42.14.83.31,1.22.5.17.09.34.19.51.29.21.13.41.26.6.41.22.16.44.34.64.54h.01s.03.03.04.04Z" fill="#1a1a1a" stroke-width="0"/>
      <path d="M101.37,137.4v.27c0,.1-.01.22-.02.34-.02.13-.03.27-.06.41-.03.15-.06.3-.1.46-.05.15-.1.31-.16.47-.06.15-.13.3-.21.44-.03.05-.05.1-.08.15-.05.08-.1.16-.15.23-.01.01-.01.02-.02.02-.08.12-.17.24-.27.34-.4.43-.89.72-1.5.85-.04.02-.08.02-.12.03-.04.01-.08.01-.12.01-.04.01-.09.02-.13.02-.05.01-.1.02-.14.02h-.41c-.06,0-.12,0-.17,0-.25,0-.48-.02-.71-.07-.09-.02-.18-.05-.27-.08-.04,0-.07-.02-.1-.03-.03,0-.05-.02-.08-.04-.21-.06-.41-.16-.59-.31-.03-.01-.06-.03-.09-.05-.11-.07-.22-.16-.33-.28-.05-.05-.1-.11-.15-.16-.1-.12-.2-.24-.29-.38-.06-.07-.1-.14-.14-.21-.1-.17-.18-.35-.25-.52h0c-.04-.1-.06-.18-.09-.27-.03-.09-.05-.18-.08-.27-.04-.18-.08-.35-.1-.53-.04-.34-.04-.67-.01-1,.01-.15.03-.3.06-.45.02-.15.05-.29.09-.45.03-.14.07-.29.12-.44h.01c.09-.32.22-.61.38-.86.01,0,.02-.01.02-.01.02-.04.04-.08.07-.12.06-.09.12-.17.19-.24.07-.09.14-.16.22-.23.01-.02.03-.03.05-.04.12-.11.24-.21.38-.3.23-.14.5-.26.79-.34.15-.05.3-.08.47-.11.25-.04.49-.06.72-.06h.23c.13.01.26.02.37.04.08,0,.15.02.22.04.09.01.17.03.25.06.26.07.5.18.72.33.16.1.31.22.46.36.09.09.18.18.26.28.12.14.22.29.31.44.05.08.09.16.13.24.08.16.15.32.2.5.02.08.05.16.06.24.02.07.04.14.05.21.03.12.05.25.06.39.03.21.04.43.05.67Z" fill="#1c1a18" stroke-width="0"/>
      <path d="M82.21,189.66l1.37.77,10.76,6.1v-12.2c-3.68,1.62-8.44,3.71-12.13,5.33Z" fill="#006347" stroke-width="0"/>
      <path d="M59.33,220.88c1.26-.53,18.24-6.38,19.5-6.9,3.16-4.62,6.1-19.05,5.32-23.55l-1.37-.77c3.69-1.62,8.45-3.71,12.13-5.33v-.24c-.02-1.95-.1-8.83,0-9.56,0-.03,0-.05,0-.06-.19-.19-.38-.38-.56-.56-.76-.75-1.47-1.53-2.13-2.33-.31-.35-.6-.7-.88-1.05-1.23-1.54-2.35-3.16-3.3-4.89-.02-.02-.02-.05-.04-.07-.47-.83-.91-1.68-1.31-2.56-1.06.96-2.13,1.45-3.12,1.57-1.67.23-3.16-.57-4.15-1.83-.06-.06-.11-.12-.17-.19-1.24-1.43-1.57-3.05-1.01-4.75.41-1.76,1.74-3.39,4.36-4.26-.32-.19-.64-.37-.97-.57-.22-.13-.44-.27-.65-.42-.02-.02-.05-.03-.07-.05-.15-.1-.31-.2-.45-.31-.1-.07-.2-.14-.3-.22-.13-.1-.26-.19-.39-.3-.06-.05-.12-.1-.19-.14-.02-.02-.06-.05-.09-.08-.03-.03-.06-.06-.1-.09t-.02-.02c-.14-.12-.29-.25-.43-.39-.32-.3-.64-.62-.93-.96-.1-.11-.2-.23-.29-.34-.15-.19-.29-.37-.42-.56-.13-.18-.24-.35-.35-.54-.16-.28-.31-.57-.46-.87-.1-.21-.2-.43-.27-.66-.06-.17-.12-.35-.17-.52-.04-.11-.07-.23-.1-.35,0-.02-.02-.05-.02-.08s-.02-.06-.02-.09c-.17-.65-.27-1.32-.31-2-.02-.22-.02-.44-.02-.66,0-.12,0-.23,0-.35,0-.14,0-.28.02-.43v-.06c0-.12.02-.25.05-.37.02-.14.04-.29.06-.43.02-.14.05-.27.08-.4.02-.1.04-.22.06-.32.04-.13.07-.26.11-.39.05-.19.11-.37.18-.56-.15-.14.13-.35-.03-.49-.71-.14-1.44-.25-2.13-.52-.97,0-2.95-2.08-3.46-1.17-.02.1-11.33,82.96-11.19,83.01Z" fill="#1a1a1a" stroke-width="0"/>
      <path d="M113.4,184.16v1.12h0v24.84h-19.06v-27.04c-.02-1.77-.09-7.6-.03-9.21v-.04c.01-.14.01-.25.02-.31,0-.03,0-.05.01-.06.1.09.21.17.31.25.03.04.07.06.1.08.3.29.67.67.8.79.02,0,.03.01.03.02.14.09.26.18.39.28,1.31,1,2.63,1.98,4,2.91.67.46,1.36.92,2.05,1.36.34.22.7.43,1.05.65.35.22.7.43,1.06.64.63.36,1.25.71,1.89,1.05.56.3,1.12.59,1.69.86.24.12.49.24.73.35.25.11.5.23.75.33.24.11.49.22.74.31.68.28,1.36.53,2.05.75.19.06.39.13.6.17.12.03.23.03.23.03h0s.14-.03.14-.03c.08-.01.16-.04.24-.05.06-.02.12-.03.18-.05h.03Z" fill="#d1906c" stroke-width="0"/>
      <g>
        <path d="M113.4,221.09v5.98h-.04c-.12,0-.23-.01-.35-.03-.01,0-.02,0-.03-.01-1.41-.24-2.49-1.47-2.49-2.95,0-1.62,1.28-2.93,2.87-2.99h.04Z" fill="#227154" stroke-width="0"/>
        <path d="M67.26,274.86c0,.1,0,.19.02.29,0-.1,0-.21,0-.31,0,0,0,.02,0,.02Z" fill="#09837e" stroke-width="0"/>
        <path d="M60.36,283.37h-.47c.12-4.45.44-9.28.96-14.31.01-.1.02-.19.03-.3-5.8-.27-12.41.61-17.78-.33-.04.49-.08.99-.13,1.5-.36,4.46-.65,9.04-1.11,13.53h18.5s0-.09,0-.09Z" fill="#005a3e" stroke-width="0"/>
        <path d="M60.36,273.3s.02.02.03.03h0s-.02-.02-.03-.03Z" fill="#09a09c" stroke-width="0"/>
        <path d="M42.98,269.94c.05-.51.09-1.01.13-1.5h0c-.04.5-.08,1-.12,1.5Z" fill="#09a09c" stroke-width="0"/>
        <path d="M67.26,274.81v.05s0-.02,0-.02c.05-.56.1-1.1.14-1.66-.06.55-.1,1.09-.15,1.63Z" fill="#2f2f30" stroke-width="0"/>
        <path d="M43.11,268.44c5.37.93,11.97.06,17.78.33,2.13-20.47,7.62-44.14,17.24-59.16.02-.09.1-.46.2-1.04-4.64.69-8.77,3.21-12.66,5.73-21.54,13.99-20.4,28.61-22.56,54.14Z" fill="#227154" stroke-width="0"/>
        <path d="M67.25,274.8v.05c0,.1,0,.19.02.29,0-.1-.01-.21-.01-.31.05-.56.1-1.11.15-1.66-.06.55-.11,1.08-.16,1.63ZM67.25,274.8c.06-.85.12-1.71.19-2.57-.11.92-.16,1.78-.19,2.57ZM83.28,239.44c.45-.6.91-1.19,1.37-1.78-.09.09-.17.19-.25.29-.09.12-.18.23-.27.35-.28.38-.57.76-.85,1.14Z" fill="#08c0c3" stroke-width="0"/>
        <path d="M113.09,208.1c.01.41,0,1.82,0,1.82l-.2.2c-.14.14-.34.35-.61.62-.07.06-.14.13-.21.21-.28.27-.61.6-.99.99-.08.08-.16.16-.24.24-.33.32-.68.67-1.07,1.06-.26.26-.52.52-.79.79-.47.46-.97.96-1.49,1.48-.23.22-.46.45-.69.68-1.2,1.18-2.47,2.43-3.69,3.62-.49.48-.98.95-1.45,1.41-1.11,1.08-2.15,2.08-3.02,2.89-.15.14-.29.27-.43.4-.27.26-.53.49-.76.7-.17.15-.32.29-.46.41-.09.08-.18.15-.26.22-.92.78-1.69,1.31-2.36,1.61-.27.2-.53.43-.79.65-.02.01-.03.02-.03.03-.03.02-.06.05-.09.06-.01.01-.02.03-.04.04,0,.01-.02.02-.03.03h-.01c-.06.06-.13.13-.2.18-.39.34-.79.69-1.16,1.03-.08.06-.14.12-.21.18-.03.03-.07.07-.1.1-.69.64-1.36,1.3-2,1.99-.22.22-.42.43-.62.65-.28.3-.55.59-.83.91,0,0-.36.41-.59.69-.45.51-.88,1.02-1.31,1.55-.11.12-.22.25-.32.38-.23.28-.46.56-.68.84-.23.28-.45.56-.68.85-.01.01-.02.02-.02.03s-.01.01-.01.02c-.46.59-.92,1.18-1.37,1.78-.48.63-.96,1.27-1.44,1.9h0c-.28.36-.57.76-.87,1.2-.01,0-.01.01-.02.01-1.9,2.73-4.3,7.09-6.52,11.54-.1.2-.19.4-.3.6-.62,1.26-1.22,2.52-1.8,3.75-.02.04-.04.08-.06.13-1.3,2.75-2.42,5.35-3.23,7.39-.14.44-.3.86-.48,1.27-.02.02-.02.04-.03.05-.11.31-.21.59-.29.85-.05.13-.09.25-.12.37-.07.22-.13.42-.18.6-.05.16-.09.31-.12.44,0,.03,0,.05,0,.08-.01.03-.01.06-.02.09-.03.19-.06.37-.09.56-.08.52-.15,1.03-.22,1.51-.02.15-.03.3-.04.45-.07.86-.13,1.72-.19,2.57.05-.55.1-1.08.16-1.63-.05.55-.1,1.1-.15,1.66,0,.1.01.21.01.31-.01-.1-.01-.19-.02-.29-.11,1.68-.19,3.37-.25,5.06v.03c-.02.37-.03.73-.05,1.09-.02.79-.04,1.56-.05,2.34h.08c3.32.05,24.9.05,46.38.04h.04v-52.5h-.04c-.19.01-.37-.01-.56-.03-.16,0-.32-.03-.48-.07-3.22-.55-5.66-3.35-5.66-6.73,0-3.74,2.99-6.77,6.7-6.83h.04v-9.15h-.31Z" fill="#227154" stroke-width="0"/>
        <path d="M113.42,217.25v.06h-.06v3.78c-1.59.06-2.87,1.37-2.87,2.99,0,1.48,1.08,2.71,2.49,2.95.01.01.02.01.03.01.11.03.24.06.35.07v3.8c-.19.01-.37-.01-.56-.03-.16,0-.32-.03-.48-.07-3.22-.55-5.66-3.35-5.66-6.73,0-3.74,2.99-6.77,6.7-6.83h.06Z" fill="#dbcee7" stroke-width="0"/>
        <path d="M67.26,274.81v.05s0-.02,0-.02c.05-.56.1-1.1.14-1.66-.06.55-.1,1.09-.15,1.63Z" fill="#08c0c3" stroke-width="0"/>
        <path d="M67.26,274.86c0,.1,0,.19.02.29,0-.1,0-.21,0-.31,0,0,0,.02,0,.02Z" fill="#08c0c3" stroke-width="0"/>
        <path d="M60.36,273.3s.02.02.03.03h0s-.02-.02-.03-.03Z" fill="#9a90c4" stroke-width="0"/>
        <path d="M83.28,239.44c.91-1.19,1.82-2.37,2.76-3.52-.46.56-.91,1.13-1.36,1.69-.19.23-.37.46-.55.69-.28.38-.57.76-.85,1.14Z" fill="#09a09c" stroke-width="0"/>
        <path d="M67.48,271.79c.06-.48.13-.99.22-1.51.03-.19.06-.37.1-.56,0-.06.02-.11.03-.18.11-.52.35-1.29.71-2.25,0-.02,0-.03.02-.05.14-.39.3-.81.48-1.27.81-2.04,1.93-4.64,3.23-7.39.02-.05.04-.09.06-.13.58-1.23,1.18-2.49,1.8-3.75.1-.19.2-.39.3-.6,2.22-4.45,4.62-8.81,6.52-11.54,0,0,0,0,.02-.02.31-.43.6-.84.88-1.18h0c.48-.64.96-1.28,1.43-1.92.28-.38.57-.76.85-1.14.18-.23.36-.47.55-.69.45-.56.9-1.14,1.36-1.69.1-.13.21-.26.32-.38.43-.52.86-1.04,1.3-1.55.26-.3.65-.75.59-.68.27-.31.56-.62.84-.92.2-.22.4-.43.62-.65.64-.68,1.3-1.34,2-1.99.03-.03.07-.06.1-.1.06-.06.13-.12.2-.18.38-.35.77-.69,1.17-1.03.06-.06.14-.12.2-.18h0s.02-.02.03-.03c.02-.02.02-.03.04-.04.02-.02.06-.04.08-.06,0,0,.02-.02.03-.03.27-.22.52-.44.8-.64-2.6,1.18-3.62-.99-6.01-4.16h0c-.28-.38-.57-.76-.89-1.14-.06-.09-.16-.2-.27-.35-.12-.15-.26-.33-.42-.54-.1-.14-.22-.29-.34-.45-.02-.03-.06-.07-.09-.11-.19-.24-.39-.5-.6-.79-.27-.35-.56-.72-.85-1.13-.16-.21-.32-.43-.49-.65-.31-.41-.61-.81-.93-1.23-.23-.31-.47-.62-.7-.94-.27-.35-.52-.69-.77-1.03-.02-.02-.04-.06-.06-.09-.39.85-.76,1.72-1.14,2.58-.19.43-.36.85-.55,1.27-.19.44-.37.88-.55,1.32-.05.11-.1.23-.14.35-.09.22-.18.43-.27.66-.22.54-.43,1.07-.64,1.61-.1.26-.2.51-.3.76-.1.23-.19.45-.27.68-.12.32-.24.64-.36.97-.06.17-.13.33-.19.5-.23.61-.45,1.22-.67,1.84-.28.77-.56,1.55-.81,2.33-.13.38-.25.75-.38,1.13-.19.55-.36,1.1-.54,1.65-.09.26-.17.51-.24.76-.1.3-.19.6-.28.9-.18.56-.35,1.1-.51,1.66-.16.56-.32,1.11-.48,1.67-.08.27-.15.54-.23.81-.07.27-.14.53-.23.81-.28,1.03-.56,2.08-.82,3.12-.21.82-.42,1.64-.61,2.47-.09.35-.17.71-.25,1.06-.1.36-.18.72-.25,1.09-.17.73-.33,1.47-.48,2.2-.13.58-.24,1.17-.35,1.75-.05.19-.09.39-.12.58-.09.48-.19.94-.27,1.41-.15.79-.3,1.57-.43,2.36-.13.74-.26,1.49-.38,2.24-.03.16-.06.31-.08.48v.06h0s0,.05,0,.07c0,.06-.02.13-.03.19-.1.64-.2,1.27-.29,1.91-.02.14-.05.3-.06.44-.04.27-.08.53-.12.81-.11.81-.22,1.61-.32,2.42h0c-.34,2.68-.61,5.35-.83,8.04Z" fill="#006347" stroke-width="0"/>
        <path d="M78.13,209.61s.02.02.02.03c.44.65,2.05,2.83,3.81,5.19.02.03.05.06.06.09.25.34.51.68.77,1.03.23.32.47.64.7.94.31.42.62.82.93,1.23.17.23.33.44.49.65.3.4.59.77.85,1.13.21.29.41.55.6.79.03.04.06.08.09.11.12.16.23.31.34.45.16.21.3.39.42.54.11.15.21.27.27.35.31.39.6.76.89,1.14h0c2.38,3.18,3.41,5.35,6.01,4.17.67-.31,1.43-.83,2.36-1.61,3.25-2.75,16.35-15.93,16.35-15.93,0,0,.02-1.4,0-1.82l-.13-.02c-5.69-3.09-25.29-16.44-29.47-18.48-3.61-.7-2.45,4.24-3.16,6.43-.32,3.2-1.51,9.94-2.01,12.53-.1.58-.18.95-.2,1.04Z" fill="#005a3e" stroke-width="0"/>
        <path d="M59.9,283.37h7.01c.02-.78.03-1.55.06-2.34.02-.36.02-.72.05-1.1v-.03c.06-1.68.14-3.37.25-5.06v-.05c.02-.79.08-1.65.19-2.57,0-.15.02-.31.04-.45.22-2.69.49-5.36.83-8.04h0c.1-.81.21-1.62.32-2.42.04-.27.08-.54.12-.81.02-.14.04-.3.06-.44.09-.64.19-1.27.29-1.91,0-.06.02-.13.03-.19,0-.02,0-.04,0-.06h0v-.04s0-.02,0-.02c.02-.16.05-.31.08-.48.11-.74.24-1.49.38-2.24.03-.24.08-.48.12-.72.02-.07.03-.15.04-.23.09-.48.18-.94.27-1.41.08-.47.18-.93.27-1.41.03-.19.07-.39.12-.58.11-.58.23-1.17.35-1.75.04-.21.08-.42.13-.63.06-.27.12-.54.18-.81.06-.25.11-.51.18-.76.07-.36.15-.72.25-1.09.02-.14.06-.27.09-.41.05-.22.1-.43.16-.65.19-.83.4-1.65.61-2.47.27-1.04.54-2.09.82-3.12.08-.27.15-.54.23-.81.08-.27.15-.55.23-.81.16-.56.32-1.12.48-1.67.16-.56.33-1.1.51-1.66.09-.3.19-.6.28-.9.07-.26.15-.51.24-.76.18-.55.35-1.1.54-1.65.13-.38.25-.75.38-1.13.26-.78.53-1.55.81-2.33.12-.35.24-.69.37-1.04.1-.27.19-.54.3-.81.06-.17.12-.33.19-.5.12-.32.24-.64.36-.97.08-.23.17-.46.27-.68.1-.26.19-.51.3-.76.2-.54.42-1.07.64-1.61.09-.23.18-.44.27-.66.05-.11.1-.23.14-.35.18-.44.36-.88.55-1.32l.31-.75c.07-.18.15-.35.23-.52.36-.86.75-1.72,1.14-2.58-1.76-2.37-3.37-4.54-3.81-5.19,0,0-.02-.02-.02-.03-9.62,15.03-15.11,38.69-17.24,59.16-.02.1-.02.2-.03.3-.52,5.02-.84,9.86-.96,14.31Z" fill="#323233" stroke-width="0"/>
        <path d="M67.26,274.81c.06-.85.12-1.72.19-2.57-.1.92-.16,1.78-.19,2.57Z" fill="#323233" stroke-width="0"/>
      </g>
      <g>
        <path d="M143.26,130.22c-.09-.04-.19-.1-.29-.16-.65-.34-1.28-.72-1.88-1.12-.01,0-.01-.01-.01-.01-.45-.29-.88-.6-1.33-.91-3.29-2.37-6.46-4.96-9.46-7.76-.36-.34-.72-.68-1.08-1.04-.46-.46-.92-.93-1.37-1.41-1.69-1.75-3.38-3.51-4.95-5.36-.19-.22-.38-.43-.55-.66-.28-.32-.54-.64-.79-.97-.17-.2-.33-.41-.49-.62-1-1.28-1.97-2.59-2.88-3.93-.35-.51-.7-1.02-1.04-1.54-1.16-1.77-2.24-3.59-3.24-5.46-.02-.02-.04-.06-.04-.09-.15-.26-.28-.51-.42-.77v7.85c-.01,18.87-.01,37.73-.01,56.61v.96h-.06s.04.01.04.01v1.74h.02s-.03,18.57-.03,18.57h0c.06.03.12.04.18.06.08.01.16.04.24.05l.14.02h0s.11.01.23-.02c.21-.04.41-.11.6-.17.69-.22,1.37-.47,2.05-.75.25-.09.5-.2.74-.31.25-.1.5-.22.75-.33.24-.11.49-.23.73-.35.57-.27,1.13-.56,1.69-.86.64-.34,1.26-.69,1.89-1.05.36-.21.71-.42,1.06-.64.35-.22.71-.43,1.05-.65.69-.44,1.38-.9,2.05-1.36,1.37-.93,2.69-1.91,4-2.91.13-.1.25-.19.39-.28,0-.01,0-.02.03-.02.13-.12.5-.5.8-.79.03-.02.07-.04.1-.08.1-.08.21-.16.31-.25.01.01.01.03.01.06,0,.07,0,.19.02.35.75-.73,1.45-1.51,2.11-2.29.15-.18.3-.35.44-.53.15-.17.29-.35.43-.53.31-.38.61-.77.91-1.17.47-.64.92-1.28,1.34-1.95.38-.57.73-1.16,1.06-1.76.01-.03.02-.05.04-.08.46-.83.91-1.68,1.31-2.56,0,0,.18-.42.29-.65h0s.01-.04.02-.06c.02-.04.06-.1.08-.19.02-.02.02-.04.03-.06h0c.05-.17.11-.31.17-.45.03-.09.07-.18.09-.27.03-.07.06-.13.08-.19v-.04s.05-.11.07-.16c.01-.05.03-.09.04-.12h.01v-.03h0s.01-.01.01-.01v-.03s.03-.06.04-.1c.01-.01.01-.04.02-.06,0,0,.01-.02.01-.03.01-.02.02-.03.03-.04v-.02s.01-.03.01-.05c.01-.03.02-.06.04-.1.03-.1.07-.22.12-.35.08-.22.17-.48.28-.76,0-.01,0-.02.01-.03.23-.65.5-1.43.77-2.21.07-.17.12-.35.19-.53.32-.95.62-1.82.8-2.38.03-.07.05-.14.07-.19.03-.11.05-.2.08-.26h0c.01-.07.03-.11.03-.13,0-.01.01-.02.01-.02-.13-4.69.04-9.39-.09-14.06h0c.02-.54.02-1.08.05-1.61-.01-.03,0-.07,0-.1.02-1.13.05-2.27.07-3.41,0-.07.01-.13,0-.19,0-1.07.01-2.15,0-3.23,0-.25.02-.5-.27-.66ZM131.81,139.84c-.17.3-.36.55-.57.75-.11.12-.22.21-.33.28-.23.18-.49.31-.76.4-.5.18-1.06.23-1.66.19-.51-.04-.95-.17-1.33-.39-.25-.14-.48-.32-.68-.54-.3-.32-.54-.72-.73-1.18-.25-.63-.34-1.28-.35-1.68,0-.16,0-.31.01-.47.01-.14.02-.29.04-.43.01-.14.03-.28.06-.4,0-.09.04-.18.06-.27.13-.53.35-.98.69-1.39.25-.31.53-.54.83-.72.19-.11.39-.2.61-.25.55-.18,1.16-.19,1.79-.09.52.08.97.25,1.34.51.12.08.23.17.34.27.09.08.18.17.26.27.28.34.49.74.64,1.21.41,1.32.46,2.67-.26,3.93ZM137.35,130.79c-.27.09-.53.1-.79.07-.09-.01-.17-.02-.25-.04-.17-.03-.34-.08-.5-.12-.42-.1-.84-.2-1.26-.3-.85-.18-1.7-.34-2.55-.46-.21-.03-.43-.06-.65-.09-.21-.03-.42-.05-.64-.07-1.68-.19-3.33-.11-4.94.16-.51.08-1.02.18-1.53.3-.51.13-1.02.26-1.52.41-.07.02-.13.04-.2.06-.11.02-.21.05-.31.09-.17.05-.34.1-.51.15-.33.11-.67.21-1,.31h-.02c.06-.05.11-.1.17-.15.05-.05.1-.1.16-.15.12-.1.24-.19.35-.28.03-.02.06-.05.1-.07.06-.04.13-.09.19-.13.1-.07.2-.14.31-.2.17-.1.34-.2.52-.29.19-.09.39-.19.6-.27.2-.08.41-.16.62-.24,3.85-1.33,7.67-1.24,11.5.12.37.13.73.25,1.1.38.18.07.37.13.55.2s.36.14.54.22c.02.01.05.02.08.04.03,0,.06.02.08.03.06.03.1.08.09.17,0,.2-.18.12-.29.15Z" fill="#f9c0a0" stroke-width="0"/>
        <path d="M156.25,137.87c-.3-.54-1.11-.03-1.92.47-.57.34-1.14.69-1.54.69-.69.28-1.43.38-2.13.53-.02.01-.03.03-.04.05-.03.08.02.17.04.26.02.07.02.13-.04.18-.1-.2-.2-.4-.32-.59-.03-.04-.06-.09-.08-.14-.06-.09-.11-.17-.17-.25-.01-.02-.03-.04-.04-.06-.07-.09-.14-.19-.22-.28-.08-.1-.17-.2-.27-.3-.14-.15-.29-.28-.45-.41-.13-.11-.27-.2-.42-.3-.01-.01-.02-.02-.04-.02-.02-.02-.04-.02-.06-.04-.01,0-.01-.01-.02-.01-.07-.05-.15-.09-.23-.13-.01,0-.03-.02-.04-.02-.33-.17-.67-.3-1.01-.39h-.01c-.34-.09-.68-.14-1.01-.14-.48,0-.95.1-1.36.32-.08.03-.14.07-.21.12-.15.09-.28.21-.41.34s-.24.27-.35.44c-.09.14-.18.29-.25.46-.1.22-.18.48-.24.76.02-.53.02-1.07.05-1.6-.01-.03,0-.07,0-.1.02-1.13.05-2.27.07-3.41,0-.07.01-.13,0-.19.02-1.08.02-2.15,0-3.23,0-.25.02-.5-.27-.66-.09-.04-.19-.1-.29-.16-.65-.34-1.28-.72-1.88-1.12-.01,0-.01-.01-.01-.01-.45-.29-.88-.6-1.33-.91-3.29-2.37-6.46-4.96-9.46-7.76-.36-.34-.72-.68-1.08-1.04-.46-.46-.92-.93-1.37-1.41-1.69-1.75-3.38-3.51-4.95-5.36-.19-.22-.38-.43-.55-.66-.27-.32-.54-.64-.79-.97-.17-.2-.33-.41-.49-.62-.98-1.29-1.95-2.59-2.88-3.93-.35-.51-.7-1.02-1.04-1.54-1.16-1.77-2.24-3.59-3.24-5.46-.02-.02-.04-.06-.04-.09-.15-.26-.28-.51-.42-.77-.01-.02-.03-.05-.04-.08-.01,0-.01,0-.01,0,0-.01,0-.03-.02-.04v-15.88h.04c16.52.43,33.16,10.26,37.54,27.29,3.17,9,3.6,18.79,5.3,28.18Z" fill="#38393a" stroke-width="0"/>
        <path d="M151.2,143.35c0,.21,0,.44-.02.66-.02.21-.04.43-.07.65-.03.23-.06.46-.1.68-.04.23-.09.45-.14.66,0,.04-.01.06-.01.09-.01.03-.02.06-.03.08-.03.12-.06.24-.1.35-.05.17-.12.34-.17.51-.07.23-.17.45-.28.66-.14.3-.29.59-.45.87-.12.19-.23.37-.36.54-.14.2-.27.38-.42.57-.09.11-.19.22-.29.34-.29.33-.6.66-.92.95-.15.14-.29.27-.44.39v.02s-.08.05-.11.08c-.02.02-.03.03-.05.05-.08.06-.15.12-.22.18-.13.1-.26.2-.39.3-.1.07-.19.14-.3.22-.14.11-.3.21-.45.31-.02.02-.05.03-.07.05-.21.14-.44.29-.65.42-.33.2-.65.38-.97.57h-.01c-.22-.05-.43-.07-.68-.07-.13-4.69.04-9.39-.09-14.06h0c.06-.29.14-.55.24-.77.07-.17.16-.32.25-.46.11-.17.22-.31.35-.44s.26-.25.41-.34c.07-.05.13-.09.21-.12.41-.22.88-.32,1.36-.32.33,0,.67.05,1.01.14h.01c.34.1.68.23,1.01.39,0,0,.03.02.04.02.08.04.16.08.23.13.01,0,.01.01.02.01.02.02.04.02.06.04.02,0,.03.02.04.03.15.09.29.19.42.29.16.13.31.27.45.41.1.1.19.2.27.3.08.09.15.19.22.28,0,.02.03.04.04.06.06.08.11.16.17.25.02.05.05.1.08.14.12.19.22.39.32.59.07.19.13.37.18.56.04.13.07.26.11.38.03.11.05.22.07.33.03.13.05.26.08.4.02.14.04.28.06.43.03.12.04.25.05.37v.05c.02.15.02.29.02.43,0,.11,0,.23,0,.35Z" fill="#f9c0a0" stroke-width="0"/>
        <path d="M147.54,162.56c-.06.06-.11.13-.17.18-.99,1.26-2.48,2.06-4.15,1.83-1-.12-2.06-.61-3.12-1.57,0,0,.18-.42.29-.65.05.28.28.53.48.79.62.8,1.39,1.17,2.43,1.05,1.48-.17,2.73-.74,3.74-1.86,1.48-1.63,1.59-4.04.22-5.76-.84-1.06-1.93-1.84-3-2.64-.08-.05-.14-.1-.22-.14-.04-.03-.09-.06-.13-.08-.05-.02-.09-.03-.13-.05-.11-.04-.21-.05-.32-.04.01-.06.03-.1.03-.12,0-.01.01-.02.01-.02.25,0,.46.02.68.07h.01c2.62.87,3.94,2.5,4.36,4.26.56,1.7.23,3.32-1.01,4.75Z" fill="#c0bbdc" stroke-width="0"/>
        <path d="M147.04,162.33c-1.01,1.12-2.26,1.69-3.74,1.86-1.04.12-1.81-.25-2.43-1.05-.2-.26-.43-.51-.48-.79h0s.01-.04.02-.06c.02-.04.06-.1.08-.19.02-.02.02-.04.03-.06h0c.05-.17.11-.31.17-.45.03-.09.07-.18.09-.27.03-.07.06-.13.08-.19s.04-.13.07-.2c.01-.05.03-.09.04-.12h.01v-.03h.01s.01-.02.01-.02v-.02s.02-.06.03-.1c.01-.02.02-.06.03-.09.01-.02.02-.03.03-.04v-.02s.01-.03.01-.05c.04-.12.1-.27.16-.45.08-.22.17-.48.28-.76,0-.01,0-.02.01-.03.23-.65.5-1.43.77-2.21.07-.17.12-.35.19-.53.32-.95.62-1.82.8-2.38.03-.07.05-.14.07-.19.03-.11.05-.2.08-.26h0c.11-.02.21-.01.32.03.04.02.08.03.13.05.04.02.09.05.13.08.08.04.14.09.22.14,1.07.8,2.16,1.58,3,2.64,1.37,1.72,1.26,4.13-.22,5.76Z" fill="#38393a" stroke-width="0"/>
        <path d="M137.64,130.64c0,.2-.18.12-.29.15-.27.09-.53.1-.79.07-.09-.01-.17-.02-.25-.04-.17-.03-.34-.08-.5-.12-.42-.1-.84-.2-1.26-.3-.85-.18-1.7-.34-2.55-.46-.43-.06-.86-.12-1.29-.16-1.68-.19-3.33-.11-4.94.16-.51.08-1.02.18-1.53.3-.51.13-1.02.26-1.52.41-.17.05-.35.09-.51.15-.17.05-.34.1-.51.15-.33.11-.67.21-1,.31.1-.11.2-.2.31-.3.12-.09.24-.18.35-.27.09-.07.19-.15.29-.21.1-.07.2-.14.31-.2.17-.1.34-.2.52-.29.19-.09.39-.19.6-.27.2-.08.41-.16.62-.23,3.84-1.33,7.67-1.24,11.49.12.37.13.74.25,1.11.37.18.07.37.13.55.2s.36.15.53.23c.06.02.13.03.17.06.06.03.1.08.09.17Z" fill="#38393a" stroke-width="0"/>
        <path d="M131.81,139.84c-.17.3-.36.55-.57.75-.11.12-.22.21-.33.28-.23.18-.49.31-.76.4-.5.18-1.06.23-1.66.19-.51-.04-.95-.17-1.33-.39-.25-.14-.48-.32-.68-.54-.3-.32-.54-.72-.73-1.18-.25-.63-.34-1.28-.35-1.68,0-.16,0-.31.01-.47.01-.14.02-.29.04-.43.01-.13.03-.27.06-.4,0-.09.04-.18.06-.27.13-.53.35-.98.69-1.39.25-.31.53-.54.83-.72.2-.1.4-.19.61-.25.55-.17,1.16-.18,1.79-.08.82.13,1.47.49,1.94,1.04.28.34.49.74.64,1.21.41,1.32.46,2.67-.26,3.93Z" fill="#1c1a18" stroke-width="0"/>
        <path d="M144.56,189.66l-1.37.77-10.76,6.1v-12.2c3.68,1.62,8.44,3.71,12.13,5.33Z" fill="#227154" stroke-width="0"/>
        <path d="M167.44,220.88c-.91-.38-10.01-3.53-15.47-5.45-2.1-.75-3.67-1.31-4.02-1.45-.36-.53-.72-1.18-1.07-1.94-2.64-5.69-4.82-16.98-4.3-21.26.01-.13.03-.24.05-.35l1.37-.77c-.09-.04-.18-.08-.27-.12-3.46-1.52-7.8-3.43-11.3-4.97-.19-.09-.38-.17-.56-.25v-.24c.01-1.95.1-8.83.01-9.56,0-.03,0-.04-.01-.05h0c.2-.2.38-.38.56-.57.01,0,.02-.02.03-.03.75-.73,1.45-1.51,2.11-2.29.15-.18.3-.35.44-.53.15-.17.29-.35.43-.53.31-.38.61-.77.91-1.17.47-.64.92-1.28,1.34-1.95.38-.57.73-1.16,1.06-1.76.01-.03.02-.05.04-.08.46-.83.91-1.68,1.31-2.56,1.06.96,2.12,1.45,3.12,1.57,1.67.23,3.16-.57,4.15-1.83.06-.05.11-.12.17-.18,1.24-1.43,1.57-3.05,1.01-4.75-.42-1.76-1.74-3.39-4.36-4.26.32-.19.64-.37.97-.57.21-.13.44-.28.65-.42.02-.02.05-.03.07-.05.15-.1.31-.2.45-.31.11-.08.2-.15.3-.22.13-.1.26-.2.39-.3.06-.05.12-.1.18-.14.01-.02.03-.03.04-.04.02-.02.03-.03.05-.05.03-.03.06-.05.1-.08v-.02c.16-.12.3-.25.45-.39.32-.29.63-.62.92-.95.1-.12.2-.23.29-.34.16-.19.29-.37.42-.57.13-.17.24-.35.36-.54.16-.28.31-.57.45-.87.11-.21.21-.43.28-.66.05-.17.12-.34.17-.51.04-.11.07-.23.1-.35.01-.02.02-.05.03-.08,0-.03.01-.05.01-.09.17-.65.28-1.32.31-1.99.02-.22.02-.45.02-.66,0-.12,0-.24,0-.35,0-.14,0-.28-.02-.43v-.05c-.01-.12-.02-.25-.05-.37-.02-.15-.04-.29-.06-.43-.03-.14-.05-.27-.08-.4-.02-.11-.04-.22-.07-.33-.04-.12-.07-.25-.11-.38-.05-.19-.11-.37-.18-.56.06-.05.06-.11.04-.18-.03-.09-.08-.19-.04-.26.01-.02.02-.04.04-.05.7-.14,1.44-.25,2.13-.52.4,0,.97-.35,1.54-.7.81-.5,1.62-1.01,1.92-.47.02.09,9.28,67.95,10.94,80.89.17,1.36.26,2.12.25,2.12Z" fill="#38393a" stroke-width="0"/>
        <path d="M113.4,221.09v-3.78h-.04v3.83s.03,0,.04.01c1.48.18,2.62,1.43,2.62,2.97,0,1.4-.95,2.57-2.24,2.91,1.41-.24,2.49-1.47,2.49-2.95,0-1.62-1.28-2.93-2.87-2.99ZM113.4,230.91v-3.8h-.04v3.83h.04c.19,0,.37-.02.56-.06-.19.02-.37.04-.56.03Z" fill="#fff" stroke-width="0"/>
        <path d="M120.1,224.08c0,3.38-2.44,6.18-5.66,6.73-.16.04-.32.06-.48.07-.19.02-.37.04-.56.03v-3.8c.11-.01.24-.04.35-.07.01,0,.02,0,.03-.01,1.41-.24,2.49-1.47,2.49-2.95,0-1.62-1.28-2.93-2.87-2.99v-3.78h.02v-.06c3.7.07,6.68,3.1,6.68,6.83Z" fill="#fbfbfb" stroke-width="0"/>
        <path d="M132.43,183.08v27.04h-19.06v-25.96h.03c.06.02.12.03.18.05.08.01.16.04.24.05l.14.02h0s.11.01.23-.02c.21-.04.41-.11.6-.17.69-.22,1.37-.47,2.05-.75.25-.09.5-.2.74-.31.25-.1.5-.22.75-.33.24-.11.49-.23.73-.35.57-.27,1.13-.56,1.69-.86.64-.34,1.26-.69,1.89-1.05.36-.21.71-.42,1.06-.64.35-.22.71-.43,1.05-.65.69-.44,1.38-.9,2.05-1.36,1.37-.93,2.69-1.91,4-2.91.13-.1.25-.19.39-.28,0-.01,0-.02.03-.02.13-.12.5-.5.8-.79.03-.02.07-.04.1-.08.1-.08.21-.16.31-.25.01.01.01.03.01.06,0,.07,0,.19.02.35.06,1.61-.01,7.44-.03,9.21Z" fill="#eda489" stroke-width="0"/>
        <g>
          <path d="M116.27,224.08c0,1.48-1.08,2.71-2.49,2.95-.01.01-.02.01-.03.01-.12.02-.23.03-.35.03h-.04v-5.98h.04c1.59.06,2.87,1.37,2.87,2.99Z" fill="#25a384" stroke-width="0"/>
          <path d="M159.51,274.86c0,.1,0,.19-.02.29,0-.1,0-.21,0-.31,0,0,0,.02,0,.02Z" fill="#09837e" stroke-width="0"/>
          <path d="M166.41,283.46h18.5c-.46-4.49-.75-9.07-1.11-13.53-.05-.51-.09-1.01-.13-1.5-5.37.94-11.98.06-17.78.33.01.11.02.2.03.3.52,5.03.84,9.86.96,14.31h-.47v.09Z" fill="#006347" stroke-width="0"/>
          <path d="M166.41,273.3s-.02.02-.03.03h0s.02-.02.03-.03Z" fill="#09a09c" stroke-width="0"/>
          <path d="M183.79,269.94c-.05-.51-.09-1.01-.13-1.5h0c.04.5.08,1,.12,1.5Z" fill="#09a09c" stroke-width="0"/>
          <path d="M159.51,274.81v.05s0-.02,0-.02c-.05-.56-.1-1.1-.14-1.66.06.55.1,1.09.15,1.63Z" fill="#2f2f30" stroke-width="0"/>
          <path d="M183.66,268.44c-5.37.93-11.97.06-17.78.33-2.13-20.47-7.62-44.14-17.24-59.16-.02-.09-.1-.46-.2-1.04,4.64.69,8.77,3.21,12.66,5.73,21.54,13.99,20.4,28.61,22.56,54.14Z" fill="#25a384" stroke-width="0"/>
          <path d="M159.36,273.17c.05.55.1,1.1.15,1.66,0,.1-.01.21-.01.31.01-.1.01-.19.02-.29v-.05c-.05-.55-.1-1.08-.16-1.63ZM159.33,272.23c.07.86.13,1.72.19,2.57-.03-.79-.08-1.65-.19-2.57ZM142.64,238.3c-.09-.12-.18-.23-.27-.35-.08-.1-.16-.2-.25-.29.46.59.92,1.18,1.37,1.78-.28-.38-.57-.76-.85-1.14Z" fill="#08c0c3" stroke-width="0"/>
          <path d="M159.84,282.2c-.01-.38-.02-.78-.03-1.17-.02-.36-.02-.72-.05-1.09v-.03c-.06-1.69-.14-3.38-.25-5.06-.01.05-.01.1-.01.15s0,.09,0,.14c0-.1,0-.21,0-.31-.03-.38-.07-.76-.1-1.14.02.1.03.2.03.29.03.28.06.54.08.82-.06-.85-.12-1.71-.19-2.57,0-.15-.02-.3-.04-.45-.07-.48-.14-.99-.22-1.51-.03-.19-.06-.37-.09-.56-.01-.05-.02-.11-.03-.17-.07-.33-.19-.75-.36-1.26-.07-.2-.14-.42-.22-.65-.04-.11-.09-.23-.13-.35,0,0-.01-.01-.01-.02-.01-.01-.01-.02-.02-.03-.18-.41-.34-.83-.48-1.27-.2-.51-.42-1.06-.66-1.63-.72-1.72-1.59-3.7-2.57-5.76-.02-.05-.04-.09-.06-.13-.29-.62-.58-1.24-.88-1.86-.3-.63-.61-1.26-.92-1.89-.1-.2-.2-.4-.3-.6-.42-.84-.84-1.67-1.26-2.49-.28-.54-.57-1.08-.85-1.61-.28-.53-.57-1.05-.85-1.56-1.26-2.29-2.49-4.34-3.56-5.88,0,0,0-.01-.01-.01h-.01c-.15-.22-.3-.43-.44-.63-.15-.2-.29-.39-.43-.56h0c-.48-.64-.96-1.28-1.44-1.91-.42-.56-.85-1.12-1.28-1.67-.03-.04-.06-.07-.09-.11,0-.01-.01-.01-.01-.02-.45-.58-.91-1.15-1.38-1.72-.1-.13-.21-.26-.32-.38-.43-.53-.86-1.04-1.31-1.55-.03-.03-.05-.06-.08-.1-.03-.03-.06-.07-.09-.11l-.09-.09c-.05-.07-.11-.13-.16-.19-.03-.03-.05-.06-.07-.08-.04-.05-.07-.09-.09-.11-.27-.32-.56-.62-.84-.92-.2-.22-.4-.43-.62-.65-.32-.34-.65-.68-.98-1.01-.33-.34-.67-.66-1.01-.98-.04-.03-.08-.07-.11-.1-.06-.06-.13-.12-.2-.18-.38-.34-.77-.69-1.17-1.03-.06-.05-.13-.12-.2-.17h0s-.02-.03-.03-.04c-.02-.01-.02-.03-.04-.04-.02,0-.06-.04-.08-.06-.01,0-.02-.02-.03-.03-.27-.22-.53-.45-.8-.65-.67-.3-1.43-.83-2.36-1.61-.08-.07-.17-.14-.26-.22-.14-.12-.29-.26-.46-.41-.23-.21-.48-.44-.76-.7-.14-.13-.28-.26-.43-.4-.22-.2-.45-.42-.68-.64-.04-.05-.08-.08-.12-.12-.38-.35-.79-.74-1.21-1.16-1.33-1.28-2.83-2.74-4.31-4.19-.62-.61-1.24-1.22-1.84-1.81-.23-.23-.45-.45-.68-.68t-.01,0c-.26-.26-.52-.51-.76-.76-.13-.14-.25-.26-.37-.37-.13-.12-.25-.24-.36-.35l-1.35-1.35c-.18-.17-.34-.34-.51-.5-.08-.08-.16-.16-.24-.24-.19-.2-.37-.38-.53-.54-.08-.09-.16-.17-.24-.24s-.15-.14-.22-.21c-.07-.08-.14-.15-.21-.21-.07-.07-.13-.14-.19-.2l-.42-.42s-.06-.06-.09-.09c-.03-.04-.05-.06-.06-.06l-.04-.04h-.01v-1.83h-.31v9.15h.06c3.7.07,6.68,3.1,6.68,6.83,0,3.38-2.44,6.18-5.66,6.73-.16.04-.32.06-.48.07-.19.02-.37.04-.56.03h-.04v52.5h.04c21.48.01,43.06.01,46.38-.04h.08c-.01-.39-.01-.78-.02-1.17Z" fill="#25a384" stroke-width="0"/>
          <path d="M159.51,274.81v.05s0-.02,0-.02c-.05-.56-.1-1.1-.14-1.66.06.55.1,1.09.15,1.63Z" fill="#08c0c3" stroke-width="0"/>
          <path d="M159.51,274.86c0,.1,0,.19-.02.29,0-.1,0-.21,0-.31,0,0,0,.02,0,.02Z" fill="#08c0c3" stroke-width="0"/>
          <path d="M166.41,273.3s-.02.02-.03.03h0s.02-.02.03-.03Z" fill="#9a90c4" stroke-width="0"/>
          <path d="M143.49,239.44c-.91-1.19-1.82-2.37-2.76-3.52.46.56.91,1.13,1.36,1.69.19.23.37.46.55.69.28.38.57.76.85,1.14Z" fill="#09a09c" stroke-width="0"/>
          <path d="M159.29,271.79c-.06-.48-.13-.99-.22-1.51-.03-.19-.06-.37-.1-.56,0-.06-.02-.11-.03-.18-.11-.52-.35-1.29-.71-2.25,0-.02,0-.03-.02-.05-.14-.39-.3-.81-.48-1.27-.81-2.04-1.93-4.64-3.23-7.39-.02-.05-.04-.09-.06-.13-.58-1.23-1.18-2.49-1.8-3.75-.1-.19-.2-.39-.3-.6-2.22-4.45-4.62-8.81-6.52-11.54,0,0,0,0-.02-.02-.31-.43-.6-.84-.88-1.18h0c-.48-.64-.96-1.28-1.43-1.92-.28-.38-.57-.76-.85-1.14-.18-.23-.36-.47-.55-.69-.45-.56-.9-1.14-1.36-1.69-.1-.13-.21-.26-.32-.38-.43-.52-.86-1.04-1.3-1.55-.26-.3-.65-.75-.59-.68-.27-.31-.56-.62-.84-.92-.2-.22-.4-.43-.62-.65-.64-.68-1.3-1.34-2-1.99-.03-.03-.07-.06-.1-.1-.06-.06-.13-.12-.2-.18-.38-.35-.77-.69-1.17-1.03-.06-.06-.14-.12-.2-.18h0s-.02-.02-.03-.03c-.02-.02-.02-.03-.04-.04-.02-.02-.06-.04-.08-.06,0,0-.02-.02-.03-.03-.27-.22-.52-.44-.8-.64,2.6,1.18,3.62-.99,6.01-4.16h0c.28-.38.57-.76.89-1.14.06-.09.16-.2.27-.35.12-.15.26-.33.42-.54.1-.14.22-.29.34-.45.02-.03.06-.07.09-.11.19-.24.39-.5.6-.79.27-.35.56-.72.85-1.13.16-.21.32-.43.49-.65.31-.41.61-.81.93-1.23.23-.31.47-.62.7-.94.27-.35.52-.69.77-1.03.02-.02.04-.06.06-.09.39.85.76,1.72,1.14,2.58.19.43.36.85.55,1.27.19.44.37.88.55,1.32.05.11.1.23.14.35.09.22.18.43.27.66.22.54.43,1.07.64,1.61.1.26.2.51.3.76.1.23.19.45.27.68.12.32.24.64.36.97.06.17.13.33.19.5.23.61.45,1.22.67,1.84.28.77.56,1.55.81,2.33.13.38.25.75.38,1.13.19.55.36,1.1.54,1.65.09.26.17.51.24.76.1.3.19.6.28.9.18.56.35,1.1.51,1.66.16.56.32,1.11.48,1.67.08.27.15.54.23.81.07.27.14.53.23.81.28,1.03.56,2.08.82,3.12.21.82.42,1.64.61,2.47.09.35.17.71.25,1.06.1.36.18.72.25,1.09.17.73.33,1.47.48,2.2.13.58.24,1.17.35,1.75.05.19.09.39.12.58.09.48.19.94.27,1.41.15.79.3,1.57.43,2.36.13.74.26,1.49.38,2.24.03.16.06.31.08.48v.06h0s0,.05,0,.07c0,.06.02.13.03.19.1.64.2,1.27.29,1.91.02.14.05.3.06.44.04.27.08.53.12.81.11.81.22,1.61.32,2.42h0c.34,2.68.61,5.35.83,8.04Z" fill="#227154" stroke-width="0"/>
          <path d="M148.64,209.61s-.02.02-.02.03c-.44.65-2.05,2.83-3.81,5.19-.02.03-.05.06-.06.09-.25.34-.51.68-.77,1.03-.23.32-.47.64-.7.94-.31.42-.62.82-.93,1.23-.17.23-.33.44-.49.65-.3.4-.59.77-.85,1.13-.21.29-.41.55-.6.79-.03.04-.06.08-.09.11-.12.16-.23.31-.34.45-.16.21-.3.39-.42.54-.11.15-.21.27-.27.35-.31.39-.6.76-.89,1.14h0c-2.38,3.18-3.41,5.35-6.01,4.17-.67-.31-1.43-.83-2.36-1.61-3.25-2.75-16.35-15.93-16.35-15.93,0,0-.02-1.4,0-1.82l.13-.02c5.69-3.09,25.29-16.44,29.47-18.48,3.61-.7,2.45,4.24,3.16,6.43.32,3.2,1.51,9.94,2.01,12.53.1.58.18.95.2,1.04Z" fill="#30935f" stroke-width="0"/>
          <path d="M166.87,283.37h-7.01c-.02-.78-.03-1.55-.06-2.34-.02-.36-.02-.72-.05-1.1v-.03c-.06-1.68-.14-3.37-.25-5.06v-.05c-.02-.79-.08-1.65-.19-2.57,0-.15-.02-.31-.04-.45-.22-2.69-.49-5.36-.83-8.04h0c-.1-.81-.21-1.62-.32-2.42-.04-.27-.08-.54-.12-.81-.02-.14-.04-.3-.06-.44-.09-.64-.19-1.27-.29-1.91,0-.06-.02-.13-.03-.19,0-.02,0-.04,0-.06h0v-.06c-.02-.16-.05-.31-.08-.48-.11-.74-.24-1.49-.38-2.24-.03-.24-.08-.48-.12-.72-.02-.07-.03-.15-.04-.23-.09-.48-.18-.94-.27-1.41-.08-.47-.18-.93-.27-1.41-.03-.19-.07-.39-.12-.58-.11-.58-.23-1.17-.35-1.75-.04-.21-.08-.42-.13-.63-.06-.27-.12-.54-.18-.81-.06-.25-.11-.51-.18-.76-.07-.36-.15-.72-.25-1.09-.02-.14-.06-.27-.09-.41-.05-.22-.1-.43-.16-.65-.19-.83-.4-1.65-.61-2.47-.27-1.04-.54-2.09-.82-3.12-.08-.27-.15-.54-.23-.81-.08-.27-.15-.55-.23-.81-.16-.56-.32-1.12-.48-1.67-.16-.56-.33-1.1-.51-1.66-.09-.3-.19-.6-.28-.9-.07-.26-.15-.51-.24-.76-.18-.55-.35-1.1-.54-1.65-.13-.38-.25-.75-.38-1.13-.26-.78-.53-1.55-.81-2.33-.12-.35-.24-.69-.37-1.04-.1-.27-.19-.54-.3-.81-.06-.17-.12-.33-.19-.5-.12-.32-.24-.64-.36-.97-.08-.23-.17-.46-.27-.68-.1-.26-.19-.51-.3-.76-.2-.54-.42-1.07-.64-1.61-.09-.23-.18-.44-.27-.66-.05-.11-.1-.23-.14-.35-.18-.44-.36-.88-.55-1.32l-.31-.75c-.07-.18-.15-.35-.23-.52-.36-.86-.75-1.72-1.14-2.58,1.76-2.37,3.37-4.54,3.81-5.19,0,0,.02-.02.02-.03,9.62,15.03,15.11,38.69,17.24,59.16.02.1.02.2.03.3.52,5.02.84,9.86.96,14.31Z" fill="#323233" stroke-width="0"/>
          <path d="M159.51,274.81c-.06-.85-.12-1.72-.19-2.57.1.92.16,1.78.19,2.57Z" fill="#323233" stroke-width="0"/>
        </g>
      </g>
    </g>
    <path class="sorriso" id="sorrico" d="M123.99,162c-2.48,2.35-6.75,3.53-11,3.54h-.04c-4.25-.01-8.52-1.19-11-3.54,3.55,1.34,7.26,1.86,11,1.79h.04c3.74.07,7.45-.45,11-1.79Z" fill="#c97c43" stroke-width="0"/>
  </g>
</svg>