<?xml version="1.0" encoding="UTF-8"?>
<svg id="Layer_4" data-name="Layer 4" xmlns="http://www.w3.org/2000/svg" viewBox="0 0 226.77 283.46">
  <def>
    <style>
      .gocciaAnimation{
        transition: all ;
        animation: gocciaAnimation 1.5s ease-out 1;
      }
      @keyframes gocciaAnimation {
        0%{
          opacity:1;
          transform: translateY(0%);
        }
        100%{
          opacity:0;
          transform: translateY(5%);
        }
      }
      .sorriso{
        transform: scaleX(0);
        transform-origin: center center !important ;
        animation: sorriso 1.5s ease-out 1 0s forwards;
      }
      @keyframes sorriso {
        0%{
          transform: scaleX(0);
        }
        100%{ 
         
          transform: scaleX(1);
        }
      }
    </style>
  </def>
  <rect id="sfondo" x="-28.35" y="28.35" width="283.46" height="226.77" transform="translate(-28.35 255.12) rotate(-90)" fill="#c57716" stroke-width="0"/>
  <g id="corpo">
    <g id="francesco">
      <path d="M113.41,190.62v46.09c-13.52,14.92-29.53,26.88-43.32,31.59v13.09h9.35c10.06-4.35,22.26-12.09,33.97-22.46v5.71c-1.55,0-2.79,1.48-2.79,3.29s1.23,3.27,2.77,3.28l.03,12.25H36.55c3.48-69.37,25.37-93.37,55.54-101.11" fill="#3916a8" stroke-width="0"/>
      <g>
        <path d="M134.3,121.81c0,2.37-1.62,4.29-3.62,4.29s-3.63-1.92-3.63-4.29h7.25Z" fill="#675fbe" stroke-width="0"/>
        <polygon points="142.46 83.81 140.95 87.57 113.4 87.57 113.4 83.81 142.46 83.81" fill="#fed15c" stroke-width="0"/>
        <path d="M117.36,71.29c0,.32,0,.64-.04.95,0,0,0,0,0,.02-.25,3.59-1.91,6.37-3.92,6.37v-14.68c2.07,0,3.77,2.95,3.94,6.71,0,.21.02.42.02.63Z" fill="#fed15c" stroke-width="0"/>
        <path d="M146.63,118.46v-8.73c0-8.18-2.11-15.78-5.72-22.08-.02-.03-.03-.05-.05-.08h-27.46v84.38h4.08c.19-.45.52-.81.92-1l.13-.06.09-.05h.01c2.56-.42,5.04-1.15,7.37-2.16,3.19-1.35,6.11-3.21,8.7-5.47,7.02-6.12,11.58-15.2,11.91-25.4h.02c4.03-.65,7.13-4.73,7.13-9.67s-3.1-9.03-7.13-9.68ZM117.35,116.15v-7.57h24.66v7.57h-24.66ZM144.17,122.43c0,.32-.02.63-.05.93-.36,4.04-3.09,7.24-6.51,7.62-.17.03-.35.03-.53.04-.06,0-.12,0-.18,0h-17.73v-9.21h25v.62Z" fill="#fac1a7" stroke-width="0"/>
        <path d="M148.52,74.02c0,1.87-.58,3.69-1.66,5.4l-4.4,4.39h-29.06v-5.19c2.01,0,3.67-2.78,3.92-6.37,0,0,0-.02,0-.02.03-.31.04-.63.04-.95,0-.21,0-.42-.02-.63-.17-3.77-1.88-6.71-3.94-6.71v-7.74c19.41.06,35.12,8.02,35.12,17.82Z" fill="#003b9f" stroke-width="0"/>
        <path d="M117.3,190.58c3.2-.14,6.16-.54,8.7-1.14,3.62-.84,6.38-2.08,7.75-3.53.62-.66.95-1.36.95-2.08v-20.62c-2.59,2.26-5.51,4.12-8.7,5.47-2.33,1.01-4.81,1.74-7.37,2.16h0l-.09.05-.13.06c-.4.19-.73.55-.92,1-.11.28-.18.59-.18.93v17.7Z" fill="#7a1000" stroke-width="0"/>
        <path d="M113.4,190.62h.02c.4.02.81.02,1.23.02.89,0,1.79-.02,2.65-.06v-17.7c0-.34.07-.65.18-.93h-4.08v18.67Z" fill="#f4a48b" stroke-width="0"/>
        <path d="M154.19,190.31c-.02.11-.04.21-.06.32-.81,4.11-1.86,8.09-3.09,11.96-.03-.03-.06-.07-.1-.1.03.05.05.09.08.14v.02c-7.49,23.45-22.09,42.44-37.59,56.25l-.03.03v-22.87l.02-.02c2.66-2.95,5.23-6.02,7.66-9.16.41-.52.81-1.05,1.21-1.57.51-.68,1.02-1.36,1.52-2.04.66-.92,1.32-1.83,1.96-2.76,2.28-3.27,4.4-6.59,6.32-9.93.91-1.6,1.79-3.2,2.61-4.79.28-.55.56-1.1.83-1.65.27-.55.54-1.1.8-1.65s.52-1.09.76-1.64c.49-1.1.96-2.19,1.4-3.28.22-.55.44-1.09.64-1.63.21-.54.41-1.09.61-1.63.97-2.7,1.77-5.37,2.36-7.99.09-.39.18-.78.25-1.17.04-.13.06-.26.09-.39.02-.1.04-.2.06-.3,4.38,1.76,8.24,3.65,11.69,5.85Z" fill="#fbfbfb" stroke-width="0"/>
        <path d="M142.5,184.46c-.02.1-.04.2-.06.3-.03.13-.05.26-.09.39-.07.39-.16.78-.25,1.17-.59,2.62-1.39,5.29-2.36,7.99-.2.54-.4,1.09-.61,1.63-.2.54-.42,1.08-.64,1.63-.44,1.09-.9,2.18-1.4,3.28-.24.55-.5,1.09-.76,1.64s-.53,1.1-.8,1.65c-.27.55-.55,1.1-.83,1.65-.82,1.6-1.69,3.19-2.61,4.79-1.92,3.34-4.04,6.66-6.32,9.93-.64.93-1.3,1.84-1.96,2.76-.5.68-1.01,1.36-1.52,2.04-.4.52-.8,1.05-1.21,1.57-2.43,3.14-5,6.21-7.66,9.16l-.02.02v-5.94h.02c.66-.01,1.27-.28,1.74-.75.16-.15.3-.32.42-.5.13-.19.23-.39.32-.6h0c.17-.44.27-.92.27-1.43s-.1-.99-.27-1.43c-.08-.22-.19-.42-.32-.6-.12-.19-.26-.36-.42-.51-.47-.47-1.08-.74-1.74-.75h-.02v-5.9h.01c.67,0,1.27-.28,1.75-.76.16-.15.3-.32.42-.5.13-.19.23-.39.32-.6h0c.17-.44.27-.92.27-1.43s-.1-.99-.27-1.42h0c-.09-.22-.19-.42-.32-.61-.12-.18-.26-.35-.42-.5-.48-.47-1.08-.75-1.75-.75h-.01v-5.9h.01c.67,0,1.27-.28,1.75-.75.16-.15.3-.32.42-.5.13-.19.23-.39.32-.6h0c.17-.44.27-.92.27-1.43s-.1-.99-.27-1.43c-.08-.22-.19-.42-.32-.6-.12-.19-.26-.36-.42-.51-.48-.47-1.08-.75-1.75-.75h-.01v-7.99h.02c.4.02.81.02,1.23.02.89,0,1.79-.02,2.65-.06,3.2-.14,6.16-.54,8.7-1.14,3.62-.84,6.38-2.08,7.75-3.53.62-.66.95-1.36.95-2.08v-2.19c2.77.91,5.37,1.85,7.8,2.82Z" fill="#003b9f" stroke-width="0"/>
        <path d="M116.18,201.9c0,1.02-.4,1.94-1.02,2.53-.48.47-1.08.75-1.75.75h-.01v-6.57h.01c.67,0,1.27.28,1.75.75.62.59,1.02,1.51,1.02,2.54Z" fill="#fed15c" stroke-width="0"/>
        <path d="M116.18,214.36c0,1.02-.4,1.94-1.02,2.53-.48.48-1.08.76-1.75.76h-.01v-6.57h.01c.67,0,1.27.28,1.75.75.62.59,1.02,1.51,1.02,2.53Z" fill="#fed15c" stroke-width="0"/>
        <path d="M116.18,226.84c0,1.02-.4,1.94-1.02,2.53-.47.47-1.08.74-1.74.75h-.02v-6.57h.02c.66.01,1.27.28,1.74.75.62.59,1.02,1.51,1.02,2.54Z" fill="#fed15c" stroke-width="0"/>
        <path d="M116.17,267.93c0,1.79-1.22,3.25-2.74,3.28h-.04v-6.57h.03c1.53.02,2.75,1.49,2.75,3.29Z" fill="#fed15c" stroke-width="0"/>
        <rect x="117.35" y="108.58" width="24.66" height="7.57" fill="#7d5448" stroke-width="0"/>
        <path d="M144.17,121.81v.62c0,.32-.02.63-.05.94-.36,4.03-3.09,7.23-6.51,7.62-.23.04-.47.05-.71.05h-17.73v-9.22h7.89c0,2.37,1.62,4.29,3.63,4.29s3.62-1.92,3.62-4.29h9.86Z" fill="#ebebeb" stroke-width="0"/>
        <polygon points="140.95 87.57 140.91 87.65 136.59 98.36 113.4 98.36 113.4 87.57 140.95 87.57" fill="#2e2a27" stroke-width="0"/>
      </g>
      <g>
        <path d="M113.39,198.61v6.57c-1.54,0-2.78-1.47-2.78-3.28s1.24-3.29,2.78-3.29Z" fill="#fdb043" stroke-width="0"/>
        <path d="M113.39,211.08v6.57c-1.54,0-2.78-1.48-2.78-3.29s1.24-3.28,2.78-3.28Z" fill="#fdb043" stroke-width="0"/>
        <path d="M113.39,223.55v6.57c-1.54,0-2.78-1.47-2.78-3.28s1.24-3.29,2.78-3.29Z" fill="#fdb043" stroke-width="0"/>
        <path d="M92.48,121.81c0,2.37,1.62,4.29,3.62,4.29s3.63-1.92,3.63-4.29h-7.25Z" fill="#5345b8" stroke-width="0"/>
        <path d="M113.39,78.63c-2.01,0-3.67-2.78-3.92-6.37,0,0,0-.02,0-.02-.03-.31-.04-.63-.04-.95,0-.21,0-.42.02-.63.17-3.77,1.88-6.71,3.94-6.71v14.68Z" fill="#fdb043" stroke-width="0"/>
        <path d="M85.92,87.57s-.03.05-.04.08c-3.61,6.3-5.73,13.9-5.73,22.08v8.73c-4.03.65-7.12,4.74-7.12,9.68s3.09,9.02,7.12,9.67h.02c.34,10.2,4.89,19.28,11.91,25.4,2.59,2.26,5.52,4.12,8.7,5.47,2.34,1.01,4.81,1.74,7.38,2.16h.01l.08.05.14.06c.39.19.72.55.91,1h4.08v-84.38h-27.46ZM107.61,131.02h-17.73c-.06,0-.11,0-.17,0-.17,0-.34,0-.5-.04h-.03c-1.5-.17-2.86-.87-3.95-1.96-.31-.3-.61-.64-.87-1.01-.92-1.28-1.53-2.88-1.69-4.65-.03-.3-.05-.61-.05-.93v-.62h24.99v9.21ZM84.77,116.15v-7.57h24.66v7.57h-24.66Z" fill="#f4b59d" stroke-width="0"/>
        <path d="M109.44,70.67c0,.21-.02.42-.02.63,0,.32,0,.64.04.95,0,0,0,0,0,.02.25,3.59,1.91,6.37,3.92,6.37v5.19h-29.06l-4.4-4.39c-1.08-1.71-1.66-3.53-1.66-5.4,0-9.8,15.7-17.75,35.12-17.82v7.74c-2.07,0-3.77,2.95-3.94,6.71Z" fill="#3916a8" stroke-width="0"/>
        <polygon points="113.39 83.81 113.39 87.57 85.84 87.57 84.33 83.81 113.39 83.81" fill="#fdb043" stroke-width="0"/>
        <path d="M109.48,172.88v17.7c-3.2-.14-6.16-.54-8.7-1.14-3.62-.84-6.38-2.08-7.75-3.53-.62-.66-.95-1.36-.95-2.08v-20.62c2.59,2.26,5.52,4.12,8.7,5.47,2.34,1.01,4.81,1.74,7.38,2.16h.01l.08.05.14.06c.39.19.72.55.91,1,.12.28.18.59.18.93Z" fill="#4b1000" stroke-width="0"/>
        <path d="M113.38,171.95v18.67c-.4.02-.82.02-1.24.02-.9,0-1.79-.02-2.66-.06v-17.7c0-.34-.06-.65-.18-.93h4.08Z" fill="#d6988b" stroke-width="0"/>
        <path d="M113.39,264.64v6.57h-.01c-1.54-.01-2.77-1.47-2.77-3.28s1.24-3.29,2.78-3.29Z" fill="#fdb043" stroke-width="0"/>
        <rect x="84.77" y="108.58" width="24.66" height="7.57" fill="#704436" stroke-width="0"/>
        <path d="M82.62,121.81v.62c0,.32.02.63.05.94.36,4.03,3.09,7.23,6.51,7.62.23.04.47.05.71.05h17.73s0-9.22,0-9.22h-7.89c0,2.37-1.62,4.29-3.63,4.29s-3.62-1.92-3.62-4.29h-9.86Z" fill="#dbdbdb" stroke-width="0"/>
        <polygon points="113.39 87.57 113.39 98.36 90.2 98.36 85.88 87.65 85.84 87.57 113.39 87.57" fill="#090909" stroke-width="0"/>
      </g>
      <path d="M113.42,236.69l-.02,22.24h-.01c-11.71,10.38-23.9,18.11-33.96,22.46h-9.35v-13.09c13.79-4.71,29.8-17.32,43.32-32.24.01-.01,0,.64.02.63Z" fill="#dbcee7" stroke-width="0"/>
      <rect class="sorriso" x="105.85" y="143.58" width="14.86" height="1" fill="#38393a" stroke-width="0"/>
      <path d="M116.13,267.93c0-1.8-1.26-3.27-2.79-3.29v-5.71c15.51-13.81,30.14-32.83,37.63-56.28v-.02c-.03-.05-.05-.09-.08-.14.04.03.07.07.1.1,1.23-3.87,2.28-7.85,3.09-11.96,19.88,12.91,33.47,39.42,36.15,92.83h-76.87s.03-12.25.03-12.25c1.52-.03,2.74-1.49,2.74-3.28Z" fill="#003b9f" stroke-width="0"/>
    </g>
    <g id="icon" class="gocciaAnimation">
      <path d="M152.49,69.13c0,5.46-4.43,9.89-9.89,9.89s-9.88-4.43-9.88-9.89c0-1.24.23-2.42.65-3.51h-.02l9.25-26.99,9.3,27.11h-.01c.39,1.05.6,2.2.6,3.39Z" fill="#0098c8" stroke-width="0"/>
      <path d="M144.37,74.58c-.28,0-.5-.22-.5-.5s.22-.5.5-.5c1.34,0,2.37-.43,3.08-1.27.9-1.07,1.03-2.53.9-3.25-.49-2.78-3.28-10.93-3.31-11.01-.09-.26.05-.55.31-.64.26-.09.54.05.63.31.12.34,2.85,8.31,3.35,11.16.19,1.09-.08,2.82-1.12,4.07-.89,1.06-2.22,1.63-3.84,1.63Z" fill="#fff" stroke-width="0"/>
    </g>
  </g>
</svg>