<?xml version="1.0" encoding="UTF-8"?>
<svg id="Layer_2" data-name="Layer 2" xmlns="http://www.w3.org/2000/svg" viewBox="0 0 226.7716535433 283.4645669291">
  <def>
    <style>
      .sorriso{
        stroke-dasharray: 100!important;
        stroke-dashoffset: 100;
        animation: sorrisoAnimation 2s linear forwards;
      }
      @keyframes sorrisoAnimation {
        from {
          stroke-dashoffset: 100;
        }
        to {
          stroke-dashoffset: 0;
        }
      }
    </style>
   </def>
  <rect id="sfondo" x="-28.3464566929" y="28.3464566929" width="283.4645669291" height="226.7716535433" transform="translate(-28.3464566929 255.1181102362) rotate(-90)" fill="#c57716" stroke-width="0"/>
  <g id="corpo">
    <g id="francesco">
      <path d="M113.4079326808,190.62216232v46.09c-13.52,14.92-29.53,26.88-43.32,31.59v13.09h9.35c10.06-4.35,22.2599511719-12.09,33.9699511719-22.46l-.0099511719,5.71c-1.54,0-2.78,1.48-2.78,3.29s1.23,3.27,2.77,3.28l.0294978814,12.2523728708-76.8694978814-.0023728708c3.48-69.37,25.37-93.37,55.54-101.11" fill="#3916a8" stroke-width="0"/>
      <g>
        <g>
          <path d="M134.3046894717,121.8111162873c0,2.3657989888-1.6217579043,4.2856504218-3.6199182563,4.2856504218-2.006041161,0-3.6277990653-1.919851433-3.6277990653-4.2856504218h7.2477173216Z" fill="#675fbe" stroke-width="0"/>
          <polygon points="142.4600292531 83.8133640704 140.9461633764 87.5713191403 113.4006719838 87.5713191403 113.4006719838 83.8133640704 142.4600292531 83.8133640704" fill="#fed15c" stroke-width="0"/>
          <path d="M117.3587144729,71.2932892527c0,.3185498357-.0076931707.636988601-.0384658533.9463195955,0,0,.0076931707.0091077708,0,.0182155415-.2534993554,3.5940151963-1.913723113,6.3692195876-3.9195766357,6.3692195876v-14.6765061496c2.067398888,0,3.7735940314,2.9480298949,3.9426561477,6.7149816652.0076931707.2092565866.0153863413.4185131732.0153863413.6277697599Z" fill="#fed15c" stroke-width="0"/>
          <path d="M146.6278643214,118.4621232575v-8.7299804688c0-8.1799926758-2.1098632812-15.7800292969-5.7199707031-22.0800170898-.0200195312-.0299682617-.0300292969-.049987793-.0500488281-.0799560547h-27.4599609375v84.3799438477h4.080078125c.1899414062-.4499511719.5200195312-.8099975586.919921875-1l.1301269531-.0599975586.08984375-.049987793h.0100097656c2.5600585938-.4199829102,5.0400390625-1.1499633789,7.3701171875-2.1599731445,3.1899414062-1.3500366211,6.1098632812-3.2100219727,8.6999511719-5.4700317383,7.0200195312-6.1199951172,11.580078125-15.200012207,11.9099121094-25.3999633789h.0200195312c4.0300292969-.6500244141,7.1301269531-4.7300415039,7.1301269531-9.6700439453s-3.1000976562-9.0299682617-7.1301269531-9.6799926758ZM117.3479570949,116.1521256989v-7.5700073242h24.6600341797v7.5700073242h-24.6600341797ZM144.1679033839,122.4321549958c0,.3200073242-.0200195312.6300048828-.0500488281.9299926758-.3598632812,4.0399780273-3.08984375,7.2399902344-6.5100097656,7.6199951172-.1724853516.0299682617-.3530273438.0327758789-.5325927734.0374755859-.0592041016.0006103516-.1180419922.0025024414-.1773681641.0025024414h-17.7299804688v-9.2099609375h25v.6199951172Z" fill="#fac1a7" stroke-width="0"/>
          <path d="M148.5164309511,74.0229547902c0,1.8744236496-.5764248851,3.6942006746-1.6600361193,5.4047955209l-4.3963655788,4.3856137593h-29.0593572692v-5.1863200932c2.0058535227,0,3.6660772803-2.7752043913,3.9195766357-6.3692195876.0076931707-.0091077708,0-.0182155415,0-.0182155415.0307726827-.3093309945.0384658533-.6277697599.0384658533-.9463195955,0-.2092565866-.0076931707-.4185131732-.0153863413-.6277697599-.1690621164-3.7669517702-1.8752572597-6.7149816652-3.9426561477-6.7149816652v-7.7431601271c19.4139976358.0636433249,35.1157589673,8.016171109,35.1157589673,17.8155770897Z" fill="#003b9f" stroke-width="0"/>
          <path d="M117.2979326808,190.5821549958c3.2-.14,6.16-.54,8.7-1.14,3.62-.84,6.38-2.08,7.75-3.53.62-.66.95-1.36.95-2.08v-20.62c-2.59,2.26-5.51,4.12-8.7,5.47-2.33,1.01-4.81,1.74-7.37,2.16h-.01l-.09.05-.13.06c-.4.19-.73.55-.92,1-.11.28-.18.59-.18.93v17.7Z" fill="#7a1000" stroke-width="0"/>
          <path d="M113.3979326808,190.6221549958h.02c.4.02.81.02,1.23.02.89,0,1.79-.02,2.65-.06v-17.7c0-.34.07-.65.18-.93h-4.08v18.67Z" fill="#f4a48b" stroke-width="0"/>
          <path d="M154.1879229152,190.3121598786c-.0200195312.1099853516-.0400390625.2099609375-.0600585938.3200073242-.8099365234,4.1099853516-1.8598632812,8.0899658203-3.08984375,11.9599609375-.0300292969-.0299682617-.0600585938-.0700073242-.1000976562-.0999755859.0300292969.049987793.0500488281.0899658203.080078125.1400146484v.0199584961c-7.4899902344,23.450012207-22.0900878906,42.4400024414-37.5900878906,56.25l-.0300292969.0300292969v-22.8699951172l.0200195312-.0200195312c2.6600341797-2.950012207,5.2299804688-6.0200195312,7.6600341797-9.1599731445.4100341797-.5200195312.8099365234-1.0500488281,1.2100830078-1.5700073242.5098876953-.6799926758,1.0198974609-1.3600463867,1.5198974609-2.0400390625.6600341797-.9199829102,1.3199462891-1.8299560547,1.9600830078-2.7600097656,2.2799072266-3.2699584961,4.3999023438-6.5899658203,6.3199462891-9.9299926758.9100341797-1.5999755859,1.7899169922-3.1999511719,2.6099853516-4.7899780273.2800292969-.549987793.5600585938-1.0999755859.830078125-1.6500244141.2698974609-.549987793.5399169922-1.0999755859.7999267578-1.6499633789s.5200195312-1.0900268555.7600097656-1.6400146484c.4899902344-1.0999755859.9599609375-2.1900024414,1.4000244141-3.2799682617.2199707031-.5500488281.4399414062-1.0900268555.6398925781-1.6300048828.2100830078-.5400390625.41015625-1.0900268555.6101074219-1.6300048828.9699707031-2.700012207,1.7700195312-5.3699951172,2.3599853516-7.9899902344.0899658203-.3900146484.1800537109-.7800292969.25-1.1700439453.0399169922-.1300048828.0599365234-.2600097656.0899658203-.3900146484.0200195312-.0999755859.0400390625-.1999511719.0600585938-.299987793,4.3798828125,1.7600097656,8.2399902344,3.6500244141,11.6899414062,5.8500366211Z" fill="#fbfbfb" stroke-width="0"/>
          <path d="M142.4979815089,184.4621232575c-.0200195312.1000366211-.0400390625.200012207-.0600585938.299987793-.0300292969.1300048828-.0500488281.2600097656-.0899658203.3900146484-.0699462891.3900146484-.1600341797.7800292969-.25,1.1700439453-.5899658203,2.6199951172-1.3900146484,5.2899780273-2.3599853516,7.9899902344-.1999511719.5399780273-.4000244141,1.0899658203-.6101074219,1.6300048828-.1999511719.5399780273-.419921875,1.0799560547-.6398925781,1.6300048828-.4400634766,1.0899658203-.9000244141,2.1799926758-1.4000244141,3.2799682617-.2399902344.549987793-.5,1.0900268555-.7600097656,1.6400146484s-.5300292969,1.0999755859-.7999267578,1.6499633789c-.2700195312.5500488281-.5500488281,1.1000366211-.830078125,1.6500244141-.8200683594,1.5999755859-1.6899414062,3.1900024414-2.6099853516,4.7899780273-1.9200439453,3.3400268555-4.0400390625,6.6600341797-6.3199462891,9.9299926758-.6401367188.9300537109-1.3000488281,1.8400268555-1.9600830078,2.7600097656-.5.6799926758-1.0100097656,1.3600463867-1.5198974609,2.0400390625-.4001464844.5199584961-.8000488281,1.049987793-1.2100830078,1.5700073242-2.4300537109,3.1399536133-5,6.2099609375-7.6600341797,9.1599731445l-.0200195312.0200195312v-5.9400024414h.0200195312c.6600341797-.0100097656,1.2700195313-.2800292969,1.7399902344-.75.1600341797-.1500244141.3000488281-.3200073242.4200439453-.5.1300048828-.1900024414.2299804688-.3900146484.3199462891-.6000366211v-.0100097656c.1700439453-.4299926758.2700195312-.9099731445.2700195312-1.4199829102s-.0999755859-.9899902344-.2700195312-1.4299926758c-.0799560547-.2199707031-.1899414062-.4199829102-.3199462891-.5999755859-.1199951172-.1900024414-.2600097656-.3600463867-.4200439453-.5100097656-.4699707031-.4700317383-1.0799560547-.7399902344-1.7399902344-.75h-.0200195312v-5.9000244141h.0100097656c.6700439453,0,1.2700195313-.2799682617,1.75-.7600097656.1600341797-.1499633789.3000488281-.3199462891.4200439453-.5.1300048828-.1900024414.2299804688-.3899536133.3199462891-.5999755859v-.0100097656c.1700439453-.4299926758.2700195312-.9099731445.2700195312-1.4199829102s-.0999755859-.9899902344-.2700195312-1.4199829102v-.0100097656c-.0899658203-.2100219727-.1899414062-.4100341797-.3199462891-.6000366211-.1199951172-.1799926758-.2600097656-.3499755859-.4200439453-.5-.4799804688-.4699707031-1.0799560547-.75-1.75-.75h-.0100097656v-5.8999633789h.0100097656c.6700439453,0,1.2700195313-.2800292969,1.75-.75.1600341797-.1500244141.3000488281-.3200073242.4200439453-.5.1300048828-.1900024414.2299804688-.3900146484.3199462891-.6000366211v-.0099487305c.1700439453-.4300537109.2700195312-.9100341797.2700195312-1.4200439453s-.0999755859-.9899902344-.2700195312-1.4299926758c-.0799560547-.2199707031-.1899414062-.4199829102-.3199462891-.5999755859-.1199951172-.1900024414-.2600097656-.3600463867-.4200439453-.5100097656-.4799804688-.4700317383-1.0799560547-.75-1.75-.75h-.0100097656v-7.9899902344h.0200195312c.4000244141.0199584961.8100585938.0199584961,1.2299804688.0199584961.8901367188,0,1.7900390625-.0199584961,2.6500244141-.0599975586,3.2000732422-.1399536133,6.1600341797-.5399780273,8.7000732422-1.1399536133,3.6198730469-.8400268555,6.3798828125-2.0800170898,7.75-3.5300292969.6198730469-.6599731445.9499511719-1.3599853516.9499511719-2.0800170898v-2.1900024414c2.7700195312.9100341797,5.3699951172,1.8500366211,7.8000488281,2.8200073242Z" fill="#003b9f" stroke-width="0"/>
          <path d="M116.1779131496,201.9021256989c0,1.0200195312-.3999023438,1.9400024414-1.0200195312,2.5300292969-.4799804688.4699707031-1.0799560547.75-1.75.75h-.0100097656v-6.5700073242h.0100097656c.6700439453,0,1.2700195313.2799682617,1.75.75.6201171875.5899658203,1.0200195312,1.5100097656,1.0200195312,2.5399780273Z" fill="#fed15c" stroke-width="0"/>
          <path d="M116.1779131496,214.3621476716c0,1.0200195312-.3999023438,1.9400024414-1.0200195312,2.5299682617-.4799804688.4800415039-1.0799560547.7600097656-1.75.7600097656h-.0100097656v-6.5700073242h.0100097656c.6700439453,0,1.2700195313.2800292969,1.75.75.6201171875.5900268555,1.0200195312,1.5100097656,1.0200195312,2.5300292969Z" fill="#fed15c" stroke-width="0"/>
          <path d="M116.1779131496,226.8421281403c0,1.0200195312-.3999023438,1.9400024414-1.0200195312,2.5300292969-.4699707031.4699707031-1.0799560547.7399902344-1.7399902344.75h-.0200195312v-6.5700073242h.0200195312c.6600341797.0100097656,1.2700195313.2799682617,1.7399902344.75.6201171875.5899658203,1.0200195312,1.5100097656,1.0200195312,2.5399780273Z" fill="#fed15c" stroke-width="0"/>
          <path d="M116.1679619777,267.9321940583c0,1.7899780273-1.2199707031,3.25-2.7399902344,3.2799682617h-.0400390625v-6.5700073242h.0300292969c1.5300292969.0200195312,2.75,1.4900512695,2.75,3.2900390625Z" fill="#fed15c" stroke-width="0"/>
          <rect x="117.3500671514" y="108.5814128433" width="24.6633669671" height="7.5702235531" fill="#7d5448" stroke-width="0"/>
          <path d="M144.1654578838,121.8111162873v.6187730595c0,.3184387653-.0153863413.6278808302-.046159024.9372118248-.3612037447,4.0308549814-3.0896523952,7.2335692463-6.5097358525,7.6157624069-.2306074817.036431083-.4689081341.0455388538-.7072087864.0455388538h-17.7306943662v-9.2172861449h7.8853122954c0,2.3657989888,1.6217579043,4.2856504218,3.6277990653,4.2856504218,1.998160352,0,3.6199182563-1.919851433,3.6199182563-4.2856504218h9.8607684121Z" fill="#ebebeb" stroke-width="0"/>
          <polygon points="140.9461633764 87.5713191403 140.9076975231 87.6531780067 136.588263651 98.3624724999 113.4006719838 98.3624724999 113.4006719838 87.5713191403 140.9461633764 87.5713191403" fill="#2e2a27" stroke-width="0"/>
        </g>
        <g>
          <path d="M113.3878740871,198.6121476716v6.5700073242c-1.5399169922,0-2.7800292969-1.4700317383-2.7800292969-3.2800292969,0-1.8200073242,1.2401123047-3.2899780273,2.7800292969-3.2899780273Z" fill="#fdb043" stroke-width="0"/>
          <path d="M113.3878740871,211.0821183747v6.5700073242c-1.5399169922,0-2.7800292969-1.4799804688-2.7800292969-3.2899780273s1.2401123047-3.2800292969,2.7800292969-3.2800292969Z" fill="#fdb043" stroke-width="0"/>
          <path d="M113.3878740871,223.552150113v6.5700073242c-1.5399169922,0-2.7800292969-1.4700317383-2.7800292969-3.2800292969,0-1.8200073242,1.2401123047-3.2899780273,2.7800292969-3.2899780273Z" fill="#fdb043" stroke-width="0"/>
          <path d="M92.4798738059,121.8111162883c0,2.3657989888,1.6217579041,4.2856504219,3.6199182562,4.285650422,2.006041161.0000000001,3.6277990654-1.9198514328,3.6277990655-4.2856504216l-7.2477173216-.0000000004Z" fill="#5345b8" stroke-width="0"/>
          <path d="M113.3852856425,78.6270439773c-2.006041161,0-3.6660772803-2.7752043913-3.919764274-6.3692195876-.0076931707-.0091077708,0-.0182155415,0-.0182155415-.0305850444-.3093309945-.0384658533-.6277697599-.0384658533-.9463195955,0-.2092565866.007880809-.4185131732.0153863413-.6277697599.1692497547-3.7669517702,1.875444898-6.7149816652,3.942843786-6.7149816652v14.6765061496Z" fill="#fdb043" stroke-width="0"/>
          <path d="M85.9179033839,87.5721696443c-.0100097656.0299682617-.0300292969.049987793-.0400390625.0799560547-3.6098632812,6.299987793-5.7299804688,13.9000244141-5.7299804688,22.0800170898v8.7299804688c-4.0300292969.6500244141-7.1198730469,4.7399902344-7.1198730469,9.6799926758s3.08984375,9.0200195312,7.1198730469,9.6700439453h.0200195312c.3400878906,10.1999511719,4.8900146484,19.2799682617,11.9100341797,25.3999633789,2.5899658203,2.2600097656,5.5200195312,4.1199951172,8.7000732422,5.4700317383,2.33984375,1.0100097656,4.8099365234,1.7399902344,7.3798828125,2.1599731445h.0100097656l.080078125.049987793.1398925781.0599975586c.3901367188.1900024414.7199707031.5500488281.9100341797,1h4.0799560547v-84.3799438477h-27.4599609375ZM107.6078447902,131.0221208161h-17.7299804688c-.0576171875,0-.1120605469-.0018920898-.1677246094-.0025024414-.1677246094-.004699707-.3372802734-.0075073242-.5021972656-.0374755859h-.0300292969c-1.5-.1699829102-2.8599853516-.8699951172-3.9499511719-1.9600219727-.3100585938-.299987793-.6101074219-.6399536133-.8701171875-1.0100097656-.919921875-1.2799682617-1.5299072266-2.8799438477-1.6899414062-4.6499633789-.0300292969-.299987793-.0500488281-.6099853516-.0500488281-.9299926758v-.6199951172h24.9899902344v9.2099609375ZM84.7680010402,116.1521256989v-7.5700073242h24.6599121094v7.5700073242h-24.6599121094Z" fill="#f4b59d" stroke-width="0"/>
          <path d="M109.4424418565,70.6655194928c-.0075055324.2092565866-.0153863413.4185131732-.0153863413.6277697599,0,.3185498357.007880809.636988601.0384658533.9463195955,0,0-.0076931707.0091077708,0,.0182155415.2536869937,3.5940151963,1.913723113,6.3692195876,3.919764274,6.3692195876v5.1863200932h-29.0595449075l-4.3961779405-4.3856137593c-1.0836112342-1.7105948463-1.6600361193-3.5303718714-1.6600361193-5.4047955209,0-9.7994059806,15.7017613315-17.7519337647,35.1157589673-17.8155770897v7.7431601271c-2.067398888,0-3.7735940314,2.9480298949-3.942843786,6.7149816652Z" fill="#3916a8" stroke-width="0"/>
          <polygon points="113.3852856425 83.8133640704 113.3852856425 87.5713191403 85.8397942499 87.5713191403 84.325740735 83.8133640704 113.3852856425 83.8133640704" fill="#fdb043" stroke-width="0"/>
          <path d="M109.4779619777,172.8821672028v17.6999511719c-3.1999511719-.1399536133-6.1600341797-.5399780273-8.6999511719-1.1399536133-3.6201171875-.8400268555-6.3801269531-2.0800170898-7.75-3.5300292969-.6201171875-.6599731445-.9500732422-1.3599853516-.9500732422-2.0800170898v-20.6199951172c2.5899658203,2.2600097656,5.5200195312,4.1199951172,8.7000732422,5.4700317383,2.33984375,1.0100097656,4.8099365234,1.7399902344,7.3798828125,2.1599731445h.0100097656l.080078125.049987793.1398925781.0599975586c.3901367188.1900024414.7199707031.5500488281.9100341797,1,.1199951172.2800292969.1800537109.5900268555.1800537109.9300537109Z" fill="#4b1000" stroke-width="0"/>
          <path d="M113.3778643214,171.9521134919v18.6700439453c-.3999023438.0199584961-.8199462891.0199584961-1.2399902344.0199584961-.8999023438,0-1.7899169922-.0199584961-2.6599121094-.0599975586v-17.6999511719c0-.3400268555-.0600585938-.6500244141-.1800537109-.9300537109h4.0799560547Z" fill="#d6988b" stroke-width="0"/>
          <path d="M113.3878740871,264.6421159333v6.5700073242h-.0100097656c-1.5399169922-.0100097656-2.7700195312-1.4699707031-2.7700195312-3.2799682617s1.2401123047-3.2900390625,2.7800292969-3.2900390625Z" fill="#fdb043" stroke-width="0"/>
          <rect x="84.7711291595" y="108.5814128444" width="24.6633669671" height="7.5702235531" fill="#704436" stroke-width="0"/>
          <path d="M82.6191053938,121.8111162877v.6187730595c0,.3184387653.0153863413.6278808302.0461590239.9372118248.3612037446,4.0308549814,3.0896523949,7.2335692465,6.5097358522,7.6157624073.2306074817.036431083.4689081341.0455388538.7072087864.0455388538l17.7306943662.0000000009.0000000003-9.2172861449-7.8853122954-.0000000004c0,2.3657989888-1.6217579044,4.2856504217-3.6277990655,4.2856504216-1.998160352-.0000000001-3.6199182562-1.9198514332-3.6199182562-4.285650422l-9.8607684121-.0000000005Z" fill="#dbdbdb" stroke-width="0"/>
          <polygon points="113.3852856425 87.5713191403 113.3852856425 98.3624724999 90.197506337 98.3624724999 85.8782601032 87.6531780067 85.8397942499 87.5713191403 113.3852856425 87.5713191403" fill="#090909" stroke-width="0"/>
        </g>
        <path d="M113.4179033839,236.6921647614l-.0200195312,22.2399902344-.0100097656.0100097656c-11.7099609375,10.3699951172-23.8999023438,18.0999755859-33.9599609375,22.4499511719h-9.3499755859v-13.0899658203c13.7899169922-4.7100219727,29.7999755859-17.3199511719,43.3199951172-32.2399951172.0100097656-.0100097656.0099609375.6399584961.0199707031.6300097656Z" fill="#dbcee7" stroke-width="0"/>
      </g>
      <path d="M116.1279229152,267.9321940583c0-1.799987793-1.2599511719-3.2699804687-2.7899804688-3.29l.0099511719-5.71c15.5-13.8099975586,30.1301269531-32.8300170898,37.6201171875-56.2800292969v-.0199584961c-.0300292969-.0500488281-.0500488281-.0900268555-.080078125-.1400146484.0400390625.0299682617.0700683594.0700073242.1000976562.0999755859,1.2299804688-3.8699951172,2.2799072266-7.8499755859,3.08984375-11.9599609375,19.8801269531,12.9099731445,33.4700927734,39.4199829102,36.1501464844,92.8299560547l-76.8705802436.0024046091.0304923529-12.2524046091c1.5200195313-.0299682617,2.7399902344-1.4899902344,2.7399902344-3.2799682617Z" fill="#003b9f" stroke-width="0"/>
    </g>
    <g id="sorriso">
      <path class="sorriso" d="M125.3761803348,144.2469234069s-9.5807368879,5.7771484605-23.2880083905,4.3418320728" fill="none" stroke="#38393a" stroke-miterlimit="10"/>
    </g>
  </g>
</svg>