<?xml version="1.0" encoding="UTF-8"?>
<svg id="Layer_4" data-name="Layer 4" xmlns="http://www.w3.org/2000/svg" viewBox="0 0 226.77 283.46">
  <def>
    <style>
      .gocciaAnimation{
        transition: all ;
        animation: gocciaAnimation 1.5s ease-out 1;
      }
      @keyframes gocciaAnimation {
        0%{
          opacity:1;
          transform: translateY(0%);
        }
        100%{
          opacity:0;
          transform: translateY(5%);
        }
      }

      .trimolioImbarrazato{
        animation: trimolioAnimation 1s ease-out 2 forwards;
      }
      @keyframes trimolioAnimation {
        0%{
          transform: translateY(0%);
        }
        50%{
          transform: translateY(-2%);
        }
        100%{
          transform: translateY(0%);
        }
      }
      .sorriso{
        transform: scaleX(0);
        transform-origin: center center !important ;
        animation: sorriso 1s ease-out 1 0.5s forwards;
      }
      @keyframes sorriso {
        0%{
          transform: scaleX(0);
        }
        100%{
         
          transform: scaleX(1);
        }
      }
    </style>
  </def>
  <rect id="sfondo" x="0" y="0" width="226.77" height="283.46" fill="#00893d" stroke-width="0"/>
  <g id="corpo">
    <g id="gastoro">
      <g>
        <path d="M113.39,85.36v22.5h-23.57c1.39-7.44,2.94-17.16,5.69-21.18,1.02-1.5,13.63-1.39,17.88-1.32Z" fill="#2e2e2e" stroke-width="0"/>
        <path d="M113.39,114.1v9.4h-34.42c-2.06,0-3.72-1.67-3.72-3.72v-1.96c0-2.06,1.67-3.72,3.72-3.72h34.42Z" fill="#2e2e2e" stroke-width="0"/>
        <g>
          <path d="M83.14,161.25v1.29s.02,0,.03,0c-.02-.43-.03-.86-.03-1.29Z" fill="none" stroke="#38393a" stroke-miterlimit="10"/>
          <path d="M83.15,161.25v1.29h.03c-.02-.43-.03-.86-.03-1.29Z" fill="none" stroke="#38393a" stroke-miterlimit="10"/>
          <path d="M113.39,263.15v20.31H9.42c.99-36.53,25.07-102.05,59.55-116.18,3.06-1.25,6.19-2.38,9.4-3.37.57-.18,1.14-.35,1.71-.52,1.02-.3,2.04-.58,3.07-.85h.02c.05,1.17.17,2.33.35,3.47.03.16.05.32.09.48l-3.36,3.22-13.03,13.47-2.85,2.94,2.56,1.63,12.77,8.14-5.3,6.78,38.99,60.48Z" fill="#2e2e2e" stroke-width="0"/>
          <path d="M66.92,187.76l12.77,8.14-5.3,6.78,38.99,60.49h0s-20.45-78.24-20.45-78.24l-.49-1.85c-.24-.23-.48-.46-.7-.7-.14-.14-.28-.29-.42-.44-.06-.06-.11-.11-.15-.17-.15-.17-.31-.34-.46-.51-.46-.51-.9-1.05-1.31-1.6-.1-.13-.2-.26-.3-.39-.76-1.01-1.45-2.07-2.07-3.18-.15-.26-.29-.52-.43-.78-.19-.36-.38-.74-.55-1.11-.11-.23-.22-.46-.32-.7-.1-.23-.21-.47-.3-.71-.05-.12-.1-.24-.15-.36-.12-.32-.24-.63-.35-.95-.12-.34-.24-.68-.35-1.02,0-.02-.01-.03-.01-.04-.11-.34-.21-.67-.3-1.02-.1-.35-.19-.71-.28-1.07-.05-.19-.09-.39-.13-.58-.07-.29-.12-.57-.18-.87-.02-.13-.05-.26-.07-.39l-3.36,3.22-13.03,13.48-2.85,2.94,2.56,1.63Z" fill="#005a59" stroke-width="0"/>
          <path d="M113.39,218.35v44.8l-20.45-78.23-.49-1.85c.13.13.27.26.41.38.14.13.28.26.41.38.46.41.92.8,1.4,1.18.3.23.6.45.9.68.26.19.52.37.79.55.08.29.16.56.24.83,4.38,14.99,12.52,25.28,16.79,25.28-1.66,0-3,1.34-3,3s1.34,3,3,3Z" fill="#83b1d5" stroke-width="0"/>
          <path d="M96.35,186.25c.08.28.16.55.24.83,4.38,14.99,12.53,25.27,16.79,25.27v-6.11c-3.15,0-8.53-6.82-12.03-17.13-.01-.04-.03-.08-.04-.12-.1-.04-.21-.09-.32-.14-.1-.05-.21-.09-.31-.14-.44-.2-.87-.41-1.29-.64-.17-.09-.35-.18-.53-.28-.24-.13-.48-.27-.71-.4-.2-.12-.4-.24-.61-.36-.4-.24-.8-.5-1.18-.77Z" fill="#fdb043" stroke-width="0"/>
          <path d="M113.4,191.5v20.85h-.01v-6.11c-3.15,0-8.53-6.82-12.03-17.13-.01-.04-.03-.08-.04-.12.39.17.8.34,1.21.5.02.01.06.02.09.03.05.02.1.04.15.06.18.07.36.14.54.2.49.17.97.33,1.48.47.33.11.67.2,1.01.29.15.04.31.08.48.12.22.05.45.11.68.15.28.06.56.12.84.17.21.04.42.08.63.11.65.11,1.31.2,1.97.26.16.02.32.03.48.05.83.07,1.66.1,2.51.1h.01Z" fill="#83b1d5" stroke-width="0"/>
          <path d="M68.96,167.29c3.06-1.25,6.19-2.38,9.4-3.38.57-.18,1.14-.35,1.71-.51,1.01-.3,2.03-.59,3.06-.85v-22.45c-1.41,0-2.55-1.14-2.55-2.55,0-1.41,1.14-2.55,2.55-2.55h-1v-3.55h1.37s0-.06.01-.08c.03-.23.07-.45.11-.68.02-.18.06-.36.09-.54.05-.3.11-.6.17-.9.07-.34.15-.69.23-1.02.08-.35.17-.7.27-1.04.35-1.27.76-2.5,1.25-3.68h-3.35c-5.99,11.07-10.71,26.27-13.33,43.78Z" fill="#dfc97d" stroke-width="0"/>
          <path d="M113.38,123.5h-27.74c-.49,1.18-.9,2.41-1.25,3.68-.09.34-.18.69-.27,1.04-.08.34-.16.67-.23,1.02-.06.29-.12.59-.17.9-.03.18-.07.35-.09.54-.04.22-.08.45-.11.68,0,.03,0,.06-.01.08h26.28c.49.7.92,1.46,1.26,2.27h2.33s0-10.21,0-10.21Z" fill="#eea698" stroke-width="0"/>
          <path d="M80.59,137.55c0,1.4,1.14,2.55,2.55,2.55v21.15c0,.43.01.86.03,1.29.05,1.18.17,2.34.35,3.47.02.16.05.32.08.48.02.13.05.27.07.39.06.29.11.58.18.87.04.19.08.39.13.58.08.36.18.71.28,1.07.09.34.19.68.3,1.02,0,.01,0,.02.01.04.11.34.23.69.35,1.02.11.32.23.64.35.95.05.12.1.24.15.36.09.24.2.48.3.71.1.24.21.47.32.7.18.37.36.74.55,1.11.14.27.28.53.43.78.62,1.11,1.31,2.17,2.07,3.18.09.13.19.26.3.39.41.55.85,1.08,1.31,1.6.15.18.31.35.46.51.05.06.1.11.15.17.14.15.28.3.42.44.23.24.46.47.7.7.13.13.27.25.41.38.14.13.28.26.41.39.45.4.92.8,1.4,1.17.29.23.6.46.9.68.25.19.51.38.78.56.39.27.78.53,1.18.77.2.13.4.25.61.36.23.14.47.28.71.4.18.1.35.19.53.28.42.23.86.44,1.29.64.1.05.21.09.31.14.11.05.22.09.32.14.4.18.8.34,1.21.5.03.01.06.02.09.03.04.02.09.04.15.06.18.07.36.14.54.2.49.17.97.33,1.48.48.33.11.67.2,1.01.29.15.04.32.08.48.12.22.06.45.11.68.15.28.06.56.12.84.17.21.04.41.08.62.11.65.11,1.31.2,1.97.26.16.02.32.03.48.04.83.07,1.66.11,2.51.11h0v-55.23s-1.54,0-1.54,0c.18.89.28,1.82.28,2.77,0,3.69-1.43,6.98-3.66,9.19,0,0-.02.01-.02.02-.91.79-1.91,1.48-2.98,2.02-.02.01-.05.02-.07.03-1.97,1.01-4.2,1.58-6.54,1.58-8.3,0-15.02-7.06-15.02-15.76,0-.38.01-.76.04-1.13h-.72c-1.41,0-2.55,1.14-2.55,2.55Z" fill="#eea698" stroke-width="0"/>
        </g>
        <path d="M113.39,133.71v2.57h-1.54c.18.89.28,1.82.28,2.77,0,3.69-1.43,6.98-3.66,9.19,0,0-.02,0-.02.02-.91.79-1.92,1.47-2.98,2.03-.02,0-.05.02-.07.03-1.97,1.01-4.19,1.58-6.54,1.58-8.3,0-15.03-7.06-15.03-15.76,0-.38.02-.76.04-1.13h-1.71v-3.55h27.65c.49.69.91,1.46,1.26,2.27h2.33Z" fill="#2e2e2e" stroke-width="0"/>
        <path d="M113.39,107.86v6.25h-24.91c.45-1.66.88-3.83,1.34-6.25h23.57Z" fill="#630500" stroke-width="0"/>
      </g>
      <g>
        <path d="M136.96,107.86h-23.57v-22.5c4.25-.08,16.85-.19,17.88,1.32,2.75,4.02,4.31,13.74,5.69,21.18Z" fill="#3a3a3a" stroke-width="0"/>
        <path d="M151.54,117.82v1.96c0,2.06-1.67,3.72-3.72,3.72h-34.42v-9.4h34.42c2.06,0,3.72,1.67,3.72,3.72Z" fill="#3a3a3a" stroke-width="0"/>
        <g>
          <path d="M143.63,161.25v1.29s-.02,0-.03,0c.02-.43.03-.86.03-1.29Z" fill="none" stroke="#38393a" stroke-miterlimit="10"/>
          <path d="M143.63,161.68c.01.07,0,.15-.01.22.01.21,0,.42-.01.64h.03v-1.29c0,.14,0,.29-.01.43Z" fill="none" stroke="#38393a" stroke-miterlimit="10"/>
          <path d="M217.36,283.46h-103.97v-20.31h.01s38.98-60.48,38.98-60.48l-5.29-6.78,12.76-8.14,2.56-1.63-2.84-2.94-13.04-13.47-3.35-3.22c.03-.16.06-.32.08-.48.05-.29.09-.57.12-.86.04-.29.07-.57.1-.86.04-.29.06-.58.08-.87s.04-.58.05-.88h.03c1.03.26,2.04.55,3.06.85.58.17,1.14.34,1.71.52,2.42.74,4.78,1.57,7.1,2.46.77.29,1.54.6,2.3.91,34.49,14.13,58.56,79.65,59.55,116.18Z" fill="#3a3a3a" stroke-width="0"/>
          <path d="M159.85,187.75l-12.76,8.14,5.29,6.78-38.98,60.47h0s-.01,0-.01,0v-.04s20.46-78.19,20.46-78.19l.48-1.84h0s.01,0,.01,0c.24-.24.47-.46.7-.7.07-.07.13-.14.21-.22.07-.07.14-.15.21-.22.05-.05.1-.11.15-.16h0c.07-.09.15-.17.22-.25.08-.09.16-.18.24-.27.23-.25.46-.52.67-.78.22-.27.43-.54.64-.82.09-.1.17-.2.24-.3.02-.03.04-.05.06-.08.76-1.02,1.45-2.08,2.07-3.19.15-.26.29-.52.43-.78.08-.15.15-.3.22-.45.11-.22.22-.44.33-.66.11-.23.22-.46.32-.7.05-.11.1-.23.15-.35.05-.12.11-.24.15-.36.05-.12.1-.23.15-.35.06-.16.12-.32.18-.48.07-.16.13-.32.18-.48.05-.14.1-.28.14-.43.02-.03.03-.06.03-.08.06-.17.12-.34.17-.51.01-.01.01-.02.02-.03.11-.34.21-.68.3-1.02.1-.36.19-.71.28-1.07.05-.19.09-.39.13-.58.07-.29.12-.57.18-.87.02-.13.04-.26.07-.39l3.35,3.22,13.04,13.47,2.84,2.94-2.56,1.63Z" fill="#007272" stroke-width="0"/>
          <path d="M134.34,183.07l-.49,1.85-20.45,78.22v-44.79c1.66,0,3-1.34,3-3s-1.34-3-3-3c2.54-.01,6.43-3.64,10.1-9.72.58-.96,1.15-1.98,1.71-3.06,1.69-3.23,3.26-6.98,4.56-11.11.14-.46.28-.92.42-1.39.07-.27.16-.54.24-.83.26-.18.52-.36.78-.55.15-.11.3-.23.45-.34.15-.11.3-.22.45-.34.24-.19.48-.38.71-.58.23-.19.47-.39.69-.6.07-.06.14-.12.21-.19.07-.06.14-.12.21-.19.06-.06.13-.12.2-.19.06-.05.13-.12.2-.18h0s.01,0,.01,0Z" fill="#a7def6" stroke-width="0"/>
          <path d="M130.43,186.24c-.08.29-.17.56-.24.83-.14.47-.28.93-.42,1.39-.49,1.55-1.01,3.04-1.57,4.48-.37.95-.76,1.88-1.15,2.78-.2.45-.4.9-.6,1.33-.41.87-.82,1.71-1.24,2.52-.56,1.08-1.14,2.1-1.71,3.06-3.67,6.08-7.56,9.71-10.1,9.72h-.01v-6.11h.01c3.16-.01,8.52-6.83,12.03-17.13.01-.04.03-.08.04-.12.1-.05.2-.09.31-.14.11-.06.22-.09.32-.15.44-.2.87-.41,1.3-.64.17-.09.35-.18.52-.28.24-.13.48-.26.72-.4.2-.12.4-.24.6-.37.41-.24.8-.5,1.19-.77Z" fill="#fed15c" stroke-width="0"/>
          <path d="M113.4,212.35v50.8s-.01-44.8-.01-44.8c-1.66,0-3-1.34-3-3s1.34-3,3-3h.01Z" fill="#fdb043" stroke-width="0"/>
          <path d="M116.4,215.35c0,1.66-1.34,3-3,3v-6c1.66,0,3,1.34,3,3Z" fill="#fed15c" stroke-width="0"/>
          <path d="M157.81,167.29c-3.06-1.26-6.19-2.39-9.4-3.38-.57-.17-1.13-.35-1.71-.51-1.02-.3-2.03-.59-3.06-.85h0v-22.45c1.41,0,2.55-1.14,2.55-2.55s-1.14-2.55-2.55-2.55h.99v-3.55h-1.36s0-.06-.02-.08c-.03-.23-.06-.46-.11-.69-.02-.18-.06-.35-.09-.54-.05-.3-.11-.6-.17-.89-.07-.35-.15-.69-.23-1.02-.09-.35-.17-.69-.27-1.04-.35-1.27-.76-2.51-1.25-3.68h3.36c5.99,11.06,10.7,26.27,13.33,43.79Z" fill="#ffea7c" stroke-width="0"/>
          <path d="M143.26,131.44h-26.28c-.49.69-.91,1.46-1.26,2.27h-2.33v-5.1s0-5.11,0-5.11h27.73c.49,1.17.91,2.41,1.25,3.68.09.35.18.69.27,1.04.08.34.16.68.23,1.02.06.29.13.59.17.89.03.18.06.35.09.54.05.22.08.46.11.69,0,.02,0,.06.02.08Z" fill="#fcc2b1" stroke-width="0"/>
          <path d="M144.62,131.44v3.55h-1.71c.03.37.04.75.04,1.13,0,8.7-6.73,15.76-15.02,15.76-2.36,0-4.57-.57-6.55-1.58-.02,0-.05-.02-.07-.03-1.06-.55-2.06-1.24-2.98-2.03,0,0-.02,0-.02-.02-2.24-2.21-3.66-5.5-3.66-9.19,0-.95.09-1.88.28-2.77h-1.53v-2.57h2.32c.35-.81.77-1.58,1.26-2.27h27.65Z" fill="#3a3a3a" stroke-width="0"/>
          <path d="M125.78,188.85c-.11.05-.21.09-.31.14,0,.04-.03.08-.04.12-3.51,10.3-8.87,17.12-12.03,17.13v-14.74c.84,0,1.67-.03,2.5-.1.17,0,.32-.03.48-.05.67-.06,1.33-.14,1.98-.26.21-.03.41-.07.62-.11.29-.05.57-.11.85-.17.22-.05.45-.1.67-.16.17-.03.33-.07.48-.11.34-.09.68-.19,1.01-.29.51-.14,1-.3,1.48-.47.19-.06.37-.13.54-.21.06-.01.11-.03.15-.05.03,0,.07-.02.1-.03.4-.16.81-.33,1.21-.51.1-.04.2-.08.31-.13Z" fill="#a7def6" stroke-width="0"/>
          <path d="M146.19,137.54c0,1.41-1.14,2.55-2.56,2.55v21.16c0,.21,0,.43-.01.65.01.21,0,.42-.01.64-.01.3-.03.59-.05.88-.06.88-.16,1.74-.3,2.59-.02.16-.05.32-.08.48-.03.13-.05.26-.07.39-.06.3-.11.58-.18.87-.04.19-.08.39-.13.58-.09.36-.18.71-.28,1.07-.09.34-.19.68-.3,1.02,0,0,0,.01,0,.04-.05.16-.11.33-.18.5,0,.06-.04.12-.06.19-.04.1-.08.21-.12.32-.06.17-.11.33-.17.48-.06.16-.12.32-.18.48-.05.11-.1.23-.14.35-.03.06-.05.12-.08.18-.08.18-.16.36-.23.53-.1.24-.21.47-.32.7-.12.25-.25.51-.38.76-.06.12-.12.23-.18.35-.13.26-.27.52-.42.78-.62,1.11-1.31,2.17-2.07,3.19-.09.12-.19.25-.3.38-.31.41-.63.82-.97,1.21-.1.13-.22.26-.33.39-.08.09-.16.18-.25.27-.07.08-.15.16-.22.24h0c-.06.07-.1.11-.16.17-.06.07-.14.15-.2.22-.08.08-.14.15-.21.22-.23.25-.46.46-.7.7h-.01s-.07.07-.1.1c-.03.03-.07.06-.1.09-.07.06-.14.12-.2.18-.08.07-.14.14-.21.2-.07.06-.14.13-.21.2-.06.05-.12.1-.18.15-.17.15-.34.3-.51.44-.23.19-.47.39-.71.57-.14.12-.3.24-.45.35-.15.11-.3.23-.45.34-.26.19-.52.37-.78.55-.39.27-.78.53-1.19.77-.2.13-.4.25-.6.37-.24.14-.48.27-.72.4-.17.1-.35.19-.52.28-.43.23-.86.44-1.3.64-.1.06-.21.09-.32.15-.11.05-.21.09-.31.13-.4.18-.81.35-1.21.51-.03.01-.07.02-.1.03-.04.02-.09.04-.15.05-.17.08-.35.15-.54.21-.48.17-.97.33-1.48.47-.33.1-.67.2-1.01.29-.15.04-.31.08-.48.11-.22.06-.45.11-.67.16-.28.06-.56.12-.85.17-.21.04-.41.08-.62.11-.65.12-1.31.2-1.98.26-.16.02-.31.04-.48.05-.83.07-1.66.1-2.5.1h-.01v-55.22h1.53c-.18.89-.27,1.82-.27,2.76,0,3.69,1.42,6.98,3.66,9.19.01.01.02.01.03.02.91.78,1.91,1.47,2.98,2.02.02.01.04.03.07.03,1.97,1.01,4.19,1.58,6.55,1.58,8.29,0,15.02-7.06,15.02-15.76,0-.38-.01-.76-.04-1.13h.71c1.42,0,2.56,1.14,2.56,2.55Z" fill="#fcc2b1" stroke-width="0"/>
        </g>
        <path d="M138.3,114.1h-24.91v-6.25h23.57c.45,2.42.88,4.59,1.34,6.25Z" fill="#861c16" stroke-width="0"/>
        <polygon points="183.83 236.75 157.03 236.75 163.17 227.9 168.23 232.33 178.27 223.61 183.83 236.75" fill="#861c16" stroke-width="0"/>
        <rect x="152.23" y="234.36" width="35.35" height="7.77" fill="#007272" stroke-width="0"/>
      </g>
      <g>
        <circle cx="123.26" cy="273.79" r="3.76" fill="#861c16" stroke-width="0"/>
        <circle cx="103.52" cy="273.79" r="3.76" fill="#630500" stroke-width="0"/>
      </g>
      <g id="sorriso" class="sorriso">
        <rect x="105.71" y="169.95" width="14.86" height="1" fill="#38393a" stroke-width="0"/>
      </g>
    </g>
    <g id="icon" class="gocciaAnimation">
      <path d="M147.9,104.25c0,5.46-4.43,9.89-9.89,9.89s-9.88-4.43-9.88-9.89c0-1.24.23-2.42.65-3.51h-.02l9.25-26.99,9.3,27.11h-.01c.39,1.05.6,2.2.6,3.39Z" fill="#0098c8" stroke-width="0"/>
      <path d="M139.79,109.7c-.28,0-.5-.22-.5-.5s.22-.5.5-.5c1.34,0,2.37-.43,3.08-1.27.9-1.07,1.03-2.53.9-3.25-.49-2.78-3.28-10.93-3.31-11.01-.09-.26.05-.55.31-.64.26-.09.54.05.63.31.12.34,2.85,8.31,3.35,11.16.19,1.09-.08,2.82-1.12,4.07-.89,1.06-2.22,1.63-3.84,1.63Z" fill="#fff" stroke-width="0"/>
    </g>
  </g>
</svg>