<?xml version="1.0" encoding="UTF-8"?>
<svg id="gastoroContento" xmlns="http://www.w3.org/2000/svg" viewBox="0 0 226.7716535433 283.4645669291">
 <def>
  <style>
    .sorriso{
      stroke-dasharray: 100!important;
      stroke-dashoffset: 100;
      animation: sorrisoAnimation 2s linear forwards;
    }
    @keyframes sorrisoAnimation {
      from {
        stroke-dashoffset: 100;
      }
      to {
        stroke-dashoffset: 0;
      }
    }

    .fuoco{
      transform-origin: 37% 68% !important;
      animation: fuocoAnimation 2s ease-out  infinite;
    }
    @keyframes fuocoAnimation {
    0%{
      transform: scale(0.8);
    }
    50%{
      transform: scale(1.2);
    }
    100%{
      transform: scale(0.8);
    }
    }
  </style>
 </def>
  <rect id="sfondo" x="0" y="0" width="226.7716535433" height="283.4645669291" fill="#00893d" stroke-width="0"/>
  <g id="corpo">
    <g id="gastoro">
      <g>
        <g>
          <path d="M113.3870976324,85.3582078784v22.4974889192h-23.5699193028c1.3875772113-7.4402114093,2.940875568-17.1633058182,5.6936279466-21.1819086386,1.0226668068-1.5035347798,13.6312389578-1.3929752943,17.8762913562-1.3155802806Z" fill="#2e2e2e" stroke-width="0"/>
          <path d="M113.3870976324,114.1019197437v9.4025157602h-34.4249345459c-2.0551388856,0-3.7211581276-1.666019242-3.7211581276-3.7211581276v-1.960199505c0-2.0551388856,1.666019242-3.7211581276,3.7211581276-3.7211581276h34.4249345459Z" fill="#2e2e2e" stroke-width="0"/>
          <g>
            <path d="M83.1430610761,161.2526921672v1.2934481407c.0055330349-.005533035.0165991049-.005533035.0276651748-.005533035-.016734057-.4256050992-.0276651749-.8567769715-.0276651748-1.2879151057Z" fill="none" stroke="#38393a" stroke-miterlimit="10"/>
            <path d="M83.1458365373,161.2546059916v1.2899780273h.0300292969c-.0200195312-.4299926758-.0300292969-.8599853516-.0300292969-1.2899780273Z" fill="none" stroke="#38393a" stroke-miterlimit="10"/>
            <path d="M113.3858267716,263.1545693705v20.3099975586H9.4158560685c.9899902344-36.5299682617,25.0699462891-102.049987793,59.5499267578-116.1799926758,3.0599365234-1.25,6.1900634766-2.3800048828,9.4000244141-3.3699951172.5700683594-.1799926758,1.1400146484-.3499755859,1.7099609375-.5199584961,1.0200195312-.3000488281,2.0400390625-.5800170898,3.0700683594-.8500366211h.0200195312c.0499267578,1.1699829102.169921875,2.3300170898.3499755859,3.4700317383.0299072266.1599731445.0499267578.3199462891.0899658203.4799804688l-3.3599853516,3.2199707031-13.0300292969,13.4700317383-2.8499755859,2.9400024414,2.5600585938,1.6300048828,12.7700195312,8.1400146484-5.3000488281,6.7799682617,38.9899902344,60.4799804688Z" fill="#2e2e2e" stroke-width="0"/>
            <path d="M66.9249258358,187.7576840981l12.768895213,8.136699057-5.2955193325,6.7823875308,38.9864392274,60.4889602571v-.01106607l-20.4522565161-78.2326612011-.4865022219-1.8462118304c-.2376506-.2266520061-.4753012-.4588033091-.7020206821-.6964876472-.1381909224-.1437239574-.2817799278-.2929809498-.4199708502-.4422042042-.0553303498-.0552966118-.1051276646-.1105594856-.1549249794-.1658223593-.1546550753-.1658560973-.3094451027-.3372114916-.46423513-.5140999209-.4588370471-.5140661829-.8955419543-1.0502307677-1.3101147216-1.5974614225-.1049927125-.1326578875-.2044523901-.2598164779-.2985139848-.3924743654-.7572160798-1.0115669989-1.4481706919-2.0728638365-2.0671958492-3.178391216-.1492569924-.2597827399-.2874479148-.5195992179-.4256388372-.7849149928-.1935212722-.3648429285-.3759764745-.735185154-.5527636897-1.1055273795-.1106606996-.232151303-.2211864471-.4643363441-.3206461247-.7020206821-.1049927125-.232151303-.2099854251-.4698356411-.3040470197-.7075199791-.0497973148-.1216255555-.0994596776-.243217373-.1492569924-.3593098935-.1215918175-.3150793517-.243183635-.6301587034-.3537093825-.9507373521-.1215918175-.3372114916-.237785552-.6799222802-.3483112996-1.0226330688-.005533035-.0165653669-.01106607-.0276314369-.01106607-.0386975068-.1105257475-.3371777536-.2099854251-.6743555072-.3040470197-1.0170662958-.0994596776-.3537768585-.1933863201-.7075537171-.2763818448-1.0668298726-.0496623627-.1934875342-.0939266426-.3869413304-.1325229354-.5804288646-.0663964197-.2874141768-.1217267695-.5748620916-.1769221673-.8678430414-.0221321399-.1271248525-.0497973148-.2597827399-.0719294547-.3924406274l-3.3551784312,3.2170887226-13.0342109888,13.4763814538-2.8466790214,2.9407068777,2.5592311063,1.6306258944Z" fill="#005a59" stroke-width="0"/>
            <path d="M113.3858267716,218.3545815775v44.799987793l-20.4499511719-78.2299804688-.4899902344-1.8499755859c.1298828125.1300048828.2698974609.2599487305.4099121094.3800048828.1400146484.1299438477.2800292969.2599487305.4100341797.3799438477.4599609375.4100341797.9200439453.8000488281,1.4000244141,1.1800537109.2999267578.2299804688.5999755859.4499511719.8999023438.6799926758.2600097656.1900024414.5200195312.3699951172.7900390625.549987793.080078125.2899780273.1600341797.5599975586.2399902344.8300170898,4.3800048828,14.9899902344,12.5200195312,25.2799682617,16.7900390625,25.2799682617-1.6600341797,0-3,1.3400268555-3,3,0,1.6600341797,1.3399658203,3,3,3Z" fill="#83b1d5" stroke-width="0"/>
            <path d="M96.3540592784,186.2486500226c.0773275376.2819148798.1603230623.5527636897.2376506.8291455346,4.3835132243,14.9854155314,12.5257115772,25.2723397003,16.7930310676,25.2723397005l.0000000003-6.1080320238c-3.150726041-.0000000001-8.5291059455-6.8155520032-12.0336763206-17.1301413468-.01106607-.0386975068-.0276651749-.0773950137-.0387312449-.1215918175-.1049927125-.0442305418-.2099854251-.0884610837-.3206461247-.1381909224-.1049927125-.0497635768-.2099854251-.0939941186-.3149781376-.1437239574-.4367049072-.2045198662-.8734098144-.4145727673-1.2935156167-.6412247734-.1713891323-.0884273456-.3481763475-.1823877263-.5250985148-.2818811418-.243183635-.1271585905-.480969187-.2653495129-.7130867521-.4035404354-.2045873422-.1160587825-.4035066973-.237684338-.6080940395-.3648091905-.4035066973-.243217373-.7959473247-.503033851-1.182854917-.7683496259Z" fill="#fdb043" stroke-width="0"/>
            <path d="M113.3958365373,191.5046059916v20.8499755859h-.0100097656v-6.1099853516c-3.1500244141,0-8.5300292969-6.8200073242-12.0300292969-17.1300048828-.0100097656-.0399780273-.0300292969-.0800170898-.0400390625-.1199951172.3901367188.1699829102.8000488281.3399658203,1.2099609375.5.0200195312.0100097656.0600585938.0200195312.0900878906.0299682617.0500488281.0200195312.0999755859.0400390625.1500244141.0599975586.1800537109.0700073242.3599853516.1400146484.5399169922.200012207.4899902344.1700439453.9699707031.3300170898,1.4799804688.4700317383.330078125.1099853516.6701660156.200012207,1.0100097656.2899780273.1501464844.0399780273.3100585938.0800170898.4799804688.1199951172.2200927734.049987793.4500732422.1099853516.6801757812.1500244141.2799072266.0599975586.5599365234.1199951172.83984375.1699829102.2100830078.0399780273.4200439453.0800170898.6301269531.1099853516.6499023438.1100463867,1.3099365234.200012207,1.9699707031.2600097656.1599121094.0200195312.3199462891.0300292969.4799804688.049987793.830078125.0700073242,1.6599121094.1000366211,2.5100097656.1000366211h.0100097656Z" fill="#83b1d5" stroke-width="0"/>
            <path d="M68.9645914633,167.2888622116c3.0567993984-1.2547843717,6.1910612866-2.3824101529,9.4025157604-3.3773780466.5693627947-.1768884292,1.1387255893-.3482438235,1.713621419-.5140999208,1.0114657848-.2984802467,2.0341325916-.5859281615,3.0623324334-.8512439363l.000000001-22.4477253424c-1.4095743992,0-2.5482999885-1.1442248864-2.5482999884-2.5482325126s1.1387255894-2.5537655474,2.5482999886-2.5537655473h-.9950016319l.0000000002-3.5543002144h1.3708431543c.005533035-.0276314368.005533035-.0552628737.01106607-.0828943106.0276651749-.2266520061.0662614677-.4532702741.1105257476-.6799222802.0221321399-.1823877262.0553303498-.3592761555.0883936076-.5361645848.0497973148-.3040132817.1106606996-.6025272665.1713891323-.8954744783.0719294548-.3427107886.1492569924-.6854215772.2321175651-1.0225993308.0829955247-.3482438236.1713891323-.6964876471.2653157749-1.0391984357.3483112997-1.2713834768.762884067-2.5040357086,1.2493862891-3.6814250668h-3.3497803482c-5.9920069798,11.0663398639-10.707097448,26.267341331-13.332724975,43.7844240076Z" fill="#dfc97d" stroke-width="0"/>
            <path d="M113.3847409499,123.5044382053l-27.7376441635-.0000000012c-.4865022221,1.1773893581-.9010749894,2.41004159-1.2493862891,3.6814250668-.0939266426.3427107886-.1823202502.6909546121-.2653157749,1.0391984357-.0828605726.3371777536-.1601881103.6743555072-.2321175651,1.0225993308-.0607284327.2929472118-.1215918175.5914611966-.1713891323.8954744783-.0330632578.1768884293-.0662614677.3537768585-.0883936076.5361645848-.0442642798.2211189711-.0773275377.4532702741-.1105257476.6799222802-.005533035.0276314369-.005533035.0552628738-.01106607.0828943106l26.2784074016.0000000012c.4919003049.6964876471.9175391421,1.459304238,1.2603174067,2.2718844057h2.3326465764s-.0055330345-10.2095628928-.0055330345-10.2095628928Z" fill="#eea698" stroke-width="0"/>
            <path d="M80.5947610886,137.5501824529c0,1.4040076262,1.1387255892,2.5482325125,2.5482999884,2.5482325126l-.0000000009,21.1542772017c0,.4311381342.0109311178.8623100064.0276651748,1.2879151057.0496623627,1.1773893581.1657211452,2.3382133494.3481763474,3.4713721657.0221321399.1602893243.0496623627.3205786487.0828605726.480901711.0221321399.1326578875.0497973148.2653157749.0719294547.3924406274.0551953977.2929809498.1105257475.5804288646.1769221673.8678430414.0385962928.1934875342.0828605726.3869413304.1325229354.5804288646.0829955247.3592761555.1769221673.7130530141.2763818448,1.0668298726.0940615946.3427107886.1935212722.6798885422.3040470197,1.0170662958,0,.01106607.005533035.0221321399.01106607.0386975068.1105257475.3427107886.2267194821.6854215772.3483112996,1.0226330688.1105257475.3205786487.232117565.6356580004.3537093825.9507373521.0497973148.1160925205.0994596776.237684338.1492569924.3593098935.0940615947.237684338.1990543072.475368676.3040470197.7075199791.0994596776.237684338.2099854251.4698693791.3206461247.7020206821.1767872152.3703422255.3592424175.740684451.5527636897,1.1055273795.1381909224.2653157749.2763818448.5251322528.4256388372.7849149928.6190251574,1.1055273795,1.3099797695,2.1668242171,2.0671958492,3.178391216.0940615947.1326578875.1935212722.2598164779.2985139848.3924743654.4145727673.5472306548.8512776745,1.0833952396,1.3101147216,1.5974614225.1547900274.1768884293.3095800547.3482438236.46423513.5140999209.0497973148.0552628738.0995946296.1105257475.1549249794.1658223593.1381909224.1492232544.2817799278.2984802468.4199708502.4422042042.2267194821.237684338.4643700821.4698356411.7020206821.6964876472.1326578874.1271248525.2708488099.254249705.4090397323.3758752605.1381909224.1326578875.2763818448.2597827399.4145727673.3869413304.4533040121.4035066973.9176740942.7959810628,1.3985083292,1.1718563232.2929809498.2321513031.5970279695.4588033091.9010749893.6798885422.2542497049.1934875342.5140324448.3758752605.7848812547.5582967247.3869075924.2653157749.7793482197.5251322529,1.182854917.7683496259.2045873422.1271248525.4035066973.248750408.6080940395.3648091905.232117565.1381909224.4699031171.2763818449.7130867521.4035404354.1769221673.0994934156.3537093825.1934537962.5250985148.2818811418.4201058023.2266520061.8568107095.4367049072,1.2935156167.6412247734.1049927125.0497298388.2099854251.0939603806.3149781376.1437239574.1106606996.0497298388.2156534121.0939603806.3206461247.1381909224.3979736623.1768884293.8014803597.3427107886,1.210520092.503000113.0276651749.01106607.0608633848.0220984019.0940615947.0331644719.0441293278.0220984019.0939266426.0386975068.1492569924.0552966118.1767872152.0718282407.3592424175.1381909224.5416976198.1989868312.48636727.1713553943.972869492.3316447187,1.4758358669.4753686761.3317121947.1050264506.6688224722.1989868312,1.0116007368.2874479149.1547900274.0386975069.3151130897.0828943107.480834235.1160587825.2211864471.0552966118.4477709772.1105594856.6798885422.1547900274.2763818449.0607959088.5582967247.1215918175.8402116045.1713553943.2101203772.0386975069.4145727673.0773950137.6246931445.1105594856.6522233673.1105257476,1.3099797695.1989868312,1.9734041589.25978274.1601881103.0165991049.3205111726.0331644719.480834235.0442305418.8291455346.0718619787,1.6638241041.1050264506,2.5095687436.1050264507h.005533035l.0000000025-55.2266391331h-1.5366992517c.1823202502.8899751813.2763818448,1.8186141314.2763818447,2.7693514835-.0000000002,3.6869581018-1.4261735045,6.9814081001-3.6648934383,9.1869298239-.0053980829.005533035-.0164641529.01106607-.0221321399.0165991049-.9120061072.7904480277-1.9125407742,1.4758696048-2.9793369088,2.0231002595-.0221321399.01106607-.0497973148.0221321399-.0717945027.0331644719-1.9734041589,1.0115669987-4.1955249878,1.5753967583-6.5447706691,1.5753967582-8.2969883808-.0000000004-15.0240792997-7.0588031145-15.0240792993-15.7592981926,0-.3814082954.01106607-.7572835559.0387312449-1.1276257813h-.7186197871c-1.4095743992,0-2.5482999886,1.1441911481-2.5482999886,2.5537655473Z" fill="#eea698" stroke-width="0"/>
          </g>
          <path d="M113.3908603344,133.7109749621v2.5692104107h-1.5367545533c.1812473756.8905557093.2757192031,1.8205067478.2757192031,2.7662351587,0,3.688297511-1.42640915,6.982545526-3.6645833507,9.1892130837-.0078886862.0078886862-.0157773724.0078886862-.0236660586.0157773724-.9141255644.7880989921-1.915026677,1.4737412672-2.9790372792,2.025420182-.0236660586.0078405845-.0472359137.0236179569-.0709019723.0315066431-1.9702474804,1.0087897988-4.1926443087,1.5761979843-6.5411639127,1.5761979843-8.2987054762,0-15.0291016542-7.0613842863-15.0291016542-15.761979843,0-.3782721237.0157773724-.7565923491.039443431-1.1269757866h-1.7102094462v-3.5543341509h27.6464780113c.4887137305.6935309612.9142217679,1.4579638948,1.2610353502,2.2697289455h2.3327422316Z" fill="#2e2e2e" stroke-width="0"/>
          <path d="M113.3870976324,107.8556967975v6.2462229462h-24.9075642472c.4534389642-1.6582910692.8844758844-3.8306483212,1.3376449445-6.2462229462h23.5699193028Z" fill="#630500" stroke-width="0"/>
        </g>
        <g>
          <path d="M136.962415018,107.8556967975h-23.5696493986v-22.4974889192c4.2450523984-.0773950137,16.8536245494-.1879544992,17.8762913562,1.3155802806,2.7527523786,4.0186028204,4.3060507352,13.7416972293,5.6933580424,21.1819086386Z" fill="#3a3a3a" stroke-width="0"/>
          <path d="M151.5388582929,117.8230778713v1.960199505c0,2.0551388856-1.666019242,3.7211581276-3.7211581276,3.7211581276h-34.4249345459v-9.4025157602h34.4249345459c2.0551388856,0,3.7211581276,1.666019242,3.7211581276,3.7211581276Z" fill="#3a3a3a" stroke-width="0"/>
          <g>
            <path d="M143.6319268674,161.2526921662v1.2934481407c-.005533035-.005533035-.0165991049-.005533035-.0276651749-.005533035.016734057-.4256050992.0276651749-.8567769715.0276651749-1.2879151057Z" fill="none" stroke="#38393a" stroke-miterlimit="10"/>
            <path d="M143.625817006,161.6845986674c.0100097656.0700073242,0,.1499633789-.0100097656.2199707031.0100097656.2100219727,0,.4200439453-.0100097656.6400146484h.0300292969v-1.2899780273c0,.1400146484,0,.2899780273-.0100097656.4299926758Z" fill="none" stroke="#38393a" stroke-miterlimit="10"/>
            <path d="M217.3557974748,283.4645669291h-103.9699707031v-20.3099975586h.0100097656v-.0099487305l38.9799804687-60.4700317383-5.2900390625-6.7799682617,12.7600097656-8.1400146484,2.5600585938-1.6300048828-2.8400878906-2.9400024414-13.0400390625-13.4700317383-3.3498535156-3.2199707031c.0300292969-.1600341797.0599365234-.3200073242.0799560547-.4799804688.0499267578-.2900390625.0899658203-.5700073242.1199951172-.8600463867.0400390625-.2899780273.0700683594-.5700073242.0999755859-.8599853516.0400390625-.2899780273.0599365234-.5800170898.0799560547-.8699951172s.0400390625-.5800170898.0500488281-.8800048828h.0300292969c1.0300292969.2600097656,2.0400390625.549987793,3.0600585938.8500366211.5798339844.1699829102,1.1398925781.3399658203,1.7099609375.5199584961,2.419921875.7399902344,4.7800292969,1.5700073242,7.0999755859,2.4600219727.7698974609.2899780273,1.5399169922.5999755859,2.2999267578.9099731445,34.4899902344,14.1300048828,58.5600585938,79.6500244141,59.5500488281,116.1799926758Z" fill="#3a3a3a" stroke-width="0"/>
            <path d="M159.8457877091,187.7546059916l-12.7600097656,8.1400146484,5.2900390625,6.7799682617-38.9799804687,60.4700317383v.0099487305h-.0100097656l.0100097656-.0399780273,20.4499511719-78.1900024414.4799804688-1.8400268555v-.0099487305h.0100097656c.2399902344-.2400512695.4699707031-.4600219727.6999511719-.700012207.0700683594-.0700073242.1301269531-.1400146484.2100830078-.2200317383.0699462891-.0700073242.1400146484-.1499633789.2100830078-.2199707031.0499267578-.049987793.0998535156-.1099853516.1499023438-.1600341797v-.0099487305c.0700683594-.0800170898.1500244141-.1600341797.2199707031-.2400512695.080078125-.0899658203.1600341797-.1799926758.2399902344-.2699584961.2299804688-.25.4599609375-.5200195312.6700439453-.7800292969.2200927734-.2699584961.4300537109-.5399780273.6400146484-.8200073242.0899658203-.0999755859.169921875-.1999511719.2399902344-.299987793.0200195312-.0299682617.0400390625-.049987793.0600585938-.0800170898.7600097656-1.0199584961,1.4499511719-2.0799560547,2.0699462891-3.1900024414.1500244141-.2599487305.2899169922-.5199584961.4300537109-.7799682617.0799560547-.1500244141.1499023438-.299987793.2199707031-.450012207.1099853516-.2199707031.2199707031-.4400024414.3299560547-.6599731445.1099853516-.2300415039.2200927734-.4600219727.3199462891-.700012207.0500488281-.1099853516.1000976562-.2299804688.1501464844-.3499755859.0499267578-.1200561523.1098632812-.2400512695.1499023438-.3600463867.0500488281-.1199951172.1000976562-.2299804688.1500244141-.3499755859.0599365234-.1600341797.1199951172-.3200073242.1800537109-.4799804688.0699462891-.1600341797.1298828125-.3200073242.1799316406-.4800415039.0500488281-.1400146484.1000976562-.2799682617.1400146484-.4299926758.0200195312-.0299682617.0299072266-.0599975586.0299072266-.0800170898.0600585938-.1699829102.1201171875-.3399658203.1701660156-.5099487305.0100097656-.0100097656.0100097656-.0200195312.0198974609-.0300292969.1099853516-.3400268555.2100830078-.6799926758.3000488281-1.0200195312.0999755859-.3599853516.1900634766-.7099609375.2799072266-1.0700073242.0500488281-.1899414062.0900878906-.3899536133.1301269531-.5799560547.0699462891-.2900390625.1198730469-.5700073242.1799316406-.8699951172.0200195312-.1300048828.0400390625-.2600097656.0700683594-.3900146484l3.3498535156,3.2199707031,13.0400390625,13.4700317383,2.8400878906,2.9400024414-2.5600585938,1.6300048828Z" fill="#007272" stroke-width="0"/>
            <path d="M134.3357779435,183.0746133158l-.4899902344,1.8499755859-20.4499511719,78.2200317383v-44.7900390625c1.6599121094,0,3-1.3399658203,3-3,0-1.6599731445-1.3400878906-3-3-3,2.5400390625-.0100097656,6.4299316406-3.6400146484,10.0999755859-9.7199707031.5799560547-.9600219727,1.1500244141-1.9800415039,1.7100830078-3.0599975586,1.6899414062-3.2300415039,3.2598876953-6.9800415039,4.5599365234-11.1100463867.1400146484-.4599609375.2799072266-.9199829102.4200439453-1.3899536133.0699462891-.2700195312.1599121094-.5400390625.2399902344-.8300170898.2600097656-.1799926758.5200195312-.3599853516.7800292969-.549987793.1499023438-.1100463867.2999267578-.2300415039.4499511719-.3400268555.1499023438-.1099853516.3000488281-.2199707031.4499511719-.3399658203.2399902344-.1900024414.4799804688-.3800048828.7099609375-.5800170898.2299804688-.1900024414.4699707031-.3900146484.6900634766-.6000366211.0699462891-.0599975586.1400146484-.1199951172.2099609375-.1899414062.0699462891-.0600585938.1400146484-.1200561523.2100830078-.1900024414.0599365234-.0599975586.1298828125-.1200561523.1999511719-.1900024414.0600585938-.0500488281.1300048828-.1199951172.1999511719-.1800537109v-.0099487305h.0100097656Z" fill="#a7def6" stroke-width="0"/>
            <path d="M130.4258658341,186.244596226c-.080078125.2899780273-.1700439453.5599975586-.2399902344.8300170898-.1401367188.4699707031-.2800292969.9299926758-.4200439453,1.3899536133-.4901123047,1.5500488281-1.0100097656,3.0400390625-1.5699462891,4.4800415039-.3701171875.950012207-.7600097656,1.8800048828-1.1501464844,2.7799682617-.1999511719.450012207-.3999023438.9000244141-.5998535156,1.3300170898-.41015625.8699951172-.8200683594,1.7100219727-1.2399902344,2.5200195312-.5600585938,1.0799560547-1.1401367188,2.0999755859-1.7100830078,3.0599975586-3.6700439453,6.0799560547-7.5599365234,9.7099609375-10.0999755859,9.7199707031h-.0100097656v-6.1099853516h.0100097656c3.1599121094-.0100097656,8.5200195312-6.8300170898,12.0300292969-17.1300048828.0100097656-.0399780273.0300292969-.0800170898.0399169922-.1199951172.0999755859-.049987793.2000732422-.0900268555.3099365234-.1400146484.1101074219-.0599975586.2200927734-.0899658203.3200683594-.1499633789.4399414062-.200012207.8699951172-.4100341797,1.3000488281-.6400146484.169921875-.0900268555.3499755859-.1799926758.5200195312-.2800292969.2399902344-.1300048828.4799804688-.2600097656.7199707031-.3999633789.1999511719-.1199951172.3999023438-.2399902344.5999755859-.3699951172.4100341797-.2400512695.7999267578-.5,1.1900634766-.7700195312Z" fill="#fed15c" stroke-width="0"/>
            <path d="M113.3958365373,212.3545815775v50.7600097656l-.0100097656.0399780273v-44.799987793c-1.6600341797,0-3-1.3399658203-3-3,0-1.6599731445,1.3399658203-3,3-3h.0100097656Z" fill="#fdb043" stroke-width="0"/>
            <path d="M116.3958365373,215.3545815775c0,1.6600341797-1.3400878906,3-3,3v-6c1.6599121094,0,3,1.3400268555,3,3Z" fill="#fed15c" stroke-width="0"/>
            <path d="M157.8081079875,167.2918614732c-3.0578279377-1.2609391467-6.1865578477-2.3879149333-9.4020633059-3.3809273597-.5674081855-.1734067912-1.134816371-.3467654806-1.7101132427-.5122835856-1.016678485-.2994814652-2.0254682838-.5910742441-3.0578279377-.8511122783h-.0078886862v-22.4529806918c1.4106317776,0,2.5534330383-1.1427050572,2.5534330383-2.5455443521,0-1.4106798793-1.1428012607-2.5534330383-2.5534330383-2.5534330383h.9930124264v-3.5543341509h-1.3634920673c-.0078886862-.0236179569-.0078886862-.0551727017-.0156811689-.0787906585-.0315547448-.2285794928-.0630132861-.4649995701-.1103454033-.685642275-.0236660586-.1812954774-.0552208034-.3546541668-.0866793447-.5359496442-.0472359137-.2994333634-.1103454033-.5989148286-.1734548929-.8905076075-.0708057688-.3467654806-.1496926308-.6856903768-.2284832893-1.0245671712-.0866793447-.3467654806-.1734548929-.6935309612-.2679267204-1.0402964418-.3468135824-1.2688278329-.7644329335-2.5061490228-1.253146664-3.6804088248h3.3573094028c5.9896293031,11.0649406349,10.7024458836,26.2673528768,13.3267808942,43.7867780797Z" fill="#ffea7c" stroke-width="0"/>
            <path d="M143.2597351741,131.4412460166h-26.282985944c-.4887137305.6935309612-.9143179714,1.4579638948-1.2610353502,2.2697289455h-2.3327422316l.0078886862-5.0990254921v-5.1068660766h27.733157356c.4887137305,1.174259802.9063330817,2.4115809919,1.253146664,3.6804088248.0944718274.3467654806.1812473756.6935309612.2679267204,1.0402964418.0787906585.3388767944.1576775205.6778016906.2284832893,1.0245671712.0631094896.291592779.1262189792.5910742441.1734548929.8905076075.0314585413.1812954774.0630132861.3546541668.0866793447.5359496442.0473321172.2206427049.0787906585.4570627822.1103454033.685642275.0077924827.0236179569.0077924827.0551727017.0156811689.0787906585Z" fill="#fcc2b1" stroke-width="0"/>
            <path d="M144.6232272414,131.4412460166v3.5543341509h-1.7102094462c.0315547448.3703834375.039443431.7487036629.039443431,1.1269757866,0,8.7005955567-6.7303961781,15.761979843-15.021212968,15.761979843-2.3564082902,0-4.5710126359-.5674081855-6.5491488024-1.5761979843-.0235698551-.0078886862-.0472359137-.0236660586-.0708057688-.0315066431-1.0640106022-.5516789149-2.0649117148-1.2373211899-2.9790372792-2.025420182-.0078886862-.0078886862-.0157773724-.0078886862-.0236660586-.0157773724-2.2382704042-2.2066675577-3.6646795542-5.5009155726-3.6646795542-9.1892130837,0-.9457284109.0945680309-1.8756794495.2758154066-2.7662351587h-1.5288658671v-2.5692104107h2.3248535454c.3467173789-.8117650508.7723216197-1.5761979843,1.2610353502-2.2697289455h27.6464780113Z" fill="#3a3a3a" stroke-width="0"/>
            <path d="M125.7757193498,188.8545815775c-.1098632812.049987793-.2099609375.0900268555-.3099365234.1400146484-.0098876953.0399780273-.0299072266.0800170898-.0399169922.1199951172-3.5100097656,10.299987793-8.8701171875,17.1199951172-12.0300292969,17.1300048828v-14.7399902344c.8399658203,0,1.669921875-.0300292969,2.5-.1000366211.169921875-.0099487305.3199462891-.0299682617.4799804688-.049987793.669921875-.0599975586,1.330078125-.1400146484,1.9799804688-.2600097656.2099609375-.0299682617.4100341797-.0700073242.6199951172-.1099853516.2900390625-.049987793.5699462891-.1099853516.8499755859-.1699829102.2199707031-.049987793.4499511719-.1000366211.6700439453-.1600341797.1700439453-.0299682617.3299560547-.0700073242.4799804688-.1099853516.3399658203-.0899658203.6800537109-.1900024414,1.0100097656-.2899780273.5100097656-.1400146484,1-.299987793,1.4799804688-.4700317383.1900634766-.0599975586.3699951172-.1300048828.5400390625-.2099609375.0599365234-.0100097656.1099853516-.0300292969.1500244141-.0500488281.0300292969-.0099487305.0699462891-.0199584961.0999755859-.0299682617.4000244141-.1600341797.8099365234-.3300170898,1.2099609375-.5100097656.0999755859-.0399780273.2000732422-.0800170898.3099365234-.1300048828Z" fill="#a7def6" stroke-width="0"/>
            <path d="M146.1858755998,137.5445840189c0,1.4100341797-1.1401367188,2.549987793-2.5600585938,2.549987793v21.1600341797c0,.2099609375,0,.4299926758-.0100097656.6499633789.0100097656.2100219727,0,.4200439453-.0100097656.6400146484-.0100097656.299987793-.0300292969.5900268555-.0500488281.8800048828-.0599365234.8800048828-.1599121094,1.7399902344-.2999267578,2.5900268555-.0200195312.1599731445-.0499267578.3199462891-.0799560547.4799804688-.0300292969.1300048828-.0500488281.2600097656-.0700683594.3900146484-.0600585938.299987793-.1099853516.5799560547-.1799316406.8699951172-.0400390625.1900024414-.080078125.3900146484-.1301269531.5799560547-.08984375.3600463867-.1799316406.7100219727-.2799072266,1.0700073242-.0899658203.3400268555-.1900634766.6799926758-.3000488281,1.0200195312,0,0-.0098876953.0100097656-.0098876953.0399780273-.0500488281.1600341797-.1101074219.3300170898-.1801757812.5-.0098876953.0599975586-.0399169922.1199951172-.0599365234.1900024414-.0399169922.1000366211-.0799560547.2100219727-.1199951172.3200073242-.0600585938.1700439453-.1099853516.3300170898-.169921875.4800415039-.0600585938.1599731445-.1201171875.3199462891-.1800537109.4799804688-.0499267578.1099853516-.0999755859.2299804688-.1400146484.3499755859-.0300292969.0599975586-.0500488281.1199951172-.080078125.1799926758-.0798339844.1800537109-.1599121094.3600463867-.2299804688.5300292969-.0998535156.2399902344-.2099609375.4699707031-.3199462891.700012207-.1199951172.25-.25.5100097656-.3800048828.7600097656-.0600585938.1199951172-.1199951172.2299804688-.1799316406.3499755859-.1301269531.2600097656-.2700195312.5200195312-.4200439453.7799682617-.6199951172,1.1100463867-1.3099365234,2.1700439453-2.0699462891,3.1900024414-.0900878906.1200561523-.1900634766.25-.3000488281.3800048828-.3100585938.4100341797-.6300048828.8200073242-.9699707031,1.2100219727-.1000976562.1300048828-.2199707031.2600097656-.330078125.3900146484-.0799560547.0899658203-.1599121094.1799926758-.25.2699584961-.0699462891.0800170898-.1499023438.1600341797-.2199707031.2400512695v.0099487305c-.0600585938.0599975586-.0999755859.1000366211-.1599121094.1600341797-.0600585938.0700073242-.1401367188.1499633789-.2000732422.2199707031-.0799560547.0800170898-.1400146484.1500244141-.2100830078.2200317383-.2299804688.25-.4599609375.4599609375-.6999511719.700012207h-.0100097656c-.0300292969.0299682617-.0699462891.0700073242-.0999755859.0999755859-.0299072266.0300292969-.0699462891.0599975586-.0999755859.0900268555-.0700683594.0599975586-.1400146484.1199951172-.1999511719.1799926758-.080078125.0700073242-.1401367188.1399536133-.2100830078.200012207-.0699462891.0599975586-.1400146484.1299438477-.2099609375.1999511719-.0599365234.0500488281-.1199951172.1000366211-.1800537109.1500244141-.169921875.1500244141-.3399658203.299987793-.5100097656.4400024414-.2299804688.1900024414-.4699707031.3900146484-.7099609375.5700073242-.1400146484.1199951172-.3000488281.2399902344-.4499511719.3499755859-.1500244141.1099853516-.3000488281.2299804688-.4499511719.3400268555-.2600097656.1900024414-.5200195312.3699951172-.7800292969.549987793-.3901367188.2700195312-.7800292969.5299682617-1.1900634766.7700195312-.2000732422.1300048828-.4000244141.25-.5999755859.3699951172-.2399902344.1399536133-.4799804688.2699584961-.7199707031.3999633789-.1700439453.1000366211-.3500976562.1900024414-.5200195312.2800292969-.4300537109.2299804688-.8601074219.4400024414-1.3000488281.6400146484-.0999755859.0599975586-.2099609375.0899658203-.3200683594.1499633789-.1098632812.049987793-.2099609375.0900268555-.3099365234.1300048828-.4000244141.1799926758-.8099365234.3499755859-1.2099609375.5100097656-.0300292969.0100097656-.0699462891.0200195312-.0999755859.0299682617-.0400390625.0200195312-.0900878906.0400390625-.1500244141.0500488281-.1700439453.0799560547-.3499755859.1499633789-.5400390625.2099609375-.4799804688.1700439453-.9699707031.3300170898-1.4799804688.4700317383-.3299560547.0999755859-.6700439453.200012207-1.0100097656.2899780273-.1500244141.0399780273-.3099365234.0800170898-.4799804688.1099853516-.2200927734.0599975586-.4500732422.1100463867-.6700439453.1600341797-.2800292969.0599975586-.5599365234.1199951172-.8499755859.1699829102-.2099609375.0399780273-.4100341797.0800170898-.6199951172.1099853516-.6499023438.1199951172-1.3100585938.200012207-1.9799804688.2600097656-.1600341797.0200195312-.3100585938.0400390625-.4799804688.049987793-.830078125.0700073242-1.6600341797.1000366211-2.5.1000366211h-.0100097656v-55.2200317383h1.5300292969c-.1800537109.8900146484-.2700195312,1.8200073242-.2700195312,2.7600097656,0,3.6900024414,1.419921875,6.9799804688,3.6599121094,9.1900024414.0100097656.0100097656.0200195312.0100097656.0300292969.0200195312.9100341797.7799682617,1.9100341797,1.4699707031,2.9799804688,2.0199584961.0200195312.0100097656.0400390625.0300292969.0700683594.0300292969,1.9699707031,1.0100097656,4.1899414062,1.5800170898,6.5500488281,1.5800170898,8.2899169922,0,15.0200195312-7.0599975586,15.0200195312-15.7600097656,0-.3800048828-.0100097656-.7600097656-.0400390625-1.1300048828h.7099609375c1.419921875,0,2.5600585938,1.1400146484,2.5600585938,2.549987793Z" fill="#fcc2b1" stroke-width="0"/>
          </g>
          <path d="M138.3003298666,114.1019197437h-24.9075642472v-6.2462229462h23.5696493986c.4534389642,2.415574625.8844758844,4.5879318771,1.3379148486,6.2462229462Z" fill="#861c16" stroke-width="0"/>
          <polygon points="183.8312698616 236.7546629526 157.0332969802 236.7546629526 163.174695904 227.9049108821 168.2324296841 232.3325534348 178.2650366717 223.6099262168 183.8312698616 236.7546629526" fill="#861c16" stroke-width="0"/>
          <rect x="152.2325466521" y="234.3598892459" width="35.3469787222" height="7.7685667521" fill="#007272" stroke-width="0"/>
        </g>
      </g>
      <g>
        <circle cx="123.2575455092" cy="273.7859186451" r="3.7647295914" fill="#861c16" stroke-width="0"/>
        <circle cx="103.5174424303" cy="273.7859186451" r="3.7647295914" fill="#630500" stroke-width="0"/>
      </g>
    </g>

      <path class="sorriso" d="
      M132.860597548,164.0825991706s2.5369865101,13.2747323166-33.1206781733,6.0669220725" stroke-width="3" fill="none" stroke="#ea8d74"/>
  
    <g id="sigaro">
      <path d="M110.0227147553,172.6156881582c-.0500488281.0599975586-1.5404366069,2.1034791421-1.6004952006,2.153466935l-20.1899414063,20.6400146484-8.2800292969-7.450012207,20.3000488281-20.7600097656c1.1799316406-1.3399658203,3.3977506558-.576915748,6.2211303982.6586638382,2.8991760298,1.2687498835,4.7292183181,3.4278594611,3.5492866775,4.757876551Z" fill="#623627" stroke-width="0"/>
      <ellipse cx="84.1198736045" cy="191.6575837247" rx="3.232122873" ry="5.576827657" transform="translate(-115.0383173534 127.2774819165) rotate(-48.388984995)" fill="gray" stroke-width="0"/>
    </g>
    <g id="fuoco" class="fuoco">
      <polygon points="84.1198736045 187.1233670282 88.6626065276 180.6904562918 87.326048978 188.4514083513 95.0870010375 187.1148508018 88.6540903011 191.6575837248 95.0870010375 196.2003166478 87.326048978 194.8637590983 88.6626065276 202.6247111578 84.1198736045 196.1918004213 79.5771406815 202.6247111578 80.913698231 194.8637590983 73.1527461715 196.2003166478 79.585656908 191.6575837248 73.1527461715 187.1148508018 80.913698231 188.4514083513 79.5771406815 180.6904562918 84.1198736045 187.1233670282" fill="#ed1c24" stroke-width="0"/>
      <polygon points="84.1198736045 189.242612392 86.5393807688 185.8163767145 85.8275162103 189.949941119 89.9610806148 189.2380765605 86.5348449374 191.6575837248 89.9610806148 194.0770908891 85.8275162103 193.3652263306 86.5393807688 197.4987907351 84.1198736045 194.0725550576 81.7003664402 197.4987907351 82.4122309987 193.3652263306 78.2786665942 194.0770908891 81.7049022717 191.6575837248 78.2786665942 189.2380765605 82.4122309987 189.949941119 81.7003664402 185.8163767145 84.1198736045 189.242612392" fill="#fff200" stroke-width="0"/>
    </g>
  </g>
</svg>