<?xml version="1.0" encoding="UTF-8"?>
<svg id="base" xmlns="http://www.w3.org/2000/svg" viewBox="0 0 226.77 283.46">
  <rect id="sfondo" x="0" y=".03" width="226.77" height="283.4" fill="#f069a3" stroke-width="0"/>
  <g id="corpo">
    <path d="M96.43,201.96c2.84.93,9.02,3.34,13.83,7.74.52-.95,1.73-1.61,3.13-1.61v-7.79c-.87.02-1.74.12-2.62.08-.82-.03-1.65-.08-2.48-.06-.93.02-1.86,0-2.8,0-1.62-.01-3.21-.2-4.79-.53-1.79-.37-3.52-.9-5.18-1.68-.63-.3-1.27-.58-1.91-.86l-.02-.02s-.05-.03-.08-.05c-.1-.06-.21-.12-.31-.18-1.08-2.04-1.97-4.25-2.66-6.59h-.8c-1.37,0-2.74.06-4.08.18-.09.01-.17.02-.26.03-.15.01-.31.03-.47.04-.55.06-1.11.13-1.65.21-.3.04-.58.08-.87.13-.35.06-.7.12-1.05.18-.1.02-.2.04-.3.06-.35.07-.68.14-1.01.21-.32.07-.63.14-.94.22-1.56.37-3.08.82-4.57,1.35-.25.09-.49.18-.72.26-.35.14-.7.27-1.05.42-16.59,6.7-28.3,22.97-28.3,41.96v47.8h68.92v-69.99c-1.52,0-2.82-.78-3.25-1.87l-15.27,8.47v-18.59s.58.15,1.56.48Z" fill="#7e6651" stroke-width="0"/>
    <path d="M96.43,201.96c2.84.93,9.02,3.34,13.83,7.74.52-.95,1.73-1.61,3.13-1.61v-7.79c-.87.02-1.74.12-2.62.08-.82-.03-1.65-.08-2.48-.06-.93.02-1.86,0-2.8,0-1.62-.01-3.21-.2-4.79-.53-1.79-.37-3.52-.9-5.18-1.68-.63-.3-1.27-.58-1.91-.86l-.02-.02s-.05-.03-.08-.05c-.1-.06-.21-.12-.31-.18-1.08-2.04-1.97-4.25-2.66-6.59h-.8c-1.37,0-2.74.06-4.08.18-.09.01-.17.02-.26.03-.15.01-.31.03-.47.04-.55.06-1.11.13-1.65.21-.3.04-.58.08-.87.13-.35.06-.7.12-1.05.18-.1.02-.2.04-.3.06-.35.07-.68.14-1.01.21-.32.07-.63.14-.94.22-1.56.37-3.08.82-4.57,1.35-.25.09-.49.18-.72.26-.35.14-.7.27-1.05.42-2.04,8.86,8.59,46.74,40.62,86.54v-66.77c-1.52,0-2.82-.78-3.25-1.87l-15.27,8.47v-18.59s.58.15,1.56.48Z" fill="#644890" stroke-width="0"/>
    <path d="M113.38,280.24v-5.26c-23.52-33.99-33.89-75.52-33.34-83.53-.32.06-.63.13-.94.21-1.56.37-3.08.82-4.57,1.36-.25.09-.48.17-.72.26-.35.13-.7.27-1.05.41-2.04,8.86,8.59,46.75,40.62,86.54Z" fill="#483b3b" stroke-width="0"/>
    <rect x="57.91" y="241.1" width="24.81" height="4.99" transform="translate(140.63 487.19) rotate(-180)" fill="#483b3b" stroke-width="0"/>
    <path d="M111.39,147.67v.9c.01,1.66-.56,2.5-2.11,3.1-.04.07-.1.08-.16.02h-7.84c1.53-1.13,3.16-2.05,4.87-2.73.64-.26,1.28-.48,1.94-.66,1.08-.3,2.18-.52,3.3-.63Z" fill="#e7a196" stroke-width="0"/>
    <path d="M113.39,200.3v7.79c-1.4,0-2.61.66-3.13,1.61-4.81-4.4-10.99-6.81-13.83-7.74-1.2-1.5-2.29-3.17-3.23-4.96.1.06.21.12.31.18.03.02.05.03.08.05l.02.02c.64.28,1.28.56,1.91.86,1.66.78,3.39,1.31,5.18,1.68,1.58.33,3.17.52,4.79.53.94,0,1.87.02,2.8,0,.83-.02,1.66.03,2.48.06.88.04,1.75-.06,2.62-.08Z" fill="#e7a196" stroke-width="0"/>
    <path d="M94.86,201.49v18.59s15.27-8.47,15.27-8.47c.44,1.09,1.73,1.87,3.25,1.87v-5.38c-1.4,0-2.61.67-3.13,1.62-4.8-4.41-10.99-6.81-13.83-7.75-.98-.33-1.56-.48-1.56-.48Z" fill="#1a1716" stroke-width="0"/>
    <path d="M154.01,193.7c-.35-.15-.7-.28-1.05-.42-.24-.08-.47-.17-.72-.26-1.49-.53-3.01-.98-4.57-1.35-.31-.08-.62-.15-.94-.22-.33-.07-.67-.14-1.01-.21-.1-.02-.2-.04-.31-.06-.35-.06-.69-.12-1.04-.18-.29-.05-.57-.09-.87-.13-.54-.08-1.1-.15-1.65-.21-.14-.01-.28-.03-.41-.04-.11-.01-.21-.02-.32-.03-1.34-.12-2.71-.18-4.08-.18h-23.62v9.45c0,.18.03.33.17.44h-.2v7.79c1.4,0,2.61.66,3.13,1.61,4.81-4.4,10.99-6.81,13.83-7.74.97-.33,1.56-.48,1.56-.48v18.59l-15.27-8.47c-.44,1.09-1.73,1.87-3.25,1.87v69.99h68.92v-47.8c0-18.99-11.71-35.26-28.3-41.96Z" fill="#9a7f6d" stroke-width="0"/>
    <path d="M154.01,193.7c-.35-.15-.7-.28-1.05-.42-.24-.08-.47-.17-.72-.26-1.49-.53-3.01-.98-4.57-1.35-.31-.08-.62-.15-.94-.22-.33-.07-.67-.14-1.01-.21-.1-.02-.2-.04-.31-.06-.35-.06-.69-.12-1.04-.18-.29-.05-.57-.09-.87-.13-.54-.08-1.1-.15-1.65-.21-.14-.01-.28-.03-.41-.04-.11-.01-.21-.02-.32-.03-1.34-.12-2.71-.18-4.08-.18h-23.62v9.45c0,.18.03.33.17.44h-.2v7.79c1.4,0,2.61.66,3.13,1.61,4.81-4.4,10.99-6.81,13.83-7.74.97-.33,1.56-.48,1.56-.48v18.59l-15.27-8.47c-.44,1.09-1.73,1.87-3.25,1.87v66.77c32.02-39.8,42.66-77.68,40.62-86.54Z" fill="#8c5f9c" stroke-width="0"/>
    <path d="M113.38,280.24v-5.26c23.52-33.99,33.89-75.52,33.34-83.53.32.06.63.13.94.21,1.56.37,3.08.82,4.57,1.36.25.09.48.17.72.26.35.13.7.27,1.05.41,2.04,8.86-8.59,46.75-40.62,86.54Z" fill="#614d4f" stroke-width="0"/>
    <path d="M125.52,151.7h-6.71c-.4,0-.79-.01-1.18-.01-.05.05-.1.04-.13-.02-1.32-.31-2.2-1.41-2.21-2.76,0-.42,0-.83.01-1.25,1.15.11,2.28.33,3.38.64.65.18,1.3.4,1.93.65,1.73.68,3.37,1.61,4.91,2.75Z" fill="#fac29f" stroke-width="0"/>
    <path d="M136.24,190.41c-.69,2.34-1.58,4.56-2.67,6.6-.94,1.79-2.02,3.45-3.22,4.95-2.84.93-9.02,3.34-13.83,7.74-.52-.95-1.73-1.61-3.13-1.61v-7.79h.2c-.14-.11-.17-.26-.17-.44v-9.45h22.82Z" fill="#fac29f" stroke-width="0"/>
    <path d="M113.38,208.09v5.38c1.52,0,2.81-.78,3.25-1.87l15.27,8.47v-18.59s-.59.15-1.56.48c-2.84.94-9.02,3.34-13.83,7.75-.52-.95-1.73-1.62-3.13-1.62Z" fill="#353436" stroke-width="0"/>
    <g>
      <path d="M113.42,147.58v32.89c0,3.31,0,6.63,0,9.94h-22.88c-1.02-3.49-1.59-7.28-1.59-11.24,0-11.78,4.97-22.05,12.33-27.48h7.84c.06.06.12.05.16-.02,1.55-.6,2.12-1.44,2.11-3.1v-.9c.62-.06,1.25-.09,1.88-.09h.15Z" fill="#f7b098" stroke-width="0"/>
      <path d="M113.59,200.3h-.2c-.87.02-1.74.12-2.62.08-.82-.03-1.65-.08-2.48-.06-.93.02-1.86,0-2.8,0-1.62-.01-3.21-.2-4.79-.53-1.79-.37-3.52-.9-5.18-1.68-.63-.3-1.27-.58-1.91-.86l-.02-.02s-.05-.03-.08-.05c-.1-.06-.21-.12-.31-.18-1.08-2.04-1.97-4.25-2.66-6.59h22.88v9.45c0,.18.03.33.17.44Z" fill="#f7b098" stroke-width="0"/>
      <path d="M88.95,179.17c0,3.96.57,7.75,1.59,11.24.69,2.34,1.58,4.55,2.66,6.59-.26-.15-.52-.3-.78-.45-1.75-1.01-3.31-2.28-4.83-3.6-.65-.69-1.33-1.37-1.97-2.08-.07-.08-.15-.16-.22-.25-1.5-1.72-2.75-3.62-3.8-5.65-1.44-2.79-2.32-5.75-2.76-8.84-.07-.53-.08-1.07-.12-1.6-.1-.18-.06-.38-.06-.57-.01-2.98-.02-5.96-.01-8.93.01-.34-.04-.57-.42-.6-1.56-.08-2.99-.6-4.31-1.41-2.09-1.3-3.56-3.11-4.36-5.44-.31-.9-.53-1.83-.53-2.8,0-1.55-.04-3.09.02-4.64.08-2.32.89-4.37,2.38-6.16.82-.99,1.81-1.76,2.87-2.44.07.05.12.02.19-.02,1.04-.66,2.17-1.1,3.41-1.23.01.17.02.33.02.5,0,2.65,0,5.31-.01,7.96-.01,1.19.47,2.08,1.5,2.67.06.23.25.16.4.18h.01c.07.1.16.1.26.07.05.01.11.01.17.02.02.04.05.04.08,0h20.95c-7.36,5.43-12.33,15.7-12.33,27.48Z" fill="#f7b098" stroke-width="0"/>
      <path d="M114.35,146.01c-.09.29-.32.16-.5.17-.44.02-.59.16-.49.6.05.22.06.44.06.66v.14h-.15c-.63,0-1.26.03-1.88.09v-1.38c0-.15-.02-.29.23-.29.91-.01,1.82-.04,2.73.01Z" fill="#f7b098" stroke-width="0"/>
      <path d="M137.83,179.17c0,3.96-.57,7.75-1.59,11.24h-22.82c0-3.31,0-6.63,0-9.94v-32.89h.09c.6,0,1.2.03,1.79.08-.01.42-.01.83-.01,1.25.01,1.35.89,2.45,2.21,2.76.03.06.08.07.13.02.39,0,.78.01,1.18.01h6.71c7.35,5.44,12.31,15.7,12.31,27.47Z" fill="#fbc2a8" stroke-width="0"/>
      <path d="M115.32,146.51c-.02.38-.03.77-.02,1.15-.59-.05-1.19-.08-1.79-.08h-.09v-.14c0-.22-.01-.44-.06-.66-.1-.44.05-.58.49-.6.18-.01.41.12.5-.17.16,0,.31,0,.46-.02.4-.05.53.1.51.52Z" fill="#fbc2a8" stroke-width="0"/>
      <path d="M157.72,154.89c-.06,2.42-1,4.51-2.63,6.31-1.47,1.61-3.28,2.6-5.4,3.07-.34.08-.69.12-1.03.15-.34.03-.48.15-.48.52.02,2.56.02,5.12.01,7.68-.02,2.48-.36,4.92-1.02,7.32-.87,3.15-2.28,6.03-4.17,8.68-.49.69-1.01,1.36-1.56,2-.61.72-1.27,1.41-2,2.04-.11.1-.19.23-.29.35-.14.11-.29.22-.42.34-1.57,1.43-3.29,2.65-5.16,3.66-.01,0-.02,0-.03.02-.09-.02-.15.03-.2.1-.01.02-.03.03-.06.03-.17.01-.28.11-.36.25h-.02c-.44.1-.82.35-1.23.52-1.91.84-3.84,1.6-5.93,1.92-1.2.18-2.4.42-3.61.44-2.85.04-5.69.01-8.54.01-.14-.11-.17-.26-.17-.44v-9.45h22.82c1.02-3.49,1.59-7.28,1.59-11.24,0-11.77-4.96-22.03-12.31-27.47h20.84c.13.06.25.06.37-.03.02,0,.05-.01.07-.01.08.02.15.02.2-.05,1.27-.51,1.91-1.43,1.9-2.82-.02-2.17,0-4.33,0-6.49,0-.65.01-1.29.01-1.94.28-.02.56.02.83.09.83.22,1.63.5,2.38.92.15.09.25.11.33-.07.05.17.13.3.29.4,1.48.92,2.67,2.14,3.57,3.63.78,1.3,1.25,2.72,1.36,4.25.13,1.77.1,3.54.05,5.31Z" fill="#fbc2a8" stroke-width="0"/>
      <path d="M81.18,124.57c.34-.36.39-.86.58-1.29,1.19-2.61,2.66-5.05,4.43-7.3,2.97-3.77,6.55-6.8,10.77-9.1,3.24-1.76,6.67-2.95,10.29-3.62,1.87-.34,3.76-.49,5.65-.54.17,0,.34.01.5.02,0,12.37,0,24.75,0,37.12,0,.11,0,.23,0,.34-.02.23.07.3.31.34.32.05.67-.01.96.18-.91,0-1.83-.02-2.74.02-.43.02-.59-.09-.55-.54.15-1.55-1.12-2.77-2.78-2.76-8,.05-16.01.03-24.01.03-.74,0-1.49-.02-2.23-.02.16-.38.08-.77.08-1.16,0-2.77,0-5.54,0-8.3,0-1.01,0-2.02.01-3.03,0-.29-.08-.41-.38-.39-.29.02-.59,0-.88,0Z" fill="#f7b098" stroke-width="0"/>
      <path d="M114.69,140.73c-.29-.2-.64-.13-.96-.18-.24-.04-.32-.12-.31-.34,0-.11,0-.22,0-.34,0-12.37,0-24.75,0-37.12,1.22-.07,2.44.07,3.65.17,1.68.14,3.33.47,4.96.89,1.47.37,2.91.83,4.31,1.41,1.61.67,3.17,1.43,4.67,2.33,2.21,1.32,4.26,2.86,6.11,4.65,1.86,1.79,3.52,3.73,4.97,5.87,1.28,1.89,2.34,3.89,3.25,5.97.07.17.03.37.16.52-.18,0-.36.02-.55.02-.57,0-.57-.01-.56.53,0,4.12,0,8.23,0,12.35-.04,0-.08.02-.12.02-3.77,0-7.54,0-11.31,0-4.92,0-9.85,0-14.77,0-.41,0-.82-.04-1.21.11-.86.33-1.78,1.17-1.72,2.63.02.54,0,.54-.58.52Z" fill="#fbc2a8" stroke-width="0"/>
      <path d="M82.37,137.45c-.63,0-1.26.03-1.89,0-.79-.02-1.38.34-1.89.9-.5.55-.6,1.24-.69,1.93-1.24.13-2.37.57-3.41,1.23-.07.04-.12.07-.19.02.11-3.84.02-7.67.05-11.51.01-1.68.01-3.37-.01-5.05,0-.36.14-.42.44-.42,2.14.01,4.27,0,6.41,0,.29.01.59.03.88.01.3-.02.39.09.38.39-.01,1.01-.01,2.02-.01,3.03,0,2.77,0,5.54.01,8.31,0,.38.09.77-.08,1.15Z" fill="#fcfcfc" stroke-width="0"/>
      <path d="M144.39,137.46c0-4.12,0-8.23,0-12.35,0-.55,0-.54.56-.53.18,0,.36-.01.55-.02,1.84,0,3.68,0,5.52,0,.35,0,.7.03,1.05,0,.31-.02.37.12.37.4-.01,1.48-.01,2.95,0,4.43,0,3.81,0,7.62,0,11.42-.03.1-.03.2.01.3,0,.07,0,.14,0,.21-.08.18-.19.15-.33.07-.75-.42-1.55-.7-2.38-.92-.28-.07-.55-.12-.83-.09-.01-.17-.04-.33-.04-.5-.04-1.19-1.23-2.53-2.67-2.41-.6.05-1.2,0-1.8,0Z" fill="#fcfcfc" stroke-width="0"/>
      <path d="M152.46,141.1c-.05-.1-.04-.2-.01-.3.07.1.06.2.01.3Z" fill="#f7b098" stroke-width="0"/>
      <path d="M148.91,140.36c-.01-.16-.04-.33-.04-.5-.04-1.18-1.23-2.52-2.67-2.41-.6.05-1.2,0-1.8,0-.05,0-.09.02-.13.02h-11.31c-4.92,0-9.84-.01-14.77,0-.4,0-.81-.05-1.21.11-.85.33-1.78,1.16-1.71,2.63.02.54,0,.54-.58.51-.91.01-1.83-.01-2.74.02-.43.02-.59-.09-.55-.54.15-1.55-1.12-2.77-2.78-2.76-8.01.05-16.01.03-24.02.03-.74,0-1.48-.01-2.23-.02-.63,0-1.26.03-1.89,0-.79-.02-1.38.34-1.89.9-.5.55-.6,1.24-.69,1.93.01.17.02.33.02.5,0,2.65,0,5.31-.01,7.96-.01,1.19.47,2.08,1.5,2.67.13.07.29.05.4.18h.01c.1-.02.18.01.26.07.05.01.11.01.17.02h28.87c.06-.01.11-.02.16-.02,1.55-.6,2.12-1.44,2.11-3.1v-2.28c0-.15-.02-.29.23-.29.91-.01,1.82-.04,2.73.01.16,0,.31,0,.46-.02.4-.05.53.1.51.52-.02.38-.03.77-.02,1.15-.01.42-.01.83-.01,1.25.01,1.35.89,2.45,2.21,2.76.04.01.08.01.13.02.39,0,.78.01,1.18.01h27.55c.13-.01.25-.02.37-.03.02,0,.05-.01.07-.01.06-.05.12-.08.2-.05,1.27-.51,1.91-1.43,1.9-2.82-.02-2.17,0-4.33,0-6.49,0-.65.01-1.29.01-1.94ZM108.13,147.96c0,.13-.01.24-.04.34-.01.05-.03.1-.04.15-.04.1-.09.19-.17.26-.08.08-.17.14-.29.18-.06.03-.13.04-.2.05-.07.02-.14.02-.23.02-4.03,0-8.07,0-12.11,0-.06,0-.13-.01-.2-.02-2.53.01-5.06.01-7.59.02h-4.22c-.77,0-1.1-.29-1.1-1.05-.02-2.28-.02-4.55-.02-6.83,0-.52.32-.9.79-.9,4.15,0,8.31-.06,12.47.02,1.24-.01,2.48-.03,3.71-.03,2.73-.01,5.46,0,8.19,0,.79,0,1.06.3,1.05,1.09-.01,2.23,0,4.47,0,6.71ZM144,148.94c-3.74.01-7.48,0-11.22,0-.04,0-.08-.02-.12-.03-.63.01-1.27.04-1.9.04h-10.97c-.08,0-.16,0-.23-.01-.07,0-.14-.01-.2-.03-.04,0-.08-.01-.11-.02-.07-.02-.13-.04-.19-.08-.06-.02-.1-.05-.14-.09h-.01s-.07-.08-.1-.12c-.03-.04-.05-.08-.07-.13-.03-.05-.05-.11-.06-.17-.04-.13-.06-.28-.06-.46-.02-2.28-.02-4.56-.02-6.84,0-.52.36-.84.94-.84,1.74-.01,3.49,0,5.23,0h7.3c.28,0,.56.03.84.04,1.33-.06,2.67-.03,4-.03h7.09c.59,0,.92.32.92.89,0,2.29,0,4.59,0,6.88,0,.64-.3,1-.93,1Z" fill="#131010" stroke-width="0"/>
      <path d="M79.81,151.6c-.15-.02-.34.05-.4-.18.13.07.29.05.4.18Z" fill="#c79770" stroke-width="0"/>
      <path d="M80.08,151.67c-.1.03-.19.03-.26-.07.1-.02.18.01.26.07Z" fill="#c79770" stroke-width="0"/>
      <path d="M109.28,151.67c-.04.07-.1.08-.16.02.06-.01.11-.02.16-.02Z" fill="#c79770" stroke-width="0"/>
      <path d="M80.33,151.69s-.06.04-.08,0h.08Z" fill="#c79770" stroke-width="0"/>
      <path d="M146.36,151.71c.12,0,.25-.02.37-.03-.12.09-.24.09-.37.03Z" fill="#7d6c9f" stroke-width="0"/>
      <path d="M146.8,151.67c.06-.05.12-.08.2-.05-.05.07-.12.07-.2.05Z" fill="#7d6c9f" stroke-width="0"/>
      <path d="M117.63,151.69s-.1.04-.13-.02c.04.01.08.01.13.02Z" fill="#7d6c9f" stroke-width="0"/>
      <path d="M132.65,148.91c-.63.01-1.26.04-1.89.04-3.66,0-7.31,0-10.97,0-.84,0-1.17-.29-1.18-1.11-.02-2.28-.02-4.56-.02-6.83,0-.53.36-.84.94-.84,1.74,0,3.49,0,5.23,0,2.43,0,4.87,0,7.3,0,.28,0,.56.03.84.04-.26.08-.25.28-.25.5,0,2.73,0,5.47,0,8.2Z" fill="#cbd5f2" stroke-width="0"/>
      <path d="M95.18,140.2c1.24-.01,2.47-.03,3.71-.03,2.73,0,5.46,0,8.19,0,.79,0,1.06.31,1.05,1.09-.01,2.24,0,4.47,0,6.71,0,.66-.32,1-.97,1-4.04,0-8.07,0-12.11,0-.07,0-.14-.02-.21-.02,0-2.71,0-5.43,0-8.14,0-.28.06-.49.33-.59Z" fill="#96ace3" stroke-width="0"/>
      <path d="M95.18,140.2c-.28.1-.34.31-.33.59,0,2.71,0,5.43,0,8.14-2.53,0-5.06.02-7.59.02-1.41,0-2.81,0-4.22,0-.77,0-1.1-.29-1.11-1.05-.02-2.28-.02-4.55-.02-6.83,0-.52.32-.9.79-.9,4.16,0,8.32-.06,12.48.03Z" fill="#cbd5f2" stroke-width="0"/>
      <path d="M132.65,148.91c0-2.73,0-5.47,0-8.2,0-.22-.01-.42.25-.5,1.33-.07,2.67-.03,4-.03,2.36,0,4.73,0,7.09,0,.59,0,.92.32.92.89,0,2.29,0,4.59,0,6.88,0,.65-.3,1-.93,1-3.74,0-7.48,0-11.22,0-.04,0-.08-.02-.12-.03Z" fill="#96ace3" stroke-width="0"/>
    </g>
  </g>
</svg>