<?xml version="1.0" encoding="UTF-8"?>
<svg id="contento" xmlns="http://www.w3.org/2000/svg" viewBox="0 0 226.77 283.46">
  <def>
    <style>
      .sorriso{
        transform-origin: center center !important;
        opacity:0;
        animation: sorrisoAnimation .5s linear 1 forwards;
      }
      @keyframes sorrisoAnimation {
      from{
        opacity:0;
        transform: scaleX(0);
      }
      to{
        opacity:1; 
        transform: scaleX(1);
      }
      }
    </style>
  </def>
  <rect id="sfondo" x="0" y=".03" width="226.77" height="283.4" fill="#f069a3" stroke-width="0"/>
  <g id="corpo">
    <g id="gianmarco">
      <path d="M44.47,235.67v47.79s68.92,0,68.92,0v-69.99c-1.52,0-2.81-.78-3.25-1.87l-15.27,8.47v-18.59s.59.15,1.56.48c2.84.94,9.02,3.34,13.83,7.75.52-.95,1.73-1.62,3.13-1.62v-17.68s-23.65,0-23.65,0c-1.37,0-2.74.06-4.08.18-.25.02-.48.05-.73.07-.56.06-1.11.13-1.66.21-.29.04-.58.09-.86.13-.35.06-.7.12-1.05.18-.1.02-.21.04-.31.06-.34.07-.67.14-1.01.21-.32.06-.63.13-.94.21-1.56.37-3.08.82-4.57,1.36-.25.09-.48.17-.72.26-.35.13-.7.27-1.05.41-16.59,6.71-28.3,22.97-28.3,41.97Z" fill="#7e6651" stroke-width="0"/>
      <path d="M113.39,280.25v-66.77c-1.52,0-2.81-.78-3.25-1.87l-15.27,8.47v-18.59s.59.15,1.56.48c2.84.94,9.02,3.34,13.83,7.75.52-.95,1.73-1.62,3.13-1.62v-17.68s-23.65,0-23.65,0c-1.37,0-2.74.06-4.08.18-.25.02-.48.05-.73.07-.56.06-1.11.13-1.66.21-.29.04-.58.09-.86.13-.35.06-.7.12-1.05.18-.1.02-.21.04-.31.06-.34.07-.67.14-1.01.21-.32.06-.63.13-.94.21-1.56.37-3.08.82-4.57,1.36-.25.09-.48.17-.72.26-.35.13-.7.27-1.05.41-2.04,8.86,8.59,46.75,40.62,86.54Z" fill="#644890" stroke-width="0"/>
      <path d="M113.39,280.25v-5.26c-23.52-33.99-33.89-75.52-33.34-83.53-.32.06-.63.13-.94.21-1.56.37-3.08.82-4.57,1.36-.25.09-.48.17-.72.26-.35.13-.7.27-1.05.41-2.04,8.86,8.59,46.75,40.62,86.54Z" fill="#483b3b" stroke-width="0"/>
      <rect x="57.91" y="241.11" width="24.81" height="4.99" transform="translate(140.63 487.2) rotate(-180)" fill="#483b3b" stroke-width="0"/>
      <path d="M88.95,179.18c0,3.96.56,7.75,1.59,11.24,1.29,4.41,3.32,8.34,5.89,11.55,2.84.94,9.02,3.34,13.83,7.75.52-.95,1.73-1.62,3.13-1.62v-60.5s-.12,0-.12,0c-13.43,0-24.32,14.14-24.32,31.59Z" fill="#e7a196" stroke-width="0"/>
      <path d="M94.86,201.49v18.59s15.27-8.47,15.27-8.47c.44,1.09,1.73,1.87,3.25,1.87v-5.38c-1.4,0-2.61.67-3.13,1.62-4.8-4.41-10.99-6.81-13.83-7.75-.98-.33-1.56-.48-1.56-.48Z" fill="#1a1716" stroke-width="0"/>
      <path d="M131.91,201.49v18.59s-15.27-8.47-15.27-8.47c-.44,1.09-1.73,1.87-3.25,1.87v69.99s68.92,0,68.92,0v-47.79c0-19-11.7-35.26-28.3-41.97-.35-.14-.7-.28-1.05-.41-.24-.09-.48-.17-.72-.26-1.49-.53-3.01-.98-4.57-1.36-.31-.08-.62-.15-.94-.21-.33-.07-.67-.14-1.01-.21-.1-.02-.21-.04-.31-.06-.35-.06-.7-.13-1.05-.18-.29-.05-.57-.1-.86-.13-.55-.08-1.1-.15-1.66-.21-.25-.02-.48-.05-.73-.07-1.34-.12-2.7-.18-4.08-.18h-23.65s0,17.68,0,17.68c1.4,0,2.61.67,3.13,1.62,4.8-4.41,10.99-6.81,13.83-7.75.98-.33,1.56-.48,1.56-.48Z" fill="#9a7f6d" stroke-width="0"/>
      <path d="M131.91,201.49v18.59s-15.27-8.47-15.27-8.47c-.44,1.09-1.73,1.87-3.25,1.87v66.77c32.02-39.79,42.66-77.68,40.62-86.54-.35-.14-.7-.28-1.05-.41-.24-.09-.48-.17-.72-.26-1.49-.53-3.01-.98-4.57-1.36-.31-.08-.62-.15-.94-.21-.33-.07-.67-.14-1.01-.21-.1-.02-.21-.04-.31-.06-.35-.06-.7-.13-1.05-.18-.29-.05-.57-.1-.86-.13-.55-.08-1.1-.15-1.66-.21-.25-.02-.48-.05-.73-.07-1.34-.12-2.7-.18-4.08-.18h-23.65s0,17.68,0,17.68c1.4,0,2.61.67,3.13,1.62,4.8-4.41,10.99-6.81,13.83-7.75.98-.33,1.56-.48,1.56-.48Z" fill="#8c5f9c" stroke-width="0"/>
      <path d="M113.39,280.25v-5.26c23.52-33.99,33.89-75.52,33.34-83.53.32.06.63.13.94.21,1.56.37,3.08.82,4.57,1.36.25.09.48.17.72.26.35.13.7.27,1.05.41,2.04,8.86-8.59,46.75-40.62,86.54Z" fill="#614d4f" stroke-width="0"/>
      <path d="M113.39,147.59v60.5c1.4,0,2.61.67,3.13,1.62,4.8-4.41,10.99-6.81,13.83-7.75,2.57-3.21,4.6-7.14,5.89-11.55,1.02-3.49,1.59-7.28,1.59-11.24,0-17.44-10.89-31.59-24.32-31.59h-.12Z" fill="#fac29f" stroke-width="0"/>
      <path d="M113.39,208.09v5.38c1.52,0,2.81-.78,3.25-1.87l15.27,8.47v-18.59s-.59.15-1.56.48c-2.84.94-9.02,3.34-13.83,7.75-.52-.95-1.73-1.62-3.13-1.62Z" fill="#353436" stroke-width="0"/>
      <g>
        <path d="M78.23,164.44c-1.57-.07-2.99-.6-4.31-1.41-2.09-1.3-3.56-3.11-4.37-5.43-.31-.9-.52-1.84-.53-2.8,0-1.55-.04-3.09.01-4.64.08-2.32.9-4.37,2.38-6.16.82-.99,1.81-1.76,2.87-2.44.07.06.12.03.18-.01,1.05-.66,2.18-1.1,3.41-1.23,0,.17.02.33.02.5,0,2.65,0,5.3-.02,7.96,0,1.19.47,2.08,1.5,2.67.06.22.25.15.4.17h.01c.07.1.16.1.26.08.06,0,.11,0,.17.01.03.04.06.05.09,0,9.6,0,19.19,0,28.79,0,.06.07.12.05.16-.02,1.54-.59,2.12-1.43,2.11-3.1,0-.76,0-1.52,0-2.28,0-.15-.03-.3.22-.3.91,0,1.82-.04,2.73.02-.09.29-.33.16-.5.16-.45.02-.59.17-.49.6.05.22.06.44.06.67,0,8.14,0,16.28,0,24.43,0,.17-.06.34-.04.5.04.31-.12.32-.36.33-.6.02-1.2-.08-1.8.06-.97,0-1.93.02-2.9.02-.23,0-.34.02-.22.31.43,1.03,1.1,1.85,2.01,2.48,1.11.77,2.35,1.15,3.71,1.09.03.02.06.04.1.06,0,0-.01.03-.02.02-.32-.02-.48.08-.48.45,0,7.56,0,15.11,0,22.67,0,.18.03.33.17.45-.94,0-1.88.12-2.82.08-.83-.03-1.66-.08-2.48-.06-.93.02-1.87.01-2.8,0-1.62-.01-3.21-.2-4.79-.53-1.79-.37-3.52-.9-5.18-1.68-.63-.3-1.27-.58-1.91-.86l-.02-.02s-.06-.03-.09-.05c-.36-.21-.72-.42-1.09-.63-1.75-1.01-3.31-2.28-4.83-3.6-.66-.69-1.33-1.37-1.97-2.08-1.6-1.79-2.92-3.77-4.02-5.9-1.44-2.79-2.32-5.75-2.76-8.84-.07-.53-.08-1.06-.12-1.6,0-3.06,0-6.12,0-9.18,0-.21-.05-.42.06-.62.09-.15-.1-.26-.12-.26-.16.07-.26-.33-.43-.05Z" fill="#f7b098" stroke-width="0"/>
        <path d="M111.22,172.77c.6-.14,1.2-.04,1.8-.06.24,0,.4-.02.36-.33-.02-.16.04-.33.04-.5,0-8.14,0-16.28,0-24.43,0-.22,0-.44-.06-.67-.1-.43.05-.57.49-.6.17,0,.41.12.5-.16.15,0,.31,0,.46-.03.4-.05.53.1.51.52-.04.8-.03,1.6-.03,2.4,0,1.35.88,2.45,2.21,2.76.03.06.08.07.13.02.39,0,.79.01,1.18.01,9.18,0,18.37,0,27.55,0,.13.06.25.06.37-.03.02,0,.05-.01.07-.01.08.02.15.02.2-.05,1.27-.51,1.91-1.43,1.9-2.82-.02-2.16,0-4.33,0-6.49,0-.65,0-1.29.01-1.94.28-.03.55.02.83.09.83.22,1.63.5,2.38.92.15.08.25.11.33-.07.05.17.12.3.28.4,1.48.92,2.67,2.14,3.57,3.63.78,1.3,1.25,2.72,1.36,4.25.13,1.77.1,3.54.05,5.31-.07,2.42-1,4.51-2.63,6.31-1.47,1.61-3.28,2.6-5.39,3.08-.34.08-.69.12-1.04.15-.33.03-.48.14-.48.52.02,2.56.02,5.12,0,7.68-.01,2.48-.36,4.92-1.02,7.32-.86,3.15-2.28,6.03-4.17,8.68-1.04,1.46-2.18,2.86-3.55,4.04-.11.1-.2.24-.29.36-.14.11-.29.22-.42.34-1.58,1.43-3.31,2.66-5.19,3.68-.09-.02-.15.03-.2.09-.01.02-.03.03-.05.03-.17.01-.29.11-.37.25,0,0-.01.01-.01.01-.45.09-.82.34-1.23.51-1.91.84-3.85,1.59-5.93,1.92-1.2.19-2.4.42-3.62.44-2.84.04-5.69.01-8.54.02-.14-.12-.17-.27-.17-.45,0-7.56,0-15.11,0-22.67,0-.37.16-.47.48-.45,0,0,.01-.02.02-.02-.03-.02-.06-.04-.1-.06.09-.08.21-.07.32-.09,2.07-.33,3.6-1.42,4.52-3.31.22-.46.22-.46-.27-.46-.74,0-1.49,0-2.23,0-1.64,0-3.29-.01-4.93-.02Z" fill="#fbc2a8" stroke-width="0"/>
        <path d="M81.18,124.57c.34-.36.39-.86.58-1.29,1.19-2.61,2.66-5.05,4.43-7.3,2.97-3.77,6.55-6.8,10.77-9.1,3.24-1.76,6.67-2.95,10.29-3.62,1.87-.34,3.76-.49,5.65-.54.17,0,.34.01.5.02,0,12.37,0,24.75,0,37.12,0,.11,0,.23,0,.34-.02.23.07.3.31.34.32.05.67-.01.96.18-.91,0-1.83-.02-2.74.02-.43.02-.59-.09-.55-.54.15-1.55-1.12-2.77-2.78-2.76-8,.05-16.01.03-24.01.03-.74,0-1.49-.02-2.23-.02.16-.38.08-.77.08-1.16,0-2.77,0-5.54,0-8.3,0-1.01,0-2.02.01-3.03,0-.29-.08-.41-.38-.39-.29.02-.59,0-.88,0Z" fill="#f7b098" stroke-width="0"/>
        <path d="M114.69,140.73c-.29-.2-.64-.13-.96-.18-.24-.04-.32-.12-.31-.34,0-.11,0-.22,0-.34,0-12.37,0-24.75,0-37.12,1.22-.07,2.44.07,3.65.17,1.68.14,3.33.47,4.96.89,1.47.37,2.91.83,4.31,1.41,1.61.67,3.17,1.43,4.67,2.33,2.21,1.32,4.26,2.86,6.11,4.65,1.86,1.79,3.52,3.73,4.97,5.87,1.28,1.89,2.34,3.89,3.25,5.97.07.17.03.37.16.52-.18,0-.36.02-.55.02-.57,0-.57-.01-.56.53,0,4.12,0,8.23,0,12.35-.04,0-.08.02-.12.02-3.77,0-7.54,0-11.31,0-4.92,0-9.85,0-14.77,0-.41,0-.82-.04-1.21.11-.86.33-1.78,1.17-1.72,2.63.02.54,0,.54-.58.52Z" fill="#fbc2a8" stroke-width="0"/>
        <path d="M81.18,124.57c.29,0,.59.03.88,0,.3-.02.39.1.38.39-.02,1.01-.01,2.02-.01,3.03,0,2.77,0,5.54,0,8.3,0,.39.09.78-.08,1.16-.63,0-1.26.03-1.89.01-.79-.02-1.38.34-1.89.9-.51.55-.6,1.24-.69,1.93-1.24.13-2.37.57-3.41,1.23-.07.04-.12.07-.18.01.11-3.83.02-7.67.05-11.5.01-1.69.01-3.37,0-5.06,0-.36.13-.42.44-.42,2.13,0,4.27,0,6.41,0Z" fill="#fcfcfc" stroke-width="0"/>
        <path d="M144.39,137.46c0-4.12,0-8.23,0-12.35,0-.55,0-.54.56-.53.18,0,.36-.01.55-.02,1.84,0,3.68,0,5.52,0,.35,0,.7.03,1.05,0,.31-.02.37.12.37.4-.01,1.48-.01,2.95,0,4.43,0,3.81,0,7.62,0,11.42-.03.1-.03.2.01.3,0,.07,0,.14,0,.21-.08.18-.19.15-.33.07-.75-.42-1.55-.7-2.38-.92-.28-.07-.55-.12-.83-.09-.01-.17-.04-.33-.04-.5-.04-1.19-1.23-2.53-2.67-2.41-.6.05-1.2,0-1.8,0Z" fill="#fcfcfc" stroke-width="0"/>
        <path d="M144.39,137.46c.6,0,1.21.05,1.8,0,1.45-.12,2.63,1.22,2.67,2.41,0,.17.03.33.04.5,0,.65-.01,1.29-.01,1.94,0,2.16-.02,4.33,0,6.49.01,1.39-.62,2.31-1.9,2.82-.08-.03-.14,0-.2.05-.03,0-.05,0-.07.01-.12,0-.24.02-.37.03-9.18,0-18.37,0-27.55,0-.39,0-.79,0-1.18-.01-.04,0-.08-.01-.13-.02-1.32-.31-2.2-1.41-2.21-2.76,0-.8-.02-1.6.03-2.4.02-.42-.11-.57-.51-.52-.15.02-.31.02-.46.03-.91-.06-1.82-.02-2.73-.02-.25,0-.22.14-.22.3,0,.76,0,1.52,0,2.28,0,1.66-.57,2.51-2.11,3.1-.05,0-.11.01-.16.02-9.6,0-19.19,0-28.79,0-.03,0-.06,0-.09,0-.06,0-.11,0-.17-.01-.08-.06-.16-.09-.26-.07,0,0-.01,0-.01,0-.11-.12-.27-.11-.4-.17-1.03-.6-1.51-1.49-1.5-2.67.02-2.65.01-5.3.02-7.96,0-.17-.02-.33-.02-.5.09-.69.19-1.38.69-1.93.51-.56,1.1-.92,1.89-.9.63.02,1.26,0,1.89-.01.74,0,1.49.02,2.23.02,8,0,16.01.02,24.01-.03,1.66,0,2.93,1.21,2.78,2.76-.04.45.12.56.55.54.91-.04,1.83-.02,2.74-.02.58.03.6.03.58-.52-.07-1.46.86-2.3,1.72-2.63.39-.15.81-.11,1.21-.11,4.92,0,9.85,0,14.77,0,3.77,0,7.54,0,11.31,0,.04,0,.08-.01.12-.02ZM94.84,148.93c.07,0,.14.02.21.02,4.04,0,8.07,0,12.11,0,.65,0,.97-.34.97-1,0-2.24-.02-4.47,0-6.71,0-.78-.27-1.09-1.05-1.09-2.73,0-5.46,0-8.19,0-1.24,0-2.47.02-3.71.03-4.16-.08-8.32-.02-12.48-.03-.47,0-.79.38-.79.9,0,2.28,0,4.55.02,6.83,0,.76.33,1.05,1.11,1.05,1.41,0,2.81,0,4.22,0,2.53,0,5.06-.02,7.59-.02ZM132.91,140.21c-.28-.02-.56-.04-.84-.04-2.43,0-4.87,0-7.3,0-1.74,0-3.49,0-5.23,0-.58,0-.94.32-.94.84,0,2.28,0,4.56.02,6.83,0,.83.34,1.11,1.18,1.11,3.66,0,7.31,0,10.97,0,.63,0,1.26-.03,1.89-.04.04.01.08.03.12.03,3.74,0,7.48.01,11.22,0,.63,0,.93-.36.93-1,0-2.29,0-4.59,0-6.88,0-.57-.33-.89-.92-.89-2.36,0-4.73,0-7.09,0-1.34,0-2.67-.03-4,.03Z" fill="#131010" stroke-width="0"/>
        <path d="M132.65,148.91c-.63.01-1.26.04-1.89.04-3.66,0-7.31,0-10.97,0-.84,0-1.17-.29-1.18-1.11-.02-2.28-.02-4.56-.02-6.83,0-.53.36-.84.94-.84,1.74,0,3.49,0,5.23,0,2.43,0,4.87,0,7.3,0,.28,0,.56.03.84.04-.26.08-.25.28-.25.5,0,2.73,0,5.47,0,8.2Z" fill="#cbd5f2" stroke-width="0"/>
        <path d="M95.18,140.2c1.24-.01,2.47-.03,3.71-.03,2.73,0,5.46,0,8.19,0,.79,0,1.06.31,1.05,1.09-.01,2.24,0,4.47,0,6.71,0,.66-.32,1-.97,1-4.04,0-8.07,0-12.11,0-.07,0-.14-.02-.21-.02,0-2.71,0-5.43,0-8.14,0-.28.06-.49.33-.59Z" fill="#96ace3" stroke-width="0"/>
        <path d="M95.18,140.2c-.28.1-.34.31-.33.59,0,2.71,0,5.43,0,8.14-2.53,0-5.06.02-7.59.02-1.41,0-2.81,0-4.22,0-.77,0-1.1-.29-1.11-1.05-.02-2.28-.02-4.55-.02-6.83,0-.52.32-.9.79-.9,4.16,0,8.32-.06,12.48.03Z" fill="#cbd5f2" stroke-width="0"/>
        <path d="M132.65,148.91c0-2.73,0-5.47,0-8.2,0-.22-.01-.42.25-.5,1.33-.07,2.67-.03,4-.03,2.36,0,4.73,0,7.09,0,.59,0,.92.32.92.89,0,2.29,0,4.59,0,6.88,0,.65-.3,1-.93,1-3.74,0-7.48,0-11.22,0-.04,0-.08-.02-.12-.03Z" fill="#96ace3" stroke-width="0"/>
      </g>
    </g>
    <path class="sorriso" id="sorriso" d="M111.51,172.23c1.64,0,3.29.02,4.93.02.74,0,1.49,0,2.23,0,.49,0,.49,0,.27.46-.93,1.9-2.45,2.98-4.52,3.31-.11.02-.23,0-.32.09-1.36.06-2.6-.32-3.71-1.09-.91-.62-1.58-1.45-2.01-2.48-.12-.28,0-.3.22-.31.97,0,1.93-.01,2.9-.02Z" fill="#7d6c9f" stroke-width="0"/>
  </g>
</svg>