<?xml version="1.0" encoding="UTF-8"?>
<svg id="arrabbiato" xmlns="http://www.w3.org/2000/svg" viewBox="0 0 226.77 283.46">
  <def>
    <style>
      .arrabbiato{
      transform-origin: center center !important;
      animation: arrabbiatoAnimation 1.5s ease-in-out 1s 1 forwards;
      }
      @keyframes arrabbiatoAnimation {
      from{
      transform: scale(1);
      }
      to{
      transform: scale(1.2) translateY(5%);
      }
      }

      .sopracciglia{
      transform: translateY(-1%);
      animation: arrabbiatoSopraccigliaAnimation 1s ease-in-out 2s 1 forwards;
      }
      @keyframes arrabbiatoSopraccigliaAnimation {
      0%{
      transform: translateY(-1%);
      }
      100%{
      transform: translateY(0%);
      }

      }
      .iconArrabbiato{
      transform-origin: center center !important;
      animation: arrabbiatoIconAnimation 1.5s ease-in-out 2s infinite;
      }
      @keyframes arrabbiatoIconAnimation {
      0%{
      transform: scale(1);
      }
      50%{
      transform: translate(-1.5%,1%) scale(1.2);
      }
      100%{
      transform: scale(1);
      }
      }

      .occhiali{
      transform: translateY(-2%);
      transform-origin: center center !important;
      animation: occhialiAnimation 1.5s ease-in-out 2s infinite;
      }
      @keyframes occhialiAnimation {
      0%{
      transform: translateY(-1%);
      }
      50%{
      transform: translateY(0%);
      }
      100%{
        transform: translateY(-1%);
        }
      }
    </style>
  </def>
  <rect id="sfondo" x="0" y=".03" width="226.77" height="283.4" fill="#f069a3" stroke-width="0" />
  <g id="corpo" class="arrabbiato">
    <g id="gianmarco">
      <path
        d="M96.43,201.96c2.84.93,9.02,3.34,13.83,7.74.52-.95,1.73-1.61,3.13-1.61v-7.79c-.87.02-1.74.12-2.62.08-.82-.03-1.65-.08-2.48-.06-.93.02-1.86,0-2.8,0-1.62-.01-3.21-.2-4.79-.53-1.79-.37-3.52-.9-5.18-1.68-.63-.3-1.27-.58-1.91-.86l-.02-.02s-.05-.03-.08-.05c-.1-.06-.21-.12-.31-.18-1.08-2.04-1.97-4.25-2.66-6.59h-.8c-1.37,0-2.74.06-4.08.18-.09.01-.17.02-.26.03-.15.01-.31.03-.47.04-.55.06-1.11.13-1.65.21-.3.04-.58.08-.87.13-.35.06-.7.12-1.05.18-.1.02-.2.04-.3.06-.35.07-.68.14-1.01.21-.32.07-.63.14-.94.22-1.56.37-3.08.82-4.57,1.35-.25.09-.49.18-.72.26-.35.14-.7.27-1.05.42-16.59,6.7-28.3,22.97-28.3,41.96v47.8h68.92v-69.99c-1.52,0-2.82-.78-3.25-1.87l-15.27,8.47v-18.59s.58.15,1.56.48Z"
        fill="#7e6651" stroke-width="0" />
      <path
        d="M96.43,201.96c2.84.93,9.02,3.34,13.83,7.74.52-.95,1.73-1.61,3.13-1.61v-7.79c-.87.02-1.74.12-2.62.08-.82-.03-1.65-.08-2.48-.06-.93.02-1.86,0-2.8,0-1.62-.01-3.21-.2-4.79-.53-1.79-.37-3.52-.9-5.18-1.68-.63-.3-1.27-.58-1.91-.86l-.02-.02s-.05-.03-.08-.05c-.1-.06-.21-.12-.31-.18-1.08-2.04-1.97-4.25-2.66-6.59h-.8c-1.37,0-2.74.06-4.08.18-.09.01-.17.02-.26.03-.15.01-.31.03-.47.04-.55.06-1.11.13-1.65.21-.3.04-.58.08-.87.13-.35.06-.7.12-1.05.18-.1.02-.2.04-.3.06-.35.07-.68.14-1.01.21-.32.07-.63.14-.94.22-1.56.37-3.08.82-4.57,1.35-.25.09-.49.18-.72.26-.35.14-.7.27-1.05.42-2.04,8.86,8.59,46.74,40.62,86.54v-66.77c-1.52,0-2.82-.78-3.25-1.87l-15.27,8.47v-18.59s.58.15,1.56.48Z"
        fill="#644890" stroke-width="0" />
      <path
        d="M113.38,280.24v-5.26c-23.52-33.99-33.89-75.52-33.34-83.53-.32.06-.63.13-.94.21-1.56.37-3.08.82-4.57,1.36-.25.09-.48.17-.72.26-.35.13-.7.27-1.05.41-2.04,8.86,8.59,46.75,40.62,86.54Z"
        fill="#483b3b" stroke-width="0" />
      <rect x="57.91" y="241.1" width="24.81" height="4.99"
        transform="translate(140.63 487.19) rotate(-180)" fill="#483b3b" stroke-width="0" />
      <path
        d="M113.39,200.3v7.79c-1.4,0-2.61.66-3.13,1.61-4.81-4.4-10.99-6.81-13.83-7.74-1.2-1.5-2.29-3.17-3.23-4.96.1.06.21.12.31.18.03.02.05.03.08.05l.02.02c.64.28,1.28.56,1.91.86,1.66.78,3.39,1.31,5.18,1.68,1.58.33,3.17.52,4.79.53.94,0,1.87.02,2.8,0,.83-.02,1.66.03,2.48.06.88.04,1.75-.06,2.62-.08Z"
        fill="#e7a196" stroke-width="0" />
      <path
        d="M94.86,201.49v18.59s15.27-8.47,15.27-8.47c.44,1.09,1.73,1.87,3.25,1.87v-5.38c-1.4,0-2.61.67-3.13,1.62-4.8-4.41-10.99-6.81-13.83-7.75-.98-.33-1.56-.48-1.56-.48Z"
        fill="#1a1716" stroke-width="0" />
      <path
        d="M154.01,193.7c-.35-.15-.7-.28-1.05-.42-.24-.08-.47-.17-.72-.26-1.49-.53-3.01-.98-4.57-1.35-.31-.08-.62-.15-.94-.22-.33-.07-.67-.14-1.01-.21-.1-.02-.2-.04-.31-.06-.35-.06-.69-.12-1.04-.18-.29-.05-.57-.09-.87-.13-.54-.08-1.1-.15-1.65-.21-.14-.01-.28-.03-.41-.04-.11-.01-.21-.02-.32-.03-1.34-.12-2.71-.18-4.08-.18h-23.62v9.45c0,.18.03.33.17.44h-.2v7.79c1.4,0,2.61.66,3.13,1.61,4.81-4.4,10.99-6.81,13.83-7.74.97-.33,1.56-.48,1.56-.48v18.59l-15.27-8.47c-.44,1.09-1.73,1.87-3.25,1.87v69.99h68.92v-47.8c0-18.99-11.71-35.26-28.3-41.96Z"
        fill="#9a7f6d" stroke-width="0" />
      <path
        d="M154.01,193.7c-.35-.15-.7-.28-1.05-.42-.24-.08-.47-.17-.72-.26-1.49-.53-3.01-.98-4.57-1.35-.31-.08-.62-.15-.94-.22-.33-.07-.67-.14-1.01-.21-.1-.02-.2-.04-.31-.06-.35-.06-.69-.12-1.04-.18-.29-.05-.57-.09-.87-.13-.54-.08-1.1-.15-1.65-.21-.14-.01-.28-.03-.41-.04-.11-.01-.21-.02-.32-.03-1.34-.12-2.71-.18-4.08-.18h-23.62v9.45c0,.18.03.33.17.44h-.2v7.79c1.4,0,2.61.66,3.13,1.61,4.81-4.4,10.99-6.81,13.83-7.74.97-.33,1.56-.48,1.56-.48v18.59l-15.27-8.47c-.44,1.09-1.73,1.87-3.25,1.87v66.77c32.02-39.8,42.66-77.68,40.62-86.54Z"
        fill="#8c5f9c" stroke-width="0" />
      <path
        d="M113.38,280.24v-5.26c23.52-33.99,33.89-75.52,33.34-83.53.32.06.63.13.94.21,1.56.37,3.08.82,4.57,1.36.25.09.48.17.72.26.35.13.7.27,1.05.41,2.04,8.86-8.59,46.75-40.62,86.54Z"
        fill="#614d4f" stroke-width="0" />
      <path
        d="M136.24,190.41c-.69,2.34-1.58,4.56-2.67,6.6-.94,1.79-2.02,3.45-3.22,4.95-2.84.93-9.02,3.34-13.83,7.74-.52-.95-1.73-1.61-3.13-1.61v-7.79h.2c-.14-.11-.17-.26-.17-.44v-9.45h22.82Z"
        fill="#fac29f" stroke-width="0" />
      <path
        d="M113.38,208.09v5.38c1.52,0,2.81-.78,3.25-1.87l15.27,8.47v-18.59s-.59.15-1.56.48c-2.84.94-9.02,3.34-13.83,7.75-.52-.95-1.73-1.62-3.13-1.62Z"
        fill="#353436" stroke-width="0" />
      <g id="corpo-2" data-name="corpo">
        <g id="claudio">
          <path
            d="M113.42,147.49v33c0,3.32,0,6.65,0,9.97h-22.96c-1.02-3.5-1.6-7.3-1.6-11.28,0-11.82,4.99-22.12,12.37-27.57h7.87c.06.06.12.05.16-.02,1.56-.6,2.13-1.44,2.12-3.11v-.9c.62-.06,1.25-.09,1.89-.09h.15Z"
            fill="#f7b098" stroke-width="0" />
          <path
            d="M113.59,200.38h-.2c-.87.02-1.75.12-2.63.08-.82-.03-1.66-.08-2.49-.06-.93.02-1.87,0-2.81,0-1.63-.01-3.22-.2-4.81-.53-1.8-.37-3.53-.9-5.2-1.69-.63-.3-1.27-.58-1.92-.86l-.02-.02s-.05-.03-.08-.05c-.1-.06-.21-.12-.31-.18-1.08-2.05-1.98-4.26-2.67-6.61h22.96v9.48c0,.18.03.33.17.44Z"
            fill="#f7b098" stroke-width="0" />
          <path d="M74.3,141.44s-.08.03-.13-.02c.05.03.08.03.13.02Z" fill="#f7b098" stroke-width="0" />
          <path
            d="M77.36,140.23c-.14.03-.27.05-.41.08-.78.17-1.51.47-2.2.85.69-.4,1.42-.69,2.2-.86.14-.03.27-.06.41-.08Z"
            fill="#f7b098" stroke-width="0" />
          <path
            d="M114.35,145.91c-.09.29-.32.16-.5.17-.44.02-.59.16-.49.6.05.22.06.44.06.66v.14h-.15c-.63,0-1.26.03-1.89.09v-1.38c0-.15-.02-.29.23-.29.91-.01,1.83-.04,2.74.01Z"
            fill="#f7b098" stroke-width="0" />
          <path
            d="M137.91,179.18c0,3.97-.57,7.78-1.6,11.28h-22.9c0-3.32,0-6.65,0-9.97v-33h.09c.6,0,1.2.03,1.8.08-.01.42-.01.83-.01,1.25.01,1.35.89,2.46,2.22,2.77.03.06.08.07.13.02.39,0,.78.01,1.18.01h6.73c7.37,5.46,12.35,15.75,12.35,27.56Z"
            fill="#fbc2a8" stroke-width="0" />
          <path
            d="M115.32,146.41c-.02.38-.03.77-.02,1.15-.59-.05-1.19-.08-1.8-.08h-.09v-.14c0-.22-.01-.44-.06-.66-.1-.44.05-.58.49-.6.18-.01.41.12.5-.17.16,0,.31,0,.46-.02.4-.05.53.1.51.52Z"
            fill="#fbc2a8" stroke-width="0" />
          <path d="M149.15,140.24s-.08,0-.13,0h0s.13,0,.13,0Z" fill="#fbc2a8" stroke-width="0" />
          <path
            d="M113.42,102.5v24.49h-.09v13.61h-.05v8.31h-35.48c.05,1.07.53,1.88,1.49,2.43.06.23.25.16.41.18h0c.07.1.16.1.26.07.05,0,.11,0,.17.03.02.03.05.03.08,0h21.02c-7.38,5.44-12.37,15.75-12.37,27.57,0,3.97.58,7.77,1.6,11.27.69,2.35,1.58,4.57,2.67,6.62-.26-.15-.52-.3-.78-.46-1.76-1.02-3.33-2.28-4.85-3.61-.65-.69-1.34-1.37-1.97-2.08-.08-.08-.15-.16-.22-.25-1.51-1.73-2.76-3.63-3.82-5.67-1.45-2.8-2.33-5.76-2.77-8.87-.08-.53-.08-1.07-.12-1.61v-9.21c0-.21-.05-.42.07-.62.08-.14-.1-.26-.12-.25-.16.07-.27-.34-.45-.05-1.56-.08-3-.6-4.32-1.41-2.09-1.3-3.57-3.12-4.37-5.46-.31-.91-.53-1.84-.53-2.81,0-1.56-.04-3.1.02-4.65.08-2.33.9-4.38,2.39-6.18.82-1,1.82-1.77,2.89-2.45.05.04.08.03.13.02.02,0,.03-.03.06-.03.13-.08.26-.16.4-.24.69-.39,1.42-.69,2.2-.85.14-.03.27-.06.41-.08.14-.03.27-.04.41-.06h4.56v-3.09c.06-.3,0-.62,0-.92v-10.23c0-.38,0-.76,0-1.14,0-.29-.08-.41-.38-.39-.3.02-.59,0-.89,0,.34-.36.39-.86.58-1.29,1.19-2.61,2.67-5.06,4.44-7.32,2.98-3.78,6.58-6.82,10.81-9.13,3.25-1.77,6.7-2.95,10.33-3.62,1.87-.35,3.77-.49,5.67-.54.17,0,.34.02.51.03Z"
            fill="#f7b098" stroke-width="0" />
          <path d="M82.34,137.08v.24h-.08c.03-.08.06-.16.08-.24Z" fill="#f7b098" stroke-width="0" />
          <path
            d="M157.87,154.82c-.06,2.43-1.01,4.53-2.64,6.33-1.47,1.62-3.29,2.61-5.42,3.08-.35.08-.69.12-1.03.15-.35.03-.48.15-.48.52.02,2.56.02,5.14,0,7.7-.03,2.49-.36,4.93-1.02,7.35-.87,3.16-2.28,6.05-4.18,8.71-.5.69-1.02,1.36-1.57,2.01-.62.72-1.28,1.41-2.01,2.05-.11.1-.19.23-.29.35-.14.11-.29.23-.42.35-1.57,1.43-3.3,2.66-5.17,3.67-.02,0-.03,0-.03.02-.09-.02-.15.03-.2.1,0,.02-.03.03-.06.03-.17.02-.28.12-.36.25h-.02c-.44.1-.82.36-1.24.52-1.91.84-3.85,1.6-5.95,1.92-1.2.19-2.4.42-3.62.45-2.86.03-5.7,0-8.56,0-.14-.11-.17-.26-.17-.44v-9.49h22.89c1.02-3.5,1.6-7.3,1.6-11.27,0-11.81-4.98-22.1-12.36-27.56h20.91c.13.06.25.06.37-.03.02,0,.05,0,.07,0,.08.02.15.02.2-.05,1.2-.48,1.84-1.34,1.9-2.61h-35.68v-21.92h.09v-24.49c1.23-.08,2.45.07,3.66.17,1.68.14,3.34.47,4.98.89,1.48.38,2.93.83,4.33,1.42,1.61.67,3.18,1.43,4.68,2.33,2.22,1.33,4.27,2.88,6.14,4.66,1.86,1.79,3.53,3.75,4.98,5.89,1.29,1.9,2.34,3.9,3.26,5.99.08.17.03.37.17.52-.19,0-.37.03-.55.03q-.57-.02-.57.53v15.31h4.71c.15,0,.3.02.44.05.07,0,.14.03.21.04.83.22,1.63.5,2.39.92.08.05.16.08.22.06.02,0,.03-.02.04-.03.03-.02.05-.05.07-.1.05.17.13.3.29.4,1.49.92,2.68,2.15,3.59,3.65.78,1.3,1.25,2.72,1.36,4.26.13,1.78.1,3.55.05,5.33Z"
            fill="#fbc2a8" stroke-width="0" />
          <path
            d="M82.35,124.79c0,.38,0,.76,0,1.14v11.15c-.02.08-.04.16-.08.24h.08v2.85h-4.56c-.14.02-.28.03-.41.06-.14.02-.27.05-.41.08-.78.17-1.51.47-2.2.86-.14.08-.27.15-.4.24-.03,0-.04.03-.06.03-.04.02-.08.02-.13-.02.11-3.85.02-7.69.04-11.54.02-1.69.02-3.39,0-5.08,0-.36.14-.41.45-.41,2.14,0,4.28,0,6.42,0,.3,0,.59.03.89,0,.3-.02.39.1.38.39Z"
            fill="#fcfcfc" stroke-width="0" />
          <path d="M74.3,141.44s-.08.03-.13-.02c.05.03.08.03.13.02Z" fill="#fcfcfc" stroke-width="0" />
          <path
            d="M77.36,140.23c-.14.03-.27.05-.41.08-.78.17-1.51.47-2.2.85.69-.4,1.42-.69,2.2-.86.14-.03.27-.06.41-.08Z"
            fill="#fcfcfc" stroke-width="0" />
          <path d="M82.34,137.08v-.92c0,.3.06.62,0,.92Z" fill="#fcfcfc" stroke-width="0" />
          <path
            d="M152.58,140.98c0,.07,0,.14,0,.21-.02.05-.04.08-.07.1-.02,0-.03.02-.04.03-.06.02-.14,0-.22-.06-.75-.42-1.56-.7-2.39-.92-.07-.02-.14-.03-.21-.04v-.05h-5.15v-15.31q0-.55.57-.53c.18,0,.36-.02.55-.03h5.53c.35,0,.7.03,1.06,0,.3-.02.37.12.37.4-.02,1.48-.02,2.96,0,4.44,0,3.82,0,7.64,0,11.46-.03.1-.03.2,0,.3Z"
            fill="#fcfcfc" stroke-width="0" />
          <path d="M149.15,140.24s-.08,0-.13,0h0s.13,0,.13,0Z" fill="#fcfcfc" stroke-width="0" />
          <path d="M149.65,140.24v.05c-.14-.03-.29-.05-.44-.05h.44Z" fill="#fcfcfc" stroke-width="0" />
          <path d="M152.58,140.98c-.04-.09-.04-.19,0-.3.06.09.05.19,0,.3Z" fill="#f7b098"
            stroke-width="0" />
          <path d="M79.29,151.34c.13.07.3.05.4.17-.15-.02-.34.05-.4-.17Z" fill="#c79770"
            stroke-width="0" />
          <path d="M79.71,151.52c.1-.02.18.01.26.07-.1.02-.19.02-.26-.07Z" fill="#c79770"
            stroke-width="0" />
          <path d="M109.26,151.59c-.04.07-.1.08-.16.02.06-.01.11-.02.16-.02Z" fill="#c79770"
            stroke-width="0" />
          <path d="M80.13,151.6s.06,0,.09,0c-.03.04-.06.03-.09,0Z" fill="#c79770" stroke-width="0" />
          <path d="M146.47,151.62c.12,0,.25-.02.37-.03-.12.09-.24.09-.37.03Z" fill="#7d6c9f"
            stroke-width="0" />
          <path d="M146.91,151.58c.06-.05.12-.08.2-.05-.05.07-.12.07-.2.05Z" fill="#7d6c9f"
            stroke-width="0" />
          <path d="M117.64,151.61c-.05.05-.1.04-.13-.02.04.01.08.01.13.02Z" fill="#7d6c9f"
            stroke-width="0" />
          <path d="M149.15,140.24s-.08,0-.13,0h0s.13,0,.13,0Z" fill="#fbc2a8" stroke-width="0" />
          <path d="M149.65,140.24v.05c-.14-.03-.29-.05-.44-.05h.44Z" fill="#fbc2a8" stroke-width="0" />
          <path d="M77.36,140.23c-.14.03-.27.05-.41.08h0c.14-.03.27-.07.41-.08Z" fill="#f7b098"
            stroke-width="0" />
          <path d="M82.34,137.08v.24h-.08c.03-.08.06-.16.08-.24Z" fill="#f7b098" stroke-width="0" />
          <path d="M82.34,137.08v-.92c0,.3.06.62,0,.92Z" fill="#f7b098" stroke-width="0" />
          <path d="M82.34,137.08v.24h-.08c.03-.08.06-.16.08-.24Z" fill="#fcfcfc" stroke-width="0" />
          <ellipse cx="131.82" cy="146.73" rx="3.35" ry="5.35" fill="#131010" stroke-width="0" />
          <ellipse cx="96.23" cy="146.73" rx="3.35" ry="5.35" fill="#131010" stroke-width="0" />
          <rect x="90.67" y="136.32" width="12.95" height="7.83"
            transform="translate(68.75 -27.98) rotate(25.13)" fill="#f7b098" stroke-width="0" />
          <rect x="124.52" y="136.32" width="12.95" height="7.83"
            transform="translate(309.15 211.56) rotate(154.87)" fill="#fbc2a8" stroke-width="0" />
          <g id="sopraciglia">
            <polygon points="135.74 137.82 121.37 144.73 120.21 142.31 135.74 137.82" fill="#fcfcfc"
              stroke-width="0" />
            <polygon points="92.31 137.83 106.65 144.73 107.81 142.31 92.31 137.83" fill="#fcfcfc"
              stroke-width="0" />
          </g>
        </g>
        <g id="occhiali" class="occhiali">
          <path
            d="M149.02,149.55c0-.14-.03-.27-.04-.41h0v-.08s0-.09,0-.14c-.12-1.15-1.28-2.39-2.67-2.28-.6.05-1.2,0-1.8,0-.05.02-.09.03-.14.03h-15.89c-3.42,0-6.84,0-10.27,0-.4,0-.81-.05-1.21.11-.42.16-.85.44-1.18.86-.26.33-.45.7-.52,1.22v.07c-.02.15-.03.32-.02.49.02.54,0,.54-.58.51h-1.27c-.49,0-.99,0-1.48.02-.43.03-.59-.08-.55-.54.02-.16.02-.32,0-.47,0-.03,0-.07,0-.09h0c-.06-.45-.24-.85-.5-1.18-.51-.63-1.33-1.02-2.28-1.02-3,.02-6.01.03-9.01.03-2.23,0-4.46,0-6.69,0h-8.39c-.74,0-1.49,0-2.24-.03-.63.02-1.26.03-1.9.02-.79-.03-1.38.34-1.9.9-.36.4-.52.87-.61,1.37,0,.07-.03.14-.03.21v.02c-.02.12-.03.22-.05.34.02.17.03.33.03.5,0,2.66,0,5.33,0,7.99-.02,1.19.47,2.09,1.5,2.68.14.07.3.05.41.18h0c.1-.02.18,0,.26.07.05,0,.11,0,.17.03h28.97c.06-.02.11-.03.16-.03,1.55-.6,2.12-1.44,2.12-3.11v-2.29c0-.14-.02-.29.23-.29.6,0,1.2-.03,1.81,0,.31,0,.62,0,.93.02.16,0,.31,0,.46-.02.41-.05.53.1.52.52-.03.39-.03.78-.03,1.16,0,.42,0,.83,0,1.25,0,1.35.9,2.45,2.22,2.77.04,0,.08,0,.14.03.39,0,.78,0,1.18,0h27.64c.13,0,.25-.03.37-.03.02,0,.05,0,.07,0,.06-.05.12-.08.2-.05,1.27-.51,1.91-1.43,1.9-2.83-.02-2.17,0-4.35,0-6.52,0-.65,0-1.29,0-1.95ZM108.07,157.52c-.02.05-.03.1-.04.14-.02.05-.04.1-.08.14t0,.02s-.05.07-.08.09c-.07.08-.16.14-.26.17-.03.02-.06.03-.09.03-.02,0-.03,0-.04.02-.03,0-.07.02-.1.03-.08.02-.14.02-.24.02h-1.01c-3.7,0-7.42,0-11.12,0h-.02c-.07,0-.14-.02-.2-.03l-7.62.03h-4.23c-.77,0-1.1-.3-1.11-1.06-.02-1.83-.02-3.66-.02-5.5v-1.35c0-.06,0-.12.02-.17,0-.04,0-.08.03-.11,0-.03,0-.06.03-.08,0-.03,0-.06.03-.08.02-.05.04-.09.07-.13.03-.05.06-.08.09-.12.04-.04.08-.08.14-.1.03-.02.05-.03.08-.04.04-.03.09-.04.15-.05.05-.02.1-.02.16-.02,2.44,0,4.87-.02,7.3-.02,1.14,0,2.28,0,3.42,0,.6,0,1.19.02,1.79.03.63,0,1.24,0,1.86-.02.63,0,1.24,0,1.86,0h.31c1.95,0,3.9,0,5.86,0t.02,0h2.03c.13,0,.25,0,.35.03.07,0,.13.03.19.04.06.02.1.04.14.07.06.03.1.07.14.11.08.08.14.19.17.3,0,.02,0,.03.02.05.02.05.03.11.03.17,0,.08.02.16.02.25v6.8c0,.07,0,.13,0,.19,0,.06,0,.11-.03.16ZM144.1,158.16c-3.75,0-7.51,0-11.26,0-.04,0-.08-.03-.13-.03-.32,0-.63.02-.96.03-.31,0-.63.02-.94.02h-11.01c-.08,0-.16,0-.23,0-.02,0-.04,0-.06,0-.17-.02-.3-.05-.42-.11,0,0-.02,0-.03-.02-.02,0-.03,0-.03-.02-.02,0-.04-.02-.06-.03-.02-.02-.03-.03-.04-.04-.03-.02-.05-.03-.07-.06-.08-.07-.13-.16-.15-.27,0,0,0-.03-.02-.04,0,0-.02-.03,0-.04-.02-.07-.03-.14-.04-.22-.02-.08-.02-.16-.02-.25-.02-1.81-.02-3.62-.02-5.43v-1.43c0-.05,0-.09,0-.14,0-.03.02-.05.02-.08s0-.04.02-.07c0-.03.03-.07.04-.1.02-.03.03-.07.06-.1.03-.04.07-.08.11-.13.17-.14.4-.22.69-.22.73,0,1.46,0,2.19,0h2.73c.11,0,.21,0,.32,0h4.1c1.07,0,2.14,0,3.22,0,.21,0,.42.02.63.03.07,0,.14,0,.21,0,.31-.02.63-.02.94-.03.28,0,.55,0,.83,0,.75,0,1.51,0,2.25,0h7.11c.05,0,.11,0,.16,0,.03,0,.05,0,.08,0,.19.03.34.1.45.21.15.15.24.37.24.66v1.37c0,1.84,0,3.7,0,5.53,0,.64-.3,1.01-.93,1.01Z"
            fill="#131010" stroke-width="0" />
          <path
            d="M132.72,158.13c-.63.01-1.27.04-1.9.04-3.67,0-7.34,0-11.01,0-.84,0-1.17-.29-1.18-1.12-.02-2.29-.02-4.57-.02-6.86,0-.53.36-.84.94-.85,1.75,0,3.5,0,5.25,0,2.44,0,4.88,0,7.32,0,.28,0,.56.03.84.04-.26.08-.25.29-.25.5,0,2.74,0,5.49,0,8.23Z"
            fill="#cbd5f2" stroke-width="0" />
          <path
            d="M95.12,149.38c1.24-.01,2.48-.03,3.72-.03,2.74,0,5.47,0,8.21,0,.79,0,1.06.31,1.06,1.1-.01,2.24,0,4.49,0,6.73,0,.66-.32,1-.97,1-4.05,0-8.1,0-12.15,0-.07,0-.14-.02-.21-.02,0-2.72,0-5.45,0-8.17,0-.28.06-.49.34-.59Z"
            fill="#96ace3" stroke-width="0" />
          <path
            d="M95.12,149.38c-.28.1-.34.31-.34.59,0,2.72,0,5.45,0,8.17-2.54,0-5.08.02-7.61.02-1.41,0-2.82,0-4.23,0-.77,0-1.1-.29-1.11-1.05-.02-2.28-.02-4.57-.02-6.85,0-.52.32-.91.79-.91,4.17,0,8.35-.06,12.52.03Z"
            fill="#cbd5f2" stroke-width="0" />
          <path
            d="M132.72,158.13c0-2.74,0-5.49,0-8.23,0-.22-.01-.43.25-.5,1.34-.07,2.68-.03,4.02-.03,2.37,0,4.74,0,7.11,0,.59,0,.92.33.92.9,0,2.3,0,4.6,0,6.9,0,.65-.3,1-.93,1.01-3.75,0-7.51,0-11.26,0-.04,0-.08-.02-.12-.03Z"
            fill="#96ace3" stroke-width="0" />
        </g>
      </g>
    </g>
    <g id="icon" class="iconArrabbiato">
      <path
        d="M128.52,112.36h-8.8v-1.69h8.8c1.04,0,1.89-.85,1.89-1.89v-8.8h1.69v8.8c0,1.98-1.61,3.59-3.59,3.59Z"
        fill="#a11e21" stroke-width="0" />
      <path
        d="M146.48,112.36h-8.8c-1.98,0-3.59-1.61-3.59-3.59v-8.8h1.69v8.8c0,1.04.85,1.89,1.89,1.89h8.8v1.69Z"
        fill="#a11e21" stroke-width="0" />
      <path
        d="M132.1,127h-1.69v-8.8c0-1.04-.85-1.89-1.89-1.89h-8.8v-1.69h8.8c1.98,0,3.59,1.61,3.59,3.59v8.8Z"
        fill="#a11e21" stroke-width="0" />
      <path
        d="M135.79,127h-1.69v-8.8c0-1.98,1.61-3.59,3.59-3.59h8.8v1.69h-8.8c-1.04,0-1.89.85-1.89,1.89v8.8Z"
        fill="#a11e21" stroke-width="0" />
    </g>
  </g>
</svg>