<?xml version="1.0" encoding="UTF-8"?>
<svg id="Livello_2" data-name="Livello 2" xmlns="http://www.w3.org/2000/svg" viewBox="0 0 281.0126953125 136.5883789062">
  <defs>
    <style>
      .cls-1 {
        fill: #f4ead7;
        stroke-width: 0px;
      }
    </style>
  </defs>
  <g id="Livello_1-2" data-name="Livello 1">
    <g>
      <path class="cls-1" d="M13.8368097191.1264648438l3.7797851562,1.51171875c3.1323242188-.6298828125,3.564453125-1.1337890625,6.6962890625.251953125l.9721679688-.755859375c.9721679688.8823242188,2.0517578125.755859375,3.1318359375.3779296875,1.1879882812.7563476562.8642578125.7563476562,1.9443359375.1259765625,1.1879882812.5043945312,2.4838867188.7563476562,3.8876953125.6303710938,9.6123046875,3.4018554688,16.9565429688,13.3564453125,17.9282226562,25.5791015625.9721679688,13.8608398438-9.9360351562,31.25-23.00390625,29.7377929688l-1.404296875,1.2602539062c-2.8081054688-.5043945312-15.984375-2.5205078125-18.2524414062.1259765625-1.0795898438-.251953125-2.0517578125-.7563476562-3.0239257812-1.5122070312-.6479492188-4.158203125-.755859375-21.1694335938.32421875-23.94140625,0-9.1982421875-1.080078125-18.2709960938-1.080078125-27.3432617188,0-2.7724609375.755859375-5.5444335938,3.3481445312-6.1748046875.755859375,1.0083007812,3.1318359375.7563476562,4.1040039062,1.3862304688l.6479492188-1.259765625ZM11.8929620629,43.8505859375l.755859375,2.0161132812c.5400390625-2.6459960938.6479492188-1.8901367188-.5400390625-4.0322265625l-.2158203125,2.0161132812ZM12.1087823754,7.30859375c2.916015625.251953125,2.8081054688.3779296875.8637695312-1.0078125l-.8637695312,1.0078125ZM29.8211847191,18.271484375c-.32421875-5.4184570312-1.080078125-9.0727539062-5.5083007812-11.970703125-1.7280273438,3.2758789062-.1079101562,1.51171875-.1079101562,4.0322265625,0,4.2841796875.6479492188,8.6943359375.6479492188,13.1044921875,0,9.8286132812-1.4038085938,20.791015625-1.080078125,30.1157226562,3.99609375-2.5200195312,6.4799804688-8.1904296875,5.7241210938-13.4829101562,1.1879882812-3.2758789062,1.2958984375-11.970703125,0-14.7426757812-.1079101562-1.6381835938-.3237304688-5.5444335938.32421875-7.0561523438Z"/>
      <path class="cls-1" d="M99.4984308129,47.4047851562c-2.7001953125-.9599609375-9.7001953125-1.919921875-12.400390625-.3598632812l-2.5004882812.240234375-.8999023438-.7202148438c-2.6000976562,1.080078125-7.400390625.7202148438-10.4008789062.4799804688l-.2998046875-.4799804688-1.6000976562.6000976562c.7998046875,2.51953125.3999023438,5.2797851562.3999023438,7.7998046875,1.1000976562,1.3198242188.7001953125,1.0795898438,1.900390625,1.0795898438,3.3002929688,1.919921875,1.3999023438-.1196289062,3.5,1.080078125,1.8002929688-.3598632812,7.1005859375.7202148438,7.1005859375-2.759765625,0-3.3598632812-1.1000976562.1196289062.1000976562-5.1596679688,1.8999023438-.3603515625,3.8999023438-.3603515625,5.8002929688-.48046875.3999023438.8403320312,2.2998046875.3603515625,2.8999023438,0l2.900390625.7202148438c.7001953125-.3598632812,1.6000976562-.6000976562,2.3999023438-.6000976562.8002929688,0,1.400390625.83984375,1.400390625,1.7998046875,0,4.4399414062-9.4008789062,10.5595703125-12.5009765625,12.2397460938-2.7001953125,1.4399414062-5.8002929688,1.3198242188-8.7006835938,1.6801757812-.1997070312-.48046875.3002929688-.6000976562-2.8999023438.83984375-1.1000976562-.4799804688-2.2001953125-1.080078125-3.400390625-1.080078125-8.3002929688-7.5595703125-12.7006835938.1201171875-15.4008789062-17.0390625-.1997070312,0-.1997070312.3598632812-.1997070312-2.400390625-.3002929688-13.9189453125,9.900390625-18.3588867188,19.4008789062-21.5986328125.2001953125.2397460938,9.1005859375,1.439453125,10.1005859375,1.5595703125,7.5004882812,9.9599609375,12.4008789062-1.1997070312,14.1010742188,21.119140625l-.8002929688,1.4399414062ZM64.0965753441,45.125c-1.3002929688-.240234375-1.1000976562.1201171875-1.3002929688-1.5600585938l-.8999023438-.9599609375-.5,1.8002929688c1.1997070312,1.5595703125,1.6000976562,1.0795898438,1.7001953125,3.599609375l1.3999023438.4799804688.1000976562-.4799804688c-.8002929688-1.6796875-.7001953125-1.080078125-.5-2.8798828125ZM61.7962823754,39.125l.8999023438.9599609375c.6000976562-.9599609375.5-.599609375.5-1.6796875-1.1997070312,0-1-.1201171875-1.3999023438.7197265625ZM61.9964776879,42.0048828125c.2998046875-.599609375.3999023438-.4794921875-.1000976562-.7197265625l.1000976562.7197265625ZM61.8963800316,49.3247070312c1,0,.8999023438.1201171875.1997070312-.9599609375l-.1997070312.9599609375ZM64.6966730004,35.4052734375l-.400390625.6000976562c.7001953125.4799804688.6000976562.4799804688.900390625-.1201171875l-.5-.4799804688ZM65.1966730004,53.7646484375c.099609375,2.2797851562,1.6000976562.83984375.7998046875,0h-.7998046875ZM65.9964776879,49.0849609375v1.1997070312c.8002929688.240234375,1.400390625-.3598632812,1.900390625-1.1997070312-1.5004882812.4799804688-1.1000976562.4799804688-1.900390625,0ZM67.1966730004,45.0048828125c-.3999023438.6000976562-.6000976562.4799804688.7998046875.4799804688l-.7998046875-.4799804688ZM84.2977472191,32.8857421875c-1.7001953125-1.6801757812-4.900390625-1.080078125-5.2001953125-1.8002929688-2.400390625,0-4.8002929688,1.6801757812-7.7006835938,1.5600585938-.7001953125,2.5200195312-.3999023438,4.7998046875-.1000976562,7.0795898438,2.3002929688,1.2001953125,6.5004882812-.7197265625,9.2006835938-.7197265625,1.2001953125,0,1,.7197265625,3.3002929688.4799804688l.5-.6000976562c-.3999023438-1.919921875-.3002929688-4.0795898438,0-5.9995117188ZM87.0980401879,41.28515625c.3999023438-.7197265625.3999023438-.6000976562-.1000976562-.83984375l.1000976562.83984375ZM89.1981378441,40.9252929688c0-1.5600585938.099609375-1.3198242188-.6000976562-1.3198242188-.2001953125.83984375-.3002929688.599609375.6000976562,1.3198242188ZM89.2977472191,53.64453125c.7001953125-.599609375.5004882812-.2397460938.5004882812-1.5595703125-.7001953125,0-.6000976562-.240234375-.5004882812,1.5595703125ZM90.1981378441,42.2451171875c.3999023438-.7197265625,1.1997070312-2.3999023438,0-1.6796875v1.6796875ZM90.8978448754,53.5244140625c.900390625-.7197265625.8002929688-.4794921875.2001953125-1.5595703125-.8999023438,1.4399414062-.8999023438,1.080078125-.2001953125,1.5595703125Z"/>
      <g>
        <path class="cls-1" d="M134.4015069848,44.4487304688c-2.1699829102-1.7899780273-5.7899780273-3.5599975586-9.299987793-5.2699584961-3.5999755859-1.7600097656-7.3099975586-3.5800170898-8.9799804688-5.200012207.5700073242-1.5300292969,2.6399536133-2.3099975586,6.1499633789-2.3200073242.7300415039.1400146484,1.4600219727.2800292969,2.1900024414.4199829102,1.8099975586.3500366211,3.5300292969.6799926758,5.1900024414,1.0800170898,1.4700317383,1,8.5200195312,5.3300170898,10.0400390625,5.6099853516l.0899658203.0100097656h.0900268555c2.3800048828,0,3.6199951172-1.2199707031,3.6199951172-2.4199829102v-.4299926758l-.3099975586-.299987793c-.6000366211-.5600585938-.9100341797-1.1900024414-.9100341797-1.8200073242,0-.1900024414.0400390625-.4100341797.0800170898-.6400146484.1199951172-.6799926758.299987793-1.700012207-.4700317383-2.6000366211-1.6399536133-2.1099853516-19.4899902344-3.0799560547-19.6599731445-3.0899658203h-.0999755859l-8.2800292969,1.4600219727-.1099853516.0599975586c-4.4899902344,2.0399780273-5.5700073242,3.6799926758-6.8200073242,5.5799560547-.450012207.6799926758-.9199829102,1.3800048828-1.5800170898,2.1900024414l-.299987793.3500366211.0800170898.4599609375c.25,1.3800048828,1.3200073242,2.5,2.3499755859,3.5800170898.700012207.7299804688,1.4299926758,1.4899902344,1.75,2.2100219727l.1500244141.3399658203.3399658203.1500244141c.7200317383.3399658203,1.4200439453.7600097656,2.1600341797,1.2099609375,1.4299926758.8600463867,3.0299682617,1.8400268555,5.1599731445,2.3400268555,1.049987793.8300170898,2.4800415039,1.5,3.8699951172,2.1500244141,1.3600463867.6399536133,2.7700195312,1.2899780273,3.6300048828,2.0299682617l.1500244141.1300048828.1900024414.0599975586c1.3099975586.4199829102,2.5599975586,1.1900024414,3.1099853516,1.7200317383l.1699829102.1599731445.2100219727.0700073242c1.5.5,3.5,1.950012207,3.7100219727,2.3900146484l.0999755859.5199584961.4899902344.2100219727c.6799926758.2899780273,1.4899902344.7600097656,1.4899902344,1.3300170898,0,.7299804688-3.2799682617,2.5299682617-7.5700073242,2.5299682617-2.3299560547,0-4.6799926758-.4400024414-6.9599609375-.8599853516l-.4400024414-.0800170898c-1.3599853516-.6199951172-2.6400146484-1.2600097656-3.8900146484-1.8800048828-1.3599853516-.6900024414-2.7700195312-1.3899536133-4.2700195312-2.0599975586-.0099487305-.3099975586-.0799560547-.6399536133-.3099975586-.9499511719-.4599609375-.6500244141-1.3399658203-.9100341797-2.6900024414-1.1400146484l-.2699584961-.0400390625-.2600097656.1000366211c-.2399902344.0899658203-.4400024414.1699829102-.6099853516.2299804688-1.3900146484.5-1.6400146484.8599853516-1.7200317383,2.3699951172-.0100097656.2200317383-.0299682617.4800415039-.049987793.7800292969-.1400146484,1.2799682617.3699951172,2.4599609375.8200073242,3.5.25.5700073242.4799804688,1.1099853516.5999755859,1.6199951172l.1400146484.6300048828,1.799987793.3699951172c4.0900268555.8499755859,8.3099975586,1.7299804688,13.0300292969,1.7299804688.1499633789,0,13.8899536133-.3200073242,16.2399902344-3.3699951172,4.8800048828-.7700195312,8.3900146484-6.0900268555,8.3900146484-8.2799682617,0-3.7900390625-6.0400390625-7.2600097656-11.7200317383-8.9300537109ZM118.6915460473,43.0287475586c0,.3400268555.1499633789.4299926758-.2200317383.4299926758-.200012207,0-.5599975586-.0299682617-1.1799926758-.049987793v-.5299682617l1.4000244141.1499633789ZM117.9915338402,40.1087646484l.8800048828-.3800048828c.1699829102.3800048828.3499755859.299987793-.8800048828.3800048828ZM122.0215021019,45.2087402344l-1.3999633789.75c-.5300292969-.6799926758-.700012207-.5299682617,1.3999633789-.75ZM124.121538723,44.5287475586l1.049987793.0800170898c-.4199829102.2099609375-.6000366211.3300170898-.7100219727.3300170898-.1199951172,0-.1599731445-.1400146484-.3399658203-.4100341797ZM127.7915216332,45.2787475586l-.3499755859-.450012207c1.5799560547.1500244141,1.5799560547.0800170898.3499755859.450012207ZM131.8214898949,47.6087646484l-1.049987793.5999755859c-.700012207-.450012207-.8800048828-.299987793,1.049987793-.5999755859ZM131.6414972191,51.3587646484l2.8000488281-.0800170898c-.5200195312.75.1799926758.6000366211-3.1500244141.6799926758l.3499755859-.5999755859ZM136.5415216332,52.8587646484l1.9299926758.299987793c-1.049987793.3699951172-1.9299926758,1.1199951172-2.450012207,1.6500244141-.8800048828-.75,0-1.200012207.5200195312-1.950012207Z"/>
        <path class="cls-1" d="M134.8814874535,43.5487670898c-2.2799682617-1.8200073242-5.8699951172-3.5700073242-9.3399658203-5.2700195312-2.9899902344-1.4699707031-6.3200073242-3.0899658203-8.1099853516-4.4899902344.9699707031-.9299926758,3.2099609375-1.1199951172,4.75-1.1300048828.6999511719.1400146484,1.3899536133.2700195312,2.0899658203.4000244141,1.7399902344.3399658203,3.3900146484.6499633789,4.9800415039,1.0299682617,1.7699584961,1.1699829102,8.5099487305,5.3400268555,10.2599487305,5.6600341797l.1800537109.0299682617h.1799926758c3.0299682617,0,4.6199951172-1.7199707031,4.6199951172-3.4199829102v-.8699951172l-.6199951172-.5900268555c-.2800292969-.25-.6000366211-.6499633789-.6000366211-1.0899658203,0-.1000366211.0300292969-.3000488281.0599975586-.4700317383.1400146484-.75.3800048828-2.1300048828-.6799926758-3.4099731445-.5299682617-.6900024414-1.299987793-1.5400390625-9.9199829102-2.5599975586-4.1600341797-.5-8.6799926758-.8500366211-10.4899902344-.8900146484h-.200012207l-.200012207.0299682617-8.049987793,1.4300537109-.2399902344.0399780273-.2300415039.1099853516c-4.75,2.1500244141-5.9099731445,3.9100341797-7.25,5.9400024414-.4299926758.6600341797-.8799438477,1.3400268555-1.5099487305,2.1000366211l-.6000366211.7099609375.1600341797.9199829102c.299987793,1.6700439453,1.5299682617,2.9600219727,2.6199951172,4.0900268555.6399536133.6699829102,1.299987793,1.3699951172,1.549987793,1.9299926758l.3099975586.6799926758.6799926758.3099975586c.6699829102.3099975586,1.3499755859.7200317383,2.0599975586,1.1600341797,1.450012207.8699951172,3.0700073242,1.8499755859,5.2299804688,2.3999633789,1.1200561523.8400268555,2.5300292969,1.5,3.9000244141,2.1400146484,1.299987793.5999755859,2.6400146484,1.2299804688,3.4000244141,1.8800048828l.299987793.2600097656.3900146484.1300048828c1.1099853516.3499755859,2.25,1.0299682617,2.7199707031,1.4799804688l.3300170898.3200073242.4299926758.1400146484c1.0599975586.3499755859,2.6300048828,1.3999633789,3.0899658203,1.8999633789l.1500244141.7700195312.9799804688.4199829102c.3099975586.1300048828.5200195312.25.6600341797.3500366211-.8599853516.6300048828-3.2900390625,1.5899658203-6.3500366211,1.5899658203-2.2399902344,0-4.549987793-.4299926758-6.7699584961-.8399658203l-.3300170898-.0599975586c-1.299987793-.6000366211-2.5399780273-1.2200317383-3.7399902344-1.8200073242-1.2200317383-.6099853516-2.4799804688-1.2399902344-3.8200073242-1.8500366211-.0700073242-.2699584961-.1900024414-.5599975586-.3900146484-.8399658203-.7299804688-1.0300292969-2-1.3200073242-3.3499755859-1.5400390625l-.5400390625-.0899658203-.5099487305.200012207c-.2300415039.0899658203-.4299926758.1599731445-.6000366211.2199707031-1.7600097656.6400146484-2.2699584961,1.3400268555-2.3699951172,3.25-.0100097656.2100219727-.0299682617.4600219727-.049987793.7600097656-.1500244141,1.5399780273.4299926758,2.8900146484.9099731445,3.9799804688.2200317383.5300292969.4400024414,1.0200195312.5300292969,1.4400024414l.2799682617,1.2600097656,1.2700195312.2600097656,1.1699829102.2399902344c4.1300048828.8599853516,8.4000244141,1.75,13.2300415039,1.75,2.0199584961,0,6.0599975586-.3099975586,9.5599975586-.8900146484,3.4599609375-.5700073242,6.0899658203-1.2699584961,7.2899780273-2.5799560547,2.1699829102-.450012207,4.2700195312-1.7300415039,6.0100097656-3.6600341797,1.2799682617-1.4099731445,2.7700195312-3.7099609375,2.7700195312-5.5199584961,0-4.5700073242-6.5-8.1100463867-12.2400512695-9.8300170898ZM121.4915338402,64.0287475586c-5.0700073242,0-9.6199951172-1.049987793-14-1.950012207-.3500366211-1.5700073242-1.5700073242-3.1499633789-1.4000244141-4.799987793.1799926758-2.25-.1699829102-1.799987793,1.75-2.549987793,2.2800292969.3800048828,2.2800292969.75,2.1000366211,1.7299804688,3.1499633789,1.3500366211,5.7799682617,2.8500366211,8.9299926758,4.2700195312,2.4499511719.450012207,5.0700073242.9799804688,7.6999511719.9799804688,4.200012207,0,8.5700073242-1.7299804688,8.5700073242-3.5299682617,0-.9000244141-.6999511719-1.6500244141-2.0999755859-2.25-.1699829102-.9000244141-2.799987793-2.6199951172-4.3699951172-3.1500244141-.700012207-.6699829102-2.1000366211-1.5-3.5-1.950012207-1.9299926758-1.6499633789-5.7800292969-2.6999511719-7.700012207-4.3499755859-3.1500244141-.6699829102-5.0800170898-2.4700317383-7.3499755859-3.5200195312-.8800048828-1.950012207-3.6799926758-3.5999755859-4.0300292969-5.549987793,2.6300048828-3.1500244141,2.2800292969-4.8800048828,8.049987793-7.5l8.0500488281-1.4299926758c3.3299560547.0800170898,17.8499755859,1.3499755859,18.8999633789,2.700012207.700012207.8299560547.1799926758,1.7299804688.1799926758,2.6300048828,0,.8200073242.3500366211,1.7199707031,1.2200317383,2.549987793,0,.6699829102-.8699951172,1.4199829102-2.6199951172,1.4199829102-1.2300415039-.2199707031-8.5800170898-4.6499633789-9.8000488281-5.549987793-2.4499511719-.5999755859-5.0799560547-1.049987793-7.6999511719-1.5700073242-5.0800170898,0-7,1.5700073242-7.3500366211,3.5999755859,2.9700317383,3.5200195312,14.5200195312,7.3500366211,18.9000244141,11.1000366211,5.7700195312,1.6499633789,11.200012207,4.950012207,11.200012207,8.0200195312,0,1.7299804688-3.3300170898,6.9799804688-8.0500488281,7.3499755859,0,2.0999755859-11.7299804688,3.299987793-15.5799560547,3.299987793Z"/>
      </g>
      <path class="cls-1" d="M175.7225519066,60.6850585938c-1.6796875-.6000976562-2.1596679688-.9599609375-3.7197265625-.240234375-.3598632812,0-7.0795898438-.2397460938-7.9194335938.1201171875-2.7602539062-.9599609375-7.5600585938.6000976562-9.9599609375.6000976562-1.919921875,0-2.51953125-.3603515625-3.83984375-1.6801757812l.1201171875-4.0795898438,1.3198242188-1.080078125c2.7602539062-.3598632812,1.6801757812-.4799804688,5.6401367188.4799804688-.3603515625-24.5991210938-.240234375-20.7592773438-.7202148438-20.9990234375-.2397460938-2.16015625-.3598632812-4.3198242188-.1201171875-6.4799804688-1.6796875-.2397460938-3.2397460938.1201171875-4.4399414062.83984375-1.1997070312-.1196289062-1.919921875-2.759765625-1.919921875-3.7197265625s.3603515625-3.4794921875,1.8002929688-3.4794921875,2.2797851562.7197265625,3.9594726562.4794921875c1.4404296875.3603515625,3,.1201171875,4.2001953125,1.080078125l3.7197265625.1201171875c2.0400390625,0,4.1997070312-.6000976562,6.1196289062-1.3198242188l1.919921875,1.3198242188c0,1.919921875.240234375,2.5200195312-.6000976562,4.3198242188.8403320312,1.919921875.7202148438,8.0395507812.7202148438,10.3198242188,0,2.6396484375.3598632812,7.9194335938-.7202148438,9.7192382812.48046875,1.080078125-.4794921875,3,.240234375,4.080078125.3598632812.6000976562-.240234375,2.3999023438-.1201171875,3.599609375,1.5600585938,0,3.1201171875-.7197265625,4.6796875-.7197265625,1.080078125,0,1.2001953125,3.599609375,1.2001953125,4.4399414062l-1.5600585938,2.2797851562ZM169.6029230004,20.966796875c-1.4399414062-.8403320312-3.3598632812-.9599609375-5.0400390625-1.080078125l-2.6396484375.9599609375c-2.0400390625-.6000976562-1.5600585938-.4799804688-2.759765625,0-1.2001953125-1.080078125-1.6801757812-3.7197265625-1.6801757812-5.16015625,0-2.3994140625.4799804688-4.6796875.3598632812-7.0795898438.6000976562-.7197265625,1.2001953125-1.6796875,2.16015625-1.7998046875,2.16015625,1.4399414062,7.919921875,1.6801757812,10.0795898438.1201171875,1.1997070312-.240234375,1.919921875,2.5200195312,1.7998046875,3.7197265625,0,3.83984375,1.3198242188,10.3198242188-2.2797851562,10.3198242188ZM159.4032159691,28.5263671875l.8403320312-1.4399414062,1.7998046875.9599609375c-.83984375,1.5600585938-.3603515625,1.5600585938-1.4399414062,1.5600585938l-1.2001953125-1.080078125ZM161.8031183129,41.60546875l-.599609375.8403320312c-.1201171875.3598632812-.48046875.6000976562-.48046875.9599609375,0,1.0795898438.3603515625,2.0395507812.6000976562,3.1196289062l.7202148438-.599609375c.4799804688-.7202148438-.240234375-3-.240234375-4.3203125ZM160.8431573754,49.525390625l.83984375-.7197265625c1.2001953125.7197265625,1.080078125.9599609375.3603515625,1.439453125l-1.2001953125-.7197265625ZM161.2035089379,40.166015625c1.919921875-.6000976562,1.919921875-.48046875-.240234375-.9599609375l.240234375.9599609375ZM162.4032159691,37.166015625c.6000976562-.83984375.83984375-.7202148438-1.3198242188-.9599609375.4799804688.4799804688.2397460938.3598632812,1.3198242188.9599609375ZM161.2035089379,54.4453125l.83984375.1201171875c1.1997070312-1.2001953125.4799804688-.9599609375,2.2797851562-.7202148438-1.1997070312-1.080078125-1.7998046875-1.5600585938-3.1196289062.6000976562ZM161.3231378441,31.7661132812c.1201171875.83984375-.1196289062.83984375,1.2001953125.2397460938-.3598632812-.7197265625-.1201171875-.7197265625-1.2001953125-.2397460938ZM163.2430597191,28.7661132812c1.6801757812.6000976562,1.3198242188.6000976562,1.6801757812-.2397460938l-1.6801757812.2397460938ZM163.7230401879,41.3657226562c.9599609375-.2397460938.83984375-.1201171875.240234375-.7202148438l-.240234375.7202148438ZM163.7230401879,46.0454101562l1.4399414062-.9599609375c-1.3198242188-.2397460938-1.0795898438-.4799804688-1.4399414062.9599609375ZM164.8031183129,31.166015625l-.6000976562,1.7998046875c1.080078125-1.1997070312,1.3198242188-.4794921875,1.8002929688-.599609375,0-1.4399414062.2397460938-1.2001953125-1.2001953125-1.2001953125ZM165.5228448754,36.5659179688l.3603515625.9599609375-.83984375,1.4399414062c1.5595703125.240234375,1.3198242188.4799804688.83984375-1.4399414062,1.4399414062.6000976562,2.2797851562-.3598632812-.3603515625-.9599609375ZM165.4032159691,43.0458984375c1.4399414062,0,.4799804688-.1201171875.1196289062-.7202148438l-.1196289062.7202148438Z"/>
      <path class="cls-1" d="M233.2005792504,19.4291992188v.1440429688c.240234375,2.8798828125-2.16015625,2.8798828125-3.9599609375,3.4560546875-1.1997070312-.7202148438-2.2797851562-1.4399414062-3.1196289062-2.591796875-.3598632812-2.8803710938-.9599609375-4.0322265625,0-6.912109375-1.5600585938-1.0078125-2.6401367188,3.3120117188-2.6401367188,4.751953125.83984375,2.4477539062,1.7998046875,4.751953125,2.3999023438,7.34375-3.3598632812,5.759765625-4.7998046875,9.7919921875-11.3994140625,10.7998046875-.2397460938,1.2958984375-6.599609375.7202148438-8.759765625,2.16015625-2.2797851562-.576171875-1.7998046875-.7202148438-2.9995117188.431640625-1.8002929688-1.1518554688-3.83984375-1.2958984375-5.8798828125-.7197265625-1.3203125-.7202148438-.9599609375-.7202148438-2.16015625-.1440429688-2.1596679688-1.4399414062-4.5595703125-.8637695312-6.9594726562-.7202148438-2.16015625,2.4482421875-1.8002929688,2.0161132812-1.919921875,2.5922851562,0,1.583984375,2.0395507812,2.8798828125,3.1196289062,2.8798828125,1.4399414062,0,2.2802734375,0,3.3598632812-.8642578125,1.080078125.576171875,2.2797851562.576171875,3.3598632812.576171875,1.7998046875,0,3.6000976562-.2880859375,5.2797851562-.576171875,1.3198242188,1.2963867188.4799804688,1.15234375,4.7998046875.576171875.6000976562.8637695312,1.6801757812.4321289062,2.5200195312,0,2.3999023438.4321289062,4.919921875.4321289062,7.439453125.2880859375,0,0,5.3999023438,2.0161132812,7.080078125,3.16796875,1.3198242188,3.0239257812,3.2397460938,6.0478515625,3.2397460938,9.6479492188v7.34375c-4.1997070312,4.8959960938,4.5600585938,8.7836914062-14.7592773438,14.8315429688-1.2001953125.2880859375-2.8798828125-.7197265625-3.7197265625-.8637695312-1.3203125.7197265625-2.6401367188,1.2958984375-4.080078125,1.2958984375-1.2001953125,0-3.7197265625-1.2958984375-4.4399414062-.4321289062-3.7197265625-1.8720703125-7.6796875-1.7280273438-11.51953125-2.8798828125-1.3198242188-2.3041992188-4.4399414062-1.0078125-4.6796875-5.1840820312,1.3198242188-4.8955078125,3.83984375-3.0239257812,6.9594726562-3.7436523438.7202148438-1.0083007812.7202148438-.7202148438,0-1.0083007812-6.1196289062,2.0161132812-7.9194335938-8.6396484375-7.9194335938-13.9672851562,0-.8642578125.6000976562-5.0400390625,0-5.0400390625,1.919921875-4.751953125-.1201171875-9.6479492188,5.2797851562-11.6640625,2.16015625.7202148438,4.4399414062,1.15234375,6.7197265625,1.4399414062.83984375-.1435546875.83984375,0,.240234375-.8637695312-1.919921875,1.0078125-4.3203125-1.4399414062-6.4799804688-1.7280273438-2.1596679688-2.0161132812-5.759765625-5.6157226562-5.759765625-9.2158203125,0-7.34375,6.83984375-11.51953125,11.8793945312-13.5356445312,2.0400390625,0,2.8798828125-.576171875,4.6796875-1.1518554688.48046875.5756835938.240234375.5756835938,1.4404296875-.1440429688.83984375.4321289062,1.919921875-.1440429688,2.759765625-.4321289062,2.51953125.7202148438,2.0400390625.7202148438,2.51953125.1440429688,5.8798828125.7202148438,12.2397460938,2.7358398438,16.6796875,7.919921875.3598632812-3.0239257812.2397460938-2.591796875.4799804688-2.8798828125.6000976562-3.16796875,3.3598632812-4.751953125,5.8793945312-4.751953125,3.1201171875,0,6.1201171875,4.8959960938,6,8.3515625l-.9599609375,1.8720703125ZM185.9222589379,45.060546875l-.1196289062.7202148438.6000976562-.4321289062-.48046875-.2880859375ZM186.6424737816,48.8046875l-.83984375.8637695312.83984375,1.0083007812c-.1201171875-3.4560546875.6000976562,1.0078125.6000976562-2.3041992188-.240234375.7202148438-.1201171875.576171875-.6000976562.4321289062ZM186.4027276879,23.029296875c0,1.583984375-.1201171875,1.2958984375.83984375,1.2958984375l-.83984375-1.2958984375ZM187.6024347191,51.2524414062c-.2397460938,2.0161132812-.7202148438,2.4482421875.9599609375,2.0161132812-.2397460938-1.4399414062-.1201171875-1.1518554688-.9599609375-2.0161132812ZM187.6024347191,55.8603515625c.3598632812.8642578125.1201171875.7202148438.9599609375.7202148438l.9599609375-1.583984375c.83984375,2.8798828125.4799804688-.7202148438,0-1.0078125-.83984375,0-1.4399414062,1.0078125-1.919921875,1.8715820312ZM191.9222589379,21.8774414062c-1.4399414062,0-1.080078125-.2880859375-1.6796875,1.0078125,0,1.0078125-.3603515625,1.0078125,1.6796875,0v-1.0078125ZM191.0824151879,26.9169921875c.599609375-2.015625.599609375-1.583984375.2397460938-2.3037109375-.83984375.7197265625-1.6796875,1.8720703125-.2397460938,2.3037109375ZM212.2015558129,66.8041992188c-1.919921875-1.1518554688-4.080078125-.2875976562-6.1201171875-.431640625-.7197265625.431640625-.4794921875.5756835938-1.0795898438-.2880859375-1.3198242188.1440429688-8.1596679688.1440429688-8.8798828125-.4321289062-2.6396484375.8642578125-6.599609375,1.2958984375-5.6396484375,5.759765625,3.1196289062,1.8720703125,8.8793945312,4.1762695312,12.4794921875,3.4560546875l.83984375.4321289062,2.6401367188-.7202148438c.83984375.7202148438,4.6796875-.431640625,5.8798828125-.5756835938.9599609375.431640625.7197265625.431640625.9599609375,0,1.7998046875-.1440429688,3.599609375-1.15234375,5.0395507812-2.4482421875.9599609375-.1440429688,1.3198242188-1.2958984375,1.7998046875-2.1596679688-.9599609375-2.8798828125-5.759765625-4.0322265625-7.9194335938-2.5922851562ZM192.0423761254,53.1245117188l-.4799804688,1.0083007812c.1196289062,1.1518554688.2397460938,2.8798828125-.9599609375,3.3115234375.4799804688.7202148438.1196289062.7202148438,1.919921875.1440429688,0-3.7436523438.1196289062-2.8798828125-.4799804688-4.4638671875ZM192.0423761254,24.037109375l1.1997070312.576171875c-.1196289062-.7202148438-.2397460938-.7202148438.7202148438-.7202148438-.83984375-1.0078125-.4799804688-1.0078125-1.919921875.1440429688ZM192.7621026879,48.8046875c0,1.1518554688-.1201171875,1.0078125.83984375.7202148438l-.83984375-.7202148438ZM193.6019464379,19.1411132812c.1201171875,1.583984375-.1196289062,1.4399414062.9599609375.8642578125-.3598632812-.8642578125-.1196289062-.7202148438-.9599609375-.8642578125ZM196.9622980004,46.9326171875c.7197265625,0,.599609375.2880859375.599609375-1.4399414062l-.599609375,1.4399414062ZM198.4017511254,56.1484375c0,1.0083007812-.2397460938,1.0083007812,1.080078125,0,.240234375.4321289062.1201171875.2880859375.9599609375.8642578125l.240234375-1.15234375c-1.7998046875-2.3037109375-.6000976562-.431640625-2.2802734375.2880859375ZM199.2420831566,45.9248046875l-.7202148438,1.2958984375c1.3203125.2880859375,1.080078125.4321289062,1.6801757812-.8637695312,1.3198242188,1.0078125,1.0795898438,1.0078125,1.3198242188,0-.7197265625-.2880859375-1.4399414062-.4321289062-2.2797851562-.4321289062ZM198.5218683129,52.6923828125l.4799804688.576171875c.8403320312-.4321289062.7202148438-.2880859375.9599609375-1.1518554688-.4799804688-.4321289062-.1196289062-.4321289062-1.4399414062.5756835938ZM206.8016534691,13.9575195312c-.7202148438-1.2958984375-2.0400390625-2.4482421875-3.4799804688-2.4482421875l-2.0400390625,2.0161132812c-.9599609375,6.4799804688-.1196289062,16.7036132812,0,21.0234375.7202148438.8642578125,1.6801757812,1.583984375,2.6401367188,1.7280273438,2.2797851562-1.4399414062,1.7998046875-2.0161132812,2.8798828125-4.4638671875V13.9575195312ZM205.4818292504,54.564453125l-1.080078125.8642578125c2.16015625.5756835938,1.919921875.431640625,1.919921875.2880859375l-.83984375-1.15234375ZM207.1615167504,54.1328125c-.3598632812.7197265625-.4799804688.5756835938.6000976562.5756835938l-.6000976562-.5756835938ZM207.0413995629,50.2446289062c-.4794921875,1.4399414062,1.919921875,1.4399414062,1.4404296875.2880859375l-1.4404296875-.2880859375ZM210.7616144066,54.9965820312c-.1201171875,1.2958984375-.1201171875,1.0078125.3598632812,1.583984375.9599609375-.576171875,1.3198242188-1.1518554688.3598632812-2.16015625l-.7197265625.576171875ZM212.4413019066,26.4853515625c1.2001953125.2875976562,1.080078125.7197265625.8403320312-2.16015625-.3603515625.7197265625-.6000976562,1.4399414062-.8403320312,2.16015625ZM213.5213800316,54.4204101562l-1.080078125.4321289062v.7202148438c.7202148438.431640625.4799804688.431640625,1.6801757812-.4321289062l-.6000976562-.7202148438ZM215.0814386254,48.9487304688c.599609375-.576171875.599609375-.2880859375-.3603515625-1.4399414062-.4794921875.2880859375-.599609375,0,.3603515625,1.4399414062ZM215.9212823754,54.4204101562h-.7197265625l.2397460938,1.2963867188.83984375-.2880859375-.3598632812-1.0083007812ZM217.3612237816,55.716796875c1.3198242188,1.2958984375.9599609375,1.0078125,1.5600585938,1.0078125,1.4399414062-1.583984375,1.1997070312-1.2958984375.9599609375-1.8720703125-2.759765625,2.4482421875-1.919921875-1.0078125-2.5200195312.8642578125Z"/>
      <path class="cls-1" d="M269.2733331566,64.84375c-2.0161132812-.4794921875-1.4399414062-.4794921875-2.8798828125-.1196289062-1.583984375-.4799804688-4.17578125-1.2001953125-5.4721679688-.1201171875-1.4399414062-.4799804688-1.0078125-.4799804688-2.1596679688.2397460938-1.1518554688-1.1997070312-7.4877929688-.2397460938-9.6479492188-.9599609375-2.1596679688.7202148438-4.17578125,1.3203125-6.4799804688,1.3203125-1.0078125,0-5.4716796875-.6000976562-5.4716796875,0-1.4399414062-.4799804688-3.4560546875-1.080078125-3.4560546875-2.5200195312,0-.7202148438.576171875-1.3198242188,1.2958984375-1.6801757812-1.0078125-.7197265625-1.583984375-1.919921875-1.583984375-2.9995117188,0-1.919921875-.1440429688-9.1196289062,2.4482421875-8.9995117188h1.0078125l-.1440429688.2397460938,1.7280273438.7202148438.576171875-.3603515625h1.0078125l.1440429688-2.2797851562c.1440429688-1.4399414062-.7202148438-2.759765625-1.0078125-4.0795898438h.2875976562c.2880859375-1.5600585938.2880859375-3.240234375.2880859375-4.7998046875.7201995775-.7202148438,0-.7202148438.4321289062-1.6801757812-.1440429688-.83984375-.2880859375-1.6801757812-.4321289062-2.5200195312-1.7280273438-.3598632812-2.015625.4799804688-3.4560546875.4799804688-2.8798828125,0-2.591796875-1.4399414062-1.8715820312-3.2397460938-.7202148438-1.2001953125-1.2958984375-5.51953125-.4321289062-6.599609375,0-2.0400390625.4321289062-4.4399414062,3.0239257812-5.3999023438,2.591796875.83984375-.1440429688.6000976562,4.6079101562.6000976562,1.0078125,0,.576171875.3598632812,1.8720703125,0l1.8720703125.9599609375.1435546875,2.6396484375c2.8803710938.240234375.7202148438-4.919921875,7.48828125-4.1997070312,1.1518554688-.9599609375.7197265625-.7202148438,1.8715820312-.7202148438,1.4399414062.7202148438,3.4560546875,1.4404296875,4.8959960938.3603515625,11.5200195312,5.51953125,11.087890625,8.9995117188,10.7998046875,19.5590820312-.4321289062.2397460938-.2880859375-1.6801757812-.2880859375,10.1997070312,1.0083007812.83984375.4321289062.83984375,3.0239257812.1201171875.7202148438.599609375,1.2963867188,1.1997070312,1.7280273438,1.919921875,0,1.7998046875.7202148438,3.4794921875.7202148438,5.279296875,0,6.4799804688.2880859375,5.16015625-1.583984375,7.2001953125l-4.8959960938,1.439453125ZM271.7210870629,53.8046875c-1.4399414062,0-.7197265625,4.0795898438-.5756835938,4.7998046875-1.0083007812,2.2797851562-6.3359375,1.5595703125-8.2080078125,1.5595703125-.4321289062-.4799804688-.1440429688-.2397460938-2.0161132812-.7197265625-1.4399414062.4799804688-3.0239257812.83984375-4.4638671875.599609375l-.5756835938.48046875-2.0161132812-1.919921875c.4321289062-3.7202148438,1.4399414062-5.16015625,0-7.4399414062.576171875-.9599609375,1.583984375-1.7998046875,2.8798828125-1.919921875.7202148438.1201171875,1.583984375.4799804688,2.3041992188.9599609375.5756835938-.4799804688.7197265625-1.3198242188.7197265625-1.919921875-.7197265625-.6000976562-.7197265625-.3598632812-.1440429688-1.1997070312-1.0078125-2.6401367188-.431640625-5.5200195312-.431640625-8.3999023438,0-3.4799804688-2.4482421875-4.5600585938-6.1918945312-5.1596679688l-1.15234375.7197265625c-.431640625.9599609375-1.2958984375,2.6401367188-1.2958984375,3.7197265625v10.6796875c1.4399414062,2.16015625,1.4399414062,4.5600585938,1.4399414062,6.83984375,0,5.2797851562-1.7280273438,3.4799804688-6.4799804688,4.6796875v-.3598632812c-2.591796875.4799804688-2.1596679688.4799804688-2.591796875,0-2.8798828125,0-4.8959960938.9599609375-7.34375,1.3198242188l1.2958984375.3603515625.576171875-.1201171875c2.015625,1.1997070312,4.751953125,0,5.6157226562-.6000976562l.8642578125.2397460938-.2880859375.240234375c1.4399414062.6000976562.5756835938.4799804688,4.3198242188.4799804688.8637695312-.7202148438.1440429688-.6000976562,3.16796875-.7202148438,1.583984375.6000976562,1.0078125.48046875,3.3120117188.48046875.7197265625-.240234375,1.583984375-.3603515625,2.4477539062-.7202148438,2.3041992188.2397460938,1.7280273438.1201171875,2.8798828125.7202148438l2.0161132812-.3603515625.2880859375.6000976562c3.599609375-.1201171875,11.2314453125.3598632812,11.2314453125-4.0795898438,0-.9599609375,0-3.83984375-1.583984375-3.83984375ZM237.7381769066,31.8452148438v-.6000976562c2.7358245775,1.3203125,2.015625,1.3203125,3.7436523438,0-2.591796875-1.6796875-5.3276367188-.4794921875-3.7436523438.6000976562ZM259.0497003441,31.60546875c-1.15234375-.9599609375-3.16796875-.83984375-4.0322265625-2.0400390625-.7197265625.3598632812-.431640625.3598632812-1.2958984375,0-2.7358398438.6000976562-2.3037109375.6000976562-2.591796875.1201171875-1.1518554688,1.080078125-2.7358398438,1.4399414062-4.17578125,2.1596679688-2.5922851562,4.6801757812-.8642578125,4.5600585938-.8642578125,9.1196289062,0,2.759765625-.8637695312,5.5200195312-.8637695312,8.2797851562l1.2958984375,1.080078125,1.0078125-.3598632812c0-4.080078125-.4321289062-8.16015625-.4321289062-12.2397460938,0-6.599609375,3.6000976562-4.919921875,4.3203125-6.7197265625,1.0078125.4799804688,2.1596679688.3598632812,3.16796875.2397460938,2.7358398438.7202148438,2.3037109375.6000976562,2.591796875,1.2001953125l1.8720703125-.1201171875v-.7197265625ZM267.5453058129,34.7250976562c0-2.5200195312,0-6.7197265625-1.8720703125-8.8793945312-.7197265625,0-1.0078125,0-1.0078125.7197265625v23.0390625c1.2958984375.7202148438.8637695312.6000976562,2.16015625.6000976562,1.2958984375-1.6801757812,1.1518554688-1.080078125.2875976562-3.2397460938.1440429688-.6000976562.4321289062-1.3203125.4321289062-2.0400390625v-10.1997070312Z"/>
      <path class="cls-1" d="M0,120.6044921875v-11.8081054688h3.6000976562v-32.3999023438H0v-11.8081054688h48.6000976562v21.744140625h-16.1279296875v-9.9360351562h-8.7119140625v11.3759765625h6.3359375v8.2080078125h-6.3359375v12.8159179688h8.7119140625v-11.3759765625h16.1279296875v23.1840820312H0Z"/>
      <path class="cls-1" d="M50.9038085938,124.7802734375h3.16796875v-32.3999023438h-3.16796875v-11.8081054688h19.7280273438v4.8959960938c1.19921875-1.53515625,2.7475585938-2.9033203125,4.6440429688-4.1040039062,1.8955078125-1.19921875,4.068359375-1.7998046875,6.5161132812-1.7998046875,4.8959960938,0,8.5791015625,1.8247070312,11.0522460938,5.4721679688,2.4711914062,3.6484375,3.7075195312,8.83203125,3.7075195312,15.5517578125,0,6.720703125-1.236328125,11.9047851562-3.7075195312,15.5522460938-2.4731445312,3.6484375-6.15625,5.4716796875-11.0522460938,5.4716796875-2.4477539062,0-4.6206054688-.6005859375-6.5161132812-1.7998046875-1.896484375-1.19921875-3.4448242188-2.5673828125-4.6440429688-4.1040039062v9.0717773438h4.9682617188v11.8081054688h-24.6962890625v-11.8081054688ZM77.9399414062,107.6806640625c.6953125-.7436523438,1.0439453125-1.908203125,1.0439453125-3.4921875v-7.2001953125c0-1.583984375-.3486328125-2.7470703125-1.0439453125-3.4916992188-.6962890625-.7436523438-1.740234375-1.1162109375-3.1318359375-1.1162109375-1.3930664062,0-2.4370117188.3725585938-3.1323242188,1.1162109375-.6962890625.7446289062-1.0439453125,1.9077148438-1.0439453125,3.4916992188v7.2001953125c0,1.583984375.34765625,2.7485351562,1.0439453125,3.4921875.6953125.7446289062,1.7392578125,1.1157226562,3.1323242188,1.1157226562,1.3916015625,0,2.435546875-.37109375,3.1318359375-1.1157226562Z"/>
      <path class="cls-1" d="M104.0395507812,116.2485351562c-3.8408203125-3.5751953125-5.7602539062-8.7954101562-5.7602539062-15.66015625,0-6.86328125,1.9194335938-12.0834960938,5.7602539062-15.6596679688,3.8393554688-3.5756835938,9.1674804688-5.3642578125,15.9838867188-5.3642578125,6.912109375,0,12.263671875,1.8125,16.0561523438,5.4360351562,3.791015625,3.6245117188,5.6879882812,8.8198242188,5.6879882812,15.587890625,0,6.8647460938-1.9204101562,12.0849609375-5.7602539062,15.66015625-3.8408203125,3.576171875-9.1684570312,5.3637695312-15.9838867188,5.3637695312-6.81640625,0-12.14453125-1.7875976562-15.9838867188-5.3637695312ZM123.1552734375,107.6806640625c.6953125-.7436523438,1.0444335938-1.908203125,1.0444335938-3.4921875v-7.2001953125c0-1.583984375-.3491210938-2.7470703125-1.0444335938-3.4916992188-.6962890625-.7436523438-1.740234375-1.1162109375-3.1318359375-1.1162109375-1.392578125,0-2.4365234375.3725585938-3.1318359375,1.1162109375-.6962890625.7446289062-1.0439453125,1.9077148438-1.0439453125,3.4916992188v7.2001953125c0,1.583984375.34765625,2.7485351562,1.0439453125,3.4921875.6953125.7446289062,1.7392578125,1.1157226562,3.1318359375,1.1157226562,1.3916015625,0,2.435546875-.37109375,3.1318359375-1.1157226562Z"/>
      <path class="cls-1" d="M164.4462890625,124.7802734375h4.9682617188v-9.0717773438c-1.2006835938,1.5366210938-2.7485351562,2.9047851562-4.6440429688,4.1040039062-1.8969726562,1.19921875-4.0678710938,1.7998046875-6.5161132812,1.7998046875-4.8959960938,0-8.5805664062-1.8232421875-11.0517578125-5.4716796875-2.4731445312-3.6474609375-3.7080078125-8.8315429688-3.7080078125-15.5522460938,0-6.7197265625,1.2348632812-11.9033203125,3.7080078125-15.5517578125,2.4711914062-3.6474609375,6.1557617188-5.4721679688,11.0517578125-5.4721679688,2.4482421875,0,4.619140625.6005859375,6.5161132812,1.7998046875,1.8955078125,1.2006835938,3.443359375,2.5688476562,4.6440429688,4.1040039062v-4.8959960938h19.7280273438v11.8081054688h-3.16796875v44.2080078125h-21.5283203125v-11.8081054688ZM168.3706054688,107.6806640625c.6948242188-.7436523438,1.0439453125-1.908203125,1.0439453125-3.4921875v-7.2001953125c0-1.583984375-.3491210938-2.7470703125-1.0439453125-3.4916992188-.6967773438-.7436523438-1.7407226562-1.1162109375-3.1323242188-1.1162109375-1.392578125,0-2.4365234375.3725585938-3.1318359375,1.1162109375-.6962890625.7446289062-1.0439453125,1.9077148438-1.0439453125,3.4916992188v7.2001953125c0,1.583984375.34765625,2.7485351562,1.0439453125,3.4921875.6953125.7446289062,1.7392578125,1.1157226562,3.1318359375,1.1157226562,1.3916015625,0,2.435546875-.37109375,3.1323242188-1.1157226562Z"/>
      <path class="cls-1" d="M238.3896484375,108.7963867188v11.8081054688h-19.7280273438v-5.6162109375c-3.4560546875,4.4169921875-7.7758789062,6.6240234375-12.9599609375,6.6240234375-3.9848632812,0-6.97265625-1.2475585938-8.9638671875-3.7436523438-1.9921875-2.4956054688-2.9877929688-5.927734375-2.9877929688-10.2963867188v-15.1918945312h-3.1684570312v-11.8081054688h19.7280273438v23.6162109375c0,1.583984375.34765625,2.7485351562,1.0444335938,3.4921875.6948242188.7446289062,1.7392578125,1.1157226562,3.1318359375,1.1157226562,1.3916015625,0,2.435546875-.37109375,3.1318359375-1.1157226562.6953125-.7436523438,1.0439453125-1.908203125,1.0439453125-3.4921875v-11.8081054688h-3.8876953125v-11.8081054688h20.4477539062v28.2241210938h3.16796875Z"/>
      <path class="cls-1" d="M245.876953125,116.2485351562c-3.8408203125-3.5751953125-5.7602539062-8.7954101562-5.7602539062-15.66015625,0-6.86328125,1.9194335938-12.0834960938,5.7602539062-15.6596679688,3.8393554688-3.5756835938,9.1674804688-5.3642578125,15.9838867188-5.3642578125,6.7680664062,0,11.6518554688,1.7641601562,14.6518554688,5.2919921875,2.9995117188,3.5278320312,4.5,7.9086914062,4.5,13.1401367188v5.1840820312h-23.3276367188v.431640625c0,1.7763671875.52734375,3.0849609375,1.583984375,3.9243164062,1.0551757812.8403320312,2.8076171875,1.259765625,5.255859375,1.259765625,2.9272460938,0,5.7114257812-.2158203125,8.3520507812-.6479492188,2.6391601562-.4321289062,4.943359375-.9833984375,6.912109375-1.6557617188v11.5200195312c-1.6811523438.912109375-4.1401367188,1.740234375-7.3803710938,2.4838867188-3.2397460938.7436523438-6.7563476562,1.1157226562-10.5478515625,1.1157226562-6.81640625,0-12.14453125-1.7875976562-15.9838867188-5.3637695312ZM266.037109375,95.2602539062v-.8637695312c0-1.6313476562-.3491210938-2.8081054688-1.0444335938-3.5278320312-.6962890625-.7202148438-1.740234375-1.080078125-3.1318359375-1.080078125-1.392578125,0-2.4365234375.3720703125-3.1318359375,1.1157226562-.6962890625.7451171875-1.0439453125,1.908203125-1.0439453125,3.4921875v.8637695312h8.3520507812Z"/>
    </g>
  </g>
</svg>