<?xml version="1.0" encoding="UTF-8"?>
<svg id="contento" xmlns="http://www.w3.org/2000/svg" viewBox="0 0 226.7716535433 283.4645669291">
  <def>
    <style>
      .sorriso{
        transform-origin: center center !important;
        opacity:0;
        animation: sorrisoAnimation 1s linear 1 forwards;
      }
      @keyframes sorrisoAnimation {
      from{
        opacity:0;
        transform: scaleX(0);
      }
      to{
        opacity:1; 
        transform: scaleX(1);
      }
      }
    </style>
  </def>
  <g id="sfondo">
    <rect x=".0008246354" y=".0522907888" width="226.7700042725" height="283.3599853516" fill="#967cad" stroke-width="0"/>
  </g>
  <g id="corpo">
    <g id="matilde">
      <g>
        <path d="M83.4203971549,229.9428284438c.0099047916,17.8378670378-.1238006063,35.6843916868-.0296281738,53.5217384841h-24.615579382c3.6970745175-14.4857140065,7.4415975773-28.9714280131,11.0972361158-43.4867701934,2.81880562-12.0229535557,2.8543739167-13.5896247405,13.5776720543-20.3013116109-.0526838666,3.4233452957-.0426828512,6.8391188063-.0297006143,10.2663433203Z" fill="#028c88" stroke-width="0"/>
        <path d="M113.3828115188,262.0534665089v21.411100419h-29.9920425377c-.0177479281-9.2279084271-.0236880509-18.461756977-.0118802457-27.6955330864v-1.2818350495c.0059401229-7.4238496493.0237604914-14.8536394214.0415084195-22.2834291936v-.9257174398c.0118802457-3.8632530766.0178203686-7.7323738355.0297006143-11.601567035,1.4361333629-.9495503718,3.121462124-1.537043011,4.5160870673-2.4984011881.3382248006.0533886652.6111806902-.1661061186.919777317-.2255073472-.0890294024,14.9901173662-.1779863643,30.1404731687,0,45.0890096749.4095062749,0,.9316575627.0059401229,1.5429106934.0059401229.3323571182.0059401229.6705819188.0059401229,1.0147468423.0059401229.4866554316,0,.9851186685.0059401229,1.495462151.0059401229h.1127898939c1.643747901.0059401229,3.4062982593.0118802457,5.2162247194.0118802457h.344237364c1.2046858928.0059401229,2.4271197137.0059401229,3.6436134117.0059401229h.0712814744c1.6972090068,0,3.3825377678,0,4.9907173722-.0059401229h.2492678387c2.0236260022,0,3.9225818647-.0059401229,5.578282452-.0178203686h.2373151524Z" fill="#0d0b09" stroke-width="0"/>
        <path d="M83.3552006845,278.2660901365c-.0059401229-.1187300167,0-.2492678387.0118802457-.3679978554v.813072427c0-.1483581905-.0059401229-.2967163811-.0118802457-.4450745716Z" fill="#323230" stroke-width="0"/>
        <path d="M83.3552006845,270.8896890296c-.0536456181-3.6556072203-.0347522201-7.3111711867.0178203686-10.9666258534-.0118802457,3.655566098-.0237604914,7.3110597554-.0178203686,10.9666258534Z" fill="#323230" stroke-width="0"/>
        <path d="M83.3730210531,279.7793002156c0,1.2283739437.0118078052,2.456820328.0177479281,3.6852667123-.0376533414-1.2284883944-.0389676263-2.4566046515-.0177479281-3.6852667123Z" fill="#323230" stroke-width="0"/>
        <path d="M83.4144570321,221.278724605c0-.534103974.0237604914-1.068207948.0356407372-1.6022394815-.0178203686,1.2224338209-.0297006143,2.4389275189-.0356407372,3.6614337803v-2.0591942988Z" fill="#323230" stroke-width="0"/>
        <path d="M95.8469168627,262.0534665089h-2.1541638241c-.2136271015,0-.4331943259.0059401229-.6408813045.0059401229h-.1127898939c-.2136271015,0-.427254203-.0059401229-.6231333764-.0059401229h-.8723287746c.2611480844,0,.5400440969-.0059401229.8249526727-.0059401229h.0948970848c.8426281603-.0059401229,1.7743581635-.0059401229,2.7654169548,0,.237387593.0059401229.4747027454.0059401229.7180304612.0059401229Z" fill="#323230" stroke-width="0"/>
        <path d="M108.2080952189,262.0534665089c-.2076145381.0059401229-.4213140801.0118802457-.6408813045.0178203686h-.2492678387c-1.0740756304.0237604915-2.2372531037.0297006143-3.441866556.0297006143-.0533886652.0059401229-.1009096481,0-.1542983134,0-1.6734485153,0-3.418178505-.0118802457-5.1094473889-.0297006143h-.344237364c-.4153739573-.0059401229-.8307479145-.0059401229-1.2402541895-.0118802457-.2136271015,0-.427254203,0-.6408813045-.0059401229h11.8211342594Z" fill="#323230" stroke-width="0"/>
        <path d="M113.3783708708,134.450012207v18.0999755859c-1.25,1.7100219727-2.6700439453,3.2799682617-4.2700195312,4.700012207-.1400146484.1300048828-.2800292969.2600097656-.4299926758.3900146484-.0100097656,0-.0100097656.0199584961-.0300292969.0199584961-2.0999755859,1.8500366211-4.450012207,3.3300170898-6.8800048828,4.6799926758-3.5399780273,2.2399902344-7.3999633789,4.1900024414-10.8800048828,6.1900024414-.4499511719.299987793-.9099731445.5700073242-1.3699951172.8400268555-.8999633789.5299682617-1.7799682617,1.049987793-2.4400024414,1.6699829102-.0599975586.0599975586-.1099853516.1099853516-.1599731445.1600341797-.6900024414.7099609375-1.0900268555,1.549987793-.9600219727,2.6799926758.0200195312.1099853516.0400390625.2199707031.0599975586.3299560547-.1199951172-.1099853516-.25-.2099609375-.3800048828-.3199462891h-.0199584961c-.700012207-.25-1.3599853516-.4100341797-1.9600219727-.4900512695-1.0100097656-4.9099731445-.8399658203-9.9499511719.3500366211-14.6999511719-.0100097656-.0200195312,0-.0300292969.0099487305-.0300292969,1.9400024414-13.8800048828,13.2600097656-24.9400024414,29.3600463867-24.2199707031Z" fill="#b9914d" stroke-width="0"/>
        <path d="M86.0197079911,174.2135374703q0-.0059401229-.0059401229-.0059401229c-.0237604914-.1127174534-.04158086-.2254349067-.0534611058-.3322846777.0178203686.1127898939.0356407372.2255073472.0594012286.3382248006Z" fill="#e5b260" stroke-width="0"/>
        <path d="M113.3783708708,152.549987793c-1.3400268555,1.9600219727-2.9400024414,3.6199951172-4.700012207,5.0900268555.1499633789-.1300048828.2899780273-.2600097656.4299926758-.3900146484,1.5999755859-1.4200439453,3.0200195312-2.9899902344,4.2700195312-4.700012207Z" fill="#e5b260" stroke-width="0"/>
        <path d="M89.6983171598,216.1799926758c-17.7299804688-1.4100341797-30.3099975586-22.3800048828-11.299987793-33.5599975586.450012207,1.3999633789,1.1600341797,2.7899780273,2.1400146484,4.0299682617,1,1.2900390625,2.2800292969,2.4200439453,3.8300170898,3.2300415039-.4299926758.3299560547-.8300170898.6799926758-1.200012207,1.0599975586-.1099853516.0999755859-.200012207.200012207-.3099975586.3099975586-.0999755859.0999755859-.1900024414.2099609375-.2899780273.3200073242-.7100219727.799987793-1.3099975586,1.6699829102-1.8099975586,2.6099853516-.1200561523.200012207-.2200317383.4199829102-.3300170898.6300048828-1.7100219727,3.5999755859-1.9199829102,7.9199829102-.3400268555,11.700012207,1.5300292969,3.8099975586,4.4100341797,6.8299560547,8.2700195312,8.5999755859v.0100097656c.3900146484.4099731445,1.0599975586.549987793,1.3399658203,1.0599975586Z" fill="#b9914d" stroke-width="0"/>
        <path d="M101.3302297894,262.0534665089h-7.6374767508c1.0206869651.0059401229,2.1482237012.0059401229,3.3350892255.0059401229h4.4566858387c-.0533886653-.0059401229-.1009096482-.0059401229-.1542983134-.0059401229ZM101.4845281028,262.0594066317c.2552079615.0059401229.5162836054.0118802457.7714191264.0178203686h.0712814744c.468835063.0118802457.9316575627.0178203686,1.3945525029.0237604915.0533886652,0,.1009096482.0059401229.1542983134,0,1.216493698.0178203686,2.4211795908.0178203686,3.6021049922-.0297006143h.0890294024c.2195672244-.0059401229.4332667664-.0118802457.6408813045-.0178203686-1.9345965997,0-4.3083276482.0059401229-6.7235671162.0059401229Z" fill="#018c89" stroke-width="0"/>
        <path d="M92.2745124848,262.047526386c.0118078052.0059401229.0236880509.0059401229.041435979.0059401229.0178203686,0,.0356407372,0,.0475209829-.0059401229h-.0889569619ZM92.3634694467,262.047526386c.427254203.0059401229.8663886517.0059401229,1.3292835919.0059401229s.9436102489,0,1.4361333629-.0059401229c-.9910587913-.0059401229-1.9227887945-.0059401229-2.7654169548,0ZM109.0092874002,254.3447807243c-.2907762582.2848361353-.4807153088.6824621645-.4925955545,1.1928056471,0,.5577920249.1958791734.9969264737.4925955545,1.3114632233-.5519243426-.6883298469-.5756123935-1.8218067059,0-2.5042688704ZM108.9795867859,243.5858418495c-.2788960125.2907762582-.4628949402.706222656-.468835063,1.2343140666-.0118802457.4628949402.1424180677.8427006008.4035661521,1.133476859-.492523114-.6824621645-.4450745716-1.7150293754.065268911-2.3677909256ZM109.1338850993,232.7260657672c-.3501774868.2907762582-.599372885.7417909526-.6231333764,1.3707920114.0118802457.4628949402.1602384363.8427006008.3976260292,1.1275367361-.492523114-.7358508298-.3976260292-1.8693276888.2255073472-2.4983287475ZM112.219706486,234.0434691133c.0178203686-.4391344487-.1364779448-.8071323041-.3797332201-1.0860283166.5280914106.7358508298.4094338344,1.8693276888-.2255797877,2.5042688704.3620577326-.3085241863.599372885-.7773592493.6053130078-1.4182405538ZM112.219706486,244.8498565304c.0237604915-.5577920249-.1661785591-.9909863508-.468835063-1.2936428547.6112531307.7239705841.5638045883,1.9642247735-.1127174533,2.6407468152.3501774868-.2848361353.5815525164-.7299107069.5815525164-1.3471039605ZM112.2256466089,255.5732271085c.0059401229-.5459842197-.1898666101-.9614306175-.4865829911-1.2462667529.5874926392.7002825331.534103974,1.8989558626-.0593287881,2.5874305905.3145367497-.3026565039.5221512878-.7477310755.5459117792-1.3411638376Z" fill="#028c88" stroke-width="0"/>
        <path d="M113.0149585445,222.1391731339c-1.9761774598.8842090203-5.0322982322,5.4180440157-7.008475692,5.2400576514-4.01755139-3.9226543052-7.946000937-7.9579536233-11.773685717-12.0645344157-.1542983134-.172118682-.3204768725-.3441649234-.4806428682-.5221512878-1.602311922.6764496012-3.3411017888,1.3055231004-4.8661921136,2.1600315064-.0890294024,14.9901173662-.1779863643,30.1404731687,0,45.0890096749.4095062749,0,.9316575627.0059401229,1.5429106934.0059401229h1.9345965997c.8426281603-.0059401229,1.7743581635-.0059401229,2.7654169548,0,.237387593.0059401229.4747027454.0059401229.7180304612.0059401229h17.5358946561v-40.0448311969c-.1186575762.0237604915-.2373151524.065268911-.3678529744.1305378219ZM109.1338850993,232.7260657672c.2788960125-.2848361353.6587016731-.4628949402,1.1393445413-.4628949402.6884747279-.0059401229,1.1809254014.2373151524,1.4835819053.6053130078.0297006143.0296281738.0534611058.0593287881.0831617201.0889569619.2432552753.2788960125.3975535887.6468938679.3797332201,1.0860283166-.0059401229.6408813045-.2432552753,1.1097163675-.6053130078,1.4182405538-.0296281738.0297006143-.0651964705.0594012286-.1008372076.0831617201-.3026565039.2610756439-.6942699697.4094338344-1.1749852785.3737930972-.6705819188.0118802457-1.1453571047-.2729558896-1.4242531172-.682389724-.0059401229,0-.0059401229-.0059401229-.0059401229-.0118802457-.2373875929-.2848361353-.3857457835-.6646417959-.3976260292-1.1275367361.0237604914-.6290010588.2729558896-1.0800157532.6231333764-1.3707920114ZM108.9795867859,243.5858418495c.0059401229-.0118078052.0178203686-.0177479281.0237604915-.0236880509.3026565039-.3679978554.7655514441-.6053130078,1.3708644519-.5697447112.5577920249-.0236880509.9850462279.1602384363,1.2758224861.4628949402.0356407372.0296281738.0712090338.0593287881.1008372076.1009096481.3026565039.3026565039.4925955545.7358508298.468835063,1.2936428547,0,.6171932536-.2313750296,1.0622678251-.5815525164,1.3471039605,0,.0059401229-.0059401229.0118802457-.0118802457.0118802457-.2907762582.2788960125-.6942699697.4569548173-1.2046858928.4569548173-.6586292326-.0059401229-1.1274642956-.2492678387-1.4301207995-.6231333764-.0237604915-.0237604915-.04158086-.04158086-.0534611058-.0593287881-.0118078052-.0059401229-.0177479281-.0178203686-.0236880509-.0237604915v-.0059401229c-.2611480844-.2907762582-.4154463978-.6705819188-.4035661521-1.133476859.0059401229-.5280914106.1899390506-.9435378084.468835063-1.2343140666ZM111.6797348297,256.9143909462l-.0534611058.0533162247c-.2907762582.3204768725-.7120903383.5163560459-1.2402541895.4807153088-.6052405673.0297006143-1.0621953846-.2136271015-1.3648518885-.5874926393-.0059401229-.0059401229-.0118802457-.0059401229-.0118802457-.0118802457-.2967163811-.3145367496-.4925955545-.7536711984-.4925955545-1.3114632233.0118802457-.5103434826.2018192963-.9079695118.4925955545-1.1928056471l.0059401229-.0118802457c.2907762582-.3501050463.7358508298-.5756123935,1.3471039605-.5637321478.5756123935-.0237604915,1.0028665965.1661785591,1.2936428547.4747751859.0297006143.0236880509.0593287881.0474485424.0830892796.083016839.296716381.2848361353.492523114.7002825331.4865829911,1.2462667529-.0237604915.5934327621-.2313750296,1.0385073337-.5459117792,1.3411638376Z" fill="#028c88" stroke-width="0"/>
        <path d="M88.3583513395,215.1099853516c-3.8599853516-1.7700195312-6.7399902344-4.7899780273-8.2700195312-8.5999755859-1.5799560547-3.7800292969-1.3699951172-8.1000366211.3400268555-11.700012207.1099853516-.2100219727.2099609375-.4299926758.3300170898-.6300048828.5-.9400024414,1.0999755859-1.8099975586,1.8099975586-2.6099853516.0999755859-.1100463867.1900024414-.2200317383.2899780273-.3200073242.1099853516-.1099853516.200012207-.2100219727.3099975586-.3099975586.3699951172-.3800048828.7700195312-.7300415039,1.200012207-1.0599975586.0399780273.0199584961.0799560547.049987793.1300048828.0700073242.2899780273.1499633789.5799560547.2899780273.8699951172.3999633789.0799560547.0300292969.1499633789.0599975586.2299804688.0900268555-4.1599731445,7.950012207-3.6699829102,18.1199951172,2.7600097656,24.6699829102Z" fill="#6a3d33" stroke-width="0"/>
        <path d="M113.3828115188,214.0863224258v7.4119694036c-.2610756439-.1958067329-.5162111649-.3916859063-.7714191264-.5934327621-3.845432708-3.0086722301-7.3764011069-6.5515208747-10.7232981376-10.1121174474-.0237604915-.0236880509-.0356407372-.0415084195-.0475209829-.0533886652-.0059401229-.0059401229-.0118802457-.0178203686-.0178203686-.0178203686,0-.0059401229-.0059401229-.0118802457-.0118802457-.0118802457-.0118078052-.0178203686-.0236880509-.0297006143-.0651964705-.065268911-.1661785591-.8901491432.0889569619-1.7861659687.3085966268-2.6645073066v-.0177479281c.0355682967-.1483581905.0770767162-.3026565039.1067773305-.4510146944.0534611058.1720462415.2432552753.2907762582.5459117792.2848361353,4.0947729872.854508406,7.673117488,3.7267751318,10.6758495952,6.2903727903Z" fill="#deaa96" stroke-width="0"/>
        <path d="M112.219706486,244.8498565304c0,.6171932536-.2313750296,1.0622678251-.5815525164,1.3471039605,0,.0059401229-.0059401229.0118802457-.0118802457.0118802457-.7299107069.5874926393-1.9642247735.492523114-2.6348066923-.1661785591-.0237604915-.0237604915-.04158086-.04158086-.0534611058-.0593287881-.0118078052-.0059401229-.0177479281-.0178203686-.0236880509-.0237604915v-.0059401229c-.2611480844-.2907762582-.4154463978-.6705819188-.4035661521-1.133476859.0059401229-.5280914106.1899390506-.9435378084.468835063-1.2343140666.0059401229-.0118078052.0178203686-.0177479281.0237604915-.0236880509.682389724-.7002825331,1.9167762311-.7240430246,2.6466869381-.106849771.0356407372.0296281738.0712090338.0593287881.1008372076.1009096481.3026565039.3026565039.4925955545.7358508298.468835063,1.2936428547Z" fill="#0d0b09" stroke-width="0"/>
        <path d="M112.2256466089,255.5732271085c-.0237604915.5934327621-.2313750296,1.0385073337-.5459117792,1.3411638376l-.0534611058.0533162247c-.723970584.6528339907-1.9286564769.5934327621-2.605106078-.1067773305-.0059401229-.0059401229-.0118802457-.0059401229-.0118802457-.0118802457-.2967163811-.3145367496-.4925955545-.7536711984-.4925955545-1.3114632233.0118802457-.5103434826.2018192963-.9079695118.4925955545-1.1928056471l.0059401229-.0118802457c.6883298469-.6587016731,1.922716354-.7002100926,2.6407468152-.0889569619.0297006143.0236880509.0593287881.0474485424.0830892796.083016839.296716381.2848361353.492523114.7002825331.4865829911,1.2462667529Z" fill="#0d0b09" stroke-width="0"/>
        <path d="M112.219706486,234.0434691133c-.0059401229.6408813045-.2432552753,1.1097163675-.6053130078,1.4182405538-.0296281738.0297006143-.0651964705.0594012286-.1008372076.0831617201-.7714915669.5577920249-1.9761774598.4391344487-2.5992383957-.3085966268-.0059401229,0-.0059401229-.0059401229-.0059401229-.0118802457-.2373875929-.2848361353-.3857457835-.6646417959-.3976260292-1.1275367361.0237604914-.6290010588.2729558896-1.0800157532.6231333764-1.3707920114.7417909526-.6053130078,1.9583570912-.5044758002,2.6229264466.1424180677.0297006143.0296281738.0534611058.0593287881.0831617201.0889569619.2432552753.2788960125.3975535887.6468938679.3797332201,1.0860283166Z" fill="#0d0b09" stroke-width="0"/>
        <path d="M113.3783708708,206.4099731445v7.6799926758c-3.8400268555-1.7199707031-7.450012207-4.9199829102-11.3200073242-6.1099853516v-.0200195312c.0100097656-1.75.6499633789-3.4299926758.8599853516-5.1599731445,0,.0100097656.0100097656.0100097656.0100097656.0100097656,3.450012207,1.0999755859,6.8200073242,3.3999633789,10.450012207,3.5999755859Z" fill="#ea8d74" stroke-width="0"/>
        <path d="M113.3828115188,221.4982918294v.5103434826c-.1186575762.0237604915-.2373151524.065268911-.3678529744.1305378219-1.9761774598.8842090203-5.0322982322,5.4180440157-7.008475692,5.2400576514-4.01755139-3.9226543052-7.946000937-7.9579536233-11.773685717-12.0645344157-.1542983134-.172118682-.3204768725-.3441649234-.4806428682-.5221512878,1.922716354-1.8218791464,4.058987369-3.4359988736,6.1419421592-5.085759338.8011921813-.6765220417,1.24032663.682389724,1.8515797607.9375976855.0415084195.0355682967.0533886652.0474485424.0651964705.065268911.0059401229,0,.0118802457.0059401229.0118802457.0118802457.0059401229,0,.0118802457.0118802457.0178203686.0178203686.0118802457.0118802457.0237604915.0297006143.0475209829.0533886652,3.3468970307,3.5605965727,6.8778654295,7.1034452173,10.7232981376,10.1121174474.2552079615.2017468558.5103434825.3976260292.7714191264.5934327621Z" fill="#007972" stroke-width="0"/>
      </g>
      <path d="M109.1083513395,157.25c-.1400146484.1300048828-.2800292969.2600097656-.4299926758.3900146484,1.7600097656-1.4700317383,3.3599853516-3.1300048828,4.700012207-5.0900268555-1.25,1.7100219727-2.6700439453,3.2799682617-4.2700195312,4.700012207Z" fill="#fecfb4" stroke-width="0"/>
      <path d="M102.9483171598,171.5c-1.4799804688,0-2.6699829102,1.5-2.6699829102,3.3399658203,0,1.8400268555,1.1900024414,3.3300170898,2.6699829102,3.3300170898,1.4800415039,0,2.6800537109-1.4899902344,2.6800537109-3.3300170898,0-1.8399658203-1.200012207-3.3399658203-2.6800537109-3.3399658203Z" fill="#fecfb4" stroke-width="0"/>
      <path d="M93.1983171598,168.2399902344c3.9400024414-1.450012207,8.2900390625-1.8499755859,12.4300537109-2.1500244141-1.9400024414-1.4899902344-9.8600463867.8500366211-12.4300537109,2.1500244141ZM102.9483171598,171.5c-1.4799804688,0-2.6699829102,1.5-2.6699829102,3.3399658203,0,1.8400268555,1.1900024414,3.3300170898,2.6699829102,3.3300170898,1.4800415039,0,2.6800537109-1.4899902344,2.6800537109-3.3300170898,0-1.8399658203-1.200012207-3.3399658203-2.6800537109-3.3399658203Z" fill="#deaa96" stroke-width="0"/>
      <path d="M113.3783708708,152.549987793c-1.3400268555,1.9600219727-2.9400024414,3.6199951172-4.700012207,5.0900268555-.0100097656,0-.0100097656.0199584961-.0300292969.0199584961-2.0999755859,1.8500366211-4.450012207,3.3300170898-6.8800048828,4.6799926758-3.5399780273,2.2399902344-7.3999633789,4.1900024414-10.8800048828,6.1900024414-.8299560547,4.1500244141-.299987793,8.5100097656-.2799682617,12.6100463867-.4199829102-.5-.6699829102-1.3600463867-1.0999755859-1.950012207h-.0100097656c0-.0700073242-.0500488281-.1199951172-.0800170898-.1799926758-.0300292969-.0400390625-.0599975586-.0900268555-.0900268555-.1400146484-.0199584961-.0300292969-.0299682617-.0599975586-.049987793-.0900268555-.3900146484-.6799926758-.8099975586-1.3599853516-1.299987793-1.9699707031-.3300170898-.549987793-.6799926758-1.0900268555-1.0800170898-1.5800170898-.1099853516-.1400146484-.2299804688-.2899780273-.3299560547-.4299926758-.0100097656,0-.0100097656-.0100097656-.0100097656-.0100097656-.0900268555-.1300048828-.1900024414-.2399902344-.299987793-.3499755859-.0700073242-.0800170898-.1600341797-.1600341797-.2400512695-.2300415039-.1199951172-.1099853516-.25-.2099609375-.3800048828-.3199462891h-.0199584961c-.700012207-.25-1.3599853516-.4100341797-1.9600219727-.4900512695-5.1799926758-.7099609375-6.8399658203,4.3099975586-5.2600097656,9.2200317383.450012207,1.3999633789,1.1600341797,2.7899780273,2.1400146484,4.0299682617,1,1.2900390625,2.2800292969,2.4200439453,3.8300170898,3.2300415039.0399780273.0199584961.0799560547.049987793.1300048828.0700073242.2899780273.1499633789.5799560547.2899780273.8699951172.3999633789.0799560547.0300292969.1499633789.0599975586.2299804688.0900268555.5999755859.2399902344,1.2299804688.4299926758,1.9000244141.5700073242,1.2899780273.5799560547,3.0399780273-.0700073242,4.1199951172.3499755859,1.1900024414,5.9600219727,6.3200073242,8.9000244141,11.299987793,11.4400024414,0,.0100097656.0100097656.0100097656.0100097656.0100097656,3.450012207,1.0999755859,6.8200073242,3.3999633789,10.450012207,3.5999755859l.0099487305-7.9199829102v-6.9700317383l-.0099487305-38.9699707031ZM102.9483171598,178.1699829102c-1.4799804688,0-2.6699829102-1.4899902344-2.6699829102-3.3300170898,0-1.8399658203,1.1900024414-3.3399658203,2.6699829102-3.3399658203,1.4800415039,0,2.6800537109,1.5,2.6800537109,3.3399658203,0,1.8400268555-1.200012207,3.3300170898-2.6800537109,3.3300170898ZM93.1983171598,168.2399902344c2.5700073242-1.299987793,10.4900512695-3.6400146484,12.4300537109-2.1500244141-4.1400146484.3000488281-8.4900512695.700012207-12.4300537109,2.1500244141Z" fill="#deaa96" stroke-width="0"/>
      <path d="M105.6283708708,166.0899658203c-4.1400146484.3000488281-8.4900512695.700012207-12.4300537109,2.1500244141,2.5700073242-1.299987793,10.4900512695-3.6400146484,12.4300537109-2.1500244141Z" fill="#deaa96" stroke-width="0"/>
      <path d="M105.6283708708,174.8399658203c0,1.8400268555-1.200012207,3.3300170898-2.6800537109,3.3300170898-1.4799804688,0-2.6699829102-1.4899902344-2.6699829102-3.3300170898,0-1.8399658203,1.1900024414-3.3399658203,2.6699829102-3.3399658203,1.4800415039,0,2.6800537109,1.5,2.6800537109,3.3399658203Z" fill="#deaa96" stroke-width="0"/>
      <path d="M105.6283708708,166.0899658203c-4.1400146484.3000488281-8.4900512695.700012207-12.4300537109,2.1500244141,2.5700073242-1.299987793,10.4900512695-3.6400146484,12.4300537109-2.1500244141Z" fill="#6a3d33" stroke-width="0"/>
      <path d="M90.6083513395,181.1400146484c-.4199829102-.5-.6699829102-1.3600463867-1.0999755859-1.950012207h-.0100097656c0-.0700073242-.0500488281-.1199951172-.0800170898-.1799926758-.0300292969-.0400390625-.0599975586-.0900268555-.0900268555-.1400146484-.0199584961-.0300292969-.0299682617-.0599975586-.049987793-.0900268555-.3900146484-.6799926758-.8099975586-1.3599853516-1.299987793-1.9699707031-.3300170898-.549987793-.6799926758-1.0900268555-1.0800170898-1.5800170898-.1099853516-.1400146484-.2299804688-.2899780273-.3299560547-.4299926758-.0100097656,0-.0100097656-.0100097656-.0100097656-.0100097656-.0900268555-.1300048828-.1900024414-.2399902344-.299987793-.3499755859-.0700073242-.0800170898-.1600341797-.1600341797-.2400512695-.2300415039-.0199584961-.1099853516-.0399780273-.2199707031-.0599975586-.3299560547-.1300048828-1.1300048828.2700195312-1.9700317383.9600219727-2.6799926758.049987793-.0500488281.0999755859-.1000366211.1599731445-.1600341797.6600341797-.6199951172,1.5400390625-1.1400146484,2.4400024414-1.6699829102.4600219727-.2700195312.9200439453-.5400390625,1.3699951172-.8400268555-.8299560547,4.1500244141-.299987793,8.5100097656-.2799682617,12.6100463867Z" fill="#6a3d33" stroke-width="0"/>
      <path d="M105.6283708708,174.8399658203c0,1.8400268555-1.200012207,3.3300170898-2.6800537109,3.3300170898-1.4799804688,0-2.6699829102-1.4899902344-2.6699829102-3.3300170898,0-1.8399658203,1.1900024414-3.3399658203,2.6699829102-3.3399658203,1.4800415039,0,2.6800537109,1.5,2.6800537109,3.3399658203Z" fill="#0d0b09" stroke-width="0"/>
      <g>
        <g>
          <path d="M143.3512563908,229.9428284439c-.0099047924,17.8378670378.1238006047,35.6843916868.0296281714,53.5217384841l24.615579382.0000000011c-3.6970745168-14.4857140067-7.441597576-28.9714280134-11.0972361139-43.4867701939-2.8188056195-12.0229535558-2.8543739161-13.5896247406-13.5776720534-20.3013116115.0526838665,3.4233452957.0426828509,6.8391188063.0297006139,10.2663433203Z" fill="#02b7b0" stroke-width="0"/>
          <path d="M113.3888420254,262.0534665077l-.000000001,21.411100419,29.9920425377.0000000013c.0177479285-9.2279084271.0236880518-18.461756977.011880247-27.6955330864v-1.2818350495c-.0059401225-7.4238496493-.0237604907-14.8536394214-.0415084185-22.2834291936v-.9257174398c-.0118802455-3.8632530766-.0178203682-7.7323738355-.0297006138-11.601567035-1.4361333629-.9495503719-3.1214621239-1.5370430112-4.5160870672-2.4984011883-.3382248006.0533886652-.6111806902-.1661061186-.919777317-.2255073473.0890294018,14.9901173662.177986363,30.1404731687-.000000002,45.0890096749-.4095062749,0-.9316575627.0059401228-1.5429106934.0059401228-.3323571182.0059401228-.6705819188.0059401228-1.0147468423.0059401228-.4866554316,0-.9851186685.0059401228-1.495462151.0059401228h-.1127898939c-1.643747901.0059401228-3.4062982593.0118802456-5.2162247194.0118802455h-.344237364c-1.2046858928.0059401228-2.4271197137.0059401227-3.6436134117.0059401227h-.0712814744c-1.6972090068,0-3.3825377678-.0000000002-4.9907173722-.0059401231h-.2492678387c-2.0236260022-.0000000001-3.9225818647-.0059401231-5.578282452-.0178203689h-.2373151524Z" fill="#323230" stroke-width="0"/>
          <path d="M143.416452859,278.2660901366c.0059401229-.1187300167,0-.2492678387-.0118802457-.3679978554v.813072427c0-.1483581905.0059401228-.2967163811.0118802457-.4450745716Z" fill="#323230" stroke-width="0"/>
          <path d="M143.4164528594,270.8896890297c.0536456182-3.6556072203.0347522204-7.3111711867-.0178203681-10.9666258534.0118802456,3.655566098.0237604911,7.3110597554.0178203681,10.9666258534Z" fill="#323230" stroke-width="0"/>
          <path d="M143.3986324904,279.7793002157c0,1.2283739437-.0118078053,2.456820328-.0177479282,3.6852667123.0376533414-1.2284883944.0389676264-2.4566046515.0177479282-3.6852667123Z" fill="#323230" stroke-width="0"/>
          <path d="M143.357196514,221.2787246051c0-.534103974-.0237604914-1.068207948-.0356407371-1.6022394815.0178203685,1.2224338209.0297006142,2.4389275189.035640737,3.6614337803v-2.0591942988Z" fill="#323230" stroke-width="0"/>
          <path d="M130.9247366816,262.0534665084h2.1541638241c.2136271015.0000000001.4331943259.005940123.6408813045.005940123h.1127898939c.2136271015,0,.427254203-.0059401228.6231333764-.0059401228h.8723287746c-.2611480844,0-.5400440969-.0059401228-.8249526727-.0059401229h-.0948970848c-.8426281603-.0059401229-1.7743581635-.0059401229-2.7654169548-.0000000001-.237387593.0059401229-.4747027454.0059401228-.7180304612.0059401228Z" fill="#323230" stroke-width="0"/>
          <path d="M118.5635583253,262.0534665079c.2076145381.0059401229.4213140801.0118802457.6408813045.0178203686h.2492678387c1.0740756304.0237604915,2.2372531036.0297006144,3.4418665559.0297006145.0533886652.0059401229.1009096481,0,.1542983134,0,1.6734485153,0,3.418178505-.0118802456,5.1094473889-.0297006141h.344237364c.4153739573-.0059401228.8307479145-.0059401228,1.2402541895-.0118802457.2136271015,0,.427254203,0,.6408813045-.0059401228l-11.8211342594-.0000000005Z" fill="#323230" stroke-width="0"/>
          <path d="M143.1183611051,173.3999633789c-.6099853516.0800170898-1.2700195312.2400512695-1.9700317383.4900512695h-.0100097656c-.1399536133.1099853516-.2699584961.2099609375-.3799438477.3199462891.0199584961-.1199951172.0399780273-.2299804688.049987793-.3299560547.1399536133-1.1300048828-.2700195312-1.9700317383-.9600219727-2.6799926758-.049987793-.0500488281-.0999755859-.1000366211-.1500244141-.1600341797-.6599731445-.6199951172-1.549987793-1.1400146484-2.4399414062-1.6699829102-.4600219727-.2700195312-.9300537109-.5400390625-1.3700561523-.8400268555-3.4899902344-2-7.3399658203-3.950012207-10.8899536133-6.1900024414-2.4299926758-1.3499755859-4.7800292969-2.8299560547-6.8800048828-4.6799926758-.0100097656,0-.0200195312-.0199584961-.0200195312-.0199584961-.1500244141-.1300048828-.2899780273-.2600097656-.4400024414-.3900146484-1.5999755859-1.4200439453-3.0100097656-2.9899902344-4.2700195312-4.700012207v-18.0999755859c16.1000366211-.7200317383,27.4200439453,10.3399658203,29.3700561523,24.2199707031.0099487305,0,.0099487305.0100097656.0099487305.0300292969,1.1900024414,4.75,1.3500366211,9.7899780273.3500366211,14.6999511719Z" fill="#e5b260" stroke-width="0"/>
          <path d="M140.8083635465,173.8800048828c-.0100097656.0999755859-.0300292969.2099609375-.049987793.3299560547h-.0100097656c.0299682617-.1099853516.049987793-.2199707031.0599975586-.3299560547Z" fill="#e5b260" stroke-width="0"/>
          <path d="M118.0983415739,157.6400146484c-1.7600097656-1.4700317383-3.3599853516-3.1300048828-4.7100219727-5.0900268555,1.2600097656,1.7100219727,2.6700439453,3.2799682617,4.2700195312,4.700012207.1500244141.1300048828.2899780273.2600097656.4400024414.3900146484Z" fill="#e5b260" stroke-width="0"/>
          <path d="M137.0683733122,216.1799926758c.2799682617-.5100097656.9599609375-.6500244141,1.3499755859-1.0599975586v-.0100097656c3.8599853516-1.7700195312,6.7299804688-4.7899780273,8.2600097656-8.5999755859,1.5800170898-3.7800292969,1.3699951172-8.1000366211-.3400268555-11.700012207-.0999755859-.2100219727-.2099609375-.4299926758-.3200073242-.6300048828-.5-.9400024414-1.1099853516-1.8099975586-1.8099975586-2.6099853516-.0999755859-.1100463867-.1999511719-.2200317383-.299987793-.3200073242-.0999755859-.1099853516-.200012207-.2100219727-.299987793-.3099975586-.3800048828-.3800048828-.7800292969-.7300415039-1.2100219727-1.0599975586,1.549987793-.8099975586,2.8300170898-1.9400024414,3.8400268555-3.2300415039.9699707031-1.2399902344,1.6799926758-2.6300048828,2.1400146484-4.0299682617,19,11.1799926758,6.4199829102,32.1499633789-11.3099975586,33.5599975586Z" fill="#e5b260" stroke-width="0"/>
          <path d="M125.2871254415,262.0594066311l4.4566858387.0000000002c1.1868655242,0,2.3144022604.0000000001,3.3350892255-.0059401227l-7.6374767508-.0000000003c-.0533886652,0-.1009096481,0-.1542983134.0059401229ZM118.5635583253,262.0534665079c.2076145381.0059401229.4213140801.0118802457.6408813045.0178203686h.0890294024c1.1809254014.047520983,2.3856112942.047520983,3.6021049922.0297006145.0533886652.0059401229.1009096481,0,.1542983134,0,.4628949402-.0059401228.9257174398-.0118802457,1.3945525029-.0237604914h.0712814744c.255135521-.0059401229.5162111649-.0118802457.7714191264-.0178203686-2.415239468-.0000000001-4.7889705164-.0059401231-6.7235671162-.0059401232Z" fill="#018c89" stroke-width="0"/>
          <path d="M134.4081840976,262.0475263857c.0118802457.0059401229.0297006143.0059401229.0475209829.0059401229.0177479281,0,.0296281738,0,.041435979-.0059401229h-.0889569619ZM131.6427671428,262.0475263856c.492523114.0059401229.9732384227.0059401229,1.4361333629.0059401229s.9020293889,0,1.3292835919-.0059401228c-.8426281603-.0059401229-1.7743581635-.0059401229-2.7654169548-.0000000001ZM117.7623661443,256.8490495936c.2967163811-.3145367496.4925955545-.7536711983.4925955546-1.3114632233-.0118802457-.5103434826-.2018192962-.9079695118-.4925955544-1.1928056471.5756123935.6824621646.5519243425,1.8159390235-.0000000001,2.5042688704ZM117.8573356701,245.9536327741c.2611480844-.2907762582.4154463978-.6705819188.4035661521-1.133476859-.0059401228-.5280914106-.1899390505-.9435378084-.468835063-1.2343140666.5103434825.6527615502.5577920249,1.6853287611.0652689109,2.3677909256ZM117.8632757934,235.2243945137c.237387593-.2848361353.3857457835-.6646417959.3976260293-1.1275367361-.0237604914-.6290010588-.2729558896-1.0800157532-.6231333764-1.3707920114.6231333764.6290010588.7180304611,1.7624779178.2255073471,2.4983287475ZM115.1572600672,235.461709666c-.6350136221-.6349411817-.7536711983-1.7684180406-.2255797876-2.5042688704-.2432552753.2788960125-.3975535887.6468938679-.3797332201,1.0860283166.0059401228.6408813045.2432552752,1.1097163675.6053130078,1.4182405538ZM115.1334995753,246.1969604898c-.6765220416-.6765220417-.723970584-1.9167762312-.1127174532-2.6407468152-.3026565039.3026565039-.4925955545.7358508298-.4688350631,1.2936428547,0,.6171932536.2313750295,1.0622678252.5815525163,1.3471039605ZM115.0919187148,256.914390945c-.5934327621-.6884747279-.6468214273-1.8871480574-.059328788-2.5874305905-.2967163811.2848361353-.492523114.7002825331-.4865829912,1.2462667528.0237604914.5934327621.2313750295,1.0385073337.5459117791,1.3411638376Z" fill="#028c88" stroke-width="0"/>
          <path d="M113.3888420272,222.0086353107l-.0000000018,40.0448311969,17.5358946561.0000000008c.2433277158,0,.4806428682,0,.7180304612-.0059401228.9910587913-.0059401228,1.9227887945-.0059401228,2.7654169548.0000000001h1.9345965997c.6112531307.0000000001,1.1334044185-.0059401227,1.5429106934-.0059401227.177986365-14.9485365062.0890294038-30.0988923087.000000002-45.0890096749-1.5250903248-.8545084061-3.2638801916-1.4835819054-4.8661921135-2.1600315067-.1601659957.1779863643-.3263445549.3500326058-.4806428683.5221512877-3.8276847801,4.1065807922-7.7561343274,8.1418801101-11.7736857175,12.0645344152-1.9761774598.1779863642-5.0322982321-4.3558486313-7.0084756918-5.2400576517-.1305378219-.065268911-.2491953981-.1067773305-.3678529744-.130537822ZM118.2609018227,234.0968577776c-.0118802458.4628949402-.1602384363.8427006008-.3976260293,1.1275367361,0,.0059401229,0,.0118802457-.0059401229.0118802457-.2788960125.4094338344-.7536711984.6942699697-1.4242531172.6823897239-.4807153088.0356407372-.8723287746-.1127174534-1.1749852785-.3737930973-.0356407372-.0237604915-.0712090338-.0534611058-.1008372076-.0831617201-.3620577325-.3085241863-.5993728849-.7773592493-.6053130078-1.4182405538-.0178203686-.4391344487.1364779448-.8071323041.3797332201-1.0860283166.0297006143-.0296281738.0534611058-.0593287881.0831617201-.0889569619.3026565039-.3679978554.7951071774-.6112531307,1.4835819053-.6053130078.4806428682,0,.8604485288.1780588049,1.1393445413.4628949402.3501774868.2907762582.5993728849.7417909527.6231333764,1.3707920114ZM118.2609018222,244.8201559151c.0118802457.4628949402-.1424180677.8427006008-.4035661521,1.133476859v.0059401229c-.0059401229.0059401229-.0118802457.0178203686-.0236880509.0237604914-.0118802457.0177479281-.0297006143.0355682967-.0534611058.0593287881-.3026565039.3738655377-.771491567.6171932535-1.4301207996.6231333764-.5104159231,0-.9139096346-.1780588049-1.2046858928-.4569548174-.0059401229,0-.0118802457-.0059401229-.0118802457-.0118802457-.3501774868-.2848361353-.5815525163-.7299107069-.5815525163-1.3471039605-.0237604914-.5577920249.1661785592-.9909863508.4688350631-1.2936428547.0296281738-.04158086.0651964705-.0712814744.1008372076-.1009096481.2907762582-.3026565039.7180304612-.4865829911,1.2758224861-.4628949401.6053130078-.0355682966,1.068207948.2017468558,1.3708644519.5697447112.0059401229.0059401229.0178203686.0118802457.0237604914.0236880509.2788960125.2907762582.4628949402.706222656.468835063,1.2343140666ZM114.5460069356,255.5732271074c-.0059401228-.5459842197.1898666101-.9614306175.4865829912-1.2462667528.0237604915-.0355682967.0533886653-.0593287881.0830892796-.083016839.2907762582-.3085966268.7180304612-.4985356773,1.2936428547-.4747751858.6112531307-.0118802457,1.0563277023.2136271015,1.3471039605.5637321479l.0059401229.0118802457c.2907762582.2848361353.4807153087.6824621646.4925955544,1.1928056471,0,.5577920249-.1958791735.9969264737-.4925955546,1.3114632233,0,.0059401229-.0059401229.0059401229-.0118802457.0118802457-.3026565039.3738655377-.7596113213.6171932535-1.3648518886.5874926392-.5281638511.0356407372-.9494779313-.1602384363-1.2402541894-.4807153088l-.0534611058-.0533162247c-.3145367496-.3026565039-.5221512877-.7477310755-.5459117791-1.3411638376Z" fill="#02b7b0" stroke-width="0"/>
          <path d="M146.6783586637,206.5100097656c-1.5300292969,3.8099975586-4.4000244141,6.8299560547-8.2600097656,8.5999755859,6.4299926758-6.549987793,6.9099731445-16.7199707031,2.75-24.6699829102.0800170898-.0300292969.1599731445-.0599975586.2299804688-.0900268555.299987793-.1099853516.5900268555-.25.8699951172-.3999633789.0500488281-.0200195312.0900268555-.0500488281.1300048828-.0700073242.4299926758.3299560547.8300170898.6799926758,1.2100219727,1.0599975586.0999755859.0999755859.200012207.200012207.299987793.3099975586.1000366211.0999755859.200012207.2099609375.299987793.3200073242.700012207.799987793,1.3099975586,1.6699829102,1.8099975586,2.6099853516.1100463867.200012207.2200317383.4199829102.3200073242.6300048828,1.7100219727,3.5999755859,1.9200439453,7.9199829102.3400268555,11.700012207Z" fill="#8a5246" stroke-width="0"/>
          <path d="M113.3888420276,214.0863224246l-.0000000003,7.4119694036c.2610756439-.1958067329.5162111649-.3916859063.7714191265-.5934327621,3.8454327081-3.0086722299,7.3764011072-6.5515208744,10.723298138-10.1121174469.0237604915-.0236880509.0356407372-.0415084195.0475209829-.0533886652.0059401229-.0059401229.0118802457-.0178203686.0178203686-.0178203686,0-.0059401229.0059401229-.0118802457.0118802457-.0118802457.0118078052-.0178203686.0236880509-.0297006143.0651964704-.065268911.1661785592-.8901491432-.0889569618-1.7861659687-.3085966267-2.6645073067v-.0177479281c-.0355682967-.1483581905-.0770767162-.3026565039-.1067773305-.4510146945-.0534611058.1720462415-.2432552753.2907762582-.5459117792.2848361353-4.0947729872.8545084058-7.6731174881,3.7267751315-10.6758495955,6.2903727898Z" fill="#fecfb2" stroke-width="0"/>
          <path d="M114.551947059,244.8498565293c0,.6171932536.2313750295,1.0622678252.5815525163,1.3471039605,0,.0059401229.0059401229.0118802457.0118802457.0118802457.7299107069.5874926393,1.9642247735.4925231141,2.6348066923-.166178559.0237604914-.0237604915.04158086-.04158086.0534611058-.0593287881.0118078052-.0059401229.0177479281-.0178203686.0236880509-.0237604914v-.0059401229c.2611480844-.2907762582.4154463978-.6705819188.4035661521-1.133476859-.0059401228-.5280914106-.1899390505-.9435378084-.468835063-1.2343140666-.0059401229-.0118078052-.0178203686-.0177479281-.0237604914-.0236880509-.682389724-.7002825332-1.9167762311-.7240430247-2.646686938-.1068497711-.0356407372.0296281738-.0712090338.0593287881-.1008372076.1009096481-.3026565039.3026565039-.4925955545.7358508298-.4688350631,1.2936428547Z" fill="#323230" stroke-width="0"/>
          <path d="M114.5460069356,255.5732271074c.0237604914.5934327621.2313750295,1.0385073337.5459117791,1.3411638376l.0534611058.0533162247c.723970584.6528339908,1.9286564768.5934327622,2.605106078-.1067773304.0059401229-.0059401229.0118802457-.0059401229.0118802457-.0118802457.2967163811-.3145367496.4925955545-.7536711983.4925955546-1.3114632233-.0118802457-.5103434826-.2018192962-.9079695118-.4925955544-1.1928056471l-.0059401229-.0118802457c-.6883298468-.6587016731-1.922716354-.7002100927-2.6407468152-.088956962-.0297006143.0236880509-.0593287881.0474485424-.0830892796.083016839-.2967163811.2848361353-.492523114.7002825331-.4865829912,1.2462667528Z" fill="#323230" stroke-width="0"/>
          <path d="M114.5519470595,234.0434691121c.0059401228.6408813045.2432552752,1.1097163675.6053130078,1.4182405538.0296281738.0297006143.0651964704.0594012286.1008372076.0831617201.7714915669.557792025,1.9761774598.4391344488,2.5992383957-.3085966267.0059401229,0,.0059401229-.0059401229.0059401229-.0118802457.237387593-.2848361353.3857457835-.6646417959.3976260293-1.1275367361-.0237604914-.6290010588-.2729558896-1.0800157532-.6231333764-1.3707920114-.7417909526-.6053130079-1.9583570912-.5044758003-2.6229264466.1424180675-.0297006143.0296281738-.0534611058.0593287881-.0831617201.0889569619-.2432552753.2788960125-.3975535887.6468938679-.3797332201,1.0860283166Z" fill="#323230" stroke-width="0"/>
          <path d="M124.7183366911,207.9599609375v.0200195312c-3.8800048828,1.1900024414-7.4899902344,4.3900146484-11.3300170898,6.1099853516v-7.6799926758c3.6400146484-.200012207,7-2.5,10.4600219727-3.5999755859.2100219727,1.7299804688.8599853516,3.3999633789.8699951172,5.1499633789Z" fill="#deaa96" stroke-width="0"/>
          <path d="M113.3888420273,221.4982918282v.5103434826c.1186575762.0237604915.2373151524.065268911.3678529743.130537822,1.9761774597.8842090204,5.032298232,5.4180440159,7.0084756918,5.2400576517,4.0175513902-3.9226543051,7.9460009374-7.9579536229,11.7736857175-12.0645344152.1542983134-.172118682.3204768725-.3441649234.4806428683-.5221512877-1.9227163539-1.8218791465-4.0589873688-3.4359988738-6.141942159-5.0857593383-.8011921812-.6765220417-1.24032663.682389724-1.8515797607.9375976855-.0415084195.0355682967-.0533886652.0474485424-.0651964704.065268911-.0059401229,0-.0118802457.0059401229-.0118802457.0118802457-.0059401229,0-.0118802457.0118802457-.0178203686.0178203686-.0118802457.0118802457-.0237604915.0297006143-.0475209829.0533886652-3.3468970308,3.5605965725-6.8778654299,7.103445217-10.723298138,10.1121174469-.2552079616.2017468558-.5103434826.3976260292-.7714191265.5934327621Z" fill="#009590" stroke-width="0"/>
        </g>
        <path d="M117.6583391325,157.25c-1.5999755859-1.4200439453-3.0100097656-2.9899902344-4.2700195312-4.700012207,1.3500366211,1.9600219727,2.950012207,3.6199951172,4.7100219727,5.0900268555-.1500244141-.1300048828-.2899780273-.2600097656-.4400024414-.3900146484Z" fill="#fecfb4" stroke-width="0"/>
        <path d="M123.8183733122,171.5c-1.4700317383,0-2.6700439453,1.5-2.6700439453,3.3399658203,0,1.8400268555,1.200012207,3.3300170898,2.6700439453,3.3300170898,1.4799804688,0,2.6799926758-1.4899902344,2.6799926758-3.3300170898,0-1.8399658203-1.200012207-3.3399658203-2.6799926758-3.3399658203Z" fill="#fecfb4" stroke-width="0"/>
        <path d="M143.1183611051,173.3999633789c-.6099853516.0800170898-1.2700195312.2400512695-1.9700317383.4900512695h-.0100097656c-.1399536133.1099853516-.2699584961.2099609375-.3799438477.3199462891h-.0100097656c-.0800170898.0700073242-.1600341797.1500244141-.2300415039.2300415039-.1099853516.1099853516-.2099609375.2199707031-.3099975586.3499755859v.0100097656c-.1099853516.1400146484-.2199707031.2899780273-.3299560547.4299926758-.4000244141.4899902344-.75,1.0300292969-1.0800170898,1.5800170898-.4899902344.6099853516-.9100341797,1.2899780273-1.299987793,1.9699707031-.0200195312.0300292969-.0400390625.0599975586-.0599975586.0900268555-.0300292969.049987793-.0500488281.0999755859-.0800170898.1400146484-.0399780273.0599975586-.0900268555.1099853516-.0800170898.1799926758h-.0199584961c-.4200439453.5899658203-.6700439453,1.450012207-1.0900268555,1.950012207.0100097656-4.1000366211.5399780273-8.4600219727-.2800292969-12.6100463867-3.4899902344-2-7.3399658203-3.950012207-10.8899536133-6.1900024414-2.4299926758-1.3499755859-4.7800292969-2.8299560547-6.8800048828-4.6799926758-.0100097656,0-.0200195312-.0199584961-.0200195312-.0199584961-1.7600097656-1.4700317383-3.3599853516-3.1300048828-4.7100219727-5.0900268555v53.8599853516c3.6400146484-.200012207,7-2.5,10.4600219727-3.5999755859v-.0100097656c4.9899902344-2.5399780273,10.1099853516-5.4799804688,11.299987793-11.4400024414,1.0800170898-.4199829102,2.8400268555.2299804688,4.1199951172-.3499755859.6700439453-.1400146484,1.3099975586-.3300170898,1.9000244141-.5700073242.0800170898-.0300292969.1599731445-.0599975586.2299804688-.0900268555.299987793-.1099853516.5900268555-.25.8699951172-.3999633789.0500488281-.0200195312.0900268555-.0500488281.1300048828-.0700073242,1.549987793-.8099975586,2.8300170898-1.9400024414,3.8400268555-3.2300415039.9699707031-1.2399902344,1.6799926758-2.6300048828,2.1400146484-4.0299682617,1.5699462891-4.9100341797-.0900268555-9.9299926758-5.2600097656-9.2200317383ZM123.8183733122,178.1699829102c-1.4700317383,0-2.6700439453-1.4899902344-2.6700439453-3.3300170898,0-1.8399658203,1.200012207-3.3399658203,2.6700439453-3.3399658203,1.4799804688,0,2.6799926758,1.5,2.6799926758,3.3399658203,0,1.8400268555-1.200012207,3.3300170898-2.6799926758,3.3300170898ZM121.1483293669,166.0899658203c1.9299926758-1.4899902344,9.8500366211.8500366211,12.4299926758,2.1500244141-3.9499511719-1.450012207-8.299987793-1.8499755859-12.4299926758-2.1500244141Z" fill="#fecfb4" stroke-width="0"/>
        <path d="M133.5783220426,168.2399902344c-3.9499511719-1.450012207-8.299987793-1.8499755859-12.4299926758-2.1500244141,1.9299926758-1.4899902344,9.8500366211.8500366211,12.4299926758,2.1500244141Z" fill="#8a5246" stroke-width="0"/>
        <path d="M140.8083635465,173.8800048828c-.0100097656.1099853516-.0300292969.2199707031-.0599975586.3299560547-.0800170898.0700073242-.1600341797.1500244141-.2300415039.2300415039-.1099853516.1099853516-.2099609375.2199707031-.3099975586.3499755859v.0100097656c-.1099853516.1400146484-.2199707031.2899780273-.3299560547.4299926758-.4000244141.4899902344-.75,1.0300292969-1.0800170898,1.5800170898-.4899902344.6099853516-.9100341797,1.2899780273-1.299987793,1.9699707031-.0200195312.0300292969-.0400390625.0599975586-.0599975586.0900268555-.0300292969.049987793-.0500488281.0999755859-.0800170898.1400146484-.0399780273.0599975586-.0900268555.1099853516-.0800170898.1799926758h-.0199584961c-.4200439453.5899658203-.6700439453,1.450012207-1.0900268555,1.950012207.0100097656-4.1000366211.5399780273-8.4600219727-.2800292969-12.6100463867.4400024414.299987793.9100341797.5700073242,1.3700561523.8400268555.8899536133.5299682617,1.7799682617,1.049987793,2.4399414062,1.6699829102.0500488281.0599975586.1000366211.1099853516.1500244141.1600341797.6900024414.7099609375,1.0999755859,1.549987793.9600219727,2.6799926758Z" fill="#8a5246" stroke-width="0"/>
        <path d="M126.4983659879,174.8399658203c0,1.8400268555-1.200012207,3.3300170898-2.6799926758,3.3300170898-1.4700317383,0-2.6700439453-1.4899902344-2.6700439453-3.3300170898,0-1.8399658203,1.200012207-3.3399658203,2.6700439453-3.3399658203,1.4799804688,0,2.6799926758,1.5,2.6799926758,3.3399658203Z" fill="#231f20" stroke-width="0"/>
      </g>
    </g>
    <g id="sorriso" class="sorriso">
      <path d="M113.3897339109,195.9688473413v-.9600219727c1.7399902344-.049987793,3.5-.5700073242,5-1.5.1900024414-.0999755859.4000244141-.2200317383.6099853516-.0200195312.4000244141,1.700012207-4.3499755859,2.1300048828-5.6099853516,2.4800415039Z" fill="#db8586" stroke-width="0"/>
      <path d="M108.3797241453,193.5088253686c1.5.9299926758,3.2600097656,1.450012207,5,1.5v.9600219727c-1.25-.3500366211-6.0100097656-.7800292969-5.5999755859-2.4800415039.200012207-.200012207.4099731445-.0799560547.5999755859.0200195312Z" fill="#db8586" stroke-width="0"/>
    </g>
  </g>
</svg>