<?xml version="1.0" encoding="UTF-8"?>
<svg id="rrabbiato" xmlns="http://www.w3.org/2000/svg" viewBox="0 0 226.77 283.46">
  <def>
    <style>
      .arrabbiato{
        transform-origin: center center !important;
      animation: arrabbiatoAnimation 1.5s ease-in-out 1s 1 forwards;
      }
      @keyframes arrabbiatoAnimation {
      from{

        transform:  scale(1);
      
      }
      to{
        transform:  scale(1.2) translateY(5%);
     
      }
      }

      .sopracciglia{
      transform: translateY(-1%);
      animation: arrabbiatoSopraccigliaAnimation 1s ease-in-out 2s 1 forwards;
      }
      @keyframes arrabbiatoSopraccigliaAnimation {
      0%{
      transform: translateY(-1%);
      }
      100%{
      transform: translateY(0%);
      }
      }
      .iconArrabbiato{
        transform-origin: center center !important;
        animation: arrabbiatoIconAnimation 1.5s ease-in-out 2s infinite;
        }
        @keyframes arrabbiatoIconAnimation {
        0%{
        transform: scale(1);
        }
        50%{
        transform: translate(-1.5%,-0.5%) scale(1.2);
        }
        100%{
          transform: scale(1);
          }
        }
        .mano{
          transform: translateY(20%);
          transform-origin: center center !important;
          animation: manoAnimation 1.5s ease-in-out 1.5s 1 forwards;
        }
        @keyframes manoAnimation{
          0%{
            transform: translateY(20%);
          }
          50%{
            transform: translateY(10%);
          }
          100%{
            transform: translateY(-7%);
          }
        }

      .lama{
        transform: translate(6%,7%);
        transform-origin: center center !important;
        animation: lamaAnimation .5s ease-out 3s 1 forwards;
      }
      @keyframes lamaAnimation{
        0%{
          transform: translate(6%,7%);
        }
        100%{
          transform: translate(0%,0%);
        }
      }
    </style>
  </def>
  <rect id="sfondo" x="0" y=".1" width="226.77" height="283.36" fill="#967cad" stroke-width="0"/>
  <g id="corpo" class="arrabbiato">
    <g id="matilde">
      <g>
        <path d="M83.32,223.33c-.01,2.2,0,4.4.01,6.61v2.52c-.02,6.95-.04,13.91-.04,20.85v1.17c-.01.34-.01.68-.01,1.02,0,1.75-.01,3.48-.01,5.22v.1c-.01,2.81-.01,5.61-.01,8.42v1.65c0,2.96.01,5.92.02,8.88,0,1.2.01,2.39.02,3.59v.1l-15.48-.04s-9.53.01-9.52-.02c.55-2.16,1.51-4.36,2.06-6.52.45-1.76.9-3.52,1.35-5.29,0,0,0-.01.01-.01,2.7-10.53,5.4-21.06,8.06-31.62,2.36-10.07,2.77-12.81,9.15-17.38,1.23-.88,2.69-1.83,4.43-2.92-.02.97-.03,1.94-.04,2.91v.75Z" fill="#028c88" stroke-width="0"/>
        <path d="M113.29,262.05v21.41h-29.99v-.1c-.02-9.2-.03-18.39-.01-27.6v-2.45c0-6.94.02-13.9.04-20.85v-2.52c.01-3.42.01-6.84.03-10.27,1.43-.95,3.12-1.53,4.51-2.5.34.06.61-.16.92-.22-.07,11.56-.14,23.22-.08,34.81.01,3.43.04,6.86.08,10.28h1.55c.33.01.67.01,1.01.01h2.25c1.22.01,2.51.02,3.82.02h10.05c2.03,0,3.93-.01,5.58-.02h.24Z" fill="#0d0b09" stroke-width="0"/>
        <path d="M83.27,278.27c0-.12,0-.25.01-.37v.81c0-.15,0-.3-.01-.45Z" fill="#323230" stroke-width="0"/>
        <path d="M83.27,270.89c-.05-3.66-.03-7.31.02-10.97-.01,3.66-.02,7.31-.02,10.97Z" fill="#323230" stroke-width="0"/>
        <path d="M83.28,279.78c0,1.23.01,2.46.02,3.69-.04-1.23-.04-2.46-.02-3.69Z" fill="#323230" stroke-width="0"/>
        <path d="M83.32,221.28c0-.53.02-1.07.04-1.6-.02,1.22-.03,2.44-.04,3.66v-2.06Z" fill="#323230" stroke-width="0"/>
        <path d="M95.76,262.05h-2.15c-.21,0-.43,0-.64,0h-.11c-.21,0-.43,0-.62,0h-.87c.26,0,.54,0,.82,0h.09c.84,0,1.77,0,2.77,0,.24,0,.47,0,.72,0Z" fill="#323230" stroke-width="0"/>
        <path d="M108.12,262.05c-.21,0-.42.01-.64.02h-.25c-1.07.02-2.24.03-3.44.03-.05,0-.1,0-.15,0-1.67,0-3.42-.01-5.11-.03h-.34c-.42,0-.83,0-1.24-.01-.21,0-.43,0-.64,0h11.82Z" fill="#323230" stroke-width="0"/>
        <path d="M113.29,134.45v18.1c-1.26,1.71-2.67,3.28-4.27,4.7-.15.13-.29.26-.44.39,0,0-.01.02-.02.02-2.1,1.85-4.45,3.33-6.88,4.68-3.55,2.24-7.4,4.19-10.89,6.19-.44.3-.91.57-1.37.84-.89.53-1.78,1.05-2.44,1.67-.05.06-.1.11-.15.16-.69.71-1.1,1.55-.96,2.68.01.1.03.21.05.33-.11-.11-.24-.21-.38-.32h-.01c-.7-.25-1.36-.41-1.97-.49-1-4.91-.84-9.95.35-14.7,0-.02,0-.03,0-.03,1.95-13.88,13.27-24.94,29.37-24.22Z" fill="#b9914d" stroke-width="0"/>
        <path d="M85.93,174.21h-.01c-.02-.12-.04-.23-.05-.33.01.11.03.22.06.33Z" fill="#e5b260" stroke-width="0"/>
        <path d="M113.29,152.55c-1.35,1.96-2.95,3.62-4.71,5.09.15-.13.29-.26.44-.39,1.6-1.42,3.01-2.99,4.27-4.7Z" fill="#e5b260" stroke-width="0"/>
        <path d="M89.61,216.18c-17.73-1.41-30.31-22.38-11.31-33.56.46,1.4,1.17,2.79,2.14,4.03,1.01,1.29,2.29,2.42,3.84,3.23-.43.33-.83.68-1.21,1.06-.1.1-.2.2-.3.31-.1.1-.2.21-.3.32-.7.8-1.31,1.67-1.81,2.61-.11.2-.22.42-.32.63-1.71,3.6-1.92,7.92-.34,11.7,1.53,3.81,4.4,6.83,8.26,8.6h0c.39.42,1.07.56,1.35,1.07Z" fill="#b9914d" stroke-width="0"/>
        <path d="M101.4,262.05c.26.01.52.02.77.02h.07c.47,0,.94.02,1.4.03h.15c.9,0,1.78,0,2.62-.01.27,0,.55-.01.82-.02h.25c.22-.01.44-.02.64-.02h-6.72Z" fill="#018c89" stroke-width="0"/>
        <path d="M112.1,255.16c-.02-.11-.05-.22-.1-.32-.04-.1-.09-.2-.15-.28h0c-.04-.08-.1-.14-.16-.2.01.02.03.04.03.05.49.68.45,1.76-.06,2.42.06-.06.11-.12.16-.18.04-.06.08-.13.1-.2.13-.24.21-.54.22-.88v-.05c0-.13-.01-.25-.04-.36ZM112.1,244.38c-.02-.11-.06-.22-.1-.32-.06-.15-.14-.28-.24-.39.19.29.3.63.32.98.01.03.01.06.01.09.02.54-.16,1.08-.54,1.45.04-.03.09-.07.13-.11.06-.06.11-.12.16-.2.04-.06.08-.12.11-.18.01-.02.02-.04.03-.06.1-.22.16-.48.16-.79v-.11c0-.13-.02-.25-.04-.36ZM111.75,243.66s.01,0,.01.01c-.02-.04-.05-.08-.09-.12.03.03.06.07.08.11ZM112.1,233.67c-.03-.19-.1-.36-.19-.51-.04-.07-.09-.14-.15-.21.02.03.04.06.05.09.46.74.34,1.8-.28,2.42.07-.06.13-.12.19-.2.06-.06.11-.14.16-.22.06-.1.12-.22.16-.35.02-.07.03-.13.05-.2.03-.14.05-.29.05-.45,0-.13-.01-.26-.04-.37ZM109.02,232.76c-.23.19-.41.46-.51.81-.02.07-.04.14-.05.22-.02.09-.02.19-.03.3,0,.12.01.23.03.34.01.08.03.15.06.22.02.08.04.15.08.21.02.07.06.13.09.18.04.07.08.13.13.18-.48-.73-.39-1.83.2-2.46ZM108.89,243.59c-.14.14-.25.32-.33.52-.04.1-.07.21-.1.33-.02.12-.03.25-.03.38,0,.17.01.33.06.48.05.25.18.47.34.65-.49-.68-.44-1.71.06-2.36ZM108.93,254.34c-.15.14-.27.32-.35.51-.04.09-.07.19-.1.3-.02.11-.04.22-.04.34-.01.01-.01.03-.01.05,0,.28.05.53.14.74.09.22.21.4.36.56-.56-.68-.58-1.82,0-2.5ZM92.28,262.04c.1.01.21.01.31.01h1.98c.16-.01.32-.01.48-.01h-2.77ZM92.19,262.04s.02.01.04.01.04,0,.05-.01h-.09Z" fill="#028c88" stroke-width="0"/>
        <path d="M112.93,222.13c-.12.05-.25.12-.37.2-.21.14-.44.3-.67.49-.08.06-.16.13-.24.21-.07.06-.15.13-.23.2-.11.1-.22.2-.33.3-.29.27-.59.57-.89.87-.08.07-.16.15-.23.23-.31.3-.62.61-.93.9-.31.29-.61.56-.91.81-.08.06-.15.12-.23.18-.11.08-.22.16-.33.24-.11.08-.22.15-.33.22-.14.08-.28.15-.41.21,0,0,0,.01-.01.01-.32.13-.62.2-.9.17-1.5-1.47-3-2.95-4.48-4.45-.74-.75-1.47-1.51-2.21-2.26-1.72-1.77-3.41-3.55-5.08-5.35-.16-.17-.32-.34-.48-.52-1.6.67-3.34,1.3-4.87,2.16-.07,11.41-.14,22.92-.08,34.36v.45c.01,3.43.04,6.86.08,10.28h6.25c.23.01.47.01.71.01h17.54v-40.05c-.12.03-.24.07-.37.13ZM108.51,233.57c.1-.35.28-.62.51-.81l.03-.03h0c.28-.29.66-.47,1.14-.47.69-.01,1.18.24,1.48.6h0s.06.06.09.09c.06.07.11.14.15.21.09.15.16.32.19.51.03.11.04.24.04.37,0,.16-.02.31-.05.45-.02.07-.03.13-.05.2-.04.13-.1.25-.16.35-.05.08-.1.16-.16.22-.06.08-.12.14-.19.2-.03.03-.07.06-.1.08-.3.26-.69.41-1.17.37-.58.02-1.01-.19-1.29-.52-.05-.05-.1-.1-.14-.15-.01,0-.01-.01-.01-.02-.05-.05-.09-.11-.13-.18-.03-.05-.07-.11-.09-.18-.04-.06-.06-.13-.08-.21-.03-.07-.05-.14-.06-.22-.02-.11-.03-.22-.03-.34.01-.11.01-.21.03-.3.01-.08.03-.15.05-.22ZM112.14,255.57c-.01.34-.09.64-.22.88-.02.07-.06.14-.1.2-.05.06-.1.12-.16.18,0,.01-.01.02-.02.03-.01.02-.02.04-.04.05h-.01l-.05.05s-.04.04-.06.05c-.01.02-.02.03-.04.03-.27.28-.66.44-1.14.4-.58.03-1.02-.19-1.33-.54-.01,0-.02-.02-.03-.04t-.01-.02c-.15-.16-.27-.34-.36-.56-.09-.21-.14-.46-.14-.74,0-.02,0-.04.01-.05,0-.12.02-.23.04-.34.03-.11.06-.21.1-.3.08-.19.2-.37.35-.51h0c.29-.36.74-.59,1.35-.58.57-.02,1,.17,1.29.48.01.02.03.03.04.04.02.01.03.02.05.04.01,0,.03.03.03.04.06.06.12.12.16.19h0c.06.09.11.19.15.29.05.1.08.2.1.32.03.11.04.23.04.36v.05ZM112.14,244.85c0,.31-.06.57-.16.79-.01.02-.02.04-.03.06-.03.06-.07.12-.11.18-.05.08-.1.14-.16.2-.04.04-.09.08-.13.11h0s0,.01-.01.01c-.01,0-.03.03-.05.04,0,0-.01.02-.02.02-.28.25-.66.4-1.13.4-.64,0-1.1-.24-1.4-.59-.02-.01-.03-.02-.04-.03-.02-.02-.04-.04-.05-.06-.01,0-.02-.01-.02-.02h0c-.16-.19-.29-.41-.34-.66-.04-.12-.05-.25-.06-.38,0-.03,0-.07,0-.1,0-.13.01-.26.03-.38.03-.12.06-.23.1-.33.08-.2.19-.38.33-.52,0-.01.01-.01.01-.01,0,0,.01-.02.02-.02.3-.37.77-.61,1.37-.57.25-.01.48.02.67.09.02,0,.05.01.07.03.21.07.39.19.54.34.01,0,.03.02.04.05.02.01.04.03.06.05.04.04.07.08.09.12.1.11.18.24.24.39.05.1.08.21.1.32.02.11.04.23.04.36v.11Z" fill="#028c88" stroke-width="0"/>
        <path d="M88.26,215.11c-3.86-1.77-6.73-4.79-8.26-8.6-1.58-3.78-1.37-8.1.34-11.7.1-.21.21-.43.32-.63.5-.94,1.11-1.81,1.81-2.61.1-.11.2-.22.3-.32.1-.11.2-.21.3-.31.38-.38.78-.73,1.21-1.06.04.02.08.05.13.07.28.15.57.29.87.4.07.03.15.06.23.09-4.16,7.95-3.68,18.12,2.75,24.67Z" fill="#6a3d33" stroke-width="0"/>
        <path d="M113.29,214.09v7.41c-.26-.2-.52-.39-.77-.59-3.85-3.01-7.38-6.55-10.72-10.11-.02-.02-.04-.04-.05-.05,0,0-.01-.02-.02-.02,0,0,0-.01-.01-.01-.01-.02-.02-.03-.07-.07-.17-.89.09-1.79.31-2.66v-.02c.04-.15.08-.3.11-.45.05.17.24.29.55.28,4.09.85,7.67,3.73,10.68,6.29Z" fill="#deaa96" stroke-width="0"/>
        <path d="M112.13,244.85c0,.62-.23,1.06-.58,1.35,0,0,0,.01-.01.01-.73.59-1.96.49-2.63-.17-.02-.02-.04-.04-.05-.06-.01,0-.02-.02-.02-.02h0c-.26-.3-.42-.68-.4-1.14,0-.53.19-.94.47-1.23,0-.01.02-.02.02-.02.68-.7,1.92-.72,2.65-.11.04.03.07.06.1.1.3.3.49.74.47,1.29Z" fill="#0d0b09" stroke-width="0"/>
        <path d="M112.14,255.57c-.02.59-.23,1.04-.55,1.34l-.05.05c-.72.65-1.93.59-2.61-.11,0,0-.01,0-.01-.01-.3-.31-.49-.75-.49-1.31.01-.51.2-.91.49-1.19h0c.69-.67,1.92-.71,2.64-.1.03.02.06.05.08.08.3.28.49.7.49,1.25Z" fill="#0d0b09" stroke-width="0"/>
        <path d="M112.13,234.04c0,.64-.24,1.11-.61,1.42-.03.03-.07.06-.1.08-.77.56-1.98.44-2.6-.31,0,0,0,0,0-.01-.24-.28-.39-.66-.4-1.13.02-.63.27-1.08.62-1.37.74-.61,1.96-.5,2.62.14.03.03.05.06.08.09.24.28.4.65.38,1.09Z" fill="#0d0b09" stroke-width="0"/>
        <path d="M113.29,206.41v7.68c-3.84-1.72-7.45-4.92-11.33-6.11v-.02c.01-1.75.66-3.42.87-5.15,3.46,1.1,6.82,3.4,10.46,3.6Z" fill="#ea8d74" stroke-width="0"/>
        <path d="M113.29,221.5v.51c-.12.02-.24.07-.37.13-1.98.88-5.03,5.42-7.01,5.24-4.02-3.92-7.95-7.96-11.77-12.06-.15-.17-.32-.34-.48-.52,1.92-1.82,4.06-3.44,6.14-5.09.8-.68,1.24.68,1.85.94.04.04.05.05.07.07,0,0,.01,0,.01.01,0,0,.01.01.02.02.01.01.02.03.05.05,3.35,3.56,6.88,7.1,10.72,10.11.26.2.51.4.77.59Z" fill="#007972" stroke-width="0"/>
      </g>
      <path d="M109.03,157.25c-.15.13-.29.26-.44.39,1.76-1.47,3.36-3.13,4.71-5.09-1.26,1.71-2.67,3.28-4.27,4.7Z" fill="#fecfb4" stroke-width="0"/>
      <path d="M102.87,171.5c-1.48,0-2.68,1.5-2.68,3.34s1.2,3.33,2.68,3.33,2.67-1.49,2.67-3.33-1.2-3.34-2.67-3.34Z" fill="#fecfb4" stroke-width="0"/>
      <path d="M108.59,157.64s-.01.02-.02.02c-2.1,1.85-4.45,3.33-6.88,4.68-3.55,2.24-7.4,4.19-10.89,6.19-.82,4.15-.29,8.51-.28,12.61-.42-.5-.67-1.36-1.09-1.95h-.02c.01-.07-.04-.12-.08-.18-.03-.04-.05-.09-.08-.14-.02-.03-.04-.06-.06-.09-.39-.68-.81-1.36-1.3-1.97-.33-.55-.68-1.09-1.08-1.58-.11-.14-.22-.29-.33-.43h0c-.1-.14-.2-.25-.31-.36-.07-.08-.15-.16-.23-.23h-.01c-.11-.11-.24-.21-.38-.32h-.01c-.7-.25-1.36-.41-1.97-.49-2.13-.29-3.67.39-4.63,1.64-1.36,1.78-1.55,4.7-.63,7.58.06.18.12.35.18.52.04.09.07.18.11.27.1.26.21.52.33.77,0,.01.01.01.01.02.17.35.35.7.55,1.04l.24.39s.03.04.04.06c.11.17.22.33.33.49.11.16.23.31.35.47,1.01,1.29,2.29,2.42,3.84,3.23.04.02.08.05.13.07.28.15.57.29.87.4.07.03.15.06.23.09.59.24,1.23.43,1.9.57,1.28.58,3.04-.07,4.12.35,1.19,5.96,6.31,8.9,11.3,11.44h0c3.46,1.11,6.82,3.41,10.46,3.61v-53.86c-1.35,1.96-2.95,3.62-4.71,5.09ZM102.87,178.17c-1.48,0-2.68-1.49-2.68-3.33s1.2-3.34,2.68-3.34,2.67,1.5,2.67,3.34-1.2,3.33-2.67,3.33ZM93.11,168.24c2.58-1.3,10.5-3.64,12.43-2.15-4.13.3-8.48.7-12.43,2.15Z" fill="#deaa96" stroke-width="0"/>
      <path d="M105.53,166.09c-4.13.3-8.48.7-12.43,2.15,2.58-1.3,10.5-3.64,12.43-2.15Z" fill="#6a3d33" stroke-width="0"/>
      <path d="M90.51,181.14c-.42-.5-.67-1.36-1.09-1.95h-.02c.01-.07-.04-.12-.08-.18-.03-.04-.05-.09-.08-.14-.02-.03-.04-.06-.06-.09-.39-.68-.81-1.36-1.3-1.97-.33-.55-.68-1.09-1.08-1.58-.11-.14-.22-.29-.33-.43h0c-.1-.14-.2-.25-.31-.36-.07-.08-.15-.16-.23-.23-.03-.11-.05-.22-.06-.33-.14-1.13.27-1.97.96-2.68.05-.05.1-.1.15-.16.66-.62,1.55-1.14,2.44-1.67.46-.27.93-.54,1.37-.84-.82,4.15-.29,8.51-.28,12.61Z" fill="#6a3d33" stroke-width="0"/>
      <path d="M105.53,174.84c0,1.84-1.2,3.33-2.67,3.33s-2.68-1.49-2.68-3.33,1.2-3.34,2.68-3.34,2.67,1.5,2.67,3.34Z" fill="#0d0b09" stroke-width="0"/>
      <g>
        <g>
          <path d="M166.43,283.46h-23.11v-12.57c.01-1.91,0-3.82-.01-5.73v-4.64c-.01-1.58-.01-3.17-.01-4.76v-1.28c0-1.24,0-2.48,0-3.73,0-6.06-.01-12.12-.03-18.19v-2.62c.01-2.21.01-4.4,0-6.6v-.63c0-1-.02-2.02-.03-3.02v-.02c10.72,6.71,10.76,8.28,13.58,20.3,2.23,8.87,4.5,17.73,6.77,26.59.1.41.21.84.32,1.28.9,3.81,1.8,8.63,2.7,12.71.22,1.01.25,1.99.25,2.91-.15.05-.43-.01-.43,0Z" fill="#02b7b0" stroke-width="0"/>
          <path d="M143.32,260.52v4.64c0,4.84,0,9.67-.02,14.51v3.79h-29.99v-21.41h.23c1.48.01,3.15.02,4.93.02h9.95c1.14,0,2.26-.01,3.35-.01h1.16c.13-.01.25-.01.37-.01h.62c.14-.01.27,0,.4,0h1.38c.19,0,.38,0,.56-.01h1.54c0-.23,0-.47,0-.71v-.2c.17-14.65.08-29.49,0-44.18.31.06.58.28.92.22,1.4.97,3.08,1.55,4.52,2.5v.02c0,3.42.02,6.84.03,10.25v2.62c.02,6.07.03,12.13.03,18.19,0,1.25,0,2.49,0,3.73v1.28c0,1.59,0,3.18.01,4.76Z" fill="#323230" stroke-width="0"/>
          <path d="M143.33,278.27c0-.12,0-.25-.01-.37v.81c0-.15,0-.3.01-.45Z" fill="#323230" stroke-width="0"/>
          <path d="M143.33,270.89c.05-3.66.03-7.31-.02-10.97.01,3.66.02,7.31.02,10.97Z" fill="#323230" stroke-width="0"/>
          <path d="M143.31,279.78c0,1.23-.01,2.46-.02,3.69.04-1.23.04-2.46.02-3.69Z" fill="#323230" stroke-width="0"/>
          <path d="M143.27,221.28c0-.53-.02-1.07-.04-1.6.02,1.22.03,2.44.04,3.66v-2.06Z" fill="#323230" stroke-width="0"/>
          <path d="M130.83,262.05h2.15c.21,0,.43,0,.64,0h.11c.21,0,.43,0,.62,0h.87c-.26,0-.54,0-.82,0h-.09c-.84,0-1.77,0-2.77,0-.24,0-.47,0-.72,0Z" fill="#323230" stroke-width="0"/>
          <path d="M118.47,262.05c.21,0,.42.01.64.02h.25c1.07.02,2.24.03,3.44.03.05,0,.1,0,.15,0,1.67,0,3.42-.01,5.11-.03h.34c.42,0,.83,0,1.24-.01.21,0,.43,0,.64,0h-11.82Z" fill="#323230" stroke-width="0"/>
          <path d="M143.02,173.4c-.6.08-1.26.24-1.96.49h-.02c-.13.11-.26.21-.38.32.02-.11.04-.22.06-.33.13-1.13-.27-1.97-.96-2.68-.05-.05-.1-.1-.16-.16-.66-.62-1.54-1.14-2.44-1.67-.46-.27-.92-.54-1.37-.84-3.48-2-7.34-3.95-10.88-6.19-2.43-1.35-4.78-2.83-6.88-4.68-.02,0-.02-.02-.03-.02-.15-.13-.29-.26-.43-.39-1.6-1.42-3.02-2.99-4.27-4.7v-18.1c16.1-.72,27.42,10.34,29.36,24.22,0,0,.02.01,0,.03,1.19,4.75,1.36,9.79.35,14.7Z" fill="#e5b260" stroke-width="0"/>
          <path d="M140.66,174.21s0,0,0,0c.02-.11.04-.23.05-.33-.02.11-.04.23-.06.34Z" fill="#e5b260" stroke-width="0"/>
          <path d="M118,157.64c-1.76-1.47-3.36-3.13-4.7-5.09,1.25,1.71,2.67,3.28,4.27,4.7.14.13.28.26.43.39Z" fill="#e5b260" stroke-width="0"/>
          <path d="M136.98,216.18c.28-.51.95-.65,1.34-1.06h0c3.86-1.78,6.74-4.8,8.27-8.61,1.58-3.78,1.37-8.1-.34-11.7-.11-.21-.21-.43-.33-.63-.5-.94-1.1-1.81-1.81-2.61-.1-.11-.19-.22-.29-.32-.11-.11-.2-.21-.31-.31-.37-.38-.77-.73-1.2-1.06,1.55-.81,2.83-1.94,3.83-3.23.98-1.24,1.69-2.63,2.14-4.03,19.01,11.18,6.43,32.15-11.3,33.56Z" fill="#e5b260" stroke-width="0"/>
          <path d="M118.48,262.05c.21,0,.42.01.64.02h.25c.08,0,.17,0,.25,0h.57c.22.01.44,0,.67.01.63.01,1.28.01,1.95.01h.36s0-.01,0-.01c.32,0,.64-.01.97-.02h.28c.26,0,.52-.01.77-.02h-6.72Z" fill="#018c89" stroke-width="0"/>
          <path d="M114.86,254.44c-.12.12-.2.25-.26.4-.05.1-.08.21-.1.32-.02.09-.03.17-.03.27-.01.04-.01.09-.01.14,0,.15.02.29.05.42.08.39.26.69.5.92-.56-.66-.64-1.77-.15-2.47ZM114.55,244.41c.05-.3.17-.58.36-.82-.2.2-.34.45-.4.76h0c-.02.07-.03.13-.02.2-.02.03-.02.06-.02.1.01.01.01.02,0,.03,0,.05,0,.11,0,.17,0,.03,0,.06,0,.09.01.01.01.02,0,.03,0,.01,0,.02.01.03.01.18.04.35.09.49.02.06.04.11.06.16.07.17.18.31.29.43.04.04.09.08.13.11-.45-.45-.62-1.15-.5-1.78ZM114.82,233c-.11.13-.2.27-.26.43-.06.16-.09.34-.09.53v.08c0,.64.24,1.11.6,1.42-.62-.63-.74-1.72-.25-2.46ZM118.15,233.87c-.01-.07-.02-.14-.04-.21-.03-.14-.07-.27-.13-.38-.05-.11-.11-.21-.19-.3-.06-.08-.13-.16-.21-.22.6.63.68,1.73.2,2.46.06-.07.11-.15.16-.23.04-.08.08-.17.12-.26.03-.1.06-.2.08-.3.02-.11.04-.22.04-.34,0-.08,0-.15-.03-.22ZM118.16,244.63c0-.07-.01-.13-.02-.19-.04-.23-.12-.43-.24-.61-.01,0,0,0,0,0-.06-.07-.1-.13-.16-.19.2.27.32.59.36.92.04.29.01.59-.07.87-.03.1-.06.2-.11.3h0s.04-.02.05-.04h0c.04-.06.07-.13.09-.2h.01c.02-.06.04-.12.05-.18.02-.04.02-.08.03-.12.02-.09.03-.2.03-.3v-.06c0-.07,0-.13-.02-.19ZM117.68,254.34c.57.68.55,1.82,0,2.5.06-.06.11-.11.14-.18.05-.06.08-.12.11-.18.05-.06.08-.13.1-.2.05-.1.08-.22.1-.34.01-.04.02-.07.02-.11.01-.08.02-.17.02-.26v-.03c-.01-.51-.2-.91-.49-1.2ZM131.78,262.04c.11.01.21.01.31.01h1.97c.09,0,.18,0,.26-.01h-2.54ZM134.32,262.04s.03.01.05.01.03,0,.04-.01h-.09Z" fill="#028c88" stroke-width="0"/>
          <path d="M137.8,216.95c-.11-.06-.22-.12-.34-.18-1.43-.77-3.04-1.36-4.52-1.98-.16.18-.33.35-.48.52-.47.5-.94,1-1.42,1.5-.75.81-1.52,1.61-2.29,2.41-.44.47-.89.94-1.34,1.4-.51.52-1.01,1.04-1.52,1.56-.73.75-1.47,1.49-2.21,2.23-1,.99-2,1.98-3,2.96-.38.03-.79-.1-1.24-.35-.16-.09-.32-.2-.49-.31-.08-.06-.16-.12-.25-.19-.37-.29-.75-.63-1.13-.99-.61-.57-1.24-1.22-1.84-1.79-.07-.08-.15-.15-.22-.21-.08-.07-.15-.14-.22-.21-.15-.14-.29-.26-.43-.38-.36-.29-.69-.54-1.01-.71-.06-.04-.12-.07-.18-.1-.13-.06-.25-.1-.36-.13v40.05h17.53c.24,0,.48,0,.72-.01h6.24c0-.23,0-.47,0-.71v-.2c.17-14.65.08-29.49,0-44.18ZM116.31,242.99h.07c.09-.01.17-.01.26.01.45.05.8.26,1.04.56.01.01.02.01.03.03.01.01.02.02.03.04.07.05.12.12.16.19,0,0-.01,0,0,0,.12.18.2.38.24.61.01.06.02.12.02.19.01.06.02.12.02.19v.06c0,.1,0,.21-.03.3-.01.04-.01.08-.03.12,0,.06-.03.12-.05.17h-.01c-.02.08-.05.15-.09.2h0s-.02.05-.05.06c-.01.04-.04.08-.07.11-.02.04-.05.08-.08.11h0s-.01.03-.02.03c0,.02-.02.03-.05.06-.13.16-.3.3-.49.4-.26.14-.57.22-.94.22-.07,0-.14,0-.21-.02-.09,0-.18-.02-.27-.04-.16-.04-.31-.1-.44-.18-.08-.04-.15-.1-.21-.16-.01,0-.02-.01-.03-.02-.02-.01-.03-.03-.05-.04h0s-.09-.08-.13-.12c-.11-.12-.22-.26-.29-.43-.02-.05-.05-.1-.06-.16-.05-.14-.08-.31-.09-.49-.01-.01-.01-.02-.01-.03.01-.01.01-.02,0-.03v-.26s.01-.02,0-.03c0-.04,0-.07.02-.1-.01-.07,0-.13.02-.19h0c.06-.32.2-.57.4-.77,0-.01.01-.02.02-.03h.01s.04-.06.07-.08c.01-.01.02-.02.03-.02h0s.01,0,.01,0c.07-.09.14-.14.23-.2.15-.1.31-.17.5-.21.16-.04.34-.06.53-.05ZM114.47,233.96c0-.19.03-.37.09-.53.06-.16.15-.3.26-.43.01-.02.02-.03.03-.04.02-.03.05-.06.08-.09h0c.3-.37.8-.62,1.49-.61.48,0,.86.18,1.13.46h0s.02.03.03.04c.08.06.15.14.21.22.08.09.14.19.19.3.06.11.1.24.13.38.03.06.04.13.04.21.02.07.03.14.03.22,0,.12-.02.23-.04.34-.01.11-.04.21-.08.3-.03.09-.07.18-.12.26-.05.08-.1.16-.16.23,0,.01,0,.02-.01.02-.04.05-.09.1-.14.15-.27.33-.7.54-1.28.52-.48.04-.87-.11-1.18-.37-.03-.02-.07-.05-.1-.08-.36-.31-.6-.78-.6-1.42v-.08ZM118.17,255.57c0,.09-.01.18-.02.26,0,.02-.01.04-.02.06.01,0,.01.03,0,.05-.02.12-.05.24-.1.34-.02.07-.05.14-.1.2-.03.06-.06.12-.11.18-.03.07-.08.12-.14.18h0s0,.01,0,.02c-.31.37-.76.61-1.37.58-.48.04-.87-.12-1.14-.4-.02,0-.03-.01-.04-.03-.02-.01-.04-.03-.06-.05l-.05-.05c-.24-.23-.42-.53-.5-.92-.03-.13-.05-.27-.05-.42,0-.05,0-.1.01-.14,0-.1.01-.18.03-.27.02-.11.05-.22.1-.32.06-.15.14-.28.26-.4.02-.04.05-.08.09-.11.02-.04.05-.06.08-.09.29-.31.72-.5,1.3-.48.61-.01,1.05.22,1.34.57h0c.29.3.48.7.49,1.21v.03Z" fill="#02b7b0" stroke-width="0"/>
          <path d="M146.59,206.51c-1.53,3.81-4.41,6.83-8.27,8.6,6.43-6.55,6.92-16.72,2.76-24.67.08-.03.15-.06.23-.09.29-.11.58-.25.87-.4.05-.02.09-.05.13-.07.43.33.83.68,1.2,1.06.11.1.2.2.31.31.1.1.19.21.29.32.71.8,1.31,1.67,1.81,2.61.12.2.22.42.33.63,1.71,3.6,1.92,7.92.34,11.7Z" fill="#8a5246" stroke-width="0"/>
          <path d="M113.3,214.09v7.41c.26-.2.52-.39.77-.59,3.85-3.01,7.38-6.55,10.72-10.11.02-.02.04-.04.05-.05,0,0,.01-.02.02-.02,0,0,0-.01.01-.01.01-.02.02-.03.07-.07.17-.89-.09-1.79-.31-2.66v-.02c-.04-.15-.08-.3-.11-.45-.05.17-.24.29-.55.28-4.09.85-7.67,3.73-10.68,6.29Z" fill="#fecfb2" stroke-width="0"/>
          <path d="M114.46,244.85c0,.62.23,1.06.58,1.35,0,0,0,.01.01.01.73.59,1.96.49,2.63-.17.02-.02.04-.04.05-.06.01,0,.02-.02.02-.02h0c.26-.3.42-.68.4-1.14,0-.53-.19-.94-.47-1.23,0-.01-.02-.02-.02-.02-.68-.7-1.92-.72-2.65-.11-.04.03-.07.06-.1.1-.3.3-.49.74-.47,1.29Z" fill="#323230" stroke-width="0"/>
          <path d="M114.46,255.57c.02.59.23,1.04.55,1.34l.05.05c.72.65,1.93.59,2.61-.11,0,0,.01,0,.01-.01.3-.31.49-.75.49-1.31-.01-.51-.2-.91-.49-1.19h0c-.69-.67-1.92-.71-2.64-.1-.03.02-.06.05-.08.08-.3.28-.49.7-.49,1.25Z" fill="#323230" stroke-width="0"/>
          <path d="M114.46,234.04c0,.64.24,1.11.61,1.42.03.03.07.06.1.08.77.56,1.98.44,2.6-.31,0,0,0,0,0-.01.24-.28.39-.66.4-1.13-.02-.63-.27-1.08-.62-1.37-.74-.61-1.96-.5-2.62.14-.03.03-.05.06-.08.09-.24.28-.4.65-.38,1.09Z" fill="#323230" stroke-width="0"/>
          <path d="M124.62,207.96v.02c-3.87,1.19-7.49,4.39-11.32,6.11v-7.68c3.63-.2,7-2.5,10.45-3.6,0,0,.01,0,.01-.01.21,1.73.85,3.41.86,5.16Z" fill="#deaa96" stroke-width="0"/>
          <path d="M113.3,221.5v.51c.12.02.24.07.37.13,1.98.88,5.03,5.42,7.01,5.24,4.02-3.92,7.95-7.96,11.77-12.06.15-.17.32-.34.48-.52-1.92-1.82-4.06-3.44-6.14-5.09-.8-.68-1.24.68-1.85.94-.04.04-.05.05-.07.07,0,0-.01,0-.01.01,0,0-.01.01-.02.02-.01.01-.02.03-.05.05-3.35,3.56-6.88,7.1-10.72,10.11-.26.2-.51.4-.77.59Z" fill="#009590" stroke-width="0"/>
        </g>
        <path d="M117.58,157.25c-1.6-1.42-3.02-2.99-4.27-4.7,1.34,1.96,2.94,3.62,4.7,5.09-.15-.13-.29-.26-.43-.39Z" fill="#fecfb4" stroke-width="0"/>
        <path d="M123.74,171.5c-1.48,0-2.68,1.5-2.68,3.34s1.2,3.33,2.68,3.33,2.67-1.49,2.67-3.33-1.19-3.34-2.67-3.34Z" fill="#fecfb4" stroke-width="0"/>
        <path d="M143.03,173.4c-.6.08-1.26.24-1.96.49h-.02c-.13.11-.26.21-.38.32-.08.07-.17.15-.24.23-.11.11-.21.22-.3.35,0,0,0,.01-.01.01-.1.14-.22.29-.33.43-.4.49-.75,1.03-1.08,1.58-.49.61-.91,1.29-1.3,1.97-.02.03-.03.06-.05.09-.03.05-.06.1-.09.14-.03.06-.08.11-.08.18h-.01c-.43.59-.68,1.45-1.1,1.95.02-4.1.55-8.46-.28-12.61-3.48-2-7.34-3.95-10.88-6.19-2.43-1.35-4.78-2.83-6.88-4.68-.02,0-.02-.02-.03-.02-1.76-1.47-3.36-3.13-4.7-5.09v53.86c3.63-.2,7-2.5,10.45-3.6,0,0,.01,0,.01-.01,4.98-2.54,10.11-5.48,11.3-11.44.64-.25,1.52-.12,2.39-.1.6.02,1.2-.01,1.72-.25.68-.14,1.31-.33,1.91-.57.08-.03.15-.06.23-.09.29-.11.58-.25.87-.4.05-.02.09-.05.13-.07,1.55-.81,2.83-1.94,3.83-3.23.98-1.24,1.69-2.63,2.14-4.03,1.58-4.91-.08-9.93-5.26-9.22ZM123.74,178.17c-1.48,0-2.68-1.49-2.68-3.33s1.2-3.34,2.68-3.34,2.67,1.5,2.67,3.34-1.19,3.33-2.67,3.33ZM121.06,166.09c1.94-1.49,9.86.85,12.43,2.15-3.94-1.45-8.29-1.85-12.43-2.15Z" fill="#fecfb4" stroke-width="0"/>
        <path d="M133.48,168.24c-3.94-1.45-8.29-1.85-12.43-2.15,1.94-1.49,9.86.85,12.43,2.15Z" fill="#8a5246" stroke-width="0"/>
        <path d="M140.72,173.88c-.02.11-.04.22-.06.33-.08.07-.17.15-.24.23-.11.11-.21.22-.3.35,0,0,0,.01-.01.01-.1.14-.22.29-.33.43-.4.49-.75,1.03-1.08,1.58-.49.61-.91,1.29-1.3,1.97-.02.03-.03.06-.05.09-.03.05-.06.1-.09.14-.03.06-.08.11-.08.18h-.01c-.43.59-.68,1.45-1.1,1.95.02-4.1.55-8.46-.28-12.61.45.3.91.57,1.37.84.9.53,1.78,1.05,2.44,1.67.06.06.11.11.16.16.69.71,1.09,1.55.96,2.68Z" fill="#8a5246" stroke-width="0"/>
        <path d="M126.4,174.84c0,1.84-1.19,3.33-2.67,3.33s-2.68-1.49-2.68-3.33,1.2-3.34,2.68-3.34,2.67,1.5,2.67,3.34Z" fill="#231f20" stroke-width="0"/>
      </g>
      <g id="sorriso">
        <path d="M112.15,192.8v.96c1.26-.35,6.01-.78,5.61-2.48-.21-.2-.42-.08-.61.02-1.5.93-3.26,1.44-5,1.5Z" fill="#db8586" stroke-width="0"/>
        <path d="M112.15,192.8v.96c-1.26-.35-6.01-.78-5.61-2.48.21-.2.42-.08.61.02,1.5.93,3.26,1.44,5,1.5Z" fill="#db8586" stroke-width="0"/>
      </g>
    </g>
    <g id="mano" class="mano">
      <g id="lama" class="lama">
        <path d="M111.31,247.07h17.78v4.5h-22.28c0-2.48,2.01-4.5,4.5-4.5Z" transform="translate(258.05 11.73) rotate(55.85)" fill="#9081ac" stroke-width="0"/>
        <path d="M108,248.87h20.12v2.22h-22.27v-.06c0-1.19.97-2.16,2.16-2.16Z" transform="translate(258.17 12.83) rotate(55.85)" fill="#fafbfb" stroke-width="0"/>
      </g>
      <path d="M97.41,259.46c-.03.14-.06.27-.1.4-.29.76-.65,1.48-1.03,2.19h0s-.01.02-.01.02c-.06.13-.13.25-.2.38-1.17,2.21-2.51,4.32-3.94,6.37-.57.8-1.13,1.62-1.68,2.43-.66.98-1.33,1.95-1.97,2.94-.71,1.11-1.38,2.24-2.08,3.36-.51.81-.99,1.64-1.5,2.45-.71,1.13-1.44,2.23-2.13,3.36-.02.03-.04.07-.06.1h-22.75s-.03-.07-.03-.1c-.09-.26-.18-.54-.37-.76-.07-.06-.13-.13-.14-.24-.05-.48-.05-.96-.21-1.43-.05-1.31-.14-2.63-.01-3.95,0-.03.01-.06.01-.09.18-1.68.46-3.34,1.15-4.89.06-.14.13-.27.2-.4,0,0,0-.01.01-.01.21-.38.48-.73.9-.98.67-.4,1.28-.91,1.91-1.36,2.34-1.68,4.66-3.4,6.98-5.1,1.33-.97,2.66-1.94,3.98-2.92,1.15-.84,2.3-1.69,3.44-2.53.39-.29.78-.57,1.17-.86,1.06-.77,2.12-1.55,3.18-2.34h.01c.55-.41,1.11-.81,1.66-1.22.5-.26.93-.62,1.37-.97.76-.58,1.53-1.14,2.39-1.55.27-.14.55-.26.84-.36.4-.13.79-.25,1.19-.02.15.17.22.44.52.44.15.5.62.73.94,1.09.88.98,1.77,1.97,2.66,2.96.19.55.57.93,1.13,1.12.4.51.89.94,1.33,1.41.38.41.68.89,1.24,1.06Z" fill="#007972" stroke-width="0"/>
      <path d="M125.13,260.74c-.35.13-.65.37-.96.57-1.25.8-2.5,1.62-3.74,2.44-.56.37-1.01.37-1.53-.04-.48-.37-.67-1.05-.47-1.59.12-.32.34-.55.61-.73.97-.64,1.95-1.27,2.93-1.91.13-.08.24-.19.36-.28.28-.12.53-.3.77-.48.43-.31.93-.54,1.32-.91.13.04.21-.06.29-.12.35-.22.7-.45,1.04-.67.12-.08.27-.14.32-.3.43-.18.81-.46,1.2-.71.92-.6,1.82-1.21,2.75-1.79.69-.43,1.7.13,1.81.98.1.74-.25,1.24-.83,1.63-.26.17-.55.31-.77.54-.55.36-1.11.71-1.65,1.07-1.15.76-2.33,1.49-3.45,2.3Z" fill="#0e0e0e" stroke-width="0"/>
      <path d="M110.52,250.02c-1.01.23-2.04.28-3.08.25-.36-.01-.71-.06-1.06-.11-.23-.03-.33.04-.4.25-.3.99-.7,1.93-1.2,2.83-.62,1.1-1.38,2.08-2.52,2.69-.51.28-1.1.33-1.64.53-.73.28-1.48.53-2.19.86-.15-.02-.32.06-.45-.11-.59-.75-1.32-1.37-1.98-2.06-1-1.03-2.04-2.02-3.06-3.03-.25-.25-.52-.49-.92-.47-.22,0-.27-.2-.38-.32.37-.92.98-1.7,1.64-2.41,1.57-1.7,3.21-3.35,4.78-5.05,1.04-1.12,2.37-1.68,3.76-2.15,1.2-.4,2.42-.73,3.68-.9,1.3-.18,2.61-.2,3.91-.03.05,0,.1,0,.15,0,.08.07.18.04.28.06.78.14,1.55.33,2.29.63.05.08.12.09.21.07.03.02.04.05.02.08.53.1.89.47,1.29.79.04.09.07.19.13.27.62.79.78,1.69.67,2.67-.03.24-.16.48-.07.73-.21.17-.22.44-.32.66-.43.94-.94,1.82-1.81,2.43-.28.19-.59.35-.88.52-.16.02-.31.05-.43.16,0,0,0,0,0,0-.16-.02-.28.08-.42.13Z" fill="#f7ba9d" stroke-width="0"/>
      <path d="M167.29,281.18c.01.09-.02.17-.07.23-.12.27-.11.56-.13.84-.02.41-.09.81-.2,1.21,0,.01,0,.02-.01.03h-23.97l-.03-.03c-.14-.13-.28-.25-.42-.38-.01,0-.02,0-.02,0h.01-.01c-.35-.33-.69-.64-1.03-.94h-.01c-.29-.27-.57-.53-.86-.78-.79-.68-1.6-1.34-2.4-2-.67-.56-1.33-1.11-2.01-1.64,0,0-.01,0-.01,0-.28-.23-.56-.46-.83-.69-.32-.27-.64-.54-.96-.83-.55-.46-1.08-.95-1.61-1.45-.27-.25-.54-.51-.81-.77-.23-.23-.46-.46-.69-.69-.59-.6-1.16-1.22-1.68-1.89-.07-.1-.13-.21-.18-.31.43-.29.57-.77.8-1.21.26-.51.57-.98.79-1.51.43-.31.66-.72.69-1.24.52-1.05,1.04-2.09,1.56-3.15.12-.25.32-.47.43-.73h.01s0-.01.01-.02c.04-.12.08-.25.08-.39.26-.08.25-.32.34-.5.14-.15.31-.22.48-.25.03-.01.06-.02.08-.02.07-.01.14-.01.21-.01.08,0,.17.01.25.01.12.01.24.01.36.03h.01c.97.11,1.89.42,2.8.78.01,0,.03.01.04.02.1.04.2.07.3.12.36.14.72.28,1.11.36h.01c1.2.44,2.39.89,3.6,1.32.01.01.02.01.03.02.18.06.36.13.54.19.01,0,.02,0,.03,0,.26.1.52.19.78.29.1.03.2.08.31.11t.02.01c1.47.54,2.94,1.08,4.42,1.63,1.36.5,2.73,1,4.1,1.49,2.39.88,4.78,1.76,7.18,2.62.65.23,1.29.5,1.96.68.25.07.46.17.65.31.24.16.45.37.63.6.24.28.46.57.66.87.3.45.56.91.8,1.39.27.54.51,1.1.74,1.67.2.52.37,1.04.5,1.56.17.59.31,1.19.45,1.78-.02.44.09.85.17,1.27Z" fill="#007972" stroke-width="0"/>
      <path d="M135.76,275.24c-.61.32-1.17.73-1.71,1.15-.52.4-1.07.39-1.6.16-.53-.23-.87-.66-.93-1.26-.04-.36-.02-.71.22-1.01.06-.08.08-.18.12-.27.97-.61,1.9-1.28,2.83-1.95h0s.07-.04.1-.06c.26.02.52.04.78.06.4.23.78.49.95.94.26.68.17,1.31-.35,1.85-.13.14-.31.23-.41.4Z" fill="#0e0e0e" stroke-width="0"/>
      <path d="M134.48,261.95c1.33,1.97,1.94,4.14,1.8,6.51-.06,1.03-.38,2-.91,2.89-.15.26-.42.4-.59.64-.03.02-.07.04-.1.06,0,0,0,0,0,0-.93.67-1.86,1.34-2.83,1.95-.16.08-.32.17-.47.27-.71.52-1.52.57-2.35.43-1.92-.32-3.34-1.44-4.57-2.86-1.03-1.2-1.75-2.59-2.24-4.08-.39-1.17-.63-2.38-.22-3.61.41-1.24,1.19-2.21,2.18-3.04.19-.15.37-.31.56-.46.16-.08.31-.18.44-.31.18.02.36.03.33-.24.39-.26.79-.49,1.15-.78,1.15-.9,2.42-.92,3.75-.55.53.15,1,.42,1.49.66.58.42,1.13.86,1.63,1.37.31.38.62.76.94,1.13v.02Z" fill="#f7ba9d" stroke-width="0"/>
    </g>
    <g id="icon" class="iconArrabbiato">
      <path d="M127.75,144.96h-10.4v-2h10.4c1.23,0,2.24-1,2.24-2.24v-10.4h2v10.4c0,2.34-1.9,4.24-4.24,4.24Z" fill="#a11e21" stroke-width="0"/>
      <path d="M148.98,144.96h-10.4c-2.34,0-4.24-1.9-4.24-4.24v-10.4h2v10.4c0,1.23,1,2.24,2.24,2.24h10.4v2Z" fill="#a11e21" stroke-width="0"/>
      <path d="M131.98,162.25h-2v-10.4c0-1.23-1-2.24-2.24-2.24h-10.4v-2h10.4c2.34,0,4.24,1.9,4.24,4.24v10.4Z" fill="#a11e21" stroke-width="0"/>
      <path d="M136.34,162.25h-2v-10.4c0-2.34,1.9-4.24,4.24-4.24h10.4v2h-10.4c-1.23,0-2.24,1-2.24,2.24v10.4Z" fill="#a11e21" stroke-width="0"/>
    </g>
  </g>
</svg>