<?xml version="1.0" encoding="UTF-8"?>
<svg id="Layer_4" data-name="Layer 4" xmlns="http://www.w3.org/2000/svg" viewBox="0 0 226.77 283.46">
  <def>
    <style>
      .gocciaAnimation{
        transition: all ;
        animation: gocciaAnimation 1.5s ease-out 1;
      }
      @keyframes gocciaAnimation {
        0%{
          opacity:1;
          transform: translateY(0%);
        }
        100%{
          opacity:0;
          transform: translateY(5%);
        }
      }

      .trimolioImbarrazato{
        animation: trimolioAnimation 1s ease-out 2 forwards;
      }
      @keyframes trimolioAnimation {
        0%{
          transform: translateY(0%);
        }
        50%{
          transform: translateY(-2%);
        }
        100%{
          transform: translateY(0%);
        }
      }
      .sorriso{
        transform: scaleX(0);
        transform-origin: center center !important ;
        animation: sorriso 1s ease-out 1 0.5s forwards;
      }
      @keyframes sorriso {
        0%{
          transform: scaleX(0);
        }
        100%{
         
          transform: scaleX(1);
        }
      }
    </style>
  </def>
  <rect id="sfondo" x="0" y=".05" width="226.77" height="283.36" fill="#967cad" stroke-width="0"/>
  <g id="corpo">
    <g id="matilde">
      <g>
        <g>
          <path d="M83.42,229.94c0,17.84-.12,35.68-.03,53.52h-24.62c3.7-14.49,7.44-28.97,11.1-43.49,2.82-12.02,2.85-13.59,13.58-20.3-.05,3.42-.04,6.84-.03,10.27Z" fill="#028c88" stroke-width="0"/>
          <path d="M113.38,262.05v21.41h-29.99c-.02-9.23-.02-18.46-.01-27.7v-1.28c0-7.42.02-14.85.04-22.28v-.93c.01-3.86.02-7.73.03-11.6,1.44-.95,3.12-1.54,4.52-2.5.34.05.61-.17.92-.23-.09,14.99-.18,30.14,0,45.09.41,0,.93,0,1.54,0,.33,0,.67,0,1.01,0,.49,0,.99,0,1.5,0h.11c1.64,0,3.41.01,5.22.01h.34c1.2,0,2.43,0,3.64,0h.07c1.7,0,3.38,0,4.99,0h.25c2.02,0,3.92,0,5.58-.02h.24Z" fill="#0d0b09" stroke-width="0"/>
          <path d="M83.36,278.27c0-.12,0-.25.01-.37v.81c0-.15,0-.3-.01-.45Z" fill="#323230" stroke-width="0"/>
          <path d="M83.36,270.89c-.05-3.66-.03-7.31.02-10.97-.01,3.66-.02,7.31-.02,10.97Z" fill="#323230" stroke-width="0"/>
          <path d="M83.37,279.78c0,1.23.01,2.46.02,3.69-.04-1.23-.04-2.46-.02-3.69Z" fill="#323230" stroke-width="0"/>
          <path d="M83.41,221.28c0-.53.02-1.07.04-1.6-.02,1.22-.03,2.44-.04,3.66v-2.06Z" fill="#323230" stroke-width="0"/>
          <path d="M95.85,262.05h-2.15c-.21,0-.43,0-.64,0h-.11c-.21,0-.43,0-.62,0h-.87c.26,0,.54,0,.82,0h.09c.84,0,1.77,0,2.77,0,.24,0,.47,0,.72,0Z" fill="#323230" stroke-width="0"/>
          <path d="M108.21,262.05c-.21,0-.42.01-.64.02h-.25c-1.07.02-2.24.03-3.44.03-.05,0-.1,0-.15,0-1.67,0-3.42-.01-5.11-.03h-.34c-.42,0-.83,0-1.24-.01-.21,0-.43,0-.64,0h11.82Z" fill="#323230" stroke-width="0"/>
          <path d="M113.38,134.45v18.1c-1.26,1.71-2.67,3.28-4.27,4.7-.15.13-.29.26-.44.39,0,0-.01.02-.02.02-2.1,1.85-4.45,3.33-6.88,4.68-3.55,2.24-7.4,4.19-10.89,6.19-.44.3-.91.57-1.37.84-.89.53-1.78,1.05-2.44,1.67-.05.06-.1.11-.15.16-.69.71-1.1,1.55-.96,2.68.01.1.03.21.05.33-.11-.11-.24-.21-.38-.32h-.01c-.7-.25-1.36-.41-1.97-.49-1-4.91-.84-9.95.35-14.7,0-.02,0-.03,0-.03,1.95-13.88,13.27-24.94,29.37-24.22Z" fill="#b9914d" stroke-width="0"/>
          <path d="M86.02,174.21h-.01c-.02-.12-.04-.23-.05-.33.01.11.03.22.06.33Z" fill="#e5b260" stroke-width="0"/>
          <path d="M113.38,152.55c-1.35,1.96-2.95,3.62-4.71,5.09.15-.13.29-.26.44-.39,1.6-1.42,3.01-2.99,4.27-4.7Z" fill="#e5b260" stroke-width="0"/>
          <path d="M89.7,216.18c-17.73-1.41-30.31-22.38-11.31-33.56.46,1.4,1.17,2.79,2.14,4.03,1.01,1.29,2.29,2.42,3.84,3.23-.43.33-.83.68-1.21,1.06-.1.1-.2.2-.3.31-.1.1-.2.21-.3.32-.7.8-1.31,1.67-1.81,2.61-.11.2-.22.42-.32.63-1.71,3.6-1.92,7.92-.34,11.7,1.53,3.81,4.4,6.83,8.26,8.6h0c.39.42,1.07.56,1.35,1.07Z" fill="#b9914d" stroke-width="0"/>
          <path d="M101.33,262.05h-7.64c1.02,0,2.15,0,3.34,0h4.46c-.05,0-.1,0-.15,0ZM101.48,262.06c.26,0,.52.01.77.02h.07c.47.01.93.02,1.39.02.05,0,.1,0,.15,0,1.22.02,2.42.02,3.6-.03h.09c.22,0,.43-.01.64-.02-1.93,0-4.31,0-6.72,0Z" fill="#018c89" stroke-width="0"/>
          <path d="M92.27,262.05s.02,0,.04,0,.04,0,.05,0h-.09ZM92.36,262.05c.43,0,.87,0,1.33,0s.94,0,1.44,0c-.99,0-1.92,0-2.77,0ZM109.01,254.34c-.29.28-.48.68-.49,1.19,0,.56.2,1,.49,1.31-.55-.69-.58-1.82,0-2.5ZM108.98,243.59c-.28.29-.46.71-.47,1.23-.01.46.14.84.4,1.13-.49-.68-.45-1.72.07-2.37ZM109.13,232.73c-.35.29-.6.74-.62,1.37.01.46.16.84.4,1.13-.49-.74-.4-1.87.23-2.5ZM112.22,234.04c.02-.44-.14-.81-.38-1.09.53.74.41,1.87-.23,2.5.36-.31.6-.78.61-1.42ZM112.22,244.85c.02-.56-.17-.99-.47-1.29.61.72.56,1.96-.11,2.64.35-.28.58-.73.58-1.35ZM112.23,255.57c0-.55-.19-.96-.49-1.25.59.7.53,1.9-.06,2.59.31-.3.52-.75.55-1.34Z" fill="#028c88" stroke-width="0"/>
          <path d="M113.01,222.14c-1.98.88-5.03,5.42-7.01,5.24-4.02-3.92-7.95-7.96-11.77-12.06-.15-.17-.32-.34-.48-.52-1.6.68-3.34,1.31-4.87,2.16-.09,14.99-.18,30.14,0,45.09.41,0,.93,0,1.54,0h1.93c.84,0,1.77,0,2.77,0,.24,0,.47,0,.72,0h17.54v-40.04c-.12.02-.24.07-.37.13ZM109.13,232.73c.28-.28.66-.46,1.14-.46.69,0,1.18.24,1.48.61.03.03.05.06.08.09.24.28.4.65.38,1.09,0,.64-.24,1.11-.61,1.42-.03.03-.07.06-.1.08-.3.26-.69.41-1.17.37-.67.01-1.15-.27-1.42-.68,0,0,0,0,0-.01-.24-.28-.39-.66-.4-1.13.02-.63.27-1.08.62-1.37ZM108.98,243.59s.02-.02.02-.02c.3-.37.77-.61,1.37-.57.56-.02.99.16,1.28.46.04.03.07.06.1.1.3.3.49.74.47,1.29,0,.62-.23,1.06-.58,1.35,0,0,0,.01-.01.01-.29.28-.69.46-1.2.46-.66,0-1.13-.25-1.43-.62-.02-.02-.04-.04-.05-.06-.01,0-.02-.02-.02-.02h0c-.26-.3-.42-.68-.4-1.14,0-.53.19-.94.47-1.23ZM111.68,256.91l-.05.05c-.29.32-.71.52-1.24.48-.61.03-1.06-.21-1.36-.59,0,0-.01,0-.01-.01-.3-.31-.49-.75-.49-1.31.01-.51.2-.91.49-1.19h0c.29-.36.74-.59,1.35-.58.58-.02,1,.17,1.29.47.03.02.06.05.08.08.3.28.49.7.49,1.25-.02.59-.23,1.04-.55,1.34Z" fill="#028c88" stroke-width="0"/>
          <path d="M88.35,215.11c-3.86-1.77-6.73-4.79-8.26-8.6-1.58-3.78-1.37-8.1.34-11.7.1-.21.21-.43.32-.63.5-.94,1.11-1.81,1.81-2.61.1-.11.2-.22.3-.32.1-.11.2-.21.3-.31.38-.38.78-.73,1.21-1.06.04.02.08.05.13.07.28.15.57.29.87.4.07.03.15.06.23.09-4.16,7.95-3.68,18.12,2.75,24.67Z" fill="#6a3d33" stroke-width="0"/>
          <path d="M113.38,214.09v7.41c-.26-.2-.52-.39-.77-.59-3.85-3.01-7.38-6.55-10.72-10.11-.02-.02-.04-.04-.05-.05,0,0-.01-.02-.02-.02,0,0,0-.01-.01-.01-.01-.02-.02-.03-.07-.07-.17-.89.09-1.79.31-2.66v-.02c.04-.15.08-.3.11-.45.05.17.24.29.55.28,4.09.85,7.67,3.73,10.68,6.29Z" fill="#deaa96" stroke-width="0"/>
          <path d="M112.22,244.85c0,.62-.23,1.06-.58,1.35,0,0,0,.01-.01.01-.73.59-1.96.49-2.63-.17-.02-.02-.04-.04-.05-.06-.01,0-.02-.02-.02-.02h0c-.26-.3-.42-.68-.4-1.14,0-.53.19-.94.47-1.23,0-.01.02-.02.02-.02.68-.7,1.92-.72,2.65-.11.04.03.07.06.1.1.3.3.49.74.47,1.29Z" fill="#0d0b09" stroke-width="0"/>
          <path d="M112.23,255.57c-.02.59-.23,1.04-.55,1.34l-.05.05c-.72.65-1.93.59-2.61-.11,0,0-.01,0-.01-.01-.3-.31-.49-.75-.49-1.31.01-.51.2-.91.49-1.19h0c.69-.67,1.92-.71,2.64-.1.03.02.06.05.08.08.3.28.49.7.49,1.25Z" fill="#0d0b09" stroke-width="0"/>
          <path d="M112.22,234.04c0,.64-.24,1.11-.61,1.42-.03.03-.07.06-.1.08-.77.56-1.98.44-2.6-.31,0,0,0,0,0-.01-.24-.28-.39-.66-.4-1.13.02-.63.27-1.08.62-1.37.74-.61,1.96-.5,2.62.14.03.03.05.06.08.09.24.28.4.65.38,1.09Z" fill="#0d0b09" stroke-width="0"/>
          <path d="M113.38,206.41v7.68c-3.84-1.72-7.45-4.92-11.33-6.11v-.02c.01-1.75.66-3.42.87-5.15,3.46,1.1,6.82,3.4,10.46,3.6Z" fill="#ea8d74" stroke-width="0"/>
          <path d="M113.38,221.5v.51c-.12.02-.24.07-.37.13-1.98.88-5.03,5.42-7.01,5.24-4.02-3.92-7.95-7.96-11.77-12.06-.15-.17-.32-.34-.48-.52,1.92-1.82,4.06-3.44,6.14-5.09.8-.68,1.24.68,1.85.94.04.04.05.05.07.07,0,0,.01,0,.01.01,0,0,.01.01.02.02.01.01.02.03.05.05,3.35,3.56,6.88,7.1,10.72,10.11.26.2.51.4.77.59Z" fill="#007972" stroke-width="0"/>
        </g>
        <path d="M109.11,157.25c-.15.13-.29.26-.44.39,1.76-1.47,3.36-3.13,4.71-5.09-1.26,1.71-2.67,3.28-4.27,4.7Z" fill="#fecfb4" stroke-width="0"/>
        <path d="M102.95,171.5c-1.48,0-2.68,1.5-2.68,3.34s1.2,3.33,2.68,3.33,2.67-1.49,2.67-3.33-1.2-3.34-2.67-3.34Z" fill="#fecfb4" stroke-width="0"/>
        <path d="M108.67,157.64s-.01.02-.02.02c-2.1,1.85-4.45,3.33-6.88,4.68-3.55,2.24-7.4,4.19-10.89,6.19-.82,4.15-.29,8.51-.28,12.61-.42-.5-.67-1.36-1.09-1.95h-.02c.01-.07-.04-.12-.08-.18-.03-.04-.05-.09-.08-.14-.02-.03-.04-.06-.06-.09-.39-.68-.81-1.36-1.3-1.97-.33-.55-.68-1.09-1.08-1.58-.11-.14-.22-.29-.33-.43h0c-.1-.14-.2-.25-.31-.36-.07-.08-.15-.16-.23-.23h-.01c-.11-.11-.24-.21-.38-.32h-.01c-.7-.25-1.36-.41-1.97-.49-5.17-.71-6.83,4.31-5.26,9.22.46,1.4,1.17,2.79,2.14,4.03,1.01,1.29,2.29,2.42,3.84,3.23.04.02.08.05.13.07.28.15.57.29.87.4.07.03.15.06.23.09.59.24,1.23.43,1.9.57,1.28.58,3.04-.07,4.12.35,1.19,5.96,6.31,8.9,11.3,11.44h0c3.46,1.11,6.82,3.41,10.46,3.61v-53.86c-1.35,1.96-2.95,3.62-4.71,5.09ZM102.95,178.17c-1.48,0-2.68-1.49-2.68-3.33s1.2-3.34,2.68-3.34,2.67,1.5,2.67,3.34-1.2,3.33-2.67,3.33ZM93.19,168.24c2.58-1.3,10.5-3.64,12.43-2.15-4.13.3-8.48.7-12.43,2.15Z" fill="#deaa96" stroke-width="0"/>
        <path d="M105.62,166.09c-4.13.3-8.48.7-12.43,2.15,2.58-1.3,10.5-3.64,12.43-2.15Z" fill="#6a3d33" stroke-width="0"/>
        <path d="M90.6,181.14c-.42-.5-.67-1.36-1.09-1.95h-.02c.01-.07-.04-.12-.08-.18-.03-.04-.05-.09-.08-.14-.02-.03-.04-.06-.06-.09-.39-.68-.81-1.36-1.3-1.97-.33-.55-.68-1.09-1.08-1.58-.11-.14-.22-.29-.33-.43h0c-.1-.14-.2-.25-.31-.36-.07-.08-.15-.16-.23-.23-.03-.11-.05-.22-.06-.33-.14-1.13.27-1.97.96-2.68.05-.05.1-.1.15-.16.66-.62,1.55-1.14,2.44-1.67.46-.27.93-.54,1.37-.84-.82,4.15-.29,8.51-.28,12.61Z" fill="#6a3d33" stroke-width="0"/>
        <path d="M105.62,174.84c0,1.84-1.2,3.33-2.67,3.33s-2.68-1.49-2.68-3.33,1.2-3.34,2.68-3.34,2.67,1.5,2.67,3.34Z" fill="#0d0b09" stroke-width="0"/>
      </g>
      <g>
        <g>
          <path d="M143.35,229.94c0,17.84.12,35.68.03,53.52h24.62c-3.7-14.49-7.44-28.97-11.1-43.49-2.82-12.02-2.85-13.59-13.58-20.3.05,3.42.04,6.84.03,10.27Z" fill="#02b7b0" stroke-width="0"/>
          <path d="M113.39,262.05v21.41s29.99,0,29.99,0c.02-9.23.02-18.46.01-27.7v-1.28c0-7.42-.02-14.85-.04-22.28v-.93c-.01-3.86-.02-7.73-.03-11.6-1.44-.95-3.12-1.54-4.52-2.5-.34.05-.61-.17-.92-.23.09,14.99.18,30.14,0,45.09-.41,0-.93,0-1.54,0-.33,0-.67,0-1.01,0-.49,0-.99,0-1.5,0h-.11c-1.64,0-3.41.01-5.22.01h-.34c-1.2,0-2.43,0-3.64,0h-.07c-1.7,0-3.38,0-4.99,0h-.25c-2.02,0-3.92,0-5.58-.02h-.24Z" fill="#323230" stroke-width="0"/>
          <path d="M143.42,278.27c0-.12,0-.25-.01-.37v.81c0-.15,0-.3.01-.45Z" fill="#323230" stroke-width="0"/>
          <path d="M143.42,270.89c.05-3.66.03-7.31-.02-10.97.01,3.66.02,7.31.02,10.97Z" fill="#323230" stroke-width="0"/>
          <path d="M143.4,279.78c0,1.23-.01,2.46-.02,3.69.04-1.23.04-2.46.02-3.69Z" fill="#323230" stroke-width="0"/>
          <path d="M143.36,221.28c0-.53-.02-1.07-.04-1.6.02,1.22.03,2.44.04,3.66v-2.06Z" fill="#323230" stroke-width="0"/>
          <path d="M130.92,262.05h2.15c.21,0,.43,0,.64,0h.11c.21,0,.43,0,.62,0h.87c-.26,0-.54,0-.82,0h-.09c-.84,0-1.77,0-2.77,0-.24,0-.47,0-.72,0Z" fill="#323230" stroke-width="0"/>
          <path d="M118.56,262.05c.21,0,.42.01.64.02h.25c1.07.02,2.24.03,3.44.03.05,0,.1,0,.15,0,1.67,0,3.42-.01,5.11-.03h.34c.42,0,.83,0,1.24-.01.21,0,.43,0,.64,0h-11.82Z" fill="#323230" stroke-width="0"/>
          <path d="M143.11,173.4c-.6.08-1.26.24-1.96.49h-.02c-.13.11-.26.21-.38.32.02-.11.04-.22.06-.33.13-1.13-.27-1.97-.96-2.68-.05-.05-.1-.1-.16-.16-.66-.62-1.54-1.14-2.44-1.67-.46-.27-.92-.54-1.37-.84-3.48-2-7.34-3.95-10.88-6.19-2.43-1.35-4.78-2.83-6.88-4.68-.02,0-.02-.02-.03-.02-.15-.13-.29-.26-.43-.39-1.6-1.42-3.02-2.99-4.27-4.7v-18.1c16.1-.72,27.42,10.34,29.36,24.22,0,0,.02.01,0,.03,1.19,4.75,1.36,9.79.35,14.7Z" fill="#e5b260" stroke-width="0"/>
          <path d="M140.75,174.21s0,0,0,0c.02-.11.04-.23.05-.33-.02.11-.04.23-.06.34Z" fill="#e5b260" stroke-width="0"/>
          <path d="M118.09,157.64c-1.76-1.47-3.36-3.13-4.7-5.09,1.25,1.71,2.67,3.28,4.27,4.7.14.13.28.26.43.39Z" fill="#e5b260" stroke-width="0"/>
          <path d="M137.07,216.18c.28-.51.95-.65,1.34-1.06h0c3.86-1.78,6.74-4.8,8.27-8.61,1.58-3.78,1.37-8.1-.34-11.7-.11-.21-.21-.43-.33-.63-.5-.94-1.1-1.81-1.81-2.61-.1-.11-.19-.22-.29-.32-.11-.11-.2-.21-.31-.31-.37-.38-.77-.73-1.2-1.06,1.55-.81,2.83-1.94,3.83-3.23.98-1.24,1.69-2.63,2.14-4.03,19.01,11.18,6.43,32.15-11.3,33.56Z" fill="#e5b260" stroke-width="0"/>
          <path d="M125.29,262.06h4.46c1.19,0,2.31,0,3.34,0h-7.64c-.05,0-.1,0-.15,0ZM118.56,262.05c.21,0,.42.01.64.02h.09c1.18.05,2.39.05,3.6.03.05,0,.1,0,.15,0,.46,0,.93-.01,1.39-.02h.07c.26,0,.52-.01.77-.02-2.42,0-4.79,0-6.72,0Z" fill="#018c89" stroke-width="0"/>
          <path d="M134.41,262.05s.03,0,.05,0,.03,0,.04,0h-.09ZM131.64,262.05c.49,0,.97,0,1.44,0s.9,0,1.33,0c-.84,0-1.77,0-2.77,0ZM117.76,256.85c.3-.31.49-.75.49-1.31-.01-.51-.2-.91-.49-1.19.58.68.55,1.82,0,2.5ZM117.86,245.95c.26-.29.42-.67.4-1.13,0-.53-.19-.94-.47-1.23.51.65.56,1.69.07,2.37ZM117.86,235.22c.24-.28.39-.66.4-1.13-.02-.63-.27-1.08-.62-1.37.62.63.72,1.76.23,2.5ZM115.16,235.46c-.64-.63-.75-1.77-.23-2.5-.24.28-.4.65-.38,1.09,0,.64.24,1.11.61,1.42ZM115.13,246.2c-.68-.68-.72-1.92-.11-2.64-.3.3-.49.74-.47,1.29,0,.62.23,1.06.58,1.35ZM115.09,256.91c-.59-.69-.65-1.89-.06-2.59-.3.28-.49.7-.49,1.25.02.59.23,1.04.55,1.34Z" fill="#028c88" stroke-width="0"/>
          <path d="M113.39,222.01v40.04s17.54,0,17.54,0c.24,0,.48,0,.72,0,.99,0,1.92,0,2.77,0h1.93c.61,0,1.13,0,1.54,0,.18-14.95.09-30.1,0-45.09-1.53-.85-3.26-1.48-4.87-2.16-.16.18-.33.35-.48.52-3.83,4.11-7.76,8.14-11.77,12.06-1.98.18-5.03-4.36-7.01-5.24-.13-.07-.25-.11-.37-.13ZM118.26,234.1c-.01.46-.16.84-.4,1.13,0,0,0,.01,0,.01-.28.41-.75.69-1.42.68-.48.04-.87-.11-1.17-.37-.04-.02-.07-.05-.1-.08-.36-.31-.6-.78-.61-1.42-.02-.44.14-.81.38-1.09.03-.03.05-.06.08-.09.3-.37.8-.61,1.48-.61.48,0,.86.18,1.14.46.35.29.6.74.62,1.37ZM118.26,244.82c.01.46-.14.84-.4,1.13h0s-.01.02-.02.03c-.01.02-.03.04-.05.06-.3.37-.77.62-1.43.62-.51,0-.91-.18-1.2-.46,0,0-.01,0-.01-.01-.35-.28-.58-.73-.58-1.35-.02-.56.17-.99.47-1.29.03-.04.07-.07.1-.1.29-.3.72-.49,1.28-.46.61-.04,1.07.2,1.37.57,0,0,.02.01.02.02.28.29.46.71.47,1.23ZM114.55,255.57c0-.55.19-.96.49-1.25.02-.04.05-.06.08-.08.29-.31.72-.5,1.29-.47.61-.01,1.06.21,1.35.56h0c.29.3.48.69.49,1.2,0,.56-.2,1-.49,1.31,0,0,0,0-.01.01-.3.37-.76.62-1.36.59-.53.04-.95-.16-1.24-.48l-.05-.05c-.31-.3-.52-.75-.55-1.34Z" fill="#02b7b0" stroke-width="0"/>
          <path d="M146.68,206.51c-1.53,3.81-4.41,6.83-8.27,8.6,6.43-6.55,6.92-16.72,2.76-24.67.08-.03.15-.06.23-.09.29-.11.58-.25.87-.4.05-.02.09-.05.13-.07.43.33.83.68,1.2,1.06.11.1.2.2.31.31.1.1.19.21.29.32.71.8,1.31,1.67,1.81,2.61.12.2.22.42.33.63,1.71,3.6,1.92,7.92.34,11.7Z" fill="#8a5246" stroke-width="0"/>
          <path d="M113.39,214.09v7.41c.26-.2.52-.39.77-.59,3.85-3.01,7.38-6.55,10.72-10.11.02-.02.04-.04.05-.05,0,0,.01-.02.02-.02,0,0,0-.01.01-.01.01-.02.02-.03.07-.07.17-.89-.09-1.79-.31-2.66v-.02c-.04-.15-.08-.3-.11-.45-.05.17-.24.29-.55.28-4.09.85-7.67,3.73-10.68,6.29Z" fill="#fecfb2" stroke-width="0"/>
          <path d="M114.55,244.85c0,.62.23,1.06.58,1.35,0,0,0,.01.01.01.73.59,1.96.49,2.63-.17.02-.02.04-.04.05-.06.01,0,.02-.02.02-.02h0c.26-.3.42-.68.4-1.14,0-.53-.19-.94-.47-1.23,0-.01-.02-.02-.02-.02-.68-.7-1.92-.72-2.65-.11-.04.03-.07.06-.1.1-.3.3-.49.74-.47,1.29Z" fill="#323230" stroke-width="0"/>
          <path d="M114.55,255.57c.02.59.23,1.04.55,1.34l.05.05c.72.65,1.93.59,2.61-.11,0,0,.01,0,.01-.01.3-.31.49-.75.49-1.31-.01-.51-.2-.91-.49-1.19h0c-.69-.67-1.92-.71-2.64-.1-.03.02-.06.05-.08.08-.3.28-.49.7-.49,1.25Z" fill="#323230" stroke-width="0"/>
          <path d="M114.55,234.04c0,.64.24,1.11.61,1.42.03.03.07.06.1.08.77.56,1.98.44,2.6-.31,0,0,0,0,0-.01.24-.28.39-.66.4-1.13-.02-.63-.27-1.08-.62-1.37-.74-.61-1.96-.5-2.62.14-.03.03-.05.06-.08.09-.24.28-.4.65-.38,1.09Z" fill="#323230" stroke-width="0"/>
          <path d="M124.71,207.96v.02c-3.87,1.19-7.49,4.39-11.32,6.11v-7.68c3.63-.2,7-2.5,10.45-3.6,0,0,.01,0,.01-.01.21,1.73.85,3.41.86,5.16Z" fill="#deaa96" stroke-width="0"/>
          <path d="M113.39,221.5v.51c.12.02.24.07.37.13,1.98.88,5.03,5.42,7.01,5.24,4.02-3.92,7.95-7.96,11.77-12.06.15-.17.32-.34.48-.52-1.92-1.82-4.06-3.44-6.14-5.09-.8-.68-1.24.68-1.85.94-.04.04-.05.05-.07.07,0,0-.01,0-.01.01,0,0-.01.01-.02.02-.01.01-.02.03-.05.05-3.35,3.56-6.88,7.1-10.72,10.11-.26.2-.51.4-.77.59Z" fill="#009590" stroke-width="0"/>
        </g>
        <path d="M117.66,157.25c-1.6-1.42-3.02-2.99-4.27-4.7,1.34,1.96,2.94,3.62,4.7,5.09-.15-.13-.29-.26-.43-.39Z" fill="#fecfb4" stroke-width="0"/>
        <path d="M123.82,171.5c-1.48,0-2.68,1.5-2.68,3.34s1.2,3.33,2.68,3.33,2.67-1.49,2.67-3.33-1.19-3.34-2.67-3.34Z" fill="#fecfb4" stroke-width="0"/>
        <path d="M143.11,173.4c-.6.08-1.26.24-1.96.49h-.02c-.13.11-.26.21-.38.32-.08.07-.17.15-.24.23-.11.11-.21.22-.3.35,0,0,0,.01-.01.01-.1.14-.22.29-.33.43-.4.49-.75,1.03-1.08,1.58-.49.61-.91,1.29-1.3,1.97-.02.03-.03.06-.05.09-.03.05-.06.1-.09.14-.03.06-.08.11-.08.18h-.01c-.43.59-.68,1.45-1.1,1.95.02-4.1.55-8.46-.28-12.61-3.48-2-7.34-3.95-10.88-6.19-2.43-1.35-4.78-2.83-6.88-4.68-.02,0-.02-.02-.03-.02-1.76-1.47-3.36-3.13-4.7-5.09v53.86c3.63-.2,7-2.5,10.45-3.6,0,0,.01,0,.01-.01,4.98-2.54,10.11-5.48,11.3-11.44,1.08-.42,2.83.23,4.11-.35.68-.14,1.31-.33,1.91-.57.08-.03.15-.06.23-.09.29-.11.58-.25.87-.4.05-.02.09-.05.13-.07,1.55-.81,2.83-1.94,3.83-3.23.98-1.24,1.69-2.63,2.14-4.03,1.58-4.91-.08-9.93-5.26-9.22ZM123.82,178.17c-1.48,0-2.68-1.49-2.68-3.33s1.2-3.34,2.68-3.34,2.67,1.5,2.67,3.34-1.19,3.33-2.67,3.33ZM121.14,166.09c1.94-1.49,9.86.85,12.43,2.15-3.94-1.45-8.29-1.85-12.43-2.15Z" fill="#fecfb4" stroke-width="0"/>
        <path d="M133.57,168.24c-3.94-1.45-8.29-1.85-12.43-2.15,1.94-1.49,9.86.85,12.43,2.15Z" fill="#8a5246" stroke-width="0"/>
        <path d="M140.81,173.88c-.02.11-.04.22-.06.33-.08.07-.17.15-.24.23-.11.11-.21.22-.3.35,0,0,0,.01-.01.01-.1.14-.22.29-.33.43-.4.49-.75,1.03-1.08,1.58-.49.61-.91,1.29-1.3,1.97-.02.03-.03.06-.05.09-.03.05-.06.1-.09.14-.03.06-.08.11-.08.18h-.01c-.43.59-.68,1.45-1.1,1.95.02-4.1.55-8.46-.28-12.61.45.3.91.57,1.37.84.9.53,1.78,1.05,2.44,1.67.06.06.11.11.16.16.69.71,1.09,1.55.96,2.68Z" fill="#8a5246" stroke-width="0"/>
        <path d="M126.49,174.84c0,1.84-1.19,3.33-2.67,3.33s-2.68-1.49-2.68-3.33,1.2-3.34,2.68-3.34,2.67,1.5,2.67,3.34Z" fill="#231f20" stroke-width="0"/>
      </g>
      <g id="sorriso" class="sorriso">
        <rect x="105.95" y="190.55" width="14.86" height="1" fill="#38393a" stroke-width="0"/>
      </g>
    </g>
    <g id="icon" class="gocciaAnimation">
      <path d="M144.29,144.42c0,5.46-4.43,9.89-9.89,9.89s-9.88-4.43-9.88-9.89c0-1.24.23-2.42.65-3.51h-.02l9.25-26.99,9.3,27.11h-.01c.39,1.05.6,2.2.6,3.39Z" fill="#0098c8" stroke-width="0"/>
      <path d="M136.18,149.88c-.28,0-.5-.22-.5-.5s.22-.5.5-.5c1.34,0,2.37-.43,3.08-1.27.9-1.07,1.03-2.53.9-3.25-.49-2.78-3.28-10.93-3.31-11.01-.09-.26.05-.55.31-.64.26-.09.54.05.63.31.12.34,2.85,8.31,3.35,11.16.19,1.09-.08,2.82-1.12,4.07-.89,1.06-2.22,1.63-3.84,1.63Z" fill="#fff" stroke-width="0"/>
    </g>
  </g>
</svg>