<?xml version="1.0" encoding="UTF-8"?>
<svg id="base" xmlns="http://www.w3.org/2000/svg" viewBox="0 0 226.77 283.46">
  <rect id="sfondo" x="0" y="0" width="226.77" height="283.43" fill="#ffdb52" stroke-width="1"/>
  <g id="corpo">
    <g id="vestito">
      <path d="M192.39,278.31c.13-3.76.17-7.53.02-11.29,0-.05,0-.11-.01-.16-.06-1.61-.16-3.22-.31-4.83-.47-5.2-1.33-10.32-2.58-15.39-.46-1.85-.97-3.68-1.54-5.5-.12-.39-.24-.77-.36-1.16-1.05-3.28-2.27-6.51-3.59-9.71-.41-.97-.96-1.88-1.2-2.92,1.97.18,3.95.29,5.93.39.03.01.07.01.11.01,2.51.12,5.03.21,7.55.37.1,0,.19,0,.29.01.74.05,1.48.26,2.22.04,3.33,4.47,6.27,9.21,8.83,14.15,2.04,3.94,3.85,7.97,5.36,12.14,1.56,4.35,2.86,8.79,3.82,13.32,1.1,5.19,1.76,10.43,1.99,15.69h-26.81c.14-1.72.24-3.43.29-5.16Z" fill="#c6e8e3" stroke-width="0"/>
      <rect x="144.23" y="226.45" width="32.08" height="6.35" fill="#3e4552" stroke-width="0"/>
      <path d="M159.73,189.15c-2.96,6.94-29.11,28.82-35.44,26.78v-12.71c7.09-.87,24.34-6.22,33.03-12.2.04-.02.08-.05.12-.09.16-.1.32-.21.47-.32.29-.21.57-.41.83-.63.16-.13.31-.24.45-.36.06-.06.11-.1.17-.14.04-.04.08-.08.12-.11.06-.05.11-.1.17-.16.02-.01.03-.02.05-.04.01,0,.02-.01.03-.02Z" fill="#3e4552" stroke-width="0"/>
      <path d="M197.15,225.63c-9.33-14.75-25.84-24.04-37.42-36.48-2.96,6.94-29.11,28.82-35.44,26.78v-12.71c-.57.38-1.13.86-1.67,1.4-2.71,2.73-5.18,7.09-8.57,7.44-.13,0-.4.02-.58.02h-.16v71.38h78.8c.13-1.72.23-3.43.28-5.15.13-3.77.18-7.53.03-11.3,0-.05,0-.11-.02-.16-.47-8.72-1.94-17.36-4.42-25.72-.12-.39-.24-.77-.37-1.16-1.04-3.28-2.26-6.51-3.59-9.71-.41-.97-.96-1.88-1.2-2.92,1.97.13,3.95.27,5.93.39.03.01.07.01.1.01,2.52.11,5.03.21,7.56.37.09,0,.19,0,.28.01.75.01,1.49.03,2.23.04-.51-.89-1.09-1.75-1.77-2.53ZM176.31,232.8h-32.08v-6.36h32.08v6.36Z" fill="#00bfc0" stroke-width="0"/>
      <path d="M43.95,227.34c-.24,1.04-.79,1.95-1.2,2.92-1.33,3.2-2.55,6.43-3.59,9.71-.13.39-.25.77-.36,1.16-.57,1.82-1.08,3.65-1.54,5.5-1.25,5.07-2.11,10.19-2.58,15.39-.15,1.62-.25,3.22-.31,4.83-.01.05-.01.11-.01.16-.15,3.76-.11,7.53.02,11.29.05,1.72.15,3.43.29,5.16H7.86c.22-5.26.89-10.5,1.99-15.69.96-4.52,2.26-8.96,3.82-13.32,1.51-4.17,3.32-8.2,5.36-12.14,2.57-4.94,5.51-9.68,8.83-14.15.75.21,1.49.01,2.22-.04.1-.01.19-.01.29-.01,2.52-.16,5.04-.26,7.55-.37.03,0,.07,0,.11-.01,1.98-.1,3.96-.2,5.93-.39Z" fill="#b3d1cd" stroke-width="0"/>
      <path d="M113.31,212.08v71.38H34.68c-.14-1.72-.24-3.43-.29-5.15-.13-3.77-.17-7.53-.02-11.3,0-.05,0-.11.01-.16.47-8.72,1.94-17.36,4.42-25.72.12-.39.24-.77.37-1.16,1.05-3.28,2.27-6.51,3.59-9.71.41-.97.96-1.88,1.2-2.92-1.97.13-3.95.27-5.93.39-.03.01-.07.01-.1.01-2.52.11-5.03.21-7.55.37-.1,0-.2,0-.29.01-.75.01-1.49.03-2.23.04.52-.89,1.09-1.75,1.77-2.53,9.34-14.75,25.84-24.04,37.42-36.48,2.96,6.94,29.12,28.82,35.44,26.78v-12.71c.57.38,1.13.86,1.68,1.4,2.7,2.73,5.17,7.09,8.56,7.44.13,0,.4.02.58.02Z" fill="#019091" stroke-width="0"/>
      <path d="M102.49,203.22v12.71c-6.32,2.04-32.48-19.84-35.44-26.78.01.01.02.02.03.02.06.05.11.1.17.14.02.03.04.04.06.06.03.03.07.08.12.11.05.04.1.08.16.14.15.12.3.23.46.36.25.22.53.42.82.63.15.11.31.22.47.32.04.04.09.07.12.09,8.69,5.98,25.95,11.33,33.03,12.2Z" fill="#1f1911" stroke-width="0"/>
    </g>
    <g id="testa">
      <path d="M122.62,204.62c-2.71,2.73-5.18,7.09-8.57,7.44-.13,0-.4.02-.58.02h-.16v-6.65h.16c4.12-.01,7.28-.45,9.15-.81Z" fill="#efb790" stroke-width="0"/>
      <path d="M124.49,204.21c-.06.04-.14.09-.2.14v-.09c.13-.03.2-.05.2-.05Z" fill="#eeb08e" stroke-width="0"/>
      <path d="M141.08,138.25c0,7.64-6.21,13.85-13.85,13.85-7.09,0-12.95-5.34-13.76-12.21-.04-.3-.07-.61-.08-.92v-.02c-.01-.23-.02-.46-.02-.7s.01-.48.02-.71c.01-.32.04-.63.08-.93.81-6.88,6.67-12.2,13.76-12.2,7.64,0,13.85,6.19,13.85,13.84Z" fill="#f7bca3" stroke-width="0"/>
      <path d="M151.62,195.2s-.01.01-.01.03c-.01,0-.03.01-.04.01.02-.01.04-.02.05-.04Z" fill="#f7bca3" stroke-width="0"/>
      <path d="M152.62,194.55h0c-.05.04-.11.07-.16.12l-.04.02s-.04.02-.06.03c.1-.06.18-.12.27-.17Z" fill="#f7bca3" stroke-width="0"/>
      <path d="M149.04,138.25c-1.5-12.25-27.18-34.64-27.18-29.61,0,4.63-7.24,3.94-8.39,3.8-.02,0-.03,0-.04-.01h-.02c-.07-.01-.1-.01-.1-.01v-15.84h.16c21.38-.1,36.01,19.95,44.38,37.5,2,11.86-7.3,16.42-8.81,4.17Z" fill="#f7bca3" stroke-width="0"/>
      <path d="M151.62,195.2s-.01.01-.01.03c-.01,0-.03.01-.04.01.02-.01.04-.02.05-.04Z" fill="#1f1911" stroke-width="0"/>
      <path d="M152.36,194.72s.04-.02.06-.03l.04-.02c.05-.04.11-.07.16-.11h0c-.09.04-.17.1-.27.16ZM151.56,195.25s.03-.01.04-.01c0-.02.01-.03.01-.03-.01.02-.03.03-.05.04Z" fill="#1f1911" stroke-width="0"/>
      <path d="M157.44,190.93s-.08.07-.12.09c-8.69,5.98-25.94,11.33-33.03,12.2v1.04c.13-.03.21-.05.21-.05,1.07-.43,2.18-.81,3.34-1.17h0c4.05-1.25,8.54-2.17,12.91-3.4.04,0,.09-.02.13-.04.25-.07.49-.13.72-.21.03,0,.07,0,.09-.02.55-.16,1.11-.33,1.65-.51.38-.12.74-.25,1.11-.38.55-.19,1.09-.39,1.63-.59.54-.22,1.07-.43,1.6-.67.02,0,.04-.01.06-.02.02,0,.04-.02.06-.03.04-.01.06-.02.09-.04.5-.23,1.01-.45,1.51-.7.26-.13.52-.27.78-.41.26-.12.51-.26.76-.41h.01s.11-.08.16-.11c.15-.07.3-.17.45-.26.02-.01.04-.02.05-.04.01,0,.02-.02.03-.02h.03c.21-.14.41-.27.62-.42.02,0,.04-.02.06-.04.1-.06.18-.12.27-.17h.01s.02-.01.03-.03h.02v-.03s.06-.02.08-.04h.02s.08-.06.13-.09h-.02c.28-.2.57-.4.85-.61.29-.21.61-.45.93-.69.22-.16.44-.33.66-.5.87-.64,1.72-1.3,2.57-1.95.28-.21.55-.43.83-.63.16-.13.31-.24.45-.36.06-.06.11-.1.17-.14.04-.04.08-.08.12-.11.04-.04.07-.08.11-.12-.31.24-1.14.9-2.15,1.68ZM113.31,112.42v.02s.08-.01.1-.01c-.07-.01-.1-.01-.1-.01ZM113.35,137.04c0-.13-.03-.26-.04-.39v3.19c.02-.11.03-.23.04-.34.02-.17.03-.35.04-.53v-.02c-.01-.23-.02-.46-.02-.7s.01-.48.02-.71c-.01-.17-.02-.34-.04-.5Z" fill="#f7bca3" stroke-width="0"/>
      <path d="M173.11,150.8c-.61,3.81-3.13,7.23-6.6,8.98-1.12,9.27.62,20.97-6.58,29.13l-.19.23s-.01.01-.01.01c0,.01-.02.02-.03.02-.02.02-.03.03-.05.04-.02.02-.04.03-.06.04-.31.24-1.14.9-2.15,1.68-.04.04-.08.07-.12.09-8.69,5.98-25.94,11.33-33.03,12.2-.57.38-1.13.86-1.67,1.4-1.87.36-5.03.8-9.15.81v-.41c-.02-1.65-.06-8.1-.08-16.94v-1.96c0-2.48,0-5.12.01-7.88v-4c0-4.55.03-9.34.07-14.15v-20.2c.81,6.87,6.67,12.21,13.76,12.21,7.64,0,13.85-6.21,13.85-13.85s-6.21-13.84-13.85-13.84c-7.09,0-12.95,5.32-13.76,12.2v-24.17c1.15.14,8.39.83,8.39-3.8,0-5.03,25.68,17.36,27.18,29.61,1.51,12.25,10.81,7.69,8.81-4.17,9.79-3.27,17.69,7.6,15.26,16.72Z" fill="#f7bca3" stroke-width="0"/>
      <path d="M113.41,138.25c0,.24,0,.47-.02.7-.01-.23-.02-.46-.02-.7s.01-.48.02-.71c.01.23.02.47.02.71Z" fill="#fff" stroke-width="0"/>
      <path d="M141.08,138.25c0,7.64-6.21,13.85-13.85,13.85-7.09,0-12.95-5.34-13.76-12.21-.04-.3-.07-.61-.08-.92v-.02c.01-.23.02-.46.02-.7s0-.48-.02-.71c.01-.32.04-.63.08-.93.81-6.88,6.67-12.2,13.76-12.2,7.64,0,13.85,6.19,13.85,13.84Z" fill="#fff" stroke-width="0"/>
      <path d="M149.04,138.25c-1.5-12.25-27.18-34.64-27.18-29.61,0,4.63-7.24,3.94-8.39,3.8-.02,0-.03,0-.04-.01h-.02c-.07-.01-.1-.01-.1-.01v-17.85h.16c27.11.11,42.38,27.66,44.38,39.51,2,11.86-7.3,16.42-8.81,4.17Z" fill="#533c33" stroke-width="0"/>
      <circle cx="127.22" cy="138.25" r="2.22" fill="#231f20" stroke-width="0"/>
      <path d="M113.47,205.43v6.65h-.16c-.18,0-.45-.01-.58-.02-3.39-.35-5.86-4.71-8.56-7.44,1.86.36,5.01.8,9.14.81h.16Z" fill="#d1a08c" stroke-width="0"/>
      <path d="M102.48,204.26v.09c-.06-.05-.14-.1-.2-.14,0,0,.07.02.2.05Z" fill="#eeb08e" stroke-width="0"/>
      <path d="M113.41,138.25c0,.24,0,.47-.02.7v.02c-.01.18-.02.36-.04.53,0,.11-.02.23-.04.34v.05c-.05.41-.11.82-.2,1.22-.06.3-.13.59-.22.88,0,.03-.01.06-.02.08-.08.29-.17.58-.28.87-.07.2-.15.39-.23.59-.05.13-.1.25-.16.37-.11.26-.24.52-.37.77-.07.13-.14.27-.22.4-.18.31-.37.62-.57.92-.18.26-.36.51-.55.76-.12.16-.25.32-.39.48-.24.28-.49.55-.75.81-.16.16-.32.31-.48.46-.2.18-.41.36-.62.53-.31.24-.62.48-.95.7-.38.26-.78.5-1.19.73-.18.09-.37.18-.55.27-.27.13-.54.25-.82.36-.05.03-.1.05-.15.06-.19.08-.38.15-.57.21-1.4.48-2.9.74-4.46.74-7.65,0-13.85-6.21-13.85-13.85s6.2-13.84,13.85-13.84c.58,0,1.16.04,1.72.11.19.02.37.05.56.08.23.04.46.08.69.13.14.03.27.06.41.1.91.22,1.79.54,2.62.94.2.1.4.2.6.31.75.4,1.45.88,2.11,1.42.14.11.28.22.41.34.23.2.45.41.67.62.16.16.31.32.46.48.3.33.58.67.85,1.03.13.18.26.36.38.54.21.3.4.62.58.94.08.12.15.25.21.38.42.8.76,1.64,1.02,2.53.07.24.14.49.19.73.02.03.02.07.03.11.06.26.11.52.15.79,0,.1.03.2.05.31.02.1.03.2.04.31,0,.01.01.02,0,.04.01.13.03.26.04.39.02.16.03.33.04.5.01.23.02.47.02.71Z" fill="#f7bca3" stroke-width="0"/>
      <path d="M75.16,195.2s.01.01.01.03c.01,0,.03.01.04.01-.02-.01-.04-.02-.05-.04Z" fill="#f7bca3" stroke-width="0"/>
      <path d="M74.15,194.55h0c.05.04.11.07.16.12l.04.02s.04.02.06.03c-.1-.06-.18-.12-.27-.17Z" fill="#f7bca3" stroke-width="0"/>
      <path d="M113.47,96.58v15.84s-.01,0-.04.01h-.02s-.06.01-.1.01c-.03,0-.06,0-.1,0-.06.01-.13.02-.22.03-.2.01-.45.04-.74.05-.14.01-.3.02-.46.02-1.06.03-2.45-.02-3.71-.36-.06-.02-.12-.04-.19-.06-.85-.26-1.62-.66-2.17-1.27-.11-.12-.21-.25-.3-.39-.31-.49-.49-1.09-.49-1.83,0-.06,0-.12-.01-.17-.02-.11-.05-.2-.09-.27-.11-.19-.32-.28-.6-.28-.08,0-.18.01-.28.03-.1.01-.21.03-.34.08-.07.01-.15.04-.23.07-.22.07-.46.17-.72.31-.11.05-.22.11-.34.17-.44.23-.93.52-1.47.88-.12.07-.25.16-.38.25-.13.08-.26.17-.39.27-.13.08-.27.18-.41.29-.13.09-.27.19-.41.3-.2.14-.41.3-.62.46-1.09.84-2.28,1.82-3.51,2.92-.16.14-.33.29-.49.44-.66.58-1.32,1.21-2,1.86-.16.15-.33.31-.5.49-1.28,1.24-2.58,2.59-3.85,3.98-.21.23-.42.47-.62.7-2.19,2.46-4.23,5.05-5.9,7.59-.17.26-.34.52-.5.78-.4.63-.77,1.26-1.1,1.87-.18.31-.34.61-.49.91-.35.69-.66,1.36-.92,2.01-.13.32-.25.63-.36.94-.13.38-.25.76-.34,1.12-.04.14-.07.28-.1.41-.04.14-.07.28-.09.41-.02.09-.04.18-.05.27-.03.17-.06.35-.08.52-.03.24-.06.47-.1.69-.03.19-.05.36-.09.53-.01.05-.02.11-.03.16-.03.2-.07.39-.12.58-.16.73-.36,1.39-.59,1.96-.08.21-.17.41-.26.59-.18.38-.37.71-.57,1.01-.81,1.18-1.78,1.73-2.75,1.73-.14,0-.28-.01-.42-.04-.12-.02-.24-.04-.36-.08-.16-.06-.33-.12-.49-.2-.14-.07-.27-.15-.41-.25-.13-.09-.26-.19-.39-.31-.07-.05-.13-.11-.19-.18-.07-.06-.13-.13-.19-.19-.74-.82-1.35-2.01-1.73-3.52-.12-.51-.22-1.04-.29-1.62-.04-.31-.06-.64-.08-.97-.06-1.23.01-2.59.26-4.06,8.36-17.55,23-37.6,44.37-37.5h.16Z" fill="#f7bca3" stroke-width="0"/>
      <path d="M75.16,195.2s.01.01.01.03c.01,0,.03.01.04.01-.02-.01-.04-.02-.05-.04Z" fill="#1f1911" stroke-width="0"/>
      <path d="M74.15,194.55h0c.05.04.11.07.16.12l.04.02s.04.02.06.03c-.1-.06-.18-.12-.27-.17ZM75.16,195.2s.01.01.01.03c.01,0,.03.01.04.01-.02-.01-.04-.02-.05-.04Z" fill="#1f1911" stroke-width="0"/>
      <path d="M113.11,141.11c.09-.4.15-.81.2-1.22v-.05c-.05.43-.12.86-.2,1.27ZM113.4,137.71c0,.18,0,.35,0,.54,0,.24,0,.47-.02.7v.02c.01.31.04.62.08.92v-3.28c-.04.3-.07.61-.08.93.01.06.01.11.01.17ZM113.43,112.43s.02.01.04.01v-.02s-.01,0-.04.01ZM69.46,191.02s-.08-.05-.12-.09c-1-.78-1.84-1.44-2.15-1.68.02.02.04.04.06.06.02.03.04.04.06.06.03.03.07.08.12.11.05.04.1.08.16.14.15.12.3.23.46.36.25.22.53.42.82.63.86.64,1.7,1.31,2.57,1.95.21.17.44.34.66.5.32.25.64.47.93.69.28.21.57.41.86.61h-.03s.09.06.13.09h.02s.05.03.07.04v.03h.03s.02.02.03.02h.01s0,.01,0,.01h0s.05.04.08.06c.06.03.11.07.18.11.02.02.04.03.07.04.2.15.4.28.62.41h0s.01.01.02.01.02.01.03.02c.01.02.03.03.05.04.15.09.3.19.45.26.06.03.11.08.16.11h.01c.25.15.51.29.76.41.26.14.53.28.78.41.51.25,1.01.47,1.51.7.03.02.05.03.09.04.02.01.04.02.06.03.02.01.04.02.07.02.52.24,1.05.45,1.59.67.54.2,1.08.4,1.64.59.36.13.72.26,1.1.38.54.18,1.1.35,1.65.51.03.01.06.02.09.02.24.08.47.14.72.21.04.02.09.03.14.04,4.36,1.23,8.85,2.15,12.91,3.4h.01c1.15.36,2.26.74,3.33,1.17,0,0,.08.02.21.05v-1.04c-7.08-.87-24.34-6.22-33.03-12.2Z" fill="#f1b18e" stroke-width="0"/>
      <path d="M113.31,136.65s0-.03,0-.04c-.01-.11-.02-.21-.04-.31-.02-.11-.04-.21-.05-.31-.04-.27-.09-.53-.15-.79-.01-.04-.01-.08-.03-.11-.05-.24-.12-.49-.19-.73-.26-.89-.6-1.73-1.02-2.53-.06-.13-.13-.26-.21-.38-.18-.32-.37-.64-.58-.94-.12-.18-.24-.36-.38-.54-.27-.36-.55-.7-.85-1.03-.14-.16-.29-.32-.46-.48-.22-.21-.44-.42-.67-.62-.13-.12-.27-.23-.41-.34-.66-.54-1.36-1.02-2.11-1.42-.2-.11-.4-.21-.6-.31-.83-.4-1.71-.72-2.62-.94-.14-.04-.27-.07-.41-.1-.23-.05-.46-.09-.69-.13-.19-.03-.37-.06-.56-.08-.56-.07-1.14-.11-1.72-.11-7.65,0-13.85,6.19-13.85,13.84s6.2,13.85,13.85,13.85c1.56,0,3.06-.26,4.46-.74.19-.06.38-.13.57-.21.05-.01.1-.03.15-.06.28-.11.55-.23.82-.36.18-.09.37-.18.55-.27.41-.23.81-.47,1.19-.73.33-.22.64-.46.95-.7.21-.17.42-.35.62-.53.16-.15.32-.3.48-.46.26-.26.51-.53.75-.81.14-.16.27-.32.39-.48.19-.25.37-.5.55-.76.2-.3.39-.61.57-.92.08-.13.15-.27.22-.4.13-.25.26-.51.37-.77.06-.12.12-.25.16-.37.08-.2.16-.39.23-.59.11-.29.2-.58.28-.87.01-.02.02-.05.02-.08.09-.29.16-.58.22-.88.09-.4.15-.81.2-1.22v-.05c.02-.11.03-.23.04-.34.02-.17.03-.35.04-.53.01.31.04.62.08.92v20.2c-.04,4.81-.06,9.6-.07,14.15v4c-.01,2.76-.01,5.4-.01,7.88v1.96c.02,8.84.06,15.29.08,16.94v.41h-.16c-4.13-.01-7.28-.45-9.14-.81-.55-.54-1.11-1.02-1.68-1.4-7.08-.87-24.34-6.22-33.03-12.2-.03-.02-.08-.05-.12-.09-1-.78-1.84-1.44-2.15-1.68-.03-.02-.07-.05-.11-.08-.01,0-.02-.01-.03-.02,0,0,0-.01-.01-.01l-.19-.23c-7.2-8.16-5.46-19.86-6.58-29.13-3.46-1.75-5.99-5.17-6.6-8.98-2.43-9.12,5.47-19.99,15.26-16.72-.25,1.47-.32,2.84-.25,4.06.02.33.04.66.08.97.06.57.16,1.11.29,1.62.38,1.51.99,2.7,1.73,3.52.06.06.12.13.19.19.06.07.12.13.19.18.13.12.26.22.39.31.14.1.27.18.41.25.16.08.33.14.49.2.12.04.24.06.36.08.14.03.28.04.42.04.97,0,1.94-.55,2.75-1.73.2-.3.39-.63.57-1.01.09-.18.18-.38.26-.59.23-.57.43-1.23.59-1.96.05-.19.09-.38.12-.58.01-.05.02-.11.03-.16.04-.17.06-.34.09-.53.04-.22.07-.45.1-.69.02-.17.05-.35.08-.52.01-.09.03-.18.05-.27.02-.13.05-.27.09-.41.03-.13.06-.27.1-.41.09-.36.21-.74.34-1.12.11-.31.23-.62.36-.94.26-.65.57-1.32.92-2.01.15-.3.32-.6.49-.91.33-.61.7-1.24,1.1-1.87.16-.26.33-.52.5-.78,1.67-2.54,3.71-5.13,5.9-7.59.2-.23.41-.47.62-.7,1.27-1.39,2.57-2.74,3.85-3.98.16-.16.33-.33.5-.49.68-.65,1.34-1.28,2-1.86.16-.15.33-.3.49-.44,1.23-1.1,2.42-2.08,3.51-2.92.21-.16.42-.32.62-.46.14-.11.28-.21.41-.3.14-.11.28-.21.41-.29.13-.1.26-.19.39-.27.13-.09.26-.18.38-.25.54-.36,1.03-.65,1.47-.88.12-.06.23-.12.34-.17.26-.14.5-.24.72-.31.08-.03.16-.06.23-.07.13-.05.24-.07.34-.08.1-.02.2-.03.28-.03.28,0,.49.09.6.28.04.07.07.16.09.27.01.05.01.11.01.17,0,.74.18,1.34.49,1.83.09.14.19.27.3.39.55.61,1.32,1.01,2.17,1.27.07.02.13.04.19.06,1.26.34,2.65.39,3.71.36.16,0,.32-.01.46-.02.29-.01.54-.04.74-.05.09-.01.16-.02.22-.03.04,0,.07,0,.1,0,.04,0,.08-.01.1-.01h.02s.02.01.04.01v24.17c-.04.3-.07.61-.08.93-.01-.17-.02-.34-.04-.5,0-.13-.03-.26-.04-.39Z" fill="#f1b18e" stroke-width="0"/>
      <path d="M113.41,138.25c0,.24,0,.47-.02.7-.01-.23-.02-.46-.02-.7s.01-.48.02-.71c.01.23.02.47.02.71Z" fill="#fff" stroke-width="0"/>
      <path d="M113.37,138.25c0,.24.01.47.02.7v.02c-.01.18-.02.36-.04.53,0,.11-.02.23-.04.34v.05c-.05.41-.11.82-.2,1.22-.06.3-.13.59-.22.88,0,.03-.01.06-.02.08-.08.29-.17.58-.28.87-.07.2-.15.39-.23.59-.05.13-.1.25-.16.37-.11.26-.24.52-.37.77-.07.13-.14.27-.22.4-.18.31-.37.62-.57.92-.18.26-.36.51-.55.76-.12.16-.25.32-.39.48-.24.28-.49.55-.75.81-.16.16-.32.31-.48.46-.2.18-.41.36-.62.53-.31.24-.62.48-.95.7-.38.26-.78.5-1.19.73-.18.09-.37.18-.55.27-.27.13-.54.25-.82.36-.05.03-.1.05-.15.06-.19.08-.38.15-.57.21-1.4.48-2.9.74-4.46.74-7.65,0-13.85-6.21-13.85-13.85s6.2-13.84,13.85-13.84c.58,0,1.16.04,1.72.11.19.02.37.05.56.08.23.04.46.08.69.13.14.03.27.06.41.1.91.22,1.79.54,2.62.94.2.1.4.2.6.31.75.4,1.45.88,2.11,1.42.14.11.28.22.41.34.23.2.45.41.67.62.16.16.31.32.46.48.3.33.58.67.85,1.03.13.18.26.36.38.54.21.3.4.62.58.94.08.12.15.25.21.38.42.8.76,1.64,1.02,2.53.07.24.14.49.19.73.02.03.02.07.03.11.06.26.11.52.15.79.01.1.03.2.05.31.02.1.03.2.04.31,0,.01.01.02,0,.04.01.13.03.26.04.39.02.16.03.33.04.5-.01.23-.02.47-.02.71Z" fill="#fff" stroke-width="0"/>
      <path d="M113.47,94.57v17.85s-.01,0-.04.01h-.02s-.06.01-.1.01c-.03,0-.06,0-.1,0-.06.01-.13.02-.22.03-.2.01-.45.04-.74.05-.14.01-.3.02-.46.02-1.06.03-2.45-.02-3.71-.36-.06-.02-.12-.04-.19-.06-.85-.26-1.62-.66-2.17-1.27-.11-.12-.21-.25-.3-.39-.31-.49-.49-1.09-.49-1.83,0-.06,0-.12-.01-.17-.02-.11-.05-.2-.09-.27-.11-.19-.32-.28-.6-.28-.08,0-.18.01-.28.03-.1.01-.21.03-.34.08-.07.01-.15.04-.23.07-.22.07-.46.17-.72.31-.11.05-.22.11-.34.17-.44.23-.93.52-1.47.88-.12.07-.25.16-.38.25-.13.08-.26.17-.39.27-.13.08-.27.18-.41.29-.13.09-.27.19-.41.3-.2.14-.41.3-.62.46-1.09.84-2.28,1.82-3.51,2.92-.16.14-.33.29-.49.44-.66.58-1.32,1.21-2,1.86-.16.15-.33.31-.5.49-1.28,1.24-2.58,2.59-3.85,3.98-.21.23-.42.47-.62.7-2.19,2.46-4.23,5.05-5.9,7.59-.17.26-.34.52-.5.78-.4.63-.77,1.26-1.1,1.87-.18.31-.34.61-.49.91-.35.69-.66,1.36-.92,2.01-.13.32-.25.63-.36.94-.13.38-.25.76-.34,1.12-.04.14-.07.28-.1.41-.04.14-.07.28-.09.41-.02.09-.04.18-.05.27-.03.17-.06.35-.08.52-.03.24-.06.47-.1.69-.03.19-.05.36-.09.53-.01.05-.02.11-.03.16-.03.2-.07.39-.12.58-.16.73-.36,1.39-.59,1.96-.08.21-.17.41-.26.59-.18.38-.37.71-.57,1.01-.81,1.18-1.78,1.73-2.75,1.73-.14,0-.28-.01-.42-.04-.12-.02-.24-.04-.36-.08-.16-.06-.33-.12-.49-.2-.14-.07-.27-.15-.41-.25-.13-.09-.26-.19-.39-.31-.07-.05-.13-.11-.19-.18-.07-.06-.13-.13-.19-.19-.74-.82-1.35-2.01-1.73-3.52-.12-.51-.22-1.04-.29-1.62-.04-.31-.06-.64-.08-.97-.06-1.23.01-2.59.26-4.06,2-11.85,17.26-39.4,44.37-39.51h.16Z" fill="#443028" stroke-width="0"/>
      <circle cx="99.55" cy="138.26" r="2.22" fill="#231f20" stroke-width="0"/>
    </g>
  </g>
</svg>