<?xml version="1.0" encoding="UTF-8"?>
<svg xmlns="http://www.w3.org/2000/svg" viewBox="0 0 226.77 283.46">
  <defs>
    <style>
      .cls-1 {
        fill: #f7bca3;
      }

      .cls-1, .cls-2, .cls-3, .cls-4, .cls-5, .cls-6, .cls-7, .cls-8, .cls-9, .cls-10, .cls-11, .cls-12, .cls-13, .cls-14, .cls-15, .cls-16, .cls-17, .cls-18, .cls-19, .cls-20 {
        stroke-width: 0px;
      }

      .cls-2 {
        fill: #533c33;
      }

      .cls-3 {
        fill: #967cad;
      }

      .cls-4 {
        fill: #3c4650;
      }

      .cls-5 {
        fill: #3e4552;
      }

      .cls-6 {
        fill: #443028;
      }

      .cls-7 {
        fill: #231f20;
      }

      .cls-8 {
        fill: #1f1911;
      }

      .cls-9 {
        fill: #c5564c;
      }

      .cls-10 {
        fill: #d1a08c;
      }

      .cls-11 {
        fill: #c6e8e3;
      }

      .cls-12 {
        fill: #b3d1cd;
      }

      .cls-13 {
        fill: #f1b18e;
      }

      .cls-14 {
        fill: #fff;
      }

      .cls-15 {
        fill: #eeb08e;
      }

      .cls-16 {
        fill: #e2e3e4;
      }

      .cls-17 {
        fill: #f0685c;
      }

      .cls-18 {
        fill: #efb790;
      }

      .cls-19 {
        fill: #019091;
      }

      .cls-20 {
        fill: #00bfc0;
      }
    </style>
  </defs>
  <g id="Layer_2" data-name="Layer 2">
    <rect class="cls-3" x=".08" y="-.17" width="226.77" height="283.4"/>
  </g>
  <g id="Layer_8" data-name="Layer 8">
    <g>
      <g>
        <g>
          <path class="cls-11" d="M192.39,278.32c.13-3.76.17-7.53.02-11.29,0-.05,0-.11-.01-.16-.06-1.61-.16-3.22-.31-4.83-.47-5.2-1.33-10.32-2.58-15.39-.46-1.85-.97-3.68-1.54-5.5-.12-.39-.24-.77-.36-1.16-1.05-3.28-2.27-6.51-3.59-9.71-.41-.97-.96-1.88-1.2-2.92,1.97.18,3.95.29,5.93.39.03.01.07.01.11.01,2.51.12,5.03.21,7.55.37.1,0,.19,0,.29.01.74.05,1.48.26,2.22.04,3.33,4.47,6.27,9.21,8.83,14.15,2.04,3.94,3.85,7.97,5.36,12.14,1.56,4.35,2.86,8.79,3.82,13.32,1.1,5.19,1.76,10.43,1.99,15.69h-26.81c.14-1.72.24-3.43.29-5.16Z"/>
          <path class="cls-18" d="M113.31,205.44c4.2,0,7.42-.45,9.31-.8-2.71,2.73-5.18,7.09-8.57,7.43-.18.02-.55.03-.74.02v-6.65Z"/>
          <path class="cls-15" d="M124.49,204.22c-.06.04-.14.09-.2.14v-.09c.13-.03.2-.05.2-.05Z"/>
          <path class="cls-1" d="M141.07,138.26c0,7.65-6.2,13.85-13.85,13.85s-13.85-6.2-13.85-13.85,6.2-13.84,13.85-13.84,13.85,6.19,13.85,13.84Z"/>
          <path class="cls-1" d="M151.62,195.21s-.01.01-.01.03c-.01,0-.03.01-.04.01.02-.01.04-.02.05-.04Z"/>
          <path class="cls-1" d="M152.62,194.56h0c-.05.04-.11.07-.16.12l-.04.02s-.04.02-.06.03c.1-.06.18-.12.27-.17Z"/>
          <path class="cls-1" d="M149.04,138.26c-1.51-12.25-27.19-34.63-27.19-29.61s-8.55,3.78-8.55,3.78v-15.84c21.47-.19,36.15,19.92,44.54,37.5,2,11.86-7.29,16.43-8.8,4.17Z"/>
          <path class="cls-1" d="M125.47,170.67c-2.42,2.14-5.37,3.08-8.52,3.45-.83.1-1.66.19-2.2.16-.36,0-.73-.01-1.08-.03-.1,0-.18,0-.28-.01-.01-4.56-.03-9.35-.07-14.17,1.23.17,2.44.07,3.65-.25,3.88-1.06,8.33,1.67,10.15,4.73,1.25,2.12.4,4.32-1.64,6.12Z"/>
          <path class="cls-19" d="M182.82,227.35c.24,1.04.79,1.95,1.2,2.92,1.33,3.2,2.55,6.43,3.59,9.71-1.33-4.3-2.92-8.51-4.79-12.63ZM188.85,227.75c2.52.16,5.04.29,7.55.37-2.52-.16-5.04-.26-7.55-.37ZM192.41,267.02c.15,3.76.11,7.53-.02,11.29-.05,1.72-.15,3.43-.29,5.16.5-5.48.6-10.98.31-16.45Z"/>
          <path class="cls-8" d="M151.62,195.21s-.01.01-.01.03c-.01,0-.03.01-.04.01.02-.01.04-.02.05-.04Z"/>
          <path class="cls-19" d="M159.69,189.18s-.07.06-.11.09c-.31.24-1.14.9-2.15,1.68-.04.03-.09.06-.12.09-.84.66-1.78,1.39-2.64,2.04-.31.23-.62.47-.93.69-.28.21-.57.42-.86.61h.02s-.09.06-.13.1h-.02s-.04.03-.06.04v.02h-.03s-.02.02-.03.02h-.01v.02c-.05.03-.11.06-.16.11l-.04.02s-.04.02-.06.03c-.02.02-.04.03-.06.04-.2.15-.41.28-.62.41h0s-.01.01-.02.01-.02.01-.03.02c0,0-.01.01-.01.03-.01,0-.03.01-.04.01-.15.09-.3.18-.45.26-.05.03-.11.07-.16.11h-.01c-.25.15-.5.29-.76.42-.26.15-.51.28-.78.41-.49.26-.99.49-1.51.7-.03.02-.05.03-.09.04-.02.01-.04.02-.06.03-.02.01-.04.02-.06.02-.52.26-1.05.47-1.59.66-.53.21-1.08.42-1.64.6-.36.13-.73.26-1.1.37-.55.18-1.1.35-1.66.51-.02.01-.05.02-.09.02-.24.07-.47.14-.72.2-.04.02-.1.03-.14.04-4.36,1.23-8.86,2.15-12.91,3.4h-.01c-1.16.36-2.34.05-3.54.18v12.71c6.32,2.04,32.47-19.84,35.43-26.78-.01.01-.02.02-.03.02Z"/>
          <path class="cls-20" d="M197.15,225.64c-9.34-14.75-25.84-24.04-37.42-36.48-2.96,6.94-29.11,28.82-35.43,26.78v-12.71c-.58.37-1.13.86-1.68,1.4-2.71,2.73-5.18,7.09-8.57,7.43-.13.01-.4.02-.58.02h-.16v71.38h78.79c.14-1.72.24-3.43.29-5.16.13-3.76.17-7.53.02-11.29,0-.05,0-.11-.01-.16-.47-8.72-1.95-17.36-4.43-25.72-.12-.39-.24-.77-.36-1.16-1.05-3.28-2.27-6.51-3.59-9.71-.41-.97-.96-1.88-1.2-2.92,1.97.13,3.95.27,5.93.39.03.01.07.01.11.01,2.51.12,5.03.21,7.55.37.1,0,.19,0,.29.01.75.01,1.49.03,2.22.04-.51-.9-1.09-1.75-1.76-2.53ZM176.3,232.81h-32.08v-6.35h32.08v6.35Z"/>
          <rect class="cls-19" x="144.23" y="226.45" width="32.08" height="6.35"/>
          <path class="cls-17" d="M125.47,170.67c-2.42,2.14-5.37,3.08-8.52,3.45-.83.1-1.66.19-2.2.16-.36,0-.73-.01-1.08-.03-.1,0-.18,0-.28-.01h-.07v-14.17c1.23.17,2.44.07,3.65-.25,3.88-1.06,8.33,1.67,10.15,4.73,1.25,2.12.4,4.32-1.64,6.12Z"/>
          <path class="cls-8" d="M152.36,194.73s.04-.02.06-.03l.04-.02c.05-.04.11-.07.16-.11h0c-.09.04-.17.1-.27.16ZM151.56,195.25s.03-.01.04-.01c0-.02.01-.03.01-.03-.01.02-.03.03-.05.04Z"/>
          <path class="cls-1" d="M157.84,134.09c2,11.86-7.29,16.43-8.8,4.17-1.51-12.25-27.19-34.63-27.19-29.61s-8.55,3.78-8.55,3.78v47.65c1.23.17,2.44.07,3.65-.25,3.88-1.06,8.33,1.67,10.15,4.73,1.25,2.12.4,4.32-1.64,6.12-2.42,2.14-5.37,3.08-8.52,3.45-.83.1-1.66.19-2.2.16-.36,0-.73-.01-1.08-.03-.1,0-.18,0-.28-.01.04,15.51-.05,28.36-.07,30.78v.41c4.2,0,7.42-.45,9.31-.8.55-.55,1.1-1.03,1.68-1.4v1.04c.13-.03.2-.05.2-.05,1.07-.43,2.18-.8,3.34-1.17h.01c4.05-1.25,8.55-2.17,12.91-3.4.04-.01.1-.02.14-.04.25-.06.48-.13.72-.2.03,0,.06-.01.09-.02.56-.16,1.11-.33,1.66-.51.37-.12.74-.25,1.1-.37.56-.19,1.09-.4,1.64-.6.53-.21,1.07-.43,1.59-.66.02,0,.04-.01.06-.02.02-.01.04-.02.06-.03.03-.01.05-.02.09-.04.5-.22,1.01-.45,1.51-.7.26-.13.52-.27.78-.41.26-.13.51-.27.76-.42h.01c.05-.03.11-.07.16-.11.15-.07.3-.17.45-.26.02-.01.04-.02.05-.04.01-.01.02-.02.03-.02h.02c.21-.14.42-.27.62-.42.02-.01.04-.02.06-.04.1-.06.18-.12.27-.17h.01s.02-.01.03-.03h.02v-.02s.05-.02.07-.04h.02s.09-.06.13-.1h-.02c.29-.19.58-.4.86-.61.29-.21.61-.44.93-.69,1.09-.8,2.16-1.63,3.23-2.45.28-.21.55-.43.82-.63.16-.12.31-.25.46-.36.05-.05.11-.1.16-.14.09-.07.16-.14.24-.22.03-.02.07-.05.11-.09.01,0,.02-.01.03-.02,0,0,0-.01.01-.01l.19-.22c7.2-8.16,5.45-19.86,6.58-29.13,3.47-1.74,5.99-5.17,6.6-8.97,2.43-9.12-5.47-19.99-15.26-16.73ZM127.22,152.11c-7.65,0-13.85-6.2-13.85-13.85s6.2-13.84,13.85-13.84,13.85,6.19,13.85,13.84-6.2,13.85-13.85,13.85Z"/>
        </g>
        <path class="cls-4" d="M141.07,138.26c0,7.65-6.2,13.85-13.85,13.85s-13.85-6.2-13.85-13.85,6.2-13.84,13.85-13.84,13.85,6.19,13.85,13.84Z"/>
        <circle class="cls-14" cx="127.22" cy="138.26" r="11.68"/>
        <path class="cls-2" d="M149.04,138.26c-1.51-12.25-27.19-34.63-27.19-29.61s-8.55,3.78-8.55,3.78v-17.85c27.21,0,42.54,27.65,44.54,39.51,2,11.86-7.29,16.43-8.8,4.17Z"/>
        <rect class="cls-5" x="144.23" y="226.45" width="32.08" height="6.35"/>
        <path class="cls-5" d="M159.72,189.16c-2.96,6.94-29.11,28.82-35.43,26.78v-12.71c7.08-.88,24.33-6.22,33.03-12.2.03-.02.07-.05.12-.09.16-.11.32-.21.47-.32.29-.21.57-.42.82-.63.16-.13.31-.25.46-.36.05-.05.11-.1.16-.14.12-.11.24-.2.34-.31.01,0,.02-.01.03-.02Z"/>
      </g>
      <g>
        <g>
          <path class="cls-12" d="M43.95,227.35c-.24,1.04-.79,1.95-1.2,2.92-1.33,3.2-2.55,6.43-3.59,9.71-.13.39-.25.77-.36,1.16-.57,1.82-1.08,3.65-1.54,5.5-1.25,5.07-2.11,10.19-2.58,15.39-.15,1.62-.25,3.22-.31,4.83-.01.05-.01.11-.01.16-.15,3.76-.11,7.53.02,11.29.05,1.72.15,3.43.29,5.16H7.86c.22-5.26.89-10.5,1.99-15.69.96-4.52,2.26-8.96,3.82-13.32,1.51-4.17,3.32-8.2,5.36-12.14,2.57-4.94,5.51-9.68,8.83-14.15.75.21,1.49.01,2.22-.04.1-.01.19-.01.29-.01,2.52-.16,5.04-.26,7.55-.37.03,0,.07,0,.11-.01,1.98-.1,3.96-.2,5.93-.39Z"/>
          <path class="cls-10" d="M113.47,205.44v6.65h-.16c-.18,0-.45-.01-.58-.02-3.39-.34-5.86-4.71-8.57-7.43,1.86.35,5.02.79,9.14.8h.16Z"/>
          <path class="cls-15" d="M102.48,204.27v.09c-.06-.05-.14-.1-.2-.14,0,0,.07.02.2.05Z"/>
          <path class="cls-1" d="M85.7,138.26c0,7.65,6.2,13.85,13.85,13.85,7.65,0,13.85-6.2,13.85-13.85s-6.2-13.84-13.85-13.84-13.85,6.19-13.85,13.84Z"/>
          <path class="cls-1" d="M75.16,195.21s.01.01.01.03c.01,0,.03.01.04.01-.02-.01-.04-.02-.05-.04Z"/>
          <path class="cls-1" d="M74.15,194.56h0c.05.04.11.07.16.12l.04.02s.04.02.06.03c-.1-.06-.18-.12-.27-.17Z"/>
          <path class="cls-1" d="M77.73,138.26c1.51-12.25,27.19-34.63,27.19-29.61s8.55,3.78,8.55,3.78v-15.84c-21.47-.19-36.15,19.92-44.54,37.5-2,11.86,7.29,16.43,8.8,4.17Z"/>
          <path class="cls-1" d="M101.31,170.67c2.42,2.14,5.37,3.08,8.52,3.45.83.1,1.66.19,2.2.16.36,0,.73-.01,1.08-.03.1,0,.18,0,.28-.01.01-4.56.03-9.35.07-14.17-1.23.17-2.44.07-3.65-.25-3.88-1.06-8.33,1.67-10.15,4.73-1.25,2.12-.4,4.32,1.64,6.12Z"/>
          <path class="cls-19" d="M34.38,278.32c-.13-3.76-.17-7.53-.02-11.29-.29,5.47-.19,10.97.31,16.45-.14-1.72-.24-3.43-.29-5.16ZM30.37,228.12c2.51-.09,5.03-.21,7.55-.37-2.51.12-5.03.21-7.55.37ZM39.16,239.98c1.05-3.28,2.27-6.51,3.59-9.71.41-.97.96-1.88,1.2-2.92-1.87,4.12-3.47,8.33-4.79,12.63Z"/>
          <path class="cls-8" d="M75.16,195.21s.01.01.01.03c.01,0,.03.01.04.01-.02-.01-.04-.02-.05-.04Z"/>
          <path class="cls-19" d="M98.94,203.05h-.01c-4.05-1.25-8.55-2.17-12.91-3.4-.04-.01-.1-.02-.14-.04-.25-.06-.48-.13-.72-.2-.03,0-.06-.01-.09-.02-.56-.16-1.11-.33-1.66-.51-.37-.12-.74-.25-1.1-.37-.56-.18-1.1-.39-1.64-.6-.55-.19-1.07-.41-1.59-.66-.02,0-.04-.01-.06-.02-.02-.01-.04-.02-.06-.03-.03-.01-.05-.02-.09-.04-.51-.2-1.02-.44-1.51-.7-.27-.13-.52-.26-.78-.41-.26-.13-.51-.27-.76-.42h-.01c-.05-.03-.11-.07-.16-.11-.15-.07-.3-.17-.45-.26-.01,0-.03-.01-.04-.01,0-.02-.01-.03-.01-.03-.01-.01-.02-.02-.03-.02h-.02c-.21-.14-.42-.27-.62-.42-.02-.01-.04-.02-.06-.04-.02-.01-.04-.02-.06-.03l-.04-.02c-.05-.04-.11-.07-.16-.11h0s0-.01-.01-.02c-.01,0-.02,0-.03-.02h-.02v-.02s-.05-.02-.07-.04h-.02s-.09-.06-.13-.1h.02c-.29-.19-.58-.4-.86-.61-.29-.21-.61-.44-.93-.68-.22-.16-.45-.33-.66-.5-.66-.51-1.35-1.05-1.98-1.54-.03-.02-.07-.05-.12-.09-1.01-.78-1.84-1.44-2.15-1.68-.03-.02-.07-.05-.11-.09-.01,0-.02-.01-.03-.02,2.96,6.94,29.11,28.82,35.43,26.78v-12.71c-1.2-.13-2.39.18-3.54-.18Z"/>
          <path class="cls-20" d="M113.31,212.09v71.38h.16v-71.38h-.16Z"/>
          <path class="cls-19" d="M113.31,212.09v71.38H34.67c-.14-1.72-.24-3.43-.29-5.16-.13-3.76-.17-7.53-.02-11.29,0-.05,0-.11.01-.16.47-8.72,1.95-17.36,4.43-25.72.12-.39.24-.77.36-1.16,1.05-3.28,2.27-6.51,3.59-9.71.41-.97.96-1.88,1.2-2.92-1.97.13-3.95.27-5.93.39-.03.01-.07.01-.11.01-2.51.12-5.03.21-7.55.37-.1,0-.19,0-.29.01-.75.01-1.49.03-2.22.04.51-.9,1.09-1.75,1.76-2.53,9.34-14.75,25.84-24.04,37.42-36.48,2.96,6.94,29.11,28.82,35.43,26.78v-12.71c.58.37,1.13.86,1.68,1.4,2.71,2.73,5.18,7.09,8.57,7.43.13.01.4.02.58.02Z"/>
          <path class="cls-9" d="M101.31,170.67c2.42,2.14,5.37,3.08,8.52,3.45.83.1,1.66.19,2.2.16.36,0,.73-.01,1.08-.03.1,0,.18,0,.28-.01h.07s0-14.17,0-14.17c-1.23.17-2.44.07-3.65-.25-3.88-1.06-8.33,1.67-10.15,4.73-1.25,2.12-.4,4.32,1.64,6.12Z"/>
          <path class="cls-8" d="M74.15,194.56h0c.05.04.11.07.16.12l.04.02s.04.02.06.03c-.1-.06-.18-.12-.27-.17ZM75.16,195.21s.01.01.01.03c.01,0,.03.01.04.01-.02-.01-.04-.02-.05-.04Z"/>
          <path class="cls-13" d="M113.42,112.44h-.02s-.05.01-.1.01c-1.18.14-8.39.82-8.39-3.8,0-5.03-25.68,17.36-27.19,29.61-1.51,12.26-10.8,7.69-8.8-4.17-9.8-3.26-17.69,7.6-15.26,16.73.61,3.81,3.13,7.23,6.6,8.97,1.12,9.27-.62,20.97,6.58,29.13l.19.22s.01.01.01.01c.01.01.02.02.03.02.03.03.07.06.11.09.04.04.07.07.12.12.03.03.07.07.12.11.05.04.11.09.16.14.15.12.3.24.46.36.26.21.53.42.82.63.86.64,1.7,1.3,2.57,1.95.21.17.44.34.66.5.32.25.64.47.93.68.28.21.57.42.86.61h-.02s.09.06.13.1h.02s.04.03.06.04v.02h.03s.02.02.03.02h.01c.09.06.17.12.27.18.02.02.04.03.06.04.2.15.41.28.62.41h0s.01.01.02.01.02.01.03.02c.01.02.03.03.05.04.15.09.3.18.45.26.05.03.11.07.16.11h.01c.25.15.5.29.76.42.26.14.52.28.78.41.5.25,1.01.47,1.51.7.03.02.05.03.09.04.02.01.04.02.06.03.02.01.04.02.06.02.52.24,1.06.45,1.59.66.55.2,1.08.41,1.64.6.36.13.73.26,1.1.37.55.18,1.1.35,1.66.51.02.01.05.02.09.02.24.07.47.14.72.2.04.02.1.03.14.04,4.36,1.23,8.86,2.15,12.91,3.4h.01c1.16.36,2.27.74,3.34,1.17,0,0,.07.02.2.05v-1.04c.58.37,1.13.86,1.68,1.4,1.86.35,5.02.79,9.14.8h.16v-.41c-.02-1.76-.07-9.06-.09-18.9,0-2.48,0-5.12.01-7.88-.01-1.3,0-2.64,0-4h-.01s-.05.01-.07,0c-.06.01-.13.01-.19.01-.35.02-.72.03-1.08.03-.55.03-1.37-.06-2.2-.16-3.16-.37-6.11-1.32-8.52-3.45-2.03-1.8-2.89-4-1.64-6.12,1.82-3.06,6.27-5.79,10.15-4.73,1.16.31,2.31.41,3.49.27.02,0,.05-.01.07-.01.03,0,.05-.01.09-.01v-47.65s-.01,0-.04.01ZM113.4,138.26c0,.18,0,.35-.01.53-.01.35-.04.71-.09,1.06-.78,6.9-6.64,12.26-13.75,12.26-7.65,0-13.85-6.2-13.85-13.85s6.2-13.84,13.85-13.84c7.11,0,12.97,5.35,13.75,12.25.04.35.07.71.09,1.06.01.18.01.35.01.53Z"/>
        </g>
        <path class="cls-7" d="M85.7,138.26c0,7.65,6.2,13.85,13.85,13.85,7.65,0,13.85-6.2,13.85-13.85s-6.2-13.84-13.85-13.84-13.85,6.19-13.85,13.84Z"/>
        <circle class="cls-16" cx="99.55" cy="138.26" r="11.68"/>
        <path class="cls-6" d="M77.73,138.26c1.51-12.25,27.19-34.63,27.19-29.61s8.55,3.78,8.55,3.78v-15.84s0-2.01,0-2.01c-27.21,0-42.54,27.65-44.54,39.51-2,11.86,7.29,16.43,8.8,4.17Z"/>
        <path class="cls-8" d="M102.48,203.23v12.71c-6.32,2.04-32.47-19.84-35.43-26.78.01.01.02.02.03.02.07.07.15.14.22.2.03.03.07.07.12.11.05.04.11.09.16.14.15.12.3.24.46.36.26.21.53.42.82.63.15.11.31.21.47.32.04.03.09.06.12.09,8.7,5.98,25.95,11.33,33.03,12.2Z"/>
      </g>
    </g>
  </g>
</svg>