<?xml version="1.0" encoding="UTF-8"?>
<svg id="Livello_2" data-name="Livello 2" xmlns="http://www.w3.org/2000/svg" viewBox="0 0 42.5196838379 42.5197067261">
  <defs>
    <style>
      .cls-1 {
        fill: #f3997b;
      }

      .cls-1, .cls-2, .cls-3, .cls-4, .cls-5, .cls-6, .cls-7, .cls-8, .cls-9 {
        stroke-width: 0px;
      }

      .cls-2 {
        fill: #1d1d1b;
      }

      .cls-3 {
        fill: #facfbd;
      }

      .cls-4 {
        fill: #9185be;
      }

      .cls-5 {
        fill: #c9e8fb;
      }

      .cls-6 {
        fill: #009a93;
      }

      .cls-7 {
        fill: #009cbc;
      }

      .cls-8 {
        fill: #f7b59b;
      }

      .cls-9 {
        fill: #fff;
      }
    </style>
  </defs>
  <g id="Livello_1-2" data-name="Livello 1-2">
    <g>
      <rect class="cls-4" width="42.5196838379" height="42.5196838379"/>
      <path class="cls-7" d="M21.2598209381,21.2598628998h.0000419617c11.7336139679,0,21.2598209381,9.5262050629,21.2598209381,21.2598209381v.0000228882H.0000000007v-.0000228882C.0000000007,30.78606987,9.5262060165,21.2598628998,21.2598209381,21.2598628998Z"/>
      <path class="cls-6" d="M21.2598419189,21.2598628998h.0000209808c11.7336139679,0,21.2598209381,9.5262050629,21.2598209381,21.2598209381v.0000228882h-21.2598419189v-21.2598438263Z"/>
      <path class="cls-3" d="M10.6299209595,21.2598628998v-.0000114441c0-5.8707370758,4.7591724396-10.6299104691,10.6299095154-10.6299104691h.0000114441v24.8031492233l-7.0866146088-3.5433063507s-3.5433073044-10.6299209595-3.5433063507-10.6299209595Z"/>
      <path class="cls-8" d="M31.8897628784,21.2598628998v-.0000114441c0-5.8707370758-4.7591724396-10.6299104691-10.6299095154-10.6299104691h-.0000114441v24.8031492233l7.0866146088-3.5433063507,3.5433063507-10.6299209595Z"/>
      <polygon class="cls-2" points="26.5748023987 26.5748252869 15.9448814392 26.5748252869 15.9448814392 24.8031711578 21.2598419189 24.8031711578 26.5748023987 24.8031711578 26.5748023987 26.5748252869"/>
      <rect class="cls-9" x="12.4015712738" y="24.8031711578" width="7.0866146088" height="3.5433063507"/>
      <rect class="cls-5" x="23.0314922333" y="24.8031711578" width="7.0866146088" height="3.5433063507"/>
      <ellipse class="cls-8" cx="21.2598419189" cy="15.9449033737" rx="3.5433063507" ry="1.7716531754"/>
      <ellipse class="cls-8" cx="19.4881896973" cy="13.2874231339" rx="1.771654129" ry=".8858270645"/>
      <ellipse class="cls-1" cx="24.803150177" cy="15.0590763092" rx="1.771654129" ry=".8858270645"/>
    </g>
  </g>
</svg>