<?xml version="1.0" encoding="UTF-8"?>
<svg id="Layer_2" data-name="Layer 2" xmlns="http://www.w3.org/2000/svg" viewBox="0 0 226.77 283.46">
  <def>
    <style>
      .sorriso{
        transform-origin:50% 60% !important;
        opacity:0;
        animation: sorrisoAnimation 1s linear 1 forwards;
      }
      @keyframes sorrisoAnimation {
      from{
        opacity:0;
        transform: scaleY(0);
      }
      to{
        opacity:1; 
        transform: scaleY(1);
      }
      }
    </style>
  </def>
  <rect id="sfondo" x="-28.35" y="28.35" width="283.46" height="226.77" transform="translate(-28.35 255.12) rotate(-90)" fill="#525252" stroke-width="0"/>
  <g id="corpo">
    <g id="proprietario">
      <polygon points="142.22 185.09 142.22 190.17 132.34 204.82 123.65 217.71 118.86 210.65 114.92 204.82 113.38 202.56 142.22 185.09" fill="#cbcbcb" stroke-width="0"/>
      <polygon points="142.22 190.17 142.22 195.86 139.3 204.82 121.27 260.19 115.29 215.64 118.86 210.65 123.65 217.71 132.34 204.82 142.22 190.17" fill="#b2b2b2" stroke-width="0"/>
      <path d="M84.55,176.87v8.22s28.84,17.47,28.84,17.47v-16.42c-11.15,0-21.3-3.52-28.84-9.27Z" fill="#b5b5b5" stroke-width="0"/>
      <polygon points="84.55 185.09 84.55 190.17 94.43 204.82 103.13 217.71 107.91 210.65 111.86 204.82 113.39 202.56 84.55 185.09" fill="#ebebeb" stroke-width="0"/>
      <path d="M147.68,171.82c-1.61,1.83-3.44,3.52-5.46,5.05-7.54,5.75-17.69,9.27-28.84,9.27v-54.29h44.65c1.41,1.99,2.36,5.47,2.36,9.43,0,5.95-2.13,10.82-4.81,11.16-.15,7.23-3.06,13.91-7.9,19.39" fill="#aaa" stroke-width="0"/>
      <path d="M164.48,127.39v2.38c0,1.15-.93,2.08-2.08,2.08h-49.02v-47.75c22.1,0,40.24,18.13,42.05,41.21h6.97c1.15,0,2.08.93,2.08,2.08Z" fill="#2e2e2e" stroke-width="0"/>
      <path d="M142.22,176.87v8.22l-28.84,17.47v-16.42c11.15,0,21.3-3.52,28.84-9.27Z" fill="#a2a2a2" stroke-width="0"/>
      <polygon points="121.27 260.19 113.38 279.23 113.38 202.56 114.92 204.82 118.86 210.65 115.29 215.64 121.27 260.19" fill="#2e2e2e" stroke-width="0"/>
      <path d="M123.69,283.46l34.97-52.49-10.95-14.68,10.99-5.24-5.34-9.45,1.47-1.54-2.32-2.75c38.1,11.02,40.37,34.18,40.5,86.15h-69.32Z" fill="#636363" stroke-width="0"/>
      <polygon points="147.71 216.29 158.66 230.97 123.69 283.46 121.38 283.46 152.39 230.93 138.91 216.73 153.36 201.6 158.7 211.05 147.71 216.29" fill="#4b4b4b" stroke-width="0"/>
      <path d="M66.38,141.27c0,5.95,2.13,10.82,4.81,11.16.2,9.64,5.3,18.31,13.36,24.44,7.54,5.75,17.69,9.27,28.84,9.27v-54.29s-44.65,0-44.65,0c-1.41,1.99-2.36,5.47-2.36,9.43Z" fill="#c4c4c4" stroke-width="0"/>
      <path d="M62.3,127.39v2.38c0,1.15.93,2.08,2.08,2.08h49.02s0-47.75,0-47.75c-22.1,0-40.24,18.13-42.05,41.21h-6.97c-1.15,0-2.08.93-2.08,2.08Z" fill="#3a3a3a" stroke-width="0"/>
      <polygon points="105.51 260.19 113.39 279.23 113.39 202.56 111.86 204.82 107.91 210.65 111.48 215.64 105.51 260.19" fill="#3a3a3a" stroke-width="0"/>
      <polygon points="84.55 190.17 84.55 195.86 87.48 204.82 105.51 260.19 111.48 215.64 107.91 210.65 103.13 217.71 94.43 204.82 84.55 190.17" fill="#dbdbdb" stroke-width="0"/>
      <path d="M70.11,230.97l34.98,52.49H35.76c.13-51.97,2.4-75.13,40.5-86.15l-2.32,2.75,1.47,1.54-5.34,9.45,10.99,5.24-10.95,14.68Z" fill="#898989" stroke-width="0"/>
      <polygon points="76.38 230.93 107.4 283.46 105.09 283.46 70.11 230.97 81.06 216.29 70.07 211.05 75.41 201.6 89.86 216.73 76.38 230.93" fill="#7a7a7a" stroke-width="0"/>
      <polygon points="113.48 279.18 113.48 283.43 105.49 283.43 74.47 230.9 87.95 216.7 73.5 201.57 72.03 200.03 74.35 197.28 84.64 185.06 84.62 190.11 84.64 190.14 84.64 195.82 87.56 204.79 105.6 260.15 113.47 279.17 113.48 279.18" fill="#898989" stroke-width="0"/>
      <polygon points="153.45 201.57 139 216.7 152.48 230.9 121.47 283.43 113.47 283.43 113.47 279.19 113.48 279.18 113.48 279.17 121.36 260.15 139.39 204.79 142.31 195.82 142.31 190.14 142.33 190.11 142.31 185.06 152.6 197.28 154.92 200.03 153.45 201.57" fill="#6c6c6c" stroke-width="0"/>
    </g>
    <g id="sorriso" class="sorriso">
      <g>
        <g>
          <path d="M119.88,162.32v7.62c-2.22.51-4.53.78-6.91.78v-7.77c2.37,0,4.68-.22,6.91-.63Z" fill="#cbcbcb" stroke-width="0"/>
          <path d="M112.97,171.22h-.5v-8.77h.5c2.28,0,4.57-.21,6.82-.62l.59-.11v8.62l-.39.09c-2.29.53-4.65.79-7.02.79ZM113.47,163.45v6.77c1.99-.03,3.98-.26,5.91-.68v-6.62c-1.95.33-3.94.51-5.91.53Z" fill="#848484" stroke-width="0"/>
        </g>
        <g>
          <path d="M112.98,162.95v7.77c-2.38,0-4.7-.27-6.92-.78v-7.62c2.23.41,4.54.63,6.92.63Z" fill="#ebebeb" stroke-width="0"/>
          <path d="M113.47,171.22h-.5c-2.38,0-4.75-.27-7.03-.79l-.39-.09v-8.62l.59.11c2.25.41,4.54.62,6.83.62h.5v8.77ZM106.55,169.54c1.93.42,3.92.64,5.92.68v-6.77c-1.98-.03-3.97-.21-5.92-.53v6.62Z" fill="#b2afaf" stroke-width="0"/>
        </g>
        <g>
          <path d="M106.05,162.32v7.62c-2.01-.46-3.95-1.11-5.79-1.94v-7.25c1.85.67,3.79,1.2,5.79,1.57Z" fill="#ebebeb" stroke-width="0"/>
          <path d="M106.55,170.57l-.61-.14c-2.04-.47-4.02-1.13-5.88-1.97l-.29-.13v-8.29l.67.24c1.84.67,3.77,1.19,5.71,1.55l.41.08v8.66ZM100.76,167.68c1.53.67,3.14,1.22,4.79,1.63v-6.57c-1.62-.32-3.23-.75-4.79-1.28v6.22Z" fill="#b2afaf" stroke-width="0"/>
        </g>
        <g>
          <path d="M100.26,160.75v7.25c-1.74-.78-3.4-1.73-4.95-2.8v-6.67c1.57.85,3.22,1.6,4.95,2.22Z" fill="#ebebeb" stroke-width="0"/>
          <path d="M100.76,168.77l-.7-.32c-1.72-.77-3.41-1.73-5.03-2.84l-.22-.15v-7.77l.74.4c1.59.86,3.24,1.6,4.88,2.19l.33.12v8.37ZM95.81,164.94c1.28.87,2.6,1.63,3.95,2.28v-6.12c-1.33-.49-2.65-1.08-3.95-1.74v5.58Z" fill="#b2afaf" stroke-width="0"/>
        </g>
        <g>
          <path d="M95.31,158.53v6.67c-1.48-1.03-2.86-2.19-4.14-3.45v-5.9c1.3.98,2.68,1.87,4.14,2.68Z" fill="#ebebeb" stroke-width="0"/>
          <path d="M95.81,166.16l-.79-.55c-1.46-1.02-2.88-2.2-4.21-3.5l-.15-.15v-7.11l.8.6c1.26.95,2.63,1.84,4.08,2.64l.26.14v7.92ZM91.67,161.54c1,.98,2.06,1.88,3.14,2.68v-5.4c-1.1-.62-2.15-1.29-3.14-1.99v4.71Z" fill="#b2afaf" stroke-width="0"/>
        </g>
        <g>
          <path d="M91.17,155.85v5.9c-1.11-1.1-2.13-2.28-3.06-3.53v-5.01c.95.93,1.98,1.81,3.06,2.64Z" fill="#ebebeb" stroke-width="0"/>
          <path d="M91.67,162.95l-.85-.84c-1.12-1.11-2.16-2.31-3.11-3.59l-.1-.13v-6.36l.85.83c.89.88,1.91,1.75,3.02,2.6l.2.15v7.35ZM88.61,158.05c.64.86,1.33,1.68,2.06,2.46v-4.42c-.73-.57-1.42-1.15-2.06-1.73v3.69Z" fill="#b2afaf" stroke-width="0"/>
        </g>
        <g>
          <path d="M88.11,153.21v5.01c-2.69-3.61-4.61-7.83-5.51-12.4,1.4,2.71,3.27,5.2,5.51,7.39Z" fill="#ebebeb" stroke-width="0"/>
          <path d="M88.61,159.73l-.9-1.21c-2.77-3.72-4.71-8.08-5.6-12.6l-.68-3.45,1.61,3.13c1.36,2.64,3.18,5.08,5.42,7.26l.15.15v6.73ZM83.95,149.04c.86,2.68,2.1,5.25,3.66,7.6v-3.22c-1.38-1.37-2.6-2.83-3.66-4.38Z" fill="#b2afaf" stroke-width="0"/>
        </g>
        <g>
          <path d="M125.67,160.75v7.25c-1.84.83-3.77,1.48-5.79,1.94v-7.62c2.01-.37,3.94-.9,5.79-1.57Z" fill="#cbcbcb" stroke-width="0"/>
          <path d="M119.38,170.57v-8.66l.41-.08c1.93-.35,3.85-.88,5.71-1.55l.67-.24v8.29l-.29.13c-1.88.85-3.86,1.51-5.88,1.97l-.61.14ZM120.38,162.73v6.57c1.65-.41,3.25-.96,4.79-1.63v-6.22c-1.57.53-3.17.96-4.79,1.28Z" fill="#848484" stroke-width="0"/>
        </g>
        <g>
          <path d="M130.62,158.53v6.66c-1.55,1.08-3.21,2.02-4.95,2.81v-7.25c1.73-.62,3.38-1.37,4.95-2.22Z" fill="#cbcbcb" stroke-width="0"/>
          <path d="M125.17,168.78v-8.38l.33-.12c1.65-.59,3.29-1.33,4.88-2.19l.74-.4v7.76l-.21.15c-1.56,1.09-3.25,2.05-5.03,2.86l-.71.32ZM126.17,161.1v6.11c1.38-.67,2.71-1.44,3.95-2.29v-5.57c-1.3.67-2.62,1.25-3.95,1.74Z" fill="#848484" stroke-width="0"/>
        </g>
        <g>
          <path d="M134.76,155.85v5.9c-1.27,1.26-2.66,2.42-4.14,3.44v-6.66c1.46-.81,2.85-1.7,4.14-2.68Z" fill="#cbcbcb" stroke-width="0"/>
          <path d="M130.12,166.14v-7.91l.26-.14c1.49-.83,2.86-1.71,4.08-2.64l.8-.61v7.12l-.15.15c-1.31,1.3-2.72,2.47-4.21,3.5l-.78.54ZM131.12,158.82v5.4c1.1-.81,2.15-1.71,3.14-2.68v-4.7c-.97.69-2.02,1.36-3.14,1.99Z" fill="#848484" stroke-width="0"/>
        </g>
        <g>
          <path d="M137.83,153.21v5.01c-.93,1.25-1.96,2.43-3.07,3.53v-5.9c1.09-.83,2.11-1.71,3.07-2.64Z" fill="#cbcbcb" stroke-width="0"/>
          <path d="M134.26,162.95v-7.35l.2-.15c1.05-.8,2.07-1.68,3.02-2.6l.85-.82v6.36l-.1.13c-.93,1.25-1.98,2.46-3.12,3.59l-.85.85ZM135.26,156.1v4.42c.74-.79,1.43-1.62,2.07-2.46v-3.69c-.67.6-1.36,1.18-2.07,1.73Z" fill="#848484" stroke-width="0"/>
        </g>
        <g>
          <path d="M143.34,145.82c-.91,4.57-2.83,8.79-5.51,12.4v-5.01c2.23-2.19,4.1-4.68,5.51-7.39Z" fill="#cbcbcb" stroke-width="0"/>
          <path d="M137.33,159.73v-6.73l.15-.15c2.22-2.18,4.04-4.63,5.42-7.26l1.62-3.11-.69,3.44c-.9,4.52-2.84,8.88-5.6,12.6l-.9,1.21ZM138.33,153.42v3.22c1.56-2.35,2.8-4.92,3.66-7.6-1.06,1.55-2.29,3.01-3.66,4.38Z" fill="#848484" stroke-width="0"/>
        </g>
      </g>
    </g>
  </g>
</svg>