<?xml version="1.0" encoding="UTF-8"?>
<svg id="base" xmlns="http://www.w3.org/2000/svg" viewBox="0 0 226.77 283.46">
  <rect id="sfondo" x="-28.35" y="28.35" width="283.46" height="226.77" transform="translate(-28.35 255.12) rotate(-90)" fill="#525252" stroke-width="0"/>
  <g id="corpo">
    <polygon points="142.22 190.93 142.22 196.01 132.34 210.66 123.65 223.55 118.86 216.49 114.92 210.66 113.38 208.4 142.22 190.93" fill="#cbcbcb" stroke-width="0"/>
    <polygon points="142.22 196.01 142.22 201.69 139.3 210.66 121.27 266.02 115.29 221.48 118.86 216.49 123.65 223.55 132.34 210.66 142.22 196.01" fill="#b2b2b2" stroke-width="0"/>
    <polygon points="153.36 207.43 138.91 222.57 152.39 236.76 124.82 283.46 114.04 283.46 121.27 266.02 139.3 210.66 142.22 201.69 142.22 196 142.24 195.98 142.22 190.93 152.51 203.15 154.83 205.9 153.36 207.43" fill="#6c6c6c" stroke-width="0"/>
    <path d="M84.55,182.71v8.22s28.84,17.47,28.84,17.47v-16.42c-11.15,0-21.3-3.52-28.84-9.27Z" fill="#b5b5b5" stroke-width="0"/>
    <polygon points="112.73 283.46 101.95 283.46 74.38 236.76 87.86 222.57 73.41 207.43 71.94 205.9 74.26 203.15 84.55 190.93 84.53 195.98 84.55 196 84.55 201.69 87.47 210.66 105.51 266.02 112.73 283.46" fill="#898989" stroke-width="0"/>
    <polygon points="84.55 190.93 84.55 196.01 94.43 210.66 103.13 223.55 107.91 216.49 111.86 210.66 113.39 208.4 84.55 190.93" fill="#ebebeb" stroke-width="0"/>
    <path d="M160.39,147.11c0,5.95-2.13,10.82-4.81,11.16-.2,9.64-5.3,18.31-13.36,24.44-7.54,5.75-17.69,9.27-28.84,9.27v-54.29h44.65c1.41,1.99,2.36,5.47,2.36,9.43Z" fill="#aaa" stroke-width="0"/>
    <path d="M164.48,133.22v2.38c0,1.15-.93,2.08-2.08,2.08h-49.02v-47.75c22.1,0,40.24,18.13,42.05,41.21h6.97c1.15,0,2.08.93,2.08,2.08Z" fill="#2e2e2e" stroke-width="0"/>
    <path d="M142.22,182.71v8.22l-28.84,17.47v-16.42c11.15,0,21.3-3.52,28.84-9.27Z" fill="#a2a2a2" stroke-width="0"/>
    <polygon points="121.27 266.02 114.04 283.46 113.38 283.46 113.38 208.4 113.39 208.4 114.91 210.66 118.86 216.48 115.29 221.47 121.27 266.02" fill="#2e2e2e" stroke-width="0"/>
    <path d="M127.58,283.46l31.08-46.65-10.95-14.68,10.99-5.24-5.34-9.46,1.47-1.53-2.32-2.75c36.64,10.6,40.14,32.43,40.48,80.31h-65.41Z" fill="#636363" stroke-width="0"/>
    <polygon points="147.71 222.13 158.66 236.81 127.58 283.46 124.82 283.46 152.39 236.76 138.91 222.57 153.36 207.43 158.7 216.89 147.71 222.13" fill="#4b4b4b" stroke-width="0"/>
    <path d="M66.38,147.11c0,5.95,2.13,10.82,4.81,11.16.2,9.64,5.3,18.31,13.36,24.44,7.54,5.75,17.69,9.27,28.84,9.27v-54.29s-44.65,0-44.65,0c-1.41,1.99-2.36,5.47-2.36,9.43Z" fill="#c4c4c4" stroke-width="0"/>
    <path d="M62.3,133.22v2.38c0,1.15.93,2.08,2.08,2.08h49.02s0-47.75,0-47.75c-22.1,0-40.24,18.13-42.05,41.21h-6.97c-1.15,0-2.08.93-2.08,2.08Z" fill="#3a3a3a" stroke-width="0"/>
    <polygon points="113.39 208.4 113.39 283.46 112.73 283.46 105.51 266.02 111.48 221.47 107.91 216.48 111.86 210.66 113.38 208.4 113.39 208.4" fill="#3a3a3a" stroke-width="0"/>
    <polygon points="84.55 196.01 84.55 201.69 87.48 210.66 105.51 266.02 111.48 221.48 107.91 216.49 103.13 223.55 94.43 210.66 84.55 196.01" fill="#dbdbdb" stroke-width="0"/>
    <path d="M99.2,283.46H33.78c.34-47.88,3.84-69.71,40.48-80.31l-2.32,2.75,1.47,1.53-5.34,9.46,10.99,5.24-10.95,14.68,31.09,46.65Z" fill="#898989" stroke-width="0"/>
    <polygon points="101.95 283.46 99.2 283.46 68.11 236.81 79.06 222.13 68.07 216.89 73.41 207.43 87.86 222.57 74.38 236.76 101.95 283.46" fill="#7a7a7a" stroke-width="0"/>
  </g>
</svg>