<?xml version="1.0" encoding="UTF-8"?>
<svg id="base" xmlns="http://www.w3.org/2000/svg" viewBox="0 0 226.77 283.46">
  <rect id="sfondo" x="0" y="0" width="226.77" height="283.46" fill="#2aad79" stroke-width="0"/>
  <g id="corpo">
    <g>
      <g>
        <path d="M187.12,283.46h-73.73v-58.58s.02,0,.03,0c1.15.05,2.23-.29,3.31-.63,1.8-.57,3.51-1.37,5.2-2.19,1.22-.59,2.39-1.28,3.56-1.96,2.94-1.67,5.78-3.49,8.6-5.34,1.17-.77,2.31-1.58,3.46-2.37.04-.02.07-.05.11-.06,0,0,0,0,0,0,.06-.05.14-.1.21-.16.6-.43,1.51-1.1,2.5-1.83.93-.68,1.92-1.41,2.75-2.03.12-.09.24-.18.35-.26.13-.09.26-.19.37-.28.14-.1.26-.19.38-.28.18-.14.34-.25.47-.35.95-.7,1.89-1.4,2.82-2.12.53-.02.88.37,1.31.57,3.07,1.38,6.12,2.76,9.16,4.19,2.25,1.06,4.47,2.16,6.68,3.3,2.55,1.32,5.04,2.75,7.42,4.37,2,1.35,3.93,2.82,5.53,4.66,1.28,1.45,2.2,3.13,2.95,4.92.54,1.27.99,2.57,1.38,3.88.37,1.22.73,2.44.98,3.69.21,1.03.48,2.06.68,3.1.22,1.11.41,2.23.59,3.35.24,1.52.49,3.05.7,4.58.08.52.13,1.05.19,1.58.32,2.88.63,5.75.89,8.63.09.99.18,2,.23,3,.15,2.77.32,5.54.46,8.32.13,2.52.21,5.03.3,7.55.1,2.91.18,5.83.15,8.75Z" fill="#e2e76f" stroke-width="0"/>
        <path d="M143.12,208.32c-.83.62-1.82,1.35-2.75,2.03v-.05c.92-.67,1.84-1.32,2.75-1.98Z" fill="#0fa5b2" stroke-width="0"/>
        <path d="M141.88,175.47c-1.01,4.38-2.21,8.7-3.95,12.86-1.28,3.07-2.84,6.01-4.82,8.69-.19.25-.37.51-.57.77-.16.18-.33.35-.48.54-1.93,2.31-4.14,4.31-6.81,5.77-2.7,1.48-5.59,2.27-8.65,2.45-.18.07-.37.1-.57.04-.21.08-.43.08-.65.05-.2.09-.41.06-.63.06-.46.02-.93.02-1.38,0v-19.42c.09,0,.18,0,.28.02.1-.06.2-.08.31-.03.05-.02.1-.02.15-.04.1,0,.19-.02.28-.03.04.04.07.02.09-.02,4.06-1.19,6.81-4.11,9.49-7.14-.15-.05-.26-.09-.37-.13-1.03-.25-2.06-.5-3.09-.76-.05-.02-.11-.04-.15-.05-.15-.11-.31-.16-.49-.18l-.04-.02c-.11-.11-.26-.15-.41-.15-.04-.02-.08-.03-.11-.04-.1-.11-.22-.14-.36-.15v-.02h-.04c-.05-.08-.14-.09-.23-.09h0s-.05-.04-.08-.05c-1.74-.78-3.3-1.81-4.5-3.33-.2-.26-.34-.57-.61-.78-.03-.03-.05-.04-.11-.04v-.56c.21,0,3.46.06,4.47.11.02,0,.03,0,.05,0h0c.07,0,.12,0,.17,0,.02,0,.05,0,.07,0,.77.21,1.55.41,2.32.63,2.76.81,5.38,1.93,7.74,3.62.25.18.41.15.63-.02,2.94-2.18,5.35-4.83,7.18-8.01.26-.41.54-.8.67-1.27.03-.02.04-.03.04-.06.92-1.61,1.54-3.33,2.12-5.08.47-1.42.83-2.87,1.19-4.34.47-1.93.89-3.88,1.24-5.85.08-.34.16-.68.16-1.03.28.05.21.28.21.44.08,1.54.15,3.09.21,4.64.09,2.15.08,4.31.27,6.46.08,1.41.08,2.82.23,4.23.24,2.45.07,4.86-.48,7.27Z" fill="#413a30" stroke-width="0"/>
        <path d="M143.57,122.95c-1.43-.7-2.88-1.35-4.37-1.93-3.68-1.45-7.45-2.6-11.33-3.37-3.73-.74-7.49-1.19-11.3-1.25h-3.19v-22.35c.49,0,.97,0,1.46.02,1.33-.03,2.65-.18,3.98-.24,1.51-.08,3.03-.24,4.54-.37.96-.08,1.93-.21,2.89-.36,1.23-.18,2.49-.24,3.68-.63.37-.12.76,0,1.17.18,1.17.55,2.11,1.42,3.12,2.19,1.17.89,2.24,1.91,3.26,2.98.69.72,1.47,1.37,2.06,2.16.79,1.03,1.61,2.06,2.05,3.31.13.36.21.76.25,1.18.1,1.4.22,2.79.4,4.18.13,1.03.26,2.06.36,3.09.11,1.22.24,2.42.37,3.63.11.95.24,1.9.35,2.85.15,1.35.33,2.68.35,4.05,0,.23.41.54-.12.68Z" fill="#f7be87" stroke-width="0"/>
        <path d="M147.53,205.03c-.93.72-1.87,1.42-2.82,2.12-.14.1-.29.21-.47.35-.12.09-.24.18-.38.28-.11.08-.24.18-.37.28-.11.08-.23.17-.35.26-.92.66-1.84,1.32-2.75,1.98v.05c-.99.73-1.9,1.4-2.5,1.83-.08.06-.15.11-.21.16,0,0,0,0,0,0-.04.02-.07.04-.11.06-1.15.8-2.29,1.6-3.46,2.37-2.82,1.86-5.67,3.67-8.6,5.34-1.17.67-2.34,1.37-3.56,1.96-1.69.82-3.39,1.62-5.2,2.19-1.08.34-2.16.68-3.31.63,0,0-.02,0-.03,0v-18.17c.46,0,.93,0,1.38,0,.21,0,.43.03.63-.06.22.03.44.03.65-.05.19.06.38.03.57-.04,3.06-.18,5.95-.98,8.65-2.45,2.66-1.46,4.87-3.46,6.81-5.77.15-.19.32-.37.48-.54,1.46.36,12.55,5.83,14.98,7.23Z" fill="#fdc9b2" stroke-width="0"/>
        <path d="M170.02,139.54c-.54.58-1.17,1.01-1.85,1.41-1.07.62-2.26.97-3.4,1.38-.97.35-1.99.55-2.99.8-1.13.29-2.26.58-3.39.85-.5.12-1.02.07-1.51.24-.87.3-1.81.35-2.71.51-.47.08-.94.19-1.42.25-.79.1-1.56.27-2.34.44-.47.11-.96.15-1.42.19-1.02.08-2,.47-3.04.42,0-.43,0-.85,0-1.27.03-1.75-.04-3.48-.47-5.18-.26-1.03-.86-1.74-1.8-2.2-.24-.11-.48-.25-.72-.38-.21-.02-.38-.16-.57-.26-.03-.02-.06-.04-.09-.05-.02,0-.03,0-.05-.02h-.02c-.32-.06-.61-.17-.87-.36l-.02.02-.02-.02s-.08,0-.11-.02c-.03,0-.05-.03-.08-.06-.07,0-.14,0-.21-.02l-.07.02c-.83-.36-1.67-.72-2.54-.99-.04,0-.06-.08-.1-.14-.53-.08-1.03-.2-1.47-.54-.58,0-1.07-.31-1.61-.46-1.51-.42-3.01-.83-4.53-1.2-1.29-.32-2.58-.65-3.9-.82-.95-.12-1.86-.47-2.82-.47-.68.1-1.32-.24-2-.18-.1,0-.16-.07-.2-.16-.27,0-.54,0-.81,0-1.01.06-2.01-.08-3.02-.13-.75-.03-1.48-.29-2.25-.24-.14,0-.28,0-.38-.11h-.18c-.48-.15-.99,0-1.48-.15-.06-.02-.11-.03-.18-.05v-1.89h.09c.31,0,.61,0,.92.02.42,0,.85,0,1.28-.02h.64c.17,0,.34-.02.5-.02,1.54,0,3.07,0,4.6,0,1.94.08,3.88.15,5.83.24,3.36.17,6.71.44,10.04.78,1.6.17,3.2.31,4.78.54.89.13,1.79.15,2.68.25.51.23,1.06.2,1.61.22.47.02.91.18,1.36.28.54.12,1.1.1,1.65.24.99.26,2.03.3,3.05.5.77.17,1.57.28,2.35.43.83.16,1.68.29,2.51.48.7.16,1.38.37,2.1.44.59.05,1.16.28,1.75.39.72.15,1.41.41,2.14.52.46.07.86.32,1.33.41,1.08.19,2.09.63,3.1,1.03.99.39,2,.78,2.55,1.8.35.65.4,1.6-.23,2.26Z" fill="#f3ab5f" stroke-width="0"/>
        <path d="M144.74,130.54c-.89-.11-1.79-.12-2.68-.25-1.58-.24-3.18-.37-4.78-.54-3.33-.34-6.68-.61-10.04-.78-1.94-.09-3.88-.16-5.83-.24-1.53,0-3.07,0-4.6,0-.16,0-.33,0-.5.02h-.64c-.43,0-.86,0-1.28.02-.31,0-.61,0-.92-.02-.03,0-.05,0-.08,0h-.02v-12.33h3.19c3.81.05,7.57.5,11.3,1.25,3.88.77,7.65,1.92,11.33,3.37,1.48.58,2.94,1.23,4.37,1.93.2.06.33.15.36.4.26,2.4.54,4.79.81,7.19Z" fill="#5b5856" stroke-width="0"/>
        <path d="M145.94,144.78c0,.42,0,.84,0,1.27-.09.37-.13.76-.11,1.14,0,.04,0,.31,0,.34-.02.04-.04.05-.07.05-.06,0-.16-.05-.34-.07-1.09-.14-2.13.05-3.02.73-.29.21-.39.18-.44-.19-.34-2.9-.6-5.8-.83-8.7-.08-1.04-.21-2.08-.21-3.13.07,0,.14,0,.21.02.02.03.05.05.08.06.03.02.07.02.11.02l.02.02.02-.02c.26.19.55.3.87.35h.02s.02.03.02.03h.03s.06.04.09.05c.18.1.35.24.57.26.24.13.47.27.72.38.94.46,1.54,1.17,1.8,2.2.44,1.71.5,3.43.47,5.18Z" fill="#413a30" stroke-width="0"/>
        <path d="M143.12,208.32c-.83.62-1.82,1.35-2.75,2.03v-.05c.92-.67,1.84-1.32,2.75-1.98Z" fill="#f3b590" stroke-width="0"/>
        <path d="M114.53,151.26l-.03-.04h.02s.02.02.02.04Z" fill="#eca680" stroke-width="0"/>
        <path d="M136.69,168.78c-.14.47-.41.86-.67,1.27,0-.54.41-.86.67-1.27Z" fill="#eca680" stroke-width="0"/>
        <path d="M114.49,187.19s-.05.06-.09.02c.03,0,.06-.02.09-.02Z" fill="#413a30" stroke-width="0"/>
        <path d="M146.97,160.59c-.75,1.33-2.12,2.75-3.25,3.06-.41.11-.81.3-1.22.45-.17.06-.25-.05-.37-.13-.18-2.15-.18-4.31-.27-6.46-.07-1.55-.14-3.1-.21-4.64,0-.16.07-.39-.21-.44,0,.35-.08.69-.16,1.03-.34,1.97-.76,3.91-1.24,5.85-.36,1.46-.72,2.91-1.19,4.34-.57,1.74-1.2,3.47-2.12,5.08,0,.03,0,.05-.04.06-.26.41-.68.73-.67,1.27-1.83,3.17-4.24,5.83-7.18,8.01-.22.16-.38.2-.63.02-2.36-1.68-4.98-2.81-7.74-3.62-.77-.23-1.55-.42-2.32-.63-.02,0-.05,0-.07,0-.06-.02-.11-.02-.17,0h0s-.03,0-.05,0c-1.01-.05-4.26-.1-4.47-.11v-22.95h.02c.31-.02.6.03.86.21.05.11.21.13.24.25h-.02s.03.05.03.05c0-.02,0-.03-.02-.05l.02-.02c.32.13.5.39.63.69.02.02.05.05.07.07.31.38.58.8.81,1.24.88,1.66,1.55,3.43,2.62,5,1.38,2.04,3.24,3.32,5.76,3.56,1.82.17,3.65.11,5.47.06,1.35-.03,2.7-.06,4.04-.34,1.41-.28,2.58-.92,3.33-2.22.61-1.06,1.07-2.19,1.41-3.37.5-1.73.91-3.48,1.14-5.27.34-2.1.38-4.2.37-6.32,0-.4-.13-.52-.52-.52-2.88,0-5.74-.05-8.62.11-4.01.22-7.95.83-11.83,1.82-1.92.49-3.85.89-5.82.82v-15.92c.06.02.11.03.18.05.49.15.99,0,1.48.15h.18c.11.11.24.11.38.11.76-.05,1.5.21,2.25.24,1.01.05,2.01.19,3.02.13.28,0,.54,0,.81,0,.04.09.1.17.2.16.68-.06,1.32.28,2,.18.96,0,1.87.34,2.82.47,1.32.17,2.61.5,3.9.82,1.51.37,3.02.78,4.53,1.2.54.15,1.02.47,1.61.46.44.34.94.46,1.47.54.04.05.06.13.1.14.87.27,1.71.63,2.54.99l.07-.02c0,1.05.12,2.09.21,3.13.24,2.91.5,5.8.83,8.7.05.37.15.41.44.19.89-.67,1.93-.86,3.02-.73.18.02.28.07.34.07.29.07.65.2.81.35.18.17.36.33.53.51.61.64,1.18,1.35,1.34,2.2.28,1.45-.67,8.55-1.45,9.94Z" fill="#fdc9b2" stroke-width="0"/>
        <path d="M145.75,147.58c-.06,0-.16-.05-.34-.07.08,0,.21.03.34.07Z" fill="#fdc9b2" stroke-width="0"/>
        <path d="M142.28,136.7h-.03l-.02-.02s.03.02.05.02Z" fill="#eca680" stroke-width="0"/>
        <path d="M114.51,151.22h-.02s.03.05.03.05c0-.02,0-.03-.02-.05ZM139.65,143.79c-2.88,0-5.74-.05-8.62.11-4.01.22-7.95.83-11.83,1.82-1.92.49-3.85.89-5.82.82v4.21h.02c.31-.02.6.03.86.21.05.11.21.13.24.25l.02-.02c.32.13.5.39.63.69.02.02.05.05.07.07.31.38.58.8.81,1.24.88,1.66,1.55,3.43,2.62,5,1.38,2.04,3.24,3.32,5.76,3.56,1.82.17,3.65.11,5.47.06,1.35-.03,2.7-.06,4.04-.34,1.41-.28,2.58-.92,3.33-2.22.61-1.06,1.07-2.19,1.41-3.37.5-1.73.91-3.48,1.14-5.27.34-2.1.38-4.2.37-6.32,0-.4-.13-.52-.52-.52ZM137.37,156.3c-.34,1.04-.86,2.01-1.54,2.87-.58.72-1.36,1.14-2.26,1.26-3.48.47-6.97.56-10.45.08-1.26-.17-2.17-.85-2.86-1.9-.99-1.51-1.59-3.2-2.1-4.92-.32-1.09-.56-2.21-.68-3.34-.21-1.85.28-2.62,2.03-3.25,2.37-.85,4.84-1.16,7.34-1.22,1.58-.03,3.17,0,4.89,0,1.97.05,4.08.12,6.19.26.33.02.48.11.5.48.2,3.29,0,6.53-1.06,9.68Z" fill="#332d2a" stroke-width="0"/>
        <path d="M114.53,151.26l-.03-.04h.02s.02.02.02.04Z" fill="#f3b590" stroke-width="0"/>
        <path d="M133.62,151.84c-1.53.57-3.11.93-4.72,1.19-.05,0-.11-.03-.17-.05.95-.67,1.42-1.52,1.18-2.71-.1-.5-.44-.83-.73-1.22,1.34.13,2.5.69,3.59,1.42.34.22.66.49.96.76.33.31.29.46-.11.6Z" fill="#eeeff5" stroke-width="0"/>
        <path d="M126.09,152.98c-.78.02-1.52-.21-2.26-.42-.79-.23-1.56-.5-2.33-.76-.41-.14-.47-.27-.16-.55,1.25-1.15,2.65-1.99,4.36-2.26h.02c-.29.41-.66.77-.76,1.31-.21,1.15.18,2.03,1.13,2.68Z" fill="#eeeff5" stroke-width="0"/>
      </g>
      <path d="M128.73,152.99c-.88.41-1.76.41-2.64,0-.96-.65-1.34-1.53-1.13-2.68.1-.54.47-.89.76-1.31h-.02s.07-.04.11-.05c.4-.09.74-.31,1.15-.37.8-.1,1.53.08,2.21.49.29.38.63.71.73,1.22.24,1.19-.23,2.05-1.18,2.71Z" fill="#48b1e0" stroke-width="0"/>
      <path d="M138.42,146.62c-.02-.37-.17-.46-.5-.48-2.11-.14-4.22-.21-6.19-.26-1.72,0-3.3-.03-4.89,0-2.5.05-4.97.37-7.34,1.22-1.75.63-2.24,1.4-2.03,3.25.12,1.13.36,2.25.68,3.34.51,1.72,1.11,3.41,2.1,4.92.69,1.05,1.6,1.73,2.86,1.9,3.49.48,6.97.4,10.45-.08.89-.12,1.67-.54,2.26-1.26.69-.86,1.2-1.83,1.54-2.87,1.05-3.15,1.25-6.39,1.06-9.68ZM133.62,151.84c-1.53.57-3.11.93-4.72,1.19-.05,0-.11-.03-.17-.05-.88.41-1.76.41-2.64,0-.78.02-1.52-.21-2.26-.42-.79-.23-1.56-.5-2.33-.76-.41-.14-.47-.27-.16-.55,1.25-1.15,2.65-1.99,4.36-2.26.04-.02.07-.04.11-.05.4-.09.74-.31,1.15-.37.8-.1,1.53.08,2.21.49,1.34.13,2.5.69,3.59,1.42.34.22.66.49.96.76.33.31.29.46-.11.6Z" fill="#fdc9b2" stroke-width="0"/>
      <path d="M123.98,180.05c-2.68,3.04-5.43,5.96-9.49,7.14-.03,0-.06.02-.09.02-.09,0-.18.02-.28.03-.05.02-.09.02-.15.04-.11-.05-.21-.03-.31.03-.09,0-.18,0-.28-.02v-13.04c.06,0,.08,0,.11.04.27.21.41.52.61.78,1.19,1.52,2.75,2.55,4.5,3.33.02,0,.05.02.08.04h0c.09,0,.18.02.23.1h.03v.02c.15.02.27.05.37.15.03,0,.07.02.11.04.15,0,.3.05.41.15l.04.02c.18.02.34.06.49.18.05.02.1.04.15.05,1.03.25,2.06.5,3.09.76.11.04.22.08.37.13Z" fill="#fdc9b2" stroke-width="0"/>
    </g>
    <g>
      <g>
        <path d="M39.65,283.46h73.73s0-58.58,0-58.58c0,0-.02,0-.03,0-1.15.05-2.23-.29-3.31-.63-1.8-.57-3.51-1.37-5.2-2.19-1.22-.59-2.39-1.28-3.56-1.96-2.94-1.67-5.78-3.49-8.6-5.34-1.17-.77-2.31-1.58-3.46-2.37-.04-.02-.07-.05-.11-.06,0,0,0,0,0,0-.06-.05-.14-.1-.21-.16-.6-.43-1.51-1.1-2.5-1.83-.93-.68-1.92-1.41-2.75-2.03-.12-.09-.24-.18-.35-.26-.13-.09-.26-.19-.37-.28-.14-.1-.26-.19-.38-.28-.18-.14-.34-.25-.47-.35-.95-.7-1.89-1.4-2.82-2.12-.53-.02-.88.37-1.31.57-3.07,1.38-6.12,2.76-9.16,4.19-2.25,1.06-4.47,2.16-6.68,3.3-2.55,1.32-5.04,2.75-7.42,4.37-2,1.35-3.93,2.82-5.53,4.66-1.28,1.45-2.2,3.13-2.95,4.92-.54,1.27-.99,2.57-1.38,3.88-.37,1.22-.73,2.44-.98,3.69-.21,1.03-.48,2.06-.68,3.1-.22,1.11-.41,2.23-.59,3.35-.24,1.52-.49,3.05-.7,4.58-.08.52-.13,1.05-.19,1.58-.32,2.88-.63,5.75-.89,8.63-.09.99-.18,2-.23,3-.15,2.77-.32,5.54-.46,8.32-.13,2.52-.21,5.03-.3,7.55-.1,2.91-.18,5.83-.15,8.75Z" fill="#a0a752" stroke-width="0"/>
        <path d="M83.65,208.32c.83.62,1.82,1.35,2.75,2.03v-.05c-.92-.67-1.84-1.32-2.75-1.98Z" fill="#0fa5b2" stroke-width="0"/>
        <path d="M103.17,179.92c-.11.04-.22.08-.37.13,2.68,3.04,5.43,5.96,9.49,7.14.02.05.05.06.09.02.09,0,.18.02.28.03.05.02.09.02.15.04.11-.05.21-.03.31.03.09,0,.18,0,.28-.02v19.42c-.46,0-.93,0-1.38,0-.21,0-.43.03-.63-.06-.22.03-.44.03-.65-.05-.19.06-.38.03-.57-.04-3.06-.18-5.95-.98-8.65-2.45-2.66-1.46-4.87-3.46-6.81-5.77-.15-.19-.32-.37-.48-.54-.19-.26-.37-.52-.57-.77-1.99-2.68-3.54-5.62-4.82-8.69-1.74-4.16-2.94-8.48-3.95-12.86-.55-2.42-.73-4.82-.48-7.27.15-1.41.15-2.82.23-4.23.18-2.15.18-4.31.27-6.46.07-1.55.14-3.1.21-4.64,0-.16-.07-.39.21-.44,0,.35.08.69.16,1.03.34,1.97.76,3.91,1.24,5.85.36,1.46.72,2.91,1.19,4.34.57,1.74,1.2,3.47,2.12,5.08,0,.03,0,.05.04.06.14.47.41.86.67,1.27,1.83,3.17,4.24,5.83,7.18,8.01.22.16.38.2.63.02,2.36-1.68,4.98-2.81,7.74-3.62.77-.23,1.55-.42,2.32-.63.02,0,.12,0,.29-.02h0c1.02-.05,4.25-.1,4.46-.11v.56c-.05,0-.06,0-.11.04-.27.21-.41.52-.61.78-1.19,1.52-2.75,2.55-4.5,3.33-.02,0-.05.02-.08.04h0c-.09,0-.18.02-.23.1h-.03v.02c-.15.02-.27.05-.37.15-.03,0-.07.02-.11.04-.15,0-.3.05-.41.15l-.04.02c-.18.02-.34.06-.49.18-.05.02-.1.04-.15.05-1.03.25-2.06.5-3.09.76Z" fill="#332d2a" stroke-width="0"/>
        <path d="M83.2,122.95c1.43-.7,2.88-1.35,4.37-1.93,3.68-1.45,7.45-2.6,11.33-3.37,3.73-.74,7.49-1.19,11.3-1.25h3.19s0-22.35,0-22.35c-.49,0-.97,0-1.46.02-1.33-.03-2.65-.18-3.98-.24-1.51-.08-3.03-.24-4.54-.37-.96-.08-1.93-.21-2.89-.36-1.23-.18-2.49-.24-3.68-.63-.37-.12-.76,0-1.17.18-1.17.55-2.11,1.42-3.12,2.19-1.17.89-2.24,1.91-3.26,2.98-.69.72-1.47,1.37-2.06,2.16-.79,1.03-1.61,2.06-2.05,3.31-.13.36-.21.76-.25,1.18-.1,1.4-.22,2.79-.4,4.18-.13,1.03-.26,2.06-.36,3.09-.11,1.22-.24,2.42-.37,3.63-.11.95-.24,1.9-.35,2.85-.15,1.35-.33,2.68-.35,4.05,0,.23-.41.54.12.68Z" fill="#f5a14a" stroke-width="0"/>
        <path d="M79.24,205.03c.93.72,1.87,1.42,2.82,2.12.14.1.29.21.47.35.12.09.24.18.38.28.11.08.24.18.37.28.11.08.23.17.35.26.92.66,1.84,1.32,2.75,1.98v.05c.99.73,1.9,1.4,2.5,1.83.08.06.15.11.21.16,0,0,0,0,0,0,.04.02.07.04.11.06,1.15.8,2.29,1.6,3.46,2.37,2.82,1.86,5.67,3.67,8.6,5.34,1.17.67,2.34,1.37,3.56,1.96,1.69.82,3.39,1.62,5.2,2.19,1.08.34,2.16.68,3.31.63,0,0,.02,0,.03,0v-18.17c-.46,0-.93,0-1.38,0-.21,0-.43.03-.63-.06-.22.03-.44.03-.65-.05-.19.06-.38.03-.57-.04-3.06-.18-5.95-.98-8.65-2.45-2.66-1.46-4.87-3.46-6.81-5.77-.15-.19-.32-.37-.48-.54-1.46.36-12.55,5.83-14.98,7.23Z" fill="#f3b590" stroke-width="0"/>
        <path d="M113.39,128.73v1.89c-.06.02-.11.03-.18.05-.49.15-.99,0-1.48.15h-.18c-.11.11-.24.11-.38.11-.76-.05-1.5.21-2.25.24-1.01.05-2.01.19-3.02.13-.28,0-.54,0-.81,0-.04.09-.1.17-.2.16-.68-.06-1.32.28-2,.18-.96,0-1.87.34-2.82.47-1.32.17-2.61.5-3.9.82-1.51.37-3.02.78-4.53,1.2-.54.15-1.02.47-1.61.46-.44.34-.94.46-1.47.54-.04.05-.06.13-.1.14-.87.27-1.71.63-2.54.99-.02,0-.05-.02-.07-.02-.07,0-.14,0-.21.02-.02.03-.05.05-.08.06-.03.02-.07.02-.11.02l-.02.02-.02-.02c-.26.19-.55.3-.87.35h-.02s-.03.03-.05.03c-.03.02-.06.04-.09.05-.18.1-.35.24-.57.26-.24.13-.47.27-.72.38-.94.46-1.54,1.17-1.8,2.2-.44,1.71-.5,3.43-.47,5.18,0,.42,0,.84,0,1.27-1.03.05-2.01-.34-3.04-.42-.46-.04-.96-.08-1.42-.19-.78-.18-1.55-.34-2.34-.44-.48-.06-.96-.17-1.42-.25-.9-.16-1.84-.21-2.71-.51-.5-.18-1.02-.12-1.51-.24-1.13-.27-2.26-.56-3.39-.85-1-.25-2.02-.45-2.99-.8-1.15-.41-2.33-.76-3.4-1.38-.68-.4-1.31-.83-1.85-1.41-.63-.66-.58-1.61-.23-2.26.56-1.02,1.56-1.41,2.55-1.8,1.01-.4,2.02-.84,3.1-1.03.47-.08.87-.34,1.33-.41.73-.11,1.42-.37,2.14-.52.59-.11,1.16-.34,1.75-.39.72-.07,1.41-.28,2.1-.44.83-.19,1.67-.32,2.51-.48.78-.15,1.58-.26,2.35-.43,1.02-.21,2.06-.24,3.05-.5.55-.15,1.11-.12,1.65-.24.45-.1.89-.26,1.36-.28.54-.02,1.09,0,1.61-.22.89-.11,1.79-.12,2.68-.25,1.58-.24,3.18-.37,4.78-.54,3.33-.34,6.68-.61,10.04-.78,1.94-.09,3.88-.16,5.83-.24,1.53,0,3.07,0,4.6,0,.16,0,.33,0,.5.02h.64c.43,0,.86,0,1.28.02.31,0,.61,0,.92-.02h.09Z" fill="#f5a14a" stroke-width="0"/>
        <path d="M82.03,130.54c.89-.11,1.79-.12,2.68-.25,1.58-.24,3.18-.37,4.78-.54,3.33-.34,6.68-.61,10.04-.78,1.94-.09,3.88-.16,5.83-.24,1.53,0,3.07,0,4.6,0,.16,0,.33,0,.5.02h.64c.43,0,.86,0,1.28.02.31,0,.61,0,.92-.02.03,0,.05,0,.08,0h.02v-12.33s-3.19,0-3.19,0c-3.81.05-7.57.5-11.3,1.25-3.88.77-7.65,1.92-11.33,3.37-1.48.58-2.94,1.23-4.37,1.93-.2.06-.33.15-.36.4-.26,2.4-.54,4.79-.81,7.19Z" fill="#413a30" stroke-width="0"/>
        <path d="M85.86,136.22c0,1.05-.12,2.09-.21,3.13-.24,2.91-.5,5.8-.83,8.7-.05.37-.15.41-.44.19-.89-.67-1.93-.86-3.02-.73-.18.02-.28.07-.34.07-.03,0-.05-.02-.07-.05,0-.03,0-.3,0-.34.02-.38-.02-.76-.11-1.14,0-.43,0-.85,0-1.27-.03-1.75.04-3.48.47-5.18.26-1.03.86-1.74,1.8-2.2.24-.11.48-.25.72-.38.21-.02.38-.16.57-.26.03-.02.06-.04.09-.05h.03l.02-.02h.02c.32-.06.61-.17.87-.36l.02.02.02-.02s.08,0,.11-.02c.03,0,.05-.03.08-.06.07,0,.14,0,.21-.02Z" fill="#332d2a" stroke-width="0"/>
        <path d="M83.65,208.32c.83.62,1.82,1.35,2.75,2.03v-.05c-.92-.67-1.84-1.32-2.75-1.98Z" fill="#f3b590" stroke-width="0"/>
        <path d="M112.28,151.23l-.03.04s0-.03.02-.05h.02Z" fill="#eca680" stroke-width="0"/>
        <path d="M90.75,170.05c-.26-.41-.54-.8-.67-1.27.26.41.68.73.67,1.27Z" fill="#eca680" stroke-width="0"/>
        <path d="M112.28,187.19s.05.06.09.02c-.03,0-.06-.02-.09-.02Z" fill="#413a30" stroke-width="0"/>
        <path d="M86.6,144.31c0,2.12.04,4.22.37,6.32.23,1.79.63,3.54,1.14,5.27.34,1.18.8,2.31,1.41,3.37.75,1.3,1.92,1.93,3.33,2.22,1.34.28,2.69.31,4.04.34,1.82.05,3.65.11,5.47-.06,2.52-.24,4.37-1.51,5.76-3.56,1.06-1.57,1.74-3.34,2.62-5,.23-.44.5-.86.81-1.24l.07-.07c.13-.3.31-.56.63-.69l.02.02s-.02.03-.02.05l.03-.04h-.02c.04-.13.2-.15.24-.26.26-.18.55-.24.86-.21h.02v22.95c-.21,0-3.44.06-4.46.11h0c-.17,0-.27,0-.29.02-.77.21-1.55.41-2.32.63-2.76.81-5.38,1.93-7.74,3.62-.25.18-.41.15-.63-.02-2.94-2.18-5.35-4.83-7.18-8.01,0-.54-.41-.86-.67-1.27-.03-.02-.04-.03-.04-.06-.92-1.61-1.54-3.33-2.12-5.08-.47-1.42-.83-2.87-1.19-4.34-.47-1.93-.89-3.88-1.24-5.85-.08-.34-.16-.68-.16-1.03-.28.05-.21.28-.21.44-.08,1.54-.15,3.09-.21,4.64-.09,2.15-.08,4.31-.27,6.46-.11.08-.2.19-.37.13-.41-.15-.8-.34-1.22-.45-1.13-.31-2.5-1.73-3.25-3.06-.79-1.39-1.73-8.49-1.45-9.94.16-.86.73-1.56,1.34-2.2.17-.18.35-.34.53-.51.16-.15.52-.28.81-.35.06,0,.16-.05.34-.07,1.09-.14,2.13.05,3.02.73.29.21.39.18.44-.19.34-2.9.6-5.8.83-8.7.08-1.04.21-2.08.21-3.13.02,0,.05.02.07.02.83-.36,1.67-.72,2.54-.99.04,0,.06-.08.1-.14.53-.08,1.03-.2,1.47-.54.58,0,1.07-.31,1.61-.46,1.51-.42,3.01-.83,4.53-1.2,1.29-.32,2.58-.65,3.9-.82.95-.12,1.86-.47,2.82-.47.68.1,1.32-.24,2-.18.1,0,.16-.07.2-.16.27,0,.54,0,.81,0,1.01.06,2.01-.08,3.02-.13.75-.03,1.48-.29,2.25-.24.14,0,.28,0,.38-.11h.18c.48-.15.99,0,1.48-.15.06-.02.11-.03.18-.05v15.92c-1.97.08-3.9-.33-5.82-.82-3.88-.99-7.82-1.6-11.83-1.82-2.88-.16-5.74-.11-8.62-.11-.39,0-.52.12-.52.52Z" fill="#f3b590" stroke-width="0"/>
        <path d="M81.36,147.51c-.18.02-.28.07-.34.07.13-.04.25-.06.34-.07Z" fill="#f3b590" stroke-width="0"/>
        <path d="M84.49,136.7h.03s.02-.02.02-.02c-.02.02-.03.02-.05.02Z" fill="#eca680" stroke-width="0"/>
        <path d="M112.26,151.22s-.02.03-.02.05l.03-.04h-.02ZM107.57,145.72c-3.88-.99-7.82-1.6-11.83-1.82-2.88-.16-5.74-.11-8.62-.11-.39,0-.52.12-.52.52,0,2.12.04,4.22.37,6.32.23,1.79.63,3.54,1.14,5.27.34,1.18.8,2.31,1.41,3.37.75,1.3,1.92,1.93,3.33,2.22,1.34.28,2.69.31,4.04.34,1.82.05,3.65.11,5.47-.06,2.52-.24,4.37-1.51,5.76-3.56,1.06-1.57,1.74-3.34,2.62-5,.23-.44.5-.86.81-1.24l.07-.07c.13-.3.31-.56.63-.69l.02.02c.04-.12.2-.15.24-.25.26-.18.55-.24.86-.21h.02v-4.21c-1.97.08-3.9-.33-5.82-.82ZM109.3,150.34c-.12,1.13-.36,2.25-.68,3.34-.51,1.72-1.11,3.41-2.1,4.92-.69,1.05-1.6,1.73-2.86,1.9-3.49.48-6.97.4-10.45-.08-.89-.12-1.67-.54-2.26-1.26-.69-.86-1.2-1.83-1.54-2.87-1.05-3.15-1.25-6.39-1.06-9.68.02-.37.17-.46.5-.48,2.11-.14,4.22-.21,6.19-.26,1.72,0,3.3-.03,4.89,0,2.5.05,4.97.37,7.34,1.22,1.75.63,2.24,1.4,2.03,3.25Z" fill="#332d2a" stroke-width="0"/>
        <path d="M112.28,151.23l-.03.04s0-.03.02-.05h.02Z" fill="#f3b590" stroke-width="0"/>
        <path d="M93.15,151.84c1.53.57,3.11.93,4.72,1.19.05,0,.11-.03.17-.05-.95-.67-1.42-1.52-1.18-2.71.1-.5.44-.83.73-1.22-1.34.13-2.5.69-3.59,1.42-.34.22-.66.49-.96.76-.33.31-.29.46.11.6Z" fill="#eeeff5" stroke-width="0"/>
        <path d="M100.68,152.98c.78.02,1.52-.21,2.26-.42.79-.23,1.56-.5,2.33-.76.41-.14.47-.27.16-.55-1.25-1.15-2.65-1.99-4.36-2.26h-.02c.29.41.66.77.76,1.31.21,1.15-.18,2.03-1.13,2.68Z" fill="#eeeff5" stroke-width="0"/>
      </g>
      <path d="M98.04,152.99c.88.41,1.76.41,2.64,0,.96-.65,1.34-1.53,1.13-2.68-.1-.54-.47-.89-.76-1.31h.02s-.07-.04-.11-.05c-.4-.09-.74-.31-1.15-.37-.8-.1-1.53.08-2.21.49-.29.38-.63.71-.73,1.22-.24,1.19.23,2.05,1.18,2.71Z" fill="#48b1e0" stroke-width="0"/>
      <path d="M89.41,156.3c.34,1.04.86,2.01,1.54,2.87.58.72,1.36,1.14,2.26,1.26,3.48.47,6.97.56,10.45.08,1.26-.17,2.17-.85,2.86-1.9.99-1.51,1.59-3.2,2.1-4.92.32-1.09.56-2.21.68-3.34.21-1.85-.28-2.62-2.03-3.25-2.37-.85-4.84-1.16-7.34-1.22-1.58-.03-3.17,0-4.89,0-1.97.05-4.08.12-6.19.26-.33.02-.48.11-.5.48-.2,3.29,0,6.53,1.06,9.68ZM93.04,151.23c.31-.27.62-.54.96-.76,1.09-.73,2.26-1.29,3.59-1.42.68-.41,1.41-.59,2.21-.49.41.05.76.28,1.15.37.04.02.07.04.11.05,1.71.28,3.11,1.11,4.36,2.26.31.28.25.41-.16.55-.77.26-1.54.53-2.33.76-.73.21-1.48.44-2.26.42-.88.41-1.76.41-2.64,0-.06.02-.11.05-.17.05-1.61-.27-3.19-.63-4.72-1.19-.41-.15-.44-.3-.11-.6Z" fill="#f3b590" stroke-width="0"/>
      <line x1="113.39" y1="146.54" x2="113.39" y2="150.75" fill="none" stroke-width="0"/>
      <path d="M113.39,174.26v13.04c-.09,0-.18,0-.28.02-.1-.06-.2-.08-.31-.03-.05-.02-.1-.02-.15-.04-.1,0-.19-.02-.28-.03-.03,0-.06-.02-.09-.02-4.06-1.19-6.81-4.11-9.49-7.14.15-.05.26-.09.37-.13,1.03-.25,2.06-.5,3.09-.76.05-.02.11-.04.15-.05.15-.11.31-.16.49-.18l.04-.02c.11-.11.26-.15.41-.15.04-.02.08-.03.11-.04.1-.11.22-.14.36-.15v-.02h.04c.05-.08.14-.09.23-.09h0s.05-.04.08-.05c1.74-.78,3.3-1.81,4.5-3.33.2-.26.34-.57.61-.78.05-.04.05-.04.11-.04Z" fill="#f3b590" stroke-width="0"/>
      <polyline points="113.39 187.29 113.39 206.72 113.39 224.88" fill="none" stroke-width="0"/>
    </g>
    <path d="M88.83,199.86c-.06.88.25,1.7.42,2.54.45,2.32.92,4.64,1.39,6.96.19.97.4,1.93.6,2.9.19,1.07.38,2.14.56,3.22.35,2.09.71,4.18,1.05,6.28.28,1.73.53,3.47.8,5.21.22,1.42.44,2.85.65,4.27.21,1.47.42,2.94.61,4.41.15,1.17.26,2.35.42,3.53.2,1.49.39,2.98.49,4.47-.04.09-.16.19.02.27.04.22.08.45.11.67q.11.88.98.93c-.25.26-.57.1-.86.13-.64.05-1.3-.35-1.92.1-.02-.03-.03-.05-.05-.08.47-.27.28-.69.23-1.06-.28-1.94-.57-3.87-.89-5.8-.26-1.59-.56-3.16-.83-4.75-.21-1.2-.4-2.39-.61-3.59-.21-1.18-.42-2.36-.64-3.54-.21-1.16-.42-2.32-.64-3.48-.25-1.36-.51-2.71-.78-4.07-.23-1.19-.46-2.38-.7-3.57-.34-1.71-.71-3.41-1.03-5.12-.11-.57-.2-1.13-.38-1.68,0-.09.03-.18,0-.27-.43-1.95-.87-3.91-1.29-5.86-.11-.51-.28-1.02-.23-1.56.77-.34,1.4-.9,2.07-1.39.14-.1.25-.23.43-.08Z" fill="#413a30" stroke-width="0"/>
    <path d="M137.47,211.87c-.03-1.23-.14-2.45-.24-3.67-.21-2.86-.5-5.71-.59-8.58,1.03.01,1.87.43,2.56,1.18-.05.26,0,.51.02.77.11,1.21.22,2.41.33,3.62.14,1.57.27,3.13.41,4.7.31,4.2.5,8.4.48,12.61-.02,3.54-.19,7.08-.6,10.6-.17,1.48-.38,2.95-.64,4.41-.34,1.89-.73,3.78-1.35,5.61-.24.7-.46,1.41-.8,2.07-.17.37-.4.56-.79.27.32-2.14.66-4.28.95-6.43.28-2.06.41-4.13.56-6.2.11-1.57.16-3.15.19-4.73.11-4.98-.05-9.96-.37-14.93-.03-.43.03-.88-.13-1.3Z" fill="#332d2a" stroke-width="0"/>
    <path d="M136.27,245.47c.39.29.62.1.79-.27,0,6.43,0,12.85,0,19.28,0,.91-.29,1.77-.82,2.41-.81.99-1.94,1.55-3.29,1.55-3.84,0-7.69,0-11.53,0,.05-.14.15-.21.27-.29,3.64-2.48,5.48-5.91,5.32-10.31-.14-4.04-1.98-7.24-5.36-9.39-3.75-2.38-7.75-2.48-11.68-.44-4.44,2.31-6.81,7.1-6.05,12.01.52,3.36,2.19,6.05,4.99,8.01.15.1.33.18.33.4-2.13,0-4.25.02-6.38.03-.06,0-.12,0-.18,0-.43,0-.85,0-1.28,0-.24,0-.48,0-.73,0-.94,0-1.88,0-2.83-.02-2.24-.03-4-1.74-4.01-3.97-.02-6.02-.01-12.03-.01-18.05,0-.27-.08-.6.28-.75.02.03.03.05.05.08.62-.46,1.28-.05,1.92-.1.29-.02.6.14.86-.13.2-.01.39-.03.59-.03,2.88,0,5.77,0,8.65,0,.38,0,.57-.1.59-.49.06-1.26.38-2.48.56-3.72.22-1.59.98-2.7,2.59-3.12.14,0,.27,0,.41,0,3.26,0,6.53-.03,9.79.01,1.8.02,2.89,1.22,3.1,2.94.04.3.11.45.43.41.12-.01.24,0,.36,0,1.72,0,3.43,0,5.15,0,.42,0,.66.13.69.58.01.24.07.48.11.72-.05.19-.21.19-.36.2-.21,0-.42,0-.64,0-1.55,0-3.1.02-4.64.03-.71,0-.71,0-.57.72.08.4.19.8.22,1.21.04.41.21.53.61.52,1.61-.03,3.22-.04,4.82-.04.62,0,1.24.05,1.86-.03,1.68.09,3.36.04,5.05.03ZM114.81,245.02s0,0,0,.01c1.05,0,2.1-.02,3.15,0,.63.02,1.39-.37,1.54-.96.22-.84.2-1.71.2-2.57,0-.15-.04-.3-.07-.45-.09-.51-.64-1.04-1.14-1.17-.63-.16-1.24.01-1.86.02-1.52,0-3.04,0-4.56,0-.67,0-1.24.49-1.37,1.15-.15.78-.13,1.58-.08,2.36.05.82.56,1.74,1.72,1.62.81-.08,1.64-.02,2.46-.02Z" fill="#494949" stroke-width="0"/>
    <path d="M109.24,268.44c0-.22-.19-.3-.33-.4-2.8-1.96-4.47-4.65-4.99-8.01-.76-4.91,1.61-9.71,6.05-12.01,3.93-2.04,7.93-1.94,11.68.44,3.38,2.15,5.22,5.35,5.36,9.39.15,4.4-1.69,7.84-5.32,10.31-.12.08-.22.16-.27.29-.85.35-1.67.74-2.53,1.07-.49.18-.99.28-1.49.35-1.3.2-2.61.34-3.91.03-.14-.03-.3,0-.45,0-.13-.28-.38-.15-.58-.17,0,0,0,0,0,0-.32-.25-.7-.32-1.09-.36-.05,0-.1,0-.15-.01-.03-.11-.1-.17-.21-.16-.06-.01-.11-.03-.17-.04-.22-.18-.44-.36-.74-.34l-.02-.02s-.03.01-.03.01c-.22-.22-.45-.41-.78-.37ZM115.44,249.17c-5.01-.1-9.22,4.14-9.17,9.22.05,4.91,4.13,9.18,9.28,9.11,4.97-.07,9.03-4.13,9.03-9.2,0-5.17-4.29-9.23-9.13-9.12Z" fill="#b0b1cb" stroke-width="0"/>
    <path d="M95.81,243.65c0,.09.01.18.02.27-.18-.07-.06-.17-.02-.27Z" fill="#494949" stroke-width="0"/>
    <path d="M114.81,245.02c-.82,0-1.65-.07-2.46.02-1.16.12-1.67-.8-1.72-1.62-.05-.79-.07-1.58.08-2.36.13-.67.69-1.15,1.37-1.15,1.52,0,3.04,0,4.56,0,.62,0,1.23-.18,1.86-.02.5.13,1.05.67,1.14,1.17.03.15.07.3.07.45,0,.86.02,1.73-.2,2.57-.16.59-.92.98-1.54.96-1.05-.03-2.1,0-3.15,0,0,0,0,0,0-.01Z" fill="#5b5856" stroke-width="0"/>
    <path d="M129.93,242.84c.08.07.14.17.23.2.91.3,1.09,1.02,1.06,1.86,0,.18,0,.36,0,.54-.62.08-1.24.03-1.86.03-1.61,0-3.22.01-4.82.04-.4,0-.58-.11-.61-.52-.03-.41-.14-.81-.22-1.21-.14-.71-.14-.71.57-.72,1.55-.01,3.1-.02,4.64-.03.21,0,.42,0,.64,0,.16,0,.31,0,.36-.2Z" fill="#b0b1cb" stroke-width="0"/>
    <path d="M115.44,249.17c4.85-.11,9.13,3.95,9.13,9.12,0,5.07-4.05,9.14-9.03,9.2-5.14.07-9.23-4.2-9.28-9.11-.05-5.08,4.16-9.32,9.17-9.22ZM115.37,264.92c3.72.05,6.61-3.03,6.62-6.55.02-3.8-3.12-6.58-6.48-6.64-3.72-.07-6.74,2.92-6.7,6.67.04,3.58,2.91,6.46,6.55,6.52Z" fill="#332d2a" stroke-width="0"/>
    <path d="M115.37,264.92c-3.64-.06-6.51-2.94-6.55-6.52-.04-3.75,2.98-6.74,6.7-6.67,3.36.06,6.49,2.84,6.48,6.64-.01,3.52-2.9,6.6-6.62,6.55Z" fill="#4565aa" stroke-width="0"/>
  </g>
</svg>