<?xml version="1.0" encoding="UTF-8"?>
<svg xmlns="http://www.w3.org/2000/svg" xmlns:xlink="http://www.w3.org/1999/xlink" viewBox="0 0 226.7716535433 283.4645669291">
  <defs>
    <style>
      .cls-1 {
        mask: url(#mask);
      }

      .cls-2 {
        font-family: Typewriter-Regular, Typewriter;
        font-size: 11px;
      }

      .cls-2, .cls-3 {
        fill: #000;
      }

      .cls-4 {
        filter: url(#luminosity-noclip);
      }

      .cls-5, .cls-6, .cls-3, .cls-7, .cls-8, .cls-9 {
        stroke-width: 0px;
      }

      .cls-5, .cls-7 {
        fill-rule: evenodd;
      }

      .cls-5, .cls-9 {
        fill: #231f20;
      }

      .cls-6, .cls-7 {
        fill: #078c2a;
      }

      .cls-8 {
        fill: #f4ead7;
      }
    </style>
    <filter id="luminosity-noclip" x="27.5626282298" y="46.1517528577" width="164.7186703457" height="31.526090635" color-interpolation-filters="sRGB" filterUnits="userSpaceOnUse">
      <feFlood flood-color="#fff" result="bg"/>
      <feBlend in="SourceGraphic" in2="bg"/>
    </filter>
    <mask id="mask" x="27.5626282298" y="46.1517528577" width="164.7186703457" height="31.526090635" maskUnits="userSpaceOnUse">
      <g class="cls-4">
        <rect class="cls-3" x="27.5626282298" y="46.1517528577" width="164.7186703457" height="15.6614173228"/>
      </g>
    </mask>
  </defs>
  <g id="Livello_2" data-name="Livello 2">
    <rect class="cls-8" width="226.7716535433" height="283.4645669291"/>
    <g>
      <g>
        <path class="cls-5" d="M76.1374296566,62.740609106h-.5352095304l-2.0921870967-3.6005062141v-.048655665l-2.2381513075-4.1357157445c-.0486547369-.1459660668-.1946226598-.2432773967-.3405887266-.2432773967l-7.2010105721-1.9462191739-.1459660668-.048655665h0v-.048655665c0-.924453922-.4865547935-1.7029417771-1.2163869837-2.1408409056v-3.3085722244c0-.3892438406-.3405887266-.7298321902-.7298321902-.7298321902h-1.0217661799c-.3892434636,0-.7298321902.3405883496-.7298321902.7298321902v3.3572278893c-.3892434636.2432773967-.7298321902.5838656594-.9731095869.9731095869l-.6325208603-.1946217318-6.7631119076-1.800252643c-.2432773967-.0486554329-.4865547935.0486554329-.5838656594.2432773967l-4.3789931412,7.7848762314h-.4865547935c-.2919328877,0-.5352102844.2432773967-.5352102844.5352104584,0,1.6056304472.6811766993,3.1139504926,1.7029418351,4.1357166725,1.0704206848,1.0704209168,2.5300850652,1.7029417771,4.1357155124,1.7029417771s3.1139504926-.6811774533,4.1357157445-1.7029417771c1.0704209168-1.0704209168,1.7029417771-2.5300852972,1.7029417771-4.1357157445,0-.2919330617-.2432773967-.5352104584-.5352104584-.5352104584h-.4378991285l-2.0921852407-3.600505286v-.048655665l-1.6056309112-2.724707029,5.9359683875,1.6056304472.1946217318.048655665c.048655665.875798721.5352104584,1.6542861122,1.2650426486,2.0921861687v19.6568143984h-5.1088253314c-.6811765252,0-1.1677313187.5352095304-1.1677313187,1.1677322467v.7298321902c0,.6811774533.5352104584,1.1677322467,1.1677313187,1.1677322467h12.6017689651c.6811774533,0,1.1677322467-.5352095304,1.1677322467-1.1677322467v-.7298321902c0-.6811774533-.5352095304-1.1677322467-1.1677322467-1.1677322467h-5.0601705945v-19.7541257283c.3405887266-.1946217318.6325208603-.4865547935.8271435201-.8271430561h0l.1946226598.048655665,6.6171463048,1.7515969781-1.8975644369,3.2599174874s-1.6056304472,2.8220174309-2.0921852407,3.649160951h-.5352113864c-.2919321337,0-.5352095304.2432773967-.5352095304.5352095304,0,1.6056304472.6811774533,3.0652948276,1.7029417771,4.1357157445,1.0704209168,1.0704209168,2.5300852972,1.7029417771,4.1357157445,1.7029417771s3.0652948276-.6811774533,4.1357157445-1.7029417771c1.0704209168-1.0704209168,1.7029417771-2.5300852972,1.7029417771-4.1357157445.0486547369-.2919321337-.1946226598-.5352095304-.4865547935-.5352095304h0ZM53.2206982348,54.4205210241h0l1.800252643,3.1139504926h-7.249666469l3.600505518-6.2765561861,1.848908308,3.1626056935h0ZM67.1848207145,62.740609106l3.6005062141-6.2765566501,1.800253107,3.1139504926v.0486547369l1.800253107,3.1139514206h-7.2010124281Z"/>
        <path class="cls-9" d="M167.7335098525,60.015903005v-6.7144557786c1.1190756538.2919330617,2.2381513075.7784878552,3.3572288173,1.4596643804.3405887266.1946217318.6811774533.2919330617,1.0704209168.2919330617,1.0704209168,0,1.9462191739-.8271430561,1.9462191739-1.9462191739,0-.8271430561-.4865547935-1.3623535145-1.0704209168-1.7029417771-1.5569757103-.924454386-3.2599174874-1.5569754783-5.3034479912-1.800252875v-2.0435301558c0-.5838657754-.4379000565-1.0704205688-1.0217643239-1.0704205688h-1.1190756538c-.5838661234,0-1.0704209168.4865547935-1.0704209168,1.0704205688v1.9948747228c-4.3303384043.3892436956-7.29832283,2.9679839617-7.29832283,6.6658005777s2.2868069725,5.8386575216,7.249666237,7.1523558352v6.9090784384c-1.800253107-.3892434636-3.3572278893-1.1677322467-4.9628592646-2.2868079005-.2919330617-.2432773967-.7298321902-.3892434636-1.1677313187-.3892434636-1.0704204528,0-1.9462191739.8271435201-1.9462191739,1.9462191739,0,.7298321902.3405882626,1.3136983136.924453922,1.7029417771,2.0921852407,1.5083191173,4.4763044711,2.4327739673,7.0550445052,2.724706101v2.6273966271c0,.5838661234.4865547935,1.0704190608,1.0704209168,1.0704190608h1.1190756538c.5838661234,0,1.0704209168-.4865547935,1.0704209168-1.0704209168v-2.5787400342c4.3789931412-.4379000565,7.346978495-3.0166400907,7.346978495-6.8117671085s-2.0921870967-5.8386565936-7.2496671651-7.2010105721h0ZM161.3596418725,55.9774985905c0-1.5083200453,1.0217652519-2.6273956991,3.1139504926-2.9193287608v6.0819349183c-2.4814287042-.8271435201-3.1139504926-1.7515974421-3.1139504926-3.1626061575ZM167.7335098525,70.4281763276v-6.2279009851c2.4814287043.8271435201,3.2112608944,1.7515965141,3.2112608944,3.2599174874.048656593,1.6056304472-1.1190756538,2.676049508-3.2112608944,2.9679834977h0Z"/>
        <path class="cls-9" d="M128.8499202577,60.4559963102c-.0486547369-.4378991285-.2919321337-.8271435201-.6325208603-1.1190756538-.3405887266-.2919330617-.7784869271-.3892434636-1.2163869837-.3405887266h-.1459660668c-1.1677322467.1459660668-2.0921852407-.4378991285-2.5787400342-1.5569757103-.3892434636-.9731095869-.3892434636-2.3841183024.6325208603-3.1626061575.3405887266-.2919330617.5838661234-.6811765252.6325208603-1.1190761178.0486547369-.4378991285-.0973113299-.875798721-.3892434636-1.2163869837-.6325208603-.7298321902-1.2650417206-1.3623535145-1.9948739108-1.9462191739-.3405887266-.2919328297-.8271435201-.3892439276-1.2650417206-.3405882626-.4379000565.0486554329-.8271435201.2919328297-1.0704209168.6325213243-.8271435201,1.1190761178-2.1408418337,1.1190761178-3.0652948276.7298321902-.92445485-.3405882626-1.8975644369-1.2650424166-1.7029417771-2.6273959311.0486547369-.4378993605-.0486547369-.875798605-.3405887266-1.2163869837-.2919321337-.3405883496-.6811774533-.5838657754-1.1677322467-.5838657754-.92445485-.0973109601-1.8975635089-.0486554801-2.8220174309.0486554764-.4378991285.0486554764-.875798257.2919329022-1.1190756538.6325212228-.2919330617.3405883206-.3892434636.7784876811-.3405887266,1.2163869257.1946217318,1.3623532825-.7298321902,2.2868072045-1.6542861122,2.6760515961-.875798257.3892439276-2.2381522355.4378991285-3.0652952916-.6811765252-.2919330617-.3405882626-.6811765252-.5838656594-1.1190761178-.6325213243-.4378991285-.0486554329-.875798721.0973108659-1.2163869837.3892439276-.7298321902.6325213243-1.3623535145,1.3136978496-1.9462191739,2.0435300398-.2919328297.3405882626-.3892439276.7784878552-.3405882626,1.2650421846.0486554329.4378991285.2919328297.8271435201.6325213243,1.0704209168,1.1190761178.8271435201,1.0704204528,2.1408409056.7298321902,3.0652948276-.3405882626.875798257-1.2650424166,1.8975635089-2.6273959311,1.7029417771-.4378993605-.048655665-.875798605.048655665-1.2163869837.3405887266-.3405883496.2919330617-.5838657754.6811765252-.5838657754,1.1677313187-.0486554801.924453922-.0486554801,1.8975635089.0486554764,2.8220183589.0486554764.4379000565.2919329022.875798257.6325212228,1.1190756538.3405883206.2919321337.7784876811.3892434636,1.2163869257.3405887266,1.3623532825-.1946226598,2.2868076685.7298321902,2.676051132,1.6542870402.3892439276.875798257.4378991285,2.2381513075-.6325213243,3.0652948276-.3405882626.2919321337-.5838656594.6811774533-.6325213243,1.1190756538-.0486554329.4379000565.0973108659.875798257.3892439276,1.2163869837.6325213243.7298321902,1.2650421846,1.3623530505,1.9948743748,1.9462191739.3405882626.2919321337.8271430561.3892434636,1.2650426486.3405887266.4378991285-.0486547369.8271435201-.2919321337,1.0704209168-.6325208603.8271435201-1.1190756538,2.1408409056-1.0704209168,3.0652948276-.7298321902.875798257.3405887266,1.8975635089,1.2650417206,1.7029417771,2.6273966271-.048655665.4379000565.048655665.875798257.3405887266,1.2163869837s.6811765252.5838661234,1.1677313187.5838661234c.3892425355.0486528809.8271425921.0486528809,1.2163860556.0486528809.5352095304,0,1.0217643239-.0486547369,1.5569757103-.0973113299.4379000565-.0486547369.875798257-.2919321337,1.1190756538-.6325208603.2919321337-.3405887266.3892434636-.7784869271.3405887266-1.2163869837-.1946226598-1.3623530505.7298321902-2.2868079005,1.6542870402-2.6760513641.875798257-.3892434636,2.2381513075-.4379000565,3.0652948276.6811774533.2919321337.3405887266.6811774533.5838661234,1.1190756538.6325208603.4379000565.0486547369.92445485-.0973113299,1.2650417206-.3892434636.7298321902-.6325208603,1.3623530505-1.2650417206,1.9462191739-1.9948739108.2919321337-.3405887266.3892434636-.8271435201.3405887266-1.2650417206-.0486547369-.4379000565-.2919321337-.8271435201-.6325208603-1.0704209168-1.1190756538-.8271435201-1.1190756538-2.1408418337-.7298321902-3.0652948276.3405887266-.875798257,1.2650417206-1.8975644369,2.6273966271-1.7029417771.4379000565.0486547369.875798257-.0486547369,1.2163869837-.3405887266.3405887266-.2919321337.5838661234-.6811774533.6325208603-1.1677322467.0486547369-.4379000565.0486547369-.8758001131.0486547369-1.2650435766,0-.5352104584-.0486547369-1.0704209168-.0973113299-1.6056304472h0ZM118.3403374613,62.0616267574c0,2.724706101-2.2381513075,4.9628592646-4.9628592646,4.9628592646s-4.9628592646-2.2381531636-4.9628592646-4.9628592646,2.2381522355-4.9628592646,4.9628592646-4.9628592646c2.724706101,0,4.9628592646,2.2381522355,4.9628592646,4.9628592646Z"/>
      </g>
      <g class="cls-1">
        <g>
          <path class="cls-7" d="M76.1374296566,62.740609106h-.5352095304l-2.0921870967-3.6005062141v-.048655665l-2.2381513075-4.1357157445c-.0486547369-.1459660668-.1946226598-.2432773967-.3405887266-.2432773967l-7.2010105721-1.9462191739-.1459660668-.048655665h0v-.048655665c0-.924453922-.4865547935-1.7029417771-1.2163869837-2.1408409056v-3.3085722244c0-.3892438406-.3405887266-.7298321902-.7298321902-.7298321902h-1.0217661799c-.3892434636,0-.7298321902.3405883496-.7298321902.7298321902v3.3572278893c-.3892434636.2432773967-.7298321902.5838656594-.9731095869.9731095869l-.6325208603-.1946217318-6.7631119076-1.800252643c-.2432773967-.0486554329-.4865547935.0486554329-.5838656594.2432773967l-4.3789931412,7.7848762314h-.4865547935c-.2919328877,0-.5352102844.2432773967-.5352102844.5352104584,0,1.6056304472.6811766993,3.1139504926,1.7029418351,4.1357166725,1.0704206848,1.0704209168,2.5300850652,1.7029417771,4.1357155124,1.7029417771s3.1139504926-.6811774533,4.1357157445-1.7029417771c1.0704209168-1.0704209168,1.7029417771-2.5300852972,1.7029417771-4.1357157445,0-.2919330617-.2432773967-.5352104584-.5352104584-.5352104584h-.4378991285l-2.0921852407-3.600505286v-.048655665l-1.6056309112-2.724707029,5.9359683875,1.6056304472.1946217318.048655665c.048655665.875798721.5352104584,1.6542861122,1.2650426486,2.0921861687v19.6568143984h-5.1088253314c-.6811765252,0-1.1677313187.5352095304-1.1677313187,1.1677322467v.7298321902c0,.6811774533.5352104584,1.1677322467,1.1677313187,1.1677322467h12.6017689651c.6811774533,0,1.1677322467-.5352095304,1.1677322467-1.1677322467v-.7298321902c0-.6811774533-.5352095304-1.1677322467-1.1677322467-1.1677322467h-5.0601705945v-19.7541257283c.3405887266-.1946217318.6325208603-.4865547935.8271435201-.8271430561h0l.1946226598.048655665,6.6171463048,1.7515969781-1.8975644369,3.2599174874s-1.6056304472,2.8220174309-2.0921852407,3.649160951h-.5352113864c-.2919321337,0-.5352095304.2432773967-.5352095304.5352095304,0,1.6056304472.6811774533,3.0652948276,1.7029417771,4.1357157445,1.0704209168,1.0704209168,2.5300852972,1.7029417771,4.1357157445,1.7029417771s3.0652948276-.6811774533,4.1357157445-1.7029417771c1.0704209168-1.0704209168,1.7029417771-2.5300852972,1.7029417771-4.1357157445.0486547369-.2919321337-.1946226598-.5352095304-.4865547935-.5352095304h0ZM53.2206982348,54.4205210241h0l1.800252643,3.1139504926h-7.249666469l3.600505518-6.2765561861,1.848908308,3.1626056935h0ZM67.1848207145,62.740609106l3.6005062141-6.2765566501,1.800253107,3.1139504926v.0486547369l1.800253107,3.1139514206h-7.2010124281Z"/>
          <path class="cls-6" d="M167.7335098525,60.015903005v-6.7144557786c1.1190756538.2919330617,2.2381513075.7784878552,3.3572288173,1.4596643804.3405887266.1946217318.6811774533.2919330617,1.0704209168.2919330617,1.0704209168,0,1.9462191739-.8271430561,1.9462191739-1.9462191739,0-.8271430561-.4865547935-1.3623535145-1.0704209168-1.7029417771-1.5569757103-.924454386-3.2599174874-1.5569754783-5.3034479912-1.800252875v-2.0435301558c0-.5838657754-.4379000565-1.0704205688-1.0217643239-1.0704205688h-1.1190756538c-.5838661234,0-1.0704209168.4865547935-1.0704209168,1.0704205688v1.9948747228c-4.3303384043.3892436956-7.29832283,2.9679839617-7.29832283,6.6658005777s2.2868069725,5.8386575216,7.249666237,7.1523558352v6.9090784384c-1.800253107-.3892434636-3.3572278893-1.1677322467-4.9628592646-2.2868079005-.2919330617-.2432773967-.7298321902-.3892434636-1.1677313187-.3892434636-1.0704204528,0-1.9462191739.8271435201-1.9462191739,1.9462191739,0,.7298321902.3405882626,1.3136983136.924453922,1.7029417771,2.0921852407,1.5083191173,4.4763044711,2.4327739673,7.0550445052,2.724706101v2.6273966271c0,.5838661234.4865547935,1.0704190608,1.0704209168,1.0704190608h1.1190756538c.5838661234,0,1.0704209168-.4865547935,1.0704209168-1.0704209168v-2.5787400342c4.3789931412-.4379000565,7.346978495-3.0166400907,7.346978495-6.8117671085s-2.0921870967-5.8386565936-7.2496671651-7.2010105721h0ZM161.3596418725,55.9774985905c0-1.5083200453,1.0217652519-2.6273956991,3.1139504926-2.9193287608v6.0819349183c-2.4814287042-.8271435201-3.1139504926-1.7515974421-3.1139504926-3.1626061575ZM167.7335098525,70.4281763276v-6.2279009851c2.4814287043.8271435201,3.2112608944,1.7515965141,3.2112608944,3.2599174874.048656593,1.6056304472-1.1190756538,2.676049508-3.2112608944,2.9679834977h0Z"/>
          <path class="cls-6" d="M128.8499202577,60.4559963102c-.0486547369-.4378991285-.2919321337-.8271435201-.6325208603-1.1190756538-.3405887266-.2919330617-.7784869271-.3892434636-1.2163869837-.3405887266h-.1459660668c-1.1677322467.1459660668-2.0921852407-.4378991285-2.5787400342-1.5569757103-.3892434636-.9731095869-.3892434636-2.3841183024.6325208603-3.1626061575.3405887266-.2919330617.5838661234-.6811765252.6325208603-1.1190761178.0486547369-.4378991285-.0973113299-.875798721-.3892434636-1.2163869837-.6325208603-.7298321902-1.2650417206-1.3623535145-1.9948739108-1.9462191739-.3405887266-.2919328297-.8271435201-.3892439276-1.2650417206-.3405882626-.4379000565.0486554329-.8271435201.2919328297-1.0704209168.6325213243-.8271435201,1.1190761178-2.1408418337,1.1190761178-3.0652948276.7298321902-.92445485-.3405882626-1.8975644369-1.2650424166-1.7029417771-2.6273959311.0486547369-.4378993605-.0486547369-.875798605-.3405887266-1.2163869837-.2919321337-.3405883496-.6811774533-.5838657754-1.1677322467-.5838657754-.92445485-.0973109601-1.8975635089-.0486554801-2.8220174309.0486554764-.4378991285.0486554764-.875798257.2919329022-1.1190756538.6325212228-.2919330617.3405883206-.3892434636.7784876811-.3405887266,1.2163869257.1946217318,1.3623532825-.7298321902,2.2868072045-1.6542861122,2.6760515961-.875798257.3892439276-2.2381522355.4378991285-3.0652952916-.6811765252-.2919330617-.3405882626-.6811765252-.5838656594-1.1190761178-.6325213243-.4378991285-.0486554329-.875798721.0973108659-1.2163869837.3892439276-.7298321902.6325213243-1.3623535145,1.3136978496-1.9462191739,2.0435300398-.2919328297.3405882626-.3892439276.7784878552-.3405882626,1.2650421846.0486554329.4378991285.2919328297.8271435201.6325213243,1.0704209168,1.1190761178.8271435201,1.0704204528,2.1408409056.7298321902,3.0652948276-.3405882626.875798257-1.2650424166,1.8975635089-2.6273959311,1.7029417771-.4378993605-.048655665-.875798605.048655665-1.2163869837.3405887266-.3405883496.2919330617-.5838657754.6811765252-.5838657754,1.1677313187-.0486554801.924453922-.0486554801,1.8975635089.0486554764,2.8220183589.0486554764.4379000565.2919329022.875798257.6325212228,1.1190756538.3405883206.2919321337.7784876811.3892434636,1.2163869257.3405887266,1.3623532825-.1946226598,2.2868076685.7298321902,2.676051132,1.6542870402.3892439276.875798257.4378991285,2.2381513075-.6325213243,3.0652948276-.3405882626.2919321337-.5838656594.6811774533-.6325213243,1.1190756538-.0486554329.4379000565.0973108659.875798257.3892439276,1.2163869837.6325213243.7298321902,1.2650421846,1.3623530505,1.9948743748,1.9462191739.3405882626.2919321337.8271430561.3892434636,1.2650426486.3405887266.4378991285-.0486547369.8271435201-.2919321337,1.0704209168-.6325208603.8271435201-1.1190756538,2.1408409056-1.0704209168,3.0652948276-.7298321902.875798257.3405887266,1.8975635089,1.2650417206,1.7029417771,2.6273966271-.048655665.4379000565.048655665.875798257.3405887266,1.2163869837s.6811765252.5838661234,1.1677313187.5838661234c.3892425355.0486528809.8271425921.0486528809,1.2163860556.0486528809.5352095304,0,1.0217643239-.0486547369,1.5569757103-.0973113299.4379000565-.0486547369.875798257-.2919321337,1.1190756538-.6325208603.2919321337-.3405887266.3892434636-.7784869271.3405887266-1.2163869837-.1946226598-1.3623530505.7298321902-2.2868079005,1.6542870402-2.6760513641.875798257-.3892434636,2.2381513075-.4379000565,3.0652948276.6811774533.2919321337.3405887266.6811774533.5838661234,1.1190756538.6325208603.4379000565.0486547369.92445485-.0973113299,1.2650417206-.3892434636.7298321902-.6325208603,1.3623530505-1.2650417206,1.9462191739-1.9948739108.2919321337-.3405887266.3892434636-.8271435201.3405887266-1.2650417206-.0486547369-.4379000565-.2919321337-.8271435201-.6325208603-1.0704209168-1.1190756538-.8271435201-1.1190756538-2.1408418337-.7298321902-3.0652948276.3405887266-.875798257,1.2650417206-1.8975644369,2.6273966271-1.7029417771.4379000565.0486547369.875798257-.0486547369,1.2163869837-.3405887266.3405887266-.2919321337.5838661234-.6811774533.6325208603-1.1677322467.0486547369-.4379000565.0486547369-.8758001131.0486547369-1.2650435766,0-.5352104584-.0486547369-1.0704209168-.0973113299-1.6056304472h0ZM118.3403374613,62.0616267574c0,2.724706101-2.2381513075,4.9628592646-4.9628592646,4.9628592646s-4.9628592646-2.2381531636-4.9628592646-4.9628592646,2.2381522355-4.9628592646,4.9628592646-4.9628592646c2.724706101,0,4.9628592646,2.2381522355,4.9628592646,4.9628592646Z"/>
        </g>
      </g>
    </g>
  </g>
  <g id="Livello_3" data-name="Livello 3">
    <text class="cls-2" transform="translate(38.7151157649 116.2092056274)"><tspan x="0" y="0">Occhio ai indicatori devi</tspan><tspan x="2.986328125" y="12">riuscire a non riempirli </tspan><tspan x="2.986328125" y="24">o svuotare completamente</tspan><tspan x="5.9731445312" y="48">Ogni tua scelta apporta </tspan><tspan x="-5.9731445312" y="60">una modifica significativa:</tspan><tspan x="74.662109375" y="72"></tspan><tspan x="59.7299804688" y="84.0004882812">Etica</tspan><tspan x="47.7836914062" y="96.0004882812">Progresso</tspan><tspan x="53.7568359375" y="108.0004882812">Finanza</tspan></text>
  </g>
</svg>